<?xml version="1.0" encoding="UTF-8" standalone="no"?>
<svg
   xmlns:dc="http://purl.org/dc/elements/1.1/"
   xmlns:cc="http://creativecommons.org/ns#"
   xmlns:rdf="http://www.w3.org/1999/02/22-rdf-syntax-ns#"
   xmlns:svg="http://www.w3.org/2000/svg"
   xmlns="http://www.w3.org/2000/svg"
   xmlns:sodipodi="http://sodipodi.sourceforge.net/DTD/sodipodi-0.dtd"
   xmlns:inkscape="http://www.inkscape.org/namespaces/inkscape"
   height="163.37402"
   width="380.43057"
   version="1.2"
   viewBox="0 0 380.43059 163.37403"
   id="svg2124"
   sodipodi:docname="allpass.svg"
   inkscape:version="1.0 (4035a4f, 2020-05-01)">
  <defs
     id="defs2128" />
  <sodipodi:namedview
     inkscape:document-rotation="0"
     pagecolor="#ffffff"
     bordercolor="#666666"
     borderopacity="1"
     objecttolerance="10"
     gridtolerance="10"
     guidetolerance="10"
     inkscape:pageopacity="0"
     inkscape:pageshadow="2"
     inkscape:window-width="1440"
     inkscape:window-height="900"
     id="namedview2126"
     showgrid="false"
     inkscape:zoom="2.1407026"
     inkscape:cx="184.4911"
     inkscape:cy="67.253105"
     inkscape:window-x="0"
     inkscape:window-y="267"
     inkscape:window-maximized="0"
     inkscape:current-layer="svg2124" />
  <metadata
     id="metadata1950">
    <rdf:RDF>
      <cc:Work
         rdf:about="">
        <dc:format>image/svg+xml</dc:format>
        <dc:type
           rdf:resource="http://purl.org/dc/dcmitype/StillImage" />
        <dc:title>reverb</dc:title>
      </cc:Work>
    </rdf:RDF>
  </metadata>
  <title
     id="title1952">reverb</title>
  <path
     d="m 145.23783,78.384037 -0.012,-0.1382 0.124,-0.0042 0.04,-0.0642 -0.236,0.1068 -0.194,-0.0548 -0.416,0.0436 -0.184,-0.1328 -0.11,0.0728 -0.364,-0.0338 -0.076,0.1488 -0.044,-0.0444 -0.322,0.0696 -0.578,0.2628 -0.32,0.0574 -0.194,0.0992 -0.164,0.2206 -0.672,0.2088 -0.37,0.282 -0.344,0.0876 -0.052,0.0924 -0.124,0.0414 -0.386,0.5258 -0.416,0.2718 -0.296,0.5122 -0.386,0.3362 -0.184,0.3212 0.048,8e-4 0.002,0.3442 -0.076,0.3144 -0.024,0.6754 -0.14,0.715 -0.212,0.6512 0.15,0.8774 -0.046,0.8746 0.302,0.7476 0.254,0.8712 0.274,0.4102 0.238,0.577 0.112,0.1222 0.02,-0.0678 0.014,0.1364 0.118,0.1516 0.342,0.23 0.122,0.2246 0.096,-0.0342 0.116,0.0638 0.49,0.0194 0.232,0.2406 0.04,-0.0318 0.182,0.1238 0.368,0.0746 0.178,-0.0352 0.17,-0.1288 0.564,0.0814 0.706,-0.336 0.164,-0.2316 0.028,0.1124 0.43,-0.2532 0.53,-0.432 0.066,0.0188 0.192,-0.1138 0.178,0.019 0.624,-0.275 0.226,-0.1676 0.096,0.008 0.858,-0.6976 0.33,-0.4684 0.186,-0.133 0.25,-0.329 0.132,-0.0658 0.184,-0.3392 0.308,-1.1036 0.228,-1.727 0.068,-1.1986 -0.158,-1.0344 -0.122,-0.0952 -0.24,-0.6872 -0.154,-0.2454 -0.462,0.1392 -0.926,0.5462 -0.186,0.235 -0.078,-0.0308 0.028,0.0892 -0.28,0.1672 -0.236,0.285 -0.16,0.0672 -0.274,0.3146 -0.2,0.1116 -0.284,0.3432 -0.656,0.4562 -0.156,0.022 -0.354,0.4052 -0.264,0.4946 -0.596,0.7084 -0.124,0.0948 0.204,-0.2616"
     fill="none"
     stroke="#4ca2d4"
     stroke-linejoin="round"
     stroke-width="6"
     id="path1954" />
  <path
     d="m 199.97783,34.924037 0.09,0.2104 0.134,0.1172 0.118,-0.3534 -0.074,0.006 0.028,0.1342 -0.006,-0.0892 -1.048,0.1748 -0.088,-0.1444 -0.058,0.1514 -0.214,0.0186 -0.08,0.1042 -0.574,0.3158 -0.246,0.0482 -0.21,0.1912 -0.254,0.0554 -0.128,-0.0504 -0.022,0.1334 -0.044,-0.0688 -0.176,0.1834 -0.31,0.1496 -0.118,-0.0058 -0.238,0.1552 -1.058,0.3908 -0.644,0.5162 -0.394,0.4708 -0.272,0.2192 -0.134,0.2564 -0.078,0.008 -0.19,0.2196 -0.044,-0.0192 -0.18,0.298 -0.18,0.1038 -0.112,0.2476 -0.132,0.0732 -0.198,0.4758 -0.192,0.899 -0.244,0.6378 0.082,-0.0356 0.134,0.4634 0.02,0.3774 0.4,0.8642 0.268,0.2952 0.08,-0.0014 0.124,0.3036 0.276,0.3728 0.104,-0.0322 0.086,0.0472 0.248,0.3368 0.126,-0.0244 0.19,0.2224 0.206,0.007 0.338,0.2608 0.154,-0.008 0.05,0.0948 0.348,-10e-4 0.34,0.2284 0.524,0.1436 0.64,0.3362 0.332,-0.0598 0.142,0.0678 1.14,0.153 0.6,-0.032 0.262,0.0954 0.266,-0.1522 0.612,-0.0316 1.134,-0.7002 0.37,-0.4666 0.28,-0.4918 0.37,-0.4118 0.156,-0.392 0.238,-0.3254 0.12,-0.0382 0.336,-0.462 0.334,-0.5284 0.038,-0.1806 0.036,0.0248 -0.016,-0.084 0.438,-1.172 -0.01,-0.5234 -0.24,-0.819 -0.218,-0.1934 -0.106,0.0098 -0.076,-0.1826 0.002,0.0528 -0.098,-0.065 -0.152,0.0934 -1.022,0.059 -0.526,0.343 -0.844,0.4096 -0.636,0.1918 -0.794,0.666 -0.692,0.4824 -0.61,0.5566 -0.33,0.1966 -0.574,0.561 0.228,-0.3912 0.104,-0.3986"
     fill="none"
     stroke="#4ca2d4"
     stroke-linejoin="round"
     stroke-width="6"
     id="path1956" />
  <path
     d="m 179.59783,72.499037 -0.206,0.096 0.02,-0.0722 0.086,0.0256 0.014,-0.0434 0.076,0.0604 -0.062,0.4674 0.03,1.1894 0.168,0.5946 0.026,0.545 -0.068,0.6688 0.104,1.266 -0.078,2.854 0.056,0.5984 -0.008,1.7564 0.118,1.0304 -0.082,1.877 0.078,0.7928 -0.082,0.693 0.018,0.9206 -0.168,1.0184 0.1,0.3736 0.028,2.343 0.068,0.5746 -0.064,0.985 0.152,0.959 0.002,0.6802 0.028,0.0836 0.03,-0.0368 0.004,0.544 -0.048,0.047 0.004,-0.09 0.076,-0.0468 0.228,0.162 1.194,0.311 0.268,-0.0422 1.8,0.1544 1.086,8e-4 0.436,0.1118 0.552,-0.1566 0.782,-0.0448 0.306,-0.149 0.356,-0.059 0.626,0.1494 0.432,0.217 0.542,0.1422 1.212,-0.0928 0.456,0.1098 1.054,-0.036 1.192,0.236 1.482,-0.0878 0.546,-0.1254 1.758,-0.1588 0.874,-0.1554 0.814,0.009 1.378,-0.452 0.428,-0.005 0.372,-0.1254 1.666,0.037 2.324,-0.4546 0.096,0.09 0.252,0.0454 0.988,-0.1136 0.152,0.0664 0.298,-0.1398 0.32,-0.0574 0.878,0.1292 0.2148,0.0846 0.6368,0.0142 0.7214,-0.0172 0.3282,-0.1312 0.2718,0.0412 0.0554,0.1276 0.0958,0.0224 0.0798,-0.0808 0.821,0.0158 0.2184,-0.151 0.1018,0.1262 0.253,-0.0576 0.7466,0.0624 0.298,-0.1012 0.064,0.108 0.1024,-0.0798 0.1178,0.0352 0.0898,-0.0452 0.0818,0.051 0.2266,-0.0474 0.531,0.0632 0.3426,-0.0396 0.0562,-0.066 0.0382,0.0846 -0.0378,-0.1202 -0.004,0.0806 -0.0304,-0.0452 0.1288,-1.3266 -0.027,-1.2738 -0.1276,-0.9676 -0.005,-0.5688 0.0172,-1.0466 0.1066,-0.776 -0.0978,-0.7128 -0.1156,-2.4348 -0.0144,-0.9124 0.0886,-0.535 -0.1428,-1.9958 0.0554,-1.1336 -0.05,-0.8696 -0.11,-0.4838 0.009,-1.024 0.0946,-0.7416 -0.041,-0.5506 -0.0394,-0.1116 -0.0168,0.209 -0.0396,-0.212 0.0702,-1.4112 -0.079,-0.4656 -0.1038,-0.1948 -0.0402,-2.0268 -0.0216,0.1804 -0.167,-0.434 -0.1002,-0.0706 -0.3086,-0.1144 -1.632,0.1722 -0.6038,-0.082 -0.4616,0.1256 -0.3146,-0.0244 -0.1514,0.1454 -0.6294,0.148 -1.172,-0.1362 -0.9158,0.2352 -0.4072,-0.0838 -0.15,0.053 -0.278,-0.175 -0.222,-0.0242 -0.948,0.0228 -0.186,-0.1236 -0.198,-0.036 -0.2,0.0862 -0.84,0.0064 -0.42,0.0892 -0.648,0.013 -0.322,-0.0886 -0.808,0.1956 -0.858,0.1144 -0.324,-0.0256 -0.688,0.2068 -0.134,2e-4 -0.246,-0.1574 -0.268,0.0574 -0.322,-0.1134 -0.702,0.0412 -0.152,-0.158 -0.186,0.0066 -0.156,0.296 -0.182,0.1442 -0.598,0.0744 -0.126,10e-4 -0.342,-0.1648 -0.324,0.019 -0.356,-0.1488 -0.462,0.0178 -0.134,-0.154 -0.022,0.1482 -0.538,-0.0742 -0.874,0.2792 -0.714,-0.0136 -0.164,-0.193 -0.202,-0.053 -0.174,0.1698 -1.182,0.0372 -0.192,0.0912 -0.424,-0.0672 -0.124,-0.1628 -0.16,-0.0468 -0.126,0.173 -0.282,8e-4 -0.306,-0.0858 -0.226,0.1442 -0.392,0.0422 -0.486,-0.1304 -0.118,-0.006 -0.096,0.0722 -0.774,-0.0886 -0.4,-0.1556 -0.118,0.052 -0.332,-0.0564 -0.122,0.0574 -0.074,-0.078 -0.108,0.0676 -0.094,-0.0628 -0.22,-0.0072 -0.11,0.209 -0.17,0.0338 -0.07,-0.2274 -0.16,-0.0504 0.042,0.027 0.002,-0.1316 -0.018,0.0716 -0.086,0.0236 -0.346,-0.0836 -0.108,0.2282 -0.174,0.04 -0.132,-0.2454 -0.478,-0.027 -0.024,-0.0536 0.034,0.1382 0.046,-0.0604 -0.012,0.4326 0.266,1.2884 0.414,2.6876 -0.04,1.5776 0.176,1.5126 -0.194,1.8248 0.154,1.8012 0.026,2.092 0.306,2.6036 0.08,1.6862 0.148,0.8088 0.14,0.3376 0.262,0.3244 0.254,-0.054 0.474,0.0424 1.682,-0.4086 1.17,-0.0064 1.06,0.2378 1.566,0.0032 1.386,-0.2962 0.558,-0.0528 0.52,0.0422 1.278,0.2736 1.314,-0.0012 1.172,-0.3012 0.244,0.1326 0.254,-0.0094 0.248,-0.1558 0.232,-0.0286 0.56,0.0846 1.4,-0.0794 0.962,-0.1932 0.202,0.0068 0.196,0.1434 0.226,-0.018 0.232,-0.1656 0.884,-0.1278 0.428,-0.1442 0.572,-0.047 0.16,-0.0966 1.332,0.322 1.3814,-0.2004 0.4178,-0.1392 0.4614,0.2282 0.375,0.0666 0.8366,-0.4242 0.1804,-0.0372 -0.0188,0.0576 -0.0804,-0.013 -0.0116,-0.1126 0.2092,-3.4696 -0.0278,-0.578 -0.314,-0.9554 -0.087,-0.627 -0.101,-3.2224 -0.2092,-1.3282 0.1314,-2.1824 -0.008,-0.436 -0.0896,-0.2314 -0.0754,0.0966 -0.2534,0.0068 -0.2968,-0.2762 -0.3444,-0.0502 -0.577,0.0494 -0.263,-0.0994 -0.31,0.0132 -0.3336,0.1778 -1.176,0.2272 -0.818,-0.0396 -0.842,0.0582 -0.486,-0.0976 -2.526,-0.0356 -0.29,0.0872 -0.838,-0.0842 -1.69,0.3954 -0.212,-0.0778 -0.526,0.031 -1.158,-0.3068 -0.592,-0.0182 -1.002,0.147 -1.376,0.4584 -0.314,0.0264 -0.286,-0.1158 -0.838,-0.0694 -0.522,-0.2664 -0.216,-0.028 -0.148,0.0844 -0.678,0.109 -0.804,0.2606 -0.296,-0.1328 -0.222,0.0866 0.074,0.0946 0.056,1.9608 -0.046,2.4992 0.306,2.3064 0.086,1.986 0.018,0.0712 0.168,0.0306 0.128,0.1236 0.126,0.2152 0.494,0.3258 0.166,0.059 0.494,-0.0462 2.12,-0.508 1.09,-0.1368 0.932,0.0382 1.298,0.2072 0.886,-0.1184 1.778,-0.0614 0.58,-0.1104 1.308,-0.07 0.514,0.0834 0.416,-0.137 0.456,0.0014 1.256,0.1748 0.478,-0.0638 0.26,0.0996 0.478,-0.1318 0.438,-0.0394 0.76,0.1572 -0.064,-0.0622 -0.148,-1.5626 -0.332,-1.304 -0.042,-0.6314 0.362,-1.438 0.166,-0.3696 -0.088,0.17 -0.002,-0.091 -0.296,-0.289 -0.804,-0.087 -1.446,0.113 -0.858,-0.1134 -0.592,0.0122 -0.498,0.1296 -0.16,0.1294 -0.702,0.2556 -1.166,0.0192 -0.332,-0.112 -0.758,0.0908 -1.532,0.488 -1.532,0.024 -0.688,0.1642 -0.072,-0.0406 0.014,0.1126 0.086,-0.163 -0.122,-0.5994"
     fill="none"
     stroke="#4ca2d4"
     stroke-linejoin="round"
     stroke-width="6"
     id="path1958" />
  <path
     d="m 203.67783,120.41004 0.176,0.002 -0.06,-0.0288 -0.362,0.131 -0.622,-4e-4 -0.656,-0.1978 -0.39,-0.0184 -0.25,0.0178 -0.258,0.2046 -0.194,0.0326 -0.206,-0.0678 -0.442,0.028 -0.154,0.215 -0.394,0.2432 -0.938,0.981 -0.082,0.2272 -0.14,0.1422 -0.222,0.5682 -0.298,0.3712 -0.184,0.4256 -0.306,0.4042 -0.052,0.3806 -0.234,0.4886 0.024,0.3374 -0.086,0.7072 0.036,0.614 0.242,0.8806 0.276,0.5526 0.404,0.4036 0.08,0.1874 0.198,0.214 0.484,0.4114 0.116,0.2452 0.204,0.1804 0.474,0.252 0.482,0.0226 0.164,0.154 0.058,-0.0238 0.404,0.1852 0.46,0.0762 0.29,-0.131 0.336,-0.0286 0.178,-0.0814 0.206,0.1222 0.348,-0.0224 0.526,-0.1404 0.254,0.0634 0.852,-0.4134 0.922,-0.7746 0.15,-0.0412 0.362,-0.2598 0.438,-0.4936 0.19,-0.0962 0.4916,-1.0066 0.2656,-1.1798 0.0282,-0.695 -0.2356,-1.114 -0.2174,-0.5452 -0.0728,-0.0958 -0.0904,0.1234 -0.079,-0.0512 -0.2022,-0.4952 -0.712,-0.8878 -0.29,-0.2418 -0.274,-0.0964 -0.258,-0.2012 -0.244,-0.049 -0.112,-0.1156 -0.142,-0.0222 -0.876,0.4062 -0.666,0.4224 -0.474,0.4846 -0.384,0.6184 -0.108,0.6516 -0.002,0.863 0.128,0.7874 0.27,0.6588 0.294,0.233 0.376,0.118 0.846,-0.0588 0.42,-0.1122 1.378,-0.663 0.458,-0.1402 0.346,-0.2684"
     fill="none"
     stroke="#4ca2d4"
     stroke-linejoin="round"
     stroke-width="6"
     id="path1960" />
  <path
     d="m 287.42783,81.373037 0.2482,-1.1408 -0.1124,-0.1562 -0.087,-0.4274 0.0962,-1.0274 -0.431,-0.6168 -0.0834,-0.442 -0.3596,-0.376 -0.3958,-0.1818 -0.2776,-0.5534 -0.2178,-0.0758 -0.298,0.0358 -0.623,-0.4338 -0.7086,0.2 -0.5384,0.0024 -0.2736,-0.0792 -0.5906,0.1212 -0.2734,0.149 -0.6092,-0.0308 -0.6862,0.329 -0.3508,-0.009 -0.9884,0.6546 -0.3346,0.5902 -0.0926,0.0558 -0.0356,0.2098 -0.141,0.117 -0.091,0.2164 -0.0234,0.2874 -0.187,0.366 0.003,0.4062 -0.216,1.0126 2e-4,0.6368 0.1266,0.3948 0.1146,1.507 0.1682,0.4788 0.066,0.5298 0.2572,0.4092 0.0908,0.3402 0.3574,0.4284 0.205,0.3708 0.1728,0.045 0.4332,0.3296 0.2032,0.221 0.1508,0.3154 0.5058,0.197 0.086,0.1112 0.4148,-0.034 0.4754,0.2298 0.248,0.1998 0.358,0.0246 0.7646,-0.3234 0.4302,0.0052 0.166,-0.1326 0.1266,0.04 0.1286,-0.0582 0.3568,-0.3162 0.991,-0.194 0.3124,-0.1918 0.5474,-0.5452 0.2384,-0.4622 0.1416,-0.1504 0.1436,-0.3658 0.1436,-0.7364 -0.1846,-0.2992 -0.006,-0.1822 -0.1454,-0.371 -0.2928,-0.32 -1.1058,-0.4148 -0.389,-0.2536 -0.1892,-0.2018 -0.0986,0.0168 -0.3544,-0.1584 -0.6884,0.0098 -0.6146,-0.2324 -0.4894,-0.0168 -0.241,0.1134 0.1192,0.0928 0.2236,0.4754 0.2786,0.3952 0.441,0.3736 0.075,-0.0132 0.036,-0.2024"
     fill="none"
     stroke="#4ca2d4"
     stroke-linejoin="round"
     stroke-width="6"
     id="path1962" />
  <path
     d="m 333.56783,81.560037 -0.0612,-0.526 -0.1556,-0.2132 -0.3132,-0.043 -0.4132,-0.1304 -0.1636,-0.1258 -0.5486,-0.1384 -0.3622,0.0388 -0.0604,-0.1132 -0.226,-0.1306 -0.4694,0.0092 -0.0604,-0.1612 -0.1378,-0.1048 -0.2372,0.0618 -0.5116,-0.076 -1.0146,0.2518 -0.2134,-0.0528 -0.6472,0.1048 0.007,0.0902 -0.4198,0.5394 -0.3528,0.6028 0.0448,-0.0278 0.0408,0.2218 -0.1296,0.8438 0.0478,0.4692 -0.033,0.557 0.0228,0.2622 0.0746,0.0382 0.0142,0.1198 -0.0432,0.8716 0.1742,0.8084 0.2226,0.4134 0.533,0.3452 0.0638,0.1236 0.2554,-0.0076 0.8396,0.3054 0.2542,0.018 0.525,0.541 0.3076,-0.0318 0.1598,0.092 0.0376,-0.044 0.4458,0.104 1.4294,-0.3864 0.332,-0.1552 0.6176,-0.5216 0.3726,-0.6034 0.199,-0.587 0.1192,-0.9888 -0.078,-0.1926 0.004,-0.2022 0.2072,-0.742 -0.286,-0.38 -0.1698,-0.1424 -0.2844,-0.0708 -0.0544,-0.0852"
     fill="none"
     stroke="#4ca2d4"
     stroke-linejoin="round"
     stroke-width="6"
     id="path1964" />
  <path
     d="m 176.52783,70.427037 -0.09,-0.0586 0.066,0.0686 -0.036,2.4156 0.25,4.2552 0.058,4.0356 0.174,2.7426 -0.042,4.2138 -0.064,0.9674 0.028,4.1114 -0.118,2.7136 0.012,1.0598 0.204,1.6724 -0.064,0.154 -0.118,-0.1198"
     fill="none"
     stroke="#000000"
     stroke-linejoin="round"
     stroke-width="1.2"
     id="path1966" />
  <path
     d="m 183.24783,79.219037 0.232,1.724 0.174,2.345 -0.012,1.6808 -0.21,2.3706 0.016,0.5622 0.178,0.9454"
     fill="none"
     stroke="#000000"
     stroke-linejoin="round"
     stroke-width="1.2"
     id="path1968" />
  <path
     d="m 182.62783,79.301037 0.206,-0.2834 0.402,-0.2934 0.7,-0.2422 0.884,-0.0798 0.496,0.0402 0.522,0.1292 0.57,0.2152 0.568,0.3208 0.984,0.7584 0.578,0.8678 0.176,0.5256 0.102,0.5276 0.006,0.561 -0.114,1.1754 -0.138,0.5768 -0.396,1.12 -0.542,0.9386 -0.36,0.403 -1.132,0.9784 -1.376,0.9004 0.016,0.312 0.216,-0.031 0.2,-0.1748"
     fill="none"
     stroke="#000000"
     stroke-linejoin="round"
     stroke-width="1.2"
     id="path1970" />
  <path
     d="m 191.35783,83.760037 -0.144,0.1626 0.174,-0.0572 0.206,0.1134 0.298,0.0536 0.412,-0.0548 0.572,-0.2252 0.702,-0.5224 0.272,-0.4984 -0.016,-0.2982 -0.256,-0.4522 -0.33,-0.3118 -0.222,-0.1298 -0.754,0.0014 -0.46,0.2932 -0.402,0.48 -0.278,0.7034 -0.164,0.8282 0.07,1.1412 0.194,0.9726 0.168,0.3192 0.392,0.3574 0.202,0.1004 0.394,0.017 0.562,-0.1336 0.298,-0.144 0.616,-0.367 0.558,-0.4898"
     fill="none"
     stroke="#000000"
     stroke-linejoin="round"
     stroke-width="1.2"
     id="path1972" />
  <path
     d="m 196.42783,77.892037 -0.178,0.5054 -0.138,0.6998 0.458,4.8652 0.008,3.3322 0.082,0.346 0.078,0.0406"
     fill="none"
     stroke="#000000"
     stroke-linejoin="round"
     stroke-width="1.2"
     id="path1974" />
  <path
     d="m 201.44783,82.176037 -0.636,0.0534 -0.788,0.4832 -0.656,0.7034 -0.426,0.672 -0.344,1.0414 0.068,0.6576 0.22,0.5554 0.374,0.2768 0.262,0.1102 0.28,0.0594 0.284,-0.0438 0.62,-0.2592 0.906,-0.7974 0.17,-0.2926 0.212,-0.7218 0.094,-0.7734 -0.008,-0.7836 -0.1,-0.6252 -0.092,-0.2264 -0.084,0.1098 -0.02,0.5102 0.17,1.5124 0.39,1.3434 0.35,0.488 0.356,0.1754 0.48,0.0734 0.26,-0.0414 0.28,-0.1546"
     fill="none"
     stroke="#000000"
     stroke-linejoin="round"
     stroke-width="1.2"
     id="path1976" />
  <path
     d="m 205.37783,82.238037 0.35,0.7094 0.696,1.0754 0.2972,0.7434 0.711,1.3238"
     fill="none"
     stroke="#000000"
     stroke-linejoin="round"
     stroke-width="1.2"
     id="path1978" />
  <path
     d="m 206.66783,91.295037 -0.003,0.1344 -0.0874,0.119 0.0204,-0.799 0.348,-1.8436 0.6432,-2.8512 1.1748,-4.2806 0.3674,-0.9518 0.4662,-0.6504"
     fill="none"
     stroke="#000000"
     stroke-linejoin="round"
     stroke-width="1.2"
     id="path1980" />
  <path
     d="m 215.32783,70.308037 0.076,-0.0746 -0.01,-0.0848 -0.208,0.1646 -1.534,0.1398 -2.3146,0.1232 -4.4156,0.108 -3.6504,0.2674 -1.724,0.0378 -2.414,-0.0754 -0.486,-0.0838 -0.52,-0.0046 -0.472,0.097 -2.562,0.171 -1.508,-0.0874 -3.288,-0.3812 -2.108,-0.0384 -2.412,0.0562 -0.314,-0.0196 -0.534,-0.1706 -0.894,-0.0688 -0.224,0.0072 -0.212,0.1002 -1.14,0.2394 -0.324,0.1218 -0.978,0.1052 -0.428,0.0222 -0.696,-0.1094 -0.564,0.0324 -0.636,-0.1352 -0.15,-0.0804 0.284,-0.0294"
     fill="none"
     stroke="#000000"
     stroke-linejoin="round"
     stroke-width="1.2"
     id="path1982" />
  <path
     d="m 215.41783,98.579037 -0.3818,-0.0456 -0.7572,0.0362 -1.426,0.2054 -1.53,0.0374 -3.2176,-0.1216 -1.1426,-0.122 -3.4612,0.1312 -0.764,0.0868 -1.168,-0.0764 -1.04,0.1352 -1.976,0.0208 -4.618,-0.0488 -2.932,-0.2472 -1.732,0.0968 -1.018,0.2002 -1.072,0.1188 -0.642,-0.0818 -0.27,0.0274 -2.008,-0.264 -0.966,0.0288 -2.626,0.325 -0.856,-0.052 -1.534,0.0988 -1.016,-0.0896 -0.746,0.0666"
     fill="none"
     stroke="#000000"
     stroke-linejoin="round"
     stroke-width="1.2"
     id="path1984" />
  <path
     d="m 215.92783,70.009037 -0.1246,0.4966 0.0568,-0.2872 0.1484,-0.0364 0.085,0.2014 0.0712,0.6234 0.016,5.722 0.1806,3.9426 0.2804,2.6688 0.002,1.7954 -0.1178,1.945 0.1384,2.7844 0.2512,2.7554 0.0304,2.2028 0.236,1.926 0.0198,1.2546 0.0818,0.366 0.0238,-0.2892"
     fill="none"
     stroke="#000000"
     stroke-linejoin="round"
     stroke-width="1.2"
     id="path1986" />
  <path
     d="m 219.42783,84.675037 0.0276,-0.1854 0.1356,-0.1122 0.3572,0.2708 0.4424,0.046 3.5768,0.1294 1.0506,0.0976 4.6208,0.0066 1.1384,0.1086 1.0512,0.1906 2.7414,0.2712 2.097,0.0588 2.5982,-0.0916 4.9068,-0.469 1.5216,-0.1992 5.9046,-0.3014 2.0404,-0.183 8.6588,-0.4402 1.482,0.004 2.5262,-0.111 2.4132,0.0202 2.2586,-0.1564"
     fill="none"
     stroke="#000000"
     stroke-linejoin="round"
     stroke-width="1.2"
     id="path1988" />
  <path
     d="m 266.64783,81.010037 -0.019,-0.4088 -0.1128,-0.405 -0.0662,0.1564 0.1062,0.2554 0.5098,0.44 0.2284,0.1098 4.13,1.1642 1.6966,0.4076 0.7332,0.4326 0.306,0.5252 -0.0804,0.3566 -0.2802,0.3484 -0.2758,0.2274 -1.0104,0.597 -1.147,0.4748 -0.7156,0.406 -0.8444,0.6608 -0.8128,1.3912 -0.0868,0.2896 4e-4,0.2528 0.058,0.184 0.1388,0.1276"
     fill="none"
     stroke="#000000"
     stroke-linejoin="round"
     stroke-width="1.2"
     id="path1990" />
  <path
     d="m 142.84783,76.660037 -0.198,-0.2104 -0.292,-0.1474 -0.788,-0.1026 -0.54,0.1294 -0.584,0.3328 -0.794,0.6456 -1.362,1.4902 -0.4,0.4946 -0.608,1.206 -0.492,1.7528 -0.314,2.0366 -0.096,1.0262 0.06,2.1104 0.134,0.9522 0.17,0.9222 0.242,0.8448 0.298,0.696 0.366,0.5024 0.41,0.4212 0.468,0.3664 0.51,0.2348 1.262,0.2892 0.816,0.1046 1.682,0.036 0.84,-0.1296 0.828,-0.209 0.862,-0.3036 0.882,-0.4664 1.632,-1.1532 0.692,-0.596 0.606,-0.6848 0.546,-0.756 0.452,-0.8342 0.634,-1.7822 0.168,-0.8196 0.03,-0.8078 -0.06,-0.8222 -0.204,-0.8434 -0.692,-1.8472 -0.938,-1.6818 -0.562,-0.6956 -0.654,-0.6058 -0.706,-0.545 -0.69,-0.493 -0.724,-0.3954 -0.658,-0.2628 -1.09,-0.2418 -0.498,-0.032"
     fill="none"
     stroke="#000000"
     stroke-linejoin="round"
     stroke-width="1.2"
     id="path1992" />
  <path
     d="m 155.05783,84.357037 -0.366,0.1498 0.238,-0.0756 0.512,0.0606 1.41,-0.1318 1.468,0.1108 1.006,-0.0444 1.372,-0.1918 1.288,0.11 0.93,-0.0376 0.788,0.1734 2.59,-0.236 1.446,0.2644 1.794,-0.1132 1.048,0.0168 0.222,0.0716 0.036,-0.0706 -0.138,-0.0288 -0.128,-0.136"
     fill="none"
     stroke="#000000"
     stroke-linejoin="round"
     stroke-width="1.2"
     id="path1994" />
  <path
     d="m 168.04783,81.344037 -0.364,-0.2616 0.292,0.3082 0.702,0.521 1.158,0.6252 1.152,0.4836 0.568,0.4188 0.096,0.156 -0.048,0.1584 -0.85,0.8252 -1.944,1.3692 -0.134,0.2624 -0.122,0.6618 0.132,0.603"
     fill="none"
     stroke="#000000"
     stroke-linejoin="round"
     stroke-width="1.2"
     id="path1996" />
  <path
     d="m 143.18383,78.078037 0.404,3.7234 0.194,3.464 0.03,2.884 -0.11,3.0796"
     fill="none"
     stroke="#000000"
     stroke-linejoin="round"
     stroke-width="1.2"
     id="path1998" />
  <path
     d="m 138.43383,85.595037 0.856,0.5784 0.514,-0.0228 4.52,-0.4348 4.514,-0.75"
     fill="none"
     stroke="#000000"
     stroke-linejoin="round"
     stroke-width="1.2"
     id="path2000" />
  <path
     d="m 243.52783,84.206037 -2e-4,-0.1966 -0.3342,0.3286 -0.1458,0.3578 0.057,0.4028 0.1934,0.2602 0.3624,0.0684 0.3816,-0.1144 0.2852,-0.3526 0.071,-0.2798 -0.3176,-0.4644 -0.5284,-0.259 -0.0952,0.0184 -0.47,0.5898 -0.0902,0.2504 0.1422,0.6446 0.1896,0.2276 0.3096,0.1824 0.3082,0.0142 0.4814,-0.29 0.4726,-0.7626 0.0408,-0.2942 -0.1284,-0.4532 -0.3922,-0.5736 -0.2696,-0.0702 -0.347,0.165 -0.2648,0.2516 -0.4684,0.605 -0.1492,0.2894 -0.126,0.5858 0.0738,0.6464 0.3824,0.5734 0.1456,0.1016 0.498,0.094 0.565,-0.1844 0.4862,-0.5512 0.255,-0.5228 0.1178,-0.4822 -0.004,-0.6884 -0.1464,-0.4516 -0.3598,-0.4876 -0.3734,-0.0966 -0.2222,0.0366 -0.5622,0.323 -0.2724,0.3166 -0.2074,0.1322 -0.3242,0.3276 -0.199,0.3708 -0.13,0.5012 -0.0136,0.5376 0.294,0.8784 0.2478,0.2706 0.3242,0.1698 0.3714,-0.006 0.4352,-0.1102 0.6398,-0.5428 0.575,-0.7398 0.2352,-0.464 0.2546,-0.8906 0.0132,-0.3984 -0.114,-0.4774 -0.326,-0.508 -0.2732,-0.2782 -0.3466,-0.0468 -0.3016,0.11 -0.5598,0.3484 -0.7792,0.8212 -0.179,0.2072 -0.2266,0.4824 -0.0858,0.643 0.0156,0.609 0.281,0.6832 0.1348,0.1392 0.5018,0.2776 0.2142,0.0294 0.425,-0.1494 0.6272,-0.3142 0.5532,-0.414 0.2876,-0.3348 0.247,-0.5038 0.096,-0.5354 -0.0762,-0.4188 -0.513,-0.9814 -0.23,-0.2734 -0.2678,-0.1488 -0.2788,-0.0368 -0.4226,0.081 -0.7484,0.7322 -0.4944,0.8068 -0.1152,0.3292 -0.0888,0.7028 0.0816,0.6544 0.1646,0.5248 0.3166,0.2872 0.4524,0.2164 0.6716,-0.0308 0.698,-0.3584 0.5414,-0.5108 0.141,-0.212 0.5042,-0.9426 0.1564,-0.4366 0.218,-0.7306 0.025,-0.614 -0.0422,-0.2712 -0.1032,-0.1766 -0.6884,-0.348 -0.465,-0.1158 -0.5026,0.1224 -0.567,0.3518 -0.8286,0.7906"
     fill="none"
     stroke="#000000"
     stroke-linejoin="round"
     stroke-width="1.2"
     id="path2002" />
  <path
     d="m 244.56783,41.828037 -0.025,-0.4758 0.067,0.355 6e-4,0.4968 -0.1158,1.9996 0.3,2.1352 0.0284,0.9022 -0.1166,2.1102 0.0998,3.423 -0.0948,1.1646 0.0648,1.6348 -0.0966,2.2144 0.01,2.3038 -0.2094,4.6106 0.0404,1.3628 -0.0418,1.7122 -0.1118,0.7814 0.0542,1.6542 -0.0918,3.0184 0.1766,4.3152 -0.0992,0.913 0.0434,0.547 0.0466,0.0234 -0.0168,0.5142 -0.0952,0.4554 0.0724,0.9538 -0.0112,0.3176 -0.0352,-0.1016"
     fill="none"
     stroke="#000000"
     stroke-linejoin="round"
     stroke-width="1.2"
     id="path2004" />
  <path
     d="m 198.44783,34.003037 0.142,0.109 0.206,0.0096 0.2,-0.3256 -0.006,-0.4288 -0.698,-0.1574 -1.296,0.0422 -0.394,0.067 -0.882,0.1814 -0.872,0.3736 -1.552,1.0326 -1.16,1.1562 -0.594,0.6828 -0.516,0.769 -0.46,0.8172 -0.364,0.8604 -0.246,0.9006 -0.138,0.8652 0.01,0.8304 0.118,0.765 0.214,0.7618 0.3,0.786 0.868,1.5268 0.978,1.2658 0.56,0.5452 1.292,0.8144 0.724,0.2746 0.77,0.1966 0.808,0.0832 1.812,0.0696 0.936,-0.0686 0.844,-0.1188 1.584,-0.4864 0.754,-0.3346 1.31,-0.7466 1.096,-1.0032 0.514,-0.624 0.9,-1.3306 0.3768,-0.7306 0.5452,-1.554 0.226,-1.3806 -0.004,-0.5818 -0.3334,-1.098 -0.9626,-1.5644 -2.96,-3.5152 -0.544,-0.5872 -0.582,-0.4874 -0.62,-0.38 -0.566,-0.2246 -0.52,-0.0776 -0.5,0.0946 -0.916,0.5628"
     fill="none"
     stroke="#000000"
     stroke-linejoin="round"
     stroke-width="1.2"
     id="path2006" />
  <path
     d="m 194.97783,34.804037 0.078,0.0034 0.16,0.1558 0.134,0.2524 0.988,1.2716 2.036,2.4626 2.17,3.2576 1.824,2.9904 0.724,0.9728 0.51,0.852 0.648,0.7112"
     fill="none"
     stroke="#000000"
     stroke-linejoin="round"
     stroke-width="1.2"
     id="path2008" />
  <path
     d="m 192.88783,46.062037 -0.252,0.255 0.084,-0.0188 0.612,-0.5514 4.492,-4.6694 1.026,-0.9514 1.81,-1.6436 3.152,-2.6498 0.586,-0.434 0.472,-0.2516"
     fill="none"
     stroke="#000000"
     stroke-linejoin="round"
     stroke-width="1.2"
     id="path2010" />
  <path
     d="m 243.97783,40.757037 0.1186,-0.0754 0.1328,0.0448 -0.0878,0.0598 -1.8764,-0.1548 -2.7026,-0.0408 -1.8074,-0.172 -1.434,-0.228 -2.1062,-0.1666 -1.8698,0.0522 -2.9252,-0.2328 -3.2878,0.0402 -1.2664,-0.2118 -1.6334,-0.071 -1.2376,0.0606 -0.738,-0.1134 -0.3698,0.0838 -1.5774,-0.1316 -1.6572,-0.0232 -1.3012,0.0818 -1.2776,0.2484 -1.1514,-0.0626 -0.4288,0.0674 -0.6314,-0.0446 -0.3948,0.0984 -0.1312,0.0662 -0.002,0.0748 0.1264,-0.1412 0.2326,-0.1144"
     fill="none"
     stroke="#000000"
     stroke-linejoin="round"
     stroke-width="1.2"
     id="path2012" />
  <path
     d="m 215.20783,37.381037 0.171,-0.3728 -0.123,0.2734 -1.023,0.7414 -0.474,0.2506 -0.5432,0.2676 -2.715,1.0192 -1.4286,0.6864 0.2646,-0.0248 0.622,0.281 2.9368,1.0224 0.7034,0.3006 1.4428,0.7906 2.19,1.0518"
     fill="none"
     stroke="#000000"
     stroke-linejoin="round"
     stroke-width="1.2"
     id="path2014" />
  <path
     d="m 187.53783,40.348037 0.032,0.0738 -0.048,0.0394 -0.234,0.0202 -2.196,-0.0606 -2.384,0.1692 -3.5,-0.0204 -0.656,0.0722 -3.026,-0.0602 -0.378,0.066 -1.384,-0.131 -2.722,0.121 -0.922,-0.153 -0.372,0.0602 -2.286,-0.1566 -2.322,0.0074 -1.918,0.0748 -1.48,0.2046 -0.978,0.0056 -0.668,-0.0882 -0.348,0.0828 -1.198,0.0364 -1.09,-0.051 -0.858,0.0964 -0.438,0.1346 -0.182,-0.0488 -1.472,0.0316 -1.246,-0.1114 -0.34,-0.086 -0.52,0.1132 -0.942,-0.056 -1.256,-6e-4 -0.108,0.086 -0.142,0.0098 -0.492,-0.0834 -1.118,0.0282 -0.07,0.1068 -0.084,0.0118 -0.25,-0.103 -0.408,0.1338 -0.14,-0.0636 -0.418,0.0468 -0.102,-0.0506 -0.086,0.1176 -1.204,-0.0696 0.206,0.1508"
     fill="none"
     stroke="#000000"
     stroke-linejoin="round"
     stroke-width="1.2"
     id="path2016" />
  <path
     d="m 144.41583,41.614037 v -0.6726 l 0.018,0.0938 0.096,0.0366 0.074,0.3266 0.258,2.5594 -0.004,2.5688 -0.12,2.2234 0.044,2.5322 -0.076,1.0634 -0.05,3.33 0.052,3.0782 -0.076,1.3766 -0.184,1.614 0.12,1.935 -0.212,1.5246 0.026,2.4918 -0.082,1.6534 -0.108,0.651 -0.012,0.7902 -0.154,0.6696 0.044,-0.0652 -0.05,-0.4194"
     fill="none"
     stroke="#000000"
     stroke-linejoin="round"
     stroke-width="1.2"
     id="path2018" />
  <path
     d="m 142.04583,68.268037 -0.116,0.265 -0.082,-0.1752 0.098,0.0912 0.942,2.0444 0.914,2.3962 0.078,0.5726 0.002,-0.2418 0.034,0.0592 0.092,-0.12 1.29,-2.982 0.526,-0.8714 0.896,-1.108"
     fill="none"
     stroke="#000000"
     stroke-linejoin="round"
     stroke-width="1.2"
     id="path2020" />
  <path
     d="m 198.75783,10.268037 0.048,2.7162 0.082,1.2698 -0.06,2.4178 0.11,2.0284 -0.032,0.8504 0.096,2.3424 -0.15,2.8116 0.064,2.1168 -0.098,1.6714 0.148,0.6078 -0.076,-0.4972"
     fill="none"
     stroke="#000000"
     stroke-linejoin="round"
     stroke-width="1.2"
     id="path2022" />
  <path
     d="m 196.45783,26.580037 0.052,0.0364 0.052,-0.0468 -0.034,-0.1792 0.432,0.3054 1.314,1.7016 0.608,1.2468 0.198,0.198 0.274,-0.1782 0.256,-0.3734 1.012,-2.0546 0.956,-1.3612 0.372,-0.3614"
     fill="none"
     stroke="#000000"
     stroke-linejoin="round"
     stroke-width="1.2"
     id="path2024" />
  <path
     d="m 202.55783,5.6542369 0.142,-0.2876 -0.258,0.1672 -0.324,-0.2146 -0.156,-0.2268 -0.536,-1.8478 -0.408,-0.9704 -0.256,-0.447 -0.312,-0.348 -0.642,-0.4166 -0.524,-0.0798 -0.29,0.0872 -0.304,0.1794 -0.28,0.2674 -1.384,1.9324 -0.232,0.57 0.006,0.4502 0.128,0.3496 0.222,0.3506 0.304,0.27 0.238,0.106 0.67,-0.0098 0.378,-0.104 0.41,-0.2296 0.896,-0.716 0.904,-0.998 2.324,-3.13060004"
     fill="none"
     stroke="#000000"
     stroke-linejoin="round"
     stroke-width="1.2"
     id="path2026" />
  <path
     d="m 294.72783,82.265037 -0.4838,0.0518 0.0486,0.0796 0.0448,-0.0432 0.776,0.2042 0.58,-0.0408 1.7812,0.1572 7.22,-0.2548 2.3662,0.0182 1.156,0.1028 2.0066,0.441 2.0186,0.3078 2.3918,-0.1984 0.446,-0.0054 0.8106,0.1288"
     fill="none"
     stroke="#000000"
     stroke-linejoin="round"
     stroke-width="1.2"
     id="path2028" />
  <path
     d="m 314.20783,79.782037 -0.0516,0.4084 0.0878,-0.198 0.2692,0.222 0.5036,0.2748 1.412,0.5924 1.164,0.6864 0.4856,0.1508 1.2038,0.0722 -0.1366,0.003 -0.5926,0.8146 -0.9222,0.8462 -1.0286,1.2558 -1.2486,1.2318 0.2594,-0.179 0.4772,-0.091"
     fill="none"
     stroke="#000000"
     stroke-linejoin="round"
     stroke-width="1.2"
     id="path2030" />
  <path
     d="M 328.86783,77.418037"
     fill="none"
     stroke="#000000"
     stroke-linejoin="round"
     stroke-width="1.2"
     id="path2032" />
  <path
     d="m 328.98783,77.321037 0.0678,0.0848 0.0478,-0.0332 0.0876,-0.2288 -0.1216,-0.2582"
     fill="none"
     stroke="#000000"
     stroke-linejoin="round"
     stroke-width="1.2"
     id="path2034" />
  <path
     d="m 329.66783,77.250037 0.1392,-0.3144 0.1046,0.1512 0.0874,-0.1718 -0.183,-0.2042 -0.465,-0.1688 -0.5462,6e-4 -0.9684,0.3232 -1.6946,1.243 -0.3704,0.3532 -0.556,0.6876 -0.3916,0.722 -0.1512,0.511 -0.1974,1.2084 -0.0788,1.6254 0.031,0.904 0.3384,2.0152 0.264,1.0022 0.2942,0.8748 0.36,0.7368 0.4116,0.6444 0.4704,0.4974 0.5816,0.3158 0.6166,0.2136 0.6902,0.0894 0.7812,-0.0092 1.6698,-0.2524 0.8748,-0.243 1.6724,-0.6356 1.3278,-0.7014 0.583,-0.4302 0.515,-0.497 0.7462,-0.9906 0.2638,-0.51 0.198,-0.506 0.1446,-1.1338 -0.361,-2.8156 -0.4074,-1.5156 -0.289,-0.6388 -0.3862,-0.5414 -0.9366,-0.913 -0.5594,-0.3244 -0.611,-0.2426 -1.233,-0.3042 -1.8818,-0.9784"
     fill="none"
     stroke="#000000"
     stroke-linejoin="round"
     stroke-width="1.2"
     id="path2036" />
  <path
     d="m 330.46783,78.667037 -0.2064,-1.0874 0.064,-0.4114 0.3724,4.1714 0.1176,3.6328 -0.0734,2.2052 -0.1396,1.366 0.0294,1.8218 0.0322,0.0828 0.0266,-0.1396"
     fill="none"
     stroke="#000000"
     stroke-linejoin="round"
     stroke-width="1.2"
     id="path2038" />
  <path
     d="m 325.27783,83.718037 2.446,0.4078 1.8328,0.2162 2.1154,0.0448 2.1304,-0.1338 2.2294,-0.2968 1.9826,-0.3706"
     fill="none"
     stroke="#000000"
     stroke-linejoin="round"
     stroke-width="1.2"
     id="path2040" />
  <path
     d="m 107.82183,87.934037 -0.082,0.2882 0.194,1.0494 0.24,4.093 -0.052,3.8862 0.15,1.1552 0.438,1.914403 0.102,1.8106 -0.012,0.9116 -0.112,0.838 -0.018,1.9366 0.28,3.3014 0.08,4.491 -0.294,2.4068 -0.044,0.9516 -0.006,1.2044 0.096,1.1212 -0.046,2.6978 0.294,1.9552 -0.012,3.2524 0.114,1.3952 0.148,0.1954 0.048,-0.239"
     fill="none"
     stroke="#000000"
     stroke-linejoin="round"
     stroke-width="1.2"
     id="path2042" />
  <path
     d="m 111.16783,129.87004 c 0.088,0.0904 0.15,0.2192 0.264,0.2708 0.124,0.0554 0.27,0.0292 0.406,0.0296 4.266,0.01 8.534,0.009 12.8,0 0.136,-4e-4 0.276,0.008 0.406,-0.0294 0.074,-0.0216 0.112,-0.1276 0.188,-0.1408 0.266,-0.0454 0.538,-0.0296 0.806,-0.0296 0.202,0 0.408,-0.009 0.606,0.0296 0.14,0.0276 0.252,0.1636 0.394,0.1674 1.932,0.0522 3.868,0.0576 5.8,0 0.21,-0.006 0.39,-0.1908 0.6,-0.1908 0.21,0 0.39,0.1806 0.6,0.1908 1.132,0.0548 2.266,0.0108 3.4,0.003 0.136,-0.001 0.274,0.003 0.406,-0.0294 0.138,-0.0342 0.252,-0.1638 0.394,-0.1674 2.2,-0.0536 4.4,-0.0106 6.6,-0.003 0.336,10e-4 0.674,-0.0172 1.006,0.0296 0.14,0.02 0.252,0.158 0.394,0.1674 0.732,0.048 1.468,0.0496 2.2,0.003 1.2,-0.0768 2.386,-0.3154 3.588,-0.3734 0.212,-0.0102 0.4,0.165 0.612,0.1706 1.932,0.0514 3.872,0.1432 5.798,2e-4 1.91,-0.1418 3.782,-0.6146 5.682,-0.8522 1.376,-0.172 2.76,-0.2938 4.144,-0.3758 5.09,-0.3016 10.192,-0.4072 15.278,-0.7752 1.108,-0.0802 2.186,-0.4096 3.286,-0.5678 0.298,-0.043 0.694,0.1816 0.902,-0.0348 0.312,-0.3204 0.346,-0.8396 0.378,-1.2848 0.006,-0.0968 -0.184,-0.0938 -0.28,-0.0798 -1.476,0.2166 -2.922,0.6504 -4.408,0.7674 -5.58,0.4396 -11.18,0.5482 -16.764,0.901 -1.21,0.0764 -2.414,0.225 -3.614,0.386 -1.54,0.2064 -3.054,0.6094 -4.604,0.716 -1.928,0.1328 -3.866,0.0512 -5.798,-2e-4 -0.212,-0.006 -0.4,-0.1804 -0.612,-0.1706 -1.268,0.0584 -2.522,0.2926 -3.788,0.3736 -0.666,0.0426 -1.334,0.0442 -2,-0.003 -0.142,-0.0102 -0.254,-0.1442 -0.394,-0.1674 -0.266,-0.0436 -0.538,-0.0286 -0.806,-0.0296 -2.266,-0.008 -4.534,-0.0506 -6.8,0.003 -0.142,0.003 -0.254,0.1398 -0.394,0.1674 -0.198,0.039 -0.404,0.0282 -0.606,0.0296 -1.066,0.007 -2.134,0.0512 -3.2,-0.003 -0.21,-0.0108 -0.39,-0.1908 -0.6,-0.1908 -0.21,0 -0.39,0.184 -0.6,0.1908 -1.8,0.058 -3.6,0.011 -5.4,0.003 -0.136,-6e-4 -0.274,0.003 -0.406,-0.0294 -0.138,-0.0342 -0.252,-0.1524 -0.394,-0.1674 -0.398,-0.0418 -0.8,-0.01 -1.198,-2e-4 -4.722,0.1106 -9.444,0.1974 -14.164,0.3604 -0.058,0.002 -0.1,0.076 -0.108,0.1324"
     stroke-width="0.2"
     id="path2044" />
  <path
     d="m 185.59783,123.43004 -0.166,-0.0636 -0.024,-0.0652 -0.288,0.1186 0.056,-0.0702 1.354,1.183 0.572,0.4242 1.188,0.429 0.678,0.3604 0.62,0.143 -0.144,0.5198 -0.488,0.5466 -0.632,0.4516 -1.492,1.2504 -0.418,0.2644 0.004,0.1106 0.146,-0.0858 0.768,-0.6168"
     fill="none"
     stroke="#000000"
     stroke-linejoin="round"
     stroke-width="1.2"
     id="path2046" />
  <path
     d="m 201.94783,118.98004 -0.338,-0.5426 -0.154,-0.1144 -0.33,-0.0624 -0.81,0.0138 -0.656,0.1752 -0.384,0.1888 -0.862,0.63 -1.728,1.5924 -0.608,0.6418 -0.516,0.6572 -0.764,1.5148 -0.244,0.842 -0.136,0.8302 -0.03,0.8406 0.088,0.8692 0.228,0.9082 0.324,0.9288 0.41,0.8294 0.484,0.7278 0.596,0.7014 0.676,0.5798 0.752,0.417 0.842,0.2576 0.88,0.1218 0.878,0.009 0.942,-0.093 1.024,-0.1866 2.132,-0.6432 0.978,-0.4124 0.86,-0.4896 0.7546,-0.5076 0.6288,-0.6294 1.0064,-1.335 0.3774,-0.7656 0.2816,-0.8356 0.1358,-0.8578 -2e-4,-0.8522 -0.146,-0.8552 -0.2668,-0.75 -0.8148,-1.4382 -1.1626,-1.3194 -1.7622,-1.603 -1.104,-0.5782 -1.294,-0.4066 -0.32,-0.023"
     fill="none"
     stroke="#000000"
     stroke-linejoin="round"
     stroke-width="1.2"
     id="path2048" />
  <path
     d="m 197.73783,121.08004 0.266,0.1576 0.554,0.5618 1.972,2.6876 1.426,1.5946 0.784,0.769 2.106,1.8272 1.864,1.444 0.6694,0.6872 0.5042,0.4102 0.2922,0.356"
     fill="none"
     stroke="#000000"
     stroke-linejoin="round"
     stroke-width="1.2"
     id="path2050" />
  <path
     d="m 197.08783,130.85004 0.426,-0.5826 0.864,-0.8598 3.264,-3.9252 2.792,-2.7538 1.312,-1.5332 1.814,-1.5986"
     fill="none"
     stroke="#000000"
     stroke-linejoin="round"
     stroke-width="1.2"
     id="path2052" />
  <path
     d="m 330.84783,93.830037 0.1352,-0.1468 -0.0554,0.2208 0.097,0.3814 -0.1014,1.3312 0.1756,2.7758 -0.1368,1.610403 0.0298,2.0524 -0.3202,6.475 0.01,3.0986 -0.1722,1.3422 0.0238,1.7128 -0.1388,0.8656 0.01,1.5892 -0.1378,0.4662 -0.1664,1.502 0.06,0.7916 -0.0288,0.4572 0.1284,0.4246 -0.0638,0.4314 0.0684,0.9454 -0.0482,1.4062 0.089,0.5426 -0.0374,0.2916 0.0472,-0.058 -0.1758,-0.2924"
     fill="none"
     stroke="#000000"
     stroke-linejoin="round"
     stroke-width="1.2"
     id="path2054" />
  <path
     d="m 328.12783,96.625037 -0.1356,0.2728 0.3548,-0.1912 0.7914,-0.8658 0.7444,-1.0922 1.446,-1.8914 0.1174,-0.2594 -0.0204,-0.0908 0.0874,-0.098 0.5328,0.3154 0.567,0.6718 1.6268,2.8148 0.3604,0.3822 0.5574,0.2914"
     fill="none"
     stroke="#000000"
     stroke-linejoin="round"
     stroke-width="1.2"
     id="path2056" />
  <path
     d="m 329.66783,124.64004 0.0196,0.3246 0.0704,-0.0306 -0.0336,-0.0402 -0.021,0.0776 -0.0424,-0.1088 -0.0302,0.0648 -0.0358,-0.0486 10e-4,0.0748 -0.5226,0.0108 -0.1734,-0.0684 -0.1934,0.0562 -0.4934,-0.005 -1.3746,-0.274 -0.448,-0.163 -0.9084,-0.1562 -0.1598,0.0782 -0.8074,0.0974 -1.2056,-0.1298 -0.6146,0.164 -0.39,8e-4 -1.505,-0.2014 -0.9778,-0.2536 -1.0772,-0.1824 -0.9816,0.1956 -1.8072,0.003 -0.711,0.1064 -1.048,0.0422 -0.7372,0.1506 -0.7302,-0.002 -1.2382,0.2094 -2.5206,0.1968 -1.6808,0.2412 -0.8448,-0.005 -2.099,0.1742 -2.9864,0.0934 -2.1798,0.1578 -0.9228,-0.0166 -0.4586,0.1276 -2.0174,-0.1396 -0.475,0.1258 -0.4988,0.0388 -0.8974,-0.048 -2.1782,0.3274 -1.467,0.0136 -3.1904,-0.1424 -1.354,0.0212 -1.7902,0.2616 -1.4126,0.1228 -0.8978,0.0104 -0.916,-0.0774 -0.903,0.1554 -2.2866,0.0668 -2.6482,0.002 -1.9686,-0.072 -1.8972,0.0584 -0.4682,-0.0402 -1.7702,0.1128 -2.5808,-0.1178 -0.9488,-0.1358 -0.4896,0.0504 -2.698,-0.0604 -3.1676,0.0996 -2.5246,-0.046 -2.3346,0.2284 -0.4424,-0.0498 -2.9104,0.0178 -0.962,0.0988 -0.5134,-0.108 -0.9702,-0.067 -2.709,0.0304 -1.4722,0.1202 -4.5998,-0.3478 -0.8648,0.055 -2.9652,-0.0616 -3.8052,-0.421 -1.044,0.021 -1.5004,0.1606 -4.004,-0.012 -2.2254,0.0932 -1.1268,-0.0624 -0.3924,0.1068 -0.405,0.0122 -1.931,-0.1086 -2.3118,-0.0256 -2.3636,0.2734 -0.5888,-0.0186 -0.3786,0.0604 -0.2416,-0.1214 -0.1052,0.0624 -0.2472,-0.0242 0.1292,0.0348 0.1292,-0.0832 0.2556,0.037"
     fill="none"
     stroke="#000000"
     stroke-linejoin="round"
     stroke-width="1.2"
     id="path2058" />
  <path
     d="m 201.75783,135.62004 0.112,0.0608 0.242,0.9904 0.028,0.7306 -0.274,3.9512 -0.078,2.108 0.046,4.58 -0.206,4.358 0.02,0.4 0.06,0.164 0.012,-0.07"
     fill="none"
     stroke="#000000"
     stroke-linejoin="round"
     stroke-width="1.2"
     id="path2060" />
  <path
     d="m 199.46783,138.63004 -0.236,0.486 0.432,-0.16 1.24,-1.2374 0.872,-1.0084 0.252,-0.3764 0.314,-1.0128 0.138,-0.1922 0.152,-0.057 0.234,0.1118 0.372,0.392 1.266,2.8164 0.166,0.252 0.628,0.5"
     fill="none"
     stroke="#000000"
     stroke-linejoin="round"
     stroke-width="1.2"
     id="path2062" />
  <path
     d="m 196.14783,159.45004 -0.13,0.222 -0.17,0.128 0.044,0.048 0.174,-0.044 1.242,0.306 1.322,-0.064 1.074,-0.22"
     fill="none"
     stroke="#000000"
     stroke-linejoin="round"
     stroke-width="1.2"
     id="path2064" />
  <path
     d="m 206.45783,162.23004 0.064,0.024 0.0452,0.172 -0.0592,0.302 0.1228,0.046 0.0442,-0.066 -0.076,-0.152 -0.207,-1.392 -0.546,-1.502 -0.378,-0.506 -0.482,-0.848 -0.658,-0.564 -0.616,0.03 -0.616,0.502 -0.776,0.922 -0.232,0.366 -0.484,1.248 -0.07,0.316 0.056,0.546 0.094,0.274 0.248,0.316 0.172,-0.016 0.858,-0.332 0.414,-0.228 0.448,-0.322 1.562,-1.424 1.797,-2.08 0.4706,-0.394"
     fill="none"
     stroke="#000000"
     stroke-linejoin="round"
     stroke-width="1.2"
     id="path2066" />
  <path
     d="m 342.66783,83.008037 0.2478,-0.3794 -0.003,0.1214 0.2082,0.0872 1.9636,-0.0098 2.5794,-0.3138 1.1794,-0.064 3.7078,0.2716 1.8346,0.0286 0.5432,-0.0152 1.7484,-0.2612 1.1332,-0.0292 1.8182,0.1482 2.4454,0.3216 4.23,-0.3136 4.0606,0.2524 1.2126,0.1578 1.0322,0.0458 2.778,-0.3364 0.5004,0.0066 0.8546,0.0604 1.1512,0.3394"
     fill="none"
     stroke="#000000"
     stroke-linejoin="round"
     stroke-width="1.2"
     id="path2068" />
  <path
     d="m 373.80783,79.291037 2.4816,1.811 0.9102,0.7334 1.7644,0.8762 -0.008,0.0476 -0.1236,-0.0466 -0.2824,0.604 -0.2514,0.3068 -0.4134,0.3272 -1.2874,0.7032 -2.4972,1.1048 -0.3264,0.2214 -0.317,0.4972 0.0206,0.2684 0.302,0.6128"
     fill="none"
     stroke="#000000"
     stroke-linejoin="round"
     stroke-width="1.2"
     id="path2070" />
  <path
     d="m 134.07583,85.250037 -0.024,0.0986 -0.414,-0.0044 -0.6,0.2154 -0.702,0.0602 -1.682,-0.0828 -2.104,0.3606 -1.55,0.054 -1.582,-0.1866 -1.834,-0.0228 -1.866,0.2854 -2.41,0.115 -2.274,0.2592 -4.484,0.1716 -3.184,0.4148 -4.18,-0.0712 -2.232,0.216 -0.952,-0.0416 -2.635998,0.1458 -3.58,0.0996 -4.606,-0.1742 -2.474,-0.191 -1.202,0.0524 -1.712,-0.0432 -2.31,0.2346 -4.688,-0.2842 -0.438,0.0094 -1.488,0.2438 -3.252,0.0936 -1.456,-0.0768"
     fill="none"
     stroke="#000000"
     stroke-linejoin="round"
     stroke-width="1.2"
     id="path2072" />
  <path
     d="m 108.38183,87.164037 -0.268,0.157 0.082,-0.0888 -0.348,-0.044 -0.156,0.1106 0.002,0.1936 0.298,0.4832 0.192,0.1292 0.526,-0.7366 0.264,-0.6472 0.012,-0.3236 -0.2,-0.4602 -0.322,-0.248 -0.286,-0.0288 -0.556,0.1914 -0.296,0.2514 -0.398,0.517 -0.082,0.3708 0.04,0.3234 0.216,0.6066 0.454,0.3432 0.64,0.0738 0.336,-0.1412 0.328,-0.2424 0.568,-0.5882 0.302,-0.5432 0.014,-0.1924 -0.328,-0.4422 -0.358,-0.3014 -0.556,-0.2016 -0.69,0.1226 -0.664,0.3942 -0.306,0.6354 -0.04,0.5586 0.214,0.5424 0.438,0.5542 0.598,0.3624 0.382,0.0912 0.326,-0.059 0.642,-0.5586 0.468,-0.5766 0.198,-0.5628 -0.046,-0.7792 -0.144,-0.2948 -0.496,-0.4206 -0.564,-0.3004 -0.63,-0.2062 -0.372,-0.054 -0.35,-0.006 -0.54,0.098 -0.208,0.1138 -0.586,0.572 -0.12,0.2128 -0.066,0.5132 0.046,0.4758 0.368,0.6944 0.626,0.5294 0.634,0.3356 0.408,0.0738 0.582,-0.2152 0.282,-0.2786 0.222,-0.3722 0.474,-1.0332 0.014,-0.3572 -0.072,-0.3024 -0.206,-0.281 -0.322,-0.2704 -0.688,-0.0982 -1.084,0.2756 -0.464,0.3188 -0.222,0.2358 -0.294,0.4622 -0.06,0.2408 -0.026,0.5316 0.056,0.4344 0.282,0.613 0.54,0.4302 0.25,0.112 0.49,0.0846 0.254,-0.0184 0.82,-0.3524 0.522,-0.506 0.9,-0.6114 0.584,-0.678 0.026,-0.3898 -0.1,-0.1988 -0.574,-0.595 -0.566,-0.446 -0.664,-0.321 -0.68,-0.1364 -0.68,0.0874 -0.586,0.3514 -0.142,0.263 -0.064,0.329 0.016,0.4252 0.122,0.4498 -0.902,-0.491"
     fill="none"
     stroke="#000000"
     stroke-linejoin="round"
     stroke-width="1.2"
     id="path2074" />
  <path
     d="m 134.23783,85.270037 0.16,-0.101 -0.086,0.0254 -1.658,-0.8652 -2.498,-1.7528 -0.502,-0.424 -0.298,-0.1626 -0.056,0.033 -0.052,0.062 0.15,0.5548 0.734,0.796 1.832,1.127 1.782,0.7318 0.428,0.2466 0.01,0.0932 -0.014,-0.0518 -0.348,0.453 -0.946,0.7242 -3.028,1.8832 -0.312,0.2564 -0.292,0.5842 -0.112,0.6368"
     fill="none"
     stroke="#000000"
     stroke-linejoin="round"
     stroke-width="1.2"
     id="path2076" />
  <path
     d="m 349.85783,71.935037 -0.8838,1.2326 -0.3034,0.5546 -0.1168,0.4428 -0.0264,0.4202 0.0884,0.851 0.2672,0.6594 0.408,0.4428 0.557,0.2308 0.3194,0.0192 1.1676,-0.061 0.372,-0.1108 0.7702,-0.404 0.183,-0.1732 0.2552,-0.4262 0.0578,-0.2716 4e-4,-0.3132 -0.2298,-1.0666 -0.3656,-0.8732 -0.246,-0.4294 -0.2944,-0.3378 -1.0224,-0.8336 -0.3236,-0.1772 -0.2806,-0.0704 0.023,0.045 0.1726,0.0596 0.5496,-0.1048"
     fill="none"
     stroke="#bfbfbf"
     stroke-linejoin="round"
     stroke-width="1.2"
     id="path2078" />
  <path
     d="m 354.66783,71.634037 0.0876,-0.014 0.1314,0.1236 0.0992,0.662 -0.086,3.0858 0.1776,1.1654 0.2056,0.3832 0.2544,0.2532 0.9562,0.209 0.2844,-0.0742 0.6312,-0.3954 0.275,-0.3116 0.1908,-0.3256 0.2302,-0.8482 0.0918,-1.0824 -0.195,-2.7886 0.0904,-1.2032"
     fill="none"
     stroke="#bfbfbf"
     stroke-linejoin="round"
     stroke-width="1.2"
     id="path2080" />
  <path
     d="m 359.75783,65.458037 0.2954,1.164 0.2246,2.5474 0.1222,5.5604 0.2356,1.0224 0.3912,1.0252"
     fill="none"
     stroke="#bfbfbf"
     stroke-linejoin="round"
     stroke-width="1.2"
     id="path2082" />
  <path
     d="m 358.52783,72.329037 0.1474,0.1256 0.261,0.0094 0.577,-0.1984 1.7212,-0.361 1.0734,-0.4428 0.31,0.0642 0.5812,0.4808 0.2416,0.3544 0.2064,0.7862 0.0462,0.4982 0.007,2.4494 -0.2048,3.2598 -0.1568,1.4374 -0.1488,0.5046 0.008,-0.9344 0.123,-1.4412 0.1082,-1.001 0.2018,-1.0332 0.5534,-2.1326 1.0842,-3.4566 0.4036,-0.8856 0.3954,-0.4884 0.2756,-0.1622 0.197,0.0272 0.1464,0.1556 0.0612,0.2648 -0.2048,2.0506 -0.1568,0.89 -0.4092,0.9612 -0.4634,0.5876 -0.5408,0.1386 -0.2174,-0.11 -0.121,-0.223 -0.008,-0.1624 0.2328,-0.5256"
     fill="none"
     stroke="#bfbfbf"
     stroke-linejoin="round"
     stroke-width="1.2"
     id="path2084" />
  <path
     d="m 368.55783,71.603037 0.1132,0.1182 0.138,0.4972 -0.0954,2.7986 0.0878,0.2208 0.1592,0.1364 0.381,0.0836 0.2182,-0.0414 0.931,-0.5652 0.4876,-0.6358 0.4364,-0.8184 0.289,-0.8678 0.1408,-0.7446 -0.04,-0.6176 -0.093,-0.3486"
     fill="none"
     stroke="#bfbfbf"
     stroke-linejoin="round"
     stroke-width="1.2"
     id="path2086" />
  <path
     d="m 375.64783,65.019037 -0.1342,0.1898 -0.1842,0.5226 0.1224,2.7894 -0.056,0.98 -0.7314,5.1444 0.0534,0.9162 0.1158,0.7334 0.07,0.1328"
     fill="none"
     stroke="#bfbfbf"
     stroke-linejoin="round"
     stroke-width="1.2"
     id="path2088" />
  <path
     d="m 372.76783,69.889037 0.3298,0.088 0.9348,0.0292 0.5122,-0.0302 1.1268,-0.197 1.2654,-0.371 3.2966,-1.1468"
     fill="none"
     stroke="#bfbfbf"
     stroke-linejoin="round"
     stroke-width="1.2"
     id="path2090" />
  <path
     d="m 74.419432,77.560037 -0.134,-0.4458 0.31,1.9548 0.342,3.123 0.064,-0.141 -0.032,-0.1328"
     fill="none"
     stroke="#bfbfbf"
     stroke-linejoin="round"
     stroke-width="1.2"
     id="path2092" />
  <path
     d="m 73.763432,73.497037 -0.114,0.3756 0.008,0.0462 0.082,-0.1032"
     fill="none"
     stroke="#bfbfbf"
     stroke-linejoin="round"
     stroke-width="1.2"
     id="path2094" />
  <path
     d="m 77.277432,75.605037 -0.088,-0.0176 -0.002,0.2238 0.234,1.4694 0.546,2.9346 0.188,0.5758 0.102,-0.006 0.32,-2.4592 0.256,-1.33 0.198,-0.6894 0.45,-1.1914 0.282,-0.2644 0.27,-0.1142 0.262,0.0096 0.236,0.1594 0.184,0.2782 0.332,0.8888 0.156,0.6038 0.134,1.3554 -0.07,2.1648 -0.074,0.515 0.206,-0.7096"
     fill="none"
     stroke="#bfbfbf"
     stroke-linejoin="round"
     stroke-width="1.2"
     id="path2096" />
  <path
     d="m 84.973832,77.015037 0.024,4.341 -0.054,1.7914 0.058,1.3212 0.046,0.31 0.066,0.0808 0.136,-0.0856 0.034,-0.2838 -0.3,-1.5504 -0.096,-1.7168 0.02,-0.954 0.304,-3.0396 0.32,-1.9374 0.204,-0.5062 0.274,-0.19 0.32,-0.0366 0.268,0.1024 0.172,0.1868 0.48,1.1256 0.188,1.142 -0.026,1.1632 -0.228,1.0752 -0.642,0.9818 -0.872,0.4516 -0.508,0.0982 -0.166,-0.0556 -0.09,-0.3554 0.276,-0.6922"
     fill="none"
     stroke="#bfbfbf"
     stroke-linejoin="round"
     stroke-width="1.2"
     id="path2098" />
  <path
     d="m 90.115832,75.545037 0.134,0.2856 0.138,0.6366 0.278,2.8864 0.254,0.9756 0.14,0.323 0.202,0.1986 0.204,0.0886 0.438,-0.0168 0.23,-0.083 0.208,-0.1616 0.408,-0.3718 0.208,-0.3154 0.212,-0.4004 0.402,-1.2674 0.086,-0.6278 0.036,-1.2382 -0.132,-1.4492 0.082,-0.559 0.034,-0.1018 0.042,0.1472"
     fill="none"
     stroke="#bfbfbf"
     stroke-linejoin="round"
     stroke-width="1.2"
     id="path2100" />
  <path
     d="m 97.721832,68.776037 v 0.664 l 0.57,5.2118 0.238,5.1868 0.212,1.0792 0.06,0.1146 0.102,0.007 -0.036,-0.4624"
     fill="none"
     stroke="#bfbfbf"
     stroke-linejoin="round"
     stroke-width="1.2"
     id="path2102" />
  <path
     d="m 96.215832,75.064037 0.066,-0.248 0.2,-0.2142 0.83,0.2096 0.722,-0.0908 2.539998,-1.25"
     fill="none"
     stroke="#bfbfbf"
     stroke-linejoin="round"
     stroke-width="1.2"
     id="path2104" />
  <path
     d="m 285.08783,47.445037 0.0918,0.6368 0.0106,0.7554 -0.1978,2.1298 -0.048,3.3884 -0.1564,1.965 -0.1604,4.8246 0.0106,5.8788 0.1754,1.7482 -0.1076,1.6084 -0.0586,-0.3196"
     fill="none"
     stroke="#000000"
     stroke-linejoin="round"
     stroke-width="1.2"
     id="path2106" />
  <path
     d="m 281.81783,67.668037 -0.233,-0.0154 0.0416,-0.0816 0.0314,0.1236 4e-4,-0.0844 0.452,0.5598 0.8604,1.2596 1.0246,1.837 0.6308,0.8186 -0.003,-0.1352 0.0244,-0.0354 0.0462,0.0538 0.154,-0.2154 0.7362,-1.562 1.1088,-1.9982 0.5446,-0.7592 0.7756,-0.7364"
     fill="none"
     stroke="#000000"
     stroke-linejoin="round"
     stroke-width="1.2"
     id="path2108" />
  <path
     d="m 278.90783,34.394037 -0.076,0.481 0.0172,-0.1374 0.0542,0.0424 0.1296,0.804 0.026,1.6872 -0.2716,3.3148 0.0442,0.728 0.1938,0.5758"
     fill="none"
     stroke="#000000"
     stroke-linejoin="round"
     stroke-width="1.2"
     id="path2110" />
  <path
     d="m 282.60783,37.986037 0.9464,0.1166 0.8638,-0.0726 1.74,-0.2004 1.153,-0.2636 1.67,-0.2424"
     fill="none"
     stroke="#000000"
     stroke-linejoin="round"
     stroke-width="1.2"
     id="path2112" />
  <path
     d="m 295.91783,41.384037 0.188,0.132 -0.1176,-0.0334 -0.2774,-0.6018 -1.0312,-3.5712 -0.3444,-0.6152 -0.2854,0.016 -0.3844,0.1744 -1.11,1.0422 -0.2806,0.3336 -0.4154,0.7022 -0.1416,0.3368 -0.0742,0.3956 -0.002,0.978 0.1354,0.4962 0.1264,0.1284 0.304,0.0746 0.1882,-0.0304 0.796,-0.4868 0.3532,-0.3536 1.4446,-1.8336 1.504,-2.4528"
     fill="none"
     stroke="#000000"
     stroke-linejoin="round"
     stroke-width="1.2"
     id="path2114" />
  <path
     d="m 298.35783,32.914037 0.1184,-0.0632 0.0114,-0.1806 0.2168,-0.241 0.3578,-0.258 0.3118,-0.1108 0.2102,0.118 0.2838,0.6476 0.0334,0.3762 -0.144,0.8408 -0.2786,0.8168 -0.3374,0.6372 0.3266,-0.1578 0.6762,-0.0812 0.2908,0.1028 0.751,0.1142 0.2468,0.2572"
     fill="none"
     stroke="#000000"
     stroke-linejoin="round"
     stroke-width="1.2"
     id="path2116" />
  <path
     d="m 287.56783,74.238037 -0.1054,0.1686 0.001,-0.1752 -0.6208,-0.0948 -1.5636,-0.3968 -0.7124,0.0962 -0.6752,0.2456 -0.6146,0.0914 -0.4868,-0.094 -1.307,0.0714 -2.4476,1.3786 -0.4118,0.4448 -0.2802,0.4466 -0.9322,2.606 -0.7978,1.7514 -0.1194,0.4972 -0.0558,0.7746 0.0456,1.527 0.301,1.1134 0.5258,1.2918 0.7288,1.264 1.1558,1.1014 1.048,0.7798 0.4536,0.2826 0.7474,0.2188 1.989,-0.1362 1.1708,0.0308 0.5662,-0.0496 0.96,-0.2184 1.4806,-0.7816 0.579,-0.4762 0.6854,-0.7222 0.3048,-0.4718 0.625,-1.444 0.4242,-1.367 0.2486,-1.9162 0.1196,-2.1196 -0.0686,-0.6182 -0.3172,-1.1074 -0.4904,-0.8482 -0.8714,-0.7616 -0.24,-0.2844 -0.2976,-0.5852 -0.2482,-0.9712"
     fill="none"
     stroke="#000000"
     stroke-linejoin="round"
     stroke-width="1.2"
     id="path2118" />
  <path
     d="m 279.29783,77.271037 -0.0196,-0.0914 0.4274,0.195 0.3134,0.227 1.021,1.0106 1.5046,1.6648 1.5766,1.9586 0.7136,0.941 1.1558,1.714 1.0236,1.2368 1.4278,1.3244 0.203,0.1044 0.1284,-0.0046"
     fill="none"
     stroke="#000000"
     stroke-linejoin="round"
     stroke-width="1.2"
     id="path2120" />
  <path
     d="m 278.59783,85.900037 -0.1256,0.1168 0.2086,-0.304 3.5828,-3.9756 1.7016,-1.764 1.8802,-1.7862 1.8834,-1.5076"
     fill="none"
     stroke="#000000"
     stroke-linejoin="round"
     stroke-width="1.2"
     id="path2122" />
  <g
     transform="translate(-4.3755822,66.888268)"
     id="g955">
    <g
       transform="matrix(0,0.28799826,-0.28799826,0,257.57485,-201.42422)"
       id="g999">
      <path
         d="m 761.64,875.14 1.4,1.031 -2.206,-2.522 -3.261,-1.921 -19.529,-8.809 -7.357,-3.008 -5.634,-2.654 -3.123,-1.932 2.771,-0.148 9.106,-1.782 18.486,-1.938 6.385,-1.36 1.181,-0.597 0.371,-0.065 -0.025,0.445"
         fill="none"
         stroke="#000000"
         stroke-linejoin="round"
         stroke-width="6"
         id="path997" />
    </g>
    <g
       transform="matrix(0,0.28799826,-0.28799826,0,257.57485,-201.42422)"
       id="g1003">
      <path
         d="m 750.3,867.98 0.232,-0.01 -0.3,-0.308 0.434,-2.99 -0.242,-3.416 -2.875,-11.351"
         fill="none"
         stroke="#000000"
         stroke-linejoin="round"
         stroke-width="6"
         id="path1001" />
    </g>
    <g
       transform="matrix(0,0.28799826,-0.28799826,0,257.57485,-201.42422)"
       id="g1007">
      <path
         d="m 721.76,836.66 5.039,0.807 8.602,-0.303 20.657,0.465 4.688,-0.519 0.464,-0.218 -0.69,-0.155"
         fill="none"
         stroke="#000000"
         stroke-linejoin="round"
         stroke-width="6"
         id="path1005" />
    </g>
    <g
       transform="matrix(0,0.28799826,-0.28799826,0,257.57485,-201.42422)"
       id="g1011">
      <path
         d="m 722.04,823.24 19.134,-0.26 15.439,0.496 0.93,-0.016 1.485,-0.618"
         fill="none"
         stroke="#000000"
         stroke-linejoin="round"
         stroke-width="6"
         id="path1009" />
    </g>
    <g
       transform="matrix(0,0.28799826,-0.28799826,0,257.57485,-201.42422)"
       id="g1015">
      <path
         d="m 749.36,809.49 5.492,-0.794 8.029,-0.404 11.418,0.862 5.986,1.075 -8.258,0.048 -6.978,-0.358 -17.722,-2.418 -4.401,-1.657 -1.079,-1.026 -0.779,-2.254 0.301,-0.918 1.885,-2.642 1.174,-0.878 3.256,-1.07 1.596,-0.283 3.208,0.188 2.804,0.751 2.999,1.307 2.28,1.778 1.409,2.328 0.307,0.939 -0.182,1.145 -0.339,0.103 -0.848,-0.889"
         fill="none"
         stroke="#000000"
         stroke-linejoin="round"
         stroke-width="6"
         id="path1013" />
    </g>
    <g
       transform="matrix(0,0.28799826,-0.28799826,0,257.57485,-201.42422)"
       id="g1019">
      <path
         d="m 743.3,779.85 1.235,-1.077 -0.771,0.563 -0.248,0.901 0.129,1.507 5.513,4.456 3.276,2.112 1.641,0.738 3.707,0.758 1.551,0.033 2.001,-0.615 1.174,-0.944 0.211,-1.677 -0.19,-1.162 -1.263,-2.759 -1.194,-1.489 -3.605,-2.71 -4.553,-2.322 -1.218,-0.38 -2.312,0.003 -1.415,1.3 -0.053,0.251 0.446,0.174 3.091,-0.292 6.653,-1.337 7.7,-2.167 1.347,-0.786 0.361,-0.605 -0.064,-1.55 -0.88,-0.957"
         fill="none"
         stroke="#000000"
         stroke-linejoin="round"
         stroke-width="6"
         id="path1017" />
    </g>
    <g
       transform="matrix(0,0.28799826,-0.28799826,0,257.57485,-201.42422)"
       id="g1023">
      <path
         d="m 762.46,763.07 0.721,-0.635 0.357,-3.389 -0.062,-1.174 -0.93,-2.587 -2.464,-3.373 -2.062,-1.025 -0.978,-0.089 -1.976,0.768 -0.748,0.918 -1.586,2.424 -2.246,5.525 -1.208,1.396 -0.706,0.26 -0.467,-0.256 -6.002,-5.77 -1.933,-2.392 -0.263,-1.123 0.495,-2.04 1.444,-1.873 0.923,-0.572"
         fill="none"
         stroke="#000000"
         stroke-linejoin="round"
         stroke-width="6"
         id="path1021" />
    </g>
    <g
       transform="matrix(0,0.28799826,-0.28799826,0,257.57485,-201.42422)"
       id="g1027">
      <path
         d="m 761.42,742.61 2.191,-2.502 1.052,-3.705 -0.18,-2.264 -1.577,-2.387 -4.358,-2.833 -1.957,-0.725 -3.473,-0.309 -1.473,0.64 -1.38,1.278 -2.397,4.871 -0.674,3.526 -0.567,0.027 -2.554,-4.649 -6.369,-8.468 -2.026,-3.632"
         fill="none"
         stroke="#000000"
         stroke-linejoin="round"
         stroke-width="6"
         id="path1025" />
    </g>
  </g>
</svg>
