<?xml version="1.0" encoding="UTF-8" standalone="no"?>
<svg
   xmlns:dc="http://purl.org/dc/elements/1.1/"
   xmlns:cc="http://creativecommons.org/ns#"
   xmlns:rdf="http://www.w3.org/1999/02/22-rdf-syntax-ns#"
   xmlns:svg="http://www.w3.org/2000/svg"
   xmlns="http://www.w3.org/2000/svg"
   xmlns:sodipodi="http://sodipodi.sourceforge.net/DTD/sodipodi-0.dtd"
   xmlns:inkscape="http://www.inkscape.org/namespaces/inkscape"
   inkscape:version="1.0 (4035a4f, 2020-05-01)"
   sodipodi:docname="allpass-with-comb.svg"
   id="svg1225"
   version="1.2"
   viewBox="0 0 308.30386 131.90877"
   height="131.90877"
   width="308.30386">
  <metadata
     id="metadata1231">
    <rdf:RDF>
      <cc:Work
         rdf:about="">
        <dc:format>image/svg+xml</dc:format>
        <dc:type
           rdf:resource="http://purl.org/dc/dcmitype/StillImage" />
        <dc:title>reverb</dc:title>
      </cc:Work>
    </rdf:RDF>
  </metadata>
  <defs
     id="defs1229" />
  <sodipodi:namedview
     inkscape:current-layer="svg1225"
     inkscape:window-maximized="0"
     inkscape:window-y="290"
     inkscape:window-x="0"
     inkscape:cy="38.043869"
     inkscape:cx="146.06956"
     inkscape:zoom="2.2998859"
     showgrid="false"
     id="namedview1227"
     inkscape:window-height="855"
     inkscape:window-width="1440"
     inkscape:pageshadow="2"
     inkscape:pageopacity="0"
     guidetolerance="10"
     gridtolerance="10"
     objecttolerance="10"
     borderopacity="1"
     bordercolor="#666666"
     pagecolor="#ffffff"
     inkscape:document-rotation="0" />
  <title
     id="title833">reverb</title>
  <path
     style="opacity:1;stroke:#4ca2d4;stroke-opacity:1"
     fill="none"
     stroke="#fff3a8"
     stroke-width="6"
     stroke-linecap="butt"
     stroke-linejoin="round"
     opacity="0.250004"
     d="m 131.55088,88.950384 0.1758,0.002 -0.0608,-0.0288 -0.362,0.1312 h -0.6224 l -0.6544,-0.198 -0.3916,-0.0182 -0.249,0.0176 -0.2572,0.2046 -0.196,0.0326 -0.2044,-0.0678 -0.442,0.028 -0.154,0.2152 -0.3942,0.243 -0.9392,0.981 -0.0814,0.2272 -0.1402,0.1422 -0.2212,0.5684 -0.2978,0.371 -0.1848,0.4258 -0.3064,0.4042 -0.05,0.3806 -0.236,0.4886 0.024,0.3374 -0.086,0.7072 0.036,0.6138 0.244,0.8806 0.274,0.5526 0.4044,0.4038 0.0802,0.1872 0.198,0.214 0.4836,0.4114 0.1174,0.2452 0.202,0.1806 0.4752,0.2518 0.4812,0.0228 0.1642,0.1538 0.0582,-0.0238 0.4044,0.1852 0.4596,0.0762 0.29,-0.131 0.3362,-0.0286 0.1778,-0.0814 0.2068,0.1224 0.3474,-0.0226 0.5262,-0.1404 0.2532,0.0636 0.8522,-0.4136 0.9226,-0.7746 0.1506,-0.0412 0.3612,-0.2598 0.4374,-0.4936 0.1906,-0.0962 0.4916,-1.0066 0.2656,-1.1798 0.0282,-0.6948 -0.2356,-1.1142 -0.2174,-0.5452 -0.0728,-0.0958 -0.0902,0.1234 -0.0792,-0.051 -0.2022,-0.4954 -0.7116,-0.8878 -0.2906,-0.2418 -0.2734,-0.0964 -0.2586,-0.2012 -0.2446,-0.049 -0.1118,-0.1156 -0.141,-0.022 -0.877,0.406 -0.666,0.4226 -0.4726,0.4844 -0.3848,0.6184 -0.108,0.6516 -0.001,0.863 0.1282,0.7876 0.269,0.6586 0.2932,0.233 0.3766,0.118 0.846,-0.0586 0.4206,-0.1122 1.3774,-0.6632 0.4578,-0.1402 0.3468,-0.2684"
     id="path1001" />
  <path
     style="opacity:1;stroke:#4ca2d4;stroke-opacity:1"
     fill="none"
     stroke="#fff3a8"
     stroke-width="6"
     stroke-linecap="butt"
     stroke-linejoin="round"
     opacity="0.250004"
     d="m 215.29568,49.912394 0.2484,-1.1408 -0.1126,-0.1564 -0.087,-0.4274 0.0962,-1.0272 -0.431,-0.6168 -0.0832,-0.4422 -0.3598,-0.376 -0.3958,-0.1816 -0.2776,-0.5536 -0.2178,-0.0756 -0.298,0.0356 -0.623,-0.4338 -0.7086,0.2 -0.5384,0.003 -0.2736,-0.0794 -0.5906,0.1214 -0.2734,0.1488 -0.6092,-0.0308 -0.686,0.329 -0.351,-0.009 -0.9884,0.6546 -0.3346,0.5904 -0.0926,0.0556 -0.0354,0.2098 -0.1412,0.117 -0.091,0.2164 -0.0234,0.2874 -0.187,0.366 0.003,0.4062 -0.216,1.0128 2e-4,0.6368 0.1266,0.3948 0.1146,1.5068 0.1682,0.4788 0.066,0.5298 0.2572,0.4092 0.0908,0.3402 0.3574,0.4284 0.205,0.3708 0.1728,0.0452 0.4332,0.3294 0.2032,0.221 0.1508,0.3156 0.5058,0.1968 0.086,0.1112 0.4148,-0.0338 0.4754,0.2298 0.248,0.1998 0.358,0.0244 0.7646,-0.3232 0.4302,0.005 0.166,-0.1328 0.1266,0.04 0.1286,-0.0582 0.3568,-0.3162 0.991,-0.194 0.3124,-0.1918 0.5474,-0.545 0.2384,-0.4622 0.1418,-0.1506 0.1434,-0.3658 0.1436,-0.7364 -0.1846,-0.2992 -0.006,-0.1822 -0.1454,-0.3708 -0.2928,-0.3202 -1.1058,-0.4148 -0.389,-0.2536 -0.1892,-0.2016 -0.0986,0.0166 -0.3544,-0.1584 -0.6884,0.01 -0.6144,-0.2324 -0.4896,-0.0168 -0.241,0.1134 0.1192,0.0928 0.2236,0.4754 0.2786,0.3952 0.441,0.3736 0.075,-0.0132 0.036,-0.2024"
     id="path1041" />
  <path
     style="opacity:1;stroke:#4ca2d4;stroke-opacity:1"
     fill="none"
     stroke="#fff3a8"
     stroke-width="6"
     stroke-linecap="butt"
     stroke-linejoin="round"
     opacity="0.250004"
     d="m 261.44548,50.099194 -0.0612,-0.526 -0.1556,-0.2132 -0.313,-0.043 -0.4134,-0.1304 -0.1636,-0.1258 -0.5486,-0.1384 -0.3622,0.0388 -0.0604,-0.1132 -0.226,-0.1304 -0.4694,0.009 -0.0604,-0.161 -0.1378,-0.105 -0.2372,0.0618 -0.5116,-0.076 -1.0146,0.2518 -0.2134,-0.0526 -0.647,0.1046 0.007,0.0902 -0.4198,0.5394 -0.3528,0.603 0.0448,-0.028 0.041,0.2218 -0.1298,0.8438 0.048,0.4692 -0.0332,0.557 0.0228,0.2624 0.0746,0.038 0.0142,0.1198 -0.043,0.8718 0.1742,0.8082 0.2224,0.4136 0.533,0.345 0.0638,0.1236 0.2556,-0.008 0.8394,0.3054 0.2542,0.018 0.525,0.541 0.3076,-0.0318 0.1598,0.0922 0.0376,-0.0442 0.4458,0.104 1.4294,-0.3864 0.332,-0.1552 0.6178,-0.5216 0.3726,-0.6034 0.1988,-0.5868 0.1192,-0.9888 -0.078,-0.1928 0.004,-0.2022 0.2072,-0.742 -0.2858,-0.38 -0.17,-0.1424 -0.2844,-0.0706 -0.0544,-0.0852"
     id="path1045" />
  <path
     style="opacity:1;stroke:#faec88;stroke-opacity:1"
     fill="none"
     stroke="#fff3a8"
     stroke-width="6"
     stroke-linecap="butt"
     stroke-linejoin="round"
     opacity="0.250004"
     d="m 138.52568,38.860594 -0.2054,0.096 0.0194,-0.0722 0.0874,0.0256 0.0124,-0.0434 0.0772,0.0604 -0.0634,0.4674 0.0312,1.1896 0.1686,0.5944 0.0246,0.545 -0.0678,0.6688 0.1046,1.266 -0.0788,2.8542 0.0574,0.5984 -0.01,1.7562 0.119,1.0304 -0.082,1.877 0.0768,0.7928 -0.0806,0.6932 0.0184,0.9206 -0.17,1.0182 0.1008,0.3738 0.0288,2.3428 0.0666,0.5748 -0.0622,0.985 0.1502,0.959 0.002,0.68 0.0278,0.0838 0.0314,-0.037 0.003,0.544 -0.0488,0.047 0.004,-0.09 0.0772,-0.0468 0.2266,0.1622 1.1944,0.311 0.268,-0.0422 1.8012,0.1544 1.0844,6e-4 0.4374,0.1118 0.5512,-0.1566 0.7822,-0.0448 0.3066,-0.149 0.3556,-0.0588 0.626,0.1492 0.4326,0.217 0.5404,0.1422 1.2128,-0.0928 0.4552,0.11 1.0552,-0.036 1.192,0.2358 1.4814,-0.0878 0.5468,-0.1252 1.7576,-0.159 0.8744,-0.1554 0.813,0.009 1.3782,-0.4518 0.4286,-0.005 0.3716,-0.1254 1.665,0.0372 2.3246,-0.4548 0.096,0.0902 0.2518,0.0454 0.9888,-0.1138 0.151,0.0664 0.2992,-0.1396 0.3186,-0.0576 0.8788,0.1292 0.2148,0.0846 0.637,0.0144 0.7212,-0.0174 0.3282,-0.131 0.2718,0.0412 0.0554,0.1276 0.096,0.0224 0.0796,-0.081 0.821,0.016 0.2184,-0.1512 0.1018,0.1264 0.253,-0.0578 0.7466,0.0624 0.298,-0.1012 0.0642,0.108 0.1022,-0.0798 0.1178,0.0352 0.0898,-0.0452 0.0818,0.051 0.2266,-0.0474 0.531,0.0634 0.3426,-0.0396 0.0564,-0.066 0.038,0.0844 -0.0378,-0.1202 -0.004,0.0806 -0.0304,-0.0452 0.1288,-1.3266 -0.027,-1.2738 -0.1276,-0.9676 -0.005,-0.5688 0.0172,-1.0466 0.1066,-0.776 -0.0978,-0.7126 -0.1156,-2.435 -0.0144,-0.9124 0.0886,-0.535 -0.1428,-1.9958 0.0554,-1.1336 -0.05,-0.8694 -0.11,-0.484 0.009,-1.0238 0.0946,-0.7418 -0.041,-0.5506 -0.0396,-0.1116 -0.0168,0.2092 -0.0396,-0.212 0.0702,-1.4112 -0.079,-0.4658 -0.1038,-0.1948 -0.04,-2.0268 -0.0218,0.1804 -0.167,-0.434 -0.1002,-0.0706 -0.3086,-0.1144 -1.632,0.1724 -0.6038,-0.082 -0.4616,0.1254 -0.3146,-0.0244 -0.1514,0.1454 -0.6294,0.148 -1.172,-0.1362 -0.9158,0.2352 -0.4066,-0.0836 -0.1506,0.053 -0.2778,-0.175 -0.223,-0.0244 -0.9478,0.0228 -0.1852,-0.1236 -0.1988,-0.036 -0.199,0.0862 -0.8402,0.007 -0.4198,0.089 -0.6492,0.013 -0.3218,-0.0886 -0.8084,0.1956 -0.8578,0.1144 -0.3232,-0.0254 -0.6872,0.2068 h -0.134 l -0.2474,-0.1574 -0.2666,0.0574 -0.323,-0.1134 -0.7008,0.0412 -0.152,-0.1578 -0.1878,0.006 -0.1542,0.296 -0.1824,0.1442 -0.598,0.0744 -0.1268,10e-4 -0.3412,-0.1648 -0.325,0.0192 -0.3562,-0.1488 -0.4622,0.0178 -0.1326,-0.154 -0.023,0.1482 -0.5374,-0.0742 -0.874,0.279 -0.7136,-0.0136 -0.1646,-0.193 -0.2018,-0.053 -0.1744,0.1698 -1.1812,0.0374 -0.192,0.0912 -0.4244,-0.0674 -0.125,-0.1626 -0.1594,-0.047 -0.125,0.1732 -0.2834,8e-4 -0.3056,-0.086 -0.2254,0.1442 -0.3916,0.0424 -0.487,-0.1306 -0.1168,-0.006 -0.0968,0.072 -0.7742,-0.0886 -0.4004,-0.1556 -0.1174,0.052 -0.3324,-0.0562 -0.1222,0.0572 -0.0738,-0.078 -0.1074,0.0676 -0.0944,-0.0628 -0.2204,-0.007 -0.1098,0.209 -0.1698,0.034 -0.0708,-0.2276 -0.16,-0.0504 0.0434,0.027 0.002,-0.1316 -0.0188,0.0716 -0.0858,0.0236 -0.3466,-0.0836 -0.1066,0.2284 -0.1746,0.04 -0.1312,-0.2456 -0.4794,-0.027 -0.0238,-0.0536 0.0348,0.1384 0.046,-0.0606 -0.0122,0.4326 0.2662,1.2886 0.4142,2.6876 -0.0414,1.5774 0.176,1.5126 -0.193,1.8248 0.1542,1.8014 0.025,2.0918 0.3074,2.6036 0.079,1.6862 0.1488,0.809 0.1386,0.3376 0.2636,0.3242 0.2526,-0.054 0.474,0.0424 1.6818,-0.4084 1.1718,-0.007 1.0592,0.2378 1.5664,0.003 1.3864,-0.2964 0.5572,-0.0528 0.5202,0.0422 1.278,0.2736 1.3134,-0.001 1.1716,-0.3012 0.2442,0.1328 0.2552,-0.01 0.248,-0.1556 0.2306,-0.0288 0.5598,0.0846 1.4014,-0.0792 0.962,-0.1932 0.202,0.007 0.1956,0.1432 0.2258,-0.0178 0.2326,-0.1658 0.8836,-0.1278 0.4278,-0.144 0.5716,-0.047 0.1608,-0.0968 1.331,0.322 1.382,-0.2004 0.418,-0.1392 0.4612,0.2282 0.375,0.0668 0.8366,-0.4244 0.1804,-0.0372 -0.0186,0.0578 -0.0806,-0.0132 -0.0114,-0.1124 0.209,-3.4696 -0.0276,-0.578 -0.3142,-0.9556 -0.087,-0.627 -0.101,-3.2224 -0.2092,-1.3282 0.1316,-2.1822 -0.008,-0.4362 -0.0898,-0.2312 -0.0754,0.0966 -0.2534,0.007 -0.2968,-0.2762 -0.3444,-0.0502 -0.5768,0.0494 -0.263,-0.0994 -0.3102,0.0134 -0.333,0.1776 -1.1772,0.2272 -0.8174,-0.0394 -0.8416,0.058 -0.4864,-0.0976 -2.5252,-0.0356 -0.2916,0.0872 -0.8378,-0.0842 -1.6894,0.3954 -0.212,-0.0778 -0.5262,0.0312 -1.1578,-0.307 -0.5922,-0.0182 -1.0022,0.147 -1.3764,0.4584 -0.3134,0.0264 -0.286,-0.1158 -0.8384,-0.0692 -0.5222,-0.2664 -0.2142,-0.0282 -0.1482,0.0844 -0.678,0.109 -0.805,0.2606 -0.2966,-0.1328 -0.2212,0.0868 0.0738,0.0944 0.0564,1.9608 -0.0464,2.4992 0.3056,2.3066 0.0858,1.986 0.0186,0.071 0.169,0.0308 0.128,0.1234 0.1256,0.2154 0.4936,0.3256 0.1668,0.059 0.493,-0.0462 2.121,-0.5078 1.0888,-0.137 0.9334,0.0382 1.298,0.2072 0.8848,-0.1184 1.778,-0.0612 0.5802,-0.1106 1.308,-0.0698 0.5138,0.0832 0.4162,-0.137 0.4558,10e-4 1.2558,0.1748 0.4794,-0.0638 0.259,0.0996 0.4788,-0.1318 0.438,-0.0394 0.7602,0.1574 -0.0656,-0.0624 -0.1472,-1.5626 -0.3312,-1.3038 -0.0426,-0.6316 0.3618,-1.4378 0.1656,-0.3698 -0.088,0.1702 -0.003,-0.0912 -0.2952,-0.289 -0.8046,-0.087 -1.4448,0.1132 -0.859,-0.1134 -0.5908,0.012 -0.4992,0.1296 -0.1602,0.1296 -0.7018,0.2554 -1.166,0.0192 -0.3318,-0.1118 -0.7572,0.0908 -1.5318,0.4878 -1.5324,0.0242 -0.688,0.1642 -0.072,-0.0408 0.0138,0.1128 0.086,-0.1632 -0.1214,-0.5992"
     id="path1093" />
  <path
     style="opacity:1;stroke:#faec88;stroke-opacity:1"
     fill="none"
     stroke="#fff3a8"
     stroke-width="6"
     stroke-linecap="butt"
     stroke-linejoin="round"
     opacity="0.250004"
     d="m 68.301682,40.563994 -0.206,0.096 0.02,-0.0722 0.088,0.0256 0.012,-0.0434 0.076,0.0604 -0.062,0.4674 0.03,1.1894 0.17,0.5946 0.024,0.545 -0.068,0.6688 0.104,1.266 -0.078,2.854 0.058,0.5984 -0.01,1.7564 0.118,1.0304 -0.082,1.877 0.078,0.7928 -0.082,0.693 0.02,0.9206 -0.17,1.0184 0.1,0.3736 0.028,2.343 0.068,0.5746 -0.062,0.985 0.15,0.959 0.002,0.6802 0.028,0.0836 0.03,-0.0368 0.004,0.544 -0.048,0.047 0.004,-0.09 0.076,-0.0468 0.228,0.162 1.194,0.311 0.268,-0.0422 1.802,0.1544 1.084,8e-4 0.436,0.1118 0.552,-0.1566 0.782,-0.0448 0.306,-0.149 0.356,-0.059 0.626,0.1494 0.432,0.217 0.542,0.1422 1.212,-0.0928 0.456,0.1098 1.054,-0.036 1.192,0.236 1.482,-0.0878 0.546,-0.1254 1.758,-0.1588 0.874,-0.1554 0.814,0.009 1.378,-0.452 0.428,-0.005 0.372,-0.1254 1.666,0.037 2.324,-0.4546 0.096,0.09 0.252,0.0454 0.988,-0.1136 0.152,0.0664 0.298,-0.1398 0.32,-0.0574 0.878,0.1292 0.214,0.0846 0.638,0.0142 0.722,-0.0172 0.328,-0.1312 0.272,0.0412 0.054,0.1276 0.096,0.0224 0.08,-0.0808 0.822,0.0158 0.218,-0.151 0.102,0.1262 0.252,-0.0576 0.745998,0.0624 0.298,-0.1012 0.064,0.108 0.104,-0.0798 0.118,0.0352 0.088,-0.0452 0.082,0.051 0.228,-0.0474 0.53,0.0632 0.342,-0.0396 0.058,-0.066 0.038,0.0846 -0.038,-0.1202 -0.004,0.0806 -0.032,-0.0452 0.13,-1.3266 -0.028,-1.2738 -0.128,-0.9676 -0.004,-0.5688 0.018,-1.0466 0.106,-0.776 -0.098,-0.7128 -0.116,-2.4348 -0.014,-0.9124 0.088,-0.535 -0.142,-1.9958 0.056,-1.1336 -0.05,-0.8696 -0.11,-0.4838 0.008,-1.024 0.096,-0.7416 -0.042,-0.5506 -0.04,-0.1116 -0.016,0.209 -0.04,-0.212 0.07,-1.4112 -0.078,-0.4656 -0.104,-0.1948 -0.04,-2.0268 -0.022,0.1804 -0.168,-0.434 -0.1,-0.0706 -0.308,-0.1144 -1.631998,0.1722 -0.604,-0.082 -0.462,0.1256 -0.314,-0.0244 -0.152,0.1454 -0.628,0.148 -1.172,-0.1362 -0.916,0.2352 -0.408,-0.0838 -0.15,0.053 -0.278,-0.175 -0.222,-0.0242 -0.948,0.0228 -0.186,-0.1236 -0.198,-0.036 -0.2,0.0862 -0.84,0.006 -0.42,0.0892 -0.648,0.013 -0.322,-0.0886 -0.808,0.1956 -0.858,0.1144 -0.324,-0.0256 -0.688,0.2068 -0.134,2e-4 -0.246,-0.1574 -0.268,0.0574 -0.322,-0.1134 -0.7,0.0412 -0.152,-0.158 -0.188,0.007 -0.154,0.296 -0.184,0.1442 -0.598,0.0744 -0.126,0.001 -0.342,-0.1648 -0.324,0.019 -0.356,-0.1488 -0.462,0.0178 -0.134,-0.154 -0.022,0.1482 -0.538,-0.0742 -0.874,0.2792 -0.714,-0.0136 -0.164,-0.193 -0.202,-0.053 -0.174,0.1698 -1.182,0.0372 -0.192,0.0912 -0.424,-0.0672 -0.124,-0.1628 -0.16,-0.0468 -0.126,0.173 -0.282,8e-4 -0.306,-0.0858 -0.226,0.1442 -0.392,0.0422 -0.486,-0.1304 -0.116,-0.006 -0.098,0.0722 -0.774,-0.0886 -0.4,-0.1556 -0.118,0.052 -0.332,-0.0564 -0.122,0.0574 -0.074,-0.078 -0.108,0.0676 -0.094,-0.0628 -0.22,-0.007 -0.11,0.209 -0.17,0.0338 -0.07,-0.2274 -0.16,-0.0504 0.042,0.027 0.002,-0.1316 -0.018,0.0716 -0.086,0.0236 -0.346,-0.0836 -0.108,0.2282 -0.174,0.04 -0.132,-0.2454 -0.478,-0.027 -0.024,-0.0536 0.034,0.1382 0.046,-0.0604 -0.012,0.4326 0.266,1.2884 0.414,2.6876 -0.04,1.5776 0.176,1.5126 -0.194,1.8248 0.154,1.8012 0.026,2.092 0.306,2.6036 0.08,1.6862 0.148,0.8088 0.14,0.3376 0.262,0.3244 0.254,-0.054 0.474,0.0424 1.682,-0.4086 1.172,-0.006 1.058,0.2378 1.566,0.003 1.388,-0.2962 0.556,-0.0528 0.52,0.0422 1.278,0.2736 1.314,-0.001 1.172,-0.3012 0.244,0.1326 0.254,-0.009 0.248,-0.1558 0.232,-0.0286 0.56,0.0846 1.4,-0.0794 0.962,-0.1932 0.202,0.007 0.196,0.1434 0.226,-0.018 0.232,-0.1656 0.884,-0.1278 0.428,-0.1442 0.572,-0.047 0.16,-0.0966 1.332,0.322 1.382,-0.2004 0.418,-0.1392 0.46,0.2282 0.376,0.0666 0.836,-0.4242 0.18,-0.0372 -0.018,0.0576 -0.08,-0.013 -0.012,-0.1126 0.21,-3.4696 -0.028,-0.578 -0.314,-0.9554 -0.088,-0.627 -0.1,-3.2224 -0.21,-1.3282 0.132,-2.1824 -0.008,-0.436 -0.09,-0.2314 -0.076,0.0966 -0.254,0.007 -0.296,-0.2762 -0.344,-0.0502 -0.578,0.0494 -0.262,-0.0994 -0.31,0.0132 -0.334,0.1778 -1.176,0.2272 -0.818,-0.0396 -0.842,0.0582 -0.486,-0.0976 -2.526,-0.0356 -0.29,0.0872 -0.838,-0.0842 -1.69,0.3954 -0.212,-0.0778 -0.526,0.031 -1.158,-0.3068 -0.592,-0.0182 -1.002,0.147 -1.376,0.4584 -0.314,0.0264 -0.286,-0.1158 -0.838,-0.0694 -0.522,-0.2664 -0.214,-0.028 -0.15,0.0844 -0.678,0.109 -0.804,0.2606 -0.296,-0.1328 -0.222,0.0866 0.074,0.0946 0.056,1.9608 -0.046,2.4992 0.306,2.3064 0.086,1.986 0.018,0.0712 0.168,0.0306 0.128,0.1236 0.126,0.2152 0.494,0.3258 0.166,0.059 0.494,-0.0462 2.12,-0.508 1.09,-0.1368 0.932,0.0382 1.298,0.2072 0.886,-0.1184 1.778,-0.0614 0.58,-0.1104 1.308,-0.07 0.514,0.0834 0.416,-0.137 0.456,10e-4 1.256,0.1748 0.48,-0.0638 0.258,0.0996 0.478,-0.1318 0.438,-0.0394 0.762,0.1572 -0.066,-0.0622 -0.148,-1.5626 -0.33,-1.304 -0.044,-0.6314 0.362,-1.438 0.166,-0.3696 -0.088,0.17 -0.002,-0.091 -0.296,-0.289 -0.804,-0.087 -1.446,0.113 -0.858,-0.1134 -0.592,0.0122 -0.498,0.1296 -0.16,0.1294 -0.702,0.2556 -1.166,0.0192 -0.332,-0.112 -0.758,0.0908 -1.532,0.488 -1.532,0.024 -0.688,0.1642 -0.072,-0.0406 0.014,0.1126 0.086,-0.163 -0.122,-0.5994"
     id="path1113" />
  <path
     style="stroke-width:0.2"
     fill="#000000"
     d="m 179.19468,53.553994 c 0,0 0,0 0,0 0.5752,0.008 1.151,0.0514 1.7256,0.024 2.2582,-0.1074 4.5108,-0.3186 6.769,-0.4282 3.4754,-0.1684 6.9578,-0.1892 10.4306,-0.4054 0.4378,-0.0272 0.8852,-0.1238 1.2758,-0.3236 0.1012,-0.0516 0.0356,-0.227 0.0226,-0.3398 -0.0118,-0.1032 -0.0414,-0.208 -0.096,-0.2964 -0.046,-0.074 -0.1086,-0.1644 -0.1954,-0.174 -0.5314,-0.0594 -1.0694,-0.0428 -1.6038,-0.027 -3.2608,0.0966 -6.5212,0.2142 -9.78,0.3644 -2.3236,0.1072 -4.6466,0.2314 -6.966,0.4072 -0.5316,0.0404 -1.0826,0.053 -1.5816,0.2412 -0.1848,0.0698 -0.3412,0.2868 -0.3412,0.4844"
     id="path837" />
  <path
     fill="none"
     stroke="#000000"
     stroke-width="1.2"
     stroke-linecap="butt"
     stroke-linejoin="round"
     d="m 194.52368,49.549794 -0.019,-0.4088 -0.1128,-0.405 -0.0662,0.1564 0.1062,0.2556 0.5098,0.44 0.2284,0.1096 4.13,1.1644 1.6966,0.4076 0.7332,0.4324 0.306,0.5254 -0.0802,0.3564 -0.2804,0.3484 -0.2758,0.2274 -1.0104,0.5972 -1.147,0.4746 -0.7156,0.406 -0.8444,0.6608 -0.8128,1.3914 -0.0868,0.2894 6e-4,0.2528 0.0578,0.184 0.1388,0.1278"
     id="path841" />
  <path
     fill="none"
     stroke="#000000"
     stroke-width="1.2"
     stroke-linecap="butt"
     stroke-linejoin="round"
     d="m 222.59928,50.804394 -0.4838,0.0518 0.0486,0.0796 0.0448,-0.043 0.776,0.204 0.58,-0.0406 1.7812,0.157 7.22,-0.2548 2.3662,0.0182 1.156,0.1028 2.0066,0.441 2.0186,0.3078 2.3918,-0.1982 0.446,-0.006 0.8108,0.129"
     id="path845" />
  <path
     fill="none"
     stroke="#000000"
     stroke-width="1.2"
     stroke-linecap="butt"
     stroke-linejoin="round"
     d="m 242.07588,48.321394 -0.0516,0.4084 0.0878,-0.1978 0.2692,0.2218 0.5036,0.275 1.412,0.5922 1.164,0.6864 0.4858,0.1508 1.2036,0.0722 -0.1366,0.003 -0.5926,0.8146 -0.9222,0.8464 -1.0286,1.2556 -1.2486,1.2318 0.2594,-0.179 0.4774,-0.091"
     id="path849" />
  <path
     fill="none"
     stroke="#000000"
     stroke-width="1.2"
     stroke-linecap="butt"
     stroke-linejoin="round"
     d="m 256.73768,45.957594 v 0"
     id="path853" />
  <path
     fill="none"
     stroke="#000000"
     stroke-width="1.2"
     stroke-linecap="butt"
     stroke-linejoin="round"
     d="m 256.86268,45.860794 0.0678,0.085 0.048,-0.0332 0.0874,-0.2288 -0.1216,-0.2584"
     id="path857" />
  <path
     fill="none"
     stroke="#000000"
     stroke-width="1.2"
     stroke-linecap="butt"
     stroke-linejoin="round"
     d="m 257.54228,45.789194 0.1392,-0.3142 0.1046,0.1512 0.0876,-0.172 -0.1832,-0.2042 -0.465,-0.1688 -0.5462,6e-4 -0.9684,0.3234 -1.6946,1.2428 -0.3704,0.3532 -0.556,0.6876 -0.3916,0.722 -0.1512,0.511 -0.1972,1.2084 -0.079,1.6254 0.031,0.904 0.3386,2.0152 0.264,1.0022 0.294,0.8748 0.36,0.737 0.4116,0.6442 0.4704,0.4974 0.5816,0.3158 0.6166,0.2138 0.6904,0.0894 0.781,-0.009 1.6698,-0.2524 0.8748,-0.2428 1.6724,-0.6358 1.3278,-0.7014 0.583,-0.43 0.515,-0.4972 0.7462,-0.9906 0.2638,-0.51 0.198,-0.506 0.1446,-1.1338 -0.361,-2.8156 -0.4074,-1.5156 -0.289,-0.6386 -0.3862,-0.5416 -0.9364,-0.913 -0.5596,-0.3244 -0.611,-0.2426 -1.233,-0.3042 -1.8816,-0.9784"
     id="path861" />
  <path
     fill="none"
     stroke="#000000"
     stroke-width="1.2"
     stroke-linecap="butt"
     stroke-linejoin="round"
     d="m 258.34468,47.206394 -0.2064,-1.0872 0.064,-0.4116 0.3724,4.1716 0.1176,3.6326 -0.0734,2.2052 -0.1396,1.3662 0.0294,1.8216 0.0322,0.0828 0.0266,-0.1396"
     id="path865" />
  <path
     fill="none"
     stroke="#000000"
     stroke-width="1.2"
     stroke-linecap="butt"
     stroke-linejoin="round"
     d="m 253.14868,52.257994 2.446,0.4078 1.8328,0.216 2.1154,0.0448 2.1304,-0.1338 2.2294,-0.2966 1.9826,-0.3708"
     id="path869" />
  <path
     fill="none"
     stroke="#000000"
     stroke-width="1.2"
     stroke-linecap="butt"
     stroke-linejoin="round"
     d="m 35.693682,56.473194 -0.082,0.2882 0.196,1.0494 0.238,4.093 -0.05,3.8862 0.148,1.1552 0.44,1.9144 0.1,1.8108 -0.012,0.9114 -0.112,0.838 -0.018,1.9366 0.28,3.3014 0.082,4.4912 -0.294,2.40679 -0.046,0.9514 -0.006,1.2044 0.096,1.1212 -0.046,2.6978 0.294,1.9552 -0.01,3.2524 0.112,1.3952 0.148,0.1954 0.048,-0.239"
     id="path873" />
  <path
     style="stroke-width:0.2"
     fill="#000000"
     d="m 38.859682,98.071984 c 0,0 0,0 0,0 0.058,0.1118 0.09,0.244 0.178,0.3354 0.134,0.1412 0.294,0.2698 0.474,0.3458 0.126,0.0532 0.272,0.0268 0.41,0.0274 2,0.008 4,0.0498 6,-0.003 0.142,-0.004 0.252,-0.1656 0.394,-0.1656 0.21,0 0.398,0.156 0.606,0.1656 1,0.0458 2.002,0.0492 3,0 0.142,-0.007 0.254,-0.1398 0.394,-0.1674 0.198,-0.039 0.404,-0.0286 0.606,-0.0296 1.6,-0.008 3.2,-0.0462 4.8,0.003 0.142,0.004 0.256,0.1504 0.4,0.1568 0.078,0.003 0.12,-0.1102 0.194,-0.1304 0.132,-0.0348 0.27,-0.0286 0.406,-0.0292 2,-0.008 4,-0.047 6,0.003 0.142,0.004 0.256,0.1504 0.4,0.1568 0.078,0.003 0.12,-0.1102 0.194,-0.1304 0.132,-0.0348 0.27,-0.0288 0.406,-0.0292 3.734,-0.009 7.468,-0.0538 11.2,0 0.276,0.004 0.536,0.186 0.812,0.1734 1.202,-0.0546 2.388,-0.2992 3.588,-0.3734 0.798,-0.0494 1.602,-0.0496 2.4,0.003 0.21,0.0138 0.39,0.1832 0.6,0.194 1.066,0.0544 2.138,0.0994 3.198,2e-4 1.974,-0.1842 3.918,-0.598 5.884,-0.8482 1.224,-0.1556 2.452,-0.2962 3.684,-0.369 5.271998,-0.3122 10.551998,-0.4326 15.819998,-0.7862 1.106,-0.0742 2.194,-0.31 3.286,-0.4966 0.458,-0.0778 0.922,-0.1384 1.358,-0.2962 0.124,-0.0452 0.228,-0.1662 0.266,-0.2928 0.058,-0.194 0.022,-0.406 0,-0.6074 -0.008,-0.0938 -0.02,-0.2052 -0.09,-0.2676 -0.054,-0.0484 -0.146,-0.0176 -0.218,-0.006 -1.532,0.2412 -3.044,0.6458 -4.59,0.7634 -5.268,0.4006 -10.558,0.4768 -15.831998,0.7898 -1.232,0.0732 -2.462,0.2156 -3.688,0.3684 -2.03,0.253 -4.042,0.6542 -6.08,0.8488 -0.928,0.0888 -1.866,0.053 -2.798,-2e-4 -0.21,-0.012 -0.39,-0.1802 -0.6,-0.194 -0.798,-0.0524 -1.602,-0.0508 -2.4,-0.003 -1.266,0.0758 -2.52,0.3184 -3.788,0.3736 -0.276,0.012 -0.534,-0.1708 -0.812,-0.1734 -6.066,-0.0554 -12.134,-0.01 -18.2,0 -0.136,2e-4 -0.274,-0.006 -0.406,0.0292 -0.074,0.0202 -0.116,0.1338 -0.194,0.1304 -0.144,-0.006 -0.258,-0.1526 -0.4,-0.1568 -1.666,-0.0492 -3.334,-0.0574 -5,-0.003 -0.34,0.0112 -0.66,0.182 -1,0.1996 -0.932,0.0482 -1.868,0.0432 -2.8,-0.003 -0.208,-0.0104 -0.396,-0.1656 -0.606,-0.1656 -0.142,0 -0.252,0.162 -0.394,0.1656 -2.202,0.054 -4.412,-0.1472 -6.61,0.007"
     id="path877" />
  <path
     fill="none"
     stroke="#000000"
     stroke-width="1.2"
     stroke-linecap="butt"
     stroke-linejoin="round"
     d="m 113.46968,91.970384 -0.166,-0.0638 -0.022,-0.0652 -0.29,0.1186 0.058,-0.0702 1.354,1.183 0.57,0.4244 1.188,0.429 0.678,0.3602 0.62,0.143 -0.142,0.5198 -0.49,0.5466 -0.632,0.4516 -1.492,1.2504 -0.418,0.2646 0.004,0.1104 0.146,-0.0858 0.77,-0.6168"
     id="path881" />
  <path
     fill="none"
     stroke="#000000"
     stroke-width="1.2"
     stroke-linecap="butt"
     stroke-linejoin="round"
     d="m 129.82228,87.517384 -0.3378,-0.5428 -0.1542,-0.1144 -0.3292,-0.0624 -0.8116,0.0138 -0.6542,0.1752 -0.3858,0.1888 -0.8608,0.6302 -1.729,1.5922 -0.608,0.6418 -0.514,0.6572 -0.766,1.515 -0.244,0.842 -0.134,0.83 -0.03,0.8406 0.086,0.8692 0.228,0.9082 0.324,0.929 0.412,0.8294 0.482,0.7276 0.596,0.7014 0.678,0.579796 0.75,0.417 0.843,0.2576 0.8806,0.1218 0.8772,0.009 0.9416,-0.093 1.025,-0.1866 2.1316,-0.643 0.9774,-0.412596 0.861,-0.4896 0.7538,-0.5076 0.6288,-0.6294 1.0066,-1.335 0.3772,-0.7656 0.2816,-0.8354 0.1358,-0.858 -2e-4,-0.8522 -0.146,-0.8552 -0.2668,-0.75 -0.8148,-1.438 -1.1626,-1.3196 -1.7618,-1.6028 -1.1054,-0.5784 -1.2934,-0.4064 -0.3202,-0.0232"
     id="path885" />
  <path
     fill="none"
     stroke="#000000"
     stroke-width="1.2"
     stroke-linecap="butt"
     stroke-linejoin="round"
     d="m 125.60768,89.621784 0.2656,0.1576 0.5536,0.5618 1.971,2.6876 1.4264,1.5946 0.785,0.769 2.1056,1.8272 1.8634,1.4442 0.6694,0.687 0.5042,0.4102 0.2922,0.356196"
     id="path889" />
  <path
     fill="none"
     stroke="#000000"
     stroke-width="1.2"
     stroke-linecap="butt"
     stroke-linejoin="round"
     d="m 124.96168,99.394384 0.426,-0.5826 0.8638,-0.86 3.2654,-3.9252 2.7918,-2.7536 1.3114,-1.5334 1.8142,-1.5986"
     id="path893" />
  <path
     fill="none"
     stroke="#000000"
     stroke-width="1.2"
     stroke-linecap="butt"
     stroke-linejoin="round"
     d="m 258.71968,62.368994 0.1352,-0.1466 -0.0554,0.2208 0.0972,0.3812 -0.1016,1.3312 0.1756,2.7758 -0.1366,1.6104 0.0296,2.0524 -0.3202,6.475 0.01,3.0988 -0.1724,1.342 0.0238,1.71279 -0.1388,0.8656 0.01,1.5892 -0.138,0.4664 -0.1664,1.5018 0.06,0.7916 -0.0288,0.4572 0.1286,0.4246 -0.064,0.4314 0.0684,0.9454 -0.0482,1.4064 0.089,0.5424 -0.0374,0.2916 0.0472,-0.058 -0.1758,-0.2924"
     id="path897" />
  <path
     fill="none"
     stroke="#000000"
     stroke-width="1.2"
     stroke-linecap="butt"
     stroke-linejoin="round"
     d="m 255.99668,65.164794 -0.1356,0.2728 0.3548,-0.1912 0.7914,-0.8656 0.7444,-1.0924 1.446,-1.8914 0.1174,-0.2592 -0.0204,-0.091 0.0874,-0.098 0.5328,0.3154 0.567,0.6718 1.6268,2.8148 0.3604,0.3824 0.5574,0.2912"
     id="path901" />
  <path
     fill="none"
     stroke="#000000"
     stroke-width="1.2"
     stroke-linecap="butt"
     stroke-linejoin="round"
     d="m 257.53948,93.179184 0.0196,0.3246 0.0704,-0.0306 -0.0336,-0.0402 -0.021,0.0776 -0.0424,-0.1088 -0.0302,0.0648 -0.0358,-0.0486 0.002,0.0748 -0.5226,0.011 -0.1734,-0.0686 -0.1934,0.0562 -0.4934,-0.005 -1.3744,-0.274 -0.4482,-0.163 -0.9084,-0.1562 -0.1596,0.0782 -0.8076,0.0974 -1.2054,-0.1298 -0.6148,0.164 h -0.39 l -1.505,-0.2014 -0.9776,-0.2536 -1.0774,-0.1824 -0.9816,0.1956 -1.8072,0.003 -0.711,0.1064 -1.048,0.0422 -0.7372,0.1506 -0.7302,-0.002 -1.238,0.2094 -2.5208,0.1968 -1.6808,0.2412 -0.8446,-0.005 -2.0992,0.1742 -2.9864,0.0934 -2.1798,0.1578 -0.9228,-0.0166 -0.4586,0.1276 -2.0174,-0.1396 -0.475,0.126 -0.4988,0.0386 -0.8972,-0.048 -2.1782,0.3274 -1.4672,0.0136 -3.1904,-0.1424 -1.3538,0.0212 -1.7902,0.2618 -1.4128,0.1226 -0.8978,0.0104 -0.9158,-0.0774 -0.9032,0.1554 -2.2866,0.0668 -2.6482,0.002 -1.9686,-0.0718 -1.8972,0.0582 -0.4682,-0.0402 -1.7702,0.113 -2.5808,-0.1178 -0.9488,-0.136 -0.4896,0.0504 -2.698,-0.0604 -3.1676,0.0996 -2.5246,-0.0458 -2.3346,0.2284 -0.4424,-0.05 -2.9104,0.0178 -0.9618,0.099 -0.5136,-0.1082 -0.97,-0.067 -2.7092,0.0304 -1.472,0.1202 -4.5998,-0.3478 -0.865,0.055 -2.965,-0.0616 -3.8054,-0.421 -1.044,0.021 -1.5004,0.1606 -4.004,-0.012 -2.2254,0.0932 -1.1266,-0.0624 -0.3924,0.1068 -0.4052,0.0122 -1.931,-0.1086 -2.3118,-0.0256 -2.3636,0.2736 -0.5888,-0.0186 -0.3786,0.0602 -0.2416,-0.1212 -0.1052,0.0624 -0.2472,-0.0244 0.1292,0.0348 0.1292,-0.0832 0.2556,0.037"
     id="path905" />
  <path
     fill="none"
     stroke="#000000"
     stroke-width="1.2"
     stroke-linecap="butt"
     stroke-linejoin="round"
     d="m 129.63268,104.15998 0.1114,0.0608 0.2418,0.9904 0.029,0.7306 -0.275,3.951 -0.078,2.108 0.0468,4.58 -0.2058,4.358 0.0184,0.4 0.0612,0.164 0.0116,-0.07"
     id="path909" />
  <path
     fill="none"
     stroke="#000000"
     stroke-width="1.2"
     stroke-linecap="butt"
     stroke-linejoin="round"
     d="m 127.34068,107.16478 -0.2362,0.4872 0.431,-0.1604 1.2418,-1.238 0.87,-1.0084 0.2536,-0.3764 0.3126,-1.0128 0.1382,-0.1922 0.1528,-0.057 0.2348,0.1118 0.3712,0.392 1.2664,2.817 0.1646,0.2504 0.6288,0.5002"
     id="path913" />
  <path
     fill="none"
     stroke="#000000"
     stroke-width="1.2"
     stroke-linecap="butt"
     stroke-linejoin="round"
     d="m 124.01768,127.98678 -0.13,0.222 -0.17,0.128 0.046,0.048 0.172,-0.044 1.244,0.306 1.3206,-0.064 1.0738,-0.22"
     id="path917" />
  <path
     fill="none"
     stroke="#000000"
     stroke-width="1.2"
     stroke-linecap="butt"
     stroke-linejoin="round"
     d="m 134.33128,130.76478 0.064,0.024 0.0462,0.172 -0.0598,0.302 0.1234,0.046 0.0442,-0.066 -0.076,-0.15 -0.2068,-1.394 -0.5452,-1.502 -0.3792,-0.506 -0.481,-0.848 -0.658,-0.564 -0.6158,0.03 -0.6168,0.502 -0.7768,0.922 -0.2314,0.366 -0.4846,1.25 -0.069,0.314 0.0546,0.548 0.0956,0.272 0.2468,0.316 0.1724,-0.016 0.8582,-0.332 0.414,-0.228 0.4474,-0.322 1.5622,-1.424 1.7974,-2.08 0.4706,-0.394"
     id="path921" />
  <path
     fill="none"
     stroke="#000000"
     stroke-width="1.2"
     stroke-linecap="butt"
     stroke-linejoin="round"
     d="m 270.54008,51.547194 0.2478,-0.3794 -0.003,0.1216 0.2082,0.087 1.9638,-0.01 2.5792,-0.314 1.1794,-0.064 3.7078,0.2716 1.8346,0.0286 0.5434,-0.015 1.7482,-0.2614 1.1332,-0.0292 1.8182,0.1482 2.4454,0.3218 4.23,-0.3138 4.0606,0.2526 1.2126,0.1578 1.0322,0.0456 2.778,-0.3362 0.5006,0.006 0.8544,0.0606 1.1514,0.3394"
     id="path925" />
  <path
     fill="none"
     stroke="#000000"
     stroke-width="1.2"
     stroke-linecap="butt"
     stroke-linejoin="round"
     d="m 301.68068,47.829994 2.4816,1.811 0.9102,0.7336 1.7644,0.876 -0.008,0.0476 -0.12354,-0.0466 -0.28258,0.604 -0.25124,0.307 -0.4133,0.327 -1.2876,0.7032 -2.4972,1.105 -0.3264,0.2214 -0.317,0.497 0.0206,0.2684 0.302,0.6128"
     id="path929" />
  <path
     fill="none"
     stroke="#000000"
     stroke-width="1.2"
     stroke-linecap="butt"
     stroke-linejoin="round"
     d="m 61.949682,53.789794 -0.026,0.0986 -0.412,-0.005 -0.6,0.2154 -0.704,0.0602 -1.68,-0.0828 -2.104,0.3606 -1.55,0.054 -1.584,-0.1866 -1.834,-0.0228 -1.864,0.2854 -2.412,0.115 -2.272,0.2592 -4.486,0.1716 -3.184,0.4148 -4.178,-0.0712 -2.234,0.216 -0.95,-0.0416 -2.638,0.146 -3.578,0.0994 -4.608,-0.1742 -2.474,-0.191 -1.2,0.0524 -1.714,-0.0432 -2.307996,0.2346 -4.6879995,-0.2842 -0.44,0.009 -1.486,0.2438 -3.254,0.0938 -1.45600001,-0.077"
     id="path933" />
  <path
     fill="none"
     stroke="#000000"
     stroke-width="1.2"
     stroke-linecap="butt"
     stroke-linejoin="round"
     d="m 36.253682,55.703194 -0.268,0.157 0.082,-0.0888 -0.346,-0.0438 -0.158,0.1104 0.002,0.1936 0.298,0.4834 0.194,0.129 0.524,-0.7364 0.266,-0.6474 0.01,-0.3236 -0.2,-0.46 -0.322,-0.2482 -0.286,-0.0288 -0.556,0.1914 -0.296,0.2514 -0.396,0.517 -0.084,0.3708 0.042,0.3234 0.214,0.6066 0.456,0.3432 0.638,0.0738 0.338,-0.1412 0.328,-0.2424 0.566,-0.5882 0.302,-0.543 0.014,-0.1926 -0.328,-0.442 -0.356,-0.3016 -0.558,-0.2016 -0.69,0.1226 -0.664,0.3942 -0.304,0.6356 -0.04,0.5584 0.212,0.5424 0.438,0.5542 0.598,0.3624 0.384,0.0912 0.326,-0.059 0.64,-0.5586 0.468,-0.5766 0.198,-0.5628 -0.046,-0.779 -0.144,-0.2948 -0.496,-0.4206 -0.562,-0.3006 -0.63,-0.206 -0.374,-0.0542 -0.35,-0.006 -0.54,0.098 -0.206,0.1138 -0.588,0.572 -0.12,0.2128 -0.064,0.5134 0.044,0.4756 0.368,0.6944 0.626,0.5294 0.636,0.3358 0.408,0.0736 0.58,-0.215 0.282,-0.2788 0.222,-0.372 0.476,-1.0334 0.012,-0.3572 -0.072,-0.3024 -0.206,-0.281 -0.32,-0.2704 -0.69,-0.0982 -1.084,0.2758 -0.462,0.3186 -0.224,0.2358 -0.292,0.4622 -0.062,0.2408 -0.026,0.5316 0.056,0.4344 0.284,0.613 0.538,0.4302 0.25,0.112 0.49,0.0846 0.254,-0.0184 0.822,-0.3524 0.522,-0.506 0.898,-0.6114 0.584,-0.678 0.028,-0.3898 -0.1,-0.1988 -0.574,-0.595 -0.566,-0.4458 -0.666,-0.321 -0.68,-0.1366 -0.68,0.0874 -0.586,0.3514 -0.142,0.263 -0.064,0.329 0.018,0.4252 0.12,0.45 -0.902,-0.4912"
     id="path937" />
  <path
     style="stroke-width:0.2"
     fill="#000000"
     d="m 56.517682,58.972594 c 0,0 0,0 0,0 0.066,0.0596 0.112,0.1568 0.198,0.1786 0.174,0.0438 0.418,0.1408 0.538,0.007 0.358,-0.4024 0.328,-1.0844 0.734,-1.4384 0.906,-0.789 2.06,-1.2334 3.07,-1.881 0.282,-0.1802 0.546,-0.3866 0.802,-0.6008 0.152,-0.127 0.306,-0.2576 0.42,-0.4202 0.202,-0.2902 0.364,-0.6066 0.514,-0.926 0.03,-0.064 0.038,-0.1424 0.022,-0.2112 -0.03,-0.1264 -0.05,-0.284 -0.158,-0.3568 -0.522,-0.3544 -1.132,-0.5606 -1.674,-0.8854 -0.618,-0.3714 -1.216,-0.7778 -1.8,-1.2004 -0.392,-0.283 -0.736,-0.6256 -1.124,-0.914 -0.164,-0.1222 -0.342,-0.2298 -0.528,-0.3154 -0.064,-0.0298 -0.14,-0.0248 -0.212,-0.0246 -0.134,6e-4 -0.28,-0.0272 -0.404,0.0268 -0.114,0.0498 -0.238,0.1426 -0.264,0.265 -0.07,0.3316 -0.07,0.6842 -0.002,1.016 0.04,0.2008 0.186,0.3686 0.316,0.5272 0.184,0.2264 0.384,0.4476 0.62,0.6198 0.508,0.3708 1.05,0.694 1.6,1.0006 0.578,0.3222 1.46,0.3028 1.778,0.8836 0.184,0.3374 -0.582,0.5056 -0.904,0.7154 -0.806,0.5248 -1.684,0.9368 -2.474,1.4848 -0.298,0.206 -0.556,0.4732 -0.77,0.7644 -0.17,0.232 -0.29,0.5046 -0.368,0.7816 -0.054,0.1962 -0.038,0.4078 -0.022,0.611"
     id="path941" />
  <path
     fill="none"
     stroke="#bfbfbf"
     stroke-width="1.2"
     stroke-linecap="butt"
     stroke-linejoin="round"
     d="m 277.72988,40.474194 -0.8836,1.2328 -0.3036,0.5544 -0.1168,0.4428 -0.0264,0.4204 0.0884,0.8508 0.2672,0.6594 0.408,0.4428 0.557,0.2308 0.3194,0.0194 1.1676,-0.0612 0.372,-0.1108 0.7704,-0.404 0.1828,-0.1732 0.2552,-0.4262 0.0578,-0.2714 v -0.3132 l -0.2296,-1.0668 -0.3656,-0.873 -0.2462,-0.4296 -0.2944,-0.3378 -1.0224,-0.8336 -0.3234,-0.1772 -0.2808,-0.0704 0.0232,0.0452 0.1726,0.0594 0.5494,-0.1048"
     id="path945" />
  <path
     fill="none"
     stroke="#bfbfbf"
     stroke-width="1.2"
     stroke-linecap="butt"
     stroke-linejoin="round"
     d="m 282.53928,40.172994 0.0876,-0.014 0.1314,0.1236 0.0992,0.6622 -0.086,3.0856 0.1776,1.1654 0.2058,0.3832 0.2542,0.2534 0.9562,0.2088 0.2844,-0.0742 0.6312,-0.3952 0.275,-0.3118 0.1908,-0.3256 0.2302,-0.8482 0.0918,-1.0824 -0.1948,-2.7886 0.0902,-1.203"
     id="path949" />
  <path
     fill="none"
     stroke="#bfbfbf"
     stroke-width="1.2"
     stroke-linecap="butt"
     stroke-linejoin="round"
     d="m 287.62808,33.997594 0.2954,1.164 0.2248,2.5474 0.122,5.5604 0.2356,1.0224 0.3914,1.0254"
     id="path953" />
  <path
     fill="none"
     stroke="#bfbfbf"
     stroke-width="1.2"
     stroke-linecap="butt"
     stroke-linejoin="round"
     d="m 286.39608,40.868794 0.1474,0.1256 0.261,0.009 0.577,-0.1984 1.7212,-0.361 1.0734,-0.4428 0.3102,0.0642 0.581,0.4808 0.2416,0.3544 0.2064,0.7862 0.0462,0.4984 0.007,2.4492 -0.2048,3.2598 -0.1568,1.4376 -0.1488,0.5046 0.008,-0.9346 0.123,-1.441 0.1082,-1.0012 0.202,-1.0332 0.5532,-2.1324 1.0842,-3.4566 0.4038,-0.8858 0.3952,-0.4884 0.2758,-0.1622 0.1968,0.0272 0.1464,0.1556 0.0612,0.2648 -0.2048,2.0506 -0.1566,0.89 -0.4094,0.9612 -0.4634,0.5876 -0.5408,0.1386 -0.2174,-0.11 -0.121,-0.223 -0.008,-0.1624 0.233,-0.5256"
     id="path957" />
  <path
     fill="none"
     stroke="#bfbfbf"
     stroke-width="1.2"
     stroke-linecap="butt"
     stroke-linejoin="round"
     d="m 296.43108,40.142994 0.1134,0.118 0.138,0.4972 -0.0956,2.7986 0.0878,0.2208 0.1592,0.1364 0.381,0.0836 0.2182,-0.0412 0.9312,-0.5654 0.4874,-0.6358 0.4364,-0.8184 0.289,-0.8678 0.1408,-0.7446 -0.04,-0.6174 -0.093,-0.3488"
     id="path961" />
  <path
     fill="none"
     stroke="#bfbfbf"
     stroke-width="1.2"
     stroke-linecap="butt"
     stroke-linejoin="round"
     d="m 303.52508,33.558594 -0.1342,0.1898 -0.1842,0.5226 0.1224,2.7896 -0.056,0.9798 -0.7314,5.1444 0.0534,0.9162 0.1158,0.7334 0.0702,0.1328"
     id="path965" />
  <path
     fill="none"
     stroke="#bfbfbf"
     stroke-width="1.2"
     stroke-linecap="butt"
     stroke-linejoin="round"
     d="m 300.64108,38.428794 0.3298,0.0878 0.9348,0.0294 0.5122,-0.0304 1.1268,-0.197 1.2654,-0.371 3.29666,-1.1468"
     id="path969" />
  <path
     fill="none"
     stroke="#bfbfbf"
     stroke-width="1.2"
     stroke-linecap="butt"
     stroke-linejoin="round"
     d="m 2.2936865,46.099194 -0.136,-0.4458 0.312,1.9548 0.34,3.1232 0.064,-0.1412 -0.032,-0.1326"
     id="path973" />
  <path
     fill="none"
     stroke="#bfbfbf"
     stroke-width="1.2"
     stroke-linecap="butt"
     stroke-linejoin="round"
     d="m 1.6376865,42.036794 -0.116,0.3756 0.01,0.0462 0.08,-0.103"
     id="path977" />
  <path
     fill="none"
     stroke="#bfbfbf"
     stroke-width="1.2"
     stroke-linecap="butt"
     stroke-linejoin="round"
     d="m 5.1516865,44.144194 -0.09,-0.0176 v 0.2238 l 0.232,1.4694 0.548,2.9348 0.186,0.5756 0.104,-0.006 0.318,-2.4592 0.256,-1.33 0.198,-0.6894 0.45,-1.1914 0.282,-0.2644 0.272,-0.114 0.26,0.009 0.236,0.1594 0.184,0.2782 0.332,0.8888 0.158,0.6038 0.132,1.3554 -0.068,2.165 -0.074,0.5148 0.204,-0.7094"
     id="path981" />
  <path
     fill="none"
     stroke="#bfbfbf"
     stroke-width="1.2"
     stroke-linecap="butt"
     stroke-linejoin="round"
     d="m 12.845682,45.553994 0.024,4.3412 -0.054,1.7912 0.06,1.3214 0.044,0.3098 0.066,0.0808 0.136,-0.0854 0.034,-0.284 -0.3,-1.5504 -0.094,-1.7168 0.018,-0.954 0.304,-3.0396 0.32,-1.9374 0.204,-0.5062 0.276,-0.19 0.32,-0.0366 0.268,0.1024 0.17,0.1868 0.482,1.1256 0.186,1.1422 -0.024,1.163 -0.23,1.0752 -0.642,0.982 -0.87,0.4514 -0.51,0.0982 -0.164,-0.0554 -0.09,-0.3556 0.276,-0.692"
     id="path985" />
  <path
     fill="none"
     stroke="#bfbfbf"
     stroke-width="1.2"
     stroke-linecap="butt"
     stroke-linejoin="round"
     d="m 17.987682,44.084394 0.136,0.2854 0.136,0.6368 0.278,2.8864 0.254,0.9754 0.14,0.3232 0.204,0.1986 0.204,0.0886 0.436,-0.017 0.232,-0.083 0.206,-0.1616 0.41,-0.3718 0.206,-0.3154 0.212,-0.4004 0.404,-1.2674 0.086,-0.6278 0.034,-1.2382 -0.132,-1.4492 0.082,-0.559 0.034,-0.1018 0.042,0.1472"
     id="path989" />
  <path
     fill="none"
     stroke="#bfbfbf"
     stroke-width="1.2"
     stroke-linecap="butt"
     stroke-linejoin="round"
     d="m 25.593682,37.315594 v 0.664 l 0.572,5.2118 0.236,5.1868 0.214,1.0792 0.058,0.1146 0.102,0.007 -0.034,-0.4624"
     id="path993" />
  <path
     fill="none"
     stroke="#bfbfbf"
     stroke-width="1.2"
     stroke-linecap="butt"
     stroke-linejoin="round"
     d="m 24.087682,43.603594 0.066,-0.248 0.2,-0.214 0.832,0.2094 0.72,-0.0908 2.542,-1.25"
     id="path997" />
  <path
     fill="none"
     stroke="#000000"
     stroke-width="1.2"
     stroke-linecap="butt"
     stroke-linejoin="round"
     d="m 212.95708,15.984394 0.0918,0.6368 0.0106,0.7556 -0.1978,2.1296 -0.048,3.3884 -0.1564,1.965 -0.1604,4.8246 0.0106,5.8788 0.1754,1.7482 -0.1076,1.6084 -0.0586,-0.3196"
     id="path1005" />
  <path
     fill="none"
     stroke="#000000"
     stroke-width="1.2"
     stroke-linecap="butt"
     stroke-linejoin="round"
     d="m 209.68648,36.207594 -0.2332,-0.0154 0.0416,-0.0816 0.0314,0.1238 v -0.0846 l 0.4518,0.5598 0.8604,1.2598 1.0248,1.8368 0.6306,0.8188 -0.003,-0.1354 0.0244,-0.0354 0.0462,0.0538 0.154,-0.2152 0.7362,-1.5622 1.109,-1.9982 0.5446,-0.7592 0.7754,-0.7364"
     id="path1009" />
  <path
     fill="none"
     stroke="#000000"
     stroke-width="1.2"
     stroke-linecap="butt"
     stroke-linejoin="round"
     d="m 206.77948,2.9333944 -0.076,0.481 0.0172,-0.1374 0.0542,0.0424 0.1296,0.804 0.0262,1.6872 -0.2718,3.3148 0.0442,0.728 0.1938,0.5757996"
     id="path1013" />
  <path
     fill="none"
     stroke="#000000"
     stroke-width="1.2"
     stroke-linecap="butt"
     stroke-linejoin="round"
     d="m 210.47688,6.5253944 0.9464,0.1168 0.864,-0.0728 1.7398,-0.2004 1.1532,-0.2636 1.6698,-0.2424"
     id="path1017" />
  <path
     fill="none"
     stroke="#000000"
     stroke-width="1.2"
     stroke-linecap="butt"
     stroke-linejoin="round"
     d="m 223.79368,9.9237944 0.188,0.1319996 -0.1176,-0.0334 -0.2774,-0.6017996 -1.0312,-3.5712 -0.3444,-0.6152 -0.2852,0.016 -0.3844,0.1744 -1.1102,1.0422 -0.2806,0.3336 -0.4154,0.7024 -0.1416,0.3366 -0.0742,0.3958 -0.002,0.9778 0.1352,0.4962 0.1264,0.1284 0.304,0.0746 0.1882,-0.0302 0.7962,-0.487 0.3532,-0.3536 1.4444,-1.8334 1.504,-2.4528"
     id="path1021" />
  <path
     fill="none"
     stroke="#000000"
     stroke-width="1.2"
     stroke-linecap="butt"
     stroke-linejoin="round"
     d="m 226.23548,1.4535944 0.1184,-0.0632 0.0114,-0.1806 0.2168,-0.24100004 0.3578,-0.258 0.3118,-0.1108 0.2102,0.118 0.2838,0.64760004 0.0334,0.3764 -0.144,0.8406 -0.2786,0.8168 -0.3374,0.6374 0.3266,-0.158 0.6762,-0.081 0.2908,0.1026 0.751,0.1142 0.2468,0.2572"
     id="path1025" />
  <path
     fill="none"
     stroke="#000000"
     stroke-width="1.2"
     stroke-linecap="butt"
     stroke-linejoin="round"
     d="m 215.43728,42.777794 -0.1054,0.1686 0.002,-0.1754 -0.6208,-0.0948 -1.5636,-0.3968 -0.7124,0.0962 -0.6752,0.2456 -0.6146,0.0916 -0.4868,-0.0942 -1.307,0.0716 -2.4476,1.3786 -0.4118,0.4448 -0.2802,0.4464 -0.9322,2.606 -0.7978,1.7514 -0.1194,0.4974 -0.0556,0.7744 0.0456,1.527 0.3008,1.1134 0.5258,1.292 0.7288,1.2638 1.1558,1.1014 1.048,0.7798 0.4536,0.2826 0.7474,0.219 1.989,-0.1364 1.1708,0.0308 0.5662,-0.0496 0.96,-0.2184 1.4806,-0.7816 0.5792,-0.4762 0.6852,-0.722 0.3048,-0.472 0.625,-1.444 0.4242,-1.3668 0.2486,-1.9164 0.1196,-2.1196 -0.0686,-0.6182 -0.3172,-1.1072 -0.4904,-0.8484 -0.8714,-0.7616 -0.24,-0.2844 -0.2976,-0.585 -0.248,-0.9714"
     id="path1029" />
  <path
     fill="none"
     stroke="#000000"
     stroke-width="1.2"
     stroke-linecap="butt"
     stroke-linejoin="round"
     d="m 207.17008,45.809994 -0.0196,-0.0914 0.4274,0.1952 0.3134,0.2268 1.021,1.0106 1.5046,1.665 1.5766,1.9584 0.7136,0.9412 1.1558,1.7138 1.0236,1.2368 1.4278,1.3244 0.203,0.1046 0.1284,-0.005"
     id="path1033" />
  <path
     fill="none"
     stroke="#000000"
     stroke-width="1.2"
     stroke-linecap="butt"
     stroke-linejoin="round"
     d="m 206.46868,54.439794 -0.1256,0.1168 0.2086,-0.304 3.5828,-3.9756 1.7016,-1.7638 1.8802,-1.7864 1.8834,-1.5076"
     id="path1037" />
  <path
     fill="none"
     stroke="#000000"
     stroke-width="1.2"
     stroke-linecap="butt"
     stroke-linejoin="round"
     d="m 135.45108,36.788794 -0.09,-0.0584 0.065,0.0686 -0.0354,2.4156 0.2504,4.255 0.0566,4.0356 0.1736,2.7428 -0.0408,4.2138 -0.0648,0.9672 0.029,4.1114 -0.1176,2.7136 0.0102,1.0598 0.2054,1.6724 -0.0648,0.154 -0.1178,-0.1198"
     id="path1049" />
  <path
     fill="none"
     stroke="#000000"
     stroke-width="1.2"
     stroke-linecap="butt"
     stroke-linejoin="round"
     d="m 142.17748,45.580394 0.2334,1.7238 0.1724,2.3452 -0.012,1.6808 -0.2088,2.3704 0.0158,0.5622 0.177,0.9456"
     id="path1053" />
  <path
     fill="none"
     stroke="#000000"
     stroke-width="1.2"
     stroke-linecap="butt"
     stroke-linejoin="round"
     d="m 141.55268,45.662394 0.205,-0.2834 0.4026,-0.2932 0.6998,-0.2422 0.8844,-0.08 0.495,0.0402 0.5234,0.1292 0.5692,0.2152 0.5674,0.321 0.9852,0.7582 0.5776,0.868 0.175,0.5254 0.103,0.5278 0.006,0.5608 -0.1142,1.1756 -0.1376,0.5768 -0.3962,1.1198 -0.5426,0.9386 -0.3596,0.403 -1.132,0.9784 -1.3762,0.9004 0.0164,0.3122 0.2154,-0.0312 0.2014,-0.1748"
     id="path1057" />
  <path
     fill="none"
     stroke="#000000"
     stroke-width="1.2"
     stroke-linecap="butt"
     stroke-linejoin="round"
     d="m 150.28208,50.121794 -0.1432,0.1626 0.1732,-0.0574 0.2064,0.1134 0.2966,0.0536 0.4134,-0.0548 0.5724,-0.2252 0.7004,-0.5224 0.2736,-0.4984 -0.0164,-0.2982 -0.2564,-0.4522 -0.3294,-0.3118 -0.2228,-0.1296 -0.7546,10e-4 -0.4592,0.2932 -0.4012,0.48 -0.2784,0.7034 -0.165,0.8284 0.0698,1.141 0.1942,0.9726 0.1686,0.3192 0.3922,0.3574 0.202,0.1006 0.3932,0.017 0.5622,-0.1336 0.298,-0.1442 0.6168,-0.367 0.5582,-0.4896"
     id="path1061" />
  <path
     fill="none"
     stroke="#000000"
     stroke-width="1.2"
     stroke-linecap="butt"
     stroke-linejoin="round"
     d="m 155.35648,44.253994 -0.1786,0.5052 -0.1378,0.7 0.4584,4.865 0.007,3.3322 0.0828,0.3462 0.0784,0.0404"
     id="path1065" />
  <path
     fill="none"
     stroke="#000000"
     stroke-width="1.2"
     stroke-linecap="butt"
     stroke-linejoin="round"
     d="m 160.37668,48.537994 -0.6372,0.0536 -0.788,0.483 -0.655,0.7036 -0.427,0.6718 -0.3426,1.0416 0.0678,0.6576 0.2184,0.5554 0.3758,0.2766 0.262,0.1102 0.2802,0.0594 0.2826,-0.0436 0.62,-0.2592 0.907,-0.7976 0.1694,-0.2926 0.2112,-0.7216 0.0944,-0.7734 -0.008,-0.7836 -0.0994,-0.6254 -0.0924,-0.2264 -0.084,0.1098 -0.0194,0.5102 0.1706,1.5124 0.3888,1.3434 0.3494,0.488 0.3576,0.1756 0.48,0.0732 0.259,-0.0414 0.2798,-0.1546"
     id="path1069" />
  <path
     fill="none"
     stroke="#000000"
     stroke-width="1.2"
     stroke-linecap="butt"
     stroke-linejoin="round"
     d="m 164.30088,48.599394 0.3492,0.7094 0.6956,1.0754 0.2976,0.7432 0.711,1.3238"
     id="path1073" />
  <path
     fill="none"
     stroke="#000000"
     stroke-width="1.2"
     stroke-linecap="butt"
     stroke-linejoin="round"
     d="m 165.59008,57.656794 -0.003,0.1342 -0.0876,0.119 0.0204,-0.799 0.348,-1.8434 0.6432,-2.8512 1.1748,-4.2808 0.3674,-0.9516 0.4662,-0.6506"
     id="path1077" />
  <path
     fill="none"
     stroke="#000000"
     stroke-width="1.2"
     stroke-linecap="butt"
     stroke-linejoin="round"
     d="m 174.25228,36.669194 0.076,-0.0744 -0.009,-0.085 -0.2082,0.1646 -1.534,0.14 -2.3146,0.123 -4.4156,0.108 -3.6502,0.2674 -1.7234,0.0378 -2.4152,-0.0752 -0.4862,-0.084 -0.5188,-0.005 -0.4718,0.0972 -2.5636,0.1708 -1.5078,-0.0874 -3.2876,-0.3812 -2.1076,-0.0384 -2.4124,0.0562 -0.3146,-0.0194 -0.5328,-0.1708 -0.8946,-0.0688 -0.224,0.007 -0.2108,0.1002 -1.1406,0.2394 -0.3236,0.122 -0.9796,0.105 -0.4268,0.0222 -0.6954,-0.1094 -0.564,0.0324 -0.6372,-0.1352 -0.1506,-0.0802 0.2846,-0.0294"
     id="path1081" />
  <path
     fill="none"
     stroke="#000000"
     stroke-width="1.2"
     stroke-linecap="butt"
     stroke-linejoin="round"
     d="m 174.34448,64.940194 -0.3818,-0.0456 -0.757,0.0364 -1.4262,0.2052 -1.53,0.0374 -3.2176,-0.1216 -1.1426,-0.122 -3.462,0.1312 -0.7634,0.0868 -1.1684,-0.0762 -1.0392,0.135 -1.9756,0.0208 -4.6186,-0.0486 -2.9312,-0.2472 -1.7324,0.0966 -1.019,0.2002 -1.0706,0.1188 -0.6424,-0.0818 -0.2698,0.0276 -2.008,-0.264 -0.967,0.0286 -2.6262,0.325 -0.8552,-0.052 -1.5332,0.099 -1.0166,-0.0898 -0.7454,0.0666"
     id="path1085" />
  <path
     fill="none"
     stroke="#000000"
     stroke-width="1.2"
     stroke-linecap="butt"
     stroke-linejoin="round"
     d="m 174.85328,36.370994 -0.1244,0.4968 0.0568,-0.2874 0.1482,-0.0362 0.085,0.2012 0.0712,0.6236 0.016,5.7218 0.1806,3.9428 0.2804,2.6686 0.002,1.7954 -0.1176,1.945 0.1382,2.7846 0.2512,2.7554 0.0306,2.2026 0.2358,1.926 0.0198,1.2546 0.0818,0.3662 0.0238,-0.2894"
     id="path1089" />
  <path
     fill="none"
     stroke="#000000"
     stroke-width="1.2"
     stroke-linecap="butt"
     stroke-linejoin="round"
     d="m 65.227682,38.492194 -0.09,-0.0586 0.064,0.0686 -0.036,2.4156 0.25,4.2552 0.058,4.0356 0.174,2.7426 -0.042,4.2138 -0.064,0.9674 0.028,4.1114 -0.116,2.7136 0.01,1.0598 0.204,1.6724 -0.064,0.154 -0.118,-0.1198"
     id="path1097" />
  <path
     fill="none"
     stroke="#000000"
     stroke-width="1.2"
     stroke-linecap="butt"
     stroke-linejoin="round"
     d="m 104.02768,38.372594 0.076,-0.0746 -0.01,-0.0848 -0.208,0.1646 -1.534,0.1398 -2.314,0.1232 -4.415998,0.108 -3.65,0.2674 -1.724,0.0378 -2.414,-0.0754 -0.486,-0.0838 -0.52,-0.005 -0.472,0.097 -2.562,0.171 -1.508,-0.0874 -3.288,-0.3812 -2.108,-0.0384 -2.412,0.0562 -0.314,-0.0196 -0.534,-0.1706 -0.894,-0.0688 -0.224,0.007 -0.21,0.1002 -1.142,0.2394 -0.324,0.1218 -0.978,0.1052 -0.428,0.0222 -0.694,-0.1094 -0.564,0.0324 -0.638,-0.1352 -0.15,-0.0804 0.284,-0.0294"
     id="path1101" />
  <path
     fill="none"
     stroke="#000000"
     stroke-width="1.2"
     stroke-linecap="butt"
     stroke-linejoin="round"
     d="m 104.11968,66.643594 -0.382,-0.0456 -0.756,0.0362 -1.426,0.2054 -1.53,0.0374 -3.217998,-0.1216 -1.142,-0.122 -3.462,0.1312 -0.764,0.0868 -1.168,-0.0764 -1.04,0.1352 -1.976,0.0208 -4.618,-0.0488 -2.932,-0.2472 -1.732,0.0968 -1.018,0.2002 -1.072,0.1188 -0.642,-0.0818 -0.27,0.0274 -2.008,-0.264 -0.966,0.0288 -2.626,0.325 -0.856,-0.052 -1.532,0.0988 -1.018,-0.0896 -0.746,0.0666"
     id="path1105" />
  <path
     fill="none"
     stroke="#000000"
     stroke-width="1.2"
     stroke-linecap="butt"
     stroke-linejoin="round"
     d="m 104.62968,38.074394 -0.126,0.4966 0.058,-0.2872 0.148,-0.0364 0.084,0.2014 0.072,0.6234 0.016,5.722 0.18,3.9426 0.282,2.6688 0.002,1.7954 -0.118,1.945 0.138,2.7844 0.25,2.7554 0.032,2.2028 0.236,1.926 0.02,1.2546 0.08,0.366 0.024,-0.2892"
     id="path1109" />
  <path
     fill="none"
     stroke="#000000"
     stroke-width="1.2"
     stroke-linecap="butt"
     stroke-linejoin="round"
     d="m 132.70868,51.903194 -0.3302,-0.067 -0.9682,0.0338 -2.8602,-0.2026 -3.7744,-0.0588 -2.124,-0.23 -1.752,0.0926 -1.184,-0.0412 -0.328,0.0618 -2.238,-0.2764 -0.888,0.1058 -0.832,0.006 -2.442,-0.1198 -0.598,-0.0858 -0.31,0.044 -1.096,-0.063 -0.974,0.1298 -1.818,0.0798 -0.106,-0.005 0.128,-0.0448 -0.29,-0.138 -0.382,-0.1148"
     id="path1117" />
  <path
     fill="none"
     stroke="#000000"
     stroke-width="1.2"
     stroke-linecap="butt"
     stroke-linejoin="round"
     d="m 129.37248,48.502794 1.0686,0.9556 3.6778,2.5938 -0.2074,-0.1156 -0.1152,0.2064 -0.6346,0.7104 -1.7912,1.4852 -0.637,0.444 -1.8788,0.9612 -0.5458,0.4412"
     id="path1121" />
  <path
     fill="none"
     stroke="#000000"
     stroke-width="1.2"
     stroke-linecap="butt"
     stroke-linejoin="round"
     d="m 79.109682,48.450194 -0.068,-1.0126 -0.16,-0.3786 -0.224,-0.3144 -0.144,-0.1022 -0.458,-0.1556 -0.276,0.003 -0.298,0.0898 -0.81,0.4756 -0.95,0.9188 -1.026,1.56 -0.866,1.6968 -0.296,0.8576 -0.172,0.9132 -0.038,0.906 0.044,0.8586 0.17,0.8108 0.244,0.7396 0.286,0.551 0.312,0.4626 0.372,0.3542 0.384,0.1472 0.398,0.008 1.33,-0.2284 0.73,-0.3568 0.58,-0.38 0.2,-0.2206 0.13,-0.273"
     id="path1125" />
  <path
     fill="none"
     stroke="#000000"
     stroke-width="1.2"
     stroke-linecap="butt"
     stroke-linejoin="round"
     d="m 82.005682,52.681394 -0.866,1.0734 -0.348,0.7562 -0.08,0.7664 0.04,0.3058 0.106,0.2304 0.654,0.6162 0.742,0.3572 0.554,-0.0338 0.352,-0.1566 0.288,-0.3716 0.12,-0.0664 0.09,-0.2132 0.058,-1.0042 -0.17,-0.5602 -0.174,-0.3426 -0.246,-0.2358 -0.472,-0.26 -0.252,-0.0404 -0.858,0.1018 0.226,-0.1256"
     id="path1129" />
  <path
     fill="none"
     stroke="#000000"
     stroke-width="1.2"
     stroke-linecap="butt"
     stroke-linejoin="round"
     d="m 84.893682,53.730394 0.71,2.3334 0.294,-0.9384 0.452,-0.6502 0.634,-0.3022 0.31,0.0296 0.286,0.1822 0.112,0.146 0.154,0.5312 0.106,1.477 0.558,-1.6482 0.402,-0.8684 0.296,-0.2876 0.316,-0.1802 0.386,-0.1116 0.254,0.0244 0.568,0.4914 0.106,0.186 0.1,0.4986 0.026,1.4484"
     id="path1133" />
  <path
     fill="none"
     stroke="#000000"
     stroke-width="1.2"
     stroke-linecap="butt"
     stroke-linejoin="round"
     d="m 92.695682,47.970394 -0.018,1.3484 0.232,1.3114 0.258,3.2956 0.058,3.0164 0.202,0.2178"
     id="path1137" />
  <path
     fill="none"
     stroke="#000000"
     stroke-width="1.2"
     stroke-linecap="butt"
     stroke-linejoin="round"
     d="m 93.273682,53.822594 0.552,-0.1236 1.096,-0.4852 1.614,-0.473 0.442,-0.0538 0.644,0.0512 0.186,0.1128 0.098,0.151 -0.018,0.4678 -0.148,0.7228 -0.73,1.1802 -0.372,0.4246 -0.854,0.7862 -0.438,0.3278 -0.736,0.4172 -0.328,0.1214 0.126,-0.1466 0.602,-0.3324"
     id="path1141" />
</svg>
