<?xml version="1.0" encoding="UTF-8"?>
<svg width="316.37" height="144.16" version="1.2" viewBox="0 0 316.36685 144.15827" xmlns="http://www.w3.org/2000/svg" xmlns:cc="http://creativecommons.org/ns#" xmlns:dc="http://purl.org/dc/elements/1.1/" xmlns:rdf="http://www.w3.org/1999/02/22-rdf-syntax-ns#">
<metadata>
<rdf:RDF>
<cc:Work rdf:about="">
<dc:format>image/svg+xml</dc:format>
<dc:type rdf:resource="http://purl.org/dc/dcmitype/StillImage"/>
</cc:Work>
</rdf:RDF>
</metadata>
<title>reverb</title>
<path d="m12.245 0.14875 0.21633 0.70236-0.02245 0.094398-0.08572-0.054502-0.09592 0.19561-0.15511 0.64647 0.04285 0.63646 0.22654 0.59503 0.18368 0.83248-0.10204 1.9359 0.05102 0.96025 0.84696 4.1081 0.10408 1.6294-0.0102 1.4692 0.68164 3.2362 0.09184 1.1392-0.10204 1.2181-0.2 1.0274-0.12449 1.1782-0.01224 1.8636 0.08775 1.5978-0.30817 3.1894 0.16735 3.6523 0.47552 3.7691 0.05102 0.91437-0.01225 0.87948-0.1898 2.1371 0.10612 2.498-0.06531 1.8223 0.04285 2.2689-0.07143 1.8246 0.08163 2.4377 0.02653 4.3882 0.13674 1.4696 0.31021 2.1791 0.23674 3.376 0.15714 1.3967 0.45715 2.8878 0.31021 5.1121 0.62654 6.2271 0.10817 2.7164 0.27143 2.5052 0.03469 1.2964-0.08776 2.1685 0.13062 1.2988 0.32245 1.6754 0.22245 1.725 0.04082 4.9848 0.07346 1.31 0.33062 2.694 0.03674 2.344 0.18776 2.3538 0.35307 2.1855 0.30409 1.297 0.17347 1.3559 0.07143 2.0437 0.11633 1.0371 0.65715 4.1596 0.62858 6.1547 0.28368 1.5779 0.26531 2.0409 0.0102 4.3445-0.06123 2.2606 0.24286 2.9404 0.03265 1.2415-0.06531 0.96345-0.09796 0.46574-0.8143 3.1364 0.04694 1.653-0.05102 0.10845-0.05918 0.0237-0.08572-0.0473" fill="none" stroke="#000" stroke-linejoin="round" stroke-width="1.0106"/>
<path d="m0.13322 76.86 0.46395 0.10496 1.1305 0.0842 8.7866-0.2419 2.1962-0.2401 1.6269-0.076 7.4252-0.62054 3.3368-0.43602 3.4786-0.35305 2.1637-0.15194 7.3685-0.21871 15.14-1.4004 6.2359-0.68791 4.7266-0.29328 9.8726-0.2409 5.0244-0.27309 3.4563-0.06237 3.5961-0.15014 5.223-0.03938 7.2571 0.06457 11.264 0.27009 9.4552-0.02339 17.174-0.32207 9.7186 6e-3 7.9254-0.15374 7.6537-0.29828 5.6782 0.03799 9.1339-0.22291 3.7207-0.19672 3.6577-0.01759 11.187 0.01859 9.1446 0.26309 6.9722 0.30967 16.493 0.9628 8.4078 0.38804 6.272 0.40703 1.5416-0.01579 1.5322 0.10116 1.56 0.22511 7.3691 0.44741 18.889 0.68011 2.7825 0.2511 2.7604 0.12655 1.4291 0.0468 6.975-0.0538 6.7404 0.22571 6.4602 0.0916 12.938 0.0174 2.8392 0.2311" fill="none" stroke="#000" stroke-linejoin="round" stroke-width="1.2075"/>
<path d="m7.4751 100.61c0.116 0.1596 0.186 0.3668 0.348 0.479 0.09 0.063 0.232 0.0396 0.332-9e-3 0.14-0.0682 0.304-0.1676 0.338-0.319 0.378-1.6792 0.534-3.4016 0.876-5.0882 0.152-0.7528 0.38-1.4894 0.608-2.2226 0.376-1.2054 0.772-2.4058 1.206-3.5912 0.49-1.3312 1.106-2.6148 1.566-3.9558 0.794-2.3084 1.446-4.6632 2.198-6.9858 0.526-1.6258 1.066-3.2478 1.636-4.8584 0.164-0.4572 0.356-0.904 0.564-1.342 0.568-1.1952 1.214-2.3532 1.766-3.5562 0.528-1.1508 0.962-2.3422 1.472-3.5012 0.224-0.51 0.544-0.9784 0.728-1.5038 1.006-2.8594 1.868-5.7672 2.836-8.639 0.188-0.5608 0.406-1.112 0.636-1.6572 0.65-1.5408 1.31-3.0774 2-4.6 0.686-1.5108 1.442-2.988 2.128-4.4988 0.358-0.7894 0.688-1.5914 1.002-2.3996 0.576-1.4908 1.072-3.0132 1.668-4.496 0.76-1.8854 1.574-3.7492 2.402-5.6056 0.242-0.5418 0.52-1.0674 0.806-1.5866 0.45-0.8102 0.908-1.6162 1.4-2.3998 0.642-1.0174 1.314-2.0142 2.002-3.001 0.38-0.5474 0.78-1.0812 1.2-1.6 0.152-0.1904 0.36-0.333 0.514-0.524 0.114-0.1446 0.158-0.3418 0.286-0.476 1.092-1.1502 2.212-2.2734 3.362-3.3666 0.152-0.145 0.374-0.1998 0.532-0.3384 0.396-0.3478 0.728-0.7662 1.124-1.114 0.158-0.1386 0.37-0.2038 0.532-0.3384 0.242-0.2006 0.416-0.4756 0.668-0.6616 0.522-0.3856 1.074-0.736 1.646-1.0442 0.738-0.3986 1.474-0.8384 2.28-1.072 0.456-0.132 0.954-0.0624 1.424-6e-4 0.476 0.0626 0.918 0.2894 1.39 0.371 0.198 0.0342 0.406 0.0116 0.604-0.0268 0.14-0.0272 0.252-0.1572 0.394-0.1674 0.536-0.0384 1.082-0.0652 1.612 0.0232 0.928 0.155 1.838 0.4196 2.736 0.702 0.664 0.2092 1.31 0.4838 1.946 0.7698 0.562 0.2526 1.112 0.531 1.642 0.8444 0.288 0.1698 0.552 0.3804 0.802 0.6006 0.326 0.2858 0.596 0.632 0.924 0.914 0.14 0.1204 0.338 0.163 0.476 0.286 0.464 0.413 0.86 0.9006 1.324 1.314 0.158 0.1398 0.376 0.1978 0.532 0.3384 0.494 0.4444 0.918 0.9648 1.412 1.4092 0.156 0.1406 0.374 0.2 0.532 0.3384 0.362 0.3164 0.722 0.6422 1.02 1.019 0.71 0.9 1.398 1.824 2 2.8008 0.682 1.1068 1.238 2.2856 1.842 3.4368 0.198 0.3798 0.412 0.755 0.566 1.1552 0.724 1.8836 1.336 3.8102 2.068 5.6904 0.334 0.8528 0.782 1.6574 1.13 2.504 0.62 1.5086 1.25 3.0162 1.78 4.5594 0.558 1.6296 0.966 3.308 1.484 4.951 0.5 1.5854 1.022 3.1646 1.572 4.7334 0.852 2.4288 1.732 4.8478 2.634 7.2582 0.298 0.7946 0.7 1.55 0.966 2.3554 1.58 4.762 3.12 9.538 4.572 14.34 0.49 1.6158 0.804 3.2804 1.256 4.9072 0.168 0.6094 0.37 1.2108 0.606 1.7976 0.74403 1.8464 1.614 3.6412 2.332 5.4978 1.55 4.0096 2.89 8.098 4.468 12.096 0.384 0.9694 0.898 1.8834 1.408 2.792 1.026 1.8234 2.106 3.6166 3.2 5.3998 0.706 1.1508 1.452 2.2776 2.202 3.401 0.184 0.2774 0.382 0.5476 0.6 0.8 0.22 0.2568 0.496 0.4642 0.714 0.724 0.134 0.1612 0.196 0.376 0.338 0.5324 0.43 0.4782 0.89 0.9306 1.366 1.3626 0.212 0.1922 0.514 0.2822 0.696 0.505 0.954 1.18 1.69 2.531 2.686 3.676 1.226 1.41 2.588 2.6988 3.962 3.9666 0.372 0.3434 0.818 0.6004 1.256 0.8528 0.664 0.3812 1.348 0.7284 2.044 1.0446 1.368 0.62 2.742 1.2248 4.142 1.763 0.768 0.2946 1.54 0.6206 2.354 0.7322 0.928 0.1274 1.898 0.1934 2.81-0.0238 2.104-0.5012 4.112-1.3508 6.138-2.1082 1.286-0.4804 2.548-1.0276 3.794-1.6026 0.352-0.1626 0.676-0.384 0.994-0.6056 0.548-0.3808 1.082-0.7814 1.6-1.2 0.19-0.1536 0.332-0.3612 0.524-0.514 0.144-0.1156 0.342-0.1594 0.476-0.286 0.914-0.8576 1.802-1.7442 2.662-2.6566 0.194-0.2072 0.298-0.4898 0.496-0.6948 1.5238-1.5848 3.2158-3.0104 4.661-4.6676 0.851-0.9758 1.494-2.116 2.2004-3.201 1.1608-1.7824 2.3366-3.5578 3.4-5.3998 1.2998-2.2518 2.4308-4.5972 3.6852-6.8744 0.627-1.1378 1.3356-2.2298 1.9586-3.3698 0.418-0.765 0.8182-1.5418 1.1626-2.3424 1.068-2.4822 1.982-5.0294 3.073-7.5016 0.3898-0.8838 0.9522-1.6828 1.3652-2.5558 0.8972-1.8964 1.7626-3.809 2.5632-5.748 0.4664-1.1296 0.8556-2.2902 1.2358-3.4518 0.4316-1.3186 0.7694-2.6668 1.1986-3.9864 0.183-0.563 0.4028-1.1138 0.6366-1.6576 1.1788-2.7426 2.3702-5.48 3.6-8.2 0.413-0.9134 0.9208-1.7822 1.3274-2.6986 0.8654-1.9496 1.5542-3.978 2.487-5.8962 1.0294-2.1164 2.225-4.148 3.392-6.1916 0.4312-0.7552 0.912-1.4816 1.4004-2.201 0.0846-0.1244 0.2252-0.2028 0.314-0.324 0.6454-0.88 1.1994-1.8278 1.886-2.676 0.4506-0.5566 1.0514-0.9774 1.514-1.524 0.2748-0.3248 0.4386-0.73 0.686-1.076 0.5818-0.8134 1.1794-1.6158 1.8-2.4 0.1518-0.1918 0.3612-0.333 0.514-0.524 0.1156-0.1446 0.1676-0.3338 0.286-0.476 0.217-0.2604 0.497-0.4636 0.714-0.724 0.1186-0.1422 0.1656-0.3354 0.286-0.476 0.282-0.329 0.632-0.595 0.914-0.924 0.1206-0.1406 0.1622-0.3384 0.286-0.476 0.479-0.5322 1.0348-0.992 1.514-1.524 0.1408-0.1562 0.1948-0.379 0.3384-0.5324 0.8088-0.8638 1.6464-1.7016 2.5102-2.5102 0.172-0.161 0.4162-0.2304 0.589-0.3908 0.7822-0.7264 1.4642-1.5584 2.2674-2.2616 0.8226-0.7202 1.7156-1.3568 2.6-2 1.3166-0.9574 2.6402-1.9066 4.001-2.8004 0.5726-0.3762 1.1808-0.6974 1.7932-1.0052 0.8526-0.4286 1.6996-0.8814 2.5982-1.2024 2.0738-0.7404 4.1834-1.3806 6.3032-1.976 0.8612-0.2418 1.7448-0.4046 2.63-0.5328 0.3996-0.058 0.8104-0.0728 1.2112-0.0234 0.4782 0.059 0.9452 0.1974 1.4038 0.346 1.3254 0.4294 2.656 0.8524 3.943 1.3862 0.9624 0.3994 1.8816 0.899 2.7912 1.4074 0.2914 0.1628 0.5502 0.3806 0.8012 0.6006 0.2904 0.2544 0.5646 0.5286 0.819 0.819 0.22 0.251 0.4258 0.517 0.6008 0.8012 0.8926 1.4508 1.752 2.922 2.5996 4.3996 0.767 1.3372 1.5306 2.6772 2.2436 4.0438 0.3014 0.5782 0.5118 1.2002 0.797 1.7866 0.5956 1.2242 1.1706 2.4612 1.8446 3.644 1.182 2.0736 2.5782 4.0224 3.7198 6.1186 0.383 0.7032 0.5936 1.4888 0.8388 2.2512 0.52 1.6174 0.9282 3.2696 1.4556 4.8846 0.2182 0.6682 0.4824 1.3224 0.7796 1.9592 0.739 1.5838 1.5886 3.1144 2.3272 4.6984 0.2502 0.5364 0.4522 1.0954 0.637 1.6578 0.6372 1.9398 1.1926 3.9058 1.8284 5.8462 0.2424 0.7396 0.5008 1.4756 0.8056 2.1918 0.674 1.5836 1.4396 3.127 2.129 4.7042 0.2876 0.6578 0.58 1.3162 0.8014 1.9992 0.8698 2.6846 1.499 5.448 2.4702 8.0974 0.4994 1.3626 1.3174 2.587 1.9284 3.9032 0.3666 0.7898 0.7404 1.5816 1.0034 2.4114 0.4844 1.5278 0.849 3.0914 1.234 4.6472 0.3592 1.4512 0.6038 2.9306 0.9982 4.3726 0.2844 1.0404 0.6438 2.0606 1.0358 3.0654 0.2092 0.5358 0.4896 1.0418 0.7638 1.5474 0.5148 0.9488 1.0926 1.8626 1.6024 2.814 0.4126 0.7698 0.8376 1.5372 1.1638 2.3474 0.6198 1.5396 1.0774 3.1404 1.6698 4.6908 0.2338 0.6116 0.4654 1.232 0.8068 1.7904 0.5988 0.9794 1.3092 1.8868 2.0014 2.8024 0.1478 0.1956 0.377 0.3224 0.5148 0.5252 0.4366 0.643 0.8172 1.323 1.1996 1.9996 0.9126 1.6148 1.7514 3.2712 2.685 4.874 0.1808 0.3104 0.3844 0.6184 0.6528 0.8572 0.3472 0.3092 0.7638 0.533 1.1676 0.7634 0.678 0.3864 1.4208 0.659 2.0744 1.0852 0.8848 0.5772 1.645 1.3312 2.5256 1.9148 0.4736 0.3136 0.9644 0.656 1.5214 0.767 1.7154 0.3418 3.4734 0.4218 5.2158 0.5754 0.336 0.0296 0.6818 0.0442 1.0118-0.0268 0.5428-0.1164 1.063-0.3256 1.5794-0.5296 1.2642-0.4994 2.523-1.0156 3.7596-1.5798 0.9466-0.4318 1.8888-0.88 2.7864-1.4062 0.7022-0.4118 1.3522-0.9086 2.0008-1.4004 0.195-0.1478 0.3248-0.3718 0.524-0.514 0.7372-0.5266 1.5512-0.9424 2.276-1.486 0.6118-0.459 1.1226-1.0416 1.724-1.514 0.3344-0.2628 0.7358-0.4308 1.076-0.686 0.1958-0.1468 0.333-0.3612 0.524-0.514 0.1446-0.1156 0.3376-0.1632 0.476-0.286 0.4298-0.3816 0.8454-0.7824 1.219-1.219 0.397-0.4642 0.7044-0.999 1.086-1.476 0.1528-0.1912 0.3648-0.33 0.514-0.524 0.5188-0.6746 0.9672-1.4016 1.486-2.076 0.1492-0.194 0.3612-0.333 0.514-0.524 0.1156-0.1446 0.1608-0.3398 0.286-0.476 0.6256-0.681 1.336-1.281 1.9574-1.9656 0.07-0.0772 0.0966-0.193 0.0966-0.2972 0-0.234-0.022-0.4734-0.0964-0.6954-0.0278-0.0826-0.1092-0.161-0.1954-0.174-0.167-0.025-0.3688-0.0346-0.5016 0.0696-0.2608 0.205-0.3732 0.552-0.599 0.795-0.6626 0.7128-1.4386 1.3198-2.0616 2.0676-1.0476 1.257-1.884 2.6812-2.9384 3.9324-0.7184 0.8524-1.5214 1.6358-2.3666 2.3626-0.5748 0.4944-1.2738 0.8254-1.876 1.286-0.5328 0.4074-0.9874 0.9116-1.524 1.314-0.5326 0.3994-1.1344 0.699-1.676 1.086-0.393 0.2806-0.7244 0.6428-1.124 0.914-0.859 0.583-1.748 1.1216-2.645 1.6442-0.3668 0.2136-0.752 0.3954-1.1422 0.5624-1.4564 0.6236-2.9222 1.226-4.3958 1.8084-0.3068 0.1214-0.6166 0.2522-0.9428 0.3014-0.3992 0.0604-0.8082 0.0536-1.2108 0.0238-1.3032-0.0964-2.6024-0.2434-3.8994-0.4016-0.2344-0.0286-0.4712-0.0708-0.6902-0.1588-0.398-0.1596-0.7886-0.3462-1.1486-0.5792-0.56-0.3624-1.082-0.7818-1.6012-1.2006-0.1908-0.1538-0.315-0.3886-0.5252-0.5146-0.7968-0.4782-1.659-0.8384-2.474-1.285-0.211-0.1158-0.4152-0.2472-0.6008-0.4004-0.2054-0.1694-0.396-0.3584-0.5666-0.5626s-0.3206-0.4264-0.4528-0.6574c-1.1142-1.947-2.086-3.978-3.2852-5.874-0.869-1.3744-2.0088-2.562-2.9068-3.9176-0.2816-0.425-0.4334-0.924-0.6158-1.4002-0.647-1.69-1.1284-3.446-1.8712-5.096-1.06-2.3552-2.4148-4.5676-3.5272-6.8984-0.328-0.6872-0.592-1.4082-0.7882-2.144-0.4832-1.814-0.7988-3.669-1.2466-5.492-0.3212-1.3082-0.6428-2.6186-1.0594-3.8996-0.264-0.8116-0.6196-1.5918-0.9786-2.3662-0.6104-1.3166-1.429-2.5408-1.9286-3.9034-0.9704-2.6476-1.5988-5.4088-2.468-8.0912-0.222-0.685-0.515-1.3456-0.8034-2.0054-0.6892-1.577-1.4546-3.1206-2.129-4.704-0.3146-0.7388-0.5864-1.496-0.8366-2.2592-0.6282-1.917-1.1698-3.8616-1.7974-5.7788-0.1842-0.5626-0.4076-1.1122-0.637-1.6578-0.2544-0.6056-0.5226-1.206-0.8142-1.7946-0.4844-0.978-1.0472-1.9166-1.513-2.9038-0.3072-0.6512-0.5794-1.3208-0.8034-2.0052-0.588-1.7966-1.0294-3.6394-1.631-5.4314-0.2766-0.824-0.581-1.6468-1.0012-2.4076-1.3174-2.3856-2.8824-4.629-4.202-7.0136-0.7496-1.355-1.303-2.8102-1.9992-4.1934-0.6512-1.2942-1.3152-2.5834-2.0422-3.8368-1.0214-1.7606-2.0256-3.5384-3.2004-5.2008-0.4404-0.6234-1.0274-1.1368-1.619-1.619-0.5052-0.4116-1.0698-0.7526-1.6516-1.0462-0.9044-0.4564-1.8444-0.842-2.793-1.197-1.1462-0.4292-2.3156-0.7952-3.486-1.1532-0.4622-0.1414-0.929-0.2852-1.4086-0.3438-0.4008-0.049-0.8114-0.0332-1.2112 0.0234-0.872 0.123-1.7336 0.3144-2.5912 0.5136-0.7258 0.1684-1.4438 0.3712-2.1564 0.5884-1.4684 0.448-2.957 0.8454-4.3858 1.407-1.303 0.5122-2.5632 1.1354-3.7912 1.8074-0.9736 0.5328-1.8868 1.1712-2.801 1.8004-0.5952 0.4096-1.136 0.894-1.724 1.314-0.346 0.2472-0.7358 0.4308-1.076 0.686-0.4614 0.346-0.8686 0.7598-1.324 1.114-0.146 0.1136-0.34 0.1604-0.476 0.286-0.734 0.6776-1.39 1.4364-2.124 2.114-0.136 0.1256-0.3422 0.158-0.476 0.286-1.3506 1.2918-2.6738 2.6128-3.9666 3.9626-0.1454 0.1518-0.1986 0.3754-0.3384 0.5324-0.4134 0.4644-0.9006 0.8596-1.314 1.324-0.1398 0.157-0.2038 0.3708-0.3384 0.5324-0.2006 0.2408-0.4616 0.4264-0.6616 0.6676-0.118 0.1426-0.1656 0.3354-0.286 0.476-0.282 0.329-0.64 0.5884-0.914 0.924-0.6324 0.7746-1.2182 1.5866-1.8 2.4-0.2474 0.346-0.4156 0.7476-0.686 1.076-0.6658 0.8084-1.4764 1.4932-2.114 2.324-1.1374 1.482-2.19 3.0296-3.2004 4.601-0.6728 1.0462-1.25 2.1512-1.8438 3.244-0.7546 1.3888-1.534 2.7668-2.2008 4.1998-0.6132 1.3182-1.0786 2.7002-1.6342 4.0438-0.194 0.4696-0.3906 0.9386-0.6144 1.3948-0.1526 0.311-0.3706 0.588-0.5128 0.9038-1.4962 3.3202-2.956 6.657-4.4004 10-0.2346 0.5432-0.4536 1.0944-0.6364 1.6572-0.429 1.3194-0.7668 2.6674-1.1984 3.986-0.3802 1.1618-0.7682 2.3234-1.2362 3.4526-0.8122 1.959-1.6948 3.8888-2.6016 5.8056-0.4034 0.8526-0.9476 1.6354-1.3274 2.4986-1.0882 2.4732-2.0174 5.0136-3.0724 7.5012-0.2238 0.528-0.4846 1.0406-0.7626 1.5424-0.6296 1.1364-1.3332 2.231-1.9586 3.3698-1.3228 2.4098-2.495 4.9028-3.8852 7.2744-1.4404 2.4572-3.0144 4.8348-4.6004 7.2008-0.321 0.479-0.7586 0.8698-1.114 1.324-0.1296 0.1656-0.1894 0.384-0.3384 0.5324-0.3372 0.336-0.7544 0.583-1.1046 0.9056-0.4714 0.4342-0.9296 0.8844-1.357 1.362-0.1402 0.1566-0.1922 0.3812-0.3384 0.5324-1.6246 1.6838-3.2606 3.3594-4.9666 4.9626-0.554 0.521-1.144 1.0192-1.802 1.4006-1.08 0.6266-2.236 1.1144-3.386 1.6062-1.064 0.4564-2.156 0.8516-3.25 1.236-1.286 0.4522-2.582 0.879-3.888 1.2736-0.132 0.0398-0.274 0.0264-0.412 0.0264-0.738 0-1.488 0.1106-2.212-0.0264-0.944-0.1782-1.838-0.5624-2.734-0.9086-0.518-0.2006-0.992-0.5054-1.504-0.7284-0.558-0.2444-1.144-0.4226-1.7-0.6728-0.542-0.2432-1.066-0.523-1.588-0.8062-0.34-0.1856-0.676-0.3824-0.998-0.5996-0.298-0.201-0.598-0.4056-0.858-0.6532-1.082-1.0276-2.17-2.053-3.162-3.1666-0.666-0.7464-1.22-1.5866-1.8-2.4-0.248-0.346-0.4-0.7612-0.686-1.076-1.036-1.1388-2.204-2.1504-3.262-3.2676-0.146-0.1526-0.206-0.3688-0.338-0.5324-0.154-0.1904-0.376-0.3232-0.514-0.524-0.636-0.911-1.22-1.855-1.802-2.801-1.22-1.988-2.434-3.98-3.6-5.9998-0.382-0.6628-0.71599-1.3528-1.044-2.044-0.208-0.4382-0.394-0.8874-0.564-1.342-1.374-3.694-2.648-7.4256-4.068-11.102-0.848-2.1932-1.968-4.2794-2.732-6.503-0.638-1.8548-0.90803-3.8178-1.462-5.6994-0.582-1.9828-1.324-3.9156-1.944-5.8868-0.57-1.809-1.058-3.643-1.626-5.4524-0.386-1.226-0.794-2.4458-1.236-3.6524-0.214-0.58-0.514-1.1252-0.732-1.7036-0.904-2.4096-1.808-4.8204-2.634-7.2582-1.264-3.7306-2.368-7.5144-3.634-11.244-0.348-1.02-0.782-2.0078-1.202-2.9998-0.358-0.843-0.796-1.6508-1.13-2.5038-0.734-1.8802-1.296-3.8262-2.068-5.6904-0.506-1.2198-1.142-2.3834-1.764-3.5478-0.448-0.834-0.926-1.6518-1.444-2.4438-0.366-0.5584-0.756-1.1042-1.2-1.6012-0.698-0.7794-1.454-1.5068-2.22-2.219-0.154-0.1432-0.376-0.1978-0.532-0.3384-0.514-0.4618-0.954-0.9998-1.468-1.4616-0.156-0.1406-0.376-0.1986-0.532-0.3384-0.446-0.396-0.822-0.8656-1.268-1.2616-0.158-0.1396-0.368-0.207-0.532-0.3384-0.172-0.1368-0.292-0.3324-0.468-0.4616-0.33-0.2414-0.684-0.4504-1.044-0.6442-0.638-0.3428-1.278-0.6902-1.948-0.9638-0.784-0.3194-1.592-0.5762-2.406-0.811-0.7-0.2022-1.408-0.3856-2.128-0.4978-0.398-0.0624-0.81-0.061-1.212-0.0232-0.208 0.0198-0.392 0.1686-0.6 0.194-0.33 0.04-0.67 0.0558-0.998 2e-4 -0.41-0.0694-0.778-0.3166-1.19-0.3708-0.536-0.0706-1.1-0.14-1.624 4e-4 -0.888 0.2388-1.712 0.6808-2.524 1.1148-0.636 0.3408-1.208 0.7904-1.802 1.2014-0.274 0.1898-0.552 0.3782-0.8 0.6-0.394 0.3508-0.726 0.7666-1.124 1.114-0.14 0.1218-0.336 0.1642-0.476 0.286-0.396 0.3474-0.728 0.7662-1.124 1.114-0.158 0.1386-0.376 0.1982-0.532 0.3384-0.46 0.4118-0.898 0.8498-1.31 1.3102-0.14 0.1566-0.2 0.3754-0.338 0.5324-0.414 0.4644-0.91 0.8526-1.314 1.324-0.436 0.5054-0.82 1.0532-1.2 1.6-0.382 0.546-0.706 1.1306-1.088 1.676-0.086 0.1232-0.232 0.1974-0.312 0.324-0.76 1.1844-1.51 2.376-2.202 3.6008-0.51 0.906-0.978 1.8382-1.406 2.7864-0.774 1.7172-1.502 3.456-2.202 5.2058-0.726 1.8182-1.306 3.6934-2.07 5.4958-0.904 2.1318-1.974 4.1888-2.928 6.2986-0.69 1.525-1.432 3.0308-2 4.605-1.058 2.9292-1.826 5.957-2.87 8.8908-0.358 1.0028-0.906 1.9272-1.33 2.904-0.444 1.0254-0.802 2.0878-1.272 3.1014-0.46 0.9902-1.03 1.9256-1.514 2.904-0.226 0.457-0.444 0.92-0.616 1.4002-0.636 1.7832-1.232 3.581-1.806 5.3856-0.638 2.0086-1.142 4.0604-1.828 6.053-0.578 1.68-1.342 3.291-1.966 4.9554-0.368 0.9854-0.694 1.9866-1.006 2.9912-0.28 0.9-0.576 1.7984-0.77 2.7206-0.308 1.4638-0.524 2.9456-0.732 4.4268" fill="#bfbfbf"/>
<path d="m8.8709 87.379c0.11551 0.08609 0.18522 0.19786 0.34654 0.25839 0.089623 0.03399 0.23103 0.02136 0.33061-0.0049 0.13941-0.03679 0.30273-0.09041 0.33659-0.17208 0.37642-0.90582 0.53177-1.8349 0.87234-2.7447 0.15136-0.40609 0.37841-0.80343 0.60546-1.1989 0.37443-0.65023 0.76877-1.2978 1.201-1.9372 0.48795-0.71809 1.1014-1.4105 1.5594-2.1339 0.79068-1.2452 1.44-2.5155 2.1888-3.7684 0.5238-0.87701 1.0615-1.752 1.6292-2.6208 0.16331-0.24663 0.35451-0.48765 0.56164-0.72392 0.56562-0.64473 1.2089-1.2694 1.7586-1.9183 0.52579-0.62078 0.95798-1.2635 1.4658-1.8887 0.22306-0.27511 0.54172-0.52778 0.72495-0.8112 1.0018-1.5425 1.8602-3.111 2.8241-4.6602 0.18721-0.30252 0.4043-0.59985 0.63334-0.89395 0.64728-0.83116 1.3045-1.6601 1.9916-2.4814 0.68313-0.81498 1.436-1.6118 2.1191-2.4268 0.3565-0.42583 0.68512-0.85846 0.99781-1.2944 0.57359-0.80419 1.0675-1.6254 1.661-2.4253 0.75682-1.017 1.5674-2.0224 2.392-3.0239 0.24099-0.29226 0.51782-0.57579 0.80263-0.85587 0.44812-0.43705 0.9042-0.87183 1.3941-1.2945 0.63932-0.54882 1.3085-1.0865 1.9936-1.6188 0.37841-0.29529 0.77674-0.58324 1.195-0.8631 0.15136-0.10271 0.35849-0.17963 0.51185-0.28266 0.11352-0.078 0.15734-0.18438 0.2848-0.25677 1.0874-0.62046 2.2027-1.2263 3.3479-1.8161 0.15136-0.07822 0.37244-0.10778 0.52978-0.18254 0.39434-0.18762 0.72495-0.41331 1.1193-0.60093 0.15734-0.07477 0.36845-0.10994 0.52978-0.18254 0.24099-0.10821 0.41426-0.25656 0.6652-0.35689 0.51982-0.20801 1.0695-0.39702 1.6391-0.56328 0.73491-0.21502 1.4678-0.45226 2.2705-0.57827 0.45409-0.0712 0.95001-0.03366 1.418-3.24e-4 0.474 0.03377 0.91416 0.15611 1.3842 0.20013 0.19717 0.01845 0.4043 0.0063 0.60147-0.01446 0.13942-0.01467 0.25095-0.0848 0.39235-0.0903 0.53376-0.02071 1.0775-0.03517 1.6053 0.01252 0.92412 0.08361 1.8303 0.22635 2.7246 0.37868 0.66122 0.11285 1.3045 0.26098 1.9379 0.41526 0.55965 0.13626 1.1073 0.28644 1.6351 0.4555 0.2868 0.0916 0.54969 0.2052 0.79864 0.32398 0.32464 0.15417 0.59351 0.34092 0.92014 0.49304 0.13941 0.06495 0.33659 0.08793 0.47401 0.15428 0.46206 0.22279 0.8564 0.48581 1.3185 0.70882 0.15734 0.07541 0.37443 0.1067 0.52978 0.18254 0.49193 0.23972 0.91416 0.52045 1.4061 0.76017 0.15535 0.07585 0.37244 0.10789 0.52978 0.18254 0.36049 0.17068 0.71898 0.34642 1.0157 0.54968 0.70703 0.48549 1.3922 0.98393 1.9916 1.5108 0.67915 0.59705 1.2328 1.2329 1.8343 1.8539 0.19717 0.20488 0.41028 0.40727 0.56363 0.62315 0.72097 1.0161 1.3304 2.0554 2.0594 3.0696 0.3326 0.46003 0.77873 0.89406 1.1253 1.3507 0.61741 0.81379 1.2448 1.627 1.7726 2.4595 0.55567 0.87906 0.96196 1.7844 1.4778 2.6707 0.49791 0.85522 1.0177 1.7071 1.5654 2.5534 0.84844 1.3102 1.7248 2.6151 2.623 3.9153 0.29675 0.42863 0.69707 0.83612 0.96196 1.2706 1.5734 2.5688 3.1069 5.1451 4.5529 7.7354 0.48795 0.87162 0.80064 1.7696 1.2507 2.6471 0.1673 0.32873 0.36845 0.65315 0.60347 0.96969 0.74092 0.99601 1.6073 1.9642 2.3223 2.9657 1.5435 2.1629 2.8779 4.3683 4.4493 6.5251 0.38239 0.52293 0.89424 1.016 1.4021 1.5061 1.0217 0.9836 2.0972 1.9509 3.1866 2.9128 0.70304 0.62078 1.4459 1.2286 2.1928 1.8346 0.18323 0.14964 0.3804 0.29539 0.59749 0.43155 0.21908 0.13853 0.49393 0.2504 0.71102 0.39055 0.13343 0.08696 0.19517 0.20283 0.33659 0.28719 0.42819 0.25796 0.88627 0.502 1.3603 0.73503 0.21112 0.10368 0.51186 0.15223 0.69309 0.27241 0.95002 0.63653 1.6829 1.3653 2.6748 1.983 1.2209 0.7606 2.5772 1.4558 3.9454 2.1397 0.37045 0.18524 0.81459 0.32388 1.2508 0.46003 0.66122 0.20563 1.3424 0.39292 2.0354 0.56349 1.3623 0.33445 2.7305 0.6607 4.1247 0.95102 0.76479 0.15892 1.5336 0.33478 2.3442 0.39498 0.92412 0.0687 1.8901 0.10432 2.7983-0.0129 2.0952-0.27036 4.0948-0.72867 6.1123-1.1372 1.2806-0.25915 2.5374-0.55433 3.7781-0.8645 0.35052-0.0877 0.67317-0.20714 0.98983-0.32668 0.54572-0.20542 1.0775-0.42152 1.5933-0.64733 0.18921-0.08289 0.33062-0.19484 0.52181-0.27727 0.14339-0.06239 0.34057-0.08595 0.47401-0.15428 0.91018-0.46262 1.7945-0.94088 2.6509-1.4331 0.19319-0.11177 0.29676-0.26422 0.49393-0.3748 1.5174-0.8549 3.2024-1.6239 4.6415-2.5179 0.84745-0.52638 1.4878-1.1414 2.1912-1.7267 1.1559-0.96149 2.3268-1.9192 3.3858-2.9128 1.2944-1.2147 2.4206-2.4799 3.6698-3.7083 0.62437-0.61377 1.33-1.2028 1.9504-1.8178 0.41626-0.41267 0.81479-0.8317 1.1577-1.2636 1.0635-1.339 1.9737-2.713 3.0602-4.0466 0.38817-0.47675 0.94821-0.90776 1.3595-1.3787 0.89344-1.023 1.7552-2.0547 2.5525-3.1007 0.46445-0.60934 0.85203-1.2354 1.2306-1.862 0.4298-0.7113 0.76619-1.4386 1.1936-2.1504 0.18224-0.3037 0.40112-0.60082 0.63394-0.89417 1.1739-1.4795 2.3603-2.9561 3.5849-4.4234 0.41127-0.49272 0.91695-0.96138 1.3218-1.4557 0.86178-1.0517 1.5477-2.1459 2.4766-3.1806 1.0251-1.1417 2.2157-2.2376 3.3778-3.34 0.42938-0.40738 0.90817-0.79922 1.3945-1.1873 0.0842-0.0671 0.22426-0.1094 0.31269-0.17478 0.6427-0.4747 1.1944-0.98598 1.8781-1.4435 0.44872-0.30025 1.047-0.52724 1.5077-0.8221 0.27365-0.17521 0.43676-0.39379 0.68313-0.58043 0.57937-0.43878 1.1745-0.87162 1.7925-1.2946 0.15117-0.10346 0.35968-0.17963 0.51185-0.28266 0.11511-0.078 0.1669-0.18006 0.2848-0.25677 0.21609-0.14047 0.49493-0.25008 0.71101-0.39055 0.11811-0.07671 0.16491-0.18093 0.28481-0.25677 0.28082-0.17747 0.62935-0.32096 0.91017-0.49844 0.1201-0.07585 0.16153-0.18254 0.28481-0.25677 0.477-0.28709 1.0305-0.53512 1.5077-0.8221 0.14021-0.08426 0.194-0.20444 0.33699-0.2872 0.80542-0.46596 1.6395-0.9179 2.4997-1.3541 0.17128-0.08685 0.41446-0.12429 0.58654-0.21081 0.77892-0.39184 1.4581-0.84065 2.2579-1.22 0.81915-0.3885 1.7084-0.7319 2.5891-1.0789 1.3111-0.51645 2.6292-1.0285 3.9843-1.5106 0.5702-0.20294 1.1759-0.3762 1.7857-0.54224 0.84904-0.2312 1.6925-0.47546 2.5873-0.64862 2.0651-0.3994 4.1659-0.74474 6.2768-1.0659 0.8576-0.13044 1.7375-0.21826 2.619-0.28741 0.39793-0.03129 0.80701-0.03927 1.2061-0.01262 0.4762 0.03183 0.94124 0.10648 1.3979 0.18664 1.3199 0.23163 2.6449 0.45981 3.9265 0.74776 0.95837 0.21545 1.8737 0.48495 2.7795 0.7592 0.29018 0.08782 0.5479 0.20531 0.79785 0.32398 0.28918 0.13723 0.56223 0.28514 0.81557 0.4418 0.21908 0.1354 0.42402 0.27889 0.59829 0.43219 0.88887 0.78261 1.7447 1.5762 2.5887 2.3733 0.7638 0.72133 1.5242 1.4442 2.2342 2.1814 0.30014 0.3119 0.50966 0.64743 0.79366 0.96375 0.59311 0.66038 1.1657 1.3277 1.8369 1.9657 1.177 1.1186 2.5674 2.1698 3.7042 3.3006 0.38139 0.37933 0.59111 0.80311 0.83529 1.2144 0.51782 0.87248 0.92432 1.7637 1.4495 2.6349 0.21729 0.36045 0.48039 0.71335 0.77635 1.0569 0.73591 0.85436 1.582 1.68 2.3175 2.5345 0.24914 0.28935 0.4503 0.5909 0.63433 0.89427 0.63453 1.0464 1.1876 2.1069 1.8208 3.1536 0.24139 0.39897 0.4987 0.79599 0.80223 1.1823 0.67118 0.85425 1.4336 1.6868 2.1201 2.5376 0.2864 0.35484 0.57758 0.71 0.79806 1.0784 0.86615 1.4482 1.4927 2.9388 2.4599 4.368 0.49731 0.73503 1.3119 1.3955 1.9203 2.1055 0.36507 0.42604 0.7373 0.85317 0.9992 1.3008 0.48237 0.82415 0.84546 1.6676 1.2288 2.5069 0.3577 0.78283 0.60128 1.5809 0.99403 2.3587 0.2832 0.56123 0.6411 1.1116 1.0315 1.6536 0.20833 0.28903 0.48755 0.56198 0.7606 0.83472 0.51265 0.51182 1.088 1.0048 1.5957 1.518 0.41087 0.41526 0.83409 0.82922 1.1589 1.2663 0.61721 0.83051 1.0729 1.694 1.6628 2.5304 0.23281 0.32992 0.46344 0.66458 0.80342 0.9658 0.59629 0.52832 1.3037 1.0178 1.993 1.5117 0.14718 0.10551 0.37542 0.17391 0.51266 0.28331 0.43476 0.34686 0.81377 0.71367 1.1946 1.0787 0.90877 0.87108 1.7441 1.7646 2.6738 2.6292 0.18004 0.16744 0.38279 0.33358 0.65007 0.4624 0.34575 0.16679 0.7606 0.28752 1.1627 0.4118 0.67517 0.20844 1.4149 0.35549 2.0657 0.58539 0.8811 0.31136 1.6381 0.71809 2.515 1.0329 0.47162 0.16916 0.96037 0.35387 1.515 0.41374 1.7082 0.18438 3.4589 0.22754 5.194 0.31039 0.3346 0.016 0.67895 0.0238 1.0076-0.0145 0.54052-0.0628 1.0586-0.17564 1.5728-0.28569 1.2589-0.26939 2.5124-0.54785 3.7439-0.85219 0.94263-0.23293 1.8809-0.47471 2.7747-0.75856 0.69927-0.22214 1.3466-0.49013 1.9924-0.75542 0.19418-0.07975 0.32344-0.20056 0.5218-0.27727 0.73412-0.28407 1.5447-0.50835 2.2665-0.80159 0.60924-0.2476 1.1179-0.56188 1.7168-0.81671 0.33299-0.14176 0.73271-0.23239 1.0715-0.37005 0.19498-0.07919 0.3316-0.19484 0.52181-0.27727 0.14399-0.06236 0.33618-0.08804 0.47401-0.15428 0.428-0.20585 0.84187-0.42205 1.2139-0.65757 0.39534-0.2504 0.70145-0.53889 1.0815-0.7962 0.15216-0.10314 0.36327-0.17801 0.51184-0.28266 0.51664-0.3639 0.96316-0.75607 1.4798-1.1199 0.14858-0.10465 0.35969-0.17963 0.51185-0.28266 0.11512-0.078 0.16013-0.1833 0.28481-0.25677 0.62298-0.36736 1.3304-0.69102 1.9492-1.0603 0.0697-0.04164 0.0962-0.10411 0.0962-0.16032 0-0.12623-0.0219-0.25537-0.096-0.37512-0.0277-0.04456-0.10875-0.08685-0.19458-0.09386-0.16631-0.01349-0.36727-0.01866-0.49951 0.03754-0.25971 0.11058-0.37164 0.29777-0.59649 0.42885-0.65983 0.38451-1.4326 0.71194-2.053 1.1153-1.0432 0.67807-1.8761 1.4463-2.9261 2.1213-0.71539 0.45981-1.515 0.88241-2.3567 1.2745-0.5724 0.2667-1.2685 0.44525-1.8682 0.69371-0.53057 0.21977-0.98327 0.49175-1.5176 0.70882-0.53037 0.21545-1.1297 0.37706-1.669 0.58582-0.39136 0.15136-0.72137 0.34674-1.1193 0.49303-0.8554 0.31449-1.7407 0.60503-2.6339 0.88694-0.36526 0.11522-0.74885 0.21329-1.1374 0.30338-1.4503 0.33639-2.91 0.66135-4.3774 0.97552-0.30552 0.0654-0.61402 0.13604-0.93885 0.16258-0.39753 0.0326-0.80483 0.0289-1.2057 0.0129-1.2978-0.052-2.5915-0.1313-3.8831-0.21664-0.23342-0.0155-0.46923-0.0382-0.68731-0.0857-0.39633-0.0861-0.7853-0.18675-1.1438-0.31244-0.55766-0.19549-1.0775-0.42173-1.5945-0.64764-0.19-0.08298-0.31369-0.20962-0.523-0.27759-0.79347-0.25796-1.6521-0.45226-2.4636-0.69317-0.21012-0.06248-0.41347-0.13335-0.59829-0.21599-0.20454-0.09138-0.39435-0.19333-0.56423-0.30349-0.16988-0.11014-0.31926-0.23-0.45091-0.35461-1.1095-1.0503-2.0773-2.1459-3.2715-3.1686-0.86535-0.7414-2.0004-1.382-2.8946-2.1133-0.28043-0.22926-0.43159-0.49844-0.61322-0.75532-0.6443-0.91164-1.1237-1.8589-1.8634-2.749-1.0556-1.2705-2.4047-2.4639-3.5124-3.7212-0.32664-0.3707-0.58953-0.75963-0.78491-1.1565-0.48118-0.97853-0.79546-1.9792-1.2414-2.9626-0.31986-0.70569-0.64012-1.4126-1.055-2.1036-0.2629-0.4378-0.61701-0.85867-0.97451-1.2764-0.60785-0.71022-1.423-1.3706-1.9205-2.1056-0.96635-1.4282-1.5921-2.9177-2.4577-4.3647-0.22107-0.36951-0.51285-0.72586-0.80004-1.0818-0.68632-0.85069-1.4485-1.6834-2.1201-2.5375-0.31329-0.39853-0.58395-0.80699-0.8331-1.2187-0.62558-1.0341-1.1649-2.0831-1.7899-3.1173-0.18343-0.30348-0.40589-0.59996-0.63433-0.89427-0.25334-0.32668-0.52042-0.65056-0.8108-0.96807-0.48238-0.52757-1.0428-1.0339-1.5067-1.5664-0.30592-0.35128-0.57698-0.71248-0.80004-1.0817-0.58554-0.96915-1.0251-1.9632-1.6242-2.9299-0.27544-0.44449-0.57857-0.88834-0.99701-1.2987-1.3119-1.2869-2.8704-2.497-4.1844-3.7834-0.74646-0.73093-1.2976-1.5159-1.9908-2.2621-0.64847-0.69814-1.3097-1.3936-2.0337-2.0697-1.0171-0.94973-2.0171-1.9087-3.187-2.8055-0.43856-0.33628-1.0231-0.61323-1.6122-0.87334-0.5031-0.22203-1.0653-0.40598-1.6447-0.56436-0.90061-0.2462-1.8367-0.4542-2.7813-0.6457-1.1414-0.23152-2.3059-0.42896-3.4714-0.62208-0.46027-0.07628-0.92511-0.15385-1.4027-0.18546-0.39912-0.02643-0.808-0.01791-1.2061 0.01262-0.86835 0.06635-1.7264 0.1696-2.5804 0.27705-0.72276 0.09084-1.4378 0.20024-2.1474 0.3174-1.4622 0.24167-2.9446 0.45604-4.3674 0.75898-1.2976 0.2763-2.5525 0.61247-3.7753 0.97497-0.96953 0.28741-1.8789 0.63178-2.7893 0.9712-0.59271 0.22095-1.1312 0.48225-1.7168 0.70882-0.34456 0.13335-0.73273 0.23239-1.0715 0.37005-0.45947 0.18664-0.86496 0.40986-1.3184 0.60093-0.1454 0.06128-0.33858 0.08653-0.47401 0.15428-0.73094 0.36552-1.3842 0.77484-2.1151 1.1404-0.13543 0.06775-0.34077 0.08523-0.47401 0.15428-1.345 0.69684-2.6626 1.4094-3.95 2.1376-0.1448 0.08189-0.19778 0.2025-0.33699 0.2872-0.41167 0.25051-0.89683 0.4637-1.3085 0.71421-0.13921 0.08469-0.20294 0.20002-0.33698 0.28719-0.19976 0.1299-0.45967 0.23002-0.65883 0.36013-0.11751 0.07692-0.16491 0.18093-0.28481 0.25677-0.28081 0.17747-0.63732 0.3174-0.91017 0.49844-0.62976 0.41784-1.2131 0.85586-1.7925 1.2946-0.24637 0.18664-0.41386 0.40328-0.68313 0.58043-0.66301 0.43608-1.4702 0.80548-2.1052 1.2536-1.1326 0.79944-2.1808 1.6343-3.187 2.4819-0.66999 0.56436-1.2448 1.1604-1.8361 1.7499-0.75144 0.74917-1.5276 1.4925-2.1916 2.2655-0.61062 0.71108-1.0741 1.4566-1.6274 2.1814-0.19319 0.25332-0.38896 0.50631-0.61182 0.7524-0.15197 0.16776-0.36906 0.31719-0.51066 0.48754-1.4899 1.791-2.9436 3.591-4.382 5.3944-0.23363 0.29302-0.45171 0.59036-0.63374 0.89395-0.4272 0.71173-0.76359 1.4389-1.1934 2.1502-0.3786 0.62672-0.76498 1.2533-1.231 1.8624-0.8088 1.0568-1.6877 2.0978-2.5907 3.1317-0.40171 0.45992-0.94364 0.88219-1.3218 1.3478-1.0836 1.3341-2.009 2.7045-3.0596 4.0464-0.22287 0.28482-0.48258 0.56134-0.75941 0.83202-0.62696 0.61301-1.3276 1.2035-1.9504 1.8178-1.3173 1.2999-2.4846 2.6447-3.869 3.9241-1.4344 1.3255-3.0018 2.6081-4.5812 3.8844-0.31966 0.25839-0.75543 0.4692-1.1093 0.71421-0.12906 0.08933-0.18861 0.20714-0.33698 0.2872-0.33579 0.18125-0.75124 0.31449-1.1 0.48851-0.46943 0.23422-0.92571 0.47708-1.3513 0.73471-0.13961 0.08448-0.19139 0.20563-0.33698 0.2872-1.6178 0.9083-3.247 1.8122-4.9458 2.677-0.55167 0.28104-1.1392 0.54979-1.7944 0.75553-1.0755 0.33801-2.2266 0.60114-3.3718 0.86644-1.0596 0.2462-2.147 0.45938-3.2364 0.66674-1.2806 0.24393-2.5712 0.47416-3.8717 0.68702-0.13145 0.0215-0.27285 0.0142-0.41028 0.0142-0.73491 0-1.4818 0.0597-2.2027-0.0142-0.94005-0.0961-1.8303-0.30338-2.7226-0.49013-0.51583-0.10821-0.98785-0.27263-1.4977-0.39292-0.55566-0.13184-1.1392-0.22797-1.6929-0.36293-0.53973-0.13119-1.0615-0.28213-1.5814-0.43489-0.33858-0.10012-0.67317-0.20628-0.99382-0.32345-0.29676-0.10842-0.59551-0.21879-0.85442-0.35235-1.0775-0.55432-2.1609-1.1075-3.1488-1.7082-0.66321-0.40262-1.2149-0.85586-1.7925-1.2946-0.24696-0.18664-0.39833-0.41062-0.68313-0.58043-1.0317-0.61431-2.1948-1.16-3.2484-1.7627-0.14538-0.08232-0.20514-0.19894-0.33659-0.28719-0.15335-0.10271-0.37442-0.17434-0.51184-0.28266-0.63335-0.49142-1.2149-1.0006-1.7945-1.511-1.2149-1.0724-2.4238-2.1469-3.5849-3.2365-0.38041-0.35754-0.713-0.72975-1.0396-1.1026-0.20712-0.23638-0.39235-0.47869-0.56164-0.72392-1.3682-1.9927-2.6369-4.0056-4.051-5.989-0.84445-1.1831-1.9598-2.3085-2.7206-3.5079-0.63533-1.0005-0.90423-2.0595-1.4559-3.0744-0.57956-1.0696-1.3185-2.1122-1.9359-3.1755-0.56762-0.97584-1.0536-1.9652-1.6192-2.9412-0.38438-0.66135-0.79068-1.3193-1.2308-1.9702-0.2131-0.31287-0.51185-0.60697-0.72894-0.91898-0.90022-1.2998-1.8004-2.6003-2.623-3.9153-1.2587-2.0124-2.3581-4.0535-3.6188-6.0655-0.34654-0.55022-0.77873-1.0831-1.197-1.6182-0.3565-0.45474-0.79267-0.8905-1.1253-1.3506-0.73093-1.0142-1.2906-2.064-2.0593-3.0696-0.50388-0.658-1.1372-1.2857-1.7566-1.9138-0.44613-0.44989-0.92213-0.89104-1.438-1.3183-0.36447-0.30122-0.75284-0.59564-1.195-0.86374-0.69508-0.42044-1.4479-0.81282-2.2107-1.197-0.15336-0.07725-0.37443-0.1067-0.52978-0.18254-0.51185-0.24911-0.95001-0.53933-1.4619-0.78844-0.15535-0.07584-0.37443-0.10713-0.52978-0.18254-0.44413-0.21362-0.81856-0.46693-1.2627-0.68055-0.15734-0.07531-0.36646-0.11166-0.52978-0.18254-0.17128-0.0738-0.29078-0.17931-0.46604-0.249-0.32862-0.13022-0.68114-0.24296-1.0396-0.3475-0.63533-0.18492-1.2727-0.37232-1.9399-0.51991-0.78072-0.1723-1.5853-0.31082-2.3959-0.43748-0.69707-0.10907-1.4021-0.208-2.1191-0.26853-0.39634-0.03366-0.80661-0.03291-1.2069-0.01252-0.20713 0.01068-0.39036 0.09095-0.59749 0.10465-0.32862 0.02158-0.6672 0.0301-0.99382 1.07e-4 -0.40829-0.03744-0.77475-0.17078-1.185-0.20002-0.53376-0.03808-1.0954-0.07552-1.6172 2.16e-4 -0.88428 0.12882-1.7048 0.36725-2.5134 0.60136-0.63334 0.18384-1.2029 0.42637-1.7945 0.64808-0.27285 0.10238-0.54969 0.20401-0.79665 0.32366-0.39235 0.18923-0.72296 0.41353-1.1193 0.60093-0.13942 0.0657-0.3346 0.08857-0.47401 0.15428-0.39434 0.1874-0.72495 0.41331-1.1193 0.60093-0.15734 0.07477-0.37443 0.10692-0.52978 0.18254-0.45808 0.22214-0.89424 0.45841-1.3045 0.70677-0.13942 0.08448-0.19916 0.2025-0.33659 0.28719-0.41227 0.25051-0.90619 0.45992-1.3085 0.71421-0.43418 0.27263-0.81657 0.56813-1.195 0.86309-0.3804 0.29453-0.70305 0.60988-1.0834 0.90409-0.08564 0.06646-0.23103 0.10648-0.3107 0.17478-0.75682 0.6389-1.5037 1.2817-2.1928 1.9424-0.50787 0.48873-0.97391 0.99159-1.4001 1.5031-0.77076 0.92632-1.4957 1.8643-2.1928 2.8082-0.72296 0.9808-1.3005 1.9923-2.0613 2.9646-0.90022 1.15-1.9657 2.2596-2.9158 3.3977-0.68711 0.82264-1.426 1.6349-1.9916 2.4841-1.0536 1.5801-1.8184 3.2134-2.858 4.796-0.3565 0.54094-0.90221 1.0396-1.3244 1.5665-0.44214 0.55314-0.79864 1.1262-1.2667 1.673-0.45808 0.53415-1.0257 1.0387-1.5077 1.5665-0.22505 0.24652-0.44214 0.49628-0.61342 0.75532-0.63334 0.96192-1.2268 1.9317-1.7984 2.9052-0.63533 1.0835-1.1372 2.1903-1.8204 3.2652-0.57558 0.90625-1.3364 1.7753-1.9578 2.6731-0.36646 0.53156-0.6911 1.0716-1.0018 1.6136-0.27883 0.48549-0.57359 0.97012-0.76678 1.4676-0.30671 0.78962-0.52181 1.589-0.72894 2.388" fill="#319ad7" stroke="#319ad7" stroke-width="1.2849"/>
<path d="m54.002 16.981v18.744" fill="none" stroke="#319ad7" stroke-linecap="round" stroke-width="2.0431"/>
<path d="m57.891 31.562-4.0933 4.219-2.7288-3.7971" fill="none" stroke="#319ad7" stroke-linecap="round" stroke-width="2.0431"/>
</svg>
