<?xml version="1.0" encoding="UTF-8" standalone="no"?>
<svg
   xmlns:dc="http://purl.org/dc/elements/1.1/"
   xmlns:cc="http://creativecommons.org/ns#"
   xmlns:rdf="http://www.w3.org/1999/02/22-rdf-syntax-ns#"
   xmlns:svg="http://www.w3.org/2000/svg"
   xmlns="http://www.w3.org/2000/svg"
   xmlns:sodipodi="http://sodipodi.sourceforge.net/DTD/sodipodi-0.dtd"
   xmlns:inkscape="http://www.inkscape.org/namespaces/inkscape"
   width="311.1622"
   height="130.9507"
   viewBox="0 0 311.1622 130.95071"
   version="1.2"
   id="svg46"
   sodipodi:docname="reverb - page 7 attenuate.svg"
   inkscape:version="1.0 (4035a4f, 2020-05-01)">
  <metadata
     id="metadata52">
    <rdf:RDF>
      <cc:Work
         rdf:about="">
        <dc:format>image/svg+xml</dc:format>
        <dc:type
           rdf:resource="http://purl.org/dc/dcmitype/StillImage" />
      </cc:Work>
    </rdf:RDF>
  </metadata>
  <defs
     id="defs50" />
  <sodipodi:namedview
     inkscape:document-rotation="0"
     pagecolor="#ffffff"
     bordercolor="#666666"
     borderopacity="1"
     objecttolerance="10"
     gridtolerance="10"
     guidetolerance="10"
     inkscape:pageopacity="0"
     inkscape:pageshadow="2"
     inkscape:window-width="1440"
     inkscape:window-height="900"
     id="namedview48"
     showgrid="false"
     inkscape:snap-global="false"
     inkscape:zoom="2.7783398"
     inkscape:cx="151.68417"
     inkscape:cy="42.769231"
     inkscape:window-x="1080"
     inkscape:window-y="433"
     inkscape:window-maximized="0"
     inkscape:current-layer="svg46" />
  <title
     id="title10">reverb</title>
  <path
     id="path845"
     d="M 0.992625,65.274948 310.16959,65.634953"
     style="fill:none;stroke:#000000;stroke-width:2;stroke-linecap:round;stroke-linejoin:miter;stroke-miterlimit:4;stroke-dasharray:none;stroke-opacity:1" />
  <path
     id="path847"
     d="M 13.229911,0.95033002 V 130.00037"
     style="fill:none;stroke:#000000;stroke-width:2;stroke-linecap:round;stroke-linejoin:miter;stroke-miterlimit:4;stroke-dasharray:none;stroke-opacity:1" />
  <path
     id="path30"
     d="m 3.0685387,94.456114 c 0,0 0,0 0,0 0.116,0.1596 0.186,0.3668 0.348,0.479 0.09,0.063 0.232,0.0396 0.332,-0.009 0.14,-0.0682 0.304,-0.1676 0.338,-0.319 0.378,-1.679202 0.534,-3.401602 0.876,-5.088202 0.152,-0.752799 0.38,-1.4894 0.6080004,-2.2226 0.3760002,-1.2054 0.7720002,-2.4058 1.2060002,-3.5912 0.49,-1.3312 1.106,-2.6148 1.566,-3.9558 0.794,-2.3084 1.446,-4.6632 2.1979997,-6.9858 0.526,-1.625799 1.066,-3.247799 1.636,-4.858401 0.164,-0.4572 0.356,-0.904 0.564,-1.342 0.568,-1.1952 1.214,-2.3532 1.766,-3.556201 0.528,-1.1508 0.962,-2.3422 1.472,-3.501199 0.224,-0.510001 0.544,-0.9784 0.728,-1.5038 1.006,-2.859401 1.868,-5.767201 2.836,-8.639001 0.188,-0.5608 0.406,-1.112 0.636,-1.6572 0.65,-1.5408 1.31,-3.0774 2,-4.6 0.686,-1.5108 1.442,-2.988 2.128,-4.4988 0.358,-0.7894 0.688,-1.5914 1.002,-2.3996 0.576,-1.4908 1.072,-3.0132 1.668,-4.496 0.76,-1.8854 1.574,-3.7492 2.402,-5.6056 0.242,-0.5418 0.52,-1.0674 0.806,-1.5866 0.45,-0.8102 0.908,-1.6162 1.4,-2.3998 0.642,-1.0174 1.314,-2.0142 2.002,-3.001 0.38,-0.5474 0.78,-1.0812 1.2,-1.6 0.152,-0.1904 0.36,-0.333 0.514,-0.524 0.114,-0.1446 0.158,-0.3418 0.286,-0.476 1.092,-1.1502 2.212,-2.2734 3.362,-3.3666 0.152,-0.145 0.374,-0.1998 0.532,-0.3384 0.396,-0.3478 0.728,-0.7662 1.124,-1.114 0.158,-0.1386 0.37,-0.2038 0.532,-0.3384 0.242,-0.2006 0.416,-0.4756 0.668,-0.6616 0.522,-0.3856 1.074,-0.7360003 1.646,-1.0442003 0.738,-0.3986 1.474,-0.8384 2.28,-1.072 0.456,-0.132 0.954,-0.0624 1.424,-6e-4 0.476,0.0626 0.918,0.2894 1.39,0.371 0.198,0.0342 0.406,0.0116 0.604,-0.0268 0.14,-0.0272 0.252,-0.1572 0.394,-0.1674 0.536,-0.0384 1.082,-0.0652 1.612,0.0232 0.928,0.155 1.838,0.4196 2.736,0.702 0.664,0.2092 1.31,0.4838 1.946,0.7698003 0.562,0.2526 1.112,0.531 1.642,0.8444 0.288,0.1698 0.552,0.3804 0.802,0.6006 0.326,0.2858 0.596,0.632 0.924,0.914 0.14,0.1204 0.338,0.163 0.476,0.286 0.464,0.413 0.86,0.9006 1.324,1.314 0.158,0.1398 0.376,0.1978 0.532,0.3384 0.494,0.4444 0.918,0.9648 1.412,1.4092 0.156,0.1406 0.374,0.2 0.532,0.3384 0.362,0.3164 0.722,0.6422 1.02,1.019 0.71,0.9 1.398,1.824 2,2.8008 0.682,1.1068 1.238,2.2856 1.842,3.4368 0.198,0.3798 0.412,0.755 0.566,1.1552 0.724,1.8836 1.336,3.8102 2.068,5.6904 0.334,0.8528 0.782,1.6574 1.13,2.504 0.62,1.5086 1.25,3.0162 1.78,4.5594 0.558,1.6296 0.966,3.308 1.484,4.951 0.5,1.5854 1.022,3.1646 1.572,4.7334 0.852,2.4288 1.732,4.8478 2.634,7.2582 0.298,0.7946 0.7,1.55 0.966,2.3554 1.58,4.762 3.12,9.538 4.572,14.339803 0.49,1.615799 0.804,3.2804 1.256,4.9072 0.168,0.6094 0.37,1.2108 0.606,1.7976 0.74403,1.8464 1.61403,3.6412 2.33203,5.4978 1.55,4.0096 2.89,8.098 4.468,12.096201 0.384,0.9694 0.898,1.8834 1.408,2.792 1.02599,1.823396 2.10599,3.616596 3.19999,5.399796 0.706,1.1508 1.452,2.2776 2.202001,3.401 0.184,0.2774 0.382,0.5476 0.6,0.8 0.22,0.2568 0.496,0.4642 0.714,0.724 0.134,0.1612 0.196,0.376 0.338,0.5324 0.43,0.4782 0.89,0.9306 1.366,1.3626 0.212,0.1922 0.514,0.2822 0.696,0.505 0.954,1.18 1.69,2.531 2.686,3.676 1.226,1.41 2.588,2.6988 3.962,3.9666 0.372,0.3434 0.818,0.6004 1.256,0.8528 0.664,0.3812 1.348,0.7284 2.044,1.0446 1.368,0.62 2.742,1.2248 4.142,1.763 0.768,0.2946 1.54,0.6206 2.354,0.7322 0.928,0.1274 1.898,0.1934 2.81,-0.0238 2.104,-0.5012 4.112,-1.3508 6.138,-2.1082 1.286,-0.4804 2.548,-1.0276 3.794,-1.6026 0.352,-0.1626 0.676,-0.384 0.994,-0.6056 0.548,-0.3808 1.082,-0.7814 1.6,-1.2 0.19,-0.1536 0.332,-0.3612 0.524,-0.514 0.144,-0.1156 0.342,-0.1594 0.476,-0.286 0.914,-0.8576 1.802,-1.7442 2.662,-2.6566 0.194,-0.2072 0.298,-0.4898 0.496,-0.6948 1.5238,-1.5848 3.2158,-3.0104 4.661,-4.6676 0.851,-0.9758 1.494,-2.116 2.2004,-3.201 1.1608,-1.7824 2.3366,-3.5578 3.4,-5.399796 1.2998,-2.2518 2.4308,-4.5972 3.6852,-6.874401 0.627,-1.1378 1.3356,-2.2298 1.9586,-3.3698 0.418,-0.765 0.8182,-1.5418 1.1626,-2.3424 1.068,-2.4822 1.982,-5.0294 3.073,-7.5016 0.3898,-0.8838 0.9522,-1.6828 1.3652,-2.5558 0.8972,-1.8964 1.7626,-3.809 2.5632,-5.748 0.4664,-1.1296 0.8556,-2.2902 1.2358,-3.4518 0.4316,-1.318602 0.7694,-2.666802 1.1986,-3.986402 0.183,-0.563 0.4028,-1.1138 0.6366,-1.6576 1.1788,-2.7426 2.3702,-5.48 3.6,-8.2 0.413,-0.9134 0.9208,-1.7822 1.3274,-2.6986 0.8654,-1.9496 1.5542,-3.978 2.487,-5.8962 1.0294,-2.1164 2.225,-4.148 3.392,-6.1916 0.4312,-0.7552 0.912,-1.4816 1.4004,-2.201 0.0846,-0.1244 0.2252,-0.2028 0.314,-0.324 0.6454,-0.88 1.1994,-1.8278 1.886,-2.676 0.4506,-0.5566 1.0514,-0.9774 1.514,-1.524 0.2748,-0.3248 0.4386,-0.73 0.686,-1.076 0.5818,-0.8134 1.1794,-1.6158 1.8,-2.4 0.1518,-0.1918 0.3612,-0.333 0.514,-0.524 0.1156,-0.1446 0.1676,-0.3338 0.286,-0.476 0.217,-0.2604 0.497,-0.4636 0.714,-0.724 0.1186,-0.1422 0.1656,-0.3354 0.286,-0.476 0.282,-0.329 0.632,-0.595 0.914,-0.924 0.1206,-0.1406 0.1622,-0.3384 0.286,-0.476 0.479,-0.5322 1.0348,-0.992 1.514,-1.524 0.1408,-0.1562 0.1948,-0.379 0.3384,-0.5324 0.8088,-0.8638 1.6464,-1.7016 2.5102,-2.5102 0.172,-0.161 0.4162,-0.2304 0.589,-0.3908 0.7822,-0.7264 1.4642,-1.5584 2.2674,-2.2616 0.8226,-0.7202 1.7156,-1.3568 2.6,-2 1.3166,-0.9574 2.6402,-1.9066 4.001,-2.8004 0.5726,-0.3762 1.1808,-0.6974 1.7932,-1.0052 0.8526,-0.4286 1.6996,-0.8814 2.5982,-1.2024 2.0738,-0.7404 4.1834,-1.3806 6.3032,-1.9760003 0.8612,-0.2418 1.7448,-0.4046 2.63,-0.5328 0.3996,-0.058 0.8104,-0.0728 1.2112,-0.0234 0.4782,0.059 0.9452,0.1974 1.4038,0.346 1.3254,0.4294 2.656,0.8524003 3.943,1.3862003 0.9624,0.3994 1.8816,0.899 2.7912,1.4074 0.2914,0.1628 0.5502,0.3806 0.8012,0.6006 0.2904,0.2544 0.5646,0.5286 0.819,0.819 0.22,0.251 0.4258,0.517 0.6008,0.8012 0.8926,1.4508 1.752,2.922 2.5996,4.3996 0.767,1.3372 1.5306,2.6772 2.2436,4.0438 0.3014,0.5782 0.5118,1.2002 0.797,1.7866 0.5956,1.2242 1.1706,2.4612 1.8446,3.644 1.182,2.0736 2.5782,4.0224 3.7198,6.1186 0.383,0.7032 0.5936,1.4888 0.8388,2.2512 0.52,1.6174 0.9282,3.2696 1.4556,4.8846 0.2182,0.6682 0.4824,1.3224 0.7796,1.9592 0.739,1.5838 1.5886,3.1144 2.3272,4.6984 0.2502,0.5364 0.4522,1.0954 0.637,1.6578 0.6372,1.9398 1.1926,3.9058 1.8284,5.8462 0.2424,0.7396 0.5008,1.4756 0.8056,2.1918 0.674,1.5836 1.4396,3.127 2.129,4.7042 0.2876,0.6578 0.58,1.3162 0.8014,1.9992 0.8698,2.6846 1.499,5.448002 2.4702,8.097402 0.4994,1.3626 1.3174,2.587 1.9284,3.9032 0.3666,0.7898 0.7404,1.5816 1.0034,2.4114 0.4844,1.5278 0.849,3.0914 1.234,4.6472 0.3592,1.4512 0.6038,2.9306 0.9982,4.3726 0.2844,1.0404 0.6438,2.0606 1.0358,3.0654 0.2092,0.5358 0.4896,1.0418 0.7638,1.5474 0.5148,0.9488 1.0926,1.862601 1.6024,2.814001 0.4126,0.7698 0.8376,1.5372 1.1638,2.3474 0.6198,1.5396 1.0774,3.140396 1.6698,4.690796 0.2338,0.6116 0.4654,1.232 0.8068,1.7904 0.5988,0.9794 1.3092,1.8868 2.0014,2.8024 0.1478,0.1956 0.377,0.3224 0.5148,0.5252 0.4366,0.643 0.8172,1.323 1.1996,1.9996 0.9126,1.6148 1.7514,3.2712 2.685,4.874 0.1808,0.3104 0.3844,0.6184 0.6528,0.8572 0.3472,0.3092 0.7638,0.533 1.1676,0.7634 0.678,0.3864 1.4208,0.659 2.0744,1.0852 0.8848,0.5772 1.645,1.3312 2.5256,1.9148 0.4736,0.3136 0.9644,0.656 1.5214,0.767 1.7154,0.3418 3.4734,0.4218 5.2158,0.5754 0.336,0.0296 0.6818,0.0442 1.0118,-0.0268 0.5428,-0.1164 1.063,-0.3256 1.5794,-0.5296 1.2642,-0.4994 2.523,-1.0156 3.7596,-1.5798 0.9466,-0.4318 1.8888,-0.88 2.7864,-1.4062 0.7022,-0.4118 1.3522,-0.9086 2.0008,-1.4004 0.195,-0.1478 0.3248,-0.3718 0.524,-0.514 0.7372,-0.5266 1.5512,-0.9424 2.276,-1.486 0.6118,-0.459 1.1226,-1.0416 1.724,-1.514 0.3344,-0.2628 0.7358,-0.4308 1.076,-0.686 0.1958,-0.1468 0.333,-0.3612 0.524,-0.514 0.1446,-0.1156 0.3376,-0.1632 0.476,-0.286 0.4298,-0.3816 0.8454,-0.7824 1.219,-1.219 0.397,-0.4642 0.7044,-0.999 1.086,-1.476 0.1528,-0.1912 0.3648,-0.33 0.514,-0.524 0.5188,-0.6746 0.9672,-1.4016 1.486,-2.076 0.1492,-0.194 0.3612,-0.333 0.514,-0.524 0.1156,-0.1446 0.1608,-0.3398 0.286,-0.476 0.6256,-0.681 1.336,-1.281 1.9574,-1.9656 0.07,-0.0772 0.0966,-0.193 0.0966,-0.2972 0,-0.234 -0.022,-0.4734 -0.0964,-0.6954 -0.0278,-0.0826 -0.1092,-0.161 -0.1954,-0.174 -0.167,-0.025 -0.3688,-0.0346 -0.5016,0.0696 -0.2608,0.205 -0.3732,0.552 -0.599,0.795 -0.6626,0.7128 -1.4386,1.3198 -2.0616,2.0676 -1.0476,1.257 -1.884,2.6812 -2.9384,3.9324 -0.7184,0.8524 -1.5214,1.6358 -2.3666,2.3626 -0.5748,0.4944 -1.2738,0.8254 -1.876,1.286 -0.5328,0.4074 -0.9874,0.9116 -1.524,1.314 -0.5326,0.3994 -1.1344,0.699 -1.676,1.086 -0.393,0.2806 -0.7244,0.6428 -1.124,0.914 -0.859,0.583 -1.748,1.1216 -2.645,1.6442 -0.3668,0.2136 -0.752,0.3954 -1.1422,0.5624 -1.4564,0.6236 -2.9222,1.226 -4.3958,1.8084 -0.3068,0.1214 -0.6166,0.2522 -0.9428,0.3014 -0.3992,0.0604 -0.8082,0.0536 -1.2108,0.0238 -1.3032,-0.0964 -2.6024,-0.2434 -3.8994,-0.4016 -0.2344,-0.0286 -0.4712,-0.0708 -0.6902,-0.1588 -0.398,-0.1596 -0.7886,-0.3462 -1.1486,-0.5792 -0.56,-0.3624 -1.082,-0.7818 -1.6012,-1.2006 -0.1908,-0.1538 -0.315,-0.3886 -0.5252,-0.5146 -0.7968,-0.4782 -1.659,-0.8384 -2.474,-1.285 -0.211,-0.1158 -0.4152,-0.2472 -0.6008,-0.4004 -0.2054,-0.1694 -0.396,-0.3584 -0.5666,-0.5626 -0.1706,-0.2042 -0.3206,-0.4264 -0.4528,-0.6574 -1.1142,-1.947 -2.086,-3.978 -3.2852,-5.874 -0.869,-1.3744 -2.0088,-2.562 -2.9068,-3.9176 -0.2816,-0.425 -0.4334,-0.924 -0.6158,-1.4002 -0.647,-1.69 -1.1284,-3.445996 -1.8712,-5.095996 -1.06,-2.3552 -2.4148,-4.567602 -3.5272,-6.898401 -0.328,-0.687201 -0.592,-1.4082 -0.7882,-2.144001 -0.4832,-1.813999 -0.7988,-3.668999 -1.2466,-5.492 -0.3212,-1.3082 -0.6428,-2.6186 -1.0594,-3.8996 -0.264,-0.8116 -0.6196,-1.5918 -0.9786,-2.3662 -0.6104,-1.3166 -1.429,-2.5408 -1.9286,-3.9034 -0.9704,-2.6476 -1.5988,-5.408802 -2.468,-8.091202 -0.222,-0.685 -0.515,-1.3456 -0.8034,-2.0054 -0.6892,-1.577 -1.4546,-3.1206 -2.129,-4.704 -0.3146,-0.7388 -0.5864,-1.496 -0.8366,-2.2592 -0.6282,-1.917 -1.1698,-3.8616 -1.7974,-5.7788 -0.1842,-0.5626 -0.4076,-1.1122 -0.637,-1.6578 -0.2544,-0.6056 -0.5226,-1.206 -0.8142,-1.7946 -0.4844,-0.978 -1.0472,-1.9166 -1.513,-2.9038 -0.3072,-0.6512 -0.5794,-1.3208 -0.8034,-2.0052 -0.588,-1.7966 -1.0294,-3.6394 -1.631,-5.4314 -0.2766,-0.824 -0.581,-1.6468 -1.0012,-2.4076 -1.3174,-2.3856 -2.8824,-4.629 -4.202,-7.0136 -0.7496,-1.355 -1.303,-2.8102 -1.9992,-4.1934 -0.6512,-1.2942 -1.3152,-2.5834 -2.0422,-3.8368 -1.0214,-1.7606 -2.0256,-3.5384 -3.2004,-5.2008 -0.4404,-0.6234 -1.0274,-1.1368 -1.619,-1.619 -0.5052,-0.4116 -1.0698,-0.7526 -1.6516,-1.0462 -0.9044,-0.4564003 -1.8444,-0.8420003 -2.793,-1.1970003 -1.1462,-0.4292 -2.3156,-0.7952 -3.486,-1.1532 -0.4622,-0.1414 -0.929,-0.2852 -1.4086,-0.3438 -0.4008,-0.049 -0.8114,-0.0332 -1.2112,0.0234 -0.872,0.123 -1.7336,0.3144 -2.5912,0.5136 -0.7258,0.1684 -1.4438,0.3712 -2.1564,0.5884 -1.4684,0.448 -2.957,0.8454 -4.3858,1.4070003 -1.303,0.5122 -2.5632,1.1354 -3.7912,1.8074 -0.9736,0.5328 -1.8868,1.1712 -2.801,1.8004 -0.5952,0.4096 -1.136,0.894 -1.724,1.314 -0.346,0.2472 -0.7358,0.4308 -1.076,0.686 -0.4614,0.346 -0.8686,0.7598 -1.324,1.114 -0.146,0.1136 -0.34,0.1604 -0.476,0.286 -0.734,0.6776 -1.39,1.4364 -2.124,2.114 -0.136,0.1256 -0.3422,0.158 -0.476,0.286 -1.3506,1.2918 -2.6738,2.6128 -3.9666,3.9626 -0.1454,0.1518 -0.1986,0.3754 -0.3384,0.5324 -0.4134,0.4644 -0.9006,0.8596 -1.314,1.324 -0.1398,0.157 -0.2038,0.3708 -0.3384,0.5324 -0.2006,0.2408 -0.4616,0.4264 -0.6616,0.6676 -0.118,0.1426 -0.1656,0.3354 -0.286,0.476 -0.282,0.329 -0.64,0.5884 -0.914,0.924 -0.6324,0.7746 -1.2182,1.5866 -1.8,2.4 -0.2474,0.346 -0.4156,0.7476 -0.686,1.076 -0.6658,0.8084 -1.4764,1.4932 -2.114,2.324 -1.1374,1.482 -2.19,3.0296 -3.2004,4.601 -0.6728,1.0462 -1.25,2.1512 -1.8438,3.244 -0.7546,1.3888 -1.534,2.7668 -2.2008,4.1998 -0.6132,1.3182 -1.0786,2.7002 -1.6342,4.0438 -0.194,0.4696 -0.3906,0.9386 -0.6144,1.3948 -0.1526,0.311 -0.3706,0.588 -0.5128,0.9038 -1.4962,3.3202 -2.956,6.657 -4.4004,10.0002 -0.2346,0.5432 -0.4536,1.0944 -0.6364,1.6572 -0.429,1.3194 -0.7668,2.6674 -1.1984,3.986 -0.3802,1.161802 -0.7682,2.323402 -1.2362,3.452602 -0.8122,1.959 -1.6948,3.8888 -2.6016,5.8056 -0.4034,0.8526 -0.9476,1.6354 -1.3274,2.4986 -1.0882,2.4732 -2.0174,5.0136 -3.0724,7.5012 -0.2238,0.528 -0.4846,1.0406 -0.7626,1.5424 -0.6296,1.1364 -1.3332,2.231 -1.9586,3.3698 -1.3228,2.409802 -2.495,4.902802 -3.8852,7.274402 -1.4404,2.457196 -3.0144,4.834796 -4.6004,7.200796 -0.321,0.479 -0.7586,0.8698 -1.114,1.324 -0.1296,0.1656 -0.1894,0.384 -0.3384,0.5324 -0.3372,0.336 -0.7544,0.583 -1.1046,0.9056 -0.4714,0.4342 -0.9296,0.8844 -1.357,1.362 -0.1402,0.1566 -0.1922,0.3812 -0.3384,0.5324 -1.6246,1.6838 -3.2606,3.3594 -4.9666,4.9626 -0.554,0.521 -1.144,1.0192 -1.802,1.4006 -1.08,0.6266 -2.236,1.1144 -3.386,1.6062 -1.064,0.4564 -2.156,0.8516 -3.25,1.236 -1.286,0.4522 -2.582,0.879 -3.888,1.2736 -0.132,0.0398 -0.274,0.0264 -0.412,0.0264 -0.738,0 -1.488,0.1106 -2.212,-0.0264 -0.944,-0.1782 -1.838,-0.5624 -2.734,-0.9086 -0.518,-0.2006 -0.992,-0.5054 -1.504,-0.7284 -0.558,-0.2444 -1.144,-0.4226 -1.7,-0.6728 -0.542,-0.2432 -1.066,-0.523 -1.588,-0.8062 -0.34,-0.1856 -0.676,-0.3824 -0.998,-0.5996 -0.298,-0.201 -0.598,-0.4056 -0.858,-0.6532 -1.082,-1.0276 -2.17,-2.053 -3.162,-3.1666 -0.666,-0.7464 -1.22,-1.5866 -1.8,-2.4 -0.248,-0.346 -0.4,-0.7612 -0.686,-1.076 -1.036,-1.1388 -2.204,-2.1504 -3.262,-3.2676 -0.146,-0.1526 -0.206,-0.3688 -0.338,-0.5324 -0.154,-0.1904 -0.376,-0.3232 -0.514,-0.524 -0.636,-0.911 -1.22,-1.855 -1.802001,-2.801 -1.22,-1.988 -2.434,-3.979996 -3.6,-5.999796 -0.382,-0.6628 -0.71599,-1.3528 -1.04399,-2.044 -0.208,-0.4382 -0.394,-0.8874 -0.564,-1.342 -1.374,-3.694002 -2.648,-7.425602 -4.068,-11.102402 -0.848,-2.1932 -1.968,-4.2794 -2.732,-6.503 -0.638,-1.8548 -0.90803,-3.8178 -1.46203,-5.6994 -0.582,-1.9828 -1.324,-3.915602 -1.944,-5.886802 -0.57,-1.809 -1.058,-3.643 -1.626,-5.4524 -0.386,-1.226 -0.794,-2.4458 -1.236,-3.6524 -0.214,-0.58 -0.514,-1.1252 -0.732,-1.7036 -0.904,-2.4096 -1.808,-4.8204 -2.634,-7.2582 -1.264,-3.7306 -2.368,-7.5144 -3.634,-11.2442 -0.348,-1.02 -0.782,-2.0078 -1.202,-2.9998 -0.358,-0.843 -0.796,-1.6508 -1.13,-2.5038 -0.734,-1.8802 -1.296,-3.8262 -2.068,-5.6904 -0.506,-1.2198 -1.142,-2.3834 -1.764,-3.5478 -0.448,-0.834 -0.926,-1.6518 -1.444,-2.4438 -0.366,-0.5584 -0.756,-1.1042 -1.2,-1.6012 -0.698,-0.7794 -1.454,-1.5068 -2.22,-2.219 -0.154,-0.1432 -0.376,-0.1978 -0.532,-0.3384 -0.514,-0.4618 -0.954,-0.9998 -1.468,-1.4616 -0.156,-0.1406 -0.376,-0.1986 -0.532,-0.3384 -0.446,-0.396 -0.822,-0.8656 -1.268,-1.2616 -0.158,-0.1396 -0.368,-0.207 -0.532,-0.3384 -0.172,-0.1368 -0.292,-0.3324 -0.468,-0.4616 -0.33,-0.2414 -0.684,-0.4504 -1.044,-0.6442003 -0.638,-0.3428 -1.278,-0.6902 -1.948,-0.9638 -0.784,-0.3194 -1.592,-0.5762 -2.406,-0.811 -0.7,-0.2022 -1.408,-0.3856 -2.128,-0.4978 -0.398,-0.0624 -0.81,-0.061 -1.212,-0.0232 -0.208,0.0198 -0.392,0.1686 -0.6,0.194 -0.33,0.04 -0.67,0.0558 -0.998,2e-4 -0.41,-0.0694 -0.778,-0.3166 -1.19,-0.3708 -0.536,-0.0706 -1.1,-0.14 -1.624,4e-4 -0.888,0.2388 -1.712,0.6808 -2.524,1.1148 -0.636,0.3408 -1.208,0.7904 -1.802,1.2014 -0.274,0.1898 -0.552,0.3782003 -0.8,0.6000003 -0.394,0.3508 -0.726,0.7666 -1.124,1.114 -0.14,0.1218 -0.336,0.1642 -0.476,0.286 -0.396,0.3474 -0.728,0.7662 -1.124,1.114 -0.158,0.1386 -0.376,0.1982 -0.532,0.3384 -0.46,0.4118 -0.898,0.8498 -1.31,1.3102 -0.14,0.1566 -0.2,0.3754 -0.338,0.5324 -0.414,0.4644 -0.91,0.8526 -1.314,1.324 -0.436,0.5054 -0.82,1.0532 -1.2,1.6 -0.382,0.546 -0.706,1.1306 -1.088,1.676 -0.086,0.1232 -0.232,0.1974 -0.312,0.324 -0.76,1.1844 -1.51,2.376 -2.202,3.6008 -0.51,0.906 -0.978,1.8382 -1.406,2.7864 -0.774,1.7172 -1.502,3.456 -2.202,5.2058 -0.726,1.8182 -1.306,3.6934 -2.07,5.4958 -0.904,2.1318 -1.974,4.1888 -2.928,6.2986 -0.69,1.525 -1.432,3.0308 -2,4.605 -1.058,2.9292 -1.826,5.957 -2.87,8.8908 -0.358,1.0028 -0.906,1.9272 -1.33,2.904 -0.444,1.0254 -0.802,2.0878 -1.272,3.1014 -0.46,0.9902 -1.03,1.9256 -1.514,2.904 -0.226,0.457 -0.444,0.92 -0.616,1.4002 -0.636,1.783202 -1.2319997,3.581002 -1.8059997,5.385602 -0.638,2.0086 -1.142,4.0604 -1.828,6.053 -0.578,1.68 -1.342,3.291 -1.9660002,4.9554 -0.3680004,0.9854 -0.6940004,1.9866 -1.0060004,2.9912 -0.28,0.9 -0.576,1.7984 -0.77,2.7206 -0.308,1.4638 -0.524,2.9456 -0.732,4.4268"
     fill="#000000"
     style="fill:#bfbfbf;fill-opacity:1;stroke:#bfbfbf;stroke-width:1;stroke-miterlimit:4;stroke-dasharray:none;stroke-opacity:1" />
  <path
     style="fill:#319ad7;fill-opacity:1;stroke:#319ad7;stroke-width:2;stroke-miterlimit:4;stroke-dasharray:none;stroke-opacity:1"
     fill="#000000"
     d="m 4.4643587,81.22879 c 0,0 0,0 0,0 0.1155148,0.08609 0.185222,0.197865 0.3465442,0.258389 0.089623,0.03399 0.2310296,0.02136 0.3306113,-0.0049 0.1394143,-0.03679 0.3027283,-0.09041 0.3365861,-0.17208 0.376419,-0.905818 0.531766,-1.834939 0.872335,-2.744748 0.151364,-0.406086 0.378411,-0.803433 0.605456,-1.198946 0.374427,-0.650234 0.768772,-1.29777 1.200956,-1.937215 0.48795,-0.718094 1.101373,-1.410512 1.559449,-2.133893 0.7906777,-1.245229 1.4399507,-2.515488 2.1888047,-3.768377 0.5238,-0.877011 1.061541,-1.751973 1.629156,-2.620786 0.163314,-0.246629 0.354512,-0.487649 0.561641,-0.723921 0.565625,-0.644731 1.208923,-1.269395 1.758613,-1.918334 0.525792,-0.620781 0.957976,-1.263462 1.465844,-1.888666 0.223062,-0.275112 0.541723,-0.527782 0.724954,-0.811201 1.001792,-1.542457 1.860185,-3.111023 2.824136,-4.660169 0.187213,-0.302515 0.404302,-0.599851 0.633339,-0.89395 0.647281,-0.83116 1.304521,-1.660054 1.991634,-2.481396 0.683131,-0.814977 1.435968,-1.611828 2.119098,-2.426805 0.356503,-0.425829 0.685122,-0.858455 0.997809,-1.294426 0.57359,-0.804188 1.067515,-1.625422 1.661023,-2.425294 0.75682,-1.017049 1.567415,-2.022446 2.391951,-3.023851 0.240989,-0.292265 0.517825,-0.575792 0.802629,-0.855866 0.448117,-0.437049 0.904202,-0.871833 1.394143,-1.294533 0.639315,-0.54882 1.308503,-1.086528 1.993626,-1.618841 0.37841,-0.295286 0.776737,-0.583236 1.19498,-0.863095 0.151364,-0.102708 0.358494,-0.179631 0.51185,-0.282663 0.113522,-0.078 0.157338,-0.184378 0.284803,-0.25677 1.087433,-0.620457 2.202747,-1.226349 3.347936,-1.816059 0.151364,-0.07822 0.372436,-0.107778 0.529775,-0.182544 0.394343,-0.187615 0.724954,-0.413314 1.119298,-0.600929 0.157339,-0.07477 0.368452,-0.109937 0.529775,-0.182545 0.240987,-0.10821 0.41426,-0.256555 0.665205,-0.356889 0.519816,-0.208006 1.069508,-0.397024 1.639115,-0.563277 0.734913,-0.215018 1.467834,-0.452261 2.270462,-0.578273 0.454093,-0.0712 0.950009,-0.03366 1.418043,-3.24e-4 0.474005,0.03377 0.914156,0.156112 1.384182,0.20013 0.197171,0.01845 0.404301,0.0063 0.601473,-0.01446 0.139415,-0.01467 0.250946,-0.0848 0.392352,-0.0903 0.533758,-0.02071 1.077473,-0.03517 1.605257,0.01252 0.924117,0.08361 1.830311,0.226346 2.724554,0.378682 0.661222,0.11285 1.30452,0.260979 1.93786,0.415257 0.559648,0.136261 1.107349,0.286439 1.635131,0.455498 0.286795,0.0916 0.549691,0.2052 0.798645,0.323984 0.324637,0.15417 0.593507,0.340922 0.920135,0.493042 0.139414,0.06495 0.336586,0.08793 0.474009,0.154278 0.462059,0.222787 0.856402,0.485814 1.318461,0.708816 0.15734,0.07541 0.374427,0.1067 0.529775,0.182545 0.491934,0.239724 0.914159,0.520446 1.406093,0.76017 0.155347,0.07585 0.372435,0.107887 0.529775,0.182545 0.360486,0.170676 0.71898,0.346424 1.015733,0.549683 0.707029,0.48549 1.392152,0.983927 1.991633,1.510846 0.679147,0.597046 1.232822,1.23293 1.834295,1.853926 0.197172,0.204877 0.410276,0.407273 0.563632,0.623154 0.720971,1.016078 1.330411,2.055351 2.05935,3.069595 0.332602,0.460029 0.778728,0.894058 1.125273,1.350743 0.617406,0.813789 1.244771,1.62704 1.772553,2.459494 0.555666,0.879062 0.961959,1.784448 1.477792,2.670738 0.497909,0.855218 1.017725,1.707092 1.565424,2.553356 0.848437,1.310177 1.724755,2.615067 2.622982,3.915319 0.296754,0.428634 0.697072,0.836122 0.961959,1.270582 1.57339,2.568785 3.106949,5.145121 4.552875,7.735375 0.48795,0.871618 0.800636,1.769559 1.250745,2.64711 0.167298,0.328731 0.368453,0.653147 0.603466,0.969687 0.740917,0.99601 1.607278,1.964186 2.322274,2.965699 1.543516,2.162914 2.877911,4.368336 4.44931,6.525101 0.382393,0.522928 0.894242,1.01597 1.402102,1.5061 1.02171,0.983604 2.09719,1.950916 3.18662,2.912835 0.703041,0.62078 1.445921,1.228614 2.192781,1.834615 0.18323,0.149638 0.3804,0.295394 0.59749,0.431547 0.21908,0.138526 0.49393,0.250405 0.71102,0.39055 0.13343,0.08696 0.19517,0.202827 0.33659,0.287194 0.42819,0.257958 0.88627,0.501998 1.36027,0.735033 0.21112,0.103679 0.51186,0.152228 0.69309,0.272414 0.95002,0.636532 1.68293,1.365311 2.67477,1.982954 1.22087,0.760601 2.57717,1.455825 3.94542,2.139724 0.37045,0.18524 0.81459,0.32388 1.25075,0.46003 0.66122,0.20563 1.34236,0.39292 2.03545,0.56349 1.36228,0.33445 2.73054,0.6607 4.12467,0.95102 0.76479,0.15892 1.53356,0.33478 2.34415,0.39498 0.92412,0.0687 1.89007,0.10432 2.79826,-0.0129 2.09519,-0.27036 4.09479,-0.72867 6.11231,-1.13723 1.28062,-0.25915 2.53735,-0.55433 3.77814,-0.8645 0.35052,-0.0877 0.67317,-0.20714 0.98983,-0.32668 0.54572,-0.20542 1.07748,-0.42152 1.59331,-0.647328 0.18921,-0.08289 0.33062,-0.194844 0.52181,-0.277269 0.14339,-0.06239 0.34057,-0.08595 0.47401,-0.154278 0.91018,-0.462619 1.79447,-0.940881 2.65086,-1.433051 0.19319,-0.111771 0.29676,-0.264215 0.49393,-0.374799 1.51743,-0.854898 3.20235,-1.623915 4.6415,-2.517865 0.84745,-0.52638 1.48775,-1.141442 2.1912,-1.726728 1.15594,-0.961487 2.32682,-1.919198 3.38578,-2.912835 1.29436,-1.214697 2.42063,-2.479886 3.66978,-3.708285 0.62437,-0.613768 1.33001,-1.20283 1.9504,-1.817785 0.41626,-0.412667 0.81479,-0.831699 1.15774,-1.26357 1.06354,-1.338982 1.97371,-2.713028 3.06015,-4.046617 0.38817,-0.476752 0.94821,-0.907759 1.35949,-1.378685 0.89344,-1.022982 1.75522,-2.054704 2.55247,-3.100666 0.46445,-0.609344 0.85203,-1.235411 1.23063,-1.862018 0.4298,-0.711298 0.76619,-1.438563 1.19359,-2.1504 0.18224,-0.303701 0.40112,-0.600821 0.63394,-0.894166 1.17386,-1.479451 2.36028,-2.956097 3.58494,-4.423357 0.41127,-0.492719 0.91695,-0.96138 1.32185,-1.455717 0.86178,-1.05168 1.54769,-2.145868 2.47659,-3.18061 1.02509,-1.141658 2.21569,-2.237572 3.37782,-3.339959 0.42938,-0.40738 0.90817,-0.799225 1.39453,-1.187294 0.0842,-0.0671 0.22426,-0.109397 0.31269,-0.174776 0.6427,-0.474702 1.19438,-0.985977 1.87811,-1.443525 0.44872,-0.300249 1.04701,-0.527243 1.50767,-0.822098 0.27365,-0.175208 0.43676,-0.393786 0.68313,-0.58043 0.57937,-0.438776 1.17446,-0.871618 1.79247,-1.294642 0.15117,-0.103463 0.35968,-0.179631 0.51185,-0.282663 0.11511,-0.078 0.1669,-0.180063 0.2848,-0.256771 0.21609,-0.140468 0.49493,-0.250081 0.71101,-0.39055 0.11811,-0.07671 0.16491,-0.180926 0.28481,-0.25677 0.28082,-0.177474 0.62935,-0.320963 0.91017,-0.498437 0.1201,-0.07585 0.16153,-0.182545 0.28481,-0.256771 0.477,-0.287086 1.03047,-0.535118 1.50766,-0.822097 0.14021,-0.08426 0.194,-0.204445 0.33699,-0.287195 0.80542,-0.465963 1.63951,-0.9179 2.4997,-1.354086 0.17128,-0.08685 0.41446,-0.124286 0.58654,-0.210811 0.77892,-0.391845 1.45807,-0.840654 2.25791,-1.219984 0.81915,-0.3885 1.70843,-0.731904 2.58913,-1.078868 1.31108,-0.516454 2.62915,-1.028484 3.98426,-1.51063 0.5702,-0.202935 1.17586,-0.376202 1.78569,-0.542239 0.84904,-0.231202 1.6925,-0.475457 2.58734,-0.648616 2.06512,-0.399396 4.16589,-0.744742 6.27683,-1.065921 0.8576,-0.130435 1.7375,-0.218255 2.619,-0.28741 0.39793,-0.03129 0.80701,-0.03927 1.20613,-0.01262 0.4762,0.03183 0.94124,0.106484 1.39793,0.186644 1.31986,0.231633 2.64489,0.459814 3.92651,0.747763 0.95837,0.21545 1.87372,0.484951 2.77952,0.7592 0.29018,0.08782 0.5479,0.205308 0.79785,0.323984 0.28918,0.137232 0.56223,0.285144 0.81557,0.441796 0.21908,0.135398 0.42402,0.278887 0.59829,0.432194 0.88887,0.782611 1.74467,1.576226 2.58872,2.373294 0.7638,0.721331 1.5242,1.444172 2.23422,2.181362 0.30014,0.311901 0.50966,0.647429 0.79366,0.963753 0.59311,0.660375 1.1657,1.327655 1.83689,1.965697 1.17705,1.11857 2.56741,2.169819 3.70424,3.30058 0.38139,0.37933 0.59111,0.803109 0.83529,1.214374 0.51782,0.87248 0.92432,1.763733 1.4495,2.634919 0.21729,0.360449 0.48039,0.713347 0.77635,1.056858 0.73591,0.854356 1.58195,1.680013 2.31747,2.534477 0.24914,0.289352 0.4503,0.590895 0.63433,0.894273 0.63453,1.046394 1.18761,2.106921 1.82075,3.153638 0.24139,0.398966 0.4987,0.795989 0.80223,1.182332 0.67118,0.854247 1.43358,1.686809 2.12009,2.537605 0.2864,0.354839 0.57758,0.710002 0.79806,1.078436 0.86615,1.448164 1.49272,2.938836 2.45986,4.368013 0.49731,0.735032 1.31189,1.395515 1.92033,2.105518 0.36507,0.426045 0.7373,0.853169 0.9992,1.300791 0.48237,0.824147 0.84546,1.667606 1.22884,2.506857 0.3577,0.782826 0.60128,1.580865 0.99403,2.358729 0.2832,0.561227 0.6411,1.111557 1.03146,1.65358 0.20833,0.289029 0.48755,0.561982 0.7606,0.83472 0.51265,0.511815 1.08804,1.00475 1.59571,1.517968 0.41087,0.415256 0.83409,0.829218 1.15893,1.266267 0.61721,0.830513 1.07289,1.694038 1.66282,2.530377 0.23281,0.329917 0.46344,0.664582 0.80342,0.965802 0.59629,0.528322 1.30372,1.017804 1.99302,1.51171 0.14718,0.105513 0.37542,0.173913 0.51266,0.28331 0.43476,0.346856 0.81377,0.713671 1.19458,1.078652 0.90877,0.871078 1.74406,1.7646 2.67376,2.629196 0.18004,0.16744 0.38279,0.333585 0.65007,0.462402 0.34575,0.166793 0.7606,0.287519 1.16271,0.411804 0.67517,0.208437 1.41486,0.355487 2.06573,0.585394 0.8811,0.311361 1.63811,0.718093 2.51503,1.032913 0.47162,0.16916 0.96037,0.35387 1.51503,0.41374 1.70823,0.18438 3.45888,0.22754 5.19399,0.31039 0.3346,0.016 0.67895,0.0238 1.00757,-0.0145 0.54052,-0.0628 1.05855,-0.17564 1.57279,-0.28569 1.25891,-0.26939 2.51245,-0.54785 3.74388,-0.85219 0.94263,-0.232933 1.88089,-0.474708 2.77473,-0.758558 0.69927,-0.222139 1.34655,-0.490129 1.99244,-0.755423 0.19418,-0.07975 0.32344,-0.200561 0.5218,-0.277269 0.73412,-0.284066 1.54471,-0.508353 2.26649,-0.80159 0.60924,-0.2476 1.1179,-0.561878 1.71679,-0.816706 0.33299,-0.141763 0.73271,-0.232388 1.07149,-0.370052 0.19498,-0.07919 0.3316,-0.194843 0.52181,-0.277269 0.14399,-0.06236 0.33618,-0.08804 0.47401,-0.154278 0.428,-0.205848 0.84187,-0.422053 1.2139,-0.65757 0.39534,-0.250405 0.70145,-0.538894 1.08146,-0.796204 0.15216,-0.10314 0.36327,-0.178013 0.51184,-0.282664 0.51664,-0.363902 0.96316,-0.75607 1.47979,-1.119864 0.14858,-0.104651 0.35969,-0.179632 0.51185,-0.282664 0.11512,-0.078 0.16013,-0.183299 0.28481,-0.25677 0.62298,-0.367355 1.33041,-0.691015 1.94921,-1.060312 0.0697,-0.04164 0.0962,-0.10411 0.0962,-0.160319 0,-0.126228 -0.0219,-0.255368 -0.096,-0.375123 -0.0277,-0.04456 -0.10875,-0.08685 -0.19458,-0.09386 -0.16631,-0.01349 -0.36727,-0.01866 -0.49951,0.03754 -0.25971,0.110584 -0.37164,0.297768 -0.59649,0.42885 -0.65983,0.384509 -1.43259,0.711945 -2.05298,1.115334 -1.04321,0.678068 -1.87612,1.44633 -2.92611,2.12127 -0.71539,0.459813 -1.51503,0.882406 -2.3567,1.274466 -0.5724,0.266696 -1.26847,0.445249 -1.86815,0.693712 -0.53057,0.219766 -0.98327,0.491748 -1.51762,0.70882 -0.53037,0.21545 -1.12966,0.377064 -1.66899,0.585825 -0.39136,0.151356 -0.72137,0.346739 -1.11931,0.493034 -0.8554,0.31449 -1.74068,0.605029 -2.63393,0.886937 -0.36526,0.115223 -0.74885,0.213292 -1.13742,0.303378 -1.45031,0.33639 -2.90998,0.661349 -4.37741,0.975519 -0.30552,0.0654 -0.61402,0.13604 -0.93885,0.16258 -0.39753,0.0326 -0.80483,0.0289 -1.20574,0.0129 -1.29775,-0.052 -2.59152,-0.1313 -3.88309,-0.21664 -0.23342,-0.0155 -0.46923,-0.0382 -0.68731,-0.0857 -0.39633,-0.0861 -0.7853,-0.18675 -1.1438,-0.31244 -0.55766,-0.195493 -1.07748,-0.421732 -1.5945,-0.647647 -0.19,-0.08298 -0.31369,-0.209624 -0.523,-0.277592 -0.79347,-0.257957 -1.65207,-0.452262 -2.46365,-0.693173 -0.21012,-0.06248 -0.41347,-0.133348 -0.59829,-0.215989 -0.20454,-0.09138 -0.39435,-0.193333 -0.56423,-0.303486 -0.16988,-0.110143 -0.31926,-0.230005 -0.45091,-0.354614 -1.10954,-1.050282 -2.07727,-2.145872 -3.27146,-3.168639 -0.86535,-0.741398 -2.00039,-1.382029 -2.89463,-2.113286 -0.28043,-0.229259 -0.43159,-0.498437 -0.61322,-0.755315 -0.6443,-0.911643 -1.12369,-1.858889 -1.86338,-2.748955 -1.05557,-1.270475 -2.4047,-2.463919 -3.51244,-3.721232 -0.32664,-0.370699 -0.58953,-0.759631 -0.78491,-1.156546 -0.48118,-0.978533 -0.79546,-1.979183 -1.24138,-2.962571 -0.31986,-0.705687 -0.64012,-1.412562 -1.05497,-2.103576 -0.2629,-0.437805 -0.61701,-0.858671 -0.97451,-1.276409 -0.60785,-0.710218 -1.42302,-1.370593 -1.92053,-2.105626 -0.96635,-1.428205 -1.59212,-2.917691 -2.45767,-4.364668 -0.22107,-0.369513 -0.51285,-0.725863 -0.80004,-1.081781 -0.68632,-0.850687 -1.44852,-1.683358 -2.1201,-2.537497 -0.31329,-0.398534 -0.58395,-0.806993 -0.8331,-1.218689 -0.62558,-1.034095 -1.16491,-2.083078 -1.78988,-3.117281 -0.18343,-0.303485 -0.40589,-0.599958 -0.63433,-0.894273 -0.25334,-0.326681 -0.52042,-0.650557 -0.8108,-0.968068 -0.48238,-0.527567 -1.04282,-1.033879 -1.50667,-1.566408 -0.30592,-0.35128 -0.57698,-0.712485 -0.80004,-1.081673 -0.58554,-0.969147 -1.02509,-1.963216 -1.62418,-2.929881 -0.27544,-0.444494 -0.57857,-0.88834 -0.99701,-1.298741 -1.31189,-1.286874 -2.87035,-2.49704 -4.18442,-3.783374 -0.74646,-0.730933 -1.29755,-1.515917 -1.99084,-2.262062 -0.64847,-0.698135 -1.3097,-1.393573 -2.03366,-2.0697 -1.01713,-0.949727 -2.01712,-1.908733 -3.18701,-2.805488 -0.43856,-0.336283 -1.0231,-0.613228 -1.61222,-0.873343 -0.5031,-0.222031 -1.06533,-0.405978 -1.6447,-0.564356 -0.90061,-0.246197 -1.83668,-0.454203 -2.78132,-0.645702 -1.14139,-0.231525 -2.30591,-0.428958 -3.47141,-0.622075 -0.46027,-0.07628 -0.92511,-0.153847 -1.40271,-0.185458 -0.39912,-0.02643 -0.808,-0.01791 -1.20613,0.01262 -0.86835,0.06635 -1.72635,0.169598 -2.58036,0.277053 -0.72276,0.09084 -1.43776,0.200238 -2.14739,0.317403 -1.46225,0.241667 -2.94462,0.456038 -4.36745,0.758984 -1.29755,0.276298 -2.55247,0.612473 -3.77533,0.974972 -0.96953,0.287411 -1.87892,0.631785 -2.78929,0.971197 -0.59271,0.220952 -1.13125,0.482254 -1.71678,0.708816 -0.34456,0.133348 -0.73273,0.232388 -1.07151,0.370052 -0.45947,0.186644 -0.86496,0.409862 -1.31845,0.600929 -0.1454,0.06128 -0.33858,0.08653 -0.47401,0.154278 -0.73094,0.365521 -1.3842,0.774843 -2.11512,1.140364 -0.13543,0.06775 -0.34077,0.08523 -0.47401,0.154278 -1.34495,0.69684 -2.66261,1.409433 -3.95,2.13756 -0.1448,0.08189 -0.19778,0.202504 -0.33699,0.287195 -0.41167,0.250513 -0.89683,0.463697 -1.30851,0.714211 -0.13921,0.08469 -0.20294,0.200022 -0.33698,0.287194 -0.19976,0.129896 -0.45967,0.230015 -0.65883,0.360126 -0.11751,0.07692 -0.16491,0.180926 -0.28481,0.256771 -0.28081,0.177473 -0.63732,0.317403 -0.91017,0.498437 -0.62976,0.417845 -1.21311,0.855865 -1.79247,1.294641 -0.24637,0.186644 -0.41386,0.403281 -0.68313,0.580431 -0.66301,0.436078 -1.47023,0.805483 -2.10516,1.253644 -1.13264,0.799441 -2.18084,1.634269 -3.18701,2.481935 -0.66999,0.564356 -1.24478,1.160431 -1.83609,1.749924 -0.75144,0.749166 -1.52759,1.492506 -2.1916,2.265514 -0.61062,0.711082 -1.07408,1.45658 -1.62736,2.181363 -0.19319,0.253318 -0.38896,0.506313 -0.61182,0.752403 -0.15197,0.167764 -0.36906,0.317187 -0.51066,0.48754 -1.48994,1.791028 -2.94364,3.591011 -4.38199,5.394447 -0.23363,0.29302 -0.45171,0.590356 -0.63374,0.893949 -0.4272,0.71173 -0.76359,1.438886 -1.19339,2.150184 -0.3786,0.626715 -0.76498,1.253322 -1.23103,1.86245 -0.8088,1.056751 -1.68771,2.097751 -2.59071,3.131738 -0.40171,0.459921 -0.94364,0.88219 -1.32185,1.347829 -1.08365,1.334128 -2.00896,2.704506 -3.05955,4.046402 -0.22287,0.284821 -0.48258,0.561335 -0.75941,0.832022 -0.62696,0.613013 -1.32762,1.203477 -1.9504,1.817785 -1.31727,1.299928 -2.48456,2.644737 -3.86895,3.924058 -1.43437,1.325497 -3.00179,2.608055 -4.58116,3.884356 -0.31966,0.258389 -0.75543,0.4692 -1.10934,0.71421 -0.12906,0.08933 -0.18861,0.207143 -0.33698,0.287195 -0.33579,0.18125 -0.75124,0.31449 -1.09998,0.488511 -0.46943,0.234223 -0.92571,0.477076 -1.35133,0.734709 -0.13961,0.08448 -0.19139,0.205633 -0.33698,0.287195 -1.6178,0.908302 -3.24696,1.812169 -4.94583,2.676989 -0.55167,0.281045 -1.1392,0.549791 -1.79445,0.755531 -1.07549,0.338009 -2.22665,0.601139 -3.37184,0.866439 -1.05955,0.2462 -2.14698,0.45938 -3.2364,0.66674 -1.28062,0.24393 -2.5712,0.47416 -3.87174,0.68702 -0.13145,0.0215 -0.27285,0.0142 -0.41028,0.0142 -0.73491,0 -1.48178,0.0597 -2.20274,-0.0142 -0.94005,-0.0961 -1.83032,-0.30338 -2.72257,-0.49013 -0.51583,-0.10821 -0.98785,-0.27263 -1.49771,-0.39292 -0.55566,-0.13184 -1.13922,-0.22797 -1.69288,-0.36293 -0.53973,-0.13119 -1.06154,-0.28213 -1.58136,-0.43489 -0.33858,-0.10012 -0.67317,-0.20628 -0.99382,-0.32345 -0.29676,-0.108424 -0.59551,-0.218792 -0.85442,-0.352356 -1.07747,-0.554322 -2.16092,-1.107457 -3.14877,-1.708171 -0.66321,-0.402624 -1.2149,-0.855857 -1.79247,-1.294636 -0.24696,-0.186644 -0.39833,-0.410617 -0.68313,-0.580431 -1.03167,-0.614307 -2.19478,-1.159998 -3.24836,-1.762654 -0.14538,-0.08232 -0.20514,-0.198943 -0.33659,-0.287194 -0.15335,-0.102709 -0.37442,-0.174345 -0.51184,-0.282664 -0.63335,-0.491424 -1.2149,-1.00065 -1.79447,-1.510954 -1.214891,-1.072395 -2.423811,-2.146947 -3.584931,-3.236496 -0.38041,-0.357536 -0.713,-0.729746 -1.03963,-1.102602 -0.20712,-0.23638 -0.39235,-0.478694 -0.561644,-0.723922 -1.368247,-1.992668 -2.636917,-4.00562 -4.050978,-5.98901 -0.844452,-1.183087 -1.959767,-2.308454 -2.720572,-3.507939 -0.635331,-1.000542 -0.90423,-2.059451 -1.455914,-3.074449 -0.579565,-1.06959 -1.31846,-2.112209 -1.935867,-3.175541 -0.567616,-0.975836 -1.053574,-1.965157 -1.619198,-2.941209 -0.384385,-0.661346 -0.790678,-1.319347 -1.23083,-1.970228 -0.213105,-0.312872 -0.511849,-0.606971 -0.728937,-0.91898 -0.900219,-1.29982 -1.800438,-2.600287 -2.622982,-3.915319 -1.258712,-2.012412 -2.358094,-4.053522 -3.618798,-6.065502 -0.346545,-0.550223 -0.77873,-1.083076 -1.196972,-1.618194 -0.356503,-0.454743 -0.79267,-0.890498 -1.125273,-1.350635 -0.73093,-1.014243 -1.290579,-2.063982 -2.059349,-3.069594 -0.503883,-0.658002 -1.137223,-1.285687 -1.756621,-1.913804 -0.446126,-0.449888 -0.922126,-0.891037 -1.43796,-1.318268 -0.364469,-0.30122 -0.752838,-0.595643 -1.19498,-0.863742 -0.695081,-0.420435 -1.447917,-0.812819 -2.210713,-1.197004 -0.153356,-0.07725 -0.374428,-0.1067 -0.529775,-0.182544 -0.51185,-0.249111 -0.95001,-0.539326 -1.461859,-0.788437 -0.155348,-0.07584 -0.374427,-0.107131 -0.529775,-0.182544 -0.444134,-0.213616 -0.818561,-0.466934 -1.262695,-0.68055 -0.15734,-0.07531 -0.366461,-0.111663 -0.529775,-0.182544 -0.171281,-0.0738 -0.290779,-0.179308 -0.466043,-0.249003 -0.328619,-0.130219 -0.681138,-0.242961 -1.039632,-0.347503 -0.635331,-0.184918 -1.272654,-0.372318 -1.939851,-0.519907 -0.780721,-0.172295 -1.58534,-0.310821 -2.395935,-0.437481 -0.697072,-0.109073 -1.402111,-0.208005 -2.119098,-0.26853 -0.396336,-0.03366 -0.806612,-0.03291 -1.206931,-0.01252 -0.20713,0.01068 -0.39036,0.09095 -0.597489,0.104651 -0.328621,0.02158 -0.667198,0.0301 -0.993825,1.07e-4 -0.408286,-0.03744 -0.774746,-0.170784 -1.185019,-0.200022 -0.533758,-0.03808 -1.095398,-0.07552 -1.617207,2.16e-4 -0.884285,0.128817 -1.704838,0.367247 -2.513441,0.601361 -0.63334,0.183839 -1.202947,0.426369 -1.794462,0.648076 -0.272854,0.102384 -0.549691,0.204014 -0.796653,0.32366 -0.392352,0.189234 -0.722963,0.41353 -1.119298,0.60093 -0.139415,0.0657 -0.334595,0.08857 -0.47401,0.154278 -0.394343,0.187399 -0.724954,0.413314 -1.119297,0.600929 -0.157339,0.07477 -0.374427,0.106916 -0.529775,0.182544 -0.458075,0.222139 -0.894243,0.458411 -1.30452,0.706767 -0.139415,0.08448 -0.199163,0.202503 -0.336586,0.287194 -0.412268,0.250513 -0.906194,0.459922 -1.308503,0.714211 -0.434176,0.27263 -0.81657,0.568132 -1.194981,0.863094 -0.380402,0.294531 -0.703046,0.609884 -1.083448,0.904091 -0.08564,0.06646 -0.23103,0.106484 -0.310695,0.174777 -0.756821,0.638905 -1.503684,1.281695 -2.192789,1.942393 -0.507866,0.488727 -0.973908,0.991588 -1.400118,1.503079 -0.770763,0.926316 -1.495717,1.864283 -2.192789,2.808185 -0.722963,0.980799 -1.300537,1.992345 -2.06134,2.964621 -0.900219,1.149965 -1.965743,2.25958 -2.915752,3.397678 -0.687114,0.822637 -1.42601,1.634916 -1.991634,2.484093 -1.053574,1.58011 -1.818362,3.213408 -2.857994,4.795999 -0.356502,0.540944 -0.90221,1.039597 -1.324436,1.566516 -0.442143,0.553135 -0.798645,1.12623 -1.26668,1.673 -0.458076,0.534147 -1.025692,1.038734 -1.507667,1.566516 -0.225054,0.246521 -0.442142,0.496279 -0.613423,0.755315 -0.63334,0.96192 -1.226846,1.931714 -1.798446,2.905176 -0.635331,1.083507 -1.1372227,2.190318 -1.8203527,3.265194 -0.575582,0.906249 -1.336385,1.775276 -1.957775,2.67311 -0.36646,0.531558 -0.691097,1.07164 -1.001791,1.613555 -0.278829,0.48549 -0.5735912,0.970118 -0.7667797,1.467584 -0.3067115,0.789623 -0.5218079,1.588956 -0.7289379,2.387966"
     id="path30-7" />
  <path
     style="fill:none;stroke:#319ad7;stroke-width:2.39176;stroke-linecap:round;stroke-linejoin:miter;stroke-miterlimit:4;stroke-dasharray:none;stroke-opacity:1"
     d="M 49.595975,12.524465 V 29.680292"
     id="path1561" />
  <path
     style="fill:none;stroke:#319ad7;stroke-width:2.5;stroke-linecap:round;stroke-linejoin:miter;stroke-miterlimit:4;stroke-dasharray:none;stroke-opacity:1"
     d="M 53.484957,25.411957 49.39169,29.63095 46.662847,25.833856"
     id="path1563" />
</svg>
