<?xml version="1.0" encoding="UTF-8" standalone="no"?>
<svg
   xmlns:dc="http://purl.org/dc/elements/1.1/"
   xmlns:cc="http://creativecommons.org/ns#"
   xmlns:rdf="http://www.w3.org/1999/02/22-rdf-syntax-ns#"
   xmlns:svg="http://www.w3.org/2000/svg"
   xmlns="http://www.w3.org/2000/svg"
   xmlns:sodipodi="http://sodipodi.sourceforge.net/DTD/sodipodi-0.dtd"
   xmlns:inkscape="http://www.inkscape.org/namespaces/inkscape"
   inkscape:version="1.0 (4035a4f, 2020-05-01)"
   sodipodi:docname="reverb - page 11.svg"
   id="svg1783"
   version="1.2"
   viewBox="0 0 157.64763 109.66093"
   height="109.66093"
   width="157.64763">
  <metadata
     id="metadata1789">
    <rdf:RDF>
      <cc:Work
         rdf:about="">
        <dc:format>image/svg+xml</dc:format>
        <dc:type
           rdf:resource="http://purl.org/dc/dcmitype/StillImage" />
      </cc:Work>
    </rdf:RDF>
  </metadata>
  <defs
     id="defs1787" />
  <sodipodi:namedview
     inkscape:current-layer="svg1783"
     inkscape:window-maximized="0"
     inkscape:window-y="0"
     inkscape:window-x="1440"
     inkscape:cy="376.94288"
     inkscape:cx="115.2443"
     inkscape:zoom="0.35737179"
     showgrid="false"
     id="namedview1785"
     inkscape:window-height="1080"
     inkscape:window-width="1920"
     inkscape:pageshadow="2"
     inkscape:pageopacity="0"
     guidetolerance="10"
     gridtolerance="10"
     objecttolerance="10"
     borderopacity="1"
     bordercolor="#666666"
     pagecolor="#ffffff" />
  <title
     id="title1491">reverb</title>
  <path
     fill="none"
     stroke="#000000"
     stroke-width="1.2"
     stroke-linecap="butt"
     stroke-linejoin="round"
     d="m 11.417308,35.523552 -0.1432,0.331 0.0646,0.2322 0.2736,0.2538 0.6588,0.4148 1.3466,0.4192 0.8492,0.045 0.7758,-0.1014 0.4618,-0.1362 0.5238,-0.197 0.5114,-0.2796 0.8634,-0.6396 0.6902,-0.8498 0.0814,-0.371 -0.0986,-0.2032 -1.665,-1.182 -0.3972,-0.239 -0.8734,-0.3782 -1.9934,-0.386 -0.728,-0.248 -0.6294,-0.4892 -0.5196,-0.659 -0.2054,-0.7208 -0.0482,-0.33 0.043,-0.2876 0.8784,-1.1202 0.617,-0.4004 0.5338,-0.1258 0.7178,0.2052 0.4412,0.0552"
     id="path1495" />
  <path
     fill="none"
     stroke="#000000"
     stroke-width="1.2"
     stroke-linecap="butt"
     stroke-linejoin="round"
     d="m 24.608908,25.691152 -0.1262,0.0944 -0.6234,0.1452 -2.033,0.6584 -0.9928,0.6868 -0.221,0.352 0.0868,-0.047 0.1702,0.6394 0.2338,1.9034 0.0392,5.3326 0.0622,0.9252 -0.04,1.2038 0.1266,0.5492 0.0884,0.2166 0.3374,0.4266 0.5162,0.186 0.5408,0.048 1.2778,-0.1476 0.6338,0.1312"
     id="path1499" />
  <path
     fill="none"
     stroke="#000000"
     stroke-width="1.2"
     stroke-linecap="butt"
     stroke-linejoin="round"
     d="m 29.168908,31.480952 0.066,0.6168 0.05,2.6246 0.104,-0.3808"
     id="path1503" />
  <path
     fill="none"
     stroke="#000000"
     stroke-width="1.2"
     stroke-linecap="butt"
     stroke-linejoin="round"
     d="m 29.349708,29.037152 -0.152,0.5922 -0.0116,-0.1524"
     id="path1507" />
  <path
     fill="none"
     stroke="#000000"
     stroke-width="1.2"
     stroke-linecap="butt"
     stroke-linejoin="round"
     d="m 31.293508,25.548152 -0.1744,0.0914 2.3538,-0.484 0.6962,-0.047 0.5036,0.0812 0.4928,0.284 -0.0472,-0.0224 0.035,-0.0436 0.1702,0.3184 0.2782,1.7172 0.0876,1.3298 0.7232,6.659 0.1816,0.7104 0.1722,0.3722 -0.0694,-0.0692 -0.1502,0.005 -0.723,0.2756 -0.811,0.3748 -1.4124,0.7792 0.2388,-0.153 0.3582,-0.4658 -0.215,-0.0968"
     id="path1511" />
  <path
     fill="none"
     stroke="#000000"
     stroke-width="1.2"
     stroke-linecap="butt"
     stroke-linejoin="round"
     d="m 119.44471,25.615952 -0.2508,-0.1288 -0.268,-0.3956 -0.4778,-0.2784 -0.448,-0.006 -0.2588,0.1266 -0.5886,0.4216 -0.3186,0.3644 -0.7502,1.067 -0.3334,0.6388 -0.2258,0.792 -0.3408,1.8776 -0.0172,1.8352 0.2364,1.5954 0.2228,0.6264 0.2758,0.4422 0.257,0.2198 0.3406,0.0842 0.4006,-0.009 1.1186,-0.2416 1.9082,-0.7646 1.5972,-0.9424"
     id="path1515" />
  <path
     fill="none"
     stroke="#000000"
     stroke-width="1.2"
     stroke-linecap="butt"
     stroke-linejoin="round"
     d="m 127.99431,22.616352 -0.1458,0.1592 -0.2698,-0.1486 -2.185,0.3508 -0.1596,0.0566 -0.3268,0.2678 -0.2598,0.3426 -0.0418,4.5332 -0.092,1.2716 -0.454,3.6074 -0.4758,2.8236 0.025,0.2256 0.0716,0.079 0.316,-0.0812 1.4048,0.0676 2.6744,-0.0422 0.0908,0.0318 -0.0118,0.0538"
     id="path1519" />
  <path
     fill="none"
     stroke="#000000"
     stroke-width="1.2"
     stroke-linecap="butt"
     stroke-linejoin="round"
     d="m 131.24191,29.349152 0.049,0.0954 -0.0456,0.5766 0.1098,1.7312 0.0352,0.2026 0.0578,-0.201"
     id="path1523" />
  <path
     fill="none"
     stroke="#000000"
     stroke-width="1.2"
     stroke-linecap="butt"
     stroke-linejoin="round"
     d="m 131.81791,26.146952 -0.008,-0.4456 -0.0294,0.1658 0.0822,0.214 0.0904,0.062"
     id="path1527" />
  <path
     fill="none"
     stroke="#000000"
     stroke-width="1.2"
     stroke-linecap="butt"
     stroke-linejoin="round"
     d="m 133.05371,22.313752 -0.017,0.262 0.0928,0.3222 0.9138,-0.1648 1.3776,-0.4818 0.6634,-0.1244 0.6296,-0.002 0.1786,0.1344 0.024,0.055 -0.0826,0.1088 0.368,0.4696 0.2304,0.9212 0.1212,1.8484 0.0278,1.718 -0.1516,2.5584 0.005,1.1608 0.1824,2.337 0.1382,0.4976 0.0324,0.3756 -0.052,0.1988 0.1068,0.4042 -0.589,0.352 -0.8058,0.2734 -0.8972,0.4682 -0.3678,0.2264 0.027,0.0418 0.2064,-0.206 0.5236,-0.296"
     id="path1531" />
  <path
     fill="none"
     stroke="#000000"
     stroke-width="1.2"
     stroke-linecap="butt"
     stroke-linejoin="round"
     d="m 11.930908,59.895752 0.2124,0.7206 0.1214,0.2222 0.4562,0.26 0.5386,0.1046 1.9034,2e-4 1.2582,-0.2272 0.4736,-0.128 0.4422,-0.2162 0.6794,-0.4934 0.4664,-0.7952 0.1674,-0.7988 -0.0488,-0.2672 -0.2014,-0.4616 -0.4852,-0.6574 -0.934,-0.654 -0.6524,-0.2044 -0.87,-0.1898 -1.7032,-0.108 -1.2036,-0.2124 -0.5772,-0.3652 -0.149,-0.2188 -0.0556,-0.289 0.003,-0.391 0.2958,-0.8616 0.5774,-0.7882 0.8036,-0.6552 1.0224,-0.4398 0.7302,-0.1916 1.0138,2e-4 0.525,0.073 0.1502,0.0968"
     id="path1535" />
  <path
     fill="none"
     stroke="#000000"
     stroke-width="1.2"
     stroke-linecap="butt"
     stroke-linejoin="round"
     d="m 25.085708,48.425352 0.2108,0.0176 -0.538,0.2104 -1.3814,0.3954 -1.4438,0.5436 -0.677,0.4066 0.1886,0.5974 0.6632,3.0206 0.4138,3.0738 0.1958,1.97 0.063,2.9126 0.0626,0.0974 0.3158,0.1308 0.4,0.0826 1.1406,-0.0496 0.4426,-0.095"
     id="path1539" />
  <path
     fill="none"
     stroke="#000000"
     stroke-width="1.2"
     stroke-linecap="butt"
     stroke-linejoin="round"
     d="m 29.738708,54.677152 0.0818,-0.4624 0.04,0.9476 0.1768,1.1834 0.037,1.4484 0.1054,-0.0172 -0.1204,-0.1464"
     id="path1543" />
  <path
     fill="none"
     stroke="#000000"
     stroke-width="1.2"
     stroke-linecap="butt"
     stroke-linejoin="round"
     d="m 29.877908,51.271752 -0.183,0.5576 -0.0518,0.0208 0.1722,-0.0876"
     id="path1547" />
  <path
     fill="none"
     stroke="#000000"
     stroke-width="1.2"
     stroke-linecap="butt"
     stroke-linejoin="round"
     d="m 33.061308,54.652352 -0.0132,-0.353 0.1114,0.1682 0.4546,0.0328 1.7806,-0.2178 0.509,-0.1416"
     id="path1551" />
  <path
     fill="none"
     stroke="#000000"
     stroke-width="1.2"
     stroke-linecap="butt"
     stroke-linejoin="round"
     d="m 34.520708,52.597752 0.1238,-8e-4 0.0136,0.4038 0.127,0.5964 0.0346,1.6974 0.1344,0.8292 0.1006,0.1676"
     id="path1555" />
  <path
     fill="none"
     stroke="#000000"
     stroke-width="1.2"
     stroke-linecap="butt"
     stroke-linejoin="round"
     d="m 39.305108,51.789752 0.3304,3.7228 0.0366,1.5714 0.0592,0.3516 -0.0776,0.0688"
     id="path1559" />
  <path
     fill="none"
     stroke="#000000"
     stroke-width="1.2"
     stroke-linecap="butt"
     stroke-linejoin="round"
     d="m 38.823308,50.201752 0.4432,0.0444 0.9534,-0.2462 0.7314,-0.0444 0.8992,0.1672 0.4666,0.1746 0.455,0.3024 0.7912,0.804 0.2792,0.4272 0.2048,0.4634 0.1228,0.4932 0.0226,0.4614 -0.0584,0.4476 -0.285,0.9198 -0.2158,0.388 -1.2296,1.5914 -1.4764,1.4008 -0.28,0.1878 0.3044,-0.3458"
     id="path1563" />
  <path
     fill="none"
     stroke="#000000"
     stroke-width="1.2"
     stroke-linecap="butt"
     stroke-linejoin="round"
     d="m 43.923708,46.687152 -0.0374,0.3978 0.7936,-0.1024 1.2904,-0.321 1.1362,-0.1746 0.3544,0.0396 0.3156,0.1644 0.0914,0.1108 -0.1606,0.3976 0.297,1.265 0.2424,1.8488 0.1046,3.739 0.21,2.6588 0.2708,2.1038 0.129,0.383 0.013,0.1552 -0.0578,0.0946 0.1258,0.0552 -0.1734,-0.0416 -0.514,0.2904 -1.9344,0.852 -0.0958,-0.0522 0.0352,-0.0652 0.2326,-0.1244"
     id="path1567" />
  <path
     fill="none"
     stroke="#000000"
     stroke-width="1.2"
     stroke-linecap="butt"
     stroke-linejoin="round"
     d="m 12.287508,78.358752 0.002,0.0718 0.846,1.0988 0.3164,0.3328 0.4044,0.2532 0.4064,0.1448 0.4332,0.0932 0.449,0.004 0.4946,-0.0982 0.5676,-0.2048 1.216,-0.6222 0.8988,-0.6466 0.5256,-0.5314 0.28,-0.3978 0.0618,-0.198 -0.0252,-0.1686 -0.1966,-0.3132 -0.395,-0.3514 -0.5872,-0.3724 -0.3794,-0.138 -1.4256,-0.3468 -1.0054,-0.1602 -0.9478,-0.2604 -0.6536,-0.3842 -0.2132,-0.2698 -0.2122,-0.8118 0.099,-0.8432 0.173,-0.4004 0.287,-0.4152 0.7684,-0.6488 0.4774,-0.234 0.98,-0.1968 0.4402,-0.007 0.3776,0.0804 0.6456,0.249 0.6682,0.7026"
     id="path1571" />
  <path
     fill="none"
     stroke="#000000"
     stroke-width="1.2"
     stroke-linecap="butt"
     stroke-linejoin="round"
     d="m 25.544508,69.310352 0.3936,0.0766 0.2506,-0.1154 -0.3686,0.1038 -0.7646,0.464 -1.0408,0.7658 -1.2084,0.7254 -0.1578,0.1692 0.4724,1.1106 0.541,2.7644 0.1406,3.1338 -0.1434,3.1054 0.3748,-0.0802 2.3192,-0.0636 1.1096,0.169 0.3936,0.2572"
     id="path1575" />
  <path
     fill="none"
     stroke="#000000"
     stroke-width="1.2"
     stroke-linecap="butt"
     stroke-linejoin="round"
     d="m 28.582508,75.961352 -0.228,1.0372 0.0224,0.4668 0.2312,1.2426 0.0738,0.1098 0.1652,-0.0706"
     id="path1579" />
  <path
     fill="none"
     stroke="#000000"
     stroke-width="1.2"
     stroke-linecap="butt"
     stroke-linejoin="round"
     d="m 28.769508,73.288552 -0.0778,-0.1754 0.1046,0.0502 0.0238,0.1202"
     id="path1583" />
  <path
     fill="none"
     stroke="#000000"
     stroke-width="1.2"
     stroke-linecap="butt"
     stroke-linejoin="round"
     d="m 31.855908,75.434752 -0.2274,0.7304 0.1894,-0.1674 0.1682,-0.0464 1.8672,-0.2104 1.6554,-0.2794"
     id="path1587" />
  <path
     fill="none"
     stroke="#000000"
     stroke-width="1.2"
     stroke-linecap="butt"
     stroke-linejoin="round"
     d="m 33.727908,77.559752 0.247,-0.5478 -0.1584,-0.4682 0.0884,-1.571 -0.055,-1.578 -0.0896,-0.4938"
     id="path1591" />
  <path
     fill="none"
     stroke="#000000"
     stroke-width="1.2"
     stroke-linecap="butt"
     stroke-linejoin="round"
     d="m 37.334708,72.345752 0.5144,-0.93 0.5158,-0.4172 0.25,-0.1018 0.4446,0.0522 0.427,0.3452 0.1792,0.3292 0.1142,0.4248 -0.0146,1.0794 -0.3066,1.3708 -0.236,0.7152 -1.1534,2.1988 -0.305,0.4548 0.0606,0.035 0.2578,-0.2468 0.4826,-0.0398 1.8344,0.3212 0.7886,0.4828 0.1752,0.2536 0.017,0.3418"
     id="path1595" />
  <path
     fill="none"
     stroke="#000000"
     stroke-width="1.2"
     stroke-linecap="butt"
     stroke-linejoin="round"
     d="m 43.237108,71.443552 0.2408,0.7716 0.15,1.0266 -0.1202,3.423 -0.1484,1.0478 0.1408,0.354 -0.0236,0.3916 0.086,-0.6122 -0.009,-0.799"
     id="path1599" />
  <path
     fill="none"
     stroke="#000000"
     stroke-width="1.2"
     stroke-linecap="butt"
     stroke-linejoin="round"
     d="m 43.003708,71.327952 0.0946,0.1096 0.4932,-0.2242 1.2328,-0.098 1.441,0.1804 0.4706,0.1722 0.712,0.529 0.4906,0.6242 0.161,0.3566 0.007,0.9876 -0.3068,1.1472 -0.2628,0.61 -0.7544,1.0562 -0.7528,0.8644 -0.7682,0.5282 -0.5074,0.193 -0.105,-0.0256 -0.007,-0.1844 0.1456,-0.2516 0.3202,-0.2486"
     id="path1603" />
  <path
     fill="none"
     stroke="#000000"
     stroke-width="1.2"
     stroke-linecap="butt"
     stroke-linejoin="round"
     d="m 47.261308,68.489352 0.0402,0.2234 0.3448,-0.0572 2.5536,-0.9158 0.8472,-0.151 0.0622,0.027 -0.0682,0.097 -0.0628,0.4476 0.1592,0.0538 0.234,0.2538 0.29,0.7678 0.202,1.5154 0.3874,5.9304 0.205,1.4352 0.089,0.3014 0.2216,0.2846 0.1122,0.2746 -0.0422,0.2008 0.0968,0.7294 -0.1792,-0.1634 -0.7586,0.2362 -0.6614,0.3892 -1.6276,1.281 -0.3286,0.18 0.4512,-0.3592 0.207,-0.2564"
     id="path1607" />
  <path
     fill="none"
     stroke="#000000"
     stroke-width="1.2"
     stroke-linecap="butt"
     stroke-linejoin="round"
     d="m 29.776108,91.630152 0.1994,0.298"
     id="path1611" />
  <path
     fill="none"
     stroke="#000000"
     stroke-width="1.2"
     stroke-linecap="butt"
     stroke-linejoin="round"
     d="m 29.544108,100.05795 0.1004,-0.519798 0.0254,0.770198 0.0538,-0.0942"
     id="path1615" />
  <path
     fill="none"
     stroke="#000000"
     stroke-width="1.2"
     stroke-linecap="butt"
     stroke-linejoin="round"
     d="m 29.537308,108.25955 -0.012,-0.1644 -0.002,0.0934 0.0878,0.0918 -0.0184,0.0944 -0.1952,0.4488 -0.1706,0.2376 0.0458,-0.2026"
     id="path1619" />
  <path
     fill="none"
     stroke="#000000"
     stroke-width="1.2"
     stroke-linecap="butt"
     stroke-linejoin="round"
     d="m 117.98591,48.329752 0.0182,-0.4536 -0.1546,-0.1496 -0.5996,-0.083 -0.699,0.2028 -0.7564,0.6476 -0.7936,0.9838 -0.342,0.574 -0.467,1.3348 -0.159,0.7884 -0.0714,0.9142 0.008,0.923 0.1328,0.8348 0.188,0.699 0.232,0.5584 0.2728,0.4278 0.3792,0.2674 0.452,0.0764 0.47,-0.0628 0.5604,-0.1642 1.3156,-0.5316 1.6148,-1.0202 0.7808,-0.6924"
     id="path1623" />
  <path
     fill="none"
     stroke="#000000"
     stroke-width="1.2"
     stroke-linecap="butt"
     stroke-linejoin="round"
     d="m 126.78971,46.204952 0.0426,0.2396 0.1398,0.1848 0.1088,-0.2328 -0.1376,0.1458 -0.827,0.2672 -0.6586,0.146 -0.7276,0.073 0.0246,0.1468 -0.1268,0.281 -0.2178,1.135 -0.2024,2.3074 -0.405,2.8524 -0.404,2.1654 -0.027,0.463 0.114,0.6348 0.1484,0.3562 0.1404,0.1262 0.418,0.166 0.9988,0.1152 1.2,-0.3148 0.535,-0.2294 -0.0234,0.072"
     id="path1627" />
  <path
     fill="none"
     stroke="#000000"
     stroke-width="1.2"
     stroke-linecap="butt"
     stroke-linejoin="round"
     d="m 129.80231,52.609952 0.0422,-0.0494 0.0564,0.3038 0.0522,1.0122 0.127,0.209"
     id="path1631" />
  <path
     fill="none"
     stroke="#000000"
     stroke-width="1.2"
     stroke-linecap="butt"
     stroke-linejoin="round"
     d="m 130.03751,49.990352 -0.061,0.1028 0.009,0.1502 0.054,-0.0762"
     id="path1635" />
  <path
     fill="none"
     stroke="#000000"
     stroke-width="1.2"
     stroke-linecap="butt"
     stroke-linejoin="round"
     d="m 133.25571,52.056152 0.348,0.131 1.1662,-0.007 2.1826,-0.6504"
     id="path1639" />
  <path
     fill="none"
     stroke="#000000"
     stroke-width="1.2"
     stroke-linecap="butt"
     stroke-linejoin="round"
     d="m 135.30971,53.775752 -0.1596,-0.4196 -0.0258,-0.6404 0.221,-1.8436 4e-4,-0.424 0.0762,-0.3586 0.1938,-0.345"
     id="path1643" />
  <path
     fill="none"
     stroke="#000000"
     stroke-width="1.2"
     stroke-linecap="butt"
     stroke-linejoin="round"
     d="m 140.21431,48.883352 -0.115,0.8836 0.1598,0.8994 0.0418,1.9392 -0.442,2.7942 -0.005,0.109 0.0456,-0.0168 0.062,-0.2244"
     id="path1647" />
  <path
     fill="none"
     stroke="#000000"
     stroke-width="1.2"
     stroke-linecap="butt"
     stroke-linejoin="round"
     d="m 139.97751,48.744952 1.4606,-0.322 0.8094,-0.0574 0.8428,0.0576 0.8838,0.2348 0.3856,0.2124 0.306,0.2728 0.1926,0.3122 0.1476,0.8114 -0.0342,0.4464 -0.127,0.4488 -0.5302,0.9568 -1.1708,1.52 -1.2494,1.2118 -1.1082,0.889 -0.3428,0.1882 0.3688,-0.3988 0.3074,-0.526 0.2214,-0.2546 0.2024,-0.154 0.159,-0.031"
     id="path1651" />
  <path
     fill="none"
     stroke="#000000"
     stroke-width="1.2"
     stroke-linecap="butt"
     stroke-linejoin="round"
     d="m 144.40071,45.864552 -0.002,0.0672 0.0888,0.0284 1.031,0.0372 1.923,-0.0672 0.2,0.0464 0.254,0.102 0.032,0.1222 0.284,0.2072 0.362,0.8242 0.226,2.7364 0.07,2.6316 -0.068,1.488 0.056,1.7736 0.044,0.3884 0.23,0.657 -0.028,-0.0934 -0.044,0.0206 -0.242,0.437 -1.552,1.374 -0.472,0.2912 -0.232,0.0364 0.794,-0.7746"
     id="path1655" />
  <path
     fill="none"
     stroke="#000000"
     stroke-width="1.2"
     stroke-linecap="butt"
     stroke-linejoin="round"
     d="m 117.07391,72.127352 0.2518,-0.0242 0.4684,-0.2908 0.137,-0.1558 0.032,-0.3326 -0.0698,-0.171 -0.1974,-0.1866 -0.4638,-0.3042 -0.5292,-0.237 -0.7394,-0.1692 -0.4756,0.009 -0.4618,0.1104 -0.4538,0.2188 -0.364,0.2862 -0.2488,0.3136 -0.2136,0.3858 -0.3562,1.0388 -0.2126,1.3014 0.0886,1.6048 0.4422,2.1086 0.2382,0.4334 0.6196,0.4722 0.327,0.0332 0.7786,-0.0862 1.6356,-0.4476 1.4766,-0.8244 0.7658,-0.5638"
     id="path1659" />
  <path
     fill="none"
     stroke="#000000"
     stroke-width="1.2"
     stroke-linecap="butt"
     stroke-linejoin="round"
     d="m 126.98471,67.292552 0.0482,0.345 0.0302,-0.12 -1.9594,0.5656 -1.7386,0.4026 -0.4394,0.1818 -0.2642,0.4408 -0.0284,1.5282 0.326,8.5222 -0.0524,0.8528 0.2088,0.3002 0.41,0.1154 1.5934,0.0486 0.7938,0.0956 1.5918,0.3988"
     id="path1663" />
  <path
     fill="none"
     stroke="#000000"
     stroke-width="1.2"
     stroke-linecap="butt"
     stroke-linejoin="round"
     d="m 128.55291,74.135752 -0.151,1.1244 0.006,0.4616 0.3416,2.1294 -0.0168,0.2614"
     id="path1667" />
  <path
     fill="none"
     stroke="#000000"
     stroke-width="1.2"
     stroke-linecap="butt"
     stroke-linejoin="round"
     d="m 127.85071,72.003352 -0.0628,0.0712 0.1046,0.0834 0.2204,0.0442"
     id="path1671" />
  <path
     fill="none"
     stroke="#000000"
     stroke-width="1.2"
     stroke-linecap="butt"
     stroke-linejoin="round"
     d="m 131.53031,74.613552 0.5428,0.0724 0.7998,-0.014 1.816,-0.2062 0.7896,-0.0144"
     id="path1675" />
  <path
     fill="none"
     stroke="#000000"
     stroke-width="1.2"
     stroke-linecap="butt"
     stroke-linejoin="round"
     d="m 133.87631,76.595552 -0.2092,-0.5572 -0.2162,-0.0706 -0.1134,-0.5774 0.047,-0.3652 0.6542,-2.4074 0.1204,-0.7772"
     id="path1679" />
  <path
     fill="none"
     stroke="#000000"
     stroke-width="1.2"
     stroke-linecap="butt"
     stroke-linejoin="round"
     d="m 138.26631,72.542952 -0.1548,-0.031 0.0404,-0.0714 1.0154,-1.1266 0.425,-0.351 0.4296,-0.2342 0.3594,-0.091 0.3122,0.0502 0.5604,0.3838 0.2566,0.2948 0.104,0.4614 0.0112,0.5494 -0.0706,0.5968 -0.2312,0.683 -0.8108,1.4928 -1.5986,2.2122 -0.3956,0.6416 0.4312,-0.372 2.5412,0.3438 0.2838,-0.0822"
     id="path1683" />
  <path
     fill="none"
     stroke="#000000"
     stroke-width="1.2"
     stroke-linecap="butt"
     stroke-linejoin="round"
     d="m 145.27531,71.393552 -0.051,0.6656 0.1894,2.7564 -0.1408,2.1622 0.1234,1.6688 0.0924,0.102 0.0322,-0.1822"
     id="path1687" />
  <path
     fill="none"
     stroke="#000000"
     stroke-width="1.2"
     stroke-linecap="butt"
     stroke-linejoin="round"
     d="m 145.92991,71.113752 1.356,-0.094 0.836,0.2 0.442,0.2328 0.384,0.367 0.282,0.4372 0.448,1.0066 0.092,1.079 -0.03,0.5614 -0.288,1.2264 -0.258,0.5782 -0.7,1.0714 -0.758,0.8832 -0.394,0.3308 -0.704,0.3364 -0.18,-0.0252 -0.036,-0.176 0.088,-0.0998 1.184,-0.467"
     id="path1691" />
  <path
     fill="none"
     stroke="#000000"
     stroke-width="1.2"
     stroke-linecap="butt"
     stroke-linejoin="round"
     d="m 149.15591,68.863952 1.056,-0.346 2.462,-0.5148 0.82,0.091 0.184,0.0912 0.318,0.3568 -0.044,-0.0894 0.096,-0.008 -0.06,0.0792 0.108,0.1148 0.054,0.3418 -0.394,8.1172 0.082,1.1964 -0.028,0.8704 0.144,0.7696 0.084,0.2178 0.052,0.004 -0.082,-0.0144 0.022,0.0384 -1.088,0.3934 -1.768,0.3988 -0.128,-0.003 0.032,-0.0358 0.226,-0.0646"
     id="path1695" />
  <path
     fill="none"
     stroke="#000000"
     stroke-width="1.2"
     stroke-linecap="butt"
     stroke-linejoin="round"
     d="m 130.41071,90.795752 -0.2248,0.3084 0.1572,-0.1176 0.0262,0.0538"
     id="path1699" />
  <path
     fill="none"
     stroke="#000000"
     stroke-width="1.2"
     stroke-linecap="butt"
     stroke-linejoin="round"
     d="m 130.35591,98.234152 -0.035,-0.3604 0.0858,0.242 -0.0446,0.044 0.0148,-0.062 0.1102,0.003 -0.1228,0.013 0.0558,0.0456 -0.0562,0.2988 -0.2972,0.6042 0.0958,-0.2166 0.3382,-0.402"
     id="path1703" />
  <path
     fill="none"
     stroke="#000000"
     stroke-width="1.2"
     stroke-linecap="butt"
     stroke-linejoin="round"
     d="m 130.30931,106.71815 0.0702,-0.053 -0.0518,0.4536 0.0612,-0.0592 -0.0532,-0.0872 0.0162,0.4432 -0.0698,0.311 0.4108,-1.4582"
     id="path1707" />
  <path
     fill="none"
     stroke="#000000"
     stroke-width="1.2"
     stroke-linecap="butt"
     stroke-linejoin="round"
     d="m 71.012708,54.658752 0.1202,0.1974 0.2894,0.2578 0.8296,0.2442 1.6836,0.222 2.3766,0.0826 3.2848,-0.04 5.8124,-0.2874 3.3248,-0.002 1.3442,0.06 1.2064,0.1316 1.005,0.207 0.7266,0.2824"
     id="path1711" />
  <path
     fill="none"
     stroke="#000000"
     stroke-width="1.2"
     stroke-linecap="butt"
     stroke-linejoin="round"
     d="m 71.475508,59.203152 -0.359,0.224 -0.6056,0.225 -0.2518,-0.0176 0.4956,-0.0754 2.8848,0.3938 1.3856,0.051 10.4466,0.0728 1.612,-0.0308 4.2886,-0.2538 1.9424,-0.0152"
     id="path1715" />
  <path
     fill="none"
     stroke="#000000"
     stroke-width="1.2"
     stroke-linecap="butt"
     stroke-linejoin="round"
     d="m 88.367708,51.359152 -0.0756,0.7198 0.5722,0.608 0.7318,0.5762 1.5772,0.9434 3.5862,1.328 0.7378,0.3272 1.122,0.8136 0.317,0.349 -0.134,0.0636 -0.7184,0.7754 -0.4772,0.4136 -2.2824,1.8088 -3.397,2.9936 -0.551,0.5564 -0.2544,0.408 0.2844,-0.058 0.2262,-0.133 0.1066,-0.1422 0.4872,0.0636"
     id="path1719" />
  <path
     fill="none"
     stroke="#000000"
     stroke-width="1.2"
     stroke-linecap="butt"
     stroke-linejoin="round"
     d="m 5.6129075,3.7607516 0.0534,-0.0142 0.2592,1.6968 0.423,4.4098 -0.007,3.5932004 -0.1062,1.095 -0.0692,0.1838 0.002,0.1192 0.0662,-0.2442"
     id="path1723" />
  <path
     fill="none"
     stroke="#000000"
     stroke-width="1.2"
     stroke-linecap="butt"
     stroke-linejoin="round"
     d="m 10.329908,9.8751516 0.0332,0.0966 -0.1232,0.7140004 0.1142,1.0574 0.0348,1.0898 0.1606,0.9964 0.0946,0.217 0.1292,-0.1044 0.4128,-2.226 0.4082,-1.7254004 0.1944,-0.4878 0.4218,-0.721 0.2566,-0.1678 0.2514,-0.0772 0.2624,0.0404 0.2552,0.1418 0.4308,0.6388 0.1812,0.4772 0.0982,0.5474004 -0.0518,2.3586 -0.1882,1.2062 0.1684,-0.5228"
     id="path1727" />
  <path
     fill="none"
     stroke="#000000"
     stroke-width="1.2"
     stroke-linecap="butt"
     stroke-linejoin="round"
     d="m 18.104308,9.6395516 -0.0482,4.8016004 -0.1894,2.6268 -0.036,0.2964 -0.0914,0.1608 0.057,-0.1808 -0.1262,-0.9528 -0.0308,-2.3878 0.0896,-0.891 0.4908,-2.7552 0.5186,-1.6860004 0.2656,-0.5756 0.2966,-0.3122 0.3434,-0.0898 0.3194,0.0258 0.2714,0.1116 0.4698,0.44 0.254,0.2958 0.1804,0.3698 0.065,0.4214 -0.0306,0.4932 -0.2714,1.0246004 -0.4278,1.1142 -0.7056,1.0524 -0.3706,0.4298 -0.3528,0.2956 -0.2494,0.1372 -0.1686,-0.0306 -0.1312,-0.235 0.297,-0.6384"
     id="path1731" />
  <path
     fill="none"
     stroke="#000000"
     stroke-width="1.2"
     stroke-linecap="butt"
     stroke-linejoin="round"
     d="m 23.859708,8.9351516 0.2452,3.7352004 0.1282,0.4574 0.2472,0.3086 0.255,0.1858 0.3262,0.0422 0.7528,-0.1826 0.7426,-0.4686 0.8244,-0.709 0.7484,-0.8734 0.5742,-0.9418 0.1112,-0.425 -0.0276,-0.7340004 -0.153,-0.6922"
     id="path1735" />
  <path
     fill="none"
     stroke="#000000"
     stroke-width="1.2"
     stroke-linecap="butt"
     stroke-linejoin="round"
     d="m 33.079908,1.7057516 0.727,3.6498 0.1448,2.4008 0.0234,2.3272004 0.1624,2.5188 0.1548,1.3028"
     id="path1739" />
  <path
     fill="none"
     stroke="#000000"
     stroke-width="1.2"
     stroke-linecap="butt"
     stroke-linejoin="round"
     d="m 31.150508,8.7971516 -0.009,-0.06 0.1826,-0.066 1.0704,-0.2176 1.2108,-0.4836 2.1268,-1.3194 1.7638,-1.2974"
     id="path1743" />
  <path
     fill="none"
     stroke="#000000"
     stroke-width="1.2"
     stroke-linecap="butt"
     stroke-linejoin="round"
     d="m 116.08291,4.2219516 0.1078,-1.1704 -0.6074,0.2726 -0.5974,0.6162 -1.1544,2.2126 -0.5282,1.4822 -0.2102,1.6842 0.1538,2.3362004 0.1116,0.6352 0.1856,0.5368 0.3066,0.3992 0.3826,0.2634 0.4916,0.1598 0.61,0.0326 0.687,-0.0688 0.8072,-0.189 0.8134,-0.3658 1.4024,-1.1086 0.7166,-0.5926 0.5368,-0.6428 0.5574,-1.1618004 0.1614,-0.5932 0.062,-0.6376 -0.0246,-1.365 -0.3784,-1.2984 -1.0836,-1.7114 -0.399,-0.4584 -0.4468,-0.3062 -0.5122,-0.1428 -0.3932,-0.0686 -0.376,0.125"
     id="path1747" />
  <path
     fill="none"
     stroke="#000000"
     stroke-width="1.2"
     stroke-linecap="butt"
     stroke-linejoin="round"
     d="m 122.66591,9.5353516 -0.1064,3.2878004 0.0604,0.414 0.1366,0.273 0.2002,0.0956 0.2524,-0.0206 0.7598,-0.2326 0.9184,-0.569 0.7552,-0.815 0.2444,-0.4226 0.2064,-0.416 0.1624,-0.7624 0.002,-0.3394 -0.2374,-1.3112004"
     id="path1751" />
  <path
     fill="none"
     stroke="#000000"
     stroke-width="1.2"
     stroke-linecap="butt"
     stroke-linejoin="round"
     d="m 129.83171,1.5445516 0.3246,2.7266 0.053,0.9168 0.015,6.0660004 0.4682,1.6184"
     id="path1755" />
  <path
     fill="none"
     stroke="#000000"
     stroke-width="1.2"
     stroke-linecap="butt"
     stroke-linejoin="round"
     d="m 127.43211,8.7435516 0.086,0.197 0.2948,0.0802 1.3518,-0.5154 0.9238,-0.2304 2.1814,-0.3218 0.4008,0.0242 0.1058,0.084 -0.0596,0.1616 0.6068,0.924 0.2666,0.717 0.1704,1.1366004 0.0342,0.6702 -0.0724,1.6174 -0.1204,0.8488 -0.5118,2.469 -0.1848,0.6672 -0.1278,0.1866 -0.063,-0.1596 0.1024,-1.392 0.1084,-0.9476 0.2034,-1.0128 0.6142,-2.1476 0.8146,-2.0748004 0.3974,-0.6874 0.3522,-0.3902 0.2848,-0.158 0.2248,0.0116 0.1768,0.1688 0.2884,0.472 0.2142,0.7474 0.1248,1.3556004 -0.0856,0.3426 -0.7204,1.0788 -0.2328,0.1708 -0.4976,0.2144 -0.174,-0.0304 -0.093,-0.0942 -0.005,-0.5282 0.1896,-0.4516 0.3414,-0.5168"
     id="path1759" />
  <path
     fill="none"
     stroke="#000000"
     stroke-width="1.2"
     stroke-linecap="butt"
     stroke-linejoin="round"
     d="m 138.66271,8.1471516 0.2216,0.5382 0.1462,0.8322 -0.0538,1.8988004 0.0696,1.2454 0.1412,0.3376 0.2736,0.1514 0.2852,0.039 1.0724,-0.263 0.4668,-0.2254 0.8572,-0.609 0.635,-0.7596 0.3248,-0.907 0.1436,-0.9650004 -0.0446,-0.8114 -0.204,-0.8214"
     id="path1763" />
  <path
     fill="none"
     stroke="#000000"
     stroke-width="1.2"
     stroke-linecap="butt"
     stroke-linejoin="round"
     d="m 147.17391,0.04475159 -0.04,0.5348 0.356,4.15120001 -0.46,6.5488004 0.058,0.6924 0.142,0.4506 0.168,0.2472 0.514,0.4014"
     id="path1767" />
  <path
     fill="none"
     stroke="#000000"
     stroke-width="1.2"
     stroke-linecap="butt"
     stroke-linejoin="round"
     d="m 145.28991,7.8271516 1.238,-0.4464 3.186,-1.3902 1.264,-0.7244"
     id="path1771" />
  <path
     fill="none"
     stroke="#000000"
     stroke-width="1.2"
     stroke-linecap="butt"
     stroke-linejoin="round"
     d="m 0.08570752,19.778552 8.85079998,-1.2774 5.6096005,-0.635 3.123,-0.2904 7.1714,-0.5702 17.7478,-1.0794"
     id="path1775" />
  <path
     fill="none"
     stroke="#000000"
     stroke-width="1.2"
     stroke-linecap="butt"
     stroke-linejoin="round"
     d="m 106.78731,18.189152 0.3242,-0.4012 0.7994,-0.4378 0.9624,0.0162 2.4668,-0.1602 5.4228,-0.6632 4.4608,-0.369 21.8474,-1.3588 7.3848,-0.1344 7.18,0.1402"
     id="path1779" />
</svg>
