<?xml version="1.0" encoding="UTF-8" standalone="no"?>
<svg
   xmlns:dc="http://purl.org/dc/elements/1.1/"
   xmlns:cc="http://creativecommons.org/ns#"
   xmlns:rdf="http://www.w3.org/1999/02/22-rdf-syntax-ns#"
   xmlns:svg="http://www.w3.org/2000/svg"
   xmlns="http://www.w3.org/2000/svg"
   xmlns:sodipodi="http://sodipodi.sourceforge.net/DTD/sodipodi-0.dtd"
   xmlns:inkscape="http://www.inkscape.org/namespaces/inkscape"
   inkscape:version="1.0 (4035a4f, 2020-05-01)"
   sodipodi:docname="comb.svg"
   id="svg935"
   viewBox="0 0 281.85552 106.5261"
   version="1.2"
   width="281.85553"
   height="106.52608">
  <defs
     id="defs939" />
  <sodipodi:namedview
     inkscape:current-layer="svg935"
     inkscape:window-maximized="0"
     inkscape:window-y="267"
     inkscape:window-x="0"
     inkscape:cy="56.035991"
     inkscape:cx="101.73518"
     inkscape:zoom="2.5261664"
     showgrid="false"
     id="namedview937"
     inkscape:window-height="900"
     inkscape:window-width="1440"
     inkscape:pageshadow="2"
     inkscape:pageopacity="0"
     guidetolerance="10"
     gridtolerance="10"
     objecttolerance="10"
     borderopacity="1"
     bordercolor="#666666"
     pagecolor="#ffffff"
     inkscape:document-rotation="0" />
  <metadata
     id="metadata833">
    <rdf:RDF>
      <cc:Work
         rdf:about="">
        <dc:format>image/svg+xml</dc:format>
        <dc:type
           rdf:resource="http://purl.org/dc/dcmitype/StillImage" />
        <dc:title>reverb</dc:title>
      </cc:Work>
    </rdf:RDF>
  </metadata>
  <title
     id="title835">reverb</title>
  <path
     id="path837"
     stroke-width="6"
     stroke-linejoin="round"
     stroke="#4ca2d4"
     fill="none"
     d="m 102.74,44.652994 -0.008,0.3216 0.488,0.9372 0.488,0.2152 0.344,-0.019 0.922,-0.1876 0.59,-0.4742 0.776,-1.0032 0.604,-1.2292 0.024,-0.438 -0.73,-2.1936 -0.588,-0.6294 -0.126,-0.2816 -0.194,-0.178 -0.248,-0.001 -0.154,-0.1122 -0.082,0.0354 -0.342,-0.304 -0.306,-0.0784 -0.228,-0.1816 -0.568,-0.0256 -0.184,-0.1434 -0.41,0.0992 -0.192,-0.0452 -0.358,0.0626 -0.056,-0.1006 -0.06,0.0816 -0.26,0.0112 -0.128,0.0996 -0.14,-0.178 -0.13,-0.044 -0.664,0.1452 -0.242,0.1656 -0.116,0.1736 -0.024,-0.108 -0.07,-0.027 -0.186,0.106 -0.15,-0.0276 -0.032,0.0808 -0.222,0.0606 -0.148,0.226 -0.07,-0.091 -0.096,0.0404 -0.296,0.2788 -0.166,0.0636 -0.026,0.09 -0.2,-0.0704 -0.134,0.1192 -0.366,0.1152 -0.492,0.4326 -0.092,-0.0386 -0.566,1.1362 -0.13,0.098 -0.034,0.2206 -0.43,0.7776 -0.016,0.184 0.08,0.1676 -0.04,0.2386 0.126,0.7342 -0.036,0.2656 0.156,0.9508 0.03,-0.0606 0.05,0.1316 0.16,0.6514 0.292,0.5162 0.292,0.1984 0.148,-0.0428 0.062,0.1782 0.452,0.2738 0.088,0.1956 0.11,-0.046 0.166,0.222 0.052,-0.0518 0.138,0.068 0.606,0.494 0.086,0.023 0.058,-0.0538 0.198,0.059 0.082,-0.0508 0.03,0.0836 0.174,0.0704 0.036,0.1034 0.8,0.1526 0.076,0.0602 0.178,-0.0318 0.134,0.1126 0.082,-0.0296 0.176,0.103 0.674,0.0966 0.32,0.1142 0.576,0.04 0.144,-0.0716 0.354,-0.0646 0.186,0.04 0.09,-0.0874 0.24,0.0326 0.322,-0.105 0.446,-0.2334 0.178,-0.0306 0.212,-0.1822 0.434,-0.218 0.248,-0.0112 0.098,-0.1374 0.254,-0.0474 0.232,-0.4186 0.294,-0.3704 0.184,-0.1118 0.476,-0.968 0.012,-0.7378 0.18,-0.9456 0.042,-0.1696 0.04,0.0298 -0.006,-0.784 -0.172,-0.8702 -0.06,-0.6788 -0.472,-1.3386 -0.832,-0.8126 -0.098,-0.218 -0.902,-0.5524 -0.38,-0.3608 -0.75,-0.2862 -0.202,0.1406 -0.564,0.1246 -0.26,0.1216 -1.094,0.695 -0.288,0.4024 -0.114,0.0488 -0.158,0.3068 -0.222,0.5866 -0.228,0.9452 -0.094,0.545 0.008,0.6476 0.268,0.5794 0.44,0.3622 0.352,0.1346 0.718,0.2262 0.416,-0.057 0.21,0.0762 0.416,-0.1676 0.324,-0.3884 0.084,-0.1576 -0.064,-0.0762 0.076,0.066 -0.174,-0.2706" />
  <path
     id="path839"
     stroke-width="6"
     stroke-linejoin="round"
     stroke="#4ca2d4"
     fill="none"
     d="m 56.972,92.636994 0.248,0.1388 0.096,-0.2898 0.108,-0.0692 0.018,0.074 -0.018,-0.1204 -0.048,0.0372 -0.542,-0.4478 -0.34,-0.129 -0.242,-0.2254 -0.19,0.0454 -0.194,-0.1102 -0.27,-0.0432 -0.272,-0.1696 -0.074,0.0472 -0.394,-0.1256 -0.412,0.0442 -1.01,-0.1512 -0.486,0.009 -0.678,0.3212 -0.158,-0.0164 -0.752,0.1958 -0.128,0.1752 -0.092,-0.023 -0.83,0.4148 -0.018,0.06 0.02,-0.0658 v 0.066 l -0.8,0.6632 -0.32,0.4264 -0.266,0.553 -0.114,0.1178 -0.09,-0.0428 -0.08,0.0908 -0.286,0.9186 -0.288,0.6202 0.016,0.512 -0.198,0.9752 0.086,0.7556 -0.018,0.895 0.152,0.3642 0.048,0.3142 0.124,0.1524 0.158,0.515396 0.21,0.3226 0.1,0.3168 0.044,0.0422 0.022,-0.0418 0.112,0.2306 0.354,0.2774 0.198,0.3588 0.352,0.0472 0.096,0.1368 0.482,0.206 0.33,0.0278 0.08,0.0896 0.156,-0.0286 0.136,0.0646 0.34,-0.0804 0.27,0.1178 0.494,-0.185 0.332,0.0352 0.096,-0.0954 0.102,0.117 0.414,0.0352 0.582,-0.1276 0.544,0.01 0.11,-0.0728 0.374,-0.0238 0.128,-0.0854 0.248,0.0132 0.804,-0.4542 0.254,0.005 0.528,-0.2684 0.41,-0.0934 0.348,-0.212 0.42,-0.0826 0.524,-0.3944 0.62,-0.803996 0.146,-0.2754 0.218,-0.5932 0.136,-0.8078 0.484,-1.2482 -0.076,-0.549 0.056,-1.4348 -0.292,-0.7636 -0.088,-0.552 -0.166,-0.4374 -0.368,-0.4962 -0.242,-0.1714 -0.148,-0.2152 -0.068,0.0202 -0.552,-0.3004 -0.604,-0.1286 -0.426,-0.013 -0.966,0.261 -0.5,0.3766 -0.65,0.2902 -0.854,0.648 -0.746,0.8764 -0.428,0.6546 -0.136,0.3284 -0.186,0.6628 -0.15,1.0882 0.004,1.2836 0.14,0.2704 0.352,0.2248 0.312,0.0874 0.932,0.0604 0.4,-0.284 0.328,-0.137 0.578,-0.4902 0.35,-0.425 0.328,-0.532 0.028,-0.2868 -0.808,-0.6416 -0.34,0.008 -0.152,0.2386 -0.13,0.0814 -0.134,0.6436 0.044,-0.0844 0.28,-0.028 0.218,-0.1486" />
  <path
     id="path841"
     stroke-width="1.2"
     stroke-linejoin="round"
     stroke="#000000"
     fill="none"
     d="m 1.3059966,99.761994 -0.61400001,0.448196 0.052,0.0728 0.208,-0.287996 0.44000001,0.0576 0.376,-0.0884 0.04,0.0494 1.598,-0.0798 0.624,-0.1814 0.506,0.019 0.336,-0.0936 0.364,0.009 2.092,-0.2986 1.048,-0.0738 0.508,0.1334 0.836,-0.0186 0.9740004,-0.214 1.242,-0.0644 0.574,-0.1198 0.552,0.0662 1.354,-0.1182 1.846,0.0204 0.612,-0.0658 1.262,0.006 1.624,-0.2464 2.08,-0.2142 2.146,0.0516 2.678,-0.2084 3.296,-0.3534 1.642,-0.3794 1.33,-0.4886 1.732,-0.4882 1.048,-0.1302 0.454,0.0164 0.614,0.1394" />
  <path
     id="path843"
     stroke-width="1.2"
     stroke-linejoin="round"
     stroke="#000000"
     fill="none"
     d="m 35.281997,94.373994 -0.036,-0.1252 -0.072,0.0312 0.062,0.0602 -0.04,-0.0368 -0.006,0.0556 0.052,-0.0778 2.260003,1.0786 1.652,0.6454 0.548,0.31 0.302,0.0964 0.414,-0.038 -0.038,-0.0258 -0.292,0.2158 -3.640003,2.9006 -1.08,0.754796 -0.144,0.1348 -0.006,0.13 0.092,0.007 0.346,-0.2438" />
  <path
     id="path845"
     stroke-width="1.2"
     stroke-linejoin="round"
     stroke="#000000"
     fill="none"
     d="m 53.416,87.947994 -0.066,-0.0544 -0.196,0.088 -0.482,0.0604 -1.356,0.4708 -1.464,0.8956 -1.78,1.822 -0.566,0.8264 -0.364,0.4142 -1.236,2.1498 -0.396,0.9236 -0.342,1.0238 -0.368,1.5344 -0.106,0.7172 0.028,1.485596 0.476,1.741 0.488,0.9314 0.286,0.3868 0.526,0.4628 1.678,0.9666 1.55,0.5688 1.278,0.1556 0.99,-0.01 1.07,-0.1308 1.824,-0.0236 0.622,-0.0782 0.644,-0.2178 1.006,-0.613 2.764,-2.0166 0.7,-0.7086 0.394,-0.6142 0.832,-1.821996 0.33,-0.937 0.27,-1.0586 0.152,-1.0572 v -0.6676 l -0.086,-0.8458 -0.18,-0.8838 -0.348,-0.79 -0.406,-0.7092 -0.9,-1.3502 -0.644,-0.556 -0.88,-0.8844 -0.376,-0.478 -0.654,-0.6134 -0.264,-0.2394 -0.578,-0.3674 -0.64,-0.213 -0.366,-0.0326 -0.4,0.0554 -1.368,0.4558 -0.932,0.4278 -1.512,0.292 -0.482,-0.0108" />
  <path
     id="path847"
     stroke-width="1.2"
     stroke-linejoin="round"
     stroke="#000000"
     fill="none"
     d="m 54.642,87.919994 -0.188,0.0524 -0.044,0.303 0.048,0.8128 -0.05,1.3112 -0.334,3.862 -0.462,3.4078 -0.338,5.980796 -0.21,1.7282 -0.26,0.9964" />
  <path
     id="path849"
     stroke-width="1.2"
     stroke-linejoin="round"
     stroke="#000000"
     fill="none"
     d="m 62.628,96.459994 -0.514,-0.106 0.046,-0.0606 0.082,0.0504 -0.084,0.0864 -0.494,0.0688 -2.668,-0.009 -2.568,-0.233 -1.66,-0.0646 -2.26,0.1778 -1.878,0.0446 -2.314,-0.3038 -1.96,0.2028" />
  <path
     id="path851"
     stroke-width="1.2"
     stroke-linejoin="round"
     stroke="#000000"
     fill="none"
     d="m 67.778,97.127994 -0.554,-0.0376 0.192,0.0712 0.006,-0.0648 0.204,10e-4 0.294,0.094 1.534,-0.1154 0.574,0.0664 1.212,0.009 2.966,-0.124 1.324,0.0778 7.102,0.0806 11.754,-0.3832 17.018,-0.3864 6.176,-0.239 10.78,-0.1448 34.424,-0.0388 16.843,0.444 30.692,1.0954 16.443,0.7554 10.54,0.2926 3.6726,0.1822 11.167,0.1916 7.7022,-0.019 19.95,0.4526" />
  <path
     id="path853"
     stroke-width="1.2"
     stroke-linejoin="round"
     stroke="#000000"
     fill="none"
     d="m 235.84,97.885994 -0.007,0.4992 0.2882,-0.3436 0.0934,0.006 -0.3698,0.0454 -0.2132,0.1176 -0.1894,0.2698 -0.0144,0.2526 0.4004,0.2474 0.4152,-0.005 0.38,-0.115 0.4476,-0.284 0.2988,-0.2618 0.0644,-0.146 -0.3306,-0.5614 -0.603,-0.3446 -0.7468,-0.0386 -0.144,0.0552 -0.2998,0.287 -0.1432,0.3386 -0.033,0.2514 -0.1088,1.0144 0.0654,0.4328 0.1752,0.457396 0.2682,0.3622 0.1696,0.1958 0.4308,0.2184 0.82,-0.001 0.4556,-0.1186 0.2178,-0.1438 0.4424,-0.4076 0.3702,-0.463596 0.2286,-0.5124 0.0348,-0.2454 -0.0768,-0.7088 -0.2444,-0.5324 -0.3356,-0.4546 -0.3626,-0.2618 -0.3986,-0.1704 -0.4334,-0.0654 -0.7268,0.2996 -0.4948,0.3438 -0.4248,0.4836 -0.1612,0.319 -0.2702,1.2002 0.1142,1.468396 0.2398,0.4796 0.4374,0.3674 0.5394,0.2086 0.6538,0.0544 0.5114,-0.1052 0.6102,-0.4398 0.3436,-0.3832 0.2206,-0.4788 0.0588,-1.092196 -0.158,-0.7612 -0.4234,-1.1724 -0.4162,-0.7606 -0.325,-0.4084 -0.3624,-0.251 -0.3754,-0.0588 -0.6736,0.24 -0.5176,0.37 -0.5744,1.097 -0.2444,0.8386 -0.0988,0.888 0.0292,0.898796 0.2166,0.8186 0.1862,0.2752 0.5276,0.4494 0.2852,0.1436 0.3196,0.0306 0.6674,-0.0376 0.3814,-0.123 0.6738,-0.3522 0.307,-0.289 0.6438,-0.752 0.843,-1.295796 0.193,-0.3666 0.2068,-0.7668 -0.0326,-0.7792 -0.1066,-0.3406 -0.178,-0.2884 -0.8168,-0.7952 -0.6162,-0.3936 -0.9366,-0.2036 -0.3208,-0.0156 -0.6696,0.0946 -1.0364,0.3626 -0.5388,0.3806 -0.2552,0.2758 -0.3634,0.7918 -0.2246,1.4718 0.0188,1.0936 0.168,1.594396 0.1556,0.4748 0.1742,0.3912 0.1928,0.259 0.2608,0.1916 0.3094,0.123 0.7076,0.1006 0.9778,-0.1422 0.9664,-0.4096 0.399,-0.2474 0.9822,-0.8674 0.537,-0.643 0.4092,-0.714396 0.1716,-0.7678 -0.0228,-0.3426 -0.0874,-0.2466 -0.8394,-1.3854 -1.1794,-1.2106 -0.5166,-0.367 -0.2932,-0.0908 -0.6326,-0.046 -0.625,0.0696 -0.6572,0.2038 -0.686,0.4558 -0.4492,0.8046 -0.2296,0.8148 -0.218,1.8772 0.039,1.759796 0.0784,0.4654 0.2782,0.7626 0.4858,0.514 0.6486,0.2924 0.7956,0.1522 0.5156,0.0302 0.5432,-0.1302 0.4294,-0.2018 0.772,-0.5228 0.3896,-0.37 1.125,-1.331 0.5418,-0.8624 0.1446,-0.429596 0.1356,-0.84 -0.0548,-0.372 -0.7066,-1.347 -0.2366,-0.317 -0.5902,-0.4968 -0.6892,-0.3842 -0.913,-0.303 -1.0446,0.0242 -1.016,0.2464 -0.5182,0.2072 -0.6114,0.669 -0.3336,0.6284 -0.3076,0.8848 -0.3662,1.656996 -0.0844,1.2938 0.1674,0.972 0.2028,0.3888 0.5666,0.5194 0.368,0.1584 0.3866,0.0488 0.4172,0.0128 1.001,-0.1152 1.1268,-0.3568 0.4306,-0.2784 0.4266,-0.3162 0.769,-0.7384 0.6868,-0.8902 0.4468,-0.903996 0.1954,-0.8402 -0.0168,-0.3956 -0.0998,-0.3298 -0.4704,-0.9462 -0.5172,-0.6076 -1.2232,-0.973 -0.5994,-0.2846 -1.0342,-0.23 -0.2854,-0.0222 -0.5728,0.0884 -0.5102,0.191 -0.4478,0.4116 -0.4258,0.608 -0.4584,1.3534 -0.238,1.2182 -0.1054,1.068796 0.0676,1.1 0.092,0.3994 0.1704,0.2776 0.2314,0.2078 0.2714,0.1766 0.3494,0.0906 0.7722,0.0134 0.8732,-0.0926 0.9536,-0.1922 0.3922,-0.1962 0.7888,-0.5658 0.3948,-0.374 0.9686,-1.431396 0.4128,-0.9414 0.0246,-0.7116 -0.0572,-0.4012 -0.1366,-0.3422 -0.9508,-1.1402 -0.9354,-0.87 -0.6422,-0.4806 -0.6596,-0.3102 -0.308,-0.059 -0.2884,0.0248 -0.6164,0.2042 -0.5728,0.4614 -0.8104,0.9522 -0.2398,0.4608 -0.4212,1.0654 -0.33,1.204 -0.0992,0.6332 0.108,1.047396 0.1146,0.4764 0.1932,0.406 0.2488,0.271 1.279,0.8648 0.3924,0.147 0.8666,0.1572 0.4732,-0.0256 0.4824,-0.1098 0.7656,-0.4214 0.6866,-0.7204 0.8726,-1.278 0.3574,-0.899596 0.0516,-0.3684 -0.0574,-0.3016 -0.1242,-0.2444 -0.5884,-0.8158 -1.3648,-1.4694 -1.0012,-0.7966 -0.3314,-0.1832 -0.575,-0.065 -0.6156,0.1168 -0.5012,0.2786 -0.7948,0.8436 -0.2282,0.3268 -0.4682,1.2102 -0.093,0.9326 0.0476,1.1096 0.1614,1.131796 0.1208,0.4642 0.1742,0.3672 0.4654,0.5378 0.6264,0.2404 0.3818,0.0224 0.4002,-0.09 1.4524,-0.5062 0.8614,-0.6402 0.75,-0.7882 0.5952,-0.905396 0.2636,-0.4918 0.167,-0.49 0.094,-0.8522 -0.0586,-0.3892 -0.1404,-0.3788 -0.191,-0.2456 -0.4258,-0.3406 -1.1526,-0.6916 -0.9532,-0.389 -0.9262,-0.0916 -0.3154,0.05 -0.5284,0.2502 -0.429,0.3866 -0.3836,0.5708 -0.2718,0.8004 -0.1602,0.9376 -0.03,1.1616 0.0698,0.5268 0.2628,0.909396 0.3834,0.6986 0.2476,0.2722 0.5724,0.347 0.7568,0.0798 1.0026,-0.2016 0.4472,-0.2002 0.7848,-0.6482 0.3532,-0.3724 0.7564,-1.129196 0.1394,-0.3522 0.0376,-0.5974 -0.2374,-0.501 -0.4226,-0.5272 -0.4932,-0.4062 -0.4602,-0.2622 -0.3988,-0.0324 -0.5882,0.2072 -0.3696,0.2768 -0.3388,0.3738 -0.3458,0.7908 0.004,0.7052 0.4222,1.178596 0.4104,0.5662 0.3604,0.2438 0.372,-0.0464 0.3346,-0.1734 0.242,-0.3472 0.076,-0.5202 -0.1046,-0.532596 -0.1918,-0.3138 -0.2316,-0.1298 -0.1174,0.004 -0.507,0.2272 -0.155,0.1794 -0.1196,0.276996 0.008,0.7406 0.1386,0.1936 0.2536,0.004 0.4054,-0.2438 0.3876,-0.5304 -0.0142,-0.257796 -0.1992,-0.4714 -0.3114,-0.3308 -0.3792,0.046 -0.3216,0.2962 -0.1356,0.4438 0.054,0.487996 0.1246,0.1602 0.452,0.0912 0.512,-0.198 0.1668,-0.1174 0.3334,-0.498796 0.0806,-0.3602 -0.0722,-0.3218" />
  <path
     id="path855"
     stroke-width="1.0512"
     stroke-linejoin="round"
     stroke="#000000"
     fill="none"
     d="m 237.16,43.332994 0.2908,-0.1392 0.1302,0.80896 -0.0956,0.79238 0.0382,0.52365 -0.088,0.63615 -0.0488,1.6916 -0.1368,1.3619 -0.1458,3.5996 -0.1614,1.7333 -0.036,2.0533 0.0702,1.28 -0.0332,1.729 0.258,1.8622 0.1686,3.1264 -0.014,1.1454 0.1192,2.8793 -0.113,3.1794 0.1,2.5799 -0.0798,2.0412 0.0348,2.8715 -0.4336,3.6737 -0.1274,1.6313 0.108,1.3682 -0.3226,2.0526 0.1326,1.4706 -0.0704,1.9186 0.0126,0.7049 0.105,0.73222 0.008,1.0998 -0.003,0.2913 -0.1178,0.38521 0.0398,0.007 -0.0178,-0.45213" />
  <path
     id="path857"
     stroke-width="1.2"
     stroke-linejoin="round"
     stroke="#000000"
     fill="none"
     d="m 236.43,43.104994 0.0254,0.0506 -0.0828,0.0254 -0.348,0.0454 -1.0804,-0.198 -0.8334,-0.0178 -1.1082,-0.1332 -3.7778,0.196 -0.3966,-0.0742 -1.567,-0.0294 -3.3816,-0.3278 -3.0498,0.1092 -1.6024,-0.228 -1.9298,-0.1068 -0.9862,0.0608 -1.9832,0.2808 -0.4508,-0.0088 -1.2752,-0.095 -2.9054,-0.3826 -0.6086,0.1046 -1.5218,0.0938 -2.8166,-0.2676 -0.6826,4e-4 -1.148,0.088 -0.5418,0.1524 -0.8694,0.0822 -0.8266,-0.1926 -1.0544,-0.055 0.039,-0.0312 -0.3364,-0.639" />
  <path
     id="path859"
     stroke-width="1.2"
     stroke-linejoin="round"
     stroke="#000000"
     fill="none"
     d="m 203.95,38.865994 0.6142,-0.1416 0.0814,-0.0368 -0.0304,-0.0552 -4e-4,0.091 -1.1664,0.8866 -0.4222,0.2004 -0.4286,0.0898 -0.723,0.3924 -1.0528,0.4088 -1.2148,0.238 -0.6728,0.2256 -0.519,0.2992 -0.0462,-0.0476 0.0424,0.1996 0.6118,0.5204 2.1442,1.3508 1.3468,0.9408 2.071,1.817 0.202,0.358" />
  <path
     id="path861"
     stroke-width="1.2"
     stroke-linejoin="round"
     stroke="#000000"
     fill="none"
     d="m 102.46,35.679994 -0.166,-0.1066 0.006,-0.0712 -0.27,-0.1012 -0.726,0.0152 -1.402,0.2014 -0.45,0.1626 -0.53,0.0796 -0.498,0.313 -0.704,0.5844 -1.706,1.6734 -0.4,0.581 -0.638,1.1766 -0.506,1.2632 -0.338,1.5136 -0.052,1.1078 0.042,2.181 0.196,1.102 0.298,0.5272 0.338,0.4106 1.254,1.276 1.28,0.9956 0.81,0.2676 2.086,0.4396 2.944,0.5046 1.462,-0.1668 1.14,-0.3886 1.262,-0.5578 0.576,-0.3276 0.522,-0.4072 0.79,-0.8912 0.924,-1.344 0.466,-0.8406 0.18,-0.5924 0.126,-3.0536 -0.176,-0.8322 -0.71,-1.8268 -0.68,-1.1524 -0.902,-1.1934 -1.266,-0.8622 -0.88,-1.0112 -0.56,-0.8988 -0.422,-0.2932 -1.43,-0.2486 -1.524,-0.0542 -1.738,0.2428" />
  <path
     id="path863"
     stroke-width="1.2"
     stroke-linejoin="round"
     stroke="#000000"
     fill="none"
     d="m 97.19,39.953994 -0.202,-0.2984 0.09,-0.1298 -0.048,0.0276 0.018,0.0944 0.786,0.5876 1.886,1.7482 0.864,0.6934 1.868,1.0704 3.346,2.0636 1.876,1.4108 0.678,0.5902 1.094,0.7112" />
  <path
     id="path865"
     stroke-width="1.2"
     stroke-linejoin="round"
     stroke="#000000"
     fill="none"
     d="m 96.988,49.279994 -0.228,0.4498 -0.2,0.2486 0.154,-0.2702 0.422,-0.3252 0.29,-0.4014 4.152,-4.0996 2.678,-3.0644 1.144,-1.1086 0.656,-0.8178 0.694,-0.6986 0.716,-0.5892 1.35,-0.864 0.488,-0.385" />
  <path
     id="path867"
     stroke-width="1.2"
     stroke-linejoin="round"
     stroke="#000000"
     fill="none"
     d="m 101.76,9.254394 0.136,0.3672 0.032,0.366 -0.034,-0.2364 0.136,0.3264 v 3.4316 l 0.116,2.5586 0.126,0.9712 0.126,2.3432 0.004,1.6774 0.29,1.9796 -0.01,1.7296 0.314,2.6742 -0.03,2.3554 0.154,1.0158 -0.096,-0.2662" />
  <path
     id="path869"
     stroke-width="1.2"
     stroke-linejoin="round"
     stroke="#000000"
     fill="none"
     d="m 99.866,26.875994 0.118,0.069 0.314,0.4206 0.734,0.598 0.74,0.8748 0.632,0.5784 0.194,0.3024 0.298,0.282 0.196,0.5652 0.618,-1.1362 0.836,-1.2466 0.53,-0.9386 0.466,-0.553 0.406,-0.2956" />
  <path
     id="path871"
     stroke-width="1.2"
     stroke-linejoin="round"
     stroke="#000000"
     fill="none"
     d="m 143.6,42.958994 -0.218,-0.204 -0.426,0.1998 -0.592,0.0912 -1.744,-6e-4 -4.41,0.2268 -0.904,-0.0444 -0.526,0.0914 -0.878,-0.0554 -1.87,0.3152 -0.932,0.046 -0.556,-0.0176 -0.534,-0.1234 -2.652,-0.3092 -0.56,-0.003 -0.242,-0.0728 -0.21,0.004 -0.63,0.2146 -0.49,0.035 -0.43,-0.0512 -0.922,0.0832 -1.992,-0.1676 -0.806,0.0506 -1.148,-0.122 -0.95,0.0422 -0.61,0.123 -0.754,-0.0122 -0.294,0.075 0.006,0.0614 -0.694,0.1058 -0.102,0.0632 -0.212,-0.078 0.042,0.0648 0.066,-0.0688 -0.42,-0.0016 0.024,0.0466 0.03,-0.0802 -0.208,0.0964 -0.062,-0.0398 0.002,0.047 -0.016,-0.075 0.008,0.0978 -0.624,0.0694 0.054,0.0794 -0.004,-0.1088 -0.114,0.0852 0.054,-0.0566 0.182,-0.0078 0.932,-0.8866 0.422,-0.9538 0.138,-0.0082 0.032,-0.0718 0.824,-0.3966 0.296,-0.3228 0.216,-0.0562 0.148,-0.1324 -0.402,0.4226 -0.696,0.4846 -1.056,0.595 -1.248,0.8958 -0.328,0.1576 -0.496,0.0012 -0.032,0.1228 0.226,-0.0684 1.044,0.438 1.42,0.7872 1.856,1.285 0.376,0.5158 0.316,0.0044 0.002,-0.1058 0.232,0.069 0.088,-0.1042" />
  <path
     id="path873"
     stroke-width="1.2"
     stroke-linejoin="round"
     stroke="#000000"
     fill="none"
     d="m 104.66,5.655994 -0.782,-0.9098 -0.376,-0.56 -1.056,-2.3504 -0.304,-0.5384 -0.324,-0.34119997 -0.55,-0.3562 -0.244,0.0806 -0.204,0.1912 -1.204,1.79879997 -0.422,0.8488 -0.28,0.846 -0.174,0.7948 -0.04,0.32 0.104,0.4832 0.402,0.476 0.202,0.0638 0.444,0.0118 0.446,-0.1638 0.494,-0.353 1.886,-1.8968 0.916,-1.0524 1.668,-2.14299997" />
  <path
     id="path875"
     stroke-width="1.0512"
     stroke-linejoin="round"
     stroke="#000000"
     fill="none"
     d="m 53.478,44.863994 -0.048,0.51383 0.258,0.52288 0.112,0.72255 -0.16,1.8019 0.01,0.57783 0.084,0.52948 0.334,1.0887 0.054,0.50339 0.008,0.5281 -0.196,1.7745 0.042,0.92238 0.226,1.3002 0.058,1.2005 -0.08,3.9265 0.122,3.4094 -0.082,1.8552 0.392,1.9617 -0.054,1.516 0.362,2.4534 0.038,1.7137 -0.102,1.6813 0.174,0.58274 0.076,0.78747 -0.078,1.1925 0.014,0.48881 0.164,0.74143 -0.036,1.8076 0.092,0.3536 -0.062,1.3942 0.144,0.8481 0.008,1.2382 0.07,0.35268 -0.04,0.1283 0.124,0.70628 -0.062,0.22561 0.038,0.15347 0.102,-0.33595" />
  <path
     id="path877"
     stroke-width="1.2"
     stroke-linejoin="round"
     stroke="#000000"
     fill="none"
     d="m 52.658,80.293994 0.188,0.093 -0.092,-0.076 0.068,-0.1564 -0.032,0.0592 0.062,0.0092 0.572,0.8972 0.94,1.2436 0.514,1.061 0.276,0.8208 0.354,0.199 0.166,0.306 -0.046,-0.1168 0.4,-1.7926 0.382,-1.3056 0.24,-0.5788 0.606,-0.8404 0.758,-0.5678" />
  <path
     id="path879"
     stroke-width="1.2"
     stroke-linejoin="round"
     stroke="#000000"
     fill="none"
     d="m 91.946,43.786994 0.178,-0.3016 -0.068,0.1554 -0.914,0.1328 -2.646,0.0086 -1.346,0.0946 -0.862,-0.085 -1.098,0.073 -0.31,-0.0618 -1.286,0.1374 -1.144,0.044 -1.06,-0.067 -1.168,0.1204 -1.85,0.0582 -0.54,0.135 -1.63,-0.0758 -1.51,0.05 -0.502,0.1384 -0.486,-0.0118 -0.72,0.1072 -0.658,-0.0588 -0.642,0.083 -0.936,-0.0838 -0.566,0.1468 -0.384,-0.072 -0.368,0.0372 -0.952,0.2172 -0.702,0.0338 -1.188,-0.062 -0.41,0.1258 -0.256,-0.0176 -0.722,0.1234 -0.932,0.0308 -0.462,0.082 -0.4,-0.103 -0.208,0.081 -2.574,0.1786 -2.956,0.0756 -0.928,0.1886 -0.902,-0.0792 -0.348,0.1204 -0.122,-0.0552 -0.268,0.1238 -0.432,-0.0652 -1.002,0.092 0.042,0.046 0.078,-0.0168 -0.006,-0.0494 0.09,0.1452" />
  <path
     id="path881"
     stroke-width="6"
     stroke-linejoin="round"
     stroke="#4ca2d4"
     fill="none"
     d="m 193.17,31.595994 -0.1892,0.0026 0.0736,0.0754 -0.0672,0.0464 -0.3758,0.1036 -0.4314,0.0272 -0.0638,0.069 -0.1572,-0.1056 -0.4772,0.0428 -0.4426,-0.084 -0.3636,0.1072 -0.5084,0.004 -0.2884,-0.071 -0.5276,0.053 -0.2402,-0.138 -0.4686,-0.113 -0.7774,0.0588 -0.244,-0.0808 -0.8508,0.0654 -0.2002,-0.048 -0.4386,0.0842 -0.3606,-0.0584 -0.7934,0.1702 -1.3414,-0.0446 -0.393,0.1298 -0.944,-0.2002 -0.327,0.0958 -0.2602,-0.0916 -1.5376,0.0442 -0.7282,-0.0476 -0.6932,0.0902 -0.6736,-0.1034 -0.5364,0.0888 -0.6798,-0.1688 -0.288,0.0078 -0.2698,-0.1738 -1.6288,-0.138 -0.197,0.0798 -0.1276,-0.049 -0.9434,0.0118 -0.6386,-0.1104 -0.4842,-0.0064 -0.602,-0.136 -1.253,-0.138 -1.0924,-0.2146 -1.3996,-0.1814 -0.7936,0.0272 -0.4324,0.118 -0.2764,-0.0344 -0.498,0.107 -2.0456,-0.1952 -0.46,0.1818 -1.8706,-0.1808 -1.2924,0.2116 -0.1702,-0.05 -0.742,0.0352 -0.702,0.1746 -0.319,-0.0772 -0.71,0.1728 -1.6524,-0.0488 -0.2432,-0.112 -0.102,0.0674 -0.604,0.0746 -0.486,0.137 -0.646,-0.0416 -0.5,-0.1582 -0.112,0.0718 -0.378,-0.033 -0.7,-0.155 -0.936,0.1196 -0.296,-0.0418 -0.124,-0.111 -0.044,0.1256 -0.13,0.0326 -0.058,-0.0748 -0.744,0.1184 -0.258,-0.0594 0.048,0.1412 -0.186,0.6424 -0.246,0.486 -0.074,0.5242 0.114,0.4212 0.33,0.4874 0.342,0.6988 0.146,0.4942 0.046,1.1458 0.322,0.7684 0.036,0.546 -0.056,1.483 0.198,1.2726 -0.088,0.4736 -0.02,1.3634 0.126,1.0662 -0.058,0.4124 0.23,1.579 -0.15,0.2412 -0.026,0.345 0.196,0.6608 0.076,0.0244 0.174,0.4244 0.04,0.9338 0.156,0.7626 0.034,0.6362 0.034,-0.034 0.114,0.3526 0.16,0.1822 -0.042,0.0646 0.076,0.323 0.434,0.8048 0.004,0.0868 -0.074,-0.0378 0.084,1.2188 -0.06,-0.0376 0.002,0.0832 0.002,-0.0824 0.044,0.006 -0.086,0.2336 -0.006,-0.1358 0.05,-0.0068 v 0.1106 l 0.084,-0.0744 1.426,0.2448 0.23,10e-4 0.158,-0.0712 0.168,0.112 0.116,-0.0378 0.39,0.0576 0.67,-0.078 0.394,-0.177 0.4916,0.0844 1.7904,-0.192 0.0892,0.1098 0.0928,0.0146 0.3936,-0.1244 0.1372,0.1026 0.5576,-0.0362 0.9528,-0.1968 1.278,-0.0148 0.8128,-0.1874 1.5072,-0.0892 1.0804,-0.1834 0.2786,0.0922 0.262,-0.005 0.251,-0.102 0.5158,-0.0792 1.5902,-0.0012 0.689,-0.291 0.846,-0.1938 0.859,-0.0662 1.0532,0.0402 1.0696,-0.1836 0.8672,-0.2922 0.8076,-0.0746 0.8544,0.0474 0.967,-0.0368 0.5222,0.0688 0.3208,-0.0312 0.498,-0.193 1.6784,-0.0094 1.5816,-0.2728 0.4436,-0.1794 0.8502,-4e-4 0.2756,-0.079 0.799,0.1034 0.7476,-0.2326 0.385,-0.0512 1.2134,0.0402 0.7404,0.1452 0.3364,-0.0568 0.422,0.03 1.482,0.1844 0.2448,0.1214 0.046,-0.1384 0.2292,-0.0314 0.7796,0.0542 0.2688,0.1292 0.3466,-0.0124 0.2196,-0.1182 0.8416,0.0386 -0.01,0.12 -0.009,-0.1382 0.0476,0.0556 0.5236,0.0314 0.3316,0.048 0.2134,0.103 0.2218,-0.0042 -0.0838,-0.0026 -0.005,0.0744 0.0676,-0.121 0.0276,0.0808 -0.0102,-0.0796 -0.0272,0.0876 -0.009,-0.108 0.0398,0.0448 -0.0754,0.0046 0.1242,-0.3936 0.0238,0.1028 -0.0266,-0.938 0.234,-0.7094 -0.085,-1.018 0.0654,-0.8488 -0.1164,-0.6744 0.0176,-0.4598 0.2784,-0.626 -0.0282,-1.5478 0.1482,-0.7288 -0.007,-1.0376 0.0766,-0.9544 0.122,-0.461 -0.0708,-1.0382 0.0672,-0.3552 0.002,-0.9076 0.0456,-0.1666 0.1176,-0.0698 0.0964,-0.4062 -0.0124,-0.878 -0.098,-0.4846 0.0192,0.2222 -1.203,0.359 -0.3464,0.1638 -1.0812,0.0094 -0.3866,0.1272 -0.1606,-0.023 -0.9114,0.2002 -1.0816,0.1208 -0.6118,-0.0592 -0.8462,0.1022 -1.1978,-0.1018 -1.042,0.021 -0.7268,-0.0888 -0.1994,-0.091 -0.2016,-0.0044 -0.369,0.1168 -2.543,-0.1958 -1.2182,0.1088 -0.6236,-0.0352 -0.2422,0.1014 -0.289,0.0094 -0.2746,-0.0926 -0.9394,-0.0902 -2.26,0.0756 -1.455,-0.1244 -0.4892,-0.1016 -0.6566,0.0926 -1.5294,0.0732 -0.242,-0.1118 -0.6254,0.0404 -0.6342,-0.079 -0.7976,-0.21 -1.4108,-0.016 -1.3062,-0.1804 -0.4836,0.0178 -0.3624,-0.1246 -0.6244,0.0752 -1.9562,-0.452 -0.4886,-6e-4 -0.8678,-0.1196 -1.3878,0.0424 -0.603,0.1606 -0.6478,-0.0074 -0.3494,-0.0698 -0.5532,0.1614 -0.4444,0.0088 -0.9734,0.1894 -0.652,-0.0284 -0.068,0.1222 -0.132,-0.008 -0.266,0.1832 -0.304,0.3452 -0.076,0.6068 0.348,1.4688 0.034,1.3586 0.212,1.4304 -0.044,1.6312 0.518,1.5706 0.026,0.2456 -0.128,0.39 0.066,0.629 0.308,0.7404 0.108,0.4382 -0.062,0.1784 -0.05,-0.0768 -0.032,0.0776 -0.06,0.7316 0.094,0.339 0.068,-0.1112 1.2926,0.1656 1.7872,-0.4754 2.4106,-0.2944 0.422,-0.0262 0.223,0.0734 0.2452,-0.0044 1.0226,-0.2792 1.8378,-0.2334 1.0918,-0.022 0.6372,-0.1826 1.6866,-0.0546 1.0662,0.102 0.8908,-0.0818 0.2776,0.104 0.2556,-0.0334 0.3804,-0.2376 0.2524,-0.0734 0.292,0.0922 0.327,-0.0362 0.383,-0.1368 0.4848,-0.045 3.2632,0.0198 1.0992,-0.1732 0.648,0.0684 1.6188,0.003 0.5204,-0.0544 0.248,0.0416 0.4724,-0.0612 0.3086,-0.1918 0.1048,0.0888 0.5488,-0.1304 1.1656,-0.0322 1.9612,0.2548 0.3964,-0.002 0.265,-0.1334 0.2022,0.107 0.2648,0.0222 0.546,-0.0866 0.8054,0.1672 1.0454,0.0318 -0.04,-0.1702 0.0886,-0.1862 0.074,-0.4822 0.3164,-0.655 0.1386,-0.4524 0.1418,-0.754 0.038,-0.7376 -0.191,-0.924 0.053,-0.2234 -0.0944,-0.9026 -0.1118,-0.1986 -0.1668,-0.0756 -1.1574,0.0376 -1.6608,0.2498 -0.9006,-0.0926 -0.6368,0.0288 -1.5864,0.3246 -1.4782,0.4346 -0.7494,0.1134 -1.0426,0.0198 -0.5986,-0.059 -2.3276,0.2596 -2.6894,-0.227 -1.3406,0.1358 -2.2714,-0.2356 -0.684,0.0984 -2.8226,-0.3052 -0.6454,0.116 -0.245,-0.0446 -0.8596,0.0938 -0.6176,-0.0554 -0.3662,0.0332 -0.35,0.0904 -0.2968,0.1596 -0.9666,-0.0342 -0.351,0.1118 -0.4162,0.0084 -0.2278,0.1406 -0.1314,-0.028 -0.5716,0.1478 -0.7746,0.019 -0.5728,0.1978 -0.0876,-0.0706 -0.2294,0.0132 -0.7004,0.1654 -0.2548,-0.0134 -0.2068,-0.1078 -0.2322,0.1012 -0.0494,-0.0962 -0.0684,0.0082 -0.0576,0.0826 -0.6616,-0.2066 -0.006,-0.089 0.0546,0.02 0.005,-0.0532 -0.27,-0.4708 -0.1324,-0.4012 0.3846,-0.525 0.0396,-0.1504 0.651,-0.2282 0.5114,-0.3458 0.6308,-0.2322 0.161,0.1394 0.1598,-0.0364 0.1308,-0.1566 0.164,-0.0628 0.1322,-0.1964 0.4886,-0.341 0.7298,-0.3492 0.5876,-0.1924 1.6284,-0.3882 0.4818,-0.035 0.2356,-0.1744 0.5626,-0.1888 2.8934,-0.432 0.6838,-0.2018 1.1896,-0.1158 2.0578,-0.4352 3.1396,-0.447 0.8832,-0.2778 0.7186,-0.37 0.2912,0.0222 0.2964,-0.1212 0.319,-0.2874 0.6692,-0.258 0.7308,-0.0286 0.5004,-0.1542 2.3722,-0.3612 0.7648,-0.1944 1.4058,-0.7412 0.5504,-0.1976 1.53,-0.8338 0.5304,-0.4812 0.3854,-0.4672 0.3946,-0.3036 0.2688,-0.074 0.2188,-0.2022 0.033,-0.1176 -0.1296,-0.4406 -0.2422,-0.216 -0.3556,-0.1418 -3.8294,0.0162 -0.3182,0.1742 -0.2894,0.0612 -0.692,-0.106 -0.211,0.0712 -0.2196,-0.022 -0.2406,-0.1148 -0.8062,-0.1076 -2.2052,0.4702 -0.7366,-0.0474 -0.412,-0.1668 -0.6076,-0.0058 -0.3448,0.1728 -0.3986,0.0804 -0.369,-0.069 -0.1476,0.135 -1.1796,-0.0838 -1.75,0.1632 -0.2366,-0.0608 -0.1366,0.203 -0.16,0.073 -0.1412,-0.0668 -0.7266,0.1446 -0.5518,0.024 -0.8692,-0.069 -0.659,-0.1684 -0.2852,0.1138 -2.236,0.365 -1.854,0.0178 -0.2562,-0.1076 -0.2446,0.0138 -0.2078,0.1796 -0.4478,0.1716 -0.467,0.0234 -0.4468,0.1246 -0.6166,0.0646 -1.565,-0.0022 -0.9474,-0.0888 -0.2274,0.046 -0.686,-0.1012 -0.1724,-0.1026 -0.8456,-0.2084 -0.6424,-0.074 -2.108,-0.4646 -0.374,-0.0104 -0.796,-0.2612 -0.446,-0.055 -0.182,-0.1802 -0.08,0.0964 -0.478,0.1174 -0.372,-0.0022 -0.35,0.084 -0.296,-0.105 -0.09,0.0798 -0.378,0.0292 -0.652,0.2 -0.692,0.072 0.092,0.1082 -0.122,0.8274 -0.012,1.0776 0.224,1.1404 0.624,1.5324 0.168,0.6982 0.486,1.0972 0.296,0.966 0.172,0.71 -0.026,0.7222 0.13,1.3784 0.586,2.0426 0.048,1.1602 0.114,0.9152 -0.128,1.38 0.024,1.7212 -0.108,0.6458 0.114,1.019 -0.114,0.4912 0.006,0.632 -0.108,0.7238 -0.004,0.5556 -0.036,-0.0202 -0.244,0.5318 -0.136,0.5498 0.078,-0.0458 0.036,-0.1508 0.12,0.1722 0.244,0.1776 0.616,0.0694 1.618,-0.3444 1.662,0.0238 0.238,0.0712 0.382,-0.1774 0.404,-0.0398 1.354,0.0154 0.7998,0.0732 0.8798,-0.0652 0.1882,0.0808 0.6736,-0.1996 2.042,0.043 0.7914,-0.0394 1.0476,-0.1222 0.4766,-0.1836 0.1774,0.004 0.6076,-0.1858 2.8576,0.0372 1.262,-0.1772 0.7078,-0.2464 0.5328,-0.1102 2.5488,-0.143 0.446,-0.0792 1.5048,-0.0414 1.5208,-0.4482 0.8274,0.066 0.8974,-0.1538 1.7382,0.039 0.4474,0.0726 0.4716,-0.2706 0.1816,0.059 0.543,-0.1208 1.2056,-0.1102 1.3576,0.0946 0.563,-0.0184 2.6418,-0.2558 0.786,0.0356 0.723,0.1844 1.5002,-0.1886 1.0136,-0.268 1.1034,-0.008 1.1114,0.1324 0.344,-0.1036" />
  <path
     id="path883"
     stroke-width="1.2"
     stroke-linejoin="round"
     stroke="#000000"
     fill="none"
     d="m 157.76,35.264994 0.1044,0.1136 0.1246,2.088 0.1792,8.2254 0.068,0.257" />
  <path
     id="path885"
     stroke-width="1.2"
     stroke-linejoin="round"
     stroke="#000000"
     fill="none"
     d="m 157.04,34.832994 0.3834,-0.1196 1.1542,0.0864 1.3958,0.0122 0.7644,0.1066 0.7564,0.246 0.7,0.3882 0.6404,0.52 0.5748,0.579 0.4918,0.6416 0.3968,0.681 0.2864,0.7364 0.123,0.7208 -0.003,0.7196 -0.1116,0.7764 -0.2176,0.8104 -0.3258,0.7666 -0.4204,0.7756 -1.1096,1.5254 -0.6,0.6532 -1.1422,0.9734 -0.8312,0.4456 -0.2914,0.064 -0.1884,-0.0398 -0.0992,-0.1448 0.0142,-0.1584 0.5846,-0.8038" />
  <path
     id="path887"
     stroke-width="1.2"
     stroke-linejoin="round"
     stroke="#000000"
     fill="none"
     d="m 166.95,42.084994 0.197,0.0898 0.3832,0.0328 1.6812,-0.67 0.7002,-0.3492 0.226,-0.2268 -0.005,-0.3438 -0.3838,-0.4466 -0.5774,-0.1782 -0.768,0.0872 -0.3566,0.1752 -0.632,0.5274 -0.2864,0.361 -0.4022,1.0002 -0.1048,0.4638 -0.0176,1.1374 0.1044,0.6132 0.1628,0.5164 0.4694,0.7592 0.2892,0.2632 0.6486,0.3132 1.1244,0.0178 0.436,-0.141 0.4704,-0.1954 0.9278,-0.719" />
  <path
     id="path889"
     stroke-width="1.2"
     stroke-linejoin="round"
     stroke="#000000"
     fill="none"
     d="m 172.17,35.233994 -0.0226,0.9964 0.4162,1.2448 0.3602,1.3672 0.1034,0.8238 0.055,2.68 -0.1748,2.5756 0.1032,0.465 0.0604,-0.052" />
  <path
     id="path891"
     stroke-width="1.2"
     stroke-linejoin="round"
     stroke="#000000"
     fill="none"
     d="m 178.77,40.372994 0.0734,-0.076 -0.0478,-0.1246 -0.2244,-0.0704 -0.243,0.0118 -0.9396,0.2528 -0.3974,0.224 -0.689,0.623 -0.2164,0.4038 -0.2156,0.9084 0.1198,0.6566 0.3068,0.6378 0.1852,0.246 0.4814,0.409 0.267,0.0428 0.5328,-0.1346 0.2918,-0.1526 0.2682,-0.2444 0.4934,-0.582 0.4556,-0.7494 0.4156,-1.292 -0.0124,-0.565 -0.1324,0.1526 0.0166,0.3702 0.5532,1.4342 0.3132,0.6318 0.5788,0.3282 0.5386,0.0738 0.2672,-0.0822" />
  <path
     id="path893"
     stroke-width="1.2"
     stroke-linejoin="round"
     stroke="#000000"
     fill="none"
     d="m 182.93,39.735994 0.076,0.1986 0.9474,0.699 0.3408,0.3386 0.6684,0.8318 0.5624,0.9578 0.1236,0.401 0.1152,0.7862 -0.0546,1.5676" />
  <path
     id="path895"
     stroke-width="1.2"
     stroke-linejoin="round"
     stroke="#000000"
     fill="none"
     d="m 183.74,49.561994 -0.356,0.4488 0.1022,-0.0516 0.0684,-0.1696 1.0744,-3.4738 1.9616,-5.5142 0.3574,-0.7954 0.4084,-0.6992" />
  <path
     id="path897"
     stroke-width="1.2"
     stroke-linejoin="round"
     stroke="#000000"
     fill="none"
     d="m 146.63,29.918994 0.176,0.6476 0.286,1.719 0.268,2.6056 0.038,2.7274 -0.134,3.8858 0.078,2.5888 0.178,2.0438 0.62,5.0296 0.114,2.1644 0.072,0.5314 0.078,0.1262 0.064,0.0014 -0.008,-0.1512" />
  <path
     id="path899"
     stroke-width="1.2"
     stroke-linejoin="round"
     stroke="#000000"
     fill="none"
     d="m 146.37,27.857994 -0.062,-0.341 0.06,0.1138 0.372,0.0422 0.99,-0.1162 2.976,-0.1128 2.832,0.0282 1.682,0.1168 7.6646,0.0596 3.9876,-0.3958 0.5172,0.0174 3.2536,-0.1884 3.7782,0.0124 2.6834,0.2192 4.9568,0.0382 6.3718,0.689 2.4136,0.1212 0.7276,0.1404 0.8084,0.0682 1.6382,-0.0944" />
  <path
     id="path901"
     stroke-width="1.2"
     stroke-linejoin="round"
     stroke="#000000"
     fill="none"
     d="m 147.81,55.890994 -0.124,0.0086 -0.022,0.0558 0.834,-0.0452 2.036,-0.266 2.048,-0.1514 1.298,0.0508 1.298,-0.048 2.689,0.0292 1.3094,0.0878 1.3806,-0.0504 1.2396,0.0826 3.361,-0.2404 1.461,-0.2172 2.131,-0.1282 6.9886,-0.9772 10.285,-0.8714 5.5168,-0.3566 4.1514,-0.0546" />
  <path
     id="path903"
     stroke-width="1.2"
     stroke-linejoin="round"
     stroke="#000000"
     fill="none"
     d="m 194.98,29.289994 -0.104,-0.1572 -0.1044,-0.4924 0.225,1.2422 0.31,3.2164 0.0776,1.5282 0.0396,4.755 -0.146,3.8936 -0.3702,4.618 0.0526,1.5194 0.2222,1.306 0.2852,1.0448 0.3132,0.7392 0.0832,0.1352 0.0876,-0.0042" />
  <path
     id="path905"
     stroke-width="1.2"
     stroke-linejoin="round"
     stroke="#000000"
     fill="none"
     d="m 274.12,95.076994 0.628,0.2296 -0.2164,0.0694 0.3828,0.3672 1.1586,0.7194 2.5944,1.8746 1.7312,1.0298 0.857,0.626 -0.1672,0.0716 -0.4884,0.4092 -1.411,0.8396 -1.2668,0.5684 -1.489,0.561 -0.528,0.4044 -0.1226,0.1582 -0.0604,0.217" />
  <path
     id="path907"
     stroke-width="1.2"
     stroke-linejoin="round"
     stroke="#bfbfbf"
     fill="none"
     d="m 0.84196659,87.578994 -0.242,0.0814 0.15,0.2246 0.142,0.4996 0.22400001,1.1362 0.608,4.4886" />
  <path
     id="path909"
     stroke-width="1.2"
     stroke-linejoin="round"
     stroke="#bfbfbf"
     fill="none"
     d="m 4.7879966,87.941994 0.298,2.6956 0.206,1.2856 0.062,0.9388 -0.004,-0.3132 0.094,-0.4394 0.63,-2.128 0.68,-1.543 0.256,-0.2852 0.268,-0.1032 0.194,-0.006 0.188,0.136 0.184,0.2414 0.594,1.1548 0.292,1.4574 0.002,1.6208 0.082,-0.0642 0.008,-0.0984" />
  <path
     id="path911"
     stroke-width="1.2"
     stroke-linejoin="round"
     stroke="#bfbfbf"
     fill="none"
     d="m 12.131997,88.160994 -0.122,-0.0452 -0.074,0.3428 0.372,3.3104 0.246,4.105 0.114,0.8946 -0.126,-2.4726 -0.03,-4.1934 0.03,-0.7042 0.318,-1.6076 0.13,-0.3312 0.172,-0.1978 0.208,-0.0538 0.754,0.1056 0.664,0.3222 0.284,0.2242 0.32,0.5484 0.036,1.2218 -0.174,0.524 -0.338,0.5966 -0.238,0.2376 -0.496,0.3356 -0.73,0.179 -0.31,-0.0192 -0.04,-0.049 0.046,-0.1252" />
  <path
     id="path913"
     stroke-width="1.2"
     stroke-linejoin="round"
     stroke="#bfbfbf"
     fill="none"
     d="m 17.619997,87.906994 -0.072,0.6446 0.402,2.5368 0.236,0.6488 0.178,0.2004 0.206,0.1216 0.17,0.007 0.592,-0.383 0.526,-0.8594 0.318,-0.7062 0.298,-1.0788 -0.044,-0.7012 -0.222,-1.0202" />
  <path
     id="path915"
     stroke-width="1.2"
     stroke-linejoin="round"
     stroke="#bfbfbf"
     fill="none"
     d="m 23.031997,82.999994 0.046,0.3728 0.22,0.4944 0.58,2.7164 0.81,5.3728" />
  <path
     id="path917"
     stroke-width="1.2"
     stroke-linejoin="round"
     stroke="#bfbfbf"
     fill="none"
     d="m 22.889997,87.620994 1.048,-0.317 1.594,-0.796 0.536,-0.3322 1.786,-1.391 0.366,-0.174" />
  <path
     id="path919"
     stroke-width="1.2"
     stroke-linejoin="round"
     stroke="#bfbfbf"
     fill="none"
     d="m 1.6759966,83.744994 -0.636,0.0962 0.056,-0.0882 0.354,0.0272" />
  <path
     id="path921"
     stroke-width="1.2"
     stroke-linejoin="round"
     stroke="#bfbfbf"
     fill="none"
     d="m 251.32,87.101994 0.019,-0.2332 -0.1016,-0.0228 -0.4734,0.4986 -0.7074,1.1304 -0.2218,0.5406 -0.4498,1.5342 -0.069,1.2604 0.1946,0.476 0.4644,0.296 0.7846,0.0136 0.5172,-0.1106 1.0884,-0.4224 1.0292,-0.6118 0.3738,-0.3406 0.4758,-0.5798 0.1548,-0.5572 -0.0516,-0.3094 -0.1506,-0.3328 -0.2358,-0.2794 -0.5992,-0.5082 -0.6854,-0.3714 -1.0266,-0.3004 -0.4144,-0.0558 -0.0728,-0.0314 0.0758,-0.0614" />
  <path
     id="path923"
     stroke-width="1.2"
     stroke-linejoin="round"
     stroke="#bfbfbf"
     fill="none"
     d="m 256.49,87.641994 -0.1786,2.6518 -0.009,1.5064 0.1286,0.979 0.12,0.2474 0.1614,0.117 0.7796,-0.2172 0.3474,-0.2064 0.7498,-0.7072 0.6246,-0.8734 0.2282,-0.4352 0.129,-0.3872 -0.006,-0.679 -0.2148,-0.539 -0.118,-0.1396 -0.3094,-0.0728" />
  <path
     id="path925"
     stroke-width="1.2"
     stroke-linejoin="round"
     stroke="#bfbfbf"
     fill="none"
     d="m 261.59,83.385994 -0.025,0.6138 0.0564,-0.01 0.184,0.5334 0.3468,2.5228 0.0242,0.826 -0.1058,2.5674 -0.2718,2.4118 0.0824,0.405 0.2338,-0.0354 -0.0852,-0.3178" />
  <path
     id="path927"
     stroke-width="1.2"
     stroke-linejoin="round"
     stroke="#bfbfbf"
     fill="none"
     d="m 260.5,89.513994 0.2338,-0.289 0.1474,0.0754 1.0142,-0.2576 1.4938,-0.1974 0.4344,0.004 0.4462,-0.1164 0.5954,-0.264 0.2486,0.216 0.2312,0.5254 0.1104,0.4534 0.1996,1.1902 0.0874,1.27 -0.1552,2.462 -0.1974,0.8058 -0.2802,0.5918 0.0792,-0.3218 -0.0716,-0.716 0.0122,-0.731 0.2106,-1.8384 0.68,-2.7864 0.602,-1.5422 0.2138,-0.3996 0.1856,-0.1374 0.1694,0.1102 0.579,1.7778 0.0212,0.9756 -0.0642,0.2496 -0.2308,0.368 -1.3348,1.1136 -0.1938,0.0498 -0.0958,-0.0486 0.007,-0.1962 0.4544,-0.7556" />
  <path
     id="path929"
     stroke-width="1.2"
     stroke-linejoin="round"
     stroke="#bfbfbf"
     fill="none"
     d="m 269.87,88.201994 -0.0254,0.1168 0.269,1.4548 0.0716,2.2964 0.074,0.3762 0.169,0.206 0.2406,0.051 0.547,-0.0778 0.5516,-0.3486 0.5666,-0.5574 0.431,-0.7312 0.1902,-0.5804 0.0416,-0.9466 -0.1338,-0.6254" />
  <path
     id="path931"
     stroke-width="1.2"
     stroke-linejoin="round"
     stroke="#bfbfbf"
     fill="none"
     d="m 276.82,82.229994 -0.048,0.8692 0.0922,0.3792 0.1504,1.6362 0.057,2.5626 -0.0506,2.0718 -0.1958,2.8536 0.0224,0.7184 0.0914,0.5234 -0.0354,0.0978 -0.0154,-0.0916" />
  <path
     id="path933"
     stroke-width="1.2"
     stroke-linejoin="round"
     stroke="#bfbfbf"
     fill="none"
     d="m 275.28,88.102994 0.48,-0.1504 0.6566,0.0752 0.7062,-0.1032 0.4942,-0.1604 2.2676,-1.1068" />
</svg>
