<?xml version="1.0" encoding="UTF-8" standalone="no"?>
<svg
   xmlns:dc="http://purl.org/dc/elements/1.1/"
   xmlns:cc="http://creativecommons.org/ns#"
   xmlns:rdf="http://www.w3.org/1999/02/22-rdf-syntax-ns#"
   xmlns:svg="http://www.w3.org/2000/svg"
   xmlns="http://www.w3.org/2000/svg"
   xmlns:sodipodi="http://sodipodi.sourceforge.net/DTD/sodipodi-0.dtd"
   xmlns:inkscape="http://www.inkscape.org/namespaces/inkscape"
   width="618.11841"
   height="168.33871"
   viewBox="0 0 618.1184 168.33871"
   version="1.2"
   id="svg26"
   sodipodi:docname="reverb - page 9.svg"
   inkscape:version="1.0 (4035a4f, 2020-05-01)">
  <metadata
     id="metadata32">
    <rdf:RDF>
      <cc:Work
         rdf:about="">
        <dc:format>image/svg+xml</dc:format>
        <dc:type
           rdf:resource="http://purl.org/dc/dcmitype/StillImage" />
      </cc:Work>
    </rdf:RDF>
  </metadata>
  <defs
     id="defs30" />
  <sodipodi:namedview
     inkscape:document-rotation="0"
     pagecolor="#ffffff"
     bordercolor="#666666"
     borderopacity="1"
     objecttolerance="10"
     gridtolerance="10"
     guidetolerance="10"
     inkscape:pageopacity="0"
     inkscape:pageshadow="2"
     inkscape:window-width="1440"
     inkscape:window-height="900"
     id="namedview28"
     showgrid="false"
     inkscape:snap-global="false"
     inkscape:zoom="1.4114446"
     inkscape:cx="306.48876"
     inkscape:cy="26.273471"
     inkscape:window-x="1080"
     inkscape:window-y="433"
     inkscape:window-maximized="0"
     inkscape:current-layer="svg26" />
  <title
     id="title10">reverb</title>
  <path
     id="path1034"
     style="fill:none;stroke:#f8e13f;stroke-width:2;stroke-miterlimit:4;stroke-dasharray:none;stroke-opacity:1"
     d="m 471.57115,94.912631 0.046,-0.01708 -0.0919,-0.23322 0.18428,-0.190196 0.28009,-0.201173 1.18119,-0.602761 0.5436,-0.351228 0.57124,-0.663332 1.06512,-1.120404 0.42013,-0.383486 1.47418,-1.10082 1.91829,-1.283726 0.99876,-0.951233 0.4441,-0.321472 0.58231,-0.500137 1.0485,-0.721192 0.86057,-0.472375 0.52516,-0.342581 1.93305,-1.117266 0.64863,-0.451096 1.68242,-1.051269 0.83475,-0.436301 0.92506,-0.437743 0.92874,-0.512049 0.96926,-0.446516 1.27519,-0.487676 1.28252,-0.420194 1.18121,-0.34415 1.79298,-0.378653 1.49075,-0.282771 0.41094,-0.06972 0.78685,-0.08982 1.34334,-0.08299 0.41093,0.008 0.4441,0.0473 1.13882,0.0579 0.61362,0.05244 0.94533,0.172224 0.51596,0.162261 0.67444,0.351822 0.57861,0.464786 0.61182,0.243775 0.83657,0.279719 0.54178,0.258016 1.52024,1.083527 0.55283,0.502809 1.96986,2.041795 0.82372,1.37397 0.35932,0.440455 1.30282,1.383084 0.61915,0.790666 0.64129,1.09141 0.64679,0.803722 1.24937,1.315941 2.23892,2.148572 1.00613,0.863785 0.87531,0.825383 0.95453,0.733527 2.78622,1.842484 0.96558,0.774094 1.53316,1.348662 1.21251,0.95272 0.24878,0.23564 0.57493,0.4463 0.63574,0.40862 0.83473,0.36361 2.23709,1.14121 1.61057,0.71624 2.34026,0.79897 1.23463,0.35267 0.8716,0.21194 1.25307,0.35013 0.43119,0.11148 0.96375,0.18608 0.86977,0.15006 0.46068,0.0628 0.94719,0.0877 2.47293,0.15345 1.27333,0.0865 0.80159,0.0699 1.65846,0.0636 1.92011,-0.0241 1.06512,-0.0657 1.17567,-0.11572 0.33352,-0.045 1.23278,-0.2361 0.52335,-0.13479 2.23891,-0.95564 0.86057,-0.43058 1.95697,-1.13292 0.87898,-0.53637 1.06141,-0.70666 2.53745,-2.15964 0.3151,-0.2322 1.43366,-0.990013 0.80711,-0.497302 1.72481,-1.164275 1.16276,-0.872644 2.04175,-1.385457 3.14185,-2.255686 1.39311,-0.908251 1.26042,-0.697328 0.81447,-0.49963 0.83846,-0.450967 1.52026,-0.910286 1.2291,-0.632728 0.63943,-0.402095 1.0393,-0.510311 1.30834,-0.573469 1.98647,-0.724159 0.9527,-0.306424 0.96558,-0.277897 1.38759,-0.33262 3.55296,-0.659857 0.46457,-0.07147 0.46933,-0.05201 1.45779,-0.110337 3.05986,-0.114659 1.5479,-0.0019 0.89887,0.04269 0.82463,0.07324 0.39766,0.06129 0.96448,0.191595 1.05202,0.262552 1.90888,0.574996 0.65326,0.239366 1.23738,0.668292 0.69122,0.45741 1.06178,0.615687 1.68517,1.279233 1.12149,0.754976 0.9597,0.737427 0.39042,0.273296" />
  <path
     id="path1040"
     style="fill:none;stroke:#a04cfd;stroke-width:2;stroke-miterlimit:4;stroke-dasharray:none;stroke-opacity:1"
     d="m 318.08295,94.393341 0.046,-0.03059 -0.0919,-0.417636 0.18419,-0.340592 0.27995,-0.360251 1.18055,-1.079389 0.54333,-0.62896 0.57095,-1.187859 1.06455,-2.006358 0.41992,-0.686725 1.47342,-1.971289 1.91728,-2.298824 0.99824,-1.703415 0.44387,-0.575673 0.582,-0.89562 1.04798,-1.291471 0.86009,-0.845901 0.52491,-0.613475 1.93203,-2.00074 0.64829,-0.807796 1.68153,-1.882554 0.83434,-0.781304 0.92456,-0.783885 0.92826,-0.916949 0.96876,-0.799597 1.27452,-0.873304 1.28186,-0.75246 1.18057,-0.616284 1.79205,-0.678071 1.49,-0.506372 0.41071,-0.124866 0.78644,-0.160846 1.34266,-0.148624 0.41071,0.01427 0.44386,0.08471 1.13823,0.103688 0.6133,0.0939 0.94483,0.308408 0.5157,0.290569 0.67408,0.630023 0.57832,0.832314 0.61148,0.436537 0.83615,0.500906 0.54149,0.462043 1.51945,1.940318 0.55254,0.900401 1.96886,3.656335 0.82326,2.460429 0.35916,0.788743 1.30212,2.476749 0.61884,1.415882 0.64093,1.954437 0.64646,1.439261 1.24873,2.356513 2.23775,3.847542 1.00561,1.546821 0.87483,1.478049 0.95405,1.31356 2.78475,3.299421 0.96509,1.3862 1.53235,2.41512 1.2119,1.70607 0.24863,0.42196 0.57463,0.79923 0.63541,0.73173 0.83432,0.65113 2.23592,2.04362 1.60971,1.28259 2.33905,1.43075 1.23398,0.63155 0.87116,0.37953 1.25241,0.62699 0.43098,0.19963 0.96324,0.33323 0.86931,0.26871 0.46045,0.11234 0.94668,0.15713 2.47165,0.27478 1.27266,0.15485 0.80118,0.12525 1.65759,0.11385 1.91911,-0.0432 1.06456,-0.11765 1.17504,-0.20723 0.33337,-0.0805 1.23213,-0.4228 0.52308,-0.24138 2.23775,-1.71131 0.8601,-0.77106 1.95596,-2.02875 0.87854,-0.96051 1.06085,-1.26543 2.53611,-3.86736 0.31496,-0.41582 1.43289,-1.77287 0.8067,-0.89053 1.72389,-2.084921 1.16216,-1.562687 2.04068,-2.480999 3.14022,-4.039358 1.39238,-1.626446 1.25977,-1.248735 0.81407,-0.894709 0.83802,-0.807568 1.51944,-1.63009 1.22847,-1.133053 0.6391,-0.720049 1.03875,-0.913837 1.30767,-1.026937 1.98543,-1.296784 0.95219,-0.548727 0.9651,-0.497643 1.38683,-0.595637 3.55113,-1.181634 0.46431,-0.127978 0.4691,-0.09314 1.45703,-0.197584 3.05826,-0.205327 1.54709,-0.0034 0.89842,0.07644 0.82419,0.131166 0.39744,0.10976 0.96399,0.343098 1.05147,0.470164 1.90789,1.029669 0.65291,0.428644 1.23675,1.196741 0.69085,0.819105 1.06123,1.10254 1.6843,2.290778 1.1209,1.351969 0.9592,1.320543 1.49441,1.874204 1.14006,1.236742 1.61321,1.490726 1.10284,1.281603 0.9546,1.275531 1.60952,1.786912 1.66552,1.406242 0.68734,0.876799 0.48273,0.513275 1.03323,0.861542 0.9629,0.58614 0.96177,0.46789 1.82371,0.76005 0.97522,0.25071 0.71275,0.0972 0.75514,0.0114 0.7927,-0.0429 0.42619,-0.0268 0.88717,-0.11522 1.06805,-0.27136 0.88662,-0.37081 1.5355,-0.94298 1.75705,-1.336329 0.3037,-0.195765 0.68791,-0.355015 0.27865,-0.19819 0.71056,-0.631465 0.34699,-0.390309 0.66284,-1.169871 0.55512,-0.61378 0.66212,-0.598293 0.76028,-0.522388 0.69268,-0.53719 0.53062,-0.517984 1.16733,-0.850835 0.95015,-0.542351 1.44838,-0.474946 1.09346,-0.247986 1.33344,-0.238802 0.78811,-0.05564 0.80872,0.04281 0.76544,0.08448 1.23896,0.19432 1.58557,0.42538 1.21574,0.430769 1.07081,0.562921 2.49654,1.669561 0.76451,0.731358 0.87982,0.495593 0.49101,0.197053 2.55987,0.798765 0.52877,0.115225 1.40805,0.194472 1.12311,0.103461 0.55234,0.01078 1.09604,0.07447 0.30814,0.0047 0.60059,-0.06983 1.48134,-0.09526 1.30747,-0.127448 1.1327,-0.14832 0.7809,-0.155153 0.88903,-0.238043 1.46899,-0.2889 2.12799,-0.605126 0.54018,-0.183921 0.55991,-0.140655 0.91093,-0.183009 1.38153,-0.236221 1.88671,-0.166387 1.36843,-0.199178 0.78349,-0.07743 0.59599,0.02163 1.10139,0.15151 1.39588,0.07735 1.8554,0.167677 0.57573,0.0076 1.14632,0.162136 0.64204,0.0089 1.53715,-0.05898 1.30838,-0.01693 0.90302,-0.05374 1.04577,-0.110748 0.4726,-0.02125 1.29108,0.0037 1.30213,-0.08585 0.61404,-0.01602 0.85589,0.03119 0.92529,-0.0025 1.77087,-0.06968 1.3458,0.04615 1.86367,-0.07651 0.34313,0.0062 0.85771,0.08008 0.51791,-0.01314 0.75217,0.03272 0.53798,0.07341 0.80116,0.01078 0.50208,-0.0139 1.78928,-0.137542 0.69895,0.06361 0.41183,-0.0084 0.71866,0.03978 0.9091,0.0051 2.53077,-0.182631 2.27918,0.06869 1.3946,-0.04706 1.17635,0.01784 1.74065,-0.0463 1.49332,0.02846 1.28555,-0.03825 1.84528,0.04212 0.63614,-0.0079 1.27689,0.06399 1.65097,0.0444 0.88902,-0.0236 1.88561,0.0077 1.14834,0.07788 1.56496,0.06035 2.20828,-0.100728 1.02311,0.0095 0.37922,0.01481 1.1513,0.128282 0.77575,0.03104 1.1859,-0.0032 0.41515,0.04129 0.35158,-0.0093 0.48089,0.0986 0.50594,0.04912 0.78072,0.01609 1.67491,-0.01799 0.61903,0.0312 0.36025,0.04387 1.12882,0.0042 1.01795,-0.05929 0.51918,-0.0043 1.50876,0.08335 2.24698,-0.09602 1.71651,0.05139 0.99161,-0.02619 1.68585,0.01647 0.60156,0.03127 0.33539,0.07143 0.35155,0.02058 0.96816,-0.01199 0.18966,-0.0079" />
  <path
     fill="none"
     stroke="#000000"
     stroke-width="1.26606"
     stroke-linecap="butt"
     stroke-linejoin="round"
     d="m 164.53113,93.029147 0.046,-0.05468 -0.092,-0.746524 0.18404,-0.608806 0.27975,-0.643948 1.17969,-1.929401 0.54292,-1.124263 0.57053,-2.123292 1.06375,-3.586353 0.41961,-1.227516 1.47232,-3.523668 1.91586,-4.109136 0.9975,-3.044845 0.44354,-1.029014 0.58157,-1.600915 1.04719,-2.308497 0.85946,-1.512043 0.52452,-1.096585 1.93058,-3.576312 0.64782,-1.44393 1.68029,-3.365055 0.8337,-1.396577 0.92389,-1.40119 0.92756,-1.639041 0.96805,-1.429277 1.27357,-1.561024 1.2809,-1.345018 1.1797,-1.101604 1.79071,-1.21205 1.48891,-0.905135 0.41039,-0.223198 0.78586,-0.287511 1.34165,-0.265666 0.41042,0.02551 0.44353,0.151421 1.13738,0.185342 0.61285,0.167839 0.94412,0.551277 0.51532,0.519392 0.67359,1.126162 0.57788,1.487756 0.61102,0.780308 0.83553,0.895367 0.54109,0.825898 1.51833,3.468309 0.55212,1.609463 1.96739,6.535677 0.82266,4.398003 0.35888,1.409875 1.30116,4.427175 0.61838,2.530881 0.64046,3.493546 0.64598,2.572671 1.2478,4.212255 2.23608,6.877461 1.00486,2.764932 0.87419,2.642005 0.95334,2.347983 2.78267,5.897689 0.96437,2.47784 1.53122,4.317 1.211,3.0496 0.24845,0.75425 0.5742,1.4286 0.63495,1.30798 0.83369,1.16388 2.23425,3.65297 1.60852,2.29262 2.33731,2.55748 1.23307,1.12887 0.8705,0.67842 1.25148,1.12073 0.43065,0.35684 0.96253,0.59565 0.86868,0.48031 0.4601,0.20082 0.94597,0.28085 2.46981,0.49118 1.27172,0.27679 0.80058,0.22388 1.65637,0.20352 1.91769,-0.0773 1.06376,-0.21031 1.17417,-0.37042 0.33311,-0.14382 1.23124,-0.75575 0.52268,-0.43146 2.23608,-3.05896 0.85947,-1.37826 1.95451,-3.62638 0.87787,-1.71692 1.06006,-2.26196 2.53424,-6.91287 0.31471,-0.74327 1.43183,-3.169 0.8061,-1.59182 1.72262,-3.72679 1.16129,-2.793283 2.03917,-4.434776 3.13788,-7.220329 1.39135,-2.907264 1.25884,-2.232108 0.81346,-1.599287 0.83738,-1.443523 1.51833,-2.913776 1.22756,-2.025329 0.63861,-1.287082 1.03799,-1.633477 1.30669,-1.835645 1.98395,-2.317996 0.95149,-0.980847 0.96437,-0.889532 1.38582,-1.064699 3.54849,-2.112165 0.46396,-0.228761 0.46875,-0.166481 1.45594,-0.353181 3.05599,-0.367021 1.54594,-0.0061 0.89775,0.136632 0.82359,0.234458 0.39715,0.196197 0.96327,0.613283 1.05068,0.840416 1.90647,1.84053 0.65243,0.766198 1.23583,2.139165 0.69033,1.464147 1.06045,1.970784 1.68305,4.094755 1.12006,2.416636 0.95848,2.360464 1.4933,3.35013 1.13921,2.21067 1.61202,2.664664 1.10203,2.290858 0.95388,2.280005 1.60833,3.194095 1.66427,2.513655 0.68685,1.56726 0.48236,0.91749 1.03247,1.53999 0.96217,1.04774 0.96105,0.83634 1.82236,1.35859 0.9745,0.44815 0.71224,0.17368 0.75456,0.0205 0.79211,-0.0767 0.42588,-0.048 0.8865,-0.20597 1.06726,-0.48507 0.88597,-0.6628 1.53434,-1.68558 1.75575,-2.38869 0.30348,-0.34992 0.6874,-0.6346 0.27845,-0.35425 0.71002,-1.12875 0.34674,-0.697674 0.66235,-2.091139 0.5547,-1.097126 0.66163,-1.069448 0.75972,-0.933765 0.69217,-0.960224 0.53022,-0.925895 1.16645,-1.520862 0.94945,-0.969449 1.44731,-0.848964 1.09264,-0.443274 1.33245,-0.426856 0.78752,-0.09946 0.80812,0.07652 0.76487,0.151015 1.23804,0.347346 1.5844,0.760363 1.21485,0.769997 1.07001,1.006219 2.49466,2.984332 0.76396,1.307298 0.87916,0.885869 0.49065,0.352231 2.55798,1.427785 0.52837,0.205965 1.40699,0.347617 1.12228,0.184936 0.55194,0.01927 1.09522,0.133104 0.3079,0.0084 0.60016,-0.124825 1.48023,-0.170285 1.30651,-0.227807 1.13185,-0.265123 0.78033,-0.277335 0.88836,-0.425502 1.46789,-0.516406 2.12641,-1.08166 0.53979,-0.328757 0.55948,-0.251419 0.91027,-0.32713 1.38049,-0.422243 1.8853,-0.297415 1.36742,-0.356031 0.78292,-0.138396 0.59554,0.03867 1.10056,0.270822 1.39484,0.13826 1.85403,0.299722 0.5753,0.01357 1.14548,0.289817 0.64156,0.01588 1.53599,-0.105425 1.30743,-0.03026 0.90236,-0.09606 1.04497,-0.197961 0.47225,-0.03799 1.29012,0.0067 1.30117,-0.153457 0.61359,-0.02862 0.85524,0.05577 0.92461,-0.0045 1.76955,-0.124557 1.34479,0.08249 1.8623,-0.136768 0.34287,0.01113 0.85707,0.143145 0.51753,-0.02348 0.75161,0.05848 0.53759,0.131205 0.80056,0.01926 0.5017,-0.02483 1.78795,-0.245856 0.69844,0.113701 0.41151,-0.01506 0.71812,0.0711 0.90843,0.0091 2.5289,-0.326452 2.27749,0.122793 1.39356,-0.08412 1.17547,0.03189 1.73936,-0.08277 1.4922,0.05088 1.28461,-0.06839 1.84389,0.0753 0.63568,-0.01411 1.27595,0.114381 1.64973,0.07937 0.88837,-0.04219 1.8842,0.0137 1.14749,0.139209 1.56379,0.107867 2.20664,-0.18005 1.02235,0.01696 0.37894,0.02646 1.15044,0.229304 0.77517,0.05549 1.18504,-0.0057 0.41483,0.07381 0.35133,-0.01669 0.48052,0.176251 0.50556,0.08779 0.78015,0.02877 1.67366,-0.03216 0.61856,0.05576 0.35999,0.07842 1.12798,0.0075 1.01719,-0.105968 0.51881,-0.0076 1.50762,0.148979 2.24533,-0.171638 1.71523,0.09186 0.99087,-0.04681 1.68461,0.02945 0.60109,0.0559 0.33515,0.127677 0.35129,0.03677 0.96744,-0.02144 1.15658,-0.08589 1.88946,0.09566 0.76408,-0.103118 1.17579,-0.269329 0.38812,-0.02904 0.6893,0.03528 0.37689,-0.05875 0.0866,-0.21017 0.0885,-0.06892 0.33016,0.252505"
     id="path22-9"
     style="stroke:#fd5252;stroke-width:2;stroke-miterlimit:4;stroke-dasharray:none;stroke-opacity:1" />
  <path
     id="path22"
     d="m 11.011023,93.679613 0.04596,-0.09761 -0.09192,-1.33259 0.183836,-1.086757 0.279431,-1.149486 1.178387,-3.4441 0.542316,-2.006878 0.569891,-3.790206 1.062571,-6.40186 0.419146,-2.191193 1.470686,-6.289963 1.913731,-7.335061 0.99639,-5.435236 0.443045,-1.836853 0.580921,-2.857731 1.046026,-4.12081 0.858513,-2.699089 0.523932,-1.95747 1.928438,-6.383937 0.647102,-2.577504 1.678421,-6.00683 0.832776,-2.492976 0.922856,-2.501211 0.926532,-2.92579 0.966977,-2.551346 1.272144,-2.786524 1.279497,-2.4009398 1.178388,-1.9664309 1.788722,-2.1635826 1.487232,-1.6157237 0.409954,-0.3984208 0.784979,-0.5132242 1.340163,-0.4742298 0.409954,0.045534 0.443044,0.2702965 1.136106,0.3308467 0.612173,0.2996028 0.943078,0.9840631 0.51474,0.9271459 0.672839,2.0102693 0.577244,2.6557353 0.610335,1.3928982 0.834615,1.598285 0.540477,1.474279 1.516646,6.191145 0.551507,2.872989 1.965205,11.666586 0.821746,7.850707 0.35848,2.516712 1.299719,7.90278 0.617689,4.517778 0.639748,6.236194 0.645264,4.592376 1.246407,7.519134 2.233605,12.27669 1.003744,4.935574 0.87322,4.716141 0.952269,4.191298 2.779598,10.52775 0.9633,4.42308 1.529514,7.70611 1.209639,5.44372 0.248179,1.34639 0.573568,2.55014 0.634233,2.33482 0.832776,2.0776 2.231767,6.52078 1.606725,4.09247 2.334715,4.56525 1.2317,2.01511 0.869544,1.21101 1.250083,2.00058 0.430176,0.63699 0.961461,1.06326 0.867706,0.85739 0.459589,0.35846 0.944916,0.50136 2.467077,0.87676 1.270305,0.4941 0.799686,0.39963 1.654523,0.3633 1.915569,-0.13806 1.062571,-0.37541 1.172872,-0.66121 0.332743,-0.25673 1.229862,-1.34906 0.522094,-0.7702 2.233605,-5.46042 0.858513,-2.46028 1.952331,-6.47331 0.8769,-3.06482 1.05889,-4.03773 2.53142,-12.3399 0.31436,-1.32678 1.43024,-5.65685 0.8052,-2.84151 1.72071,-6.65253 1.16,-4.9862 2.0369,-7.916347 3.1344,-12.888732 1.3898,-5.189644 1.25744,-3.98445 0.81255,-2.854825 0.83646,-2.576778 1.51664,-5.201269 1.22619,-3.615336 0.63791,-2.29752 1.03683,-2.915859 1.30524,-3.276739 1.98175,-4.137764 0.95043,-1.750872 0.9633,-1.58787 1.38428,-1.900553 3.54454,-3.770344 0.46345,-0.408352 0.46823,-0.29718 1.45432,-0.63045 3.0526,-0.655154 1.54422,-0.0109 0.89675,0.243897 0.82267,0.418523 0.39671,0.350223 0.9622,1.094749 1.04952,1.500194 1.90435,3.285458 0.6517,1.36771 1.23446,3.818543 0.68957,2.613592 1.05926,3.517971 1.68118,7.309388 1.11882,4.313844 0.95742,4.213573 1.49164,5.980188 1.13795,3.946182 1.61022,4.756588 1.1008,4.089324 0.95283,4.069948 1.60654,5.701653 1.66242,4.48703 0.68608,2.79766 0.48183,1.63777 1.03132,2.74898 0.9611,1.87028 0.95999,1.49292 1.82034,2.42516 0.97341,0.79999 0.71144,0.31002 0.75373,0.0366 0.79123,-0.13684 0.4254,-0.0857 0.88553,-0.36766 1.06607,-0.86587 0.88498,-1.18315 1.53264,-3.00887 1.7538,-4.26395 0.30314,-0.62463 0.68663,-1.13278 0.27814,-0.63239 0.70924,-2.01487 0.34635,-1.24539 0.66162,-3.732815 0.55408,-1.958438 0.66089,-1.909029 0.75888,-1.666828 0.6914,-1.714058 0.52963,-1.65278 1.16516,-2.714832 0.9484,-1.730527 1.44569,-1.515453 1.09143,-0.791271 1.33097,-0.761965 0.78664,-0.177533 0.80722,0.136601 0.76402,0.26957 1.23667,0.620035 1.58264,1.357295 1.2135,1.374492 1.06882,1.796163 2.49189,5.327214 0.76311,2.333608 0.87818,1.581331 0.49011,0.628754 2.55513,2.548686 0.52779,0.36766 1.40543,0.62052 1.12103,0.33012 0.55132,0.0344 1.09401,0.23759 0.30756,0.015 0.59949,-0.22282 1.47859,-0.30397 1.30505,-0.40665 1.13059,-0.47326 0.77946,-0.49506 0.88738,-0.759551 1.46627,-0.921817 2.12404,-1.930828 0.53919,-0.586853 0.55886,-0.448798 0.90925,-0.583947 1.37896,-0.75373 1.88321,-0.530905 1.3659,-0.635536 0.78204,-0.247045 0.59489,0.06903 1.09934,0.483434 1.39329,0.246803 1.85196,0.535022 0.57467,0.02422 1.1442,0.517342 0.64085,0.02834 1.53429,-0.18819 1.30597,-0.05401 0.90135,-0.171478 1.04382,-0.353372 0.47172,-0.06782 1.28869,0.01187 1.29972,-0.27393 0.61291,-0.0511 0.85429,0.09954 0.92359,-0.008 1.76758,-0.222341 1.34329,0.147259 1.86023,-0.244139 0.34249,0.01986 0.85612,0.255523 0.51695,-0.0419 0.75078,0.104388 0.53699,0.234209 0.79968,0.03439 0.50114,-0.04432 1.78596,-0.438869 0.69766,0.202965 0.41106,-0.02688 0.71732,0.126914 0.90742,0.01623 2.52609,-0.582736 2.27496,0.219192 1.39201,-0.150164 1.17416,0.05692 1.73743,-0.147743 1.49054,0.09083 1.28318,-0.12207 1.84185,0.134422 0.63497,-0.02519 1.27453,0.204176 1.6479,0.141687 0.88738,-0.07532 1.88211,0.02446 1.14622,0.248498 1.56205,0.19255 2.20419,-0.321401 1.02121,0.03027 0.37852,0.04723 1.14916,0.40932 0.77431,0.09906 1.18372,-0.01017 0.41437,0.131758 0.35094,-0.02979 0.47999,0.314619 0.505,0.156704 0.77928,0.05135 1.6718,-0.0574 0.61788,0.09955 0.35958,0.139992 1.12673,0.01332 1.01606,-0.189159 0.51823,-0.01356 1.50595,0.265937 2.24283,-0.306385 1.71333,0.163971 0.98976,-0.08356 1.68274,0.05256 0.60043,0.09979 0.33478,0.227911 0.35089,0.06564 0.96637,-0.03827 1.15529,-0.153314 1.88737,0.170752 0.76323,-0.184073 1.17448,-0.480769 0.38769,-0.05183 0.68854,0.06297 0.37646,-0.104873 0.0865,-0.375169 0.0884,-0.123038 0.32979,0.450736"
     stroke-linejoin="round"
     stroke-linecap="butt"
     stroke-width="1.26606"
     stroke="#000000"
     fill="none"
     style="stroke:#48aae5;stroke-width:2;stroke-miterlimit:4;stroke-dasharray:none;stroke-opacity:1" />
  <path
     id="path18"
     d="m 2.8175775,94.179723 -0.7502532,0.293609 -0.9590864,0.220167 -0.10828401,-0.195845 0.18562961,-0.06041 0.7579877,-0.10603 1.237531,-0.0744 13.4465478,-0.08091 27.214079,0.134008 9.668211,-0.04674 18.342529,0.03768 8.078757,-0.07408 49.435494,0.08409 9.16933,-0.05484 15.03987,0.07185 35.14201,-0.07456 8.9953,0.07948 34.98732,0.103645 27.45385,-0.02241 18.5243,-0.113978 12.91982,0.03593 24.68874,-0.07233 5.74563,0.105235 5.5948,0.03291 5.5627,-0.09856 5.70115,-0.02782 33.15964,0.07805 10.30283,-0.03879 5.21697,0.152607 5.30282,0.01605 5.47491,-0.174067 5.73248,-0.05898 25.55192,-0.0073 44.3214,0.369118 5.14774,-0.01065 9.31397,-0.198229 3.96087,-0.03402 3.7474,-0.189487 3.72652,-0.04006 3.38851,0.212378 3.21371,0.04976 12.25233,0.03402 6.30561,0.07535 10.01781,-0.121609 11.99709,0.120814 6.06545,6.36e-4 3.20018,0.133849 3.35564,0.01129 3.22725,-0.145771 12.36564,-0.03577 5.4668,-0.101261 2.54544,0.09379 4.37931,0.04594 3.46393,-0.07535 3.20675,0.05166 5.66906,-0.07138 12.53889,-0.02321 3.08068,-0.15356 0.25563,0.01733 -0.309,0.05214 -0.38905,-0.02114 0.39408,0.05087 1.73409,-0.04483"
     stroke-linejoin="round"
     stroke-linecap="butt"
     stroke-width="1.48767"
     stroke="#000000"
     fill="none"
     style="stroke-width:2;stroke-miterlimit:4;stroke-dasharray:none" />
  <path
     id="path14"
     d="m 10.464299,0.95557534 -0.346879,0.10699476 0.02753,0.040575 0.126642,-0.088045 -0.04992,0.084909 0.148173,1.0874169 -0.107961,2.1071618 0.105154,3.7419653 -0.02383,15.5710329 0.183022,3.332545 -0.02623,24.242757 0.124318,10.514051 -0.06944,3.576273 -0.05316,13.015045 0.09083,7.623055 0.113002,3.754468 -0.01815,16.0475 0.139476,5.44778 -0.0081,7.1706 -0.127974,8.13019 0.08993,6.9912 -0.02364,9.86966 0.108438,4.80864 -0.0097,5.8949 0.04401,2.29737 0.07862,1.02792 -0.04191,2.70609 0.05772,0.61357 -0.02943,0.9773 0.05026,-0.10401 -0.07156,0.16733 -0.05315,0.72212 0.129898,0.52494 0.105724,1.09209 -0.09904,1.14842 0.05192,1.28221 -0.0074,0.0748 -0.06186,-0.0386 -0.01832,0.12331 -0.0044,0.70238 0.007,-0.16472 -0.08481,0.004"
     stroke-linejoin="round"
     stroke-linecap="butt"
     stroke-width="1.16622"
     stroke="#000000"
     fill="none"
     style="stroke-width:2;stroke-miterlimit:4;stroke-dasharray:none" />
</svg>
