<?xml version="1.0" encoding="UTF-8" standalone="no"?>
<svg
   xmlns:dc="http://purl.org/dc/elements/1.1/"
   xmlns:cc="http://creativecommons.org/ns#"
   xmlns:rdf="http://www.w3.org/1999/02/22-rdf-syntax-ns#"
   xmlns:svg="http://www.w3.org/2000/svg"
   xmlns="http://www.w3.org/2000/svg"
   xmlns:sodipodi="http://sodipodi.sourceforge.net/DTD/sodipodi-0.dtd"
   xmlns:inkscape="http://www.inkscape.org/namespaces/inkscape"
   inkscape:version="1.0 (4035a4f, 2020-05-01)"
   sodipodi:docname="reverb - page 10.svg"
   id="svg1329"
   version="1.2"
   viewBox="0 0 230.33453 124.16679"
   height="124.16679"
   width="230.33453">
  <metadata
     id="metadata1335">
    <rdf:RDF>
      <cc:Work
         rdf:about="">
        <dc:format>image/svg+xml</dc:format>
        <dc:type
           rdf:resource="http://purl.org/dc/dcmitype/StillImage" />
      </cc:Work>
    </rdf:RDF>
  </metadata>
  <defs
     id="defs1333" />
  <sodipodi:namedview
     inkscape:current-layer="svg1329"
     inkscape:window-maximized="0"
     inkscape:window-y="0"
     inkscape:window-x="1440"
     inkscape:cy="78.890526"
     inkscape:cx="121.9419"
     inkscape:zoom="3.5414355"
     inkscape:snap-global="false"
     showgrid="false"
     id="namedview1331"
     inkscape:window-height="1080"
     inkscape:window-width="1920"
     inkscape:pageshadow="2"
     inkscape:pageopacity="0"
     guidetolerance="10"
     gridtolerance="10"
     objecttolerance="10"
     borderopacity="1"
     bordercolor="#666666"
     pagecolor="#ffffff" />
  <title
     id="title833">reverb</title>
  <path
     style="opacity:1;stroke:#96cef0;stroke-opacity:1"
     fill="none"
     stroke="#fff3a8"
     stroke-width="6"
     stroke-linecap="butt"
     stroke-linejoin="round"
     opacity="0.250004"
     d="m 56.358792,34.228992 -0.008,0.059 -0.719,0.045 -1.4014,0.3956 -0.4008,-0.002 -1.4786,0.2326 -1.556,0.8312 -0.222,0.2672 -0.3924,1.2518 -0.1942,0.4472 -0.4788,0.7612 -0.1676,0.463 0.183,1.2222 -0.1762,1.1856 -0.4162,1.1648 -0.0302,0.726 -0.0544,0.1356 0.1906,0.9796 -0.0912,0.9114 -0.1168,0.4218 0.037,0.947 -0.0956,0.6186 0.01,2.264 0.1038,2.3538 -0.201,2.2186 0.079,0.482 -0.0668,0.535 0.163,3.3206 -0.2814,2.9344 0.1676,1.6422 -0.0432,0.3362 0.0346,1.8216 -0.1714,1.3482 -0.006,1.2796 -0.1676,0.9754 0.0432,0.6132 -0.5178,3.5114 0.0992,0.204 0.0262,0.2416 -0.0324,0.2834 0.0946,1.9204 -0.1026,2.4594 -0.707,6.0086 -0.0172,0.2344 0.1148,0.4522 -0.112,0.5124 0.023,0.6878 -0.1086,1.3076 0.0164,0.834 0.279,1.7236 0.0274,1.3174 0.179,0.8892 -0.0108,0.4226 0.0968,0.4224 -0.0948,0.6714 0.0122,0.407 -0.1316,0.5996 -0.0112,2.556 0.04,0.659 0.1098,0.2258 0.01,0.201 -0.07,0.1444 0.2002,1.888798 0.0702,2.1624 0.1972,1.9842 -0.0492,0.2782 0.0808,2.0876 0.3942,2.2882 0.1492,1.8488 0.2042,0.8502 -0.0212,1.225 0.1154,0.515 -0.0156,0.72 0.115,1.0086 0.2364,0.2838 0.1006,0.5488 0.1566,0.1906 0.0386,0.178 0.269,0.1284 1.255,0.963 0.9276,0.069 0.598,0.2266 0.5838,0.1246 1.289,0.0498 1.3326,0.4338 0.5632,0.031 1.6014,-0.1116 0.7946,0.0434 1.387,-0.0956 0.9298,0.0856 1.172,6e-4 1.2722,-0.1214 0.5228,0.04 0.789,0.234 1.0882,-0.2068 0.7262,0.0174 1.7808,0.3354 0.44,-0.0556 0.6224,-0.1884 1.817,-0.1468 0.3258,-0.0858 0.6648,-0.2888 0.5064,-0.418 0.6414,-0.913 0.7092,-0.7486 0.436,-0.6032 0.4066,-0.887 0.4886,-1.8896 0.253,-0.2602 0.5504,-0.9806 0.0812,-0.191 -0.006,-0.1754 0.3536,-0.7198 0.0844,-0.5514 0.054,-1.528 0.1272,-0.1516 0.0364,-0.1808 -0.0908,-0.1446 0.007,-0.7282 0.1676,-0.4516 -0.0682,-0.614 0.1208,-0.2526 0.01,-0.2456 -0.075,-1.7778 0.1014,-1.2854 -0.067,-0.2012 0.0106,-0.2252 0.1874,-0.4376 0.0326,-0.8786 -0.2098,-1.318398 0.0548,-1.7614 -0.0424,-0.5174 0.1058,-0.1966 -0.0134,-0.1894 -0.1328,-0.1624 -0.0202,-0.1802 0.0316,-1.5776 -0.0844,-0.2758 0.0128,-0.2552 0.1304,-0.2506 0.015,-0.4428 -0.109,-0.4198 0.0124,-0.659 -0.1208,-0.9934 0.0282,-1.2778 -0.0934,-0.468 0.0792,-0.392 -0.1688,-2.3312 0.0878,-1.4764 -0.1032,-0.4958 0.0654,-1.2512 -0.2892,-2.0624 0.0346,-0.7262 -0.0664,-1.0344 0.0984,-0.4982 0.0142,-0.7138 0.102,-0.7778 -0.3632,-2.9558 0.0226,-1.1044 0.131,-0.7374 -0.0628,-0.35 0.0472,-0.5764 -0.0692,-1.4436 0.0322,-0.7804 -0.136,-0.529 0.0544,-1.3768 -0.106,-0.2948 -0.2146,-2.4878 0.0212,-0.3744 -0.1678,-0.8022 0.0564,-0.4114 -0.183,-1.1674 0.0126,-2.868 -0.1972,-1.1984 -0.2256,-2.6616 0.1062,-1.8428 -0.0684,-0.4768 0.01,-1.6632 -0.1212,-1.981 -0.1218,-0.163 -0.0318,-0.1856 0.1964,-0.1776 0.0368,-0.2034 -0.1378,-0.1848 -0.1168,-0.4078 -0.093,-1.0792 0.0658,-1.4602 -0.0838,-0.4588 0.106,-0.0828 -0.0514,-0.3184 -0.0258,-2.5102 0.0684,-0.1362 -0.1096,-0.6084 0.0736,-0.9352 -0.0294,-0.7646 -0.2052,-0.5174 0.0774,-0.3476 -0.0584,-1.8108 -0.2528,-0.226 0.0278,-0.0798 -0.2134,-0.7262 -0.1538,-0.2402 -0.0618,-0.2884 -0.1756,-0.2232 -0.2314,-0.825 -0.1984,-0.188 -0.1534,-0.3398 -0.3094,-0.1678 0.055,-0.0766 -0.1346,-0.3876 -0.2814,-0.1632 -0.3038,-0.4054 -0.2652,-0.084 -0.5162,-0.06 -0.072,-0.0624 -0.4314,-0.008 -1.0302,0.2816 -0.3872,0.008 -0.1854,0.1082 -0.9782,0.16 -0.2332,-0.0382 -0.9844,0.0598 -0.8702,0.1394 -1.973,0.0106 -0.6796,0.1644 -0.8824,0.0476 -0.144,0.0616 -1.1464,-0.0244 -0.6346,0.1008 0.0298,0.0536 -0.1548,0.0396 -0.1576,-0.0572 -0.5442,0.0582 -0.5014,0.183 -0.396,0.3394 0.0528,0.0476 -0.2198,0.3384 -0.038,0.3062 -0.093,0.2254 -0.0976,0.043 0.2046,-0.014 -0.1036,-0.0196 0.0506,0.0662 -0.004,0.4942 -0.067,0.1572 -0.2466,0.1698 -0.01,0.1022 0.1588,0.053 0.0134,0.0652 -0.15,0.1424 10e-4,0.1546 -0.098,0.2006 0.1636,0.113 -0.0154,0.1752 0.1974,0.1408 -0.0686,0.1296 0.0336,0.2624 -0.0774,0.1152 0.1908,0.3062 -0.074,0.1958 0.15,0.0414 0.0254,0.0766 -0.1236,0.0566 -0.1218,0.1946 -0.3998,0.3438 -0.8412,0.24 -0.5992,0.3196 -0.9616,0.1016 -1.3032,0.3086 -0.527,-0.009 -0.1972,0.072 0.051,0.0326 -0.2616,0.1708 -0.0568,0.172 -0.078,0.035 0.0266,0.3986 -0.0918,0.1932 0.0772,0.173 -0.1498,0.756 0.0404,0.383 0.1644,0.2446 0.084,0.312 -0.01,0.4916 -0.0666,0.2514 0.043,0.1238 -0.095,0.2372 -0.011,0.4022 0.2548,1.0792 -0.3452,2.3334 0.0398,0.7412 -0.0446,0.5228 0.0656,0.448 -0.0966,0.3738 -0.009,1.3424 0.0414,1.1926 0.089,0.2718 -0.0122,0.6418 0.0604,0.419 -0.0616,1.4558 0.1236,0.7248 -0.006,0.5016 0.1078,0.4138 -0.1544,0.3926 -0.066,0.8714 0.0728,0.6536 0.1334,0.459 0.0736,1.1352 -0.1458,1.0298 0.0316,1.1466 0.114,0.1756 0.0116,0.2144 -0.0682,0.2354 -0.0256,2.0764 -0.0668,0.3558 0.0814,0.3084 0.006,2.2202 0.1612,1.216 0.0766,1.4122 -0.442,2.6474 0.0212,0.559 -0.1234,0.3734 0.0896,0.8472 -0.1196,0.6074 0.0244,0.3542 -0.2092,1.9162 0.1126,0.3676 -0.0502,0.5494 0.0406,0.5024 -0.1326,1.5512 -0.147,0.7338 -0.0136,1.2436 -0.0614,0.3678 0.0496,0.5104 -0.2038,0.9648 -0.004,0.7712 -0.1934,0.9598 0.1884,1.7028 -0.0298,0.9598 0.1358,0.8434 0.0388,0.9666 0.0916,0.5636 -0.0186,1.1762 0.0482,0.4344 -0.0694,1.0444 -0.1566,0.624 -0.1986,1.6282 0.0638,0.3812 -0.0166,0.8356 -0.1622,1.004 -0.0208,0.5694 0.0942,0.892798 -0.2534,2.4936 0.0678,0.8186 -0.0808,1.0278 0.0998,0.5968 0.258,0.6868 0.017,0.6692 0.2006,0.8792 0.01,0.6594 0.1246,0.664 -0.0524,0.3264 0.0318,1.6766 0.0672,0.2866 0.01,0.694 0.0688,0.1766 -0.0656,0.0546 0.0754,0.093 -0.0132,0.3348 0.1418,0.8988 0.17,0.2122 0.0958,0.2702 0.221,0.1832 0.2776,0.0874 0.489,-0.0736 1.1768,-0.4704 2.44,0.1206 0.7354,-0.016 1.2518,-0.3234 0.769,0.224 1.1102,-0.2404 0.7734,0.1582 1.1174,-0.1588 0.6662,0.025 0.9136,-0.1046 0.7898,0.0852 0.9778,-0.1356 0.3794,0.1414 1.0452,0.1622 0.393,0.1632 0.2012,-0.0176 0.7694,0.1684 0.3156,-0.116 0.0458,-0.074 -0.0704,-0.1072 0.0516,-0.0902 0.2098,-0.1166 0.4352,-0.5716 0.254,-0.7352 -0.0776,-1.4792 0.097,-0.4328 0.0796,-1.275 -0.043,-0.1696 0.2576,-1.216 -0.149,-0.7252 0.0752,-0.5832 -0.0638,-0.193 0.015,-0.1738 0.1422,-0.3026 -0.0664,-0.3482 0.1022,-0.0908 0.0828,-0.4094 -0.008,-0.8384 -0.144,-0.5622 0.1702,-0.9354 -0.0932,-0.3744 -0.0942,-1.913198 -0.0832,-0.4908 -0.0142,-0.8804 -0.0954,-0.8382 -0.006,-1.1902 -0.2584,-1.7818 0.0864,-0.7846 -0.0862,-0.968 0.1156,-2.1436 -0.0404,-1.832 0.0424,-0.2646 -0.1272,-0.503 -0.165,-1.3734 -0.0636,-1.5142 -0.1872,-0.6984 -0.0168,-0.7404 0.1198,-0.2484 0.001,-0.275 -0.1032,-0.2938 -0.1574,-1.0162 -0.0384,-2.1174 -0.1338,-0.6794 0.1568,-0.3548 0.0488,-0.3452 -0.1986,-1.7592 0.0122,-2.415 -0.114,-0.661 0.085,-0.2942 0.0148,-0.9034 0.0848,-0.212 -0.197,-0.9174 -0.06,-1.9718 -0.0872,-0.3252 0.0154,-0.2914 0.2004,-0.248 0.029,-0.2572 -0.0924,-0.5726 0.0822,-0.333 -0.0672,-0.1786 -0.0172,-0.425 0.2344,-1.8728 -0.0358,-0.5602 0.0464,-0.2456 0.148,-0.1812 0.0294,-0.1808 -0.0154,-0.8504 -0.2004,-1.559 0.083,-0.8556 -0.0478,-1.3706 0.0714,-0.73 -0.1466,-1.4594 -0.0254,-1.46 -0.134,-1.5242 -0.0636,-0.1854 0.0452,-0.1314 -0.2246,-0.5522 0.0224,-2.2622 -0.0646,-0.3148 0.0652,-0.7148 -0.0216,-0.2098 -0.1476,-0.3422 0.0666,-0.156 -0.1858,-1.0814 -0.034,-1.1078 -0.167,-0.925 0.0864,-0.2766 -0.142,-1.2496 -0.002,-1.451 -0.1672,-0.8534 0.0672,-0.3878 -0.103,-0.5628 0.094,-1.024 -0.104,-0.4064 0.088,-0.129 -0.0148,-1.2364 0.067,-0.1254 -0.0702,-0.0528 0.0794,-0.0292 0.0738,-0.3716 -0.0908,-0.084 -0.057,-0.4894 -0.0664,-0.1098 -0.1068,-0.003 0.0462,-0.1206 -0.2076,-0.1428 -0.4136,0.021 -0.6196,0.1622 -0.827,0.0282 -0.7416,0.1414 -0.0996,0.0208 0.0882,0.0388 -0.0682,0.0432 -1.0496,0.1566 -0.2296,0.1274 -0.3336,0.0372 0.067,0.0184 -0.6208,0.0538 -1.098,0.2886 0.152,0.0386 -0.2062,0.004 0.0696,-0.0426 0.086,0.016 -0.0424,0.0294 -0.1476,0.0166 0.1508,-0.0126 -0.0744,0.03 0.0612,0.063 0.0996,0.706 0.0848,0.209 0.1124,0.9442 0.168,0.1148 0.0168,0.1378 -0.07,0.133 0.1372,1.2328 -0.1032,0.1954 0.1224,0.0876 0.0186,0.1118 -0.0504,0.231 0.2932,1.8142 0.003,0.32 -0.0712,0.1556 0.0302,0.1764 0.1338,0.1578 -0.0538,0.3062 0.1048,1.2418 0.1098,0.356 -0.0124,0.3556 0.2234,1.1088 -0.0782,1.3398 0.1246,0.5888 -0.0232,0.4074 0.0518,0.2568 0.1878,0.4334 0.1158,1.0894 0.002,1.1052 0.2466,2.987 -0.0916,0.52 0.031,0.6136 -0.059,0.693 0.0266,0.5422 0.0742,0.2274 0.006,1.562 0.0668,0.469 -0.1042,0.6314 0.009,1.0432 0.0744,1.515 0.0854,0.248 0.144,1.2056 -0.0526,0.141 0.0174,1.5042 -0.1708,1.0418 0.002,0.249 0.119,0.2526 10e-4,0.9816 0.0612,0.201 -0.0908,1.1682 0.0536,2.274 -0.0206,0.3232 -0.2336,0.9526 0.0476,0.4992 -0.0778,0.9266 0.126,1.2448 -0.1124,0.2752 -0.0176,0.2962 0.149,0.2614 -0.004,0.2648 -0.0874,0.2524 -0.1226,1.2892 0.1218,0.7606 0.0358,0.8468 -0.1796,0.8524 0.0596,0.2646 -0.107,0.9378 -0.079,1.9022 0.037,0.899 -0.066,0.6994 0.1484,0.3628 -0.0848,0.1544 0.1018,1.4388 -0.1516,1.0764 -0.0668,1.3704 -0.0782,0.2916 0.003,0.2632 0.1642,0.228 0.042,0.7592 0.1086,0.5756 0.0512,1.0462 -0.105,0.5598 0.0936,0.4906 -0.0676,0.7074 0.0324,0.5294 0.18,0.8686 0.0156,0.7528 0.0978,0.459 -0.025,0.841798 0.1092,0.7086 -0.2238,0.7706 -0.0956,1.7256 -0.1282,0.127 0.1068,0.1052 0.0938,0.5012 0.003,0.2206 -0.092,0.2318 -0.0688,1.5826 0.1344,1.531 0.007,0.6588 -0.049,0.1038 0.1026,0.1976 0.0124,0.6928 0.1504,0.1752 0.0372,0.1874 -0.0918,0.132 -0.0656,0.3842 0.0814,0.2378 -0.0724,0.1766 0.1912,0.2586 0.0368,0.3418 0.1202,0.305 -0.0352,0.1832 0.1316,0.18 -0.1018,0.091 0.0708,-0.0216 -0.1346,-0.0412 0.1356,0.0216 -0.0766,0.022 -0.0234,-0.0692 0.0172,0.0576 0.0406,-0.0446 -0.0494,0.037 0.0562,-0.006 -0.02,0.0394 0.0168,-0.058 0.3728,0.0854 0.324,-0.1244 0.2818,-0.7536 0.6774,-1.309 0.3358,-1.3928 0.0966,-0.906 0.185,-0.7606 0.0172,-1.5614 0.155,-0.2536 0.0386,-0.2948 -0.0664,-0.2912 0.037,-0.6042 0.1448,-0.3054 0.0312,-0.2768 -0.0944,-0.251 0.1028,-2.4114 -0.0504,-0.916598 0.07,-0.609 -0.0704,-0.9646 0.094,-0.5784 -0.1274,-0.2876 -0.038,-0.2852 -0.001,-1.0908 0.0632,-0.6006 -0.1208,-0.4446 0.1032,-0.2404 -0.007,-0.269 -0.0648,-0.2658 -0.031,-0.8978 0.0384,-0.6066 -0.1198,-0.6964 0.1472,-0.1188 -0.018,-0.159 -0.1672,-0.12 -0.159,-0.3688 0.0226,-0.3614 -0.0564,-0.2602 0.0452,-0.1402 -0.0642,-0.003 0.0646,-0.0314 -0.0528,0.0136 -0.0298,-0.1108 -0.0284,-0.3806 -0.1072,-0.1292 0.0634,-0.0348 -0.0178,-0.076 -0.169,-0.0382 0.1572,0.0196 0.01,0.0592 -0.0874,-0.0668 0.0976,-0.0356 -0.3448,-0.2536 0.051,-0.2794 -0.2806,-1.5114 -0.0162,-2.376 -0.2874,-3.2388 -0.0684,-1.6738 0.0392,-3.4198 0.0982,-2.3968 -0.0284,-3.4774 -0.2888,-5.4834 0.0816,-4.1702 -0.3546,-2.6728 -0.1362,-3.1736 -0.2874,-1.402 -1.2442,-4.3192 -0.2218,-0.6138 -0.3692,-0.5794 -0.3058,-0.7136 -0.5892,-1.9962 -0.2648,-0.3902 -0.1284,-0.0746 0.0446,-0.0684 -0.232,-0.1766 -0.1992,-0.3324 -0.0248,-0.3498 -0.24,-0.3632 -0.3134,-0.7006 -0.421,-0.3264 -0.1974,-0.0748 -0.2264,-0.2772 -0.5442,-0.2636 -0.5062,0.0512 -0.411,-0.0776 -0.1664,0.0458 -0.1016,0.1574 -0.0594,0.7056 -0.1122,0.4252 0.091,0.186 -0.004,0.1772 -0.2444,0.8054 -0.0132,0.4182 0.1626,0.9988 0.0198,0.5438 0.3156,1.853 -0.11,0.1216 -0.0234,0.1442 0.0968,0.1552 0.008,1.279 0.234,1.325 4e-4,0.8762 0.1068,0.3756 0.0128,0.4598 0.2716,1.0922 0.0918,0.9698 0.1022,0.199 0.0256,0.1838 -0.1134,0.1698 0.0204,0.172 0.1698,0.421 0.0486,0.4522 0.2312,0.8172 -0.043,0.4864 0.1002,0.1034 -0.1254,1.4 0.1148,1.7944 0.1284,0.326 -0.0378,0.4154 0.0438,0.6204 -0.1578,2.1746 0.26,0.9522 -0.1018,0.5322 0.052,1.3164 -0.0722,0.3182 0.1886,0.166 0.0498,0.201 -0.1294,0.1676 -0.036,0.5342 0.071,1.1208 -0.0506,0.5944 0.0942,0.4186 0.0178,0.688 0.1088,0.4904 -0.0998,1.536 0.0438,0.5352 -0.0576,2.0214 0.1126,2.4778 -0.0178,1.5086 -0.1064,1.6394 0.1796,3.081 -0.1342,1.5878 0.042,1.4064 -0.1012,1.5052 0.0146,2.5822 0.2488,2.944 0.0356,2.1558 0.0884,0.5872 -2e-4,0.578 -0.0708,0.2714 0.0838,0.8636 -0.0524,0.823198 0.0724,0.733 -0.0122,0.9974 -0.2744,1.8866 0.0246,0.5028 -0.1088,0.7702 0.0162,0.6812 -0.1002,1.511 0.0152,0.911 0.0922,0.1878 -0.1008,0.2936 -0.0474,0.697 -0.1882,0.7924 -0.3198,0.811 -0.4608,0.8076 -0.381,0.3142 -0.2688,0.1102 -0.7366,0.095 -0.7394,-0.1872 -0.14,-0.1706 -1.1782,-0.8508 -0.1678,-0.1944 -0.9794,-0.532 -0.2196,-0.2414 -0.0712,-0.598 0.0846,-0.5664 0.6406,-1.67 0.6126,-0.789 0.1794,-0.3902 0.5286,-1.8048 0.1712,-0.9374 0.0704,-1.6874 0.1272,-0.7536 -0.0568,-0.7674 0.0558,-0.791598 -0.0326,-1.0772 -0.2392,-1.6186 0.1164,-0.4336 0.003,-0.411 -0.161,-0.3976 -0.209,-1.2026 -0.0776,-1.7848 -0.112,-0.945 0.0528,-1.2964 -0.028,-1.7502 0.0716,-1.044 -0.0396,-1.8888 -0.1106,-0.4148 0.0832,-1.6956 -0.0888,-0.7418 0.042,-0.3842 -0.0598,-1.1502 0.0566,-1.1506 0.5728,-3.1492 0.2106,-1.7856 -0.1732,-2.3798 -0.0194,-1.3228 0.0552,-1.1866 0.1416,-0.9036 0.218,-2.8518 -0.069,-0.7594 -0.2498,-1.152 -0.115,-0.9092 -0.0692,-1.6764 0.0386,-1.1586 0.0758,-0.5366 0.3544,-1.316 0.0982,-0.786 0.2644,-1.168 0.3684,-2.7054"
     id="path1313" />
  <path
     style="opacity:1;stroke:#fea1a1;stroke-opacity:1"
     fill="none"
     stroke="#fff3a8"
     stroke-width="6"
     stroke-linecap="butt"
     stroke-linejoin="round"
     opacity="0.250004"
     d="m 85.475392,32.651992 0.0856,0.879 -0.0574,0.8804 0.0954,0.6688 -0.0482,0.3148 0.1654,1.658 -0.1132,2.311 0.1728,2.456 -0.0104,0.6716 -0.1656,1.4234 0.0656,0.984 -0.0584,0.1976 0.0172,0.9036 -0.1966,1.6778 0.0846,1.418 0.1194,0.5024 0.0152,0.9432 -0.0962,2.4744 0.017,1.841 -0.1566,1.399 -0.0974,1.973 0.0822,0.6252 -0.0168,1.0262 0.108,0.3418 0.0406,0.9972 -0.268,2.961 0.1348,1.8374 0.0704,2.768 -0.0654,0.6428 0.0352,0.5784 -0.0744,2.0638 0.1296,0.8976 0.0176,0.979 -0.1306,1.427 0.0806,1.5 -0.04,1.333 -0.1406,1.3244 0.022,0.9342 -0.0828,1.6658 0.1906,2.2566 -0.1882,2.0296 0.0736,0.7074 0.2596,0.953 0.0942,0.6454 -0.0776,1.6348 0.102,0.4152 -0.0368,0.4176 0.0778,0.6624 -0.1174,2.7 -0.2256,1.4048 0.0486,0.2008 -0.0624,0.64 0.0878,0.6198 0.009,1.0084 -0.1016,1.194 0.2284,1.656798 0.008,1.1888 -0.0474,0.1866 0.142,0.5366 -0.055,0.2588 0.0586,0.0926 0.008,1.5558 0.0658,0.5358 -0.0526,0.3634 0.1138,0.3826 0.032,0.5466 -0.1254,1.4014 0.043,1.5568 0.113,1.1192 0.2016,0.9666 v 0.4154 l 0.2586,1.2924 -0.0548,0.794 0.0498,0.3276 0.0958,0.091 -0.12,0.1416 2e-4,0.0976 0.2402,0.8288 0.1914,0.2628 0.0308,0.2626 0.2238,0.2664 0.6126,0.4808 0.4446,0.6868 0.5264,0.2164 0.5846,0.4228 0.1614,0.2056 0.535,0.21 0.289,0.0402 1.0534,0.444 1.111,0.1344 0.6882,0.3238 0.9068,0.2124 1.3598,0.5078 1.0484,0.289 2.2126,0.043 1.777398,0.1996 2.3906,-0.2986 1.4552,0.232 0.524,-0.0334 0.5996,-0.1342 0.6038,0.0582 0.7614,-0.0904 1.0222,-0.27 0.9274,-0.5278 0.9172,-0.2868 1.5308,-0.953 0.6374,-0.7486 0.4794,-0.684 0.4686,-0.3088 0.598,-0.6816 0.7372,-1.1224 0.1262,-0.5706 0.21,-0.2558 0.4292,-0.9614 0.07,-0.5122 0.1992,-0.6624 -0.04,-0.3038 0.0796,-0.3806 -0.061,-0.5488 0.304,-3.0886 -0.0414,-0.507 0.0878,-0.4102 -0.001,-0.7124 0.2788,-1.5108 0.0472,-1.0036 -0.1362,-0.7312 -0.006,-0.684 0.1076,-2.052 0.127,-0.787398 -0.1748,-1.4144 0.1856,-2.0372 -0.0254,-0.2124 0.1162,-0.4082 -0.007,-0.381 0.054,-0.1542 -0.1868,-0.7132 0.1258,-2.3908 -0.1244,-0.454 -0.075,-1.2104 -0.1538,-0.961 0.0192,-2.7652 -0.0964,-0.9332 0.0684,-0.232 -0.0154,-2.8548 0.0948,-0.5914 0.0498,-1.483 -0.1126,-0.6746 -0.0286,-0.803 -0.2442,-1.2466 -0.082,-1.5658 0.0678,-0.6952 -0.1188,-0.7546 -0.1898,-0.5706 -0.1494,-0.8346 -0.182,-2.3092 -0.461,-2.3378 -0.0368,-0.4992 0.0684,-0.5406 -0.0898,-0.9362 0.0442,-0.3104 -0.137,-1.0886 -0.0238,-0.9668 0.0586,-2.0944 0.1056,-0.2406 -0.0592,-0.5446 0.022,-0.6558 0.1304,-1.4492 -0.058,-1.7174 0.033,-1.4424 0.3798,-1.6836 0.008,-0.8196 0.0728,-0.2924 0.0594,-0.9638 -0.0936,-0.9982 0.0768,-1.4564 -0.1394,-0.5944 0.0934,-1.6558 0.171,-1.1294 -0.1202,-1.1996 -0.1588,-0.8032 0.0348,-0.7946 0.2402,-1.419 0.0104,-0.5902 -0.1798,-0.4692 -0.0402,-0.598 0.149,-2.0816 -0.0308,-0.2138 0.0604,-0.0568 -0.184,-0.3364 -0.0148,-1.4996 -0.0672,-0.2012 0.0462,-0.1072 -0.2778,-0.2506 -0.247,-0.6044 -0.2964,-0.4632 -0.215,-0.1112 -0.2758,-0.2712 -0.121,-0.2704 -0.8218,-0.532 -0.0382,-0.1036 -0.4596,-0.4208 -0.6998,-0.2342 -0.636,-0.3824 h -0.209 l -0.3436,-0.117 -0.0772,-0.0428 0.0246,-0.0432 -0.5218,-0.2562 -0.5614,-0.005 -0.042,-0.0674 -0.2828,-0.0796 -0.5734,-0.0846 -0.9544,0.0754 -0.649,0.2228 -1.1148,0.1862 -0.8182,-0.0614 -3.084,0.1488 -0.5196,-0.0822 -0.5224,0.1094 -1.244198,-0.0856 -1.3504,0.308 -0.1824,-0.0762 -0.4416,0.005 -0.8564,0.0554 -0.917,0.1444 -0.7592,-0.141 -0.8292,0.048 -0.2932,-0.0764 -0.3508,0.0154 -0.0884,-0.0634 -0.4412,-0.0182 -0.6912,0.0904 -0.1844,-0.0532 -1.91,0.6006 0.0426,0.0234 -0.0922,0.766 0.0852,1.0548 0.1372,0.2978 0.043,0.4812 0.1068,0.2448 -0.0822,0.7008 0.0932,0.6856 0.1218,0.696 0.2692,0.508 0.1162,0.7652 0.002,1.6502 -0.0852,0.598 0.005,0.6688 0.194,0.8164 0.0344,0.8658 -0.1172,1.5036 0.3176,1.985 -0.0606,2.0268 -0.1598,1.4162 0.1782,1.2542 0.053,0.9846 0.1376,0.6704 0.026,0.6062 -0.2224,4.0764 0.2098,1.986 0.1016,1.979 -0.1582,2.427 0.1704,1.0646 0.0266,1.0004 0.1026,0.3188 -0.1328,1.5078 -0.015,0.7698 0.109,1.0046 -0.0396,0.2376 0.2324,0.7916 0.0536,0.544 -0.0584,0.2682 0.0324,0.5782 -0.0872,3.1766 0.0856,0.25 -0.2244,0.931 -0.0474,0.9592 -0.1408,0.7298 0.0462,2.8018 -0.0298,0.5612 -0.213,1.0774 0.1548,1.787 -0.0206,0.7018 -0.0354,0.5646 -0.1676,0.5836 0.0654,0.2662 -0.0252,0.2832 -0.2126,1.235 0.0296,2.1766 -0.1222,0.6646 0.023,0.2196 -0.1612,0.3748 -0.0884,0.479 0.0548,0.52 -0.044,0.6006 0.0584,1.3578 -0.0832,1.1608 -0.1286,0.4784 -0.106,1.1362 0.0106,0.94 -0.0956,0.741 0.0384,0.736198 -0.1114,1.2026 -0.0288,1.335 0.182,1.5056 0.0648,1.9312 0.2586,1.9894 0.1882,0.66 -0.0398,0.7 0.1264,1.1074 -0.0536,0.4328 0.0564,0.9988 0.2462,0.5202 0.0714,0.3106 0.0702,0.9304 -0.0816,0.2596 0.1598,0.0484 0.0688,0.088 -0.0734,0.1288 0.804,0.8038 0.3456,0.236 0.6732,0.1362 0.926,0.388 0.6714,0.0966 0.7592,-0.0162 1.1996,0.3582 0.9904,0.03 0.6394,0.0932 0.806,0.2822 1.01,-0.041 0.852398,0.1854 1.6578,-0.1824 1.2538,0.2632 1.2464,-0.3386 0.279,-0.0106 0.5744,0.1694 0.5318,-10e-4 0.7072,-0.3436 0.9004,-0.6178 1.282,-0.3966 0.459,-0.3578 0.9824,-1.013 0.26,-0.3484 0.1116,-0.336 0.1874,-0.1646 0.074,-0.1922 0.0732,-1.4288 -0.1162,-1.1602 -0.008,-1.4864 0.1584,-0.2916 0.0208,-0.3304 -0.1078,-0.364 0.005,-1.2516 -0.2128,-0.8038 -0.127,-0.8766 -0.194,-2.5416 0.0244,-0.909 -0.1242,-0.4892 -0.1248,-2.003798 -0.2538,-1.626 0.0552,-0.4944 -0.0334,-1.0624 -0.1278,-0.9404 0.0106,-2.1882 -0.1308,-0.7496 -0.0188,-0.646 -0.051,-2.896 0.072,-0.9084 0.003,-4.9442 -0.0592,-0.4904 0.0184,-0.5126 0.219,-0.9244 0.1402,-1.0618 -0.0824,-0.2532 -0.2134,-1.672 0.103,-1.8426 0.004,-2.9422 -0.1766,-1.3988 -0.0394,-2.7646 -0.143,-1.4806 -0.0624,-0.4748 -0.279,-1.0532 -0.092,-0.58 0.007,-0.5324 -0.1282,-0.3016 -0.0194,-0.3754 0.2504,-2.5152 -0.1252,-2.1242 0.0872,-2.0444 0.1038,-1.128 0.164,-0.8518 v -0.4954 l 0.1048,-0.4084 0.0974,-1.7296 0.3324,-1.8072 0.001,-1.4598 0.1714,-0.2184 0.0388,-0.2162 -0.1294,-0.2 -0.016,-0.475 0.3674,-3.1712 0.0186,-1.636 -0.1424,-0.3492 -0.0442,-0.8524 0.1204,-1.2488 -0.0488,-0.703 -0.148,0.0154 0.0596,0.0146 -0.249,-0.6722 -0.0828,-0.5316 -0.143,-0.2894 -0.081,0.0434 -0.0408,-0.06 -0.0376,-0.2454 -0.1394,-0.2634 0.0106,-0.2044 -0.1934,-0.3274 -0.001,-0.2042 -0.2634,-0.496 -0.11,-0.097 -0.0614,-0.2032 -0.3444,-0.3368 -0.4326,-0.1894 -1.1538,-0.1086 -0.161,-0.1356 -0.4374,-0.13 -1.844,-0.059 -1.4274,0.2012 -0.2062,-0.0436 4e-4,-0.1024 -0.7888,-0.1402 -0.4004,0.047 -0.9346,0.2798 -0.4832,-0.0672 -1.263398,0.0928 -0.6316,-0.1142 -0.7122,0.0658 -1.5942,0.5402 -0.6124,0.5184 -0.5292,0.9966 -0.003,1.6304 -0.1698,0.5056 0.007,0.2938 -0.1184,0.6388 0.1218,2.081 -0.0876,1.9658 0.0624,1.4772 -0.0998,1.6574 -0.2298,2.1136 0.0468,3.9566 -0.1532,1.6044 -0.2896,1.8948 -0.0532,1.244 0.1274,2.0188 -0.0228,0.4048 0.1148,0.862 -0.0828,2.0332 0.0884,0.8488 -0.1278,4.1224 -0.2052,2.1134 0.0484,0.3822 -0.0774,1.1708 0.0594,2.6886 -0.1,2.5508 0.092,0.3762 0.0836,1.1476 0.2122,0.9684 0.1384,1.048 -0.0858,0.6816 0.0692,0.6804 -0.1554,1.0544 -0.0198,2.1258 0.1116,2.1026 -0.078,0.6398 -0.1176,2.9798 0.1304,2.1172 -0.0376,0.6482 0.0552,1.741 -0.0434,0.2814 0.086,1.5484 0.1736,1.326198 -0.049,0.337 0.1194,1.3698 -0.2432,3.3036 0.0132,0.5478 0.008,0.2446 0.1518,0.5012 -0.09,0.6392 0.1072,0.3862 -0.0452,0.7674 0.2232,2.2394 0.4502,0.8704 0.399,1.58 0.7314,0.3534 0.4126,0.2812 1.1252,0.9266 0.6564,0.2036 0.6752,-0.0866 1.654798,-0.5508 0.5412,0.0324 0.9022,0.253 0.8892,-0.2232 0.6826,-0.2708 0.3112,-0.2094 0.9102,-0.2842 0.2522,-0.1724 0.3016,-0.3686 0.3328,-0.2358 0.811,-0.9444 0.118,-0.23 0.3306,-1.1296 -0.0248,-0.2844 -0.7564,-2.8402 -0.1218,-1.6356 0.0212,-2.2942 -0.2466,-1.9494 -0.1402,-1.909198 0.0742,-0.827 -0.0248,-1.3416 0.0834,-1.8002 -0.0422,-2.4524 0.1432,-2.3442 0.0162,-2.3756 0.147,-1.4534 -0.1406,-1.494 -0.008,-0.9462 -0.2742,-4.5426 0.0626,-2.5876 -0.0488,-1.5626 0.2928,-3.976 0.0604,-2.1232 -0.0898,-1.827 0.118,-5.0288 -0.3508,-1.2838 0.01,-0.7118 -0.0902,-0.3638 -0.0174,-0.8442 0.2072,-2.7472 0.004,-0.9382 -0.1626,-0.9284 -0.3068,-0.6458 -0.076,-0.557 -0.0334,-1.1978 0.0766,-0.7334 0.0358,-1.8608 -0.1276,-0.5668 0.0608,-0.2644 -0.141,-0.6302 -0.087,-0.939 -0.0252,-2.1202 0.064,-0.9856 -0.0676,-0.2264 0.0502,-0.5976 -0.1106,-1.031 0.0486,-1.1076 -0.0706,-0.6282 -0.1578,-0.5046 -0.1048,0.1448 -0.0156,-0.2034 -0.3048,-0.4602 -0.1998,-0.923 -0.2418,-0.723 -0.0782,-0.1198 -0.1688,-0.0704 -0.155,0.1426 -0.1254,-0.0876 -0.1352,0.007 -0.6794,0.2126 -1.1974,0.0596 -0.4846,0.1616 -0.5498,0.2592 -0.5348,0.3868 -0.1338,0.179 -0.0218,0.1662 -0.215198,0.4062 0.267998,1.529 0.4372,1.4712 0.1234,0.9934 -0.006,3.4172 0.3616,1.2658 0.008,0.6198 -0.2808,3.2092 -0.0676,1.5232 -0.1236,0.4534 -0.0478,0.7464 0.0506,1.0402 -0.0694,0.8576 0.0274,1.7342 -0.2242,1.4372 -0.0862,1.0138 0.0994,1.7026 0.0876,0.3738 0.1202,1.6572 -0.0862,2.6922 0.1108,0.7656 0.1838,0.5596 0.082,0.9698 -0.1202,1.5196 0.5382,3.296 0.047,2.5658 0.1582,0.685 -0.004,0.8676 0.125,0.5432 0.1408,2.5342 0.3036,2.9378 -0.0722,0.2902 -0.028,0.7052 0.0748,0.6118 -0.137,1.156 0.0158,0.8162 0.1224,0.9742 -0.081,0.972 0.061,1.1074 -0.0932,0.9834 0.0388,1.145 -0.222,3.6144 0.0658,0.8888 -0.0524,2.338998 0.0424,0.6602 -0.1576,1.2742 0.3882,3.9496 0.0128,1.1486 -0.0602,0.6996 0.1426,1.4602 -0.0324,0.597 -0.228,0.1024 -0.2792,0.3246 -0.5116,0.254 -1.5248,0.2258 -0.0728,-0.5114 -0.201,-0.682 -0.0504,-1.2614 -0.4886,-2.2702 -0.2268,-0.725 -0.3702,-2.4258 -0.0502,-0.5792 0.0882,-0.5516 -0.01,-0.5662 -0.1748,-2.524398 -0.0632,-2.3184 0.0154,-2.7618 -0.0926,-1.268 0.2218,-7.2034 -0.0592,-3.233 -0.168,-1.182 -0.238,-2.8202 -0.009,-2.1758 -0.1566,-1.4038 -0.2604,-4.5098 0.0658,-1.456 0.152,-0.605 0.1596,-0.263"
     id="path1317" />
  <path
     style="opacity:1;stroke:#c796fd;stroke-opacity:1"
     fill="none"
     stroke="#fff3a8"
     stroke-width="6.00197"
     stroke-linecap="butt"
     stroke-linejoin="round"
     opacity="0.250004"
     d="m 124.10584,34.792412 -0.16127,0.04814 0.12064,-0.07036 0.0375,0.05573 -0.07,1.257974 0.0351,1.190946 -0.28146,2.513539 0.17748,1.084296 0.007,0.899874 -0.17249,0.941165 -0.14376,1.475722 0.14613,1.55071 -0.0763,0.263853 -0.20276,2.676666 0.11736,1.63181 -0.20601,1.562006 v 0.780262 l 0.26654,1.845854 -0.0394,0.403463 0.0737,0.580106 -0.0219,1.96158 0.0594,0.998566 0.13923,1.15095 0.10872,0.27922 0.0625,1.225942 0.17142,1.075407 -0.0407,0.364578 0.2019,0.781003 -0.0263,1.798639 0.15565,0.446049 -0.0678,0.239967 0.19478,0.948202 0.15608,1.603296 0.0118,1.858076 -0.10252,0.677314 0.0694,0.6388 0.26741,0.968199 0.1282,1.154285 -0.0493,0.42494 0.0543,0.651946 0.16299,0.871917 0.1109,1.142064 -0.005,1.577003 0.11435,0.506966 -0.0832,0.842662 0.12474,0.723418 0.13748,0.335138 0.18612,0.831552 0.0132,0.885988 -0.0808,0.214229 -0.0655,1.082814 0.17337,0.915984 -0.0749,0.169606 0.19196,0.400313 0.12408,0.48123 -0.0312,0.446975 0.1055,0.173126 -0.0452,1.089663 -0.15586,0.953015 0.033,0.6151 0.1189,0.306625 -0.0438,0.145906 0.369,1.315188 -0.088,2.313753 0.18288,1.957321 -0.011,1.449799 0.47601,2.311899 0.0245,1.651809 0.17013,1.0269 0.0181,0.68212 0.21466,1.21039 -0.30697,2.2571 0.19045,1.87065 -0.20666,1.60701 0.3314,3.26177 0.0134,1.14651 0.096,0.16905 -0.011,0.68251 0.31256,1.10836 0.13967,0.79286 0.67747,1.24648 0.17683,0.47327 0.3115,0.4118 -0.16536,0.0531 0.38888,0.0691 2.11999,0.8282 1.44361,0.7762 0.49893,0.12554 2.36771,0.0481 1.80352,0.30348 1.58238,0.0219 0.91074,-0.13573 1.3902,-0.36383 2.71771,-0.14276 2.38999,-0.70547 1.90124,0.0456 1.28211,-0.20849 0.62041,-0.16184 1.44727,-0.61177 0.86231,-0.0947 0.663,-0.21294 1.18225,-0.49326 0.17358,-0.15314 0.79767,-0.37809 2.44857,-0.79433 0.38025,-0.28496 0.36641,-0.44179 0.54108,-1.40408 0.27886,-0.44345 -0.0431,-0.20367 0.17489,-1.24983 0.068,-1.51664 0.0327,-5.00246 0.21099,-0.29273 0.0493,-0.30847 -0.18482,-0.32959 -0.0629,-1.1354 -0.20688,-0.27108 -0.0364,-0.3392 0.17684,-0.38458 0.0125,-1.14818 -0.0532,-0.65545 -0.2071,-0.983764 0.32621,-0.166643 0.007,-0.212193 -0.36813,-0.197194 -0.16818,-0.642872 -0.0201,-0.623988 -0.12343,-0.291071 0.0508,-0.572512 -0.0852,-1.243347 -0.20687,-0.63806 -0.0713,-0.793963 0.46692,-0.37032 0.0504,-0.381243 -0.51104,-0.281258 -0.23324,-0.541035 -0.27799,-1.180947 -0.45526,-1.240198 -0.006,-0.669168 -0.2821,-2.066935 -0.15283,-0.752858 -0.24018,-0.239412 -0.1059,-0.326436 0.13055,-0.374022 -0.27432,-1.517011 0.006,-0.682499 -0.1993,-0.695274 -0.13685,-0.959311 -0.12495,-0.311624 -0.22524,-1.439615 -0.24234,-0.449012 -0.0741,-0.456789 0.0911,-0.452714 -0.334,-2.317271 -0.68376,-2.708513 -0.49914,-1.666806 -0.21659,-0.37643 -0.12064,-0.38939 0.0347,-0.464565 -0.10293,-0.810444 -0.22243,-1.143544 -0.51211,-1.99491 -0.29184,-1.758088 -0.0609,-0.924872 -0.21984,-1.472573 0.0311,-0.576031 -0.19606,-1.928437 0.0422,-1.772162 -0.0833,-1.370736 0.10377,-0.601212 -0.19759,-1.451095 0.0279,-0.873212 0.18224,-1.29482 0.0696,-1.080962 -0.0256,-0.739898 0.20105,-1.149285 -0.17684,-3.040134 0.29573,-2.345785 -0.20169,-2.530945 0.0676,-0.560849 -0.0888,-1.305375 0.0402,-0.466785 -0.238,-0.633432 -0.18547,-1.153174 -0.0283,-1.200203 -0.13272,-0.413462 -0.30028,-0.429754 -0.65282,-0.658243 -0.10657,-0.09351 -0.15501,-0.0065 -0.27583,-0.294959 -0.42932,-0.28496 -0.78642,-0.344768 -1.12216,-0.179234 -0.24037,0.02814 -0.89863,-0.265333 -0.64116,-0.09869 -2.08865,-0.03869 -0.86038,-0.38291 -0.9745,-0.248669 -0.90555,0.02277 -0.95741,0.118132 -1.18483,-0.498264 -0.31303,-0.08462 -0.58927,-0.02463 -2.33229,0.225524 -1.73542,-0.100543 -0.65284,0.08128 -1.61848,0.357358 -1.63685,-0.06796 -1.37031,0.455862 -0.88695,0.0874 -0.73844,0.437903 -0.67445,0.283295 -0.12735,0.265517 -0.13811,1.597186 0.31669,1.806602 0.32814,1.216128 -0.16624,1.456834 0.21919,1.864187 -0.17055,2.225431 0.27822,1.689396 0.0148,0.753043 -0.29313,2.892933 0.11932,1.111327 0.3381,0.830441 0.0916,0.604174 -0.0867,1.122252 -0.15522,0.525854 -0.0287,0.452344 0.0463,0.554183 0.22914,1.107254 0.0962,1.038559 0.0148,0.964495 -0.0852,0.552887 0.0564,1.053186 -0.0859,0.513078 0.002,0.908022 0.15218,1.425173 0.27541,1.117993 -0.13964,2.269314 0.0275,1.311487 0.31734,2.989214 -0.002,1.328519 0.66431,2.887193 0.17704,1.474609 -0.0272,2.448364 -0.1552,1.3637 0.006,1.215571 0.16235,1.040598 0.0623,0.98653 -0.15154,1.528491 0.0246,0.872287 0.34241,1.729019 0.0414,1.744573 0.13381,0.587326 0.0854,1.470352 0.24881,1.444059 0.0138,1.107809 0.0916,0.587696 -0.0454,0.901727 0.068,0.599732 -0.0144,1.784012 0.0814,0.423274 -0.0476,0.242188 0.23434,1.081885 -0.0345,3.418603 0.0506,0.64435 0.12106,0.50326 -0.0633,1.62089 0.0821,0.84507 -0.0566,0.40217 0.12064,0.79618 -0.0676,1.73939 0.0804,0.82101 0.27128,0.71119 0.27866,1.4959 -0.10293,0.25146 0.084,0.39068 -0.0888,0.12183 0.43708,0.65787 0.34265,0.67102 0.8595,0.88506 0.0869,0.36663 0.37808,0.34032 0.0116,0.14756 0.21704,0.15072 0.67164,0.22294 0.89581,0.0652 2.22961,-0.20367 0.51167,0.003 0.84955,-0.13665 2.45939,-0.48828 1.36687,-0.44642 0.37959,-0.0712 0.96823,0.078 0.49546,-0.0299 0.7927,-0.13554 0.50325,-0.15405 1.10442,-0.0332 1.97235,-0.3507 0.92068,-0.0116 0.86511,-0.0983 1.07287,-0.30737 0.35863,-0.20516 0.93451,-0.30495 0.75422,-0.10814 0.35561,-0.10886 0.54193,-0.29385 0.18224,-0.16998 0.26243,-1.0219 0.17143,-0.31106 0.0511,-0.60381 -0.3115,-3.06847 0.0246,-1.14984 -0.0402,-0.2557 -0.13901,-0.2333 -0.29356,-1.89641 -0.32901,-1.32149 -0.14959,-1.42054 -0.19369,-0.50363 0.0536,-0.22533 -0.2192,-1.15392 0.10894,-0.273114 -0.0452,-0.258852 -0.20212,-0.268666 -0.11262,-0.306994 -0.19262,-0.959681 -0.25983,-2.77554 0.001,-0.264408 0.12322,-0.253113 -0.003,-0.290701 -0.11587,-0.312918 -0.21985,-2.164331 0.0294,-0.906355 -0.17749,-1.000602 -0.12624,-1.324632 -0.46411,-2.251909 -0.21942,-1.47961 -0.12366,-1.056705 0.0242,-0.731935 -0.18396,-0.657688 -0.0402,-0.866916 -0.25681,-0.751933 -0.15737,-1.005045 -0.10485,-1.372773 -0.0319,-2.158774 -0.26783,-0.820812 0.0267,-0.218304 -0.29595,-1.094848 -0.63749,-3.796326 -0.20773,-0.797666 -0.25357,-0.561775 -0.43148,-1.771976 -0.34631,-1.954913 0.0601,-0.328473 -0.0469,-0.29533 -0.24404,-0.765449 -0.16862,-3.390456 -0.12473,-0.99338 -0.16365,-0.358654 -0.10938,-0.851549 -0.006,-1.231311 0.11587,-2.082119 0.23087,-1.412581 0.0783,-2.500394 0.24059,-1.589224 0.0237,-1.452021 0.0956,-0.600472 0.0743,-3.992408 0.0939,-0.931169 -0.0819,-0.394575 0.20125,-1.093366 -0.0404,-0.415869 -0.0294,-0.07221 -0.10529,0.01906 -0.0164,-0.840623 -0.42002,-0.964312 -0.92803,-0.80711 -0.69455,-0.903578 -0.34004,-0.265334 -0.32209,-0.157384 -0.43646,-0.09202 -1.072,0.01982 -1.08799,-0.170901 -0.75228,0.03092 -1.40835,0.234228 -3.29252,-0.100171 -1.84891,-0.18664 -1.70733,0.06481 -0.94747,-0.07684 -0.73305,0.01629 -0.2888,0.08295 -0.62042,0.353284 -0.17509,0.510486 -0.0428,1.003563 0.53502,1.679582 0.006,0.194232 0.22265,0.322548 0.15825,0.746008 -0.002,1.141137 0.13447,1.069111 -0.0446,0.292553 0.17985,1.447948 -0.0271,0.900986 -0.09,0.538628 0.27454,1.353701 -0.005,0.878953 -0.19693,1.387955 -6.5e-4,1.250013 0.39019,1.570893 -0.007,0.856733 0.096,0.606768 -0.15651,1.998981 -0.0164,3.149193 0.0473,0.349396 0.23259,0.679165 -10e-4,0.277739 0.24774,1.010786 0.057,0.558997 -0.0148,3.689304 0.15651,0.951718 0.0179,0.920614 -0.11868,0.92302 0.0828,0.615285 -0.0398,0.518816 0.19045,1.471462 -0.0607,2.676481 -0.10615,1.404621 0.0904,0.525482 -0.0203,0.475674 0.1485,1.557933 0.24751,1.19039 0.0777,2.184512 -0.0582,2.146739 0.14116,1.11966 -0.0222,0.303477 0.30501,1.559598 0.0528,0.905059 -0.10504,1.411658 -0.11004,0.540109 -0.0132,1.513494 0.12885,0.536036 -0.0886,0.226821 -0.14851,2.058603 -0.13835,0.658427 0.0571,0.33162 -0.0226,2.140074 -0.20859,2.254501 -0.22309,0.866353 0.055,0.28256 -0.0194,0.80692 0.31086,1.27538 0.10484,0.91747 0.0199,1.33481 0.0908,0.91377 0.2471,0.71509 0.27042,1.64865 -0.0287,0.99394 0.10397,1.19056 0.27324,0.79286 -0.0272,0.27404 0.28082,1.03393 -0.0357,0.15295 1.11934,0.68602 0.87419,0.1083 0.65674,-0.033 2.58541,-0.44957 2.01516,-0.49123 2.00607,-0.16589 3.28667,-0.72307 1.09016,-0.54769 0.41721,-0.14331 0.6176,-0.38403 0.17294,-0.24626 0.19714,-0.94171 0.0118,-1.81827 -0.12582,-0.97894 -0.58603,-2.91589 -0.0112,-0.58789 -0.48681,-1.99028 -0.18073,-0.47123 -0.2447,-0.23422 -0.12257,-0.23349 0.0461,-0.22089 -0.0483,-0.197566 -0.30416,-0.808775 -0.0964,-0.693235 -0.0814,-1.975282 -0.16192,-0.848587 -0.25788,-0.556404 -0.0923,-1.002269 -0.16042,-0.73212 0.0609,-0.650835 -0.10335,-0.261262 -0.0542,-0.818774 0.0682,-0.480489 -0.0416,-1.13651 -0.18936,-0.310697 -0.0424,-0.352914 0.14375,-0.387723 0.0431,-0.837292 -0.0948,-3.275472 0.0552,-0.56955 -0.0599,-1.194278 -0.28103,-0.304774 -0.0467,-0.387724 0.15023,-0.411609 0.013,-0.380318 -0.0904,-1.226496 0.055,-2.448549 -0.14721,-4.330325 -0.23001,-1.93066 -0.0629,-1.784752 -0.1885,-0.161828 -0.0356,-0.234227 0.12495,-0.287739 0.0279,-1.08744 -0.10765,-2.185439 -0.35366,-2.08471 -0.26265,-0.729715 -0.002,-0.73749 -0.0919,-0.666759 -0.008,-0.256816 0.11414,-0.41124 -0.0644,-0.718417 -0.0112,-2.512245 0.12126,-1.182614 0.0236,-1.285562 -0.13986,-0.985604 0.0871,-0.552702 0.13078,-2.730547 -0.36553,-1.895107 0.0283,-3.476925 -0.0856,-0.608805 -0.15889,-0.331435 -0.12732,-0.746192 -0.0151,-1.77883 -0.23909,-0.521038 0.0327,-0.07074 -0.29896,-0.675092 -0.1096,-0.443086 -1.05448,-1.316854 -0.60161,-0.3057 -0.13814,0.05833 -0.18051,-0.01926 -0.46174,-0.264408 -1.03848,-0.270333 -0.294,-0.0083 -0.7231,0.154793 -0.49395,-0.0274 -0.22892,0.09777 -1.26287,0.963015 -0.2352,0.125908 0.0409,-0.08683 0.0935,0.0019 0.0148,0.440123 -0.32059,1.749943 -0.38046,1.199093 -0.17682,0.320511 0.27929,0.806741 0.084,1.421469 -0.17812,2.353747 0.0132,1.294265 -0.27281,3.143822 0.25141,1.323892 0.0356,0.55159 -0.13034,0.560107 0.0799,0.259038 -0.17876,1.467574 0.014,0.600843 0.0345,0.449752 0.25465,1.023191 0.72352,2.377635 0.094,0.505115 0.10699,1.577744 -0.0914,2.229505 -0.12021,1.081888 0.0407,0.909688 -0.26331,3.236958 -0.0957,2.152479 0.35151,2.824423 -0.27692,4.009259 0.026,0.802296 -0.10463,0.744711 0.0493,1.509976 -0.0495,1.249086 -0.16537,0.803592 -0.009,0.403834 0.10463,0.354765 0.11177,1.573301 0.17575,0.875433 0.13683,1.353146 0.33378,5.676435 -0.0321,2.034532 0.0751,1.355738 -0.30805,4.012034 0.0956,2.6276 -0.0869,1.18836 0.14699,0.32032 0.0463,0.62825 0.1792,0.84247 0.29832,0.56732 0.31345,0.35958 -0.0352,0.22257 0.56355,0.55937 0.44382,0.67639 0.52074,1.063 0.30718,0.81655 0.34869,0.47198 0.30437,0.22773 0.33809,0.0924 1.28254,-0.27182 0.57309,-0.4553 0.15802,-0.21479 0.21421,-0.48752 0.0586,-0.31477 0.002,-0.90506 -0.16884,-1.1765 -0.15801,-0.30608 -0.0459,-0.28144 0.11263,-0.24831 0.0659,-0.56769 0.31086,-1.20187 0.14547,-1.51276 -0.009,-0.74211 -0.0843,-0.58603 -0.6029,-2.10804 -0.54691,-3.525987 -0.623,-2.518539 0.17985,-2.023793 -0.16841,-2.608157 0.11501,-3.215666 -0.0661,-2.244688 -0.23412,-1.814378 0.0355,-1.86937 0.15651,-1.309819 -0.0201,-1.238347 -0.17532,-2.091562 0.0728,-1.394251 0.24254,-1.945656 -0.14549,-3.430635 0.0386,-1.889739 -0.088,-1.658472 -0.20926,-1.973616 -0.18332,-0.545109 -0.14354,-0.820627 0.0213,-1.101328 -0.14613,-1.129659 0.0995,-3.128455 -0.0185,-1.652177 -0.10506,-1.229831 0.15563,-1.063926 -0.0485,-1.609777 -0.21185,-1.504606 -0.0639,-0.965607 -0.28081,-1.060222 0.25205,-3.165488 -0.0897,-4.346619 0.0649,-0.609175 0.1429,-0.242558 -0.58064,0.568809"
     id="path1321" />
  <path
     style="opacity:1;stroke:#faec88;stroke-opacity:1"
     fill="none"
     stroke="#fff3a8"
     stroke-width="5.94019"
     stroke-linecap="butt"
     stroke-linejoin="round"
     opacity="0.250004"
     d="m 194.20851,37.23769 -0.0621,0.103171 -0.15533,-0.01079 -1.37727,0.321249 -1.00033,0.305915 -2.5433,1.080357 -1.09022,0.726548 -0.51197,0.487836 -0.22244,0.341126 -0.12365,0.354754 -0.29823,2.040317 -0.20525,0.904873 -0.71598,1.4955 -0.27731,1.101559 -0.094,0.822147 0.0524,0.971885 -0.17148,1.774345 -0.27256,0.875341 -0.14146,0.811924 -0.22823,0.638144 -0.0331,0.712917 -0.12177,0.421012 0.002,1.127494 0.1547,1.331374 -0.2829,2.596301 0.14332,1.39782 -0.0429,0.736391 -0.0742,0.240227 0.0592,0.586085 -0.0493,0.782771 0.24024,0.761948 0.0545,0.65537 0.1311,0.203501 -0.15368,1.223471 0.30528,0.834073 0.13752,0.810599 -0.003,0.664456 0.12344,0.138571 0.0267,0.144817 -0.0603,0.499762 0.0808,0.38618 -0.0475,0.398674 0.15657,0.138949 0.0623,0.33431 -0.0397,2.225267 0.21436,1.906668 -0.0199,0.528725 0.0744,0.528916 -0.0588,0.566585 0.32598,1.93109 -0.12239,0.314055 -0.0395,0.571886 0.0779,0.827447 0.36949,2.209933 -0.0325,1.083575 0.19427,0.207667 0.0161,0.227353 -0.20131,0.271841 -0.0364,0.288688 0.0765,1.16914 0.29223,1.061238 0.1048,2.011352 0.16279,0.241741 0.0103,0.240795 -0.13814,0.305347 -0.0294,0.288121 0.0545,0.506576 0.35064,1.482628 -0.0534,0.522668 0.18122,1.129386 0.23837,0.251964 0.0395,0.294367 -0.16755,0.284524 -0.0153,0.281684 0.10267,0.984759 -0.0462,0.984001 0.47304,1.964027 0.0957,0.922477 0.0178,1.21514 0.16031,1.417315 -0.0709,0.22755 0.008,0.26786 0.10976,0.28945 0.0806,0.60918 0.044,1.09474 0.18515,0.63151 0.13731,0.92798 0.0296,0.65859 -0.14353,0.38011 -0.0232,0.36309 0.15326,0.32788 0.0469,1.09947 0.12985,0.17189 0.0539,0.20047 -0.11805,0.21903 0.0518,0.46682 0.1077,0.25783 0.15326,1.66209 -0.26925,0.21126 -0.0124,0.23 0.32102,0.21013 0.18018,0.9079 0.12013,0.21619 -0.029,0.46228 0.16983,0.98703 -0.0497,0.28452 0.15947,1.15494 -0.0932,0.22679 0.0518,0.21732 0.21953,0.22281 0.21332,0.78372 0.15534,0.1999 0.43907,1.12712 0.11805,0.14766 0.91335,0.54841 0.42044,0.16659 0.84499,0.19706 0.50949,0.22471 0.36659,0.0732 0.71452,0.003 1.22608,-0.10753 2.20986,0.57095 1.52639,-0.084 2.20571,0.40472 0.82843,-0.0275 1.26129,-0.14671 0.73732,0.0408 0.7518,-0.048 1.75835,-0.52778 1.66723,-0.21959 1.88883,-0.50298 4.36999,-1.60303 0.30653,-0.0767 2.4646,-0.14519 1.75006,-0.61619 1.30893,-0.35456 0.78702,-0.63795 0.62546,-0.40246 0.34795,-0.14767 0.53848,-0.0903 0.408,-0.23815 1.6548,-2.01192 0.18433,-0.14936 0.31273,-1.55286 0.59441,-1.85403 0.50534,-1.83853 0.39558,-1.11859 0.13876,-0.89105 -0.0994,-0.6974 -0.44115,-0.83293 0.089,-1.36849 0.16776,-1.11083 0.008,-0.73563 -0.16982,-1.249408 -0.1719,-0.294178 -0.19261,-1.022239 -0.14912,-0.219971 -0.24854,-0.703075 -0.0808,-1.881301 -0.29616,-0.732606 -0.28374,-1.10932 0.002,-1.546612 -0.1719,-1.047797 -0.18018,-0.305726 -0.45771,-0.505251 -0.23197,-0.584003 -0.0849,-0.629813 0.0187,-2.296824 -0.0331,-0.351916 -0.19469,-0.508659 -0.13669,-0.701939 0.0829,-0.304969 -0.0477,-0.719543 0.14497,-1.756929 -0.087,-1.186557 0.0393,-1.405201 0.12219,-1.091526 -0.0683,-0.350213 -0.0249,-0.846945 0.087,-2.978317 0.18846,-1.04969 0.11599,-1.160053 0.14912,-0.361192 0.0456,-0.356838 -0.0849,-0.311405 0.0435,-1.023755 -0.20503,-2.061897 0.0456,-0.563369 -0.0539,-0.948601 0.10769,-0.656127 -0.0477,-0.268244 0.0497,-1.087739 -0.0559,-0.381258 0.0746,-0.681115 -0.10355,-0.385612 0.10977,-0.168859 0.087,-1.199997 0.22782,-0.363274 0.0621,-0.322952 -0.14912,-0.241931 -0.28167,-3.078269 0.0952,-1.138095 0.20711,-0.518692 0.0539,-0.321249 -0.0539,-0.359677 0.0497,-0.425555 -0.21745,-0.538948 -0.0518,-0.371414 -0.0103,-1.320773 0.0746,-0.55466 0.24853,-0.237955 0.0497,-0.275816 -0.22782,-0.256696 -0.18018,-0.729766 -0.0145,-1.152671 0.23818,-1.138473 -0.0477,-0.582488 0.16983,-0.580784 -0.002,-0.324088 -0.13668,-0.306673 0.35415,-1.728722 0.0166,-0.384476 -0.19261,-0.202555 -0.0124,-0.189115 0.23404,-0.09995 -0.0435,-0.318408 -0.16362,-0.240226 -0.0373,-0.228112 0.0269,-0.663889 0.14291,-0.189303 0.0249,-0.213535 -0.26511,-0.707807 -0.23196,0.01893 -0.11805,-0.08253 0.16362,-0.141221 -0.21954,-0.542545 0.0808,-0.218645 -0.0849,-0.835966 0.0621,-0.154093 -0.0352,-0.171888 -0.17604,-0.208045 -0.16362,-0.516232 -0.19675,0.0354 -0.0829,-0.04127 0.0849,-0.100899 -0.0352,-0.04998 -0.28581,-0.130052 0.0373,-0.03162 -0.30652,-0.219404 0.0331,-0.05584 -0.90507,-0.205016 -0.52812,-0.02574 -0.52192,-0.222622 -0.64204,0.04884 0.0145,0.06626 -1.56989,0.254992 -1.05004,-0.185329 -0.62133,-0.02007 -0.41214,0.03805 0.0311,0.06474 -0.52399,-0.01363 -1.1888,0.188167 -1.34621,0.02764 -1.1826,-0.194794 -1.55953,-0.114908 -0.86778,-0.194415 -0.94648,-0.06531 -0.67518,-0.230194 -1.47047,-0.11131 -0.96513,-0.207856 -1.10803,-0.141221 -0.82429,0.06247 -1.04176,-0.03067 -0.86571,0.07913 -1.27165,0.278845 -0.73732,0.01514 -0.99826,0.328632 -0.75388,0.07629 -0.61718,0.144628 -0.0559,0.06379 -0.95477,0.294367 -0.11391,0.07212 0.0704,0.01855 -0.47841,0.329388 0.004,0.101089 -0.12011,0.101088 -0.52606,0.309701 -0.42458,0.382962 -0.14291,0.411736 -0.23403,0.292474 0.0393,0.1168 -0.33552,0.288688 -0.25889,0.473828 -0.26717,0.253478 -0.26095,0.592521 -0.25682,0.346048 -0.66482,0.654801 -0.16362,0.05262 -0.089,0.218457 -0.59855,0.602175 -0.19054,0.335636 -0.29201,0.291339 -0.38523,0.620159 -0.23404,0.12778 0.1512,0.046 -0.0829,0.118126 -0.5012,0.423283 -0.28374,0.72598 -0.21125,0.226408 0.0352,0.229625 -0.2796,0.331092 0.12013,0.08879 -0.13463,0.190819 -0.0952,0.441266 -0.27546,0.570184 -0.24232,0.328063 0.0621,0.153336 -0.0829,0.278845 0.087,0.148035 -0.0539,0.295882 -0.53641,1.052151 -0.14706,0.684901 0.058,0.09806 -0.0891,0.675814 0.0539,0.710079 -0.0539,0.230004 0.0663,0.681305 -0.28457,0.957688 -0.0541,0.482725 0.0713,0.329767 -0.1048,0.167912 0.0103,0.225272 0.25039,0.438806 0.14912,0.627731 -0.1077,1.075246 0.0559,1.129955 -0.0456,0.359676 0.27959,1.01732 -0.0746,0.469283 0.0642,0.844485 -0.13669,0.249503 0.002,0.309322 0.16154,0.2991 0.0166,0.874016 0.18225,0.427259 0.10977,0.704967 0.12634,0.242498 0.10355,0.501844 0.27339,0.753998 -0.14705,0.161476 -0.0166,0.162233 0.19676,0.143493 0.089,0.191954 0.0187,1.080925 0.10769,0.666159 0.15327,0.406436 -0.0725,0.222243 0.0124,0.397538 0.23196,1.554374 -0.0497,0.224703 0.0311,0.233412 0.1512,0.247419 0.0559,0.268055 0.0249,1.363934 -0.0829,1.86824 0.14084,1.016939 -0.0103,0.49503 0.10977,0.188926 0.0787,2.92285 0.089,0.674301 -0.1367,0.92172 -0.008,0.98987 0.029,0.184003 0.18848,0.146332 0.0725,0.167155 -0.0683,0.170184 0.0228,0.20956 0.21747,0.780878 -0.0995,0.287363 0.0207,0.290961 0.20918,0.290391 0.10771,0.763651 -0.0166,0.846757 0.73524,3.126353 0.002,1.115756 -0.11184,0.196308 0.0103,0.163559 0.15533,0.15485 0.087,0.757215 0.12841,0.182111 0.0497,0.210885 0.002,0.72863 0.12426,0.547088 -0.0746,0.297775 0.008,1.22915 -0.17812,0.206152 0.0124,0.171698 0.20504,0.145953 0.1429,0.396024 0.0559,0.429719 0.18847,0.203881 0.0725,0.218267 -0.10561,0.245149 0.14083,2.436149 -0.15533,0.257074 0.004,0.29569 0.18432,0.26957 0.0269,0.26351 -0.058,0.70497 0.12428,0.24136 0.0103,0.26238 -0.0994,0.68717 0.15947,0.1486 0.0393,0.16791 -0.15326,0.18609 -0.004,0.19005 0.16154,0.64023 -0.006,0.46873 0.10977,0.53459 -0.0767,0.84713 0.087,0.19498 -0.0539,0.60691 0.36244,0.11056 0.0497,0.184 -0.31895,0.15447 -0.0352,0.20578 0.18433,0.644 -0.10562,0.25917 0.32723,1.11045 0.0952,0.55977 -0.0539,0.21713 0.0352,0.2743 0.34587,0.15466 0.0415,0.18722 -0.25889,0.14501 -0.0456,0.96905 -0.13669,0.52778 0.10153,0.21694 0.0477,0.39962 0.087,-0.04 0.2796,0.18817 0.0995,0.21165 -0.14084,0.15996 0.14291,0.89729 -0.0911,0.32939 0.10563,0.1522 0.0352,0.33867 0.10977,0.1168 0.006,0.0804 -0.11598,0.0732 0.5012,0.42708 0.81602,0.46209 1.5616,0.16185 1.59266,0.0409 0.95477,-0.21316 1.91369,-0.25385 0.65654,-0.26124 1.07489,-0.6249 0.71867,-0.17529 1.43319,-0.16185 1.26337,-0.32996 1.48703,-0.28491 0.99205,0.01 0.58199,-0.14273 0.35,-0.20729 0.66276,-0.24913 2.81874,-0.62754 0.86158,-0.25253 0.91128,-0.13535 0.49706,0.0442 0.32309,-0.0397 0.91128,-0.17057 1.04589,-0.29928 1.09147,-0.1719 1.00654,-0.67714 0.39351,-0.18608 0.39972,-0.50526 0.49293,-1.23842 -0.0477,-0.13327 0.18019,-0.42479 -0.0228,-0.14369 0.31688,-0.41723 0.47842,-1.36147 0.0518,-0.59838 -0.21539,-1.23313 -0.18225,-0.71822 -0.23818,-0.44411 -0.0724,-0.29001 -0.0477,-1.04326 0.0477,-1.12635 -0.25268,-0.83426 -0.52191,-1.154565 -0.10153,-0.713865 0.0932,-0.532321 -0.12426,-0.728251 -0.0952,-0.208802 0.0207,-0.414575 -0.437,-1.393845 -0.0393,-1.07127 -0.20711,-1.124086 -0.22574,-0.364599 -0.14705,-0.518692 -0.0207,-2.823656 -0.14705,-0.718598 -0.0434,-1.141123 0.16155,-0.987409 0.008,-0.850353 -0.10355,-0.799051 -0.26924,-0.973401 0.0269,-2.690575 -0.31481,-1.9822 0.006,-0.403974 0.13048,-0.459252 -0.10563,-0.906576 0.15741,-1.472783 -0.1512,-1.467672 -0.31066,-0.816468 -0.0911,-0.91074 0.12012,-0.787126 0.1077,-1.678178 -0.0539,-0.217133 -0.008,-1.213437 -0.1284,-0.344154 0.0497,-0.323899 -0.10976,-1.101748 0.1284,-0.667675 0.006,-1.405959 0.13047,-0.274112 -0.0166,-0.22868 -0.18433,-0.208233 -0.11805,-0.92456 -0.10563,-0.19025 0.004,-0.249882 0.13048,-0.3398 0.0952,-0.69077 -0.006,-2.24855 0.30032,-0.261618 0.0311,-0.241174 -0.32516,-0.204069 -0.10356,-0.510741 0.0166,-0.541409 -0.10976,-0.180786 0.19468,-0.833126 0.20711,-1.409935 0.0373,-1.365448 -0.13256,-1.428487 0.0207,-0.741314 -0.10355,-0.355323 0.0414,-0.381069 0.16983,-0.404352 0.0952,-0.446379 0.14083,-0.917745 -0.0456,-1.821481 0.12427,-1.07941 -0.008,-1.535633 0.13255,-1.070702 0.0829,-0.200284 -0.14083,-0.982866 -0.0705,-0.162801 -0.24646,-0.224893 -0.53641,-0.09295 -0.75595,0.02158 -1.28199,-0.166965 -0.69589,0.08746 -0.49085,0.186086 -0.874,-0.02612 -0.63168,-0.07117 -0.55505,-0.175106 -0.69796,-0.05169 -1.08318,0.05112 -0.53849,-0.05262 -0.40799,-0.110553 -0.45357,-0.221486 -0.79116,-0.162802 -1.08111,0.0335 -1.48083,-0.127023 -1.17638,-0.03445 -0.62754,0.04657 -0.86364,0.155419 -0.54263,-0.06171 -1.68379,0.253667 -0.45978,-0.06209 -0.32516,-0.126643 -0.88643,9.46e-4 -1.10182,0.346048 -0.18432,0.03691 -0.0249,-0.05736 -0.43906,0.0901 -1.43734,0.791101 0.13669,-0.0496 -0.13669,0.05963 -0.64411,0.92475 -0.35208,0.325602 -0.24439,0.630003 -0.0187,0.454519 -0.55711,1.142069 -0.1657,0.265972 -0.67724,0.686984 0.0166,0.215239 -0.3148,1.250162 -0.27131,0.526264 -0.12633,1.442875 -0.0911,0.284712 -0.25682,0.361949 0.0269,0.140652 -0.3438,0.801892 0.0166,0.487268 -0.2651,0.842402 -0.008,0.566776 0.0829,0.107335 -0.087,0.133838 -0.0414,0.376715 0.0414,1.26436 0.11598,0.511499 -0.0456,0.436535 0.0787,0.584001 0.15741,0.492001 0.0518,2.160146 0.0767,0.41874 -0.0911,0.186086 0.10355,0.768006 -0.087,0.257074 0.0808,0.237765 0.21126,0.195551 0.0911,0.208235 0.20711,0.912633 0.0373,0.941408 -0.1284,0.983244 0.0808,1.088119 0.26924,0.770277 0.0995,0.826501 0.20919,0.243823 0.0725,0.259536 -0.0829,0.267486 0.0456,0.531755 0.19053,0.271651 -0.0725,2.405293 0.0952,0.363842 0.008,1.168762 0.0911,0.254235 0.12219,0.953713 0.15326,0.237197 0.0725,0.275249 -0.0331,0.337149 0.17812,1.276477 -0.11806,0.316136 0.0456,0.304969 0.26096,0.319924 0.0994,0.288499 0.0456,0.220538 -0.0456,0.440511 0.20297,0.196118 0.0725,0.806623 0.33551,0.283578 0.0808,0.284713 -0.25475,0.165072 0.008,0.354189 0.13048,0.391479 -0.13048,0.221676 0.0724,0.250827 0.25267,0.219782 0.14291,0.44581 -0.0559,0.177567 0.0372,0.189494 0.32309,0.725791 0.13049,0.606718 0.14497,0.207098 0.004,2.015519 -0.16156,0.385233 0.029,0.373307 0.23816,0.30705 0.0829,0.27468 0.51985,2.827821 0.0269,1.550776 -0.0724,0.263133 0.0124,0.23114 0.11184,0.240605 0.0415,0.532891 -0.0849,0.566018 0.18848,0.545574 0.0166,0.535162 0.16154,0.757404 -0.0311,0.252342 0.12426,0.79413 -0.0952,3.2776 0.14084,0.26333 0.0414,0.29096 -0.0662,0.29569 0.24231,1.36772 0.0477,0.82102 -0.24025,3.17443 0.13463,0.66578 0.0144,0.43066 0.0849,0.20653 0.0124,0.6319 -0.20711,1.21363 -0.008,0.8797 0.30238,0.84921 -0.0456,0.87004 0.16155,0.27941 -0.0166,0.24912 0.83672,-0.0271 1.38142,-0.23587 2.87674,-1.17311 1.62994,-0.53989 0.84087,-0.20522 1.76663,-0.19005 1.45805,-0.2832 1.22194,-0.4479 0.99826,-0.49597 1.10389,-0.0159 0.36037,-0.0643 1.66516,-0.67071 1.14946,-0.22792 0.19674,-0.15447 0.39559,-0.14311 0.68552,-0.39546 0.25061,-0.052 -0.0642,-0.0552 0.15118,-0.25972 0.0787,-0.57189 -0.0849,-0.43918 -0.20504,-0.48708 -0.46185,-0.70004 -0.40594,-1.4639 -0.0207,-0.24022 0.0995,-0.24685 0.0187,-0.27733 -0.0414,-0.83181 0.0952,-0.55182 -0.0621,-1.19337 0.0725,-0.609746 -0.27959,-2.393556 -0.002,-2.662748 -0.10153,-1.528817 -0.61304,-1.698434 -0.13462,-0.801133 -0.11391,-1.55551 0.11391,-1.808041 -0.37279,-1.304493 -0.13463,-0.172455 -0.17396,-0.520586 -0.27546,-3.29275 -0.26096,-1.483196 0.0166,-2.219399 -0.21332,-1.819399 -0.40593,-2.175289 0.10977,-0.400946 0.0414,-1.707331 0.13876,-0.346237 0.0103,-0.311783 -0.14497,-0.262754 -0.11599,-0.527022 -0.19054,-1.886602 -0.0103,-1.336864 0.11184,-0.736202 -0.0891,-0.27752 -0.0911,-2.134211 -0.0891,-0.280359 0.15118,-3.292939 -0.11597,-1.015426 0.0995,-0.443161 -0.0891,-0.104685 0.0601,-0.852814 -0.0601,-0.266349 0.0373,-0.335826 0.1636,-0.423473 0.31067,-1.856313 0.10153,-3.896629 0.2651,-0.889351 0.15326,-1.130332 0.19468,-0.570751 0.0414,-0.383719 -0.0662,-0.24742 0.0228,-0.379365 -0.10356,-0.09995 -0.008,-0.146711 0.0767,-0.09731 -0.19676,-0.222621 -0.46392,-0.181732 -0.28167,-0.01438 -1.10182,0.142546 -1.38141,-0.192522 -1.38762,0.120965 -1.45391,-0.214292 -1.4539,0.01457 -1.1826,-0.320869 -1.29857,0.04751 -1.56367,-0.288878 -0.50327,0.04486 -1.00448,0.323331 -0.0249,0.05907 -1.44355,0.08386 -0.47842,0.106957 -0.22574,0.112825 -0.38937,0.439564 0.10563,0.206719 0.15118,0.765734 0.19676,0.563368 0.0414,0.914338 -0.17191,2.225266 0.16569,2.311778 -0.40593,1.848364 0.12219,0.66313 0.0103,1.345382 0.35002,1.697488 -0.10356,0.282252 -0.0642,1.059723 -0.087,0.445432 0.087,1.194885 -0.058,1.026595 0.15326,0.212778 -0.004,0.203312 -0.17811,0.168481 -0.058,0.438616 0.1864,1.360149 0.0663,1.262656 -0.1512,1.795926 0.0601,0.371792 -0.0373,0.227165 0.37487,1.276475 0.16776,1.113106 0.0311,0.806056 -0.0849,0.771224 0.0995,1.553616 -0.0415,0.245717 0.34173,1.535064 0.45357,2.815327 -0.0124,0.384287 0.22783,1.539987 -0.20711,0.284713 0.006,0.316515 0.25681,0.328064 0.029,1.493228 0.10143,0.278656 0.0705,0.843349 0.2154,0.638142 0.14704,1.125412 0.0144,0.309322 -0.16983,0.320491 -0.008,0.343398 0.19883,0.311026 0.0973,0.562611 -0.0145,0.500141 0.17397,0.498247 0.0331,2.642114 -0.089,0.171887 0.21953,0.477046 0.0539,0.678465 0.13255,0.227922 -0.0518,1.143395 0.13462,0.264836 0.008,0.32352 -0.16155,0.372361 -0.058,0.790532 0.21125,2.693603 -0.0662,1.045899 0.14912,0.3718 -0.0559,0.35551 -0.27131,0.33242 -0.10355,0.32352 -0.13048,0.55902 -0.0228,0.41987 0.22782,0.79394 0.12012,2.31935 0.10562,0.20539 0.0497,0.17643 -0.0497,0.13687 0.10771,0.23569 0.2361,2.27335 0.0952,0.10563 0.0787,-0.0651 0.83673,-0.15012 1.52432,-0.55126 0.91542,-0.10827 1.06247,-0.29834 1.04176,-0.6054 0.54677,-0.43918 0.63167,-0.37539 0.48257,-0.42083 0.21539,-0.10714 -0.0497,-0.27222 0.27131,-0.59726 0.21332,-0.27279 0.22989,-0.66048 0.26717,-3.35143 0.23403,-0.70894 0.008,-0.55334 0.30446,-0.98968 0.13668,-1.564216 -0.0269,-0.823661 0.0911,-0.242309 0.10562,-1.002743 0.0352,-2.693414 0.0518,-0.339232 -0.087,-0.188547 -0.0393,-0.567912 -0.22576,-0.975104 0.0601,-2.165257 -0.087,-0.895218 -0.36658,-1.778888 -0.20504,-2.309695 -0.008,-0.997821 -0.15947,-0.947655 -0.11598,-1.454231 0.13668,-3.473536 -0.26302,-1.663982 0.0539,-0.3805 -0.1636,-1.41145 0.087,-1.866913 0.19054,-1.214574 -0.26303,-2.717267 0.16361,-1.476191 -0.17604,-0.353998 0.0228,-0.399621 0.26925,-0.396591 0.0973,-0.693041 -0.1367,-0.392806 0.087,-0.130241 -0.0207,-0.172834 -0.22782,-0.976808 0.11391,-2.957305 0.16776,-0.614291 0.029,-0.36138 -0.11598,-0.673165 -0.25682,-0.75324 -0.0642,-0.567344 -0.0477,-0.858113 0.11184,-1.518785 -0.12634,-1.409178 -0.0704,-0.157311 -0.30445,-0.328631 -0.23818,-0.527401 -0.24024,-1.117839 -0.25888,-0.490865 -0.0518,-0.23682 -0.30859,-0.413249 -0.35416,-0.184572 -1.03969,-0.315569 -0.41007,-0.196687 -1.2178,-0.862089 -0.23611,-0.07686 -0.52398,-0.06398 -1.43113,0.143871 0.35002,-0.0195 -0.18225,0.01212 -0.0393,0.100898 v 1.16403 l 0.34381,1.713199 0.0249,0.990059 0.30237,2.571125 0.17191,0.697774 0.39351,2.582104 -0.0393,1.031328 -0.13254,0.648365 -0.37487,1.096448 -0.0124,0.588356 0.19054,1.606054 -0.16155,1.429811 -0.32309,1.760526 0.0144,0.961096 0.1077,0.553713 0.16569,0.321627 0.0331,0.317273 -0.0559,0.35343 0.087,4.032929 -0.2009,2.221292 -0.0373,1.313579 0.23196,1.50932 0.0331,0.919637 0.17397,0.768574 -0.0331,1.218548 0.11805,0.300047 -0.0207,0.339232 -0.16983,0.361192 -0.0725,0.835398 0.25888,1.984661 -0.16155,0.382773 -0.004,0.376335 0.19675,0.349266 0.0435,0.414575 -0.0704,1.278558 0.029,1.116893 0.18432,1.525789 0.0539,1.905532 -0.0725,0.438428 0.008,0.406057 0.0891,0.349076 -0.002,1.365827 0.10769,1.148885 0.22575,0.233601 0.0166,0.308754 -0.20918,0.390913 -0.0642,0.599714 0.14498,2.4901 0.14498,1.097018 -0.0311,0.95617 0.36244,0.32769 0.0415,0.36819 -0.3583,0.32485 -0.0642,0.73431 0.0911,0.85697 0.41421,1.26778 0.0952,1.6475 0.14084,0.23663 -0.0911,0.074 0.0456,-0.0717 0.17604,0.0309 0.24853,0.31936 -0.10977,-0.0797 0.0973,-0.0396 0.16775,0.0636 0.63997,0.043 0.32309,-0.0526 0.10563,-0.13403 0.27131,-0.138 0.74352,-0.83048 0.38108,-0.24117 0.35209,-0.10999 0.52191,-0.72106 0.2506,-0.54519 0.06,-0.37956 -0.0518,-0.8795 -0.41214,-2.07855 -0.14705,-1.21855 -0.0207,-0.595553 0.1657,-2.001129 v -0.673765 l -0.27752,-2.457354 -0.33552,-4.602544 0.0932,-2.46076 0.28582,-2.146137 0.0144,-1.203215 -0.0642,-0.747561 -0.40593,-2.500893 -0.50741,-1.93317 -0.2009,-1.094744 -0.26717,-2.090861 -0.0539,-1.090012 0.0414,-1.126926 0.20296,-1.140366 0.3873,-1.142259"
     id="path1325" />
  <path
     fill="none"
     stroke="#000000"
     stroke-width="1.2"
     stroke-linecap="butt"
     stroke-linejoin="round"
     d="m 54.664992,36.633792 0.124,0.4534 0.0656,-0.1214 -0.0632,-0.1754 -0.3254,-0.3672 -0.3246,-0.171 -0.4836,-0.0214 -1.0102,0.266 -0.7132,0.4686 -0.3262,0.3128 -0.2898,0.3404 -0.5152,0.8078 -0.433,1.1652 -0.1868,0.793 -0.1268,0.9184 -0.0916,1.8238 0.2518,1.2874 0.3796,0.7802 0.2422,0.1858 0.5204,0.1488 0.4008,0.0246 0.9216,-0.0878 1.6906,-0.6242 1.0274,-0.6398 1.0908,-0.8814"
     id="path837" />
  <path
     fill="none"
     stroke="#000000"
     stroke-width="1.2"
     stroke-linecap="butt"
     stroke-linejoin="round"
     d="m 62.504392,34.581592 -1.189,0.1914 -1.5078,0.6584 -0.468,0.3258 -0.6108,5.1012 -0.2898,3.4488 0.006,0.4898 0.2186,1.0822 0.2532,0.3638 0.6572,0.1512 0.5672,-0.043 0.864,-0.3194 0.5448,-0.1144"
     id="path841" />
  <path
     fill="none"
     stroke="#000000"
     stroke-width="1.2"
     stroke-linecap="butt"
     stroke-linejoin="round"
     d="m 64.068792,38.627392 -0.3856,0.3432 -0.2822,0.4372 -0.1816,0.6658 -0.0236,0.4862 0.067,0.5382 0.2426,0.9182 0.1806,0.3374 0.2176,0.2126 0.4028,0.1656 0.4634,-0.052 0.7042,-0.2066 0.4556,-0.303 0.211,-0.2322 0.504,-0.9574 0.1072,-0.7162 -0.1052,-0.683 -0.1296,-0.2956 -0.2072,-0.2182 -0.2572,-0.1826 -0.833,-0.32 -0.5944,-0.036"
     id="path845" />
  <path
     fill="none"
     stroke="#000000"
     stroke-width="1.2"
     stroke-linecap="butt"
     stroke-linejoin="round"
     d="m 67.678192,33.944192 -0.066,0.4914 -0.1592,-0.0678 -0.2032,0.0274 -0.1422,0.1396 0.1176,-0.0752 1.208,-0.1292 1.3242,-0.2388 1.4496,-0.0922 0.5318,0.0226 0.197,0.291 -0.064,1.098 -0.217,1.1898 -0.1326,1.415 -0.007,1.571 0.0568,0.7866 0.3054,2.132 0.1298,0.5084 0.3148,0.7256 0.557,0.7926 0.2344,0.4672 0.0824,0.1954 0.008,0.3162 -0.167,0.3856 -0.5212,0.3888 -0.4448,0.2314 -1.0958,0.4092 -2.3432,0.538 -0.1062,-0.0296 0.091,-0.1008 0.7876,-0.4928"
     id="path849" />
  <path
     fill="none"
     stroke="#000000"
     stroke-width="1.2"
     stroke-linecap="butt"
     stroke-linejoin="round"
     d="m 89.264792,37.187392 -0.3506,-0.016 -1.0084,0.6702 -0.6138,0.6686 -0.559,0.9144 -0.2566,0.5428 -0.1634,0.6384 -0.0676,0.6782 0.1344,1.8338 0.305,0.9304 0.2182,0.2528 0.6772,0.1116 0.3628,-0.0332 0.802,-0.2294 1.8406,-0.8588"
     id="path853" />
  <path
     fill="none"
     stroke="#000000"
     stroke-width="1.2"
     stroke-linecap="butt"
     stroke-linejoin="round"
     d="m 98.078592,34.668792 -0.7782,-0.0182 -0.4764,0.0716 -1.8024,0.5036 -0.599,0.2778 -0.21,0.1294 -0.2176,0.2736 -0.1682,1.0146 -0.1972,4.5788 -0.3654,3.4646 0.0912,0.6566 0.2294,0.2126 0.5952,0.1966 1.7292,0.309 1.0966,0.063 0.0836,0.0776"
     id="path857" />
  <path
     fill="none"
     stroke="#000000"
     stroke-width="1.2"
     stroke-linecap="butt"
     stroke-linejoin="round"
     d="m 99.649992,38.899392 -0.0842,0.4828 -0.0832,1.8092 -0.3322,2.3344 0.1166,0.183 0.3836,-0.2244"
     id="path861" />
  <path
     fill="none"
     stroke="#000000"
     stroke-width="1.2"
     stroke-linecap="butt"
     stroke-linejoin="round"
     d="m 101.98499,35.474392 -0.0572,0.0464 0.3514,-0.036 1.7394,-0.502 1.309,-0.242 0.6456,-0.015 0.3964,0.1264 0.0236,0.0658 -0.0974,1.4194 -0.0176,1.8506 0.255,3.3508 0.3088,2.0546 0.256,0.8396 0.325,0.6806 0.196,1.1206 -0.035,0.2036 -0.2106,0.3244 -0.4648,0.334 -0.3368,0.164 -0.9096,0.1956 -2.6978,0.384 -0.009,-0.0524 1.148,-0.7416"
     id="path865" />
  <path
     fill="none"
     stroke="#000000"
     stroke-width="1.2"
     stroke-linecap="butt"
     stroke-linejoin="round"
     d="m 128.13939,38.026592 0.0742,-0.049 -0.0222,-0.1488 -0.257,-0.0872 -0.5544,0.0972 -0.424,0.1536 -0.4248,0.2418 -0.9484,0.8064 -0.4254,0.5946 -0.3056,0.6886 -0.3724,1.3718 -0.0948,0.5956 0.029,0.5378 0.1082,0.473 0.1538,0.4372 0.2162,0.361 0.3006,0.2504 0.5688,0.3132 1.456,0.2184 1.2624,-0.008 0.6866,-0.1704 0.4648,-0.2342"
     id="path869" />
  <path
     fill="none"
     stroke="#000000"
     stroke-width="1.2"
     stroke-linecap="butt"
     stroke-linejoin="round"
     d="m 137.12179,35.312392 0.0582,0.0318 -0.5996,0.074 -1.5978,0.4582 -0.8558,0.359 -0.2334,0.1582 -0.1336,0.2202 -0.2734,0.6706 -0.5108,2.036 -0.364,2.1012 -0.2744,2.5974 0.0424,0.6146 0.3228,0.7614 1.3224,0.6554 0.7018,0.263 1.346,0.3258 0.6596,0.2532 -0.0458,-0.0696"
     id="path873" />
  <path
     fill="none"
     stroke="#000000"
     stroke-width="1.2"
     stroke-linecap="butt"
     stroke-linejoin="round"
     d="m 137.77759,40.347792 0.024,-0.1532 0.1316,-0.1648 0.5506,-0.5006 0.1732,-0.0748 0.2038,0.001 0.1888,0.0682 0.1532,0.1568 0.335,0.6452 0.0852,0.8286 -0.0718,0.4132 -0.2866,0.8128 -0.7132,1.0264 0.175,-0.037 1.168,0.147 0.538,0.1726 0.1902,0.1154 -0.0368,0.1294"
     id="path877" />
  <path
     fill="none"
     stroke="#000000"
     stroke-width="1.2"
     stroke-linecap="butt"
     stroke-linejoin="round"
     d="m 141.11339,36.669592 0.1688,0.0222 1.7534,-0.2514 2.3178,-0.481 0.5864,0.0812 -0.2062,0.1056 -0.049,0.0916 -0.352,1.3994 -0.0728,0.5222 0.1192,1.0842 0.3092,1.7944 0.4516,1.5796 0.324,0.5836 0.5952,0.7026 0.2008,0.5382 6e-4,0.4708 -0.3054,0.5518 -0.8412,0.743 -0.5794,0.374 -1.8642,1.0496 -0.4558,0.1724 -0.524,0.0946 -0.027,-0.0542 1.1944,-0.816"
     id="path881" />
  <path
     fill="none"
     stroke="#000000"
     stroke-width="1.2"
     stroke-linecap="butt"
     stroke-linejoin="round"
     d="m 195.01879,41.420192 -0.014,-0.4822 -0.062,-0.2274 -0.128,-0.1728 -0.384,-0.2688 -0.718,-0.0852 -0.41,0.134 -0.976,0.5566 -1.152,0.9064 -0.57,0.6078 -0.892,1.4434 -0.4,0.8768 -0.3,0.939 -0.208,0.9482 -0.08,0.8608 0.024,0.6752 0.118,0.4898 0.208,0.2974 0.284,0.2124 0.792,0.2252 0.54,0.0378 0.638,-0.004 1.4,-0.1454 1.314,-0.296 1.464,-0.4464"
     id="path897" />
  <path
     fill="none"
     stroke="#000000"
     stroke-width="1.2"
     stroke-linecap="butt"
     stroke-linejoin="round"
     d="m 202.50679,38.963192 -0.126,-0.2188 0.06,0.0286 -0.056,0.074 -0.446,-0.0286 -2.072,0.5218 -0.146,0.1634 -0.272,0.6738 -0.184,0.9266 -1.104,6.3892 -0.092,1.4854 0.042,0.2432 0.384,0.4712 0.396,0.1964 0.576,0.1788 0.9,0.0704 0.378,-0.0122 0.222,-0.0978 -0.132,0.0258"
     id="path901" />
  <path
     fill="none"
     stroke="#000000"
     stroke-width="1.2"
     stroke-linecap="butt"
     stroke-linejoin="round"
     d="m 203.78479,42.650392 -0.216,2.1604 -0.296,2.0862 -0.21,0.8422 0.102,0.1064 0.128,-0.0424"
     id="path905" />
  <path
     fill="none"
     stroke="#000000"
     stroke-width="1.2"
     stroke-linecap="butt"
     stroke-linejoin="round"
     d="m 204.13679,42.088992 2.004,1.1172 0.682,0.5382 0.588,0.6376 0.194,0.3262 0.172,0.6964 -0.022,0.373 -0.342,0.7492 -0.198,0.3538 -0.662,0.794 -0.888,0.6318 -1.308,0.7284 -0.12,0.002 0.576,-0.5"
     id="path909" />
  <path
     fill="none"
     stroke="#000000"
     stroke-width="1.2"
     stroke-linecap="butt"
     stroke-linejoin="round"
     d="m 210.29279,45.067392 1.148,-0.1164 1.204,0.2288 0.808,-0.079"
     id="path913" />
  <path
     fill="none"
     stroke="#000000"
     stroke-width="1.2"
     stroke-linecap="butt"
     stroke-linejoin="round"
     d="m 217.02879,43.026192 0.126,-0.1376 0.022,0.424 -0.474,1.7652 -0.402,3.0482"
     id="path917" />
  <path
     fill="none"
     stroke="#000000"
     stroke-width="1.2"
     stroke-linecap="butt"
     stroke-linejoin="round"
     d="m 217.96279,39.169392 -0.29,-0.2806 0.242,0.0766 3.772,-0.2208 0.78,0.021 0.734,0.1418 -0.292,0.149 0.092,1.3216 0.062,2.7284 -0.112,2.3614 -0.202,2.0016 0.064,1.3752 0.196,0.6584 0.122,0.1662 -0.444,0.321 -0.274,0.1168 -2.67,0.9714 -0.366,0.0696 0.074,-0.1096"
     id="path921" />
  <path
     fill="none"
     stroke="#000000"
     stroke-width="1.2"
     stroke-linecap="butt"
     stroke-linejoin="round"
     d="m 54.307792,58.726792 0.1728,-0.0358 -0.3758,-0.1284 -0.2502,0.0134 -0.9138,0.2292 -0.3924,0.1778 -0.443,0.2516 -0.7776,0.6386 -0.4364,0.3938 -0.3438,0.4222 -0.284,0.4708 -0.4306,1.115 -0.0478,0.6616 0.0462,1.4502 0.1554,0.7544 0.2326,0.7224 0.2362,0.6838 0.298,0.581 0.6182,0.7826 0.7064,0.3726 0.379,0.0334 0.417,-0.0534 0.8478,-0.2358 0.9808,-0.594 0.6638,-0.742"
     id="path925" />
  <path
     fill="none"
     stroke="#000000"
     stroke-width="1.2"
     stroke-linecap="butt"
     stroke-linejoin="round"
     d="m 62.268592,57.231392 -0.1696,0.2752 -0.0776,-0.057 -0.2418,0.0348 -1.6768,0.5326 -0.6142,0.2998 -0.2038,1.7006 -0.0488,5.8992 -0.1526,2.3544 0.106,0.5012 0.9184,0.1792 1.1334,-0.2062 1.0134,-0.4602 0.3436,0.0204 -0.0112,0.0582"
     id="path929" />
  <path
     fill="none"
     stroke="#000000"
     stroke-width="1.2"
     stroke-linecap="butt"
     stroke-linejoin="round"
     d="m 65.478192,61.355192 -0.1232,5.021 0.008,0.2164 0.0718,0.1238 0.0522,0.0496 0.1666,-0.034"
     id="path933" />
  <path
     fill="none"
     stroke="#000000"
     stroke-width="1.2"
     stroke-linecap="butt"
     stroke-linejoin="round"
     d="m 65.782192,60.542592 0.1858,0.2654 0.5352,-0.0294 0.7498,0.115 0.8616,0.238 0.4252,0.1962 0.368,0.2438 0.2978,0.3016 0.369,0.5806 0.1094,0.708 -0.045,0.4462 -0.1378,0.452 -0.2302,0.4546 -1.0794,1.3874 -1.1758,1.0132 -0.648,0.3572 0.7522,-0.6244 0.6226,-0.6364"
     id="path937" />
  <path
     fill="none"
     stroke="#000000"
     stroke-width="1.2"
     stroke-linecap="butt"
     stroke-linejoin="round"
     d="m 69.421392,57.792992 1.5264,-0.4476 0.9132,-0.1424 1.1798,0.1932 0.4114,0.2176 0.1756,-0.0728 -0.0572,0.0174 0.0872,0.3444 -0.0164,0.273 0.6796,4.0096 0.2156,2.5628 0.1932,1.0558 -0.004,0.3584 0.0542,0.2918 0.2278,0.4034 0.258,0.2458 -0.2396,0.1868 -0.912,0.4192 -0.7396,0.4776 -1.5092,0.7552 -0.0736,-0.043 -0.004,-0.0892 0.4054,-0.5916"
     id="path941" />
  <path
     style="stroke-width:0.2"
     fill="#000000"
     d="m 104.76299,64.741192 c 0,0 0,0 0,0 0.187,-0.1138 0.4068,-0.1862 0.5612,-0.3414 0.143,-0.1436 0.3698,-0.3356 0.303,-0.527 -0.0888,-0.2546 -0.3836,-0.472 -0.653,-0.4772 -1.1112,-0.0212 -2.211,0.236 -3.31,0.402 -0.0704,0.0106 -0.1564,0.0548 -0.174,0.124 -0.0452,0.1778 -0.0548,0.376 0.002,0.5504 0.0388,0.1188 0.1404,0.2548 0.265,0.265"
     id="path945" />
  <path
     fill="none"
     stroke="#000000"
     stroke-width="1.2"
     stroke-linecap="butt"
     stroke-linejoin="round"
     d="m 103.54699,65.939192 -0.1132,-0.1848 -0.192,-0.9292 -0.1956,-0.4192 -0.158,-0.8548 0.071,-0.9664 0.1144,-0.481"
     id="path949" />
  <path
     fill="none"
     stroke="#000000"
     stroke-width="1.2"
     stroke-linecap="butt"
     stroke-linejoin="round"
     d="m 107.30239,61.080992 0.178,2.6438 -0.0996,2.2186 -0.0886,0.2404 0.1624,0.2152 0.112,-0.043 -0.005,-0.0564"
     id="path953" />
  <path
     fill="none"
     stroke="#000000"
     stroke-width="1.2"
     stroke-linecap="butt"
     stroke-linejoin="round"
     d="m 107.00919,57.810792 0.3708,-0.0534 0.9862,-0.3816 0.9804,-0.2794 1.6544,-0.158 0.2402,0.0906 0.0408,0.0784 -0.1498,2.1808 -0.1054,0.7368 -0.0162,0.79 0.3134,2.3064 0.4572,1.8244 0.4172,1.3466 0.1488,0.911 -0.031,0.2732 -0.1222,0.5068 -0.3936,0.4564 -0.3364,0.2344 -0.8832,0.3894 -1.0632,0.3356 -0.295,0.039 -0.2448,-0.0922 0.2852,-0.3692"
     id="path957" />
  <path
     fill="none"
     stroke="#000000"
     stroke-width="1.2"
     stroke-linecap="butt"
     stroke-linejoin="round"
     d="m 127.44979,59.796192 -0.3556,-0.4078 -0.2096,-0.1416 -0.3282,-0.1028 -0.2424,0.055 -0.5666,0.3864 -0.3226,0.3426 -0.2854,0.4256 -0.5254,1.081 -0.3328,1.3454 -0.0736,0.7278 0.08,0.7054 0.1488,0.633 0.156,0.5618 0.2678,0.3998 0.3542,0.2774 0.7674,0.3752 0.795,0.1836 0.4078,0.0186 2.0684,-0.1626"
     id="path961" />
  <path
     fill="none"
     stroke="#000000"
     stroke-width="1.2"
     stroke-linecap="butt"
     stroke-linejoin="round"
     d="m 134.81619,57.667992 0.0216,0.4802 -0.1434,-0.1476 -0.3548,-0.0218 -1.8704,0.473 -0.642,0.0552 -0.2212,0.1884 -0.3906,2.9562 -0.199,3.1424 -0.003,1.911 0.092,1.2692 0.4018,0.852 0.4436,0.2562 0.4562,0.1354 0.968,0.012 1.3688,-0.1428 0.0854,0.017 -0.1122,0.121"
     id="path965" />
  <path
     fill="none"
     stroke="#000000"
     stroke-width="1.2"
     stroke-linecap="butt"
     stroke-linejoin="round"
     d="m 135.52379,61.501592 0.1248,0.3388 -0.005,0.507 -0.192,1.8632 -0.0234,1.3534 0.0352,0.2348 0.0954,0.009 0.1986,-0.12"
     id="path969" />
  <path
     fill="none"
     stroke="#000000"
     stroke-width="1.2"
     stroke-linecap="butt"
     stroke-linejoin="round"
     d="m 135.46459,61.290792 0.4794,-0.2046 0.5664,-0.0358 0.7548,0.0278 0.3894,0.0822 1.0784,0.5232 0.3036,0.2646 0.3002,0.59 0.0204,0.3452 -0.0756,0.3922 -0.4842,0.8994 -0.3318,0.4552 -1.1962,1.129 -0.7734,0.547 -0.1444,0.0154 0.4012,-0.2868"
     id="path973" />
  <path
     fill="none"
     stroke="#000000"
     stroke-width="1.2"
     stroke-linecap="butt"
     stroke-linejoin="round"
     d="m 141.05659,63.488792 -0.0802,-0.03 0.3206,0.007 0.9906,-0.1982 1.2498,-0.0942 0.165,0.01 0.0374,0.0796"
     id="path977" />
  <path
     fill="none"
     stroke="#000000"
     stroke-width="1.2"
     stroke-linecap="butt"
     stroke-linejoin="round"
     d="m 141.88779,65.533592 0.0244,-0.1874 0.46,-1.1542 -0.004,-1.1216 -0.247,-1.2106"
     id="path981" />
  <path
     fill="none"
     stroke="#000000"
     stroke-width="1.2"
     stroke-linecap="butt"
     stroke-linejoin="round"
     d="m 144.94299,61.394792 0.2504,-0.6366 0.2356,-0.1732 0.2604,-0.1018 0.5804,-0.0166 0.6016,0.2302 0.291,0.2824 0.2222,0.3692 0.1186,0.4566 0.0216,0.563 -0.065,0.6424 -0.3232,1.3296 -0.2404,0.5754 -0.9502,1.6336 0.2644,-0.1858 0.9242,-0.2306 0.6858,-0.2688 0.3026,-0.0404 0.1476,0.108 0.004,0.084"
     id="path985" />
  <path
     fill="none"
     stroke="#000000"
     stroke-width="1.2"
     stroke-linecap="butt"
     stroke-linejoin="round"
     d="m 147.33499,57.972192 0.0574,0.0864 0.2318,0.0272 1.1028,-0.2166 1.1552,-0.0922 0.8036,0.1612 0.3164,0.101 -0.0596,0.1222 0.2492,0.1732 0.3112,0.952 0.1616,2.0206 0.037,3.2942 -0.0642,2.451 0.0746,0.6722 0.191,0.4224 -0.005,0.1116 -0.0546,0.1636 -0.5532,0.5586 -0.6258,0.5118 -0.4138,0.2888 -0.9076,0.483 -0.2394,0.0974 -0.1054,-0.0138 0.0328,-0.0852 0.3506,-0.2622 0.429,-0.7818"
     id="path989" />
  <path
     fill="none"
     stroke="#000000"
     stroke-width="1.2"
     stroke-linecap="butt"
     stroke-linejoin="round"
     d="m 164.48259,64.282592 -0.0888,0.2748 -0.2124,0.2996 -0.1042,-0.0546 0.0874,-0.2034 0.5796,-0.2754"
     id="path993" />
  <path
     fill="none"
     stroke="#000000"
     stroke-width="1.2"
     stroke-linecap="butt"
     stroke-linejoin="round"
     d="m 169.43879,64.612592 0.0636,0.1838 0.279,0.0176 0.2996,-0.0386 0.4532,-0.1964"
     id="path997" />
  <path
     fill="none"
     stroke="#000000"
     stroke-width="1.2"
     stroke-linecap="butt"
     stroke-linejoin="round"
     d="m 175.13759,64.340192 0.1178,0.0618 -0.002,0.2526 0.431,-0.1674 0.1022,-0.1344"
     id="path1001" />
  <path
     fill="none"
     stroke="#000000"
     stroke-width="1.2"
     stroke-linecap="butt"
     stroke-linejoin="round"
     d="m 191.67879,60.755792 0.15,-0.777 0.114,-0.1434 -0.172,-0.1782 -0.15,-0.0244 -0.576,0.0838 -0.566,0.2518 -1.63,1.0874 -0.972,0.7238 -0.9348,0.803 -0.7638,0.9162 -0.529,0.9132 -0.3794,0.8762 -0.209,0.8576 0.027,0.7976 0.1706,0.718 0.2406,0.623 0.3842,0.4896 0.4876,0.31 0.5368,0.2206 0.5776,0.1448 1.2696,0.09 0.706,-0.0772 1.498,-0.4056 1.634,-0.7086"
     id="path1005" />
  <path
     fill="none"
     stroke="#000000"
     stroke-width="1.2"
     stroke-linecap="butt"
     stroke-linejoin="round"
     d="m 200.17279,58.747192 0.054,-0.1216 -0.044,0.0822 -1.33,0.308 -1.164,0.1 -0.128,0.1034 -0.536,2.4176 -0.428,3.3498 -0.25,3.0016 0.022,0.625 0.136,0.4698 0.18,0.3462 0.984,1.0942 0.722,0.253 1.03,-0.0292 0.358,-0.1244 0.02,-0.0786 -0.066,0.0374"
     id="path1009" />
  <path
     fill="none"
     stroke="#000000"
     stroke-width="1.2"
     stroke-linecap="butt"
     stroke-linejoin="round"
     d="m 200.31279,63.094192 -0.294,0.2366 0.02,-0.1308 1.098,-0.8036 0.428,-0.2694 0.464,-0.1982 0.406,-0.0878 0.342,0.003 0.272,0.1376 0.172,0.2526 0.084,0.8204 -0.056,0.5774 -0.168,0.6254 -0.66,1.3516 -1.816,2.596 0.208,-0.2838 1.864,-0.4064 0.212,0.0296 0.048,0.172 0.158,0.0942 -0.012,0.0538"
     id="path1013" />
  <path
     fill="none"
     stroke="#000000"
     stroke-width="1.2"
     stroke-linecap="butt"
     stroke-linejoin="round"
     d="m 205.76679,62.815792 0.132,0.3038 0.17,1.1176 -0.25,2.3376 0.048,0.3348 -0.036,0.5442 0.054,0.0952 0.264,-0.1042"
     id="path1017" />
  <path
     fill="none"
     stroke="#000000"
     stroke-width="1.2"
     stroke-linecap="butt"
     stroke-linejoin="round"
     d="m 206.21079,62.416392 -0.022,-0.2592 0.062,-0.2802 0.498,0.3994 1.26,0.5958 1.596,1.0368 0.214,0.2678 0.208,0.5466 -0.074,0.6354 -0.238,0.6534 -0.26,0.4046 -1.612,1.502 -0.772,0.4708 -0.38,0.1506 0.744,-0.5652"
     id="path1021" />
  <path
     fill="none"
     stroke="#000000"
     stroke-width="1.2"
     stroke-linecap="butt"
     stroke-linejoin="round"
     d="m 212.63679,65.274392 0.246,0.1236 2.112,0.1044 0.678,-0.1416 0.652,-0.29"
     id="path1025" />
  <path
     fill="none"
     stroke="#000000"
     stroke-width="1.2"
     stroke-linecap="butt"
     stroke-linejoin="round"
     d="m 219.02879,63.841992 -0.168,0.654 0.08,0.8844 -0.034,0.437 -0.332,1.877 0.08,0.7738 0.196,0.3316"
     id="path1029" />
  <path
     fill="none"
     stroke="#000000"
     stroke-width="1.2"
     stroke-linecap="butt"
     stroke-linejoin="round"
     d="m 220.75679,60.886992 -0.12,-0.4076 0.096,0.0414 0.002,0.0892 0.408,0.066 2.96,-0.1132 0.722,0.086 0.138,0.1434 -0.25,0.2178 -0.12,0.2046 -0.326,0.8968 -0.16,3.537 -0.134,1.2632 0.106,1.4714 0.312,1.755 0.094,0.1536 -0.032,0.2036 -0.266,0.4632 -0.822,0.8352 -1.144,0.6804 -1.004,0.3698 -0.132,0.008 0.026,-0.0638 0.526,-0.4842"
     id="path1033" />
  <path
     fill="none"
     stroke="#000000"
     stroke-width="1.2"
     stroke-linecap="butt"
     stroke-linejoin="round"
     d="m 89.266792,58.989592 -0.0556,0.3708 0.0844,-0.239 -0.661,-0.0512 -0.456,0.0764 -0.7054,0.3274 -0.4712,0.3728 -0.9438,0.9748 -0.4928,0.8422 -0.1408,1.637 0.0438,0.6142 0.3044,1.151 0.4182,0.8802 0.6528,0.7486 0.3272,0.2686 0.3018,0.1546 0.6174,0.1536 0.3486,-0.0292 0.5314,-0.1844 0.3774,-0.2562 0.4884,-0.7318"
     id="path1037" />
  <path
     fill="none"
     stroke="#000000"
     stroke-width="1.2"
     stroke-linecap="butt"
     stroke-linejoin="round"
     d="m 95.172592,57.078592 0.004,0.4792 0.0162,-0.1304 -0.1418,0.008 -2.0594,0.7434 -0.671,0.157 -0.2302,0.175 -0.2426,0.5926 -0.0652,0.6914 -0.1342,5.6134 -0.2118,3.7202 0.0422,0.4468 0.2224,0.4456 0.1228,0.0926 0.587,0.0796 0.6726,-0.0426 0.4128,-0.1076 1.6634,-0.668 0.2414,-2e-4 -0.1598,0.0462"
     id="path1041" />
  <path
     fill="none"
     stroke="#000000"
     stroke-width="1.2"
     stroke-linecap="butt"
     stroke-linejoin="round"
     d="m 95.687392,60.607992 2e-4,1.6068 -0.1862,2.0126 -0.1942,1.2704 -0.009,0.2708 0.08,-0.205"
     id="path1045" />
  <path
     fill="none"
     stroke="#000000"
     stroke-width="1.2"
     stroke-linecap="butt"
     stroke-linejoin="round"
     d="m 95.192992,59.828392 1.3072,0.172 0.486,0.131 0.8934,0.3652 0.3922,0.2546 0.2996,0.3248 0.2128,0.3594 0.1342,0.4058 0.0532,0.4628 -0.0728,1.0694 -0.1812,0.5808 -0.2938,0.627 -0.937,1.2374 -1.6062,1.671 -0.2988,0.1588 -0.4328,0.1202 -0.0116,-0.0458 0.2706,-0.1902 0.256,-0.3662"
     id="path1049" />
  <path
     fill="none"
     stroke="#000000"
     stroke-width="1.2"
     stroke-linecap="butt"
     stroke-linejoin="round"
     d="m 53.672792,81.826792 v 0"
     id="path1053" />
  <path
     fill="none"
     stroke="#000000"
     stroke-width="1.2"
     stroke-linecap="butt"
     stroke-linejoin="round"
     d="m 53.478592,81.992192 0.0346,0.0898 -0.0414,-0.0488 0.1704,-0.1322 0.1238,-0.203 -0.0324,0.1116 0.051,0.0528 0.362,0.0846 -0.0364,0.0264 -0.0292,-0.0604 0.0254,-0.0922 -0.6556,-0.3242 -0.4022,-0.1068 -0.8032,0.212 -0.6854,0.3932 -0.7464,0.6422 -1.1058,1.509 -1.0698,1.814 -0.4366,1.32 -0.0704,0.5794 0.0828,0.596 0.101,0.5904 0.2096,0.5308 0.2548,0.4736 0.3402,0.3684 0.4036,0.2756 0.464,0.1924 0.5508,0.0954 0.6224,-0.0626 0.6704,-0.1616 0.716,-0.299 0.7266,-0.413 1.7222,-1.2042 1.0246,-0.9766"
     id="path1057" />
  <path
     fill="none"
     stroke="#000000"
     stroke-width="1.2"
     stroke-linecap="butt"
     stroke-linejoin="round"
     d="m 61.995992,79.683992 0.1058,-0.1054 0.0246,0.058 -0.0704,0.0586 -0.3984,0.0956 -1.1396,0.612 -0.7172,0.2036 -0.282,0.3368 -0.095,0.2388 -0.6114,3.2918 -0.1928,3.8238 -0.0212,0.6906 0.0734,0.9194 0.6342,1.1038 0.2734,0.1932 0.6108,0.1972 0.2332,0.011 0.6436,-0.0864 0.404,-0.127 0.0902,-0.0686 -0.03,-0.0294"
     id="path1061" />
  <path
     fill="none"
     stroke="#000000"
     stroke-width="1.2"
     stroke-linecap="butt"
     stroke-linejoin="round"
     d="m 63.087592,83.397992 0.1704,0.1366 -0.0766,-0.0336 -0.1492,0.2684 -0.0924,0.0398 0.0334,0.0904 -0.1798,0.0678 0.2066,-0.4146 0.63,-0.5762 0.5254,-0.305 0.5462,-0.0754 0.4086,0.1474 0.132,0.1548 0.2206,0.4298 0.0746,0.3118 -0.1346,1.364 -0.4204,1.0618 -0.2358,0.4948 -0.4686,0.6992 -0.5552,0.6766 -0.1738,0.0842 0.3334,-0.2468 1.116,-0.0158 1.1494,0.1628 0.2576,0.1562"
     id="path1065" />
  <path
     fill="none"
     stroke="#000000"
     stroke-width="1.2"
     stroke-linecap="butt"
     stroke-linejoin="round"
     d="m 68.663992,82.237392 0.0258,2.5366 -0.1256,2.3694 0.0484,0.2242 0.089,-0.1762"
     id="path1069" />
  <path
     fill="none"
     stroke="#000000"
     stroke-width="1.2"
     stroke-linecap="butt"
     stroke-linejoin="round"
     d="m 68.439392,81.856992 0.1324,0.1576 1.2848,-0.1208 0.8342,0.0944 0.4756,0.1202 0.4674,0.1894 0.7422,0.5262 0.288,0.261 0.3122,0.511 0.0352,0.2904 -0.124,0.7308 -0.3286,0.9994 -0.2826,0.5744 -1.01,1.4202 -0.2678,0.2662 -0.461,0.3644 -0.3144,0.0572 -0.045,-0.0682 0.0624,-0.0924 0.521,-0.545"
     id="path1073" />
  <path
     fill="none"
     stroke="#000000"
     stroke-width="1.2"
     stroke-linecap="butt"
     stroke-linejoin="round"
     d="m 72.141192,79.219792 0.021,-0.109 0.0924,-0.0442 1.0604,-0.3176 1.123,-0.264 0.6098,-0.0218 0.7884,0.1302 0.1634,0.0912 -0.0596,0.003 0.1562,0.1842 0.1786,0.6868 0.321,2.3296 0.2396,3.7734 0.0984,0.386 0.0594,0.927 0.2596,0.8438 -0.0138,0.542 -0.0842,0.1826 -0.1604,0.0798 -0.2376,0.4442 0.0712,0.1074 -0.0744,-0.0596 0.032,0.0472 -0.0788,0.0696 -0.0148,0.1256 0.0766,0.1312 0.0626,-0.0842 -0.2158,-0.0428 -1.4618,0.3164 -0.899,0.3906 -0.1242,0.0716 -0.0366,0.119 0.4284,-0.4598"
     id="path1077" />
  <path
     fill="none"
     stroke="#000000"
     stroke-width="1.2"
     stroke-linecap="butt"
     stroke-linejoin="round"
     d="m 86.804792,80.183792 -0.1542,0.2192"
     id="path1081" />
  <path
     fill="none"
     stroke="#000000"
     stroke-width="1.2"
     stroke-linecap="butt"
     stroke-linejoin="round"
     d="m 87.876192,80.726392 0.166,-0.0668 0.0264,-0.113 -0.1852,-0.3442 -0.3922,-0.1946 -0.2838,-0.009 -0.6066,0.3352 -0.8218,0.8148 -0.3966,0.5956 -0.3268,0.6814 -0.5398,1.4782 -0.1158,0.6514 -0.0174,0.5576 0.0882,0.4842 0.1634,0.4628 0.233,0.3754 0.3394,0.2384 0.3552,0.1296 1.1152,0.0852 0.8082,-0.082 1.5136,-0.3618"
     id="path1085" />
  <path
     fill="none"
     stroke="#000000"
     stroke-width="1.2"
     stroke-linecap="butt"
     stroke-linejoin="round"
     d="m 94.234592,78.761392 0.0106,0.2026 0.154,-0.005 0.0744,-0.0814 -0.338,0.0258 -0.652,0.1838 -1.3514,0.7668 -0.1462,0.1882 -0.0148,4.2432 -0.27,3.9094 0.0428,0.2066 0.6348,0.279 2.121,0.1396 0.1178,0.0224 0.037,0.109"
     id="path1089" />
  <path
     fill="none"
     stroke="#000000"
     stroke-width="1.2"
     stroke-linecap="butt"
     stroke-linejoin="round"
     d="m 94.527192,82.148192 -0.0276,-0.079 0.608,-0.6536 0.3998,-0.2498 0.3614,-0.0474 0.2374,0.0644 0.4008,0.322 0.3418,0.959 0.0174,0.4234 -0.274,0.8886 -0.8058,1.18 -0.8258,0.8896 0.2522,-0.256 0.7942,-0.1262 1.2056,-0.1378 0.2928,0.0488 0.0132,0.0902"
     id="path1093" />
  <path
     fill="none"
     stroke="#000000"
     stroke-width="1.2"
     stroke-linecap="butt"
     stroke-linejoin="round"
     d="m 99.430792,80.963392 -0.0438,0.6606 0.0388,0.8256 -0.0914,1.3254 0.0272,0.9594 0.0556,-0.1186"
     id="path1097" />
  <path
     fill="none"
     stroke="#000000"
     stroke-width="1.2"
     stroke-linecap="butt"
     stroke-linejoin="round"
     d="m 99.947392,80.683792 -0.1558,-0.0102 0.118,-0.0518 1.020198,-0.1568 1.0018,0.1432 0.6974,0.1964 0.3026,0.1612 0.5196,0.4996 0.0708,0.2868 -0.0904,0.6558 -0.4272,0.9042 -1.851,1.8942 -1.426798,1.1182 0.309598,-0.2962 0.7432,-0.4066 0.7486,-0.5472"
     id="path1101" />
  <path
     fill="none"
     stroke="#000000"
     stroke-width="1.2"
     stroke-linecap="butt"
     stroke-linejoin="round"
     d="m 105.57599,83.190592 0.0776,0.0902 0.273,0.0686 2.5594,-0.3496 0.152,0.025"
     id="path1105" />
  <path
     fill="none"
     stroke="#000000"
     stroke-width="1.2"
     stroke-linecap="butt"
     stroke-linejoin="round"
     d="m 107.06219,84.866792 -0.1072,-0.3016 -0.0292,-0.729 0.2422,-1.0084 0.0686,-1.0962 0.1466,-0.562 0.1042,-0.1816"
     id="path1109" />
  <path
     fill="none"
     stroke="#000000"
     stroke-width="1.2"
     stroke-linecap="butt"
     stroke-linejoin="round"
     d="m 110.65839,80.032392 0.034,0.2452 0.3024,0.7198 0.1634,0.9186 0.0516,1.8918 -0.068,1.8128 0.0924,0.3648 0.0738,0.047"
     id="path1113" />
  <path
     fill="none"
     stroke="#000000"
     stroke-width="1.2"
     stroke-linecap="butt"
     stroke-linejoin="round"
     d="m 111.13019,77.573192 2e-4,0.284 -0.0992,0.3804 0.064,-0.1668 0.0978,-0.055 2.0112,-0.55 1.338,-0.2344 0.4182,4e-4 0.1834,0.0898 -0.1236,0.1104 -0.008,0.7902 0.4008,1.1856 0.2326,1.2418 0.1576,1.5892 0.004,1.7442 -0.2176,2.746 0.0402,0.4734 0.2758,0.7038 0.267,0.2654 0.0858,0.282 -0.0794,0.1466 -0.141,0.0776 -2.4824,0.5104 -0.4996,0.1558 0.0624,0.0754"
     id="path1117" />
  <path
     fill="none"
     stroke="#000000"
     stroke-width="1.2"
     stroke-linecap="butt"
     stroke-linejoin="round"
     d="m 129.40639,79.622792 0.1688,0.1006 0.2756,-0.2176 -0.6158,-0.1168 -0.5706,0.0642 -0.3114,0.1012 -0.6638,0.4196 -0.8746,0.7776 -0.309,0.475 -0.3086,0.8784 -0.0958,1.0294 0.1432,0.9784 0.1642,0.4248 0.497,0.6364 0.4974,0.3748 0.3552,0.1394 0.4974,0.0514 0.8668,-0.1664 1.6364,-1.1342"
     id="path1121" />
  <path
     fill="none"
     stroke="#000000"
     stroke-width="1.2"
     stroke-linecap="butt"
     stroke-linejoin="round"
     d="m 135.92319,77.309192 0.1798,0.0528 -0.068,0.0746 -0.578,0.1172 -1.8988,0.652 -0.3244,0.2134 -0.075,0.1934 -0.0988,2.0266 0.0944,3.9294 -0.0516,3.2182 0.0692,1.3484 0.087,0.2234 0.276,0.2632 0.4314,0.1206 0.3482,0.001 1.3322,-0.235 1.6286,-0.524 0.0806,-0.0502 -0.0488,-0.014"
     id="path1125" />
  <path
     fill="none"
     stroke="#000000"
     stroke-width="1.2"
     stroke-linecap="butt"
     stroke-linejoin="round"
     d="m 135.36779,81.880392 -0.0832,0.0842 0.04,-0.1488 0.2316,-0.4422 0.3764,-0.4462 0.2032,-0.1652 0.4284,-0.0922 0.24,0.0424 0.2414,0.1424 0.2134,0.2694 0.2364,0.8648 0.0472,0.5384 -0.1386,1.1382 -0.4324,0.9292 -0.8394,1.209 -0.0592,0.176 0.294,-0.225 1.373,-0.3576 0.5976,-0.005 0.4572,0.0894 0.1372,0.1148 -0.0722,0.1794"
     id="path1129" />
  <path
     fill="none"
     stroke="#000000"
     stroke-width="1.2"
     stroke-linecap="butt"
     stroke-linejoin="round"
     d="m 139.90419,80.713792 -0.0746,-0.0748 -0.0796,0.0424 0.4254,0.3964 0.1312,0.4064 -0.1372,3.3166 0.0504,0.1928 0.0564,-0.0248"
     id="path1133" />
  <path
     fill="none"
     stroke="#000000"
     stroke-width="1.2"
     stroke-linecap="butt"
     stroke-linejoin="round"
     d="m 139.97219,80.303992 0.01,0.1202 1.092,0.0534 0.807,0.2332 0.3816,0.1754 0.6082,0.4822 0.2068,0.2764 0.0922,0.2892 -0.0428,0.6506 -0.2546,0.7632 -0.5936,0.8048 -1.9604,2.0208 0.6614,-0.3968"
     id="path1137" />
  <path
     fill="none"
     stroke="#000000"
     stroke-width="1.2"
     stroke-linecap="butt"
     stroke-linejoin="round"
     d="m 145.15179,83.277192 0.1974,0.2584 0.3612,0.2772 0.7892,-0.089 0.4874,0.049 0.3346,-0.0496 0.2404,0.0662"
     id="path1141" />
  <path
     fill="none"
     stroke="#000000"
     stroke-width="1.2"
     stroke-linecap="butt"
     stroke-linejoin="round"
     d="m 146.37019,85.308592 -0.0668,-0.081 0.0138,-0.1448 0.2946,-0.9066 0.176,-1.0192 0.0204,-0.7054 -0.0918,-0.641"
     id="path1145" />
  <path
     fill="none"
     stroke="#000000"
     stroke-width="1.2"
     stroke-linecap="butt"
     stroke-linejoin="round"
     d="m 148.67359,81.808992 0.0644,-0.2072 0.3136,-0.3762 0.8898,-0.7826 0.322,-0.205 0.3268,-0.1196 0.3132,0.0278 0.238,0.1436 0.1498,0.2718 0.1646,0.9002 -0.1188,1.1202 -0.1638,0.6338 -0.283,0.6168 -0.9412,1.4512 -0.5412,1.0086 0.024,0.0962 0.455,-0.274 1.5222,-0.2064 0.5048,0.0764 0.1632,0.2528 -0.0796,0.154"
     id="path1149" />
  <path
     fill="none"
     stroke="#000000"
     stroke-width="1.2"
     stroke-linecap="butt"
     stroke-linejoin="round"
     d="m 151.62179,77.222392 -0.0332,0.0438 0.1896,0.0714 0.505,0.0386 1.8692,-0.3272 0.6184,0.0678 0.1666,0.3212 0.1476,0.954 0.3036,0.6204 0.3118,1.0986 0.238,2.9116 0.031,1.3758 -0.0662,1.0832 0.0448,0.8476 0.1982,2.2974 0.0568,0.1122 -0.147,0.0582 -0.0814,-0.0878 -1.25,-0.0718 -1.2642,0.365 -0.032,0.0818 0.1096,-0.1356 0.1538,-0.065"
     id="path1153" />
  <path
     fill="none"
     stroke="#000000"
     stroke-width="1.2"
     stroke-linecap="butt"
     stroke-linejoin="round"
     d="m 190.65479,79.457992 0.034,-0.2242 0.126,-0.1708 0.066,0.1428 -0.29,-0.096 -0.292,0.01 -0.882,0.3068 -0.54,0.3202 -0.5086,0.4134 -0.447,0.5084 -0.7798,1.2702 -0.2334,0.683 -0.0574,0.6612 0.0394,0.6042 0.1352,0.519 0.2,0.4268 0.2766,0.345 0.745,0.4622 0.858,0.3408 0.924,0.1788 1.378,-10e-4 0.314,-0.1318"
     id="path1169" />
  <path
     fill="none"
     stroke="#000000"
     stroke-width="1.2"
     stroke-linecap="butt"
     stroke-linejoin="round"
     d="m 199.61479,76.827192 0.088,0.226 -0.1,-0.1212 0.03,-0.0596 0.008,0.0606 -0.45,-0.0604 -0.384,0.072 -1.282,0.42 -0.486,0.2388 -0.39,0.2778 -0.206,0.2316 -0.082,0.1934 -0.204,1.2054 0.158,4.058 -0.008,3.7654 -0.076,2.21 -0.218,0.224 0.026,0.171 0.818,0.2048 0.462,0.0302 1.822,-0.0576 0.148,-0.0304 0.006,-0.0488"
     id="path1173" />
  <path
     fill="none"
     stroke="#000000"
     stroke-width="1.2"
     stroke-linecap="butt"
     stroke-linejoin="round"
     d="m 198.98679,82.098392 1.018,-1.0862 1.148,-0.6106 0.8,-0.217 0.486,-0.0166 0.204,0.084 0.284,0.3156 0.038,0.3802 -0.124,0.2848 -0.806,1.2274 -0.752,0.7582 -1.212,0.9372 0.218,-0.173 0.878,-0.2198 1.42,-0.248 0.362,-0.01 0.36,0.0356 0.236,0.1284 0.118,0.2518 -0.032,0.1792 -0.276,0.4328 -0.284,0.281 -1.294,1.0236 -0.856,0.6256 -0.936,0.5488 0.444,-0.4722"
     id="path1177" />
  <path
     fill="none"
     stroke="#000000"
     stroke-width="1.2"
     stroke-linecap="butt"
     stroke-linejoin="round"
     d="m 206.17279,81.094592 0.1,-0.3016 -0.172,1.1152 -0.152,2.4602 -0.116,0.8408 -0.158,0.5448 0.008,0.3268 0.056,0.0318 0.044,-0.1042"
     id="path1181" />
  <path
     fill="none"
     stroke="#000000"
     stroke-width="1.2"
     stroke-linecap="butt"
     stroke-linejoin="round"
     d="m 206.57679,80.862592 0.248,-0.0994 0.624,0.02 1.438,0.2184 0.452,0.1362 0.784,0.3466 0.27,0.2608 0.272,0.5142 0.078,0.517 -0.08,0.3178 -0.512,0.8064 -1.21,1.297 -1.372,1.2844 -0.794,0.5694 -0.2,0.1186 -0.098,0.006 0.006,-0.0502 1.452,-1.1146"
     id="path1185" />
  <path
     fill="none"
     stroke="#000000"
     stroke-width="1.2"
     stroke-linecap="butt"
     stroke-linejoin="round"
     d="m 213.26879,83.935592 -0.014,-0.3626 0.096,-0.3292 2.116,0.5946 0.526,-0.0152 0.454,-0.0986"
     id="path1189" />
  <path
     fill="none"
     stroke="#000000"
     stroke-width="1.2"
     stroke-linecap="butt"
     stroke-linejoin="round"
     d="m 219.63279,80.997992 0.01,0.484 -0.266,1.0718 -0.4,1.5462 -0.624,1.9144 -0.032,0.9812 0.194,0.1384"
     id="path1193" />
  <path
     fill="none"
     stroke="#000000"
     stroke-width="1.2"
     stroke-linecap="butt"
     stroke-linejoin="round"
     d="m 220.63479,78.612592 1.196,0.1256 0.656,-0.011 1.522,-0.2328 0.362,0.0454 0.076,0.1176 -0.23,0.092 -0.032,0.085 -0.102,1.0432 0.058,3.879 -0.14,2.347 -0.308,1.8148 0.006,0.5698 -0.052,0.17 0.002,0.184 0.158,0.1706 0.048,0.194 -0.042,0.249 0.042,0.469 0.128,0.1958 -0.07,0.1834 -0.052,-0.176 -1.598,0.146 -1.486,0.361 0.04,-0.0752 0.406,-0.2068"
     id="path1197" />
  <path
     fill="none"
     stroke="#000000"
     stroke-width="1.2"
     stroke-linecap="butt"
     stroke-linejoin="round"
     d="m 63.498192,101.34339 -0.1388,0.0574 -0.1306,0.1542 -0.0154,0.3656 0.0794,0.1754 0.4562,-0.0494 0.195,-0.1276 0.025,0.0544"
     id="path1201" />
  <path
     fill="none"
     stroke="#000000"
     stroke-width="1.2"
     stroke-linecap="butt"
     stroke-linejoin="round"
     d="m 63.655392,107.94979 -0.0232,0.1824 -0.1404,0.2594 -0.0336,0.226 0.0926,-0.2154"
     id="path1205" />
  <path
     fill="none"
     stroke="#000000"
     stroke-width="1.2"
     stroke-linecap="butt"
     stroke-linejoin="round"
     d="m 63.101392,116.13259 -0.0578,-0.315 0.052,0.1484 0.0132,-0.113 0.155,-0.0878 0.1662,-0.2804 -0.3138,0.777"
     id="path1209" />
  <path
     fill="none"
     stroke="#000000"
     stroke-width="1.2"
     stroke-linecap="butt"
     stroke-linejoin="round"
     d="m 99.040392,99.605792 0.023,0.1062 -0.1922,0.719198 0.006,0.0466 0.1746,-0.0252 0.0202,0.0436 0.0564,0.4514 -0.084,0.0272 -0.0128,-0.0468"
     id="path1213" />
  <path
     fill="none"
     stroke="#000000"
     stroke-width="1.2"
     stroke-linecap="butt"
     stroke-linejoin="round"
     d="m 99.092192,107.05319 -0.0806,0.4526 0.1192,-0.175 0.2476,-0.1334 -0.1416,0.3002 -0.1044,0.0696 0.0842,-0.1516"
     id="path1217" />
  <path
     fill="none"
     stroke="#000000"
     stroke-width="1.2"
     stroke-linecap="butt"
     stroke-linejoin="round"
     d="m 98.989392,115.19519 -0.0952,0.5038 0.0752,-0.0682 -0.0514,-0.005 0.0842,0.0442 0.0748,0.7138 0.0894,-0.1552"
     id="path1221" />
  <path
     fill="none"
     stroke="#000000"
     stroke-width="1.2"
     stroke-linecap="butt"
     stroke-linejoin="round"
     d="m 138.85719,98.555392 0.1378,0.2812 0.336,-0.1258 0.0916,0.082 -0.0436,0.3478 -0.1772,0.3824 -0.218,0.2226 -0.0318,-0.0864"
     id="path1225" />
  <path
     fill="none"
     stroke="#000000"
     stroke-width="1.2"
     stroke-linecap="butt"
     stroke-linejoin="round"
     d="m 138.84659,105.12259 -0.342,1.119 0.1596,0.0422 0.0308,-0.2302 0.5612,-0.7172"
     id="path1229" />
  <path
     fill="none"
     stroke="#000000"
     stroke-width="1.2"
     stroke-linecap="butt"
     stroke-linejoin="round"
     d="m 138.50539,112.68759 0.0786,0.2806 -0.004,-0.091 0.055,0.0754 -0.0734,-0.0294 0.0948,0.087 0.0272,0.2238 -0.0808,0.1166 0.0418,0.067 -0.0834,0.4394 0.0146,0.2718 0.1068,-0.0544 0.2226,-0.311"
     id="path1233" />
  <path
     fill="none"
     stroke="#000000"
     stroke-width="1.2"
     stroke-linecap="butt"
     stroke-linejoin="round"
     d="m 165.07419,100.11099 -0.1244,0.071 0.1138,0.004 -0.0532,0.0736 0.126,-0.1206 0.1222,-0.0152"
     id="path1237" />
  <path
     fill="none"
     stroke="#000000"
     stroke-width="1.2"
     stroke-linecap="butt"
     stroke-linejoin="round"
     d="m 171.26679,106.23559 -0.0612,-0.552 0.04,0.0626 -0.0494,0.2732 0.1548,0.1712 0.1038,-0.039 -0.1128,0.06 0.006,0.1806 0.1106,0.0636"
     id="path1241" />
  <path
     fill="none"
     stroke="#000000"
     stroke-width="1.2"
     stroke-linecap="butt"
     stroke-linejoin="round"
     d="m 179.81459,113.25299 0.0596,-0.1118 0.5948,-0.3432 -0.4734,0.5944 -0.1636,0.3186 0.276,-0.3954"
     id="path1245" />
  <path
     fill="none"
     stroke="#000000"
     stroke-width="1.2"
     stroke-linecap="butt"
     stroke-linejoin="round"
     d="m 206.39479,98.391992 0.086,-0.2606 -0.108,0.1664 0.048,-0.007 0.142,-0.1842 0.366,-0.2756 -0.46,0.478 -0.222,0.3498 0.028,0.0684"
     id="path1249" />
  <path
     fill="none"
     stroke="#000000"
     stroke-width="1.2"
     stroke-linecap="butt"
     stroke-linejoin="round"
     d="m 206.58479,105.97179 -0.076,-0.1502 0.14,-0.173 -0.266,0.344 0.022,0.089 -0.122,0.037 0.336,-0.3454"
     id="path1253" />
  <path
     fill="none"
     stroke="#000000"
     stroke-width="1.2"
     stroke-linecap="butt"
     stroke-linejoin="round"
     d="m 206.38479,113.20079 -0.064,0.3374 0.09,-0.2622 -0.04,0.2194 -0.344,0.7716 0.474,-0.7902"
     id="path1257" />
  <path
     fill="none"
     stroke="#000000"
     stroke-width="1.1511"
     stroke-linecap="butt"
     stroke-linejoin="round"
     d="m 50.590592,28.781192 -0.242,-0.0878 0.0858,0.0198 0.003,-0.13 0.0666,-0.0212 0.1512,-0.3862 2.339,-3.0632 0.8196,-0.836 1.1946,-0.9236 2.2564,-2.4488 1.1384,-0.9884 0.5778,-0.3938 1.8064,-1.0658 1.6462,-0.7866 3.7496,-1.3924 2.0554,-0.8454 2.527,-0.7928 0.954,-0.2384 1.7914,-0.2606 1.7502,-0.1782 1.7228,-0.0458 6.8628,0.3148 3.3364,0.2736 1.6562,0.3004 0.7262,0.2268 2.651,1.0456 2.5242,0.8784 2.9876,0.884 3.021398,1.0194 3.5196,1.0262 1.4616,0.3424 2.1664,0.3546 3.1236,0.0224 3.8028,-0.2216 2.8964,-0.418 3.1464,-0.7038 1.9818,-0.6558 1.7992,-0.9346 1.3112,-0.998 1.4376,-1.7408 0.8208,-1.3516 0.4238,-0.3834 -0.0444,0.1652 -0.085,0.0508 0.1452,0.057 0.1238,0.1574 1.0904,1.9376 0.9694,0.9084 1.3654,0.8626 3.0326,1.6524 0.9858,0.4524 1.1144,0.3802 1.1246,0.3118 1.177,0.2048 3.2978,0.1964 4.2106,0.6684 3.8778,0.2816 7.586,0.9402 3.572,0.2452 6.0652,0.2046 9.8382,-0.0354 7.0842,-0.3898 6.2886,-0.6168 5.17,-0.6304 3.9,-0.3314 3.562,0.065 1.162,0.0928 1.118,0.1072 2.26,0.3942 1.13,0.2504 4.432,1.2176 2.324,0.8754 1.12,0.5284 1.048,0.6282 1.042,0.7598 0.956,0.935 1.456,1.8506 1.54,2.2558 0.97,1.0622 0.506,0.42 0.52,0.2988 0.562,0.2008 0.604,0.0604 1.088,-0.075"
     id="path1261" />
  <path
     fill="none"
     stroke="#000000"
     stroke-width="1.1511"
     stroke-linecap="butt"
     stroke-linejoin="round"
     d="m 122.64799,2.5239918 0.1482,0.4770001 0.2132,0.337 0.0736,-0.2152 0.198,0.9882 0.0852,1.454 -0.0742,1.823 -0.6032,3.6758001 0.0796,0.5452 0.1554,-0.2362"
     id="path1265" />
  <path
     fill="none"
     stroke="#000000"
     stroke-width="1.1511"
     stroke-linecap="butt"
     stroke-linejoin="round"
     d="m 122.39999,0.99339187 0.3,-0.418 -0.015,0.124 0.0552,0.0748 1.2088,0.31880003 1.5114,0.2254 2.8918,0.2838 0.86,0.2348 0.7652,0.2802 0.6174,0.3694 0.5242,0.426 0.4622,0.4378 0.3564,0.5068 0.227,0.5742 0.0216,0.6084 -0.1912,0.6588 -0.3536,0.748 -0.6332,0.7966 -0.8392,0.8304 -1.9138,1.8068 -0.9436,0.7700001 -0.9244,0.619 -0.8036,0.4556 -0.6192,0.234 -0.35,0.0358 -0.017,-0.0976 0.1832,-0.2352 0.7118,-0.6752"
     id="path1269" />
  <path
     fill="none"
     stroke="#000000"
     stroke-width="1.2"
     stroke-linecap="butt"
     stroke-linejoin="round"
     d="m 51.435192,83.249392 -0.1612,0.1716"
     id="path1273" />
  <path
     fill="none"
     stroke="#000000"
     stroke-width="1.2"
     stroke-linecap="butt"
     stroke-linejoin="round"
     d="m 51.311392,83.409992 -0.1368,0.1482"
     id="path1277" />
  <path
     fill="none"
     stroke="#000000"
     stroke-width="1.2"
     stroke-linecap="butt"
     stroke-linejoin="round"
     d="m 43.456192,32.606392 -0.2436,0.2708 0.0258,0.0364 0.0306,-0.1288 -0.8406,0.3244 -1.46,0.7984 -0.6364,0.504 -0.5206,0.3078 -0.6088,0.5516 -0.5556,0.3866 -0.359,0.4266 -0.775,0.7378 -1.52,2.01 -0.733,1.0918 -1.34,2.2776 -0.9632,2.2148 -0.5636,1.767 -0.3836,1.723 -0.447,2.5324 -0.24,1.879 -0.375,4.3954 0.1128,2.3304 -0.0248,1.1506 0.1092,0.4892 0.0342,0.7574 0.3416,1.526 0.3404,1.1862 0.6656,1.1204 0.3708,0.4062 0.7372,1.0288 0.895,1.423 0.3944,0.8116 0.455,0.7352 0.2924,0.3104 0.2678,0.5508 0.0446,0.831 -0.1232,0.7518 -0.386,0.8214 -0.6938,1.1206 -0.755,0.7682 -0.4518,0.2854 -0.1204,0.164 -0.8284,0.6708 -1.044,0.7192 0.1338,-0.0804 0.332,0.1642 0.2454,0.0408 1.4536,0.0818 0.9426,0.2726 0.1972,0.1104 0.1906,0.152 0.5046,0.6482 0.2276,0.8006 0.1182,1.152 -0.1102,1.1714 -0.3092,1.7788 -0.24,0.5032 -0.7276,2.0146 -0.7386,1.5704 -0.9022,2.3294 -0.5876,2.2542 -0.3848,2.2342 -0.2838,1.2048 -0.1046,2.6546 0.139,1.7906 0.1766,4.531998 0.3698,1.5852 0.5106,0.9658 0.4676,1.1142 0.1752,0.7924 0.2594,0.771 0.3118,0.7354 0.7122,1.2228 3.3276,3.9912 1.7432,1.2126 1.9912,1.2092 0.8406,0.6478 0.5004,0.5976 0.9096,0.8576 0.1454,0.0412 0.1926,-0.0928"
     id="path1281" />
  <path
     fill="none"
     stroke="#000000"
     stroke-width="1.04063"
     stroke-linecap="butt"
     stroke-linejoin="round"
     d="m 5.6371918,76.406992 -0.0424,0.2058 0.0772,0.1566 0.006,0.251 0.0354,-0.009 0.0788,-0.9542 0.0724,-0.2084 -0.0206,-0.424 0.1666,-1.571 0.0522,-1.959 0.1304,-1.1554 -0.0696,-0.194 0.1342,-0.1606 0.0192,0.1204 0.4558,0.3996 0.1808,0.2956 0.109,0.4032 0.7114,1.6402 0.2716,0.5564 0.659,0.931 0.5504,1.2116 0.3622,0.4778 0.2912,0.2256 0.4224002,0.4768 0.0342,-0.0186 -0.044,-0.2334 0.0496,-0.3988 0.1194,-5.4866 0.1504,-1.2434 2e-4,-0.347 -0.09,0.028"
     id="path1285" />
  <path
     fill="none"
     stroke="#000000"
     stroke-width="1.04063"
     stroke-linecap="butt"
     stroke-linejoin="round"
     d="m 9.2245918,81.665192 0.06,-0.1288 0.3926,-0.386 0.4686002,-0.6038 3.171,-4.431 2.1648,-3.4222 1.0676,-2.0358 0.1186,-0.4078"
     id="path1289" />
  <path
     fill="none"
     stroke="#000000"
     stroke-width="1.04063"
     stroke-linecap="butt"
     stroke-linejoin="round"
     d="m 15.441592,77.775192 -0.0384,0.8132 0.1052,1.3542 -0.0106,1.395 -0.109,1.6624 -0.1422,1.142"
     id="path1293" />
  <path
     fill="none"
     stroke="#000000"
     stroke-width="1.04063"
     stroke-linecap="butt"
     stroke-linejoin="round"
     d="m 15.528392,78.231392 -0.1266,0.3124 0.1098,-0.1808 0.3696,-0.12 1.0688,-0.5766 1.1144,-0.2558 0.7688,0.005 0.3008,0.0738 0.2384,0.1262 0.4346,0.341 0.3308,0.5114 0.0632,0.2842 -0.0606,1.0564 -0.2256,0.9514 -0.4494,1.05 -0.2968,0.5192 -0.653,0.997 -0.7118,0.853 -0.6866,0.6028 -0.3482,0.2 -0.1604,-0.1784 0.0696,-0.1448 0.2122,-0.1824"
     id="path1297" />
  <path
     fill="none"
     stroke="#000000"
     stroke-width="1.04063"
     stroke-linecap="butt"
     stroke-linejoin="round"
     d="m 0.44755182,68.842392 0.0646,-0.0662 0.16434,0.9168 0.12244,2.4278 0.25411998,2.431 0.004,1.057 -0.18769998,3.4658 0.19627998,1.4276 0.16904,0.4536 -0.0285,1.0898 0.0783,0.5874 -0.0722,1.2612 0.0881,1.1992 0.17674,0.3452 0.0105,1.862 0.0657,-0.3986"
     id="path1301" />
  <path
     fill="none"
     stroke="#000000"
     stroke-width="1.04063"
     stroke-linecap="butt"
     stroke-linejoin="round"
     d="m 1.0540118,67.531392 -0.32329998,0.2646 0.42265998,0.0552 0.86038,-0.1024 1.59008,-0.322 0.65592,-0.286 0.17328,-0.1624"
     id="path1305" />
  <path
     fill="none"
     stroke="#000000"
     stroke-width="1.04063"
     stroke-linecap="butt"
     stroke-linejoin="round"
     d="m 19.292392,66.482392 -0.1156,0.235 0.121,-0.0582 0.4724,-0.033 0.5712,-0.1572 1.04,-0.156 0.724,-0.0534 0.4706,0.0414 0.2774,0.1212 0.3862,0.0194 -0.0496,0.0728 0.0384,0.3378 0.0228,0.06 0.0196,-0.0918 0.1586,0.4626 -0.0244,-0.0976 0.0992,0.0844 -0.0202,0.3004 0.3828,1.95 0.256,1.9056 0.0602,1.2616 0.0868,0.668 -0.0166,0.992 0.1518,2.8906 0.167,1.8142 0.1818,3.74 0.218,1.3384 -0.0608,0.5946 0.0536,0.3554 -0.0342,0.1306"
     id="path1309" />
  <path
     id="path993-7"
     d="m 163.79915,44.583724 -0.0888,0.2748 -0.2124,0.2996 -0.1042,-0.0546 0.0874,-0.2034 0.5796,-0.2754"
     stroke-linejoin="round"
     stroke-linecap="butt"
     stroke-width="1.2"
     stroke="#000000"
     fill="none" />
  <path
     id="path997-1"
     d="m 168.75535,44.913724 0.0636,0.1838 0.279,0.0176 0.2996,-0.0386 0.4532,-0.1964"
     stroke-linejoin="round"
     stroke-linecap="butt"
     stroke-width="1.2"
     stroke="#000000"
     fill="none" />
  <path
     id="path1001-3"
     d="m 174.45415,44.641324 0.1178,0.0618 -0.002,0.2526 0.431,-0.1674 0.1022,-0.1344"
     stroke-linejoin="round"
     stroke-linecap="butt"
     stroke-width="1.2"
     stroke="#000000"
     fill="none" />
  <path
     id="path993-8"
     d="m 165.21099,83.268601 -0.0888,0.2748 -0.2124,0.2996 -0.1042,-0.0546 0.0874,-0.2034 0.5796,-0.2754"
     stroke-linejoin="round"
     stroke-linecap="butt"
     stroke-width="1.2"
     stroke="#000000"
     fill="none" />
  <path
     id="path997-0"
     d="m 170.16719,83.598601 0.0636,0.1838 0.279,0.0176 0.2996,-0.0386 0.4532,-0.1964"
     stroke-linejoin="round"
     stroke-linecap="butt"
     stroke-width="1.2"
     stroke="#000000"
     fill="none" />
  <path
     id="path1001-4"
     d="m 175.86599,83.326201 0.1178,0.0618 -0.002,0.2526 0.431,-0.1674 0.1022,-0.1344"
     stroke-linejoin="round"
     stroke-linecap="butt"
     stroke-width="1.2"
     stroke="#000000"
     fill="none" />
</svg>
