<?xml version="1.0" encoding="UTF-8"?>
<svg width="618.12" height="168.34" version="1.2" viewBox="0 0 618.1184 168.33871" xmlns="http://www.w3.org/2000/svg" xmlns:cc="http://creativecommons.org/ns#" xmlns:dc="http://purl.org/dc/elements/1.1/" xmlns:rdf="http://www.w3.org/1999/02/22-rdf-syntax-ns#">
<metadata>
<rdf:RDF>
<cc:Work rdf:about="">
<dc:format>image/svg+xml</dc:format>
<dc:type rdf:resource="http://purl.org/dc/dcmitype/StillImage"/>
</cc:Work>
</rdf:RDF>
</metadata>
<title>reverb</title>
<path d="m11.011 93.68 0.04596-0.09761-0.09192-1.3326 0.18384-1.0868 0.27943-1.1495 1.1784-3.4441 0.54232-2.0069 0.56989-3.7902 1.0626-6.4019 0.41915-2.1912 1.4707-6.29 1.9137-7.3351 0.99639-5.4352 0.44304-1.8369 0.58092-2.8577 1.046-4.1208 0.85851-2.6991 0.52393-1.9575 1.9284-6.3839 0.6471-2.5775 1.6784-6.0068 0.83278-2.493 0.92286-2.5012 0.92653-2.9258 0.96698-2.5513 1.2721-2.7865 1.2795-2.4009 1.1784-1.9664 1.7887-2.1636 1.4872-1.6157 0.40995-0.39842 0.78498-0.51322 1.3402-0.47423 0.40995 0.045534 0.44304 0.2703 1.1361 0.33085 0.61217 0.2996 0.94308 0.98406 0.51474 0.92715 0.67284 2.0103 0.57724 2.6557 0.61034 1.3929 0.83462 1.5983 0.54048 1.4743 1.5166 6.1911 0.55151 2.873 1.9652 11.667 0.82175 7.8507 0.35848 2.5167 1.2997 7.9028 0.61769 4.5178 0.63975 6.2362 0.64526 4.5924 1.2464 7.5191 2.2336 12.277 1.0037 4.9356 0.87322 4.7161 0.95227 4.1913 2.7796 10.528 0.9633 4.4231 1.5295 7.7061 1.2096 5.4437 0.24818 1.3464 0.57357 2.5501 0.63423 2.3348 0.83278 2.0776 2.2318 6.5208 1.6067 4.0925 2.3347 4.5652 1.2317 2.0151 0.86954 1.211 1.2501 2.0006 0.43018 0.63699 0.96146 1.0633 0.86771 0.85739 0.45959 0.35846 0.94492 0.50136 2.4671 0.87676 1.2703 0.4941 0.79969 0.39963 1.6545 0.3633 1.9156-0.13806 1.0626-0.37541 1.1729-0.66121 0.33274-0.25673 1.2299-1.3491 0.52209-0.7702 2.2336-5.4604 0.85851-2.4603 1.9523-6.4733 0.8769-3.0648 1.0589-4.0377 2.5314-12.34 0.31436-1.3268 1.4302-5.6568 0.8052-2.8415 1.7207-6.6525 1.16-4.9862 2.0369-7.9163 3.1344-12.889 1.3898-5.1896 1.2574-3.9844 0.81255-2.8548 0.83646-2.5768 1.5166-5.2013 1.2262-3.6153 0.63791-2.2975 1.0368-2.9159 1.3052-3.2767 1.9818-4.1378 0.95043-1.7509 0.9633-1.5879 1.3843-1.9006 3.5445-3.7703 0.46345-0.40835 0.46823-0.29718 1.4543-0.63045 3.0526-0.65515 1.5442-0.0109 0.89675 0.2439 0.82267 0.41852 0.39671 0.35022 0.9622 1.0947 1.0495 1.5002 1.9044 3.2855 0.6517 1.3677 1.2345 3.8185 0.68957 2.6136 1.0593 3.518 1.6812 7.3094 1.1188 4.3138 0.95742 4.2136 1.4916 5.9802 1.138 3.9462 1.6102 4.7566 1.1008 4.0893 0.95283 4.0699 1.6065 5.7017 1.6624 4.487 0.68608 2.7977 0.48183 1.6378 1.0313 2.749 0.9611 1.8703 0.95999 1.4929 1.8203 2.4252 0.97341 0.79999 0.71144 0.31002 0.75373 0.0366 0.79123-0.13684 0.4254-0.0857 0.88553-0.36766 1.0661-0.86587 0.88498-1.1832 1.5326-3.0089 1.7538-4.264 0.30314-0.62463 0.68663-1.1328 0.27814-0.63239 0.70924-2.0149 0.34635-1.2454 0.66162-3.7328 0.55408-1.9584 0.66089-1.909 0.75888-1.6668 0.6914-1.7141 0.52963-1.6528 1.1652-2.7148 0.9484-1.7305 1.4457-1.5155 1.0914-0.79127 1.331-0.76196 0.78664-0.17753 0.80722 0.1366 0.76402 0.26957 1.2367 0.62004 1.5826 1.3573 1.2135 1.3745 1.0688 1.7962 2.4919 5.3272 0.76311 2.3336 0.87818 1.5813 0.49011 0.62875 2.5551 2.5487 0.52779 0.36766 1.4054 0.62052 1.121 0.33012 0.55132 0.0344 1.094 0.23759 0.30756 0.015 0.59949-0.22282 1.4786-0.30397 1.305-0.40665 1.1306-0.47326 0.77946-0.49506 0.88738-0.75955 1.4663-0.92182 2.124-1.9308 0.53919-0.58685 0.55886-0.4488 0.90925-0.58395 1.379-0.75373 1.8832-0.5309 1.3659-0.63554 0.78204-0.24704 0.59489 0.06903 1.0993 0.48343 1.3933 0.2468 1.852 0.53502 0.57467 0.02422 1.1442 0.51734 0.64085 0.02834 1.5343-0.18819 1.306-0.05401 0.90135-0.17148 1.0438-0.35337 0.47172-0.06782 1.2887 0.01187 1.2997-0.27393 0.61291-0.0511 0.85429 0.09954 0.92359-8e-3 1.7676-0.22234 1.3433 0.14726 1.8602-0.24414 0.34249 0.01986 0.85612 0.25552 0.51695-0.0419 0.75078 0.10439 0.53699 0.23421 0.79968 0.03439 0.50114-0.04432 1.786-0.43887 0.69766 0.20296 0.41106-0.02688 0.71732 0.12691 0.90742 0.01623 2.5261-0.58274 2.275 0.21919 1.392-0.15016 1.1742 0.05692 1.7374-0.14774 1.4905 0.09083 1.2832-0.12207 1.8418 0.13442 0.63497-0.02519 1.2745 0.20418 1.6479 0.14169 0.88738-0.07532 1.8821 0.02446 1.1462 0.2485 1.562 0.19255 2.2042-0.3214 1.0212 0.03027 0.37852 0.04723 1.1492 0.40932 0.77431 0.09906 1.1837-0.01017 0.41437 0.13176 0.35094-0.02979 0.47999 0.31462 0.505 0.1567 0.77928 0.05135 1.6718-0.0574 0.61788 0.09955 0.35958 0.13999 1.1267 0.01332 1.0161-0.18916 0.51823-0.01356 1.506 0.26594 2.2428-0.30638 1.7133 0.16397 0.98976-0.08356 1.6827 0.05256 0.60043 0.09979 0.33478 0.22791 0.35089 0.06564 0.96637-0.03827 1.1553-0.15331 1.8874 0.17075 0.76323-0.18407 1.1745-0.48077 0.38769-0.05183 0.68854 0.06297 0.37646-0.10487 0.0865-0.37517 0.0884-0.12304 0.32979 0.45074" fill="none" stroke="#9ed2f1" stroke-linejoin="round" stroke-width="2"/>
<ellipse cx="28.319" cy="21.923" rx="3.0314" ry="3.0314" fill="#249bdf" stroke="#000" stroke-width="1.9371"/>
<path d="m28.196 25.234v68.298" fill="none" stroke="#000" stroke-width="2"/>
<path d="m164.53 93.029 0.046-0.05468-0.092-0.74652 0.18404-0.60881 0.27975-0.64395 1.1797-1.9294 0.54292-1.1243 0.57053-2.1233 1.0638-3.5864 0.41961-1.2275 1.4723-3.5237 1.9159-4.1091 0.9975-3.0448 0.44354-1.029 0.58157-1.6009 1.0472-2.3085 0.85946-1.512 0.52452-1.0966 1.9306-3.5763 0.64782-1.4439 1.6803-3.3651 0.8337-1.3966 0.92389-1.4012 0.92756-1.639 0.96805-1.4293 1.2736-1.561 1.2809-1.345 1.1797-1.1016 1.7907-1.212 1.4889-0.90514 0.41039-0.2232 0.78586-0.28751 1.3416-0.26567 0.41042 0.02551 0.44353 0.15142 1.1374 0.18534 0.61285 0.16784 0.94412 0.55128 0.51532 0.51939 0.67359 1.1262 0.57788 1.4878 0.61102 0.78031 0.83553 0.89537 0.54109 0.8259 1.5183 3.4683 0.55212 1.6095 1.9674 6.5357 0.82266 4.398 0.35888 1.4099 1.3012 4.4272 0.61838 2.5309 0.64046 3.4935 0.64598 2.5727 1.2478 4.2123 2.2361 6.8775 1.0049 2.7649 0.87419 2.642 0.95334 2.348 2.7827 5.8977 0.96437 2.4778 1.5312 4.317 1.211 3.0496 0.24845 0.75425 0.5742 1.4286 0.63495 1.308 0.83369 1.1639 2.2342 3.653 1.6085 2.2926 2.3373 2.5575 1.2331 1.1289 0.8705 0.67842 1.2515 1.1207 0.43065 0.35684 0.96253 0.59565 0.86868 0.48031 0.4601 0.20082 0.94597 0.28085 2.4698 0.49118 1.2717 0.27679 0.80058 0.22388 1.6564 0.20352 1.9177-0.0773 1.0638-0.21031 1.1742-0.37042 0.33311-0.14382 1.2312-0.75575 0.52268-0.43146 2.2361-3.059 0.85947-1.3783 1.9545-3.6264 0.87787-1.7169 1.0601-2.262 2.5342-6.9129 0.31471-0.74327 1.4318-3.169 0.8061-1.5918 1.7226-3.7268 1.1613-2.7933 2.0392-4.4348 3.1379-7.2203 1.3914-2.9073 1.2588-2.2321 0.81346-1.5993 0.83738-1.4435 1.5183-2.9138 1.2276-2.0253 0.63861-1.2871 1.038-1.6335 1.3067-1.8356 1.984-2.318 0.95149-0.98085 0.96437-0.88953 1.3858-1.0647 3.5485-2.1122 0.46396-0.22876 0.46875-0.16648 1.4559-0.35318 3.056-0.36702 1.5459-0.0061 0.89775 0.13663 0.82359 0.23446 0.39715 0.1962 0.96327 0.61328 1.0507 0.84042 1.9065 1.8405 0.65243 0.7662 1.2358 2.1392 0.69033 1.4641 1.0604 1.9708 1.683 4.0948 1.1201 2.4166 0.95848 2.3605 1.4933 3.3501 1.1392 2.2107 1.612 2.6647 1.102 2.2909 0.95388 2.28 1.6083 3.1941 1.6643 2.5137 0.68685 1.5673 0.48236 0.91749 1.0325 1.54 0.96217 1.0477 0.96105 0.83634 1.8224 1.3586 0.9745 0.44815 0.71224 0.17368 0.75456 0.0205 0.79211-0.0767 0.42588-0.048 0.8865-0.20597 1.0673-0.48507 0.88597-0.6628 1.5343-1.6856 1.7558-2.3887 0.30348-0.34992 0.6874-0.6346 0.27845-0.35425 0.71002-1.1288 0.34674-0.69767 0.66235-2.0911 0.5547-1.0971 0.66163-1.0694 0.75972-0.93376 0.69217-0.96022 0.53022-0.9259 1.1664-1.5209 0.94945-0.96945 1.4473-0.84896 1.0926-0.44327 1.3324-0.42686 0.78752-0.09946 0.80812 0.07652 0.76487 0.15102 1.238 0.34735 1.5844 0.76036 1.2148 0.77 1.07 1.0062 2.4947 2.9843 0.76396 1.3073 0.87916 0.88587 0.49065 0.35223 2.558 1.4278 0.52837 0.20596 1.407 0.34762 1.1223 0.18494 0.55194 0.01927 1.0952 0.1331 0.3079 0.0084 0.60016-0.12482 1.4802-0.17028 1.3065-0.22781 1.1318-0.26512 0.78033-0.27734 0.88836-0.4255 1.4679-0.51641 2.1264-1.0817 0.53979-0.32876 0.55948-0.25142 0.91027-0.32713 1.3805-0.42224 1.8853-0.29742 1.3674-0.35603 0.78292-0.1384 0.59554 0.03867 1.1006 0.27082 1.3948 0.13826 1.854 0.29972 0.5753 0.01357 1.1455 0.28982 0.64156 0.01588 1.536-0.10542 1.3074-0.03026 0.90236-0.09606 1.045-0.19796 0.47225-0.03799 1.2901 0.0067 1.3012-0.15346 0.61359-0.02862 0.85524 0.05577 0.92461-0.0045 1.7696-0.12456 1.3448 0.08249 1.8623-0.13677 0.34287 0.01113 0.85707 0.14314 0.51753-0.02348 0.75161 0.05848 0.53759 0.1312 0.80056 0.01926 0.5017-0.02483 1.788-0.24586 0.69844 0.1137 0.41151-0.01506 0.71812 0.0711 0.90843 0.0091 2.5289-0.32645 2.2775 0.12279 1.3936-0.08412 1.1755 0.03189 1.7394-0.08277 1.4922 0.05088 1.2846-0.06839 1.8439 0.0753 0.63568-0.01411 1.276 0.11438 1.6497 0.07937 0.88837-0.04219 1.8842 0.0137 1.1475 0.13921 1.5638 0.10787 2.2066-0.18005 1.0224 0.01696 0.37894 0.02646 1.1504 0.2293 0.77517 0.05549 1.185-0.0057 0.41483 0.07381 0.35133-0.01669 0.48052 0.17625 0.50556 0.08779 0.78015 0.02877 1.6737-0.03216 0.61856 0.05576 0.35999 0.07842 1.128 0.0075 1.0172-0.10597 0.51881-0.0076 1.5076 0.14898 2.2453-0.17164 1.7152 0.09186 0.99087-0.04681 1.6846 0.02945 0.60109 0.0559 0.33515 0.12768 0.35129 0.03677 0.96744-0.02144 1.1566-0.08589 1.8895 0.09566 0.76408-0.10312 1.1758-0.26933 0.38812-0.02904 0.6893 0.03528 0.37689-0.05875 0.0866-0.21017 0.0885-0.06892 0.33016 0.2525" fill="none" stroke="#fea1a1" stroke-linejoin="round" stroke-width="2"/>
<ellipse cx="182.2" cy="51.919" rx="3.0314" ry="3.0314" fill="#ed0404" stroke="#000" stroke-width="1.9371"/>
<path d="m182.08 55.409v38.121" fill="none" stroke="#000" stroke-width="2"/>
<path d="m318.08 94.393 0.046-0.03059-0.0919-0.41764 0.18419-0.34059 0.27995-0.36025 1.1806-1.0794 0.54333-0.62896 0.57095-1.1879 1.0646-2.0064 0.41992-0.68672 1.4734-1.9713 1.9173-2.2988 0.99824-1.7034 0.44387-0.57567 0.582-0.89562 1.048-1.2915 0.86009-0.8459 0.52491-0.61348 1.932-2.0007 0.64829-0.8078 1.6815-1.8826 0.83434-0.7813 0.92456-0.78388 0.92826-0.91695 0.96876-0.7996 1.2745-0.8733 1.2819-0.75246 1.1806-0.61628 1.792-0.67807 1.49-0.50637 0.41071-0.12487 0.78644-0.16085 1.3427-0.14862 0.41071 0.01427 0.44386 0.08471 1.1382 0.10369 0.6133 0.0939 0.94483 0.30841 0.5157 0.29057 0.67408 0.63002 0.57832 0.83231 0.61148 0.43654 0.83615 0.50091 0.54149 0.46204 1.5194 1.9403 0.55254 0.9004 1.9689 3.6563 0.82326 2.4604 0.35916 0.78874 1.3021 2.4767 0.61884 1.4159 0.64093 1.9544 0.64646 1.4393 1.2487 2.3565 2.2378 3.8475 1.0056 1.5468 0.87483 1.478 0.95405 1.3136 2.7848 3.2994 0.96509 1.3862 1.5324 2.4151 1.2119 1.7061 0.24863 0.42196 0.57463 0.79923 0.63541 0.73173 0.83432 0.65113 2.2359 2.0436 1.6097 1.2826 2.339 1.4308 1.234 0.63155 0.87116 0.37953 1.2524 0.62699 0.43098 0.19963 0.96324 0.33323 0.86931 0.26871 0.46045 0.11234 0.94668 0.15713 2.4716 0.27478 1.2727 0.15485 0.80118 0.12525 1.6576 0.11385 1.9191-0.0432 1.0646-0.11765 1.175-0.20723 0.33337-0.0805 1.2321-0.4228 0.52308-0.24138 2.2378-1.7113 0.8601-0.77106 1.956-2.0288 0.87854-0.96051 1.0608-1.2654 2.5361-3.8674 0.31496-0.41582 1.4329-1.7729 0.8067-0.89053 1.7239-2.0849 1.1622-1.5627 2.0407-2.481 3.1402-4.0394 1.3924-1.6264 1.2598-1.2487 0.81407-0.89471 0.83802-0.80757 1.5194-1.6301 1.2285-1.1331 0.6391-0.72005 1.0388-0.91384 1.3077-1.0269 1.9854-1.2968 0.95219-0.54873 0.9651-0.49764 1.3868-0.59564 3.5511-1.1816 0.46431-0.12798 0.4691-0.09314 1.457-0.19758 3.0583-0.20533 1.5471-0.0034 0.89842 0.07644 0.82419 0.13117 0.39744 0.10976 0.96399 0.3431 1.0515 0.47016 1.9079 1.0297 0.65291 0.42864 1.2368 1.1967 0.69085 0.8191 1.0612 1.1025 1.6843 2.2908 1.1209 1.352 0.9592 1.3205 1.4944 1.8742 1.1401 1.2367 1.6132 1.4907 1.1028 1.2816 0.9546 1.2755 1.6095 1.7869 1.6655 1.4062 0.68734 0.8768 0.48273 0.51328 1.0332 0.86154 0.9629 0.58614 0.96177 0.46789 1.8237 0.76005 0.97522 0.25071 0.71275 0.0972 0.75514 0.0114 0.7927-0.0429 0.42619-0.0268 0.88717-0.11522 1.068-0.27136 0.88662-0.37081 1.5355-0.94298 1.757-1.3363 0.3037-0.19576 0.68791-0.35502 0.27865-0.19819 0.71056-0.63146 0.34699-0.39031 0.66284-1.1699 0.55512-0.61378 0.66212-0.59829 0.76028-0.52239 0.69268-0.53719 0.53062-0.51798 1.1673-0.85084 0.95015-0.54235 1.4484-0.47495 1.0935-0.24799 1.3334-0.2388 0.78811-0.05564 0.80872 0.04281 0.76544 0.08448 1.239 0.19432 1.5856 0.42538 1.2157 0.43077 1.0708 0.56292 2.4965 1.6696 0.76451 0.73136 0.87982 0.49559 0.49101 0.19705 2.5599 0.79876 0.52877 0.11522 1.408 0.19447 1.1231 0.10346 0.55234 0.01078 1.096 0.07447 0.30814 0.0047 0.60059-0.06983 1.4813-0.09526 1.3075-0.12745 1.1327-0.14832 0.7809-0.15515 0.88903-0.23804 1.469-0.2889 2.128-0.60513 0.54018-0.18392 0.55991-0.14066 0.91093-0.18301 1.3815-0.23622 1.8867-0.16639 1.3684-0.19918 0.78349-0.07743 0.59599 0.02163 1.1014 0.15151 1.3959 0.07735 1.8554 0.16768 0.57573 0.0076 1.1463 0.16214 0.64204 0.0089 1.5372-0.05898 1.3084-0.01693 0.90302-0.05374 1.0458-0.11075 0.4726-0.02125 1.2911 0.0037 1.3021-0.08585 0.61404-0.01602 0.85589 0.03119 0.92529-0.0025 1.7709-0.06968 1.3458 0.04615 1.8637-0.07651 0.34313 0.0062 0.85771 0.08008 0.51791-0.01314 0.75217 0.03272 0.53798 0.07341 0.80116 0.01078 0.50208-0.0139 1.7893-0.13754 0.69895 0.06361 0.41183-0.0084 0.71866 0.03978 0.9091 0.0051 2.5308-0.18263 2.2792 0.06869 1.3946-0.04706 1.1764 0.01784 1.7406-0.0463 1.4933 0.02846 1.2856-0.03825 1.8453 0.04212 0.63614-0.0079 1.2769 0.06399 1.651 0.0444 0.88902-0.0236 1.8856 0.0077 1.1483 0.07788 1.565 0.06035 2.2083-0.10073 1.0231 0.0095 0.37922 0.01481 1.1513 0.12828 0.77575 0.03104 1.1859-0.0032 0.41515 0.04129 0.35158-0.0093 0.48089 0.0986 0.50594 0.04912 0.78072 0.01609 1.6749-0.01799 0.61903 0.0312 0.36025 0.04387 1.1288 0.0042 1.018-0.05929 0.51918-0.0043 1.5088 0.08335 2.247-0.09602 1.7165 0.05139 0.99161-0.02619 1.6858 0.01647 0.60156 0.03127 0.33539 0.07143 0.35155 0.02058 0.96816-0.01199 0.18966-0.0079" fill="none" stroke="#cea3fe" stroke-width="2"/>
<ellipse cx="335.13" cy="71.936" rx="3.0314" ry="3.0314" fill="#7304ed" stroke="#000" stroke-width="1.9371"/>
<path d="m335 75.248v19.399" fill="none" stroke="#000" stroke-width="2"/>
<path d="m471.57 94.913 0.046-0.01708-0.0919-0.23322 0.18428-0.1902 0.28009-0.20117 1.1812-0.60276 0.5436-0.35123 0.57124-0.66333 1.0651-1.1204 0.42013-0.38349 1.4742-1.1008 1.9183-1.2837 0.99876-0.95123 0.4441-0.32147 0.58231-0.50014 1.0485-0.72119 0.86057-0.47238 0.52516-0.34258 1.933-1.1173 0.64863-0.4511 1.6824-1.0513 0.83475-0.4363 0.92506-0.43774 0.92874-0.51205 0.96926-0.44652 1.2752-0.48768 1.2825-0.42019 1.1812-0.34415 1.793-0.37865 1.4908-0.28277 0.41094-0.06972 0.78685-0.08982 1.3433-0.08299 0.41093 8e-3 0.4441 0.0473 1.1388 0.0579 0.61362 0.05244 0.94533 0.17222 0.51596 0.16226 0.67444 0.35182 0.57861 0.46479 0.61182 0.24378 0.83657 0.27972 0.54178 0.25802 1.5202 1.0835 0.55283 0.50281 1.9699 2.0418 0.82372 1.374 0.35932 0.44046 1.3028 1.3831 0.61915 0.79067 0.64129 1.0914 0.64679 0.80372 1.2494 1.3159 2.2389 2.1486 1.0061 0.86378 0.87531 0.82538 0.95453 0.73353 2.7862 1.8425 0.96558 0.77409 1.5332 1.3487 1.2125 0.95272 0.24878 0.23564 0.57493 0.4463 0.63574 0.40862 0.83473 0.36361 2.2371 1.1412 1.6106 0.71624 2.3403 0.79897 1.2346 0.35267 0.8716 0.21194 1.2531 0.35013 0.43119 0.11148 0.96375 0.18608 0.86977 0.15006 0.46068 0.0628 0.94719 0.0877 2.4729 0.15345 1.2733 0.0865 0.80159 0.0699 1.6585 0.0636 1.9201-0.0241 1.0651-0.0657 1.1757-0.11572 0.33352-0.045 1.2328-0.2361 0.52335-0.13479 2.2389-0.95564 0.86057-0.43058 1.957-1.1329 0.87898-0.53637 1.0614-0.70666 2.5374-2.1596 0.3151-0.2322 1.4337-0.99001 0.80711-0.4973 1.7248-1.1643 1.1628-0.87264 2.0418-1.3855 3.1418-2.2557 1.3931-0.90825 1.2604-0.69733 0.81447-0.49963 0.83846-0.45097 1.5203-0.91029 1.2291-0.63273 0.63943-0.4021 1.0393-0.51031 1.3083-0.57347 1.9865-0.72416 0.9527-0.30642 0.96558-0.2779 1.3876-0.33262 3.553-0.65986 0.46457-0.07147 0.46933-0.05201 1.4578-0.11034 3.0599-0.11466 1.5479-0.0019 0.89887 0.04269 0.82463 0.07324 0.39766 0.06129 0.96448 0.1916 1.052 0.26255 1.9089 0.575 0.65326 0.23937 1.2374 0.66829 0.69122 0.45741 1.0618 0.61569 1.6852 1.2792 1.1215 0.75498 0.9597 0.73743 0.39042 0.2733" fill="none" stroke="#faea7a" stroke-width="2"/>
<ellipse cx="490.53" cy="81.577" rx="3.0314" ry="3.0314" fill="#f8dd2c" stroke="#000" stroke-width="1.9371"/>
<path d="m490.41 85.167v9.6193" fill="none" stroke="#000" stroke-width="2.1274"/>
<path d="m2.8176 94.18-0.75025 0.29361-0.95909 0.22017-0.10828-0.19584 0.18563-0.06041 0.75799-0.10603 1.2375-0.0744 13.447-0.08091 27.214 0.13401 9.6682-0.04674 18.343 0.03768 8.0788-0.07408 49.435 0.08409 9.1693-0.05484 15.04 0.07185 35.142-0.07456 8.9953 0.07948 34.987 0.10364 27.454-0.02241 18.524-0.11398 12.92 0.03593 24.689-0.07233 5.7456 0.10524 5.5948 0.03291 5.5627-0.09856 5.7012-0.02782 33.16 0.07805 10.303-0.03879 5.217 0.15261 5.3028 0.01605 5.4749-0.17407 5.7325-0.05898 25.552-0.0073 44.321 0.36912 5.1477-0.01065 9.314-0.19823 3.9609-0.03402 3.7474-0.18949 3.7265-0.04006 3.3885 0.21238 3.2137 0.04976 12.252 0.03402 6.3056 0.07535 10.018-0.12161 11.997 0.12081 6.0654 6.36e-4 3.2002 0.13385 3.3556 0.01129 3.2272-0.14577 12.366-0.03577 5.4668-0.10126 2.5454 0.09379 4.3793 0.04594 3.4639-0.07535 3.2068 0.05166 5.6691-0.07138 12.539-0.02321 3.0807-0.15356 0.25563 0.01733-0.309 0.05214-0.38905-0.02114 0.39408 0.05087 1.7341-0.04483" fill="none" stroke="#000" stroke-linejoin="round" stroke-width="2"/>
<path d="m10.464 0.95558-0.34688 0.10699 0.02753 0.040575 0.12664-0.088045-0.04992 0.084909 0.14817 1.0874-0.10796 2.1072 0.10515 3.742-0.02383 15.571 0.18302 3.3325-0.02623 24.243 0.12432 10.514-0.06944 3.5763-0.05316 13.015 0.09083 7.6231 0.113 3.7545-0.01815 16.048 0.13948 5.4478-0.0081 7.1706-0.12797 8.1302 0.08993 6.9912-0.02364 9.8697 0.10844 4.8086-0.0097 5.8949 0.04401 2.2974 0.07862 1.0279-0.04191 2.7061 0.05772 0.61357-0.02943 0.9773 0.05026-0.10401-0.07156 0.16733-0.05315 0.72212 0.1299 0.52494 0.10572 1.0921-0.09904 1.1484 0.05192 1.2822-0.0074 0.0748-0.06186-0.0386-0.01832 0.12331-0.0044 0.70238 7e-3 -0.16472-0.08481 4e-3" fill="none" stroke="#000" stroke-linejoin="round" stroke-width="2"/>
</svg>
