<?xml version="1.0" encoding="UTF-8" standalone="no"?>
<svg
   xmlns:dc="http://purl.org/dc/elements/1.1/"
   xmlns:cc="http://creativecommons.org/ns#"
   xmlns:rdf="http://www.w3.org/1999/02/22-rdf-syntax-ns#"
   xmlns:svg="http://www.w3.org/2000/svg"
   xmlns="http://www.w3.org/2000/svg"
   xmlns:sodipodi="http://sodipodi.sourceforge.net/DTD/sodipodi-0.dtd"
   xmlns:inkscape="http://www.inkscape.org/namespaces/inkscape"
   width="311.17697"
   height="133.14166"
   viewBox="0 0 311.17697 133.14167"
   version="1.2"
   id="svg46"
   sodipodi:docname="reverb - page 7 delay.svg"
   inkscape:version="1.0 (4035a4f, 2020-05-01)">
  <metadata
     id="metadata52">
    <rdf:RDF>
      <cc:Work
         rdf:about="">
        <dc:format>image/svg+xml</dc:format>
        <dc:type
           rdf:resource="http://purl.org/dc/dcmitype/StillImage" />
      </cc:Work>
    </rdf:RDF>
  </metadata>
  <defs
     id="defs50" />
  <sodipodi:namedview
     inkscape:document-rotation="0"
     pagecolor="#ffffff"
     bordercolor="#666666"
     borderopacity="1"
     objecttolerance="10"
     gridtolerance="10"
     guidetolerance="10"
     inkscape:pageopacity="0"
     inkscape:pageshadow="2"
     inkscape:window-width="1440"
     inkscape:window-height="900"
     id="namedview48"
     showgrid="false"
     inkscape:snap-global="false"
     inkscape:zoom="2.3539627"
     inkscape:cx="153.21581"
     inkscape:cy="53.74657"
     inkscape:window-x="1080"
     inkscape:window-y="433"
     inkscape:window-maximized="0"
     inkscape:current-layer="svg46" />
  <title
     id="title10">reverb</title>
  <path
     id="path30"
     d="m 4.1825253,96.004252 c 0,0 0,0 0,0 0.116,0.1596 0.186,0.3668 0.348,0.479 0.09,0.063 0.232,0.0396 0.332,-0.009 0.14,-0.0682 0.304,-0.1676 0.338,-0.319 0.378,-1.6792 0.534,-3.4016 0.876,-5.0882 0.152,-0.7528 0.38,-1.4894 0.6080004,-2.2226 0.3760002,-1.2054 0.7720002,-2.4058 1.2060002,-3.5912 0.49,-1.3312 1.106,-2.6148 1.566,-3.9558 0.7940001,-2.3084 1.4460001,-4.6632 2.1980001,-6.9858 0.526,-1.6258 1.066,-3.2478 1.636,-4.858402 0.164,-0.4572 0.356,-0.904 0.564,-1.342 0.568,-1.1952 1.214,-2.3532 1.766,-3.5562 0.528,-1.1508 0.962,-2.3422 1.472,-3.5012 0.224,-0.51 0.544,-0.9784 0.728,-1.5038 1.006,-2.8594 1.868,-5.7672 2.836,-8.639 0.188,-0.5608 0.406,-1.112 0.636,-1.6572 0.65,-1.5408 1.31,-3.0774 2,-4.6 0.686,-1.5108 1.442,-2.988 2.128,-4.4988 0.358,-0.7894 0.688,-1.5914 1.002,-2.3996 0.576,-1.4908 1.072,-3.0132 1.668,-4.496 0.76,-1.8854 1.574,-3.7492 2.402,-5.6056 0.242,-0.5418 0.52,-1.0674 0.806,-1.5866 0.45,-0.8102 0.908,-1.6162 1.4,-2.3998 0.642,-1.0174 1.314,-2.0142 2.002,-3.001 0.38,-0.5474 0.78,-1.0812 1.2,-1.6 0.152,-0.1904 0.36,-0.333 0.514,-0.524 0.114,-0.1446 0.158,-0.3418 0.286,-0.476 1.092,-1.1502 2.212,-2.2734 3.362,-3.3666 0.152,-0.145 0.374,-0.1998 0.532,-0.3384 0.396,-0.3478 0.728,-0.7662 1.124,-1.114 0.158,-0.1386 0.37,-0.2038 0.532,-0.3384 0.242,-0.2006 0.416,-0.4756 0.668,-0.6616 0.522,-0.3856 1.074,-0.736 1.646,-1.0442 0.738,-0.3986 1.474,-0.8384 2.28,-1.072 0.456,-0.1320005 0.954,-0.0624 1.424,-6e-4 0.476,0.0626 0.918,0.2894 1.39,0.371 0.198,0.0342 0.406,0.0116 0.604,-0.0268 0.14,-0.0272 0.252,-0.1572 0.394,-0.1674 0.536,-0.0384 1.082,-0.0652 1.612,0.0232 0.928,0.155 1.838,0.4196 2.736,0.702 0.664,0.2092 1.31,0.4838 1.946,0.7698 0.562,0.2526 1.112,0.531 1.642,0.8444 0.288,0.1698 0.552,0.3804 0.802,0.6006 0.326,0.2858 0.596,0.632 0.924,0.914 0.14,0.1204 0.338,0.163 0.476,0.286 0.464,0.413 0.86,0.9006 1.324,1.314 0.158,0.1398 0.376,0.1978 0.532,0.3384 0.494,0.4444 0.918,0.9648 1.412,1.4092 0.156,0.1406 0.374,0.2 0.532,0.3384 0.362,0.3164 0.722,0.6422 1.02,1.019 0.71,0.899999 1.398,1.824 2,2.800799 0.682,1.1068 1.238,2.2856 1.842,3.4368 0.198,0.3798 0.412,0.755 0.566,1.1552 0.724,1.8836 1.336,3.8102 2.068,5.690401 0.334,0.8528 0.782,1.6574 1.13,2.503999 0.62,1.5086 1.25,3.0162 1.78,4.559401 0.558,1.6296 0.966,3.307999 1.484,4.951 0.5,1.5854 1.022,3.1646 1.572,4.7334 0.852,2.428799 1.732,4.847799 2.634,7.2582 0.298,0.7946 0.7,1.55 0.966,2.3554 1.58,4.762 3.12,9.538 4.572,14.339802 0.49,1.6158 0.804,3.2804 1.256,4.9072 0.168,0.6094 0.37,1.2108 0.606,1.7976 0.74403,1.8464 1.61403,3.6412 2.33203,5.4978 1.55,4.0096 2.89,8.098 4.468,12.096204 0.384,0.9694 0.898,1.8834 1.408,2.792 1.02599,1.823404 2.10599,3.616604 3.19999,5.399804 0.706004,1.1508 1.452004,2.2776 2.202004,3.401 0.184,0.2774 0.382,0.5476 0.6,0.8 0.22,0.2568 0.496,0.4642 0.714,0.724 0.134,0.1612 0.196,0.376 0.338,0.5324 0.43,0.4782 0.89,0.9306 1.366,1.3626 0.212,0.1922 0.514,0.2822 0.696,0.505 0.954,1.18 1.69,2.531 2.686,3.676 1.226,1.41 2.588,2.6988 3.962,3.9666 0.372,0.3434 0.818,0.6004 1.256,0.8528 0.664,0.3812 1.348,0.7284 2.044,1.0446 1.368,0.62 2.742,1.2248 4.142,1.763 0.768,0.2946 1.54,0.6206 2.354,0.7322 0.928,0.1274 1.898,0.1934 2.81,-0.0238 2.104,-0.5012 4.112,-1.3508 6.138,-2.1082 1.286,-0.4804 2.548,-1.0276 3.794,-1.6026 0.352,-0.1626 0.676,-0.384 0.994,-0.6056 0.548,-0.3808 1.082,-0.7814 1.6,-1.2 0.19,-0.1536 0.332,-0.3612 0.524,-0.514 0.144,-0.1156 0.342,-0.1594 0.476,-0.286 0.914,-0.8576 1.802,-1.7442 2.662,-2.6566 0.194,-0.2072 0.298,-0.4898 0.496,-0.6948 1.5238,-1.5848 3.2158,-3.0104 4.661,-4.6676 0.851,-0.9758 1.494,-2.116 2.2004,-3.201 1.1608,-1.7824 2.3366,-3.5578 3.4,-5.3998 1.2998,-2.251804 2.4308,-4.597204 3.6852,-6.874408 0.627,-1.1378 1.3356,-2.2298 1.9586,-3.3698 0.418,-0.765 0.8182,-1.5418 1.1626,-2.3424 1.068,-2.4822 1.982,-5.0294 3.073,-7.5016 0.3898,-0.8838 0.9522,-1.6828 1.3652,-2.5558 0.8972,-1.8964 1.7626,-3.809 2.5632,-5.748 0.4664,-1.1296 0.8556,-2.2902 1.2358,-3.4518 0.4316,-1.318602 0.7694,-2.666802 1.1986,-3.986402 0.183,-0.563 0.4028,-1.1138 0.6366,-1.6576 1.1788,-2.7426 2.3702,-5.48 3.6,-8.2 0.413,-0.9134 0.9208,-1.7822 1.3274,-2.6986 0.8654,-1.9496 1.5542,-3.978 2.487,-5.8962 1.0294,-2.1164 2.225,-4.148 3.392,-6.1916 0.4312,-0.7552 0.912,-1.4816 1.4004,-2.201 0.0846,-0.1244 0.2252,-0.2028 0.314,-0.324 0.6454,-0.88 1.1994,-1.8278 1.886,-2.676 0.4506,-0.5566 1.0514,-0.9774 1.514,-1.524 0.2748,-0.3248 0.4386,-0.73 0.686,-1.076 0.5818,-0.8134 1.1794,-1.6158 1.8,-2.4 0.1518,-0.1918 0.3612,-0.333 0.514,-0.524 0.1156,-0.1446 0.1676,-0.3338 0.286,-0.476 0.217,-0.2604 0.497,-0.4636 0.714,-0.724 0.1186,-0.1422 0.1656,-0.3354 0.286,-0.476 0.282,-0.329 0.632,-0.595 0.914,-0.924 0.1206,-0.1406 0.1622,-0.3384 0.286,-0.476 0.479,-0.5322 1.0348,-0.992 1.514,-1.524 0.1408,-0.1562 0.1948,-0.379 0.3384,-0.5324 0.8088,-0.8638 1.6464,-1.7016 2.5102,-2.5102 0.172,-0.161 0.4162,-0.2304 0.589,-0.3908 0.7822,-0.7264 1.4642,-1.5584 2.2674,-2.2616 0.8226,-0.7202 1.7156,-1.3568 2.6,-2 1.3166,-0.9574 2.6402,-1.9066 4.001,-2.8004 0.5726,-0.3762 1.1808,-0.6974 1.7932,-1.0052 0.8526,-0.4286 1.6996,-0.8814 2.5982,-1.2024 2.0738,-0.7404 4.1834,-1.3806 6.3032,-1.976 0.8612,-0.2418 1.7448,-0.4046 2.63,-0.5328 0.3996,-0.058 0.8104,-0.0728 1.2112,-0.0234 0.4782,0.059 0.9452,0.1974 1.4038,0.346 1.3254,0.4294 2.656,0.8524 3.943,1.3862 0.9624,0.3994 1.8816,0.899 2.7912,1.4074 0.2914,0.1628 0.5502,0.3806 0.8012,0.6006 0.2904,0.2544 0.5646,0.5286 0.819,0.819 0.22,0.251 0.4258,0.517 0.6008,0.8012 0.8926,1.4508 1.752,2.922 2.5996,4.3996 0.767,1.3372 1.5306,2.6772 2.2436,4.0438 0.3014,0.5782 0.5118,1.2002 0.797,1.7866 0.5956,1.2242 1.1706,2.4612 1.8446,3.644 1.182,2.0736 2.5782,4.0224 3.7198,6.1186 0.383,0.7032 0.5936,1.4888 0.8388,2.2512 0.52,1.6174 0.9282,3.2696 1.4556,4.8846 0.2182,0.6682 0.4824,1.3224 0.7796,1.9592 0.739,1.5838 1.5886,3.1144 2.3272,4.6984 0.2502,0.5364 0.4522,1.0954 0.637,1.6578 0.6372,1.9398 1.1926,3.9058 1.8284,5.8462 0.2424,0.7396 0.5008,1.4756 0.8056,2.1918 0.674,1.5836 1.4396,3.127 2.129,4.7042 0.2876,0.6578 0.58,1.3162 0.8014,1.9992 0.8698,2.6846 1.499,5.448002 2.4702,8.097402 0.4994,1.3626 1.3174,2.587 1.9284,3.9032 0.3666,0.7898 0.7404,1.5816 1.0034,2.4114 0.4844,1.5278 0.849,3.0914 1.234,4.6472 0.3592,1.4512 0.6038,2.9306 0.9982,4.3726 0.2844,1.0404 0.6438,2.0606 1.0358,3.0654 0.2092,0.5358 0.4896,1.0418 0.7638,1.5474 0.5148,0.9488 1.0926,1.8626 1.6024,2.814004 0.4126,0.7698 0.8376,1.5372 1.1638,2.3474 0.6198,1.539604 1.0774,3.140404 1.6698,4.690804 0.2338,0.6116 0.4654,1.232 0.8068,1.7904 0.5988,0.9794 1.3092,1.8868 2.0014,2.8024 0.1478,0.1956 0.377,0.3224 0.5148,0.5252 0.4366,0.643 0.8172,1.323 1.1996,1.9996 0.9126,1.6148 1.7514,3.2712 2.685,4.874 0.1808,0.3104 0.3844,0.6184 0.6528,0.8572 0.3472,0.3092 0.7638,0.533 1.1676,0.7634 0.678,0.3864 1.4208,0.659 2.0744,1.0852 0.8848,0.5772 1.645,1.3312 2.5256,1.9148 0.4736,0.3136 0.9644,0.656 1.5214,0.767 1.7154,0.3418 3.4734,0.4218 5.2158,0.5754 0.336,0.0296 0.6818,0.0442 1.0118,-0.0268 0.5428,-0.1164 1.063,-0.3256 1.5794,-0.5296 1.2642,-0.4994 2.523,-1.0156 3.7596,-1.5798 0.9466,-0.4318 1.8888,-0.88 2.7864,-1.4062 0.7022,-0.4118 1.3522,-0.9086 2.0008,-1.4004 0.195,-0.1478 0.3248,-0.3718 0.524,-0.514 0.7372,-0.5266 1.5512,-0.9424 2.276,-1.486 0.6118,-0.459 1.1226,-1.0416 1.724,-1.514 0.3344,-0.2628 0.7358,-0.4308 1.076,-0.686 0.1958,-0.1468 0.333,-0.3612 0.524,-0.514 0.1446,-0.1156 0.3376,-0.1632 0.476,-0.286 0.4298,-0.3816 0.8454,-0.7824 1.219,-1.219 0.397,-0.4642 0.7044,-0.999 1.086,-1.476 0.1528,-0.1912 0.3648,-0.33 0.514,-0.524 0.5188,-0.6746 0.9672,-1.4016 1.486,-2.076 0.1492,-0.194 0.3612,-0.333 0.514,-0.524 0.1156,-0.1446 0.1608,-0.3398 0.286,-0.476 0.6256,-0.681 1.336,-1.281 1.9574,-1.9656 0.07,-0.0772 0.0966,-0.193 0.0966,-0.2972 0,-0.234 -0.022,-0.4734 -0.0964,-0.6954 -0.0278,-0.0826 -0.1092,-0.161 -0.1954,-0.174 -0.167,-0.025 -0.3688,-0.0346 -0.5016,0.0696 -0.2608,0.205 -0.3732,0.552 -0.599,0.795 -0.6626,0.7128 -1.4386,1.3198 -2.0616,2.0676 -1.0476,1.257 -1.884,2.6812 -2.9384,3.9324 -0.7184,0.8524 -1.5214,1.6358 -2.3666,2.3626 -0.5748,0.4944 -1.2738,0.8254 -1.876,1.286 -0.5328,0.4074 -0.9874,0.9116 -1.524,1.314 -0.5326,0.3994 -1.1344,0.699 -1.676,1.086 -0.393,0.2806 -0.7244,0.6428 -1.124,0.914 -0.859,0.583 -1.748,1.1216 -2.645,1.6442 -0.3668,0.2136 -0.752,0.3954 -1.1422,0.5624 -1.4564,0.6236 -2.9222,1.226 -4.3958,1.8084 -0.3068,0.1214 -0.6166,0.2522 -0.9428,0.3014 -0.3992,0.0604 -0.8082,0.0536 -1.2108,0.0238 -1.3032,-0.0964 -2.6024,-0.2434 -3.8994,-0.4016 -0.2344,-0.0286 -0.4712,-0.0708 -0.6902,-0.1588 -0.398,-0.1596 -0.7886,-0.3462 -1.1486,-0.5792 -0.56,-0.3624 -1.082,-0.7818 -1.6012,-1.2006 -0.1908,-0.1538 -0.315,-0.3886 -0.5252,-0.5146 -0.7968,-0.4782 -1.659,-0.8384 -2.474,-1.285 -0.211,-0.1158 -0.4152,-0.2472 -0.6008,-0.4004 -0.2054,-0.1694 -0.396,-0.3584 -0.5666,-0.5626 -0.1706,-0.2042 -0.3206,-0.4264 -0.4528,-0.6574 -1.1142,-1.947 -2.086,-3.978 -3.2852,-5.874 -0.869,-1.3744 -2.0088,-2.562 -2.9068,-3.9176 -0.2816,-0.425 -0.4334,-0.924 -0.6158,-1.4002 -0.647,-1.69 -1.1284,-3.446 -1.8712,-5.096004 -1.06,-2.355204 -2.4148,-4.567604 -3.5272,-6.898404 -0.328,-0.6872 -0.592,-1.4082 -0.7882,-2.144 -0.4832,-1.814 -0.7988,-3.669 -1.2466,-5.492 -0.3212,-1.3082 -0.6428,-2.6186 -1.0594,-3.8996 -0.264,-0.8116 -0.6196,-1.5918 -0.9786,-2.3662 -0.6104,-1.3166 -1.429,-2.5408 -1.9286,-3.9034 -0.9704,-2.6476 -1.5988,-5.408802 -2.468,-8.091202 -0.222,-0.685 -0.515,-1.3456 -0.8034,-2.0054 -0.6892,-1.577 -1.4546,-3.1206 -2.129,-4.704 -0.3146,-0.7388 -0.5864,-1.496 -0.8366,-2.2592 -0.6282,-1.917 -1.1698,-3.8616 -1.7974,-5.7788 -0.1842,-0.5626 -0.4076,-1.1122 -0.637,-1.6578 -0.2544,-0.6056 -0.5226,-1.206 -0.8142,-1.7946 -0.4844,-0.978 -1.0472,-1.9166 -1.513,-2.9038 -0.3072,-0.6512 -0.5794,-1.3208 -0.8034,-2.0052 -0.588,-1.7966 -1.0294,-3.6394 -1.631,-5.4314 -0.2766,-0.824 -0.581,-1.6468 -1.0012,-2.4076 -1.3174,-2.3856 -2.8824,-4.629 -4.202,-7.0136 -0.7496,-1.355 -1.303,-2.8102 -1.9992,-4.1934 -0.6512,-1.2942 -1.3152,-2.5834 -2.0422,-3.8368 -1.0214,-1.7606 -2.0256,-3.5384 -3.2004,-5.2008 -0.4404,-0.6234 -1.0274,-1.1368 -1.619,-1.619 -0.5052,-0.4116 -1.0698,-0.7526 -1.6516,-1.0462 -0.9044,-0.4564 -1.8444,-0.842 -2.793,-1.197 -1.1462,-0.4292 -2.3156,-0.7952 -3.486,-1.1532005 -0.4622,-0.1414 -0.929,-0.2852 -1.4086,-0.3438 -0.4008,-0.049 -0.8114,-0.0332 -1.2112,0.0234 -0.872,0.123 -1.7336,0.3144 -2.5912,0.5136 -0.7258,0.1684005 -1.4438,0.3712005 -2.1564,0.5884005 -1.4684,0.448 -2.957,0.8454 -4.3858,1.407 -1.303,0.5122 -2.5632,1.1354 -3.7912,1.8074 -0.9736,0.5328 -1.8868,1.1712 -2.801,1.8004 -0.5952,0.4096 -1.136,0.894 -1.724,1.314 -0.346,0.2472 -0.7358,0.4308 -1.076,0.686 -0.4614,0.346 -0.8686,0.7598 -1.324,1.114 -0.146,0.1136 -0.34,0.1604 -0.476,0.286 -0.734,0.6776 -1.39,1.4364 -2.124,2.114 -0.136,0.1256 -0.3422,0.158 -0.476,0.286 -1.3506,1.2918 -2.6738,2.6128 -3.9666,3.9626 -0.1454,0.1518 -0.1986,0.3754 -0.3384,0.5324 -0.4134,0.4644 -0.9006,0.8596 -1.314,1.324 -0.1398,0.157 -0.2038,0.3708 -0.3384,0.5324 -0.2006,0.2408 -0.4616,0.4264 -0.6616,0.6676 -0.118,0.1426 -0.1656,0.3354 -0.286,0.476 -0.282,0.329 -0.64,0.5884 -0.914,0.924 -0.6324,0.7746 -1.2182,1.5866 -1.8,2.4 -0.2474,0.346 -0.4156,0.7476 -0.686,1.076 -0.6658,0.8084 -1.4764,1.4932 -2.114,2.324 -1.1374,1.482 -2.19,3.0296 -3.2004,4.601 -0.6728,1.0462 -1.25,2.1512 -1.8438,3.244 -0.7546,1.3888 -1.534,2.7668 -2.2008,4.1998 -0.6132,1.3182 -1.0786,2.7002 -1.6342,4.0438 -0.194,0.4696 -0.3906,0.9386 -0.6144,1.3948 -0.1526,0.311 -0.3706,0.588 -0.5128,0.9038 -1.4962,3.3202 -2.956,6.657 -4.4004,10.0002 -0.2346,0.5432 -0.4536,1.0944 -0.6364,1.6572 -0.429,1.3194 -0.7668,2.6674 -1.1984,3.986 -0.3802,1.161802 -0.7682,2.323402 -1.2362,3.452602 -0.8122,1.959 -1.6948,3.8888 -2.6016,5.8056 -0.4034,0.8526 -0.9476,1.6354 -1.3274,2.4986 -1.0882,2.4732 -2.0174,5.0136 -3.0724,7.5012 -0.2238,0.528 -0.4846,1.0406 -0.7626,1.5424 -0.6296,1.1364 -1.3332,2.231 -1.9586,3.3698 -1.3228,2.4098 -2.495,4.902804 -3.8852,7.274408 -1.4404,2.4572 -3.0144,4.8348 -4.6004,7.2008 -0.321,0.479 -0.7586,0.8698 -1.114,1.324 -0.1296,0.1656 -0.1894,0.384 -0.3384,0.5324 -0.3372,0.336 -0.7544,0.583 -1.1046,0.9056 -0.4714,0.4342 -0.9296,0.8844 -1.357,1.362 -0.1402,0.1566 -0.1922,0.3812 -0.3384,0.5324 -1.6246,1.6838 -3.2606,3.3594 -4.9666,4.9626 -0.554,0.521 -1.144,1.0192 -1.802,1.4006 -1.08,0.6266 -2.236,1.1144 -3.386,1.6062 -1.064,0.4564 -2.156,0.8516 -3.25,1.236 -1.286,0.4522 -2.582,0.879 -3.888,1.2736 -0.132,0.0398 -0.274,0.0264 -0.412,0.0264 -0.738,0 -1.488,0.1106 -2.212,-0.0264 -0.944,-0.1782 -1.838,-0.5624 -2.734,-0.9086 -0.518,-0.2006 -0.992,-0.5054 -1.504,-0.7284 -0.558,-0.2444 -1.144,-0.4226 -1.7,-0.6728 -0.542,-0.2432 -1.066,-0.523 -1.588,-0.8062 -0.34,-0.1856 -0.676,-0.3824 -0.998,-0.5996 -0.298,-0.201 -0.598,-0.4056 -0.858,-0.6532 -1.082,-1.0276 -2.17,-2.053 -3.162,-3.1666 -0.666,-0.7464 -1.22,-1.5866 -1.8,-2.4 -0.248,-0.346 -0.4,-0.7612 -0.686,-1.076 -1.036,-1.1388 -2.204,-2.1504 -3.262,-3.2676 -0.146,-0.1526 -0.206,-0.3688 -0.338,-0.5324 -0.154,-0.1904 -0.376,-0.3232 -0.514,-0.524 -0.636,-0.911 -1.22,-1.855 -1.802,-2.801 -1.220004,-1.988 -2.434004,-3.98 -3.600004,-5.999804 -0.382,-0.6628 -0.71599,-1.3528 -1.04399,-2.044 -0.208,-0.4382 -0.394,-0.887404 -0.564,-1.342004 -1.374,-3.694 -2.648,-7.4256 -4.068,-11.1024 -0.848,-2.1932 -1.968,-4.2794 -2.732,-6.503 -0.638,-1.8548 -0.90803,-3.8178 -1.46203,-5.6994 -0.582,-1.9828 -1.324,-3.915602 -1.944,-5.886802 -0.57,-1.809 -1.058,-3.643 -1.626,-5.4524 -0.386,-1.226 -0.794,-2.4458 -1.236,-3.6524 -0.214,-0.58 -0.514,-1.1252 -0.732,-1.7036 -0.904,-2.4096 -1.808,-4.8204 -2.634,-7.2582 -1.264,-3.7306 -2.368,-7.5144 -3.634,-11.2442 -0.348,-1.020001 -0.782,-2.0078 -1.202,-2.9998 -0.358,-0.843 -0.796,-1.6508 -1.13,-2.5038 -0.734,-1.8802 -1.296,-3.8262 -2.068,-5.6904 -0.506,-1.2198 -1.142,-2.3834 -1.764,-3.5478 -0.448,-0.834 -0.926,-1.6518 -1.444,-2.4438 -0.366,-0.5584 -0.756,-1.1042 -1.2,-1.6012 -0.698,-0.7794 -1.454,-1.5068 -2.22,-2.219 -0.154,-0.1432 -0.376,-0.1978 -0.532,-0.3384 -0.514,-0.4618 -0.954,-0.9998 -1.468,-1.4616 -0.156,-0.1406 -0.376,-0.1986 -0.532,-0.3384 -0.446,-0.396 -0.822,-0.8656 -1.268,-1.2616 -0.158,-0.1396 -0.368,-0.207 -0.532,-0.3384 -0.172,-0.1368 -0.292,-0.3324 -0.468,-0.4616 -0.33,-0.2414 -0.684,-0.4504 -1.044,-0.6442 -0.638,-0.3428 -1.278,-0.6902 -1.948,-0.9638 -0.784,-0.3194 -1.592,-0.5762005 -2.406,-0.8110005 -0.7,-0.2022 -1.408,-0.3856 -2.128,-0.4978 -0.398,-0.0624 -0.81,-0.061 -1.212,-0.0232 -0.208,0.0198 -0.392,0.1686 -0.6,0.194 -0.33,0.04 -0.67,0.0558 -0.998,2e-4 -0.41,-0.0694 -0.778,-0.3166 -1.19,-0.3708 -0.536,-0.0706 -1.1,-0.14 -1.624,4e-4 -0.888,0.2388 -1.712,0.6808 -2.524,1.1148005 -0.636,0.3408 -1.208,0.7904 -1.802,1.2014 -0.274,0.1898 -0.552,0.3782 -0.8,0.6 -0.394,0.3508 -0.726,0.7666 -1.124,1.114 -0.14,0.1218 -0.336,0.1642 -0.476,0.286 -0.396,0.3474 -0.728,0.7662 -1.124,1.114 -0.158,0.1386 -0.376,0.1982 -0.532,0.3384 -0.46,0.4118 -0.898,0.8498 -1.31,1.3102 -0.14,0.1566 -0.2,0.3754 -0.338,0.5324 -0.414,0.4644 -0.91,0.8526 -1.314,1.324 -0.436,0.5054 -0.82,1.0532 -1.2,1.6 -0.382,0.546 -0.706,1.1306 -1.088,1.676 -0.086,0.1232 -0.232,0.1974 -0.312,0.324 -0.76,1.1844 -1.51,2.376 -2.202,3.6008 -0.51,0.906 -0.978,1.8382 -1.406,2.7864 -0.774,1.7172 -1.502,3.456 -2.202,5.2058 -0.726,1.8182 -1.306,3.6934 -2.07,5.4958 -0.904,2.1318 -1.974,4.1888 -2.928,6.2986 -0.69,1.525 -1.432,3.0308 -2,4.605 -1.058,2.9292 -1.826,5.957 -2.87,8.8908 -0.358,1.0028 -0.906,1.9272 -1.33,2.904 -0.444,1.0254 -0.802,2.0878 -1.272,3.1014 -0.46,0.9902 -1.03,1.9256 -1.514,2.904 -0.226,0.456999 -0.444,0.92 -0.616,1.4002 -0.636,1.783202 -1.232,3.581001 -1.806,5.385602 -0.6380001,2.0086 -1.1420001,4.0604 -1.8280001,6.053 -0.578,1.68 -1.342,3.290999 -1.9660002,4.9554 -0.3680004,0.985399 -0.6940004,1.986599 -1.0060004,2.9912 -0.28,0.9 -0.576,1.7984 -0.77,2.7206 -0.308,1.4638 -0.524,2.9456 -0.732,4.4268"
     fill="#000000"
     style="fill:#bfbfbf;fill-opacity:1;stroke:#bfbfbf;stroke-width:1;stroke-miterlimit:4;stroke-dasharray:none;stroke-opacity:1" />
  <path
     d="m 67.531685,9.5561845 c -0.2735,-0.0086 -0.546594,0.0079 -0.808594,0.07813 -0.888,0.2388 -1.711438,0.6812355 -2.523437,1.1152345 -0.636,0.3408 -1.208735,0.790172 -1.802735,1.201172 -0.274,0.1898 -0.550828,0.37781 -0.798828,0.59961 -0.394,0.3508 -0.727,0.767834 -1.125,1.115234 -0.14,0.1218 -0.334609,0.163356 -0.474609,0.285156 -0.396,0.3474 -0.729,0.765482 -1.125,1.113282 -0.158,0.1386 -0.37525,0.199643 -0.53125,0.339843 -0.46,0.4118 -0.898547,0.850147 -1.310547,1.310547 -0.14,0.1566 -0.199891,0.37425 -0.337891,0.53125 -0.414,0.4644 -0.910453,0.852819 -1.314453,1.324219 -0.436,0.5054 -0.819219,1.052809 -1.199219,1.599609 -0.382,0.546 -0.70589,1.130382 -1.08789,1.675782 -0.086,0.1232 -0.2325,0.197618 -0.3125,0.324218 -0.76,1.1844 -1.509172,2.376763 -2.201172,3.601563 -0.51,0.905999 -0.97825,1.838909 -1.40625,2.787109 -0.774,1.7172 -1.503125,3.455278 -2.203125,5.205078 -0.726,1.818199 -1.306313,3.693693 -2.070313,5.496094 -0.904,2.131799 -1.973734,4.189027 -2.927734,6.298828 -0.69,1.524999 -1.432,3.029315 -2,4.603516 -1.058,2.929199 -1.825141,5.956824 -2.869141,8.890625 -0.358,1.002799 -0.906078,1.927497 -1.330078,2.904296 -0.444,1.025401 -0.801484,2.087963 -1.271484,3.101563 -0.46,0.9902 -1.031625,1.925897 -1.515625,2.904297 -0.226,0.456999 -0.443235,0.920191 -0.615235,1.40039 -0.636,1.783203 -1.23264,3.580165 -1.80664,5.384766 -0.638,2.0086 -1.142125,4.062088 -1.828125,6.054688 -0.578,1.68 -1.340843,3.290677 -1.964844,4.955078 -0.368,0.985399 -0.693859,1.985634 -1.005859,2.990234 -0.28,0.9 -0.575532,1.798503 -0.769532,2.720703 -0.308,1.463801 -0.524422,2.946538 -0.732421,4.427743 v 0.812504 c 0.115999,0.1596 0.185656,0.36631 0.347656,0.47851 0.09,0.063 0.232031,0.0388 0.332031,-0.01 0.14,-0.0682 0.303891,-0.16696 0.337891,-0.31836 0.378,-1.679209 0.533,-3.401302 0.875,-5.087902 0.152,-0.7528 0.381375,-1.489456 0.609375,-2.222656 0.376001,-1.2054 0.771078,-2.406397 1.205078,-3.591797 0.49,-1.3312 1.106406,-2.614078 1.566406,-3.955078 0.794,-2.3084 1.445266,-4.663729 2.197266,-6.986328 0.526,-1.6258 1.066718,-3.24682 1.636718,-4.857422 0.164,-0.4572 0.356454,-0.90575 0.564453,-1.34375 0.568,-1.1952 1.213626,-2.351688 1.765626,-3.554688 0.527999,-1.1508 0.962656,-2.342953 1.472656,-3.501953 0.224,-0.51 0.542562,-0.978506 0.726562,-1.503906 1.006,-2.8594 1.867938,-5.766872 2.835938,-8.638672 0.188,-0.5608 0.406718,-1.113003 0.636718,-1.658203 0.65,-1.5408 1.31,-3.07701 2,-4.59961 0.686,-1.5108 1.442907,-2.987246 2.128907,-4.498046 0.358,-0.789401 0.687953,-1.592191 1.001953,-2.400391 0.576,-1.4908 1.071969,-3.013294 1.667969,-4.496094 0.76,-1.8854 1.57239,-3.749069 2.40039,-5.605469 0.242,-0.5418 0.520641,-1.066737 0.806641,-1.585937 0.45,-0.8102 0.908391,-1.616791 1.40039,-2.400391 0.642001,-1.0174 1.313954,-2.0132 2.001954,-3 0.38,-0.5474 0.779218,-1.082762 1.199218,-1.601562 0.152,-0.1904 0.361625,-0.332438 0.515625,-0.523438 0.114,-0.1446 0.157157,-0.342362 0.285157,-0.476562 1.092,-1.1502 2.211328,-2.272035 3.361328,-3.365235 0.152,-0.145 0.375203,-0.201243 0.533203,-0.339843 0.396,-0.3478 0.727047,-0.765482 1.123047,-1.113282 0.158,-0.1386 0.371203,-0.20329 0.533203,-0.33789 0.242,-0.2006 0.415969,-0.47611 0.667969,-0.66211 0.522,-0.3856 1.072531,-0.734768 1.644531,-1.042968 0.738,-0.3986 1.47525,-0.838666 2.28125,-1.072266 0.456,-0.132 0.953828,-0.06375 1.423828,-0.002 0.476,0.0626 0.916672,0.289494 1.388672,0.371094 0.198,0.0342 0.407469,0.01301 0.605469,-0.02539 0.14,-0.0272 0.250578,-0.157769 0.392578,-0.167969 0.536,-0.0384 1.083281,-0.06496 1.613281,0.02344 0.928,0.155 1.838328,0.418772 2.736328,0.701172 0.664,0.2092 1.309313,0.483531 1.945313,0.769531 0.562,0.2526 1.112578,0.532303 1.642578,0.845703 0.288,0.1698 0.550781,0.379409 0.800781,0.599609 0.326,0.2858 0.595828,0.632063 0.923828,0.914063 0.14,0.1204 0.338563,0.164109 0.476563,0.287109 0.464,0.413 0.860218,0.8991 1.324218,1.3125 0.158,0.1398 0.37525,0.199244 0.53125,0.339844 0.494,0.4444 0.91811,0.963803 1.41211,1.408203 0.156,0.1406 0.375203,0.199491 0.533203,0.337891 0.362,0.3164 0.721531,0.642732 1.019531,1.019531 0.71,0.9 1.398,1.823981 2,2.800781 0.682,1.1068 1.237797,2.2863 1.841797,3.4375 0.198,0.3798 0.412406,0.754097 0.566406,1.154297 0.724,1.8836 1.33636,3.811206 2.06836,5.691406 0.334,0.8528 0.780909,1.657307 1.128909,2.503907 0.62,1.5086 1.25125,3.015393 1.78125,4.558593 0.558,1.6296 0.96442,3.308172 1.48242,4.951172 0.5,1.5854 1.02226,3.165574 1.57226,4.734375 0.852,2.4288 1.73277,4.847413 2.634774,7.257813 0.298,0.7946 0.69884,1.550068 0.96484,2.355469 1.58,4.762 3.12027,9.538041 4.57227,14.339843 0.49,1.6158 0.80386,3.27945 1.25586,4.90625 0.168,0.6094 0.37142,1.212028 0.60742,1.798828 0.74403,1.8464 1.61403,3.639494 2.33203,5.496094 1.55,4.0096 2.8888,8.099459 4.4668,12.09766 0.384,0.9694 0.8982,1.88241 1.4082,2.791024 1.02599,1.8234 2.10717,3.61719 3.20117,5.40039 0.706,1.1508 1.45118,2.27699 2.20118,3.40039 0.184,0.2774 0.3816,0.54838 0.59961,0.80078 0.21999,0.2568 0.49684,0.46285 0.71484,0.72265 0.134,0.1612 0.19589,0.37681 0.33789,0.53321 0.43,0.4782 0.88923,0.93128 1.36523,1.36328 0.212,0.1922 0.51527,0.2811 0.69727,0.5039 0.954,1.18 1.68955,2.53079 2.68555,3.67579 1.226,1.41 2.58693,2.69899 3.96093,3.96679 0.372,0.3434 0.81786,0.60112 1.25586,0.85352 0.664,0.3812 1.34893,0.72872 2.04493,1.04492 1.36799,0.62 2.74257,1.22352 4.14257,1.76172 0.768,0.2946 1.53952,0.62082 2.35352,0.73242 0.928,0.1274 1.89855,0.19376 2.81055,-0.0234 2.104,-0.5012 4.11071,-1.35002 6.13671,-2.10742 1.286,-0.4804 2.54893,-1.02851 3.79493,-1.60351 0.352,-0.1626 0.67614,-0.38387 0.99414,-0.60547 0.548,-0.3808 1.08161,-0.78062 1.59961,-1.19922 0.19,-0.1536 0.33143,-0.36087 0.52343,-0.51367 0.144,-0.1156 0.34257,-0.16051 0.47657,-0.28711 0.914,-0.8576 1.80211,-1.74385 2.66211,-2.65625 0.194,-0.2072 0.29809,-0.49032 0.49609,-0.69532 1.5238,-1.5848 3.21496,-3.01076 4.66016,-4.66796 0.851,-0.9758 1.49477,-2.11618 2.20117,-3.20118 1.1608,-1.7824 2.33699,-3.55643 3.40039,-5.39843 1.2998,-2.251804 2.42919,-4.597814 3.68359,-6.875011 0.627,-1.1378 1.33599,-2.22914 1.95899,-3.36914 0.418,-0.765 0.81966,-1.54315 1.16406,-2.34375 1.068,-2.4822 1.98126,-5.0278 3.07226,-7.5 0.3898,-0.8838 0.95224,-1.683641 1.36524,-2.556641 0.8972,-1.8964 1.7619,-3.809047 2.5625,-5.748047 0.4664,-1.1296 0.85613,-2.289572 1.23633,-3.451172 0.4316,-1.318602 0.77002,-2.666728 1.19922,-3.986328 0.183,-0.563 0.40291,-1.114403 0.63671,-1.658203 1.1788,-2.7426 2.36981,-5.479219 3.59961,-8.199219 0.413,-0.9134 0.91958,-1.782819 1.32618,-2.699218 0.8654,-1.9496 1.55547,-3.978285 2.48828,-5.896485 1.0294,-2.1164 2.22362,-4.147806 3.39062,-6.191406 0.4312,-0.7552 0.91199,-1.481772 1.40039,-2.201172 0.0846,-0.1244 0.22566,-0.203019 0.31446,-0.324219 0.6454,-0.88 1.20011,-1.827581 1.88671,-2.675781 0.4506,-0.5566 1.05108,-0.976838 1.51368,-1.523437 0.2748,-0.324801 0.43814,-0.730172 0.68554,-1.076172 0.5818,-0.8134 1.18018,-1.616191 1.80078,-2.400391 0.1518,-0.1918 0.36088,-0.332437 0.51368,-0.523437 0.1156,-0.1446 0.16675,-0.334363 0.28515,-0.476563 0.217,-0.2604 0.49785,-0.464209 0.71485,-0.724609 0.1186,-0.1422 0.16475,-0.33401 0.28515,-0.47461 0.282,-0.329 0.63207,-0.594828 0.91407,-0.923828 0.12059,-0.1406 0.1633,-0.338962 0.2871,-0.476562 0.479,-0.5322 1.03448,-0.991438 1.51368,-1.523438 0.1408,-0.1562 0.19429,-0.379803 0.33789,-0.533203 0.8088,-0.8638 1.64792,-1.701166 2.51172,-2.509766 0.172,-0.161 0.41509,-0.230225 0.58789,-0.390625 0.7822,-0.7264 1.46437,-1.558518 2.26757,-2.261718 0.8226,-0.7202 1.71521,-1.3568 2.59961,-2 1.3166,-0.9574 2.64116,-1.906982 4.00196,-2.800782 0.5726,-0.3762 1.18057,-0.698059 1.79297,-1.005859 0.8526,-0.4286 1.69905,-0.880172 2.59765,-1.201172 2.0738,-0.7404 4.18294,-1.381162 6.30274,-1.976562 0.8612,-0.2418 1.74566,-0.405003 2.63086,-0.533203 0.3996,-0.058 0.81013,-0.07284 1.21093,-0.02344 0.4782,0.059 0.9457,0.197103 1.4043,0.345703 1.3254,0.4294 2.65636,0.852919 3.94336,1.386719 0.9624,0.3994 1.88142,0.899803 2.79101,1.408203 0.29141,0.1628 0.54979,0.379609 0.80079,0.599609 0.2904,0.2544 0.56396,0.52796 0.81836,0.81836 0.22,0.251 0.42656,0.518534 0.60156,0.802734 0.8926,1.4508 1.75201,2.920839 2.59961,4.398438 0.767,1.3372 1.53114,2.678321 2.24414,4.044922 0.3014,0.578199 0.51167,1.198756 0.79687,1.785156 0.5956,1.2242 1.16975,2.461731 1.84375,3.644531 1.182,2.0736 2.57911,4.022941 3.72071,6.119141 0.383,0.7032 0.59269,1.4876 0.83789,2.25 0.52,1.6174 0.92768,3.269765 1.45508,4.884765 0.2182,0.6682 0.48404,1.324138 0.78124,1.960938 0.739,1.5838 1.58758,3.113265 2.32618,4.697265 0.2502,0.5364 0.45192,1.095804 0.63672,1.658204 0.6372,1.939799 1.19232,3.905303 1.82812,5.845703 0.2424,0.7396 0.50184,1.475206 0.80664,2.191406 0.674,1.5836 1.43951,3.127878 2.12891,4.705078 0.2876,0.6578 0.57938,1.315047 0.80078,1.998047 0.8698,2.6846 1.4995,5.448256 2.4707,8.097656 0.4994,1.3626 1.31674,2.588097 1.92774,3.904297 0.3666,0.7898 0.7409,1.580356 1.0039,2.410156 0.4844,1.5278 0.84938,3.092638 1.23438,4.648438 0.3592,1.4512 0.60364,2.931047 0.99804,4.373047 0.2844,1.0404 0.64316,2.059653 1.03516,3.064453 0.2092,0.5358 0.48947,1.041275 0.76367,1.546875 0.5148,0.948797 1.09372,1.863061 1.60352,2.814461 0.4126,0.7698 0.83786,1.53745 1.16406,2.34765 0.6198,1.539604 1.07557,3.141014 1.66797,4.691414 0.2338,0.6116 0.46719,1.23066 0.80859,1.78906 0.5988,0.9794 1.3078,1.88714 2,2.80274 0.1478,0.1956 0.37783,0.32259 0.51563,0.52539 0.4366,0.643 0.81682,1.3234 1.19922,2 0.9126,1.6148 1.75194,3.27024 2.68554,4.87304 0.1808,0.3104 0.38395,0.61863 0.65235,0.85743 0.3472,0.3092 0.76417,0.53327 1.16797,0.76367 0.678,0.3864 1.42061,0.65973 2.07421,1.08593 0.8848,0.57721 1.6448,1.33047 2.5254,1.91407 0.4736,0.3136 0.96448,0.65658 1.52148,0.76758 1.7154,0.3418 3.47244,0.42061 5.21484,0.57421 0.336,0.0296 0.68368,0.0456 1.01368,-0.0254 0.5428,-0.1164 1.06172,-0.32529 1.57812,-0.52929 0.45373,-0.17924 0.90586,-0.36382 1.35742,-0.54883 v -1.32617 c -0.73109,0.30066 -1.45819,0.61178 -2.19336,0.90234 -0.3068,0.1214 -0.61716,0.25158 -0.94336,0.30078 -0.3992,0.0604 -0.80833,0.0552 -1.21093,0.0254 -1.3032,-0.0964 -2.60144,-0.24414 -3.89844,-0.40234 -0.2344,-0.0286 -0.47045,-0.0702 -0.68945,-0.1582 -0.398,-0.1596 -0.79039,-0.34708 -1.1504,-0.58008 -0.56,-0.3624 -1.0804,-0.78237 -1.5996,-1.20117 -0.1908,-0.1538 -0.31519,-0.38768 -0.5254,-0.51368 -0.7968,-0.4782 -1.6596,-0.83855 -2.4746,-1.28515 -0.211,-0.1158 -0.41597,-0.24719 -0.60157,-0.40039 -0.2054,-0.1694 -0.3958,-0.3583 -0.5664,-0.5625 -0.1706,-0.2042 -0.32093,-0.42721 -0.45313,-0.65821 -1.1142,-1.947 -2.08595,-3.97704 -3.28515,-5.87304 -0.869,-1.3744 -2.00825,-2.56237 -2.90625,-3.91797 -0.2816,-0.425 -0.43284,-0.92419 -0.61524,-1.40039 -0.647,-1.69 -1.12829,-3.44571 -1.87109,-5.095714 -1.06,-2.3552 -2.41495,-4.567638 -3.52735,-6.898438 -0.328,-0.6872 -0.59286,-1.408731 -0.78906,-2.144531 -0.4832,-1.814 -0.79829,-3.669188 -1.24609,-5.492188 -0.3212,-1.3082 -0.642,-2.617437 -1.0586,-3.898437 -0.264,-0.8116 -0.61951,-1.592788 -0.97851,-2.367188 -0.6104,-1.3166 -1.43009,-2.539744 -1.92969,-3.902344 -0.9704,-2.6476 -1.5976,-5.409396 -2.4668,-8.091797 -0.222,-0.685 -0.51628,-1.346059 -0.80468,-2.005859 -0.6892,-1.577 -1.45451,-3.119725 -2.12891,-4.703125 -0.3146,-0.7388 -0.58574,-1.496566 -0.83594,-2.259766 -0.6282,-1.917 -1.16927,-3.862096 -1.79687,-5.779296 -0.1842,-0.5626 -0.40927,-1.11065 -0.63867,-1.65625 -0.2544,-0.6056 -0.5209,-1.206322 -0.8125,-1.794922 -0.4844,-0.978 -1.04788,-1.917097 -1.51368,-2.904297 -0.3072,-0.6512 -0.57873,-1.321459 -0.80273,-2.005859 -0.588,-1.7966 -1.03121,-3.637688 -1.63281,-5.429688 -0.2766,-0.824 -0.5798,-1.647403 -1,-2.408203 -1.3174,-2.3856 -2.88353,-4.629072 -4.20313,-7.013672 -0.7496,-1.355 -1.30185,-2.810159 -1.99805,-4.193359 -0.6512,-1.2942 -1.31596,-2.584491 -2.04296,-3.837891 -1.0214,-1.760599 -2.02442,-3.536819 -3.19922,-5.199219 -0.4404,-0.6234 -1.02754,-1.13694 -1.61914,-1.61914 -0.5052,-0.4116 -1.07055,-0.753275 -1.65235,-1.046875 -0.9044,-0.4564 -1.84437,-0.842266 -2.79297,-1.197266 -1.1462,-0.4292 -2.31592,-0.794344 -3.48632,-1.152344 -0.4622,-0.1414 -0.92861,-0.28515 -1.40821,-0.34375 -0.4008,-0.049001 -0.81113,-0.033161 -1.21093,0.02344 -0.872,0.123 -1.7342,0.314472 -2.5918,0.513672 -0.7258,0.1684 -1.44365,0.37069 -2.15625,0.58789 -1.4684,0.448 -2.95597,0.84465 -4.38477,1.40625 -1.303,0.5122 -2.56301,1.136594 -3.79101,1.808594 -0.9736,0.5328 -1.88854,1.171581 -2.80274,1.800781 -0.5952,0.4096 -1.13465,0.8925 -1.72265,1.3125 -0.346,0.2472 -0.73597,0.4323 -1.07618,0.6875 -0.46139,0.346 -0.86881,0.759081 -1.32421,1.113282 -0.146,0.1136 -0.34057,0.159556 -0.47657,0.285156 -0.734,0.677599 -1.38904,1.437634 -2.12304,2.115234 -0.136,0.1256 -0.34277,0.157156 -0.47657,0.285156 -1.3506,1.2918 -2.67399,2.613091 -3.96679,3.962891 -0.1454,0.1518 -0.19809,0.376203 -0.33789,0.533203 -0.4134,0.4644 -0.90106,0.857866 -1.31446,1.322266 -0.1398,0.157 -0.20329,0.371603 -0.33789,0.533203 -0.2006,0.2408 -0.46211,0.426769 -0.66211,0.667969 -0.118,0.1426 -0.16475,0.335962 -0.28515,0.476562 -0.282,0.329 -0.64007,0.588228 -0.91406,0.923828 -0.6324,0.7746 -1.21899,1.585038 -1.80079,2.398438 -0.2474,0.346 -0.41514,0.747772 -0.68554,1.076172 -0.6658,0.8084 -1.47764,1.493418 -2.11524,2.324218 -1.1374,1.482 -2.18882,3.030163 -3.19922,4.601563 -0.6728,1.0462 -1.24995,2.15134 -1.84375,3.244141 -0.7546,1.3888 -1.53437,2.766218 -2.20117,4.199218 -0.6132,1.3182 -1.07916,2.701322 -1.63476,4.044922 -0.194,0.4696 -0.38949,0.938331 -0.61329,1.394531 -0.1526,0.311 -0.37147,0.588497 -0.51367,0.904297 -1.4962,3.3202 -2.95599,6.6568 -4.40039,10 -0.2346,0.5432 -0.45392,1.09345 -0.63672,1.65625 -0.429,1.3194 -0.76566,2.667728 -1.19726,3.986328 -0.3802,1.161802 -0.76833,2.323925 -1.23633,3.453125 -0.8122,1.959 -1.69476,3.887888 -2.60156,5.804688 -0.4034,0.8526 -0.94833,1.634847 -1.32813,2.498047 -1.0882,2.4732 -2.01726,5.014353 -3.07226,7.501953 -0.2238,0.528 -0.48372,1.041169 -0.76172,1.542969 -0.6296,1.1364 -1.33359,2.23034 -1.95899,3.36914 -1.3228,2.409797 -2.49456,4.903797 -3.88476,7.275401 -1.4404,2.4572 -3.01556,4.83322 -4.60156,7.19922 -0.321,0.479 -0.75789,0.87001 -1.11329,1.32421 -0.1296,0.1656 -0.18889,0.38481 -0.33789,0.53321 -0.3372,0.336 -0.75527,0.58365 -1.10547,0.90625 -0.47139,0.4342 -0.93002,0.88373 -1.35742,1.36133 -0.1402,0.1566 -0.19169,0.38005 -0.33789,0.53125 -1.6246,1.6838 -3.26079,3.35969 -4.96679,4.96289 -0.554,0.521 -1.14279,1.01899 -1.80079,1.40039 -1.08,0.6266 -2.23671,1.11562 -3.38671,1.60742 -1.064,0.4564 -2.156,0.85193 -3.25,1.23633 -1.286,0.4522 -2.58268,0.87883 -3.88868,1.27343 -0.132,0.0398 -0.27411,0.0254 -0.41211,0.0254 -0.738,0 -1.48693,0.1116 -2.21093,-0.0254 -0.944,-0.1782 -1.83838,-0.56395 -2.73438,-0.91015 -0.518,-0.2006 -0.9919,-0.50356 -1.5039,-0.72656 -0.558,-0.2444 -1.14518,-0.42363 -1.70118,-0.67383 -0.542,-0.2432 -1.06589,-0.52344 -1.58789,-0.80664 -0.34,-0.1856 -0.67604,-0.38241 -0.99804,-0.59961 -0.298,-0.201 -0.59743,-0.40475 -0.85743,-0.65235 -1.082,-1.0276 -2.1701,-2.05241 -3.1621,-3.16601 -0.666,-0.7464 -1.21883,-1.58699 -1.79883,-2.40039 -0.248,-0.346 -0.4015,-0.76137 -0.6875,-1.07617 -1.036,-1.1388 -2.20372,-2.15038 -3.26172,-3.26758 -0.146,-0.1526 -0.20589,-0.36961 -0.33789,-0.53321 -0.154,-0.1904 -0.37567,-0.32263 -0.51367,-0.52343 -0.636,-0.911 -1.22074,-1.85478 -1.80274,-2.80078 -1.22,-1.988 -2.43361,-3.9802 -3.59961,-6.000004 -0.382,-0.6628 -0.71497,-1.35373 -1.04297,-2.04493 -0.208,-0.4382 -0.39445,-0.88719 -0.56445,-1.341794 -1.374,-3.693999 -2.64836,-7.424765 -4.06836,-11.101565 -0.848,-2.1932 -1.96842,-4.280306 -2.73242,-6.503906 -0.638,-1.8548 -0.90694,-3.817619 -1.46094,-5.699219 -0.582,-1.9828 -1.32531,-3.915518 -1.94531,-5.886718 -0.57,-1.809 -1.057,-3.641772 -1.625,-5.451172 -0.386,-1.226 -0.79433,-2.445744 -1.23633,-3.652344 -0.214,-0.58 -0.51442,-1.126678 -0.73242,-1.705078 -0.904,-2.4096 -1.80681,-4.820013 -2.632814,-7.257813 -1.264,-3.7306 -2.36877,-7.51434 -3.63477,-11.24414 -0.348,-1.02 -0.78117,-2.008 -1.20117,-3 -0.358,-0.843 -0.79686,-1.650906 -1.13086,-2.503906 -0.733998,-1.880201 -1.29636,-3.825254 -2.06836,-5.689454 -0.506,-1.2198 -1.141672,-2.384428 -1.763672,-3.548828 -0.448,-0.834 -0.925359,-1.651359 -1.443359,-2.443359 -0.366,-0.5584 -0.757172,-1.104564 -1.201172,-1.601563 -0.698,-0.7794 -1.45275,-1.50655 -2.21875,-2.21875 -0.154,-0.1432 -0.377203,-0.19729 -0.533203,-0.33789 -0.514,-0.4618 -0.952797,-0.999138 -1.466797,-1.460938 -0.156,-0.1406 -0.377203,-0.200043 -0.533203,-0.339844 -0.446,-0.396 -0.821578,-0.865718 -1.267578,-1.261718 -0.158,-0.1396 -0.36725,-0.206491 -0.53125,-0.337891 -0.172,-0.1368 -0.29275,-0.331737 -0.46875,-0.460937 -0.33,-0.2414 -0.682969,-0.450732 -1.042969,-0.644532 -0.638,-0.3428 -1.279219,-0.691243 -1.949219,-0.964843 -0.784,-0.3194 -1.59225,-0.575747 -2.40625,-0.810547 -0.7,-0.2022 -1.406953,-0.3858475 -2.126953,-0.4980475 -0.398,-0.0624 -0.810891,-0.06124 -1.212891,-0.02344 -0.208,0.0198 -0.391609,0.169913 -0.599609,0.1953135 -0.33,0.04 -0.670047,0.0556 -0.998047,0 -0.41,-0.069401 -0.777453,-0.3168945 -1.189453,-0.3710945 -0.268,-0.0353 -0.542906,-0.0695 -0.816406,-0.07813 z"
     style="fill:#319ad7;fill-opacity:1;stroke:#319ad7;stroke-width:2;stroke-miterlimit:4;stroke-dasharray:none;stroke-opacity:1"
     id="path30-5" />
  <path
     style="fill:none;stroke:#000000;stroke-width:2;stroke-linecap:round;stroke-linejoin:miter;stroke-miterlimit:4;stroke-dasharray:none;stroke-opacity:1"
     d="m 1,67.416226 309.17697,0.360005"
     id="path845" />
  <path
     style="fill:none;stroke:#000000;stroke-width:2;stroke-linecap:round;stroke-linejoin:miter;stroke-miterlimit:4;stroke-dasharray:none;stroke-opacity:1"
     d="M 13.237289,3.0916078 V 132.14166"
     id="path847" />
  <g
     transform="translate(20.815963,26.338565)"
     id="g1441">
    <path
       style="fill:none;stroke:#319ad7;stroke-width:2.5;stroke-linecap:round;stroke-linejoin:miter;stroke-miterlimit:4;stroke-dasharray:none;stroke-opacity:1"
       d="M 38.163625,5.1000255 H 62.927452"
       id="path1561" />
    <path
       style="fill:none;stroke:#319ad7;stroke-width:2.5;stroke-linecap:round;stroke-linejoin:miter;stroke-miterlimit:4;stroke-dasharray:none;stroke-opacity:1"
       d="M 58.581399,1.25 63.083913,5.3022627 59.03165,8.0037715"
       id="path1563" />
  </g>
</svg>
