<?xml version="1.0" encoding="UTF-8"?>
<svg width="316.37" height="144.16" version="1.2" viewBox="0 0 316.36685 144.15827" xmlns="http://www.w3.org/2000/svg" xmlns:cc="http://creativecommons.org/ns#" xmlns:dc="http://purl.org/dc/elements/1.1/" xmlns:rdf="http://www.w3.org/1999/02/22-rdf-syntax-ns#">
<metadata>
<rdf:RDF>
<cc:Work rdf:about="">
<dc:format>image/svg+xml</dc:format>
<dc:type rdf:resource="http://purl.org/dc/dcmitype/StillImage"/>
</cc:Work>
</rdf:RDF>
</metadata>
<title>reverb</title>
<path d="m12.245 0.14875 0.21633 0.70236-0.02245 0.094398-0.08572-0.054502-0.09592 0.19561-0.15511 0.64647 0.04285 0.63646 0.22654 0.59503 0.18368 0.83248-0.10204 1.9359 0.05102 0.96025 0.84696 4.1081 0.10408 1.6294-0.0102 1.4692 0.68164 3.2362 0.09184 1.1392-0.10204 1.2181-0.2 1.0274-0.12449 1.1782-0.01224 1.8636 0.08775 1.5978-0.30817 3.1894 0.16735 3.6523 0.47552 3.7691 0.05102 0.91437-0.01225 0.87948-0.1898 2.1371 0.10612 2.498-0.06531 1.8223 0.04285 2.2689-0.07143 1.8246 0.08163 2.4377 0.02653 4.3882 0.13674 1.4696 0.31021 2.1791 0.23674 3.376 0.15714 1.3967 0.45715 2.8878 0.31021 5.1121 0.62654 6.2271 0.10817 2.7164 0.27143 2.5052 0.03469 1.2964-0.08776 2.1685 0.13062 1.2988 0.32245 1.6754 0.22245 1.725 0.04082 4.9848 0.07346 1.31 0.33062 2.694 0.03674 2.344 0.18776 2.3538 0.35307 2.1855 0.30409 1.297 0.17347 1.3559 0.07143 2.0437 0.11633 1.0371 0.65715 4.1596 0.62858 6.1547 0.28368 1.5779 0.26531 2.0409 0.0102 4.3445-0.06123 2.2606 0.24286 2.9404 0.03265 1.2415-0.06531 0.96345-0.09796 0.46574-0.8143 3.1364 0.04694 1.653-0.05102 0.10845-0.05918 0.0237-0.08572-0.0473" fill="none" stroke="#000" stroke-linejoin="round" stroke-width="1.0106"/>
<path d="m0.13322 76.86 0.46395 0.10496 1.1305 0.0842 8.7866-0.2419 2.1962-0.2401 1.6269-0.076 7.4252-0.62054 3.3368-0.43602 3.4786-0.35305 2.1637-0.15194 7.3685-0.21871 15.14-1.4004 6.2359-0.68791 4.7266-0.29328 9.8726-0.2409 5.0244-0.27309 3.4563-0.06237 3.5961-0.15014 5.223-0.03938 7.2571 0.06457 11.264 0.27009 9.4552-0.02339 17.174-0.32207 9.7186 6e-3 7.9254-0.15374 7.6537-0.29828 5.6782 0.03799 9.1339-0.22291 3.7207-0.19672 3.6577-0.01759 11.187 0.01859 9.1446 0.26309 6.9722 0.30967 16.493 0.9628 8.4078 0.38804 6.272 0.40703 1.5416-0.01579 1.5322 0.10116 1.56 0.22511 7.3691 0.44741 18.889 0.68011 2.7825 0.2511 2.7604 0.12655 1.4291 0.0468 6.975-0.0538 6.7404 0.22571 6.4602 0.0916 12.938 0.0174 2.8392 0.2311" fill="none" stroke="#000" stroke-linejoin="round" stroke-width="1.2075"/>
<path d="m7.4751 100.61c0.116 0.1596 0.186 0.3668 0.348 0.479 0.09 0.063 0.232 0.0396 0.332-9e-3 0.14-0.0682 0.304-0.1676 0.338-0.319 0.378-1.6792 0.534-3.4016 0.876-5.0882 0.152-0.7528 0.38-1.4894 0.608-2.2226 0.376-1.2054 0.772-2.4058 1.206-3.5912 0.49-1.3312 1.106-2.6148 1.566-3.9558 0.794-2.3084 1.446-4.6632 2.198-6.9858 0.526-1.6258 1.066-3.2478 1.636-4.8584 0.164-0.4572 0.356-0.904 0.564-1.342 0.568-1.1952 1.214-2.3532 1.766-3.5562 0.528-1.1508 0.962-2.3422 1.472-3.5012 0.224-0.51 0.544-0.9784 0.728-1.5038 1.006-2.8594 1.868-5.7672 2.836-8.639 0.188-0.5608 0.406-1.112 0.636-1.6572 0.65-1.5408 1.31-3.0774 2-4.6 0.686-1.5108 1.442-2.988 2.128-4.4988 0.358-0.7894 0.688-1.5914 1.002-2.3996 0.576-1.4908 1.072-3.0132 1.668-4.496 0.76-1.8854 1.574-3.7492 2.402-5.6056 0.242-0.5418 0.52-1.0674 0.806-1.5866 0.45-0.8102 0.908-1.6162 1.4-2.3998 0.642-1.0174 1.314-2.0142 2.002-3.001 0.38-0.5474 0.78-1.0812 1.2-1.6 0.152-0.1904 0.36-0.333 0.514-0.524 0.114-0.1446 0.158-0.3418 0.286-0.476 1.092-1.1502 2.212-2.2734 3.362-3.3666 0.152-0.145 0.374-0.1998 0.532-0.3384 0.396-0.3478 0.728-0.7662 1.124-1.114 0.158-0.1386 0.37-0.2038 0.532-0.3384 0.242-0.2006 0.416-0.4756 0.668-0.6616 0.522-0.3856 1.074-0.736 1.646-1.0442 0.738-0.3986 1.474-0.8384 2.28-1.072 0.456-0.132 0.954-0.0624 1.424-6e-4 0.476 0.0626 0.918 0.2894 1.39 0.371 0.198 0.0342 0.406 0.0116 0.604-0.0268 0.14-0.0272 0.252-0.1572 0.394-0.1674 0.536-0.0384 1.082-0.0652 1.612 0.0232 0.928 0.155 1.838 0.4196 2.736 0.702 0.664 0.2092 1.31 0.4838 1.946 0.7698 0.562 0.2526 1.112 0.531 1.642 0.8444 0.288 0.1698 0.552 0.3804 0.802 0.6006 0.326 0.2858 0.596 0.632 0.924 0.914 0.14 0.1204 0.338 0.163 0.476 0.286 0.464 0.413 0.86 0.9006 1.324 1.314 0.158 0.1398 0.376 0.1978 0.532 0.3384 0.494 0.4444 0.918 0.9648 1.412 1.4092 0.156 0.1406 0.374 0.2 0.532 0.3384 0.362 0.3164 0.722 0.6422 1.02 1.019 0.71 0.9 1.398 1.824 2 2.8008 0.682 1.1068 1.238 2.2856 1.842 3.4368 0.198 0.3798 0.412 0.755 0.566 1.1552 0.724 1.8836 1.336 3.8102 2.068 5.6904 0.334 0.8528 0.782 1.6574 1.13 2.504 0.62 1.5086 1.25 3.0162 1.78 4.5594 0.558 1.6296 0.966 3.308 1.484 4.951 0.5 1.5854 1.022 3.1646 1.572 4.7334 0.852 2.4288 1.732 4.8478 2.634 7.2582 0.298 0.7946 0.7 1.55 0.966 2.3554 1.58 4.762 3.12 9.538 4.572 14.34 0.49 1.6158 0.804 3.2804 1.256 4.9072 0.168 0.6094 0.37 1.2108 0.606 1.7976 0.74403 1.8464 1.614 3.6412 2.332 5.4978 1.55 4.0096 2.89 8.098 4.468 12.096 0.384 0.9694 0.898 1.8834 1.408 2.792 1.026 1.8234 2.106 3.6166 3.2 5.3998 0.706 1.1508 1.452 2.2776 2.202 3.401 0.184 0.2774 0.382 0.5476 0.6 0.8 0.22 0.2568 0.496 0.4642 0.714 0.724 0.134 0.1612 0.196 0.376 0.338 0.5324 0.43 0.4782 0.89 0.9306 1.366 1.3626 0.212 0.1922 0.514 0.2822 0.696 0.505 0.954 1.18 1.69 2.531 2.686 3.676 1.226 1.41 2.588 2.6988 3.962 3.9666 0.372 0.3434 0.818 0.6004 1.256 0.8528 0.664 0.3812 1.348 0.7284 2.044 1.0446 1.368 0.62 2.742 1.2248 4.142 1.763 0.768 0.2946 1.54 0.6206 2.354 0.7322 0.928 0.1274 1.898 0.1934 2.81-0.0238 2.104-0.5012 4.112-1.3508 6.138-2.1082 1.286-0.4804 2.548-1.0276 3.794-1.6026 0.352-0.1626 0.676-0.384 0.994-0.6056 0.548-0.3808 1.082-0.7814 1.6-1.2 0.19-0.1536 0.332-0.3612 0.524-0.514 0.144-0.1156 0.342-0.1594 0.476-0.286 0.914-0.8576 1.802-1.7442 2.662-2.6566 0.194-0.2072 0.298-0.4898 0.496-0.6948 1.5238-1.5848 3.2158-3.0104 4.661-4.6676 0.851-0.9758 1.494-2.116 2.2004-3.201 1.1608-1.7824 2.3366-3.5578 3.4-5.3998 1.2998-2.2518 2.4308-4.5972 3.6852-6.8744 0.627-1.1378 1.3356-2.2298 1.9586-3.3698 0.418-0.765 0.8182-1.5418 1.1626-2.3424 1.068-2.4822 1.982-5.0294 3.073-7.5016 0.3898-0.8838 0.9522-1.6828 1.3652-2.5558 0.8972-1.8964 1.7626-3.809 2.5632-5.748 0.4664-1.1296 0.8556-2.2902 1.2358-3.4518 0.4316-1.3186 0.7694-2.6668 1.1986-3.9864 0.183-0.563 0.4028-1.1138 0.6366-1.6576 1.1788-2.7426 2.3702-5.48 3.6-8.2 0.413-0.9134 0.9208-1.7822 1.3274-2.6986 0.8654-1.9496 1.5542-3.978 2.487-5.8962 1.0294-2.1164 2.225-4.148 3.392-6.1916 0.4312-0.7552 0.912-1.4816 1.4004-2.201 0.0846-0.1244 0.2252-0.2028 0.314-0.324 0.6454-0.88 1.1994-1.8278 1.886-2.676 0.4506-0.5566 1.0514-0.9774 1.514-1.524 0.2748-0.3248 0.4386-0.73 0.686-1.076 0.5818-0.8134 1.1794-1.6158 1.8-2.4 0.1518-0.1918 0.3612-0.333 0.514-0.524 0.1156-0.1446 0.1676-0.3338 0.286-0.476 0.217-0.2604 0.497-0.4636 0.714-0.724 0.1186-0.1422 0.1656-0.3354 0.286-0.476 0.282-0.329 0.632-0.595 0.914-0.924 0.1206-0.1406 0.1622-0.3384 0.286-0.476 0.479-0.5322 1.0348-0.992 1.514-1.524 0.1408-0.1562 0.1948-0.379 0.3384-0.5324 0.8088-0.8638 1.6464-1.7016 2.5102-2.5102 0.172-0.161 0.4162-0.2304 0.589-0.3908 0.7822-0.7264 1.4642-1.5584 2.2674-2.2616 0.8226-0.7202 1.7156-1.3568 2.6-2 1.3166-0.9574 2.6402-1.9066 4.001-2.8004 0.5726-0.3762 1.1808-0.6974 1.7932-1.0052 0.8526-0.4286 1.6996-0.8814 2.5982-1.2024 2.0738-0.7404 4.1834-1.3806 6.3032-1.976 0.8612-0.2418 1.7448-0.4046 2.63-0.5328 0.3996-0.058 0.8104-0.0728 1.2112-0.0234 0.4782 0.059 0.9452 0.1974 1.4038 0.346 1.3254 0.4294 2.656 0.8524 3.943 1.3862 0.9624 0.3994 1.8816 0.899 2.7912 1.4074 0.2914 0.1628 0.5502 0.3806 0.8012 0.6006 0.2904 0.2544 0.5646 0.5286 0.819 0.819 0.22 0.251 0.4258 0.517 0.6008 0.8012 0.8926 1.4508 1.752 2.922 2.5996 4.3996 0.767 1.3372 1.5306 2.6772 2.2436 4.0438 0.3014 0.5782 0.5118 1.2002 0.797 1.7866 0.5956 1.2242 1.1706 2.4612 1.8446 3.644 1.182 2.0736 2.5782 4.0224 3.7198 6.1186 0.383 0.7032 0.5936 1.4888 0.8388 2.2512 0.52 1.6174 0.9282 3.2696 1.4556 4.8846 0.2182 0.6682 0.4824 1.3224 0.7796 1.9592 0.739 1.5838 1.5886 3.1144 2.3272 4.6984 0.2502 0.5364 0.4522 1.0954 0.637 1.6578 0.6372 1.9398 1.1926 3.9058 1.8284 5.8462 0.2424 0.7396 0.5008 1.4756 0.8056 2.1918 0.674 1.5836 1.4396 3.127 2.129 4.7042 0.2876 0.6578 0.58 1.3162 0.8014 1.9992 0.8698 2.6846 1.499 5.448 2.4702 8.0974 0.4994 1.3626 1.3174 2.587 1.9284 3.9032 0.3666 0.7898 0.7404 1.5816 1.0034 2.4114 0.4844 1.5278 0.849 3.0914 1.234 4.6472 0.3592 1.4512 0.6038 2.9306 0.9982 4.3726 0.2844 1.0404 0.6438 2.0606 1.0358 3.0654 0.2092 0.5358 0.4896 1.0418 0.7638 1.5474 0.5148 0.9488 1.0926 1.8626 1.6024 2.814 0.4126 0.7698 0.8376 1.5372 1.1638 2.3474 0.6198 1.5396 1.0774 3.1404 1.6698 4.6908 0.2338 0.6116 0.4654 1.232 0.8068 1.7904 0.5988 0.9794 1.3092 1.8868 2.0014 2.8024 0.1478 0.1956 0.377 0.3224 0.5148 0.5252 0.4366 0.643 0.8172 1.323 1.1996 1.9996 0.9126 1.6148 1.7514 3.2712 2.685 4.874 0.1808 0.3104 0.3844 0.6184 0.6528 0.8572 0.3472 0.3092 0.7638 0.533 1.1676 0.7634 0.678 0.3864 1.4208 0.659 2.0744 1.0852 0.8848 0.5772 1.645 1.3312 2.5256 1.9148 0.4736 0.3136 0.9644 0.656 1.5214 0.767 1.7154 0.3418 3.4734 0.4218 5.2158 0.5754 0.336 0.0296 0.6818 0.0442 1.0118-0.0268 0.5428-0.1164 1.063-0.3256 1.5794-0.5296 1.2642-0.4994 2.523-1.0156 3.7596-1.5798 0.9466-0.4318 1.8888-0.88 2.7864-1.4062 0.7022-0.4118 1.3522-0.9086 2.0008-1.4004 0.195-0.1478 0.3248-0.3718 0.524-0.514 0.7372-0.5266 1.5512-0.9424 2.276-1.486 0.6118-0.459 1.1226-1.0416 1.724-1.514 0.3344-0.2628 0.7358-0.4308 1.076-0.686 0.1958-0.1468 0.333-0.3612 0.524-0.514 0.1446-0.1156 0.3376-0.1632 0.476-0.286 0.4298-0.3816 0.8454-0.7824 1.219-1.219 0.397-0.4642 0.7044-0.999 1.086-1.476 0.1528-0.1912 0.3648-0.33 0.514-0.524 0.5188-0.6746 0.9672-1.4016 1.486-2.076 0.1492-0.194 0.3612-0.333 0.514-0.524 0.1156-0.1446 0.1608-0.3398 0.286-0.476 0.6256-0.681 1.336-1.281 1.9574-1.9656 0.07-0.0772 0.0966-0.193 0.0966-0.2972 0-0.234-0.022-0.4734-0.0964-0.6954-0.0278-0.0826-0.1092-0.161-0.1954-0.174-0.167-0.025-0.3688-0.0346-0.5016 0.0696-0.2608 0.205-0.3732 0.552-0.599 0.795-0.6626 0.7128-1.4386 1.3198-2.0616 2.0676-1.0476 1.257-1.884 2.6812-2.9384 3.9324-0.7184 0.8524-1.5214 1.6358-2.3666 2.3626-0.5748 0.4944-1.2738 0.8254-1.876 1.286-0.5328 0.4074-0.9874 0.9116-1.524 1.314-0.5326 0.3994-1.1344 0.699-1.676 1.086-0.393 0.2806-0.7244 0.6428-1.124 0.914-0.859 0.583-1.748 1.1216-2.645 1.6442-0.3668 0.2136-0.752 0.3954-1.1422 0.5624-1.4564 0.6236-2.9222 1.226-4.3958 1.8084-0.3068 0.1214-0.6166 0.2522-0.9428 0.3014-0.3992 0.0604-0.8082 0.0536-1.2108 0.0238-1.3032-0.0964-2.6024-0.2434-3.8994-0.4016-0.2344-0.0286-0.4712-0.0708-0.6902-0.1588-0.398-0.1596-0.7886-0.3462-1.1486-0.5792-0.56-0.3624-1.082-0.7818-1.6012-1.2006-0.1908-0.1538-0.315-0.3886-0.5252-0.5146-0.7968-0.4782-1.659-0.8384-2.474-1.285-0.211-0.1158-0.4152-0.2472-0.6008-0.4004-0.2054-0.1694-0.396-0.3584-0.5666-0.5626s-0.3206-0.4264-0.4528-0.6574c-1.1142-1.947-2.086-3.978-3.2852-5.874-0.869-1.3744-2.0088-2.562-2.9068-3.9176-0.2816-0.425-0.4334-0.924-0.6158-1.4002-0.647-1.69-1.1284-3.446-1.8712-5.096-1.06-2.3552-2.4148-4.5676-3.5272-6.8984-0.328-0.6872-0.592-1.4082-0.7882-2.144-0.4832-1.814-0.7988-3.669-1.2466-5.492-0.3212-1.3082-0.6428-2.6186-1.0594-3.8996-0.264-0.8116-0.6196-1.5918-0.9786-2.3662-0.6104-1.3166-1.429-2.5408-1.9286-3.9034-0.9704-2.6476-1.5988-5.4088-2.468-8.0912-0.222-0.685-0.515-1.3456-0.8034-2.0054-0.6892-1.577-1.4546-3.1206-2.129-4.704-0.3146-0.7388-0.5864-1.496-0.8366-2.2592-0.6282-1.917-1.1698-3.8616-1.7974-5.7788-0.1842-0.5626-0.4076-1.1122-0.637-1.6578-0.2544-0.6056-0.5226-1.206-0.8142-1.7946-0.4844-0.978-1.0472-1.9166-1.513-2.9038-0.3072-0.6512-0.5794-1.3208-0.8034-2.0052-0.588-1.7966-1.0294-3.6394-1.631-5.4314-0.2766-0.824-0.581-1.6468-1.0012-2.4076-1.3174-2.3856-2.8824-4.629-4.202-7.0136-0.7496-1.355-1.303-2.8102-1.9992-4.1934-0.6512-1.2942-1.3152-2.5834-2.0422-3.8368-1.0214-1.7606-2.0256-3.5384-3.2004-5.2008-0.4404-0.6234-1.0274-1.1368-1.619-1.619-0.5052-0.4116-1.0698-0.7526-1.6516-1.0462-0.9044-0.4564-1.8444-0.842-2.793-1.197-1.1462-0.4292-2.3156-0.7952-3.486-1.1532-0.4622-0.1414-0.929-0.2852-1.4086-0.3438-0.4008-0.049-0.8114-0.0332-1.2112 0.0234-0.872 0.123-1.7336 0.3144-2.5912 0.5136-0.7258 0.1684-1.4438 0.3712-2.1564 0.5884-1.4684 0.448-2.957 0.8454-4.3858 1.407-1.303 0.5122-2.5632 1.1354-3.7912 1.8074-0.9736 0.5328-1.8868 1.1712-2.801 1.8004-0.5952 0.4096-1.136 0.894-1.724 1.314-0.346 0.2472-0.7358 0.4308-1.076 0.686-0.4614 0.346-0.8686 0.7598-1.324 1.114-0.146 0.1136-0.34 0.1604-0.476 0.286-0.734 0.6776-1.39 1.4364-2.124 2.114-0.136 0.1256-0.3422 0.158-0.476 0.286-1.3506 1.2918-2.6738 2.6128-3.9666 3.9626-0.1454 0.1518-0.1986 0.3754-0.3384 0.5324-0.4134 0.4644-0.9006 0.8596-1.314 1.324-0.1398 0.157-0.2038 0.3708-0.3384 0.5324-0.2006 0.2408-0.4616 0.4264-0.6616 0.6676-0.118 0.1426-0.1656 0.3354-0.286 0.476-0.282 0.329-0.64 0.5884-0.914 0.924-0.6324 0.7746-1.2182 1.5866-1.8 2.4-0.2474 0.346-0.4156 0.7476-0.686 1.076-0.6658 0.8084-1.4764 1.4932-2.114 2.324-1.1374 1.482-2.19 3.0296-3.2004 4.601-0.6728 1.0462-1.25 2.1512-1.8438 3.244-0.7546 1.3888-1.534 2.7668-2.2008 4.1998-0.6132 1.3182-1.0786 2.7002-1.6342 4.0438-0.194 0.4696-0.3906 0.9386-0.6144 1.3948-0.1526 0.311-0.3706 0.588-0.5128 0.9038-1.4962 3.3202-2.956 6.657-4.4004 10-0.2346 0.5432-0.4536 1.0944-0.6364 1.6572-0.429 1.3194-0.7668 2.6674-1.1984 3.986-0.3802 1.1618-0.7682 2.3234-1.2362 3.4526-0.8122 1.959-1.6948 3.8888-2.6016 5.8056-0.4034 0.8526-0.9476 1.6354-1.3274 2.4986-1.0882 2.4732-2.0174 5.0136-3.0724 7.5012-0.2238 0.528-0.4846 1.0406-0.7626 1.5424-0.6296 1.1364-1.3332 2.231-1.9586 3.3698-1.3228 2.4098-2.495 4.9028-3.8852 7.2744-1.4404 2.4572-3.0144 4.8348-4.6004 7.2008-0.321 0.479-0.7586 0.8698-1.114 1.324-0.1296 0.1656-0.1894 0.384-0.3384 0.5324-0.3372 0.336-0.7544 0.583-1.1046 0.9056-0.4714 0.4342-0.9296 0.8844-1.357 1.362-0.1402 0.1566-0.1922 0.3812-0.3384 0.5324-1.6246 1.6838-3.2606 3.3594-4.9666 4.9626-0.554 0.521-1.144 1.0192-1.802 1.4006-1.08 0.6266-2.236 1.1144-3.386 1.6062-1.064 0.4564-2.156 0.8516-3.25 1.236-1.286 0.4522-2.582 0.879-3.888 1.2736-0.132 0.0398-0.274 0.0264-0.412 0.0264-0.738 0-1.488 0.1106-2.212-0.0264-0.944-0.1782-1.838-0.5624-2.734-0.9086-0.518-0.2006-0.992-0.5054-1.504-0.7284-0.558-0.2444-1.144-0.4226-1.7-0.6728-0.542-0.2432-1.066-0.523-1.588-0.8062-0.34-0.1856-0.676-0.3824-0.998-0.5996-0.298-0.201-0.598-0.4056-0.858-0.6532-1.082-1.0276-2.17-2.053-3.162-3.1666-0.666-0.7464-1.22-1.5866-1.8-2.4-0.248-0.346-0.4-0.7612-0.686-1.076-1.036-1.1388-2.204-2.1504-3.262-3.2676-0.146-0.1526-0.206-0.3688-0.338-0.5324-0.154-0.1904-0.376-0.3232-0.514-0.524-0.636-0.911-1.22-1.855-1.802-2.801-1.22-1.988-2.434-3.98-3.6-5.9998-0.382-0.6628-0.71599-1.3528-1.044-2.044-0.208-0.4382-0.394-0.8874-0.564-1.342-1.374-3.694-2.648-7.4256-4.068-11.102-0.848-2.1932-1.968-4.2794-2.732-6.503-0.638-1.8548-0.90803-3.8178-1.462-5.6994-0.582-1.9828-1.324-3.9156-1.944-5.8868-0.57-1.809-1.058-3.643-1.626-5.4524-0.386-1.226-0.794-2.4458-1.236-3.6524-0.214-0.58-0.514-1.1252-0.732-1.7036-0.904-2.4096-1.808-4.8204-2.634-7.2582-1.264-3.7306-2.368-7.5144-3.634-11.244-0.348-1.02-0.782-2.0078-1.202-2.9998-0.358-0.843-0.796-1.6508-1.13-2.5038-0.734-1.8802-1.296-3.8262-2.068-5.6904-0.506-1.2198-1.142-2.3834-1.764-3.5478-0.448-0.834-0.926-1.6518-1.444-2.4438-0.366-0.5584-0.756-1.1042-1.2-1.6012-0.698-0.7794-1.454-1.5068-2.22-2.219-0.154-0.1432-0.376-0.1978-0.532-0.3384-0.514-0.4618-0.954-0.9998-1.468-1.4616-0.156-0.1406-0.376-0.1986-0.532-0.3384-0.446-0.396-0.822-0.8656-1.268-1.2616-0.158-0.1396-0.368-0.207-0.532-0.3384-0.172-0.1368-0.292-0.3324-0.468-0.4616-0.33-0.2414-0.684-0.4504-1.044-0.6442-0.638-0.3428-1.278-0.6902-1.948-0.9638-0.784-0.3194-1.592-0.5762-2.406-0.811-0.7-0.2022-1.408-0.3856-2.128-0.4978-0.398-0.0624-0.81-0.061-1.212-0.0232-0.208 0.0198-0.392 0.1686-0.6 0.194-0.33 0.04-0.67 0.0558-0.998 2e-4 -0.41-0.0694-0.778-0.3166-1.19-0.3708-0.536-0.0706-1.1-0.14-1.624 4e-4 -0.888 0.2388-1.712 0.6808-2.524 1.1148-0.636 0.3408-1.208 0.7904-1.802 1.2014-0.274 0.1898-0.552 0.3782-0.8 0.6-0.394 0.3508-0.726 0.7666-1.124 1.114-0.14 0.1218-0.336 0.1642-0.476 0.286-0.396 0.3474-0.728 0.7662-1.124 1.114-0.158 0.1386-0.376 0.1982-0.532 0.3384-0.46 0.4118-0.898 0.8498-1.31 1.3102-0.14 0.1566-0.2 0.3754-0.338 0.5324-0.414 0.4644-0.91 0.8526-1.314 1.324-0.436 0.5054-0.82 1.0532-1.2 1.6-0.382 0.546-0.706 1.1306-1.088 1.676-0.086 0.1232-0.232 0.1974-0.312 0.324-0.76 1.1844-1.51 2.376-2.202 3.6008-0.51 0.906-0.978 1.8382-1.406 2.7864-0.774 1.7172-1.502 3.456-2.202 5.2058-0.726 1.8182-1.306 3.6934-2.07 5.4958-0.904 2.1318-1.974 4.1888-2.928 6.2986-0.69 1.525-1.432 3.0308-2 4.605-1.058 2.9292-1.826 5.957-2.87 8.8908-0.358 1.0028-0.906 1.9272-1.33 2.904-0.444 1.0254-0.802 2.0878-1.272 3.1014-0.46 0.9902-1.03 1.9256-1.514 2.904-0.226 0.457-0.444 0.92-0.616 1.4002-0.636 1.7832-1.232 3.581-1.806 5.3856-0.638 2.0086-1.142 4.0604-1.828 6.053-0.578 1.68-1.342 3.291-1.966 4.9554-0.368 0.9854-0.694 1.9866-1.006 2.9912-0.28 0.9-0.576 1.7984-0.77 2.7206-0.308 1.4638-0.524 2.9456-0.732 4.4268" fill="#bfbfbf"/>
<path d="m70.824 14.158c-0.2735-0.0086-0.54659 0.0079-0.80859 0.07813-0.888 0.2388-1.7114 0.68124-2.5234 1.1152-0.636 0.3408-1.2087 0.79017-1.8027 1.2012-0.274 0.1898-0.55083 0.37781-0.79883 0.59961-0.394 0.3508-0.727 0.76783-1.125 1.1152-0.14 0.1218-0.33461 0.16336-0.47461 0.28516-0.396 0.3474-0.729 0.76548-1.125 1.1133-0.158 0.1386-0.37525 0.19964-0.53125 0.33984-0.46 0.4118-0.89855 0.85015-1.3105 1.3105-0.14 0.1566-0.19989 0.37425-0.33789 0.53125-0.414 0.4644-0.91045 0.85282-1.3145 1.3242-0.436 0.5054-0.81922 1.0528-1.1992 1.5996-0.382 0.546-0.70589 1.1304-1.0879 1.6758-0.086 0.1232-0.2325 0.19762-0.3125 0.32422-0.76 1.1844-1.5092 2.3768-2.2012 3.6016-0.51 0.906-0.97825 1.8389-1.4062 2.7871-0.774 1.7172-1.5031 3.4553-2.2031 5.2051-0.726 1.8182-1.3063 3.6937-2.0703 5.4961-0.904 2.1318-1.9737 4.189-2.9277 6.2988-0.69 1.525-1.432 3.0293-2 4.6035-1.058 2.9292-1.8251 5.9568-2.8691 8.8906-0.358 1.0028-0.90608 1.9275-1.3301 2.9043-0.444 1.0254-0.80148 2.088-1.2715 3.1016-0.46 0.9902-1.0316 1.9259-1.5156 2.9043-0.226 0.457-0.44324 0.92019-0.61524 1.4004-0.636 1.7832-1.2326 3.5802-1.8066 5.3848-0.638 2.0086-1.1421 4.0621-1.8281 6.0547-0.578 1.68-1.3408 3.2907-1.9648 4.9551-0.368 0.9854-0.69386 1.9856-1.0059 2.9902-0.28 0.9-0.57553 1.7985-0.76953 2.7207-0.308 1.4638-0.52442 2.9465-0.73242 4.4277v0.8125c0.116 0.1596 0.18566 0.36631 0.34766 0.47851 0.09 0.063 0.23203 0.0388 0.33203-0.01 0.14-0.0682 0.30389-0.16696 0.33789-0.31836 0.378-1.6792 0.533-3.4013 0.875-5.0879 0.152-0.7528 0.38138-1.4895 0.60938-2.2227 0.376-1.2054 0.77108-2.4064 1.2051-3.5918 0.49-1.3312 1.1064-2.6141 1.5664-3.9551 0.794-2.3084 1.4453-4.6637 2.1973-6.9863 0.526-1.6258 1.0667-3.2468 1.6367-4.8574 0.164-0.4572 0.35645-0.90575 0.56445-1.3438 0.568-1.1952 1.2136-2.3517 1.7656-3.5547 0.528-1.1508 0.96266-2.343 1.4727-3.502 0.224-0.51 0.54256-0.97851 0.72656-1.5039 1.006-2.8594 1.8679-5.7669 2.8359-8.6387 0.188-0.5608 0.40672-1.113 0.63672-1.6582 0.65-1.5408 1.31-3.077 2-4.5996 0.686-1.5108 1.4429-2.9872 2.1289-4.498 0.358-0.7894 0.68795-1.5922 1.002-2.4004 0.576-1.4908 1.072-3.0133 1.668-4.4961 0.76-1.8854 1.5724-3.7491 2.4004-5.6055 0.242-0.5418 0.52064-1.0667 0.80664-1.5859 0.45-0.8102 0.90839-1.6168 1.4004-2.4004 0.642-1.0174 1.314-2.0132 2.002-3 0.38-0.5474 0.77922-1.0828 1.1992-1.6016 0.152-0.1904 0.36162-0.33244 0.51562-0.52344 0.114-0.1446 0.15716-0.34236 0.28516-0.47656 1.092-1.1502 2.2113-2.272 3.3613-3.3652 0.152-0.145 0.3752-0.20124 0.5332-0.33984 0.396-0.3478 0.72705-0.76548 1.123-1.1133 0.158-0.1386 0.3712-0.20329 0.5332-0.33789 0.242-0.2006 0.41597-0.47611 0.66797-0.66211 0.522-0.3856 1.0725-0.73477 1.6445-1.043 0.738-0.3986 1.4752-0.83867 2.2812-1.0723 0.456-0.132 0.95383-0.06375 1.4238-2e-3 0.476 0.0626 0.91667 0.28949 1.3887 0.37109 0.198 0.0342 0.40747 0.01301 0.60547-0.02539 0.14-0.0272 0.25058-0.15777 0.39258-0.16797 0.536-0.0384 1.0833-0.06496 1.6133 0.02344 0.928 0.155 1.8383 0.41877 2.7363 0.70117 0.664 0.2092 1.3093 0.48353 1.9453 0.76953 0.562 0.2526 1.1126 0.5323 1.6426 0.8457 0.288 0.1698 0.55078 0.37941 0.80078 0.59961 0.326 0.2858 0.59583 0.63206 0.92383 0.91406 0.14 0.1204 0.33856 0.16411 0.47656 0.28711 0.464 0.413 0.86022 0.8991 1.3242 1.3125 0.158 0.1398 0.37525 0.19924 0.53125 0.33984 0.494 0.4444 0.91811 0.9638 1.4121 1.4082 0.156 0.1406 0.3752 0.19949 0.5332 0.33789 0.362 0.3164 0.72153 0.64273 1.0195 1.0195 0.71 0.9 1.398 1.824 2 2.8008 0.682 1.1068 1.2378 2.2863 1.8418 3.4375 0.198 0.3798 0.41241 0.7541 0.56641 1.1543 0.724 1.8836 1.3364 3.8112 2.0684 5.6914 0.334 0.8528 0.78091 1.6573 1.1289 2.5039 0.62 1.5086 1.2512 3.0154 1.7812 4.5586 0.558 1.6296 0.96442 3.3082 1.4824 4.9512 0.5 1.5854 1.0223 3.1656 1.5723 4.7344 0.852 2.4288 1.7328 4.8474 2.6348 7.2578 0.298 0.7946 0.69884 1.5501 0.96484 2.3555 1.58 4.762 3.1203 9.538 4.5723 14.34 0.49 1.6158 0.80386 3.2794 1.2559 4.9062 0.168 0.6094 0.37142 1.212 0.60742 1.7988 0.74403 1.8464 1.614 3.6395 2.332 5.4961 1.55 4.0096 2.8888 8.0995 4.4668 12.098 0.384 0.9694 0.8982 1.8824 1.4082 2.791 1.026 1.8234 2.1072 3.6172 3.2012 5.4004 0.706 1.1508 1.4512 2.277 2.2012 3.4004 0.184 0.2774 0.3816 0.54838 0.59961 0.80078 0.21999 0.2568 0.49684 0.46285 0.71484 0.72265 0.134 0.1612 0.19589 0.37681 0.33789 0.53321 0.43 0.4782 0.88923 0.93128 1.3652 1.3633 0.212 0.1922 0.51527 0.2811 0.69727 0.5039 0.954 1.18 1.6896 2.5308 2.6856 3.6758 1.226 1.41 2.5869 2.699 3.9609 3.9668 0.372 0.3434 0.81786 0.60112 1.2559 0.85352 0.664 0.3812 1.3489 0.72872 2.0449 1.0449 1.368 0.62 2.7426 1.2235 4.1426 1.7617 0.768 0.2946 1.5395 0.62082 2.3535 0.73242 0.928 0.1274 1.8986 0.19376 2.8106-0.0234 2.104-0.5012 4.1107-1.35 6.1367-2.1074 1.286-0.4804 2.5489-1.0285 3.7949-1.6035 0.352-0.1626 0.67614-0.38387 0.99414-0.60547 0.548-0.3808 1.0816-0.78062 1.5996-1.1992 0.19-0.1536 0.33143-0.36087 0.52343-0.51367 0.144-0.1156 0.34257-0.16051 0.47657-0.28711 0.914-0.8576 1.8021-1.7438 2.6621-2.6562 0.194-0.2072 0.29809-0.49032 0.49609-0.69532 1.5238-1.5848 3.215-3.0108 4.6602-4.668 0.851-0.9758 1.4948-2.1162 2.2012-3.2012 1.1608-1.7824 2.337-3.5564 3.4004-5.3984 1.2998-2.2518 2.4292-4.5978 3.6836-6.875 0.627-1.1378 1.336-2.2291 1.959-3.3691 0.418-0.765 0.81966-1.5432 1.1641-2.3438 1.068-2.4822 1.9813-5.0278 3.0723-7.5 0.3898-0.8838 0.95224-1.6836 1.3652-2.5566 0.8972-1.8964 1.7619-3.809 2.5625-5.748 0.4664-1.1296 0.85613-2.2896 1.2363-3.4512 0.4316-1.3186 0.77002-2.6667 1.1992-3.9863 0.183-0.563 0.40291-1.1144 0.63671-1.6582 1.1788-2.7426 2.3698-5.4792 3.5996-8.1992 0.413-0.9134 0.91958-1.7828 1.3262-2.6992 0.8654-1.9496 1.5555-3.9783 2.4883-5.8965 1.0294-2.1164 2.2236-4.1478 3.3906-6.1914 0.4312-0.7552 0.91199-1.4818 1.4004-2.2012 0.0846-0.1244 0.22566-0.20302 0.31446-0.32422 0.6454-0.88 1.2001-1.8276 1.8867-2.6758 0.4506-0.5566 1.0511-0.97684 1.5137-1.5234 0.2748-0.3248 0.43814-0.73017 0.68554-1.0762 0.5818-0.8134 1.1802-1.6162 1.8008-2.4004 0.1518-0.1918 0.36088-0.33244 0.51368-0.52344 0.1156-0.1446 0.16675-0.33436 0.28515-0.47656 0.217-0.2604 0.49785-0.46421 0.71485-0.72461 0.1186-0.1422 0.16475-0.33401 0.28515-0.47461 0.282-0.329 0.63207-0.59483 0.91407-0.92383 0.12059-0.1406 0.1633-0.33896 0.2871-0.47656 0.479-0.5322 1.0345-0.99144 1.5137-1.5234 0.1408-0.1562 0.19429-0.3798 0.33789-0.5332 0.8088-0.8638 1.6479-1.7012 2.5117-2.5098 0.172-0.161 0.41509-0.23022 0.58789-0.39062 0.7822-0.7264 1.4644-1.5585 2.2676-2.2617 0.8226-0.7202 1.7152-1.3568 2.5996-2 1.3166-0.9574 2.6412-1.907 4.002-2.8008 0.5726-0.3762 1.1806-0.69806 1.793-1.0059 0.8526-0.4286 1.699-0.88017 2.5976-1.2012 2.0738-0.7404 4.1829-1.3812 6.3027-1.9766 0.8612-0.2418 1.7457-0.405 2.6309-0.5332 0.3996-0.058 0.81013-0.07284 1.2109-0.02344 0.4782 0.059 0.9457 0.1971 1.4043 0.3457 1.3254 0.4294 2.6564 0.85292 3.9434 1.3867 0.9624 0.3994 1.8814 0.8998 2.791 1.4082 0.29141 0.1628 0.54979 0.37961 0.80079 0.59961 0.2904 0.2544 0.56396 0.52796 0.81836 0.81836 0.22 0.251 0.42656 0.51853 0.60156 0.80273 0.8926 1.4508 1.752 2.9208 2.5996 4.3984 0.767 1.3372 1.5311 2.6783 2.2441 4.0449 0.3014 0.5782 0.51167 1.1988 0.79687 1.7852 0.5956 1.2242 1.1698 2.4617 1.8438 3.6445 1.182 2.0736 2.5791 4.0229 3.7207 6.1191 0.383 0.7032 0.59269 1.4876 0.83789 2.25 0.52 1.6174 0.92768 3.2698 1.4551 4.8848 0.2182 0.6682 0.48404 1.3241 0.78124 1.9609 0.739 1.5838 1.5876 3.1133 2.3262 4.6973 0.2502 0.5364 0.45192 1.0958 0.63672 1.6582 0.6372 1.9398 1.1923 3.9053 1.8281 5.8457 0.2424 0.7396 0.50184 1.4752 0.80664 2.1914 0.674 1.5836 1.4395 3.1279 2.1289 4.7051 0.2876 0.6578 0.57938 1.315 0.80078 1.998 0.8698 2.6846 1.4995 5.4483 2.4707 8.0977 0.4994 1.3626 1.3167 2.5881 1.9277 3.9043 0.3666 0.7898 0.7409 1.5804 1.0039 2.4102 0.4844 1.5278 0.84938 3.0926 1.2344 4.6484 0.3592 1.4512 0.60364 2.931 0.99804 4.373 0.2844 1.0404 0.64316 2.0597 1.0352 3.0645 0.2092 0.5358 0.48947 1.0413 0.76367 1.5469 0.5148 0.9488 1.0937 1.8631 1.6035 2.8145 0.4126 0.7698 0.83786 1.5374 1.1641 2.3476 0.6198 1.5396 1.0756 3.141 1.668 4.6914 0.2338 0.6116 0.46719 1.2307 0.80859 1.7891 0.5988 0.9794 1.3078 1.8871 2 2.8027 0.1478 0.1956 0.37783 0.32259 0.51563 0.52539 0.4366 0.643 0.81682 1.3234 1.1992 2 0.9126 1.6148 1.7519 3.2702 2.6855 4.873 0.1808 0.3104 0.38395 0.61863 0.65235 0.85743 0.3472 0.3092 0.76417 0.53327 1.168 0.76367 0.678 0.3864 1.4206 0.65973 2.0742 1.0859 0.8848 0.57721 1.6448 1.3305 2.5254 1.9141 0.4736 0.3136 0.96448 0.65658 1.5215 0.76758 1.7154 0.3418 3.4724 0.42061 5.2148 0.57421 0.336 0.0296 0.68368 0.0456 1.0137-0.0254 0.5428-0.1164 1.0617-0.32529 1.5781-0.52929 0.45373-0.17924 0.90586-0.36382 1.3574-0.54883v-1.3262c-0.73109 0.30066-1.4582 0.61178-2.1934 0.90234-0.3068 0.1214-0.61716 0.25158-0.94336 0.30078-0.3992 0.0604-0.80833 0.0552-1.2109 0.0254-1.3032-0.0964-2.6014-0.24414-3.8984-0.40234-0.2344-0.0286-0.47045-0.0702-0.68945-0.1582-0.398-0.1596-0.79039-0.34708-1.1504-0.58008-0.56-0.3624-1.0804-0.78237-1.5996-1.2012-0.1908-0.1538-0.31519-0.38768-0.5254-0.51368-0.7968-0.4782-1.6596-0.83855-2.4746-1.2852-0.211-0.1158-0.41597-0.24719-0.60157-0.40039-0.2054-0.1694-0.3958-0.3583-0.5664-0.5625s-0.32093-0.42721-0.45313-0.65821c-1.1142-1.947-2.086-3.977-3.2852-5.873-0.869-1.3744-2.0082-2.5624-2.9062-3.918-0.2816-0.425-0.43284-0.92419-0.61524-1.4004-0.647-1.69-1.1283-3.4457-1.8711-5.0957-1.06-2.3552-2.415-4.5676-3.5274-6.8984-0.328-0.6872-0.59286-1.4087-0.78906-2.1445-0.4832-1.814-0.79829-3.6692-1.2461-5.4922-0.3212-1.3082-0.642-2.6174-1.0586-3.8984-0.264-0.8116-0.61951-1.5928-0.97851-2.3672-0.6104-1.3166-1.4301-2.5397-1.9297-3.9023-0.9704-2.6476-1.5976-5.4094-2.4668-8.0918-0.222-0.685-0.51628-1.3461-0.80468-2.0059-0.6892-1.577-1.4545-3.1197-2.1289-4.7031-0.3146-0.7388-0.58574-1.4966-0.83594-2.2598-0.6282-1.917-1.1693-3.8621-1.7969-5.7793-0.1842-0.5626-0.40927-1.1106-0.63867-1.6562-0.2544-0.6056-0.5209-1.2063-0.8125-1.7949-0.4844-0.978-1.0479-1.9171-1.5137-2.9043-0.3072-0.6512-0.57873-1.3215-0.80273-2.0059-0.588-1.7966-1.0312-3.6377-1.6328-5.4297-0.2766-0.824-0.5798-1.6474-1-2.4082-1.3174-2.3856-2.8835-4.6291-4.2031-7.0137-0.7496-1.355-1.3018-2.8102-1.998-4.1934-0.6512-1.2942-1.316-2.5845-2.043-3.8379-1.0214-1.7606-2.0244-3.5368-3.1992-5.1992-0.4404-0.6234-1.0275-1.1369-1.6191-1.6191-0.5052-0.4116-1.0706-0.75328-1.6524-1.0469-0.9044-0.4564-1.8444-0.84227-2.793-1.1973-1.1462-0.4292-2.3159-0.79434-3.4863-1.1523-0.4622-0.1414-0.92861-0.28515-1.4082-0.34375-0.4008-0.049-0.81113-0.03316-1.2109 0.02344-0.872 0.123-1.7342 0.31447-2.5918 0.51367-0.7258 0.1684-1.4436 0.37069-2.1562 0.58789-1.4684 0.448-2.956 0.84465-4.3848 1.4062-1.303 0.5122-2.563 1.1366-3.791 1.8086-0.9736 0.5328-1.8885 1.1716-2.8027 1.8008-0.5952 0.4096-1.1346 0.8925-1.7226 1.3125-0.346 0.2472-0.73597 0.4323-1.0762 0.6875-0.46139 0.346-0.86881 0.75908-1.3242 1.1133-0.146 0.1136-0.34057 0.15956-0.47657 0.28516-0.734 0.6776-1.389 1.4376-2.123 2.1152-0.136 0.1256-0.34277 0.15716-0.47657 0.28516-1.3506 1.2918-2.674 2.6131-3.9668 3.9629-0.1454 0.1518-0.19809 0.3762-0.33789 0.5332-0.4134 0.4644-0.90106 0.85787-1.3145 1.3223-0.1398 0.157-0.20329 0.3716-0.33789 0.5332-0.2006 0.2408-0.46211 0.42677-0.66211 0.66797-0.118 0.1426-0.16475 0.33596-0.28515 0.47656-0.282 0.329-0.64007 0.58823-0.91406 0.92383-0.6324 0.7746-1.219 1.585-1.8008 2.3984-0.2474 0.346-0.41514 0.74777-0.68554 1.0762-0.6658 0.8084-1.4776 1.4934-2.1152 2.3242-1.1374 1.482-2.1888 3.0302-3.1992 4.6016-0.6728 1.0462-1.25 2.1513-1.8438 3.2441-0.7546 1.3888-1.5344 2.7662-2.2012 4.1992-0.6132 1.3182-1.0792 2.7013-1.6348 4.0449-0.194 0.4696-0.38949 0.93833-0.61329 1.3945-0.1526 0.311-0.37147 0.5885-0.51367 0.9043-1.4962 3.3202-2.956 6.6568-4.4004 10-0.2346 0.5432-0.45392 1.0934-0.63672 1.6562-0.429 1.3194-0.76566 2.6677-1.1973 3.9863-0.3802 1.1618-0.76833 2.3239-1.2363 3.4531-0.8122 1.959-1.6948 3.8879-2.6016 5.8047-0.4034 0.8526-0.94833 1.6348-1.3281 2.498-1.0882 2.4732-2.0173 5.0144-3.0723 7.502-0.2238 0.528-0.48372 1.0412-0.76172 1.543-0.6296 1.1364-1.3336 2.2303-1.959 3.3691-1.3228 2.4098-2.4946 4.9038-3.8848 7.2754-1.4404 2.4572-3.0156 4.8332-4.6016 7.1992-0.321 0.479-0.75789 0.87001-1.1133 1.3242-0.1296 0.1656-0.18889 0.38481-0.33789 0.53321-0.3372 0.336-0.75527 0.58365-1.1055 0.90625-0.47139 0.4342-0.93002 0.88373-1.3574 1.3613-0.1402 0.1566-0.19169 0.38005-0.33789 0.53125-1.6246 1.6838-3.2608 3.3597-4.9668 4.9629-0.554 0.521-1.1428 1.019-1.8008 1.4004-1.08 0.6266-2.2367 1.1156-3.3867 1.6074-1.064 0.4564-2.156 0.85193-3.25 1.2363-1.286 0.4522-2.5827 0.87883-3.8887 1.2734-0.132 0.0398-0.27411 0.0254-0.41211 0.0254-0.738 0-1.4869 0.1116-2.2109-0.0254-0.944-0.1782-1.8384-0.56395-2.7344-0.91015-0.518-0.2006-0.9919-0.50356-1.5039-0.72656-0.558-0.2444-1.1452-0.42363-1.7012-0.67383-0.542-0.2432-1.0659-0.52344-1.5879-0.80664-0.34-0.1856-0.67604-0.38241-0.99804-0.59961-0.298-0.201-0.59743-0.40475-0.85743-0.65235-1.082-1.0276-2.1701-2.0524-3.1621-3.166-0.666-0.7464-1.2188-1.587-1.7988-2.4004-0.248-0.346-0.4015-0.76137-0.6875-1.0762-1.036-1.1388-2.2037-2.1504-3.2617-3.2676-0.146-0.1526-0.20589-0.36961-0.33789-0.53321-0.154-0.1904-0.37567-0.32263-0.51367-0.52343-0.636-0.911-1.2207-1.8548-1.8027-2.8008-1.22-1.988-2.4336-3.9802-3.5996-6-0.382-0.6628-0.71497-1.3537-1.043-2.0449-0.208-0.4382-0.39445-0.88719-0.56445-1.3418-1.374-3.694-2.6484-7.4248-4.0684-11.102-0.848-2.1932-1.9684-4.2803-2.7324-6.5039-0.638-1.8548-0.90694-3.8176-1.4609-5.6992-0.582-1.9828-1.3253-3.9155-1.9453-5.8867-0.57-1.809-1.057-3.6418-1.625-5.4512-0.386-1.226-0.79433-2.4457-1.2363-3.6523-0.214-0.58-0.51442-1.1267-0.73242-1.7051-0.904-2.4096-1.8068-4.82-2.6328-7.2578-1.264-3.7306-2.3688-7.5143-3.6348-11.244-0.348-1.02-0.78117-2.008-1.2012-3-0.358-0.843-0.79686-1.6509-1.1309-2.5039-0.734-1.8802-1.2964-3.8253-2.0684-5.6895-0.506-1.2198-1.1417-2.3844-1.7637-3.5488-0.448-0.834-0.92536-1.6514-1.4434-2.4434-0.366-0.5584-0.75717-1.1046-1.2012-1.6016-0.698-0.7794-1.4528-1.5066-2.2188-2.2188-0.154-0.1432-0.3772-0.19729-0.5332-0.33789-0.514-0.4618-0.9528-0.99914-1.4668-1.4609-0.156-0.1406-0.3772-0.20004-0.5332-0.33984-0.446-0.396-0.82158-0.86572-1.2676-1.2617-0.158-0.1396-0.36725-0.20649-0.53125-0.33789-0.172-0.1368-0.29275-0.33174-0.46875-0.46094-0.33-0.2414-0.68297-0.45073-1.043-0.64453-0.638-0.3428-1.2792-0.69124-1.9492-0.96484-0.784-0.3194-1.5922-0.57575-2.4062-0.81055-0.7-0.2022-1.407-0.38585-2.127-0.49805-0.398-0.0624-0.81089-0.06124-1.2129-0.02344-0.208 0.0198-0.39161 0.16991-0.59961 0.19531-0.33 0.04-0.67005 0.0556-0.99805 0-0.41-0.0694-0.77745-0.31689-1.1895-0.37109-0.268-0.0353-0.54291-0.0695-0.81641-0.07813z" fill="#319ad7" stroke="#319ad7" stroke-width=".919"/>
<path d="m49.528 6.3035h24.764" fill="none" stroke="#319ad7" stroke-linecap="round" stroke-width="1.6"/>
<path d="m69.945 2.4535 4.5025 4.0523-4.0523 2.7015" fill="none" stroke="#319ad7" stroke-linecap="round" stroke-width="1.6"/>
</svg>
