<?xml version="1.0" encoding="UTF-8" standalone="no"?>
<svg
   xmlns:dc="http://purl.org/dc/elements/1.1/"
   xmlns:cc="http://creativecommons.org/ns#"
   xmlns:rdf="http://www.w3.org/1999/02/22-rdf-syntax-ns#"
   xmlns:svg="http://www.w3.org/2000/svg"
   xmlns="http://www.w3.org/2000/svg"
   xmlns:sodipodi="http://sodipodi.sourceforge.net/DTD/sodipodi-0.dtd"
   xmlns:inkscape="http://www.inkscape.org/namespaces/inkscape"
   inkscape:version="1.0 (4035a4f, 2020-05-01)"
   sodipodi:docname="reverb - page 15.svg"
   id="svg949"
   version="1.2"
   viewBox="0 0 340.00001 140"
   height="140"
   width="340">
  <metadata
     id="metadata955">
    <rdf:RDF>
      <cc:Work
         rdf:about="">
        <dc:format>image/svg+xml</dc:format>
        <dc:type
           rdf:resource="http://purl.org/dc/dcmitype/StillImage" />
        <dc:title>reverb</dc:title>
      </cc:Work>
    </rdf:RDF>
  </metadata>
  <defs
     id="defs953" />
  <sodipodi:namedview
     inkscape:current-layer="svg949"
     inkscape:window-maximized="0"
     inkscape:window-y="293"
     inkscape:window-x="0"
     inkscape:cy="61.211408"
     inkscape:cx="166.83359"
     inkscape:zoom="2.4805772"
     showgrid="false"
     id="namedview951"
     inkscape:window-height="874"
     inkscape:window-width="1440"
     inkscape:pageshadow="2"
     inkscape:pageopacity="0"
     guidetolerance="10"
     gridtolerance="10"
     objecttolerance="10"
     borderopacity="1"
     bordercolor="#666666"
     pagecolor="#ffffff" />
  <title
     id="title833">reverb</title>
  <path
     style="stroke:#5dabd8;stroke-opacity:1"
     fill="none"
     stroke="#fff3a8"
     stroke-width="5.19639"
     stroke-linecap="butt"
     stroke-linejoin="round"
     opacity="0.250004"
     d="m 54.008708,104.90183 0.186971,0.25975 -0.0718,-0.15224 0.05833,0.0696 0.02094,-0.0546 0.07778,0.0538 0.201928,-0.0965 0.01496,-0.0734 0.01645,0.1037 0.02244,-0.0933 0.31411,-0.22787 0.157056,-0.30168 0.08376,-0.0544 0.160047,-0.41841 0.101712,-0.10571 0.255776,-0.58832 0.237826,-0.35844 0.239323,-0.71108 0.07927,-0.0289 0.290179,-0.91146 0.05983,-0.0644 0.197441,-0.78028 0.12714,-0.28603 0.185475,-1.291765 0.12714,-0.519113 v -0.238094 l 0.379924,-1.86604 0.06133,-0.907445 0.296162,-1.207119 0.121157,-1.171615 0.09124,-0.293857 0.107695,-0.869334 0.146585,-0.40819 0.478645,-2.74099 0.189962,-1.383833 0.191458,-2.182563 0.170517,-0.948765 0.05385,-0.595536 0.175005,-0.735344 0.04936,-0.689209 0.257272,-1.761133 0.01795,-0.470973 0.177996,-1.272108 0.103207,-0.412001 0.08675,-1.00834 0.191458,-1.201302 0.03141,-0.824403 0.172013,-1.538886 0.05235,-0.985071 0.07479,-0.430455 0.03141,-0.764829 0.08975,-0.593932 0.03291,-1.02258 0.11667,-0.839648 0.212398,-0.966216 0.113679,-0.975845 0.121156,-0.37389 0.02094,-0.334976 0.251289,-1.27612 0.02244,-0.597743 0.07628,-0.297066 0.230348,-2.300305 -0.05684,-0.935928 0.119661,-1.451632 0.02393,-1.012752 -0.0703,-1.729441 0.05235,-0.738152 0.122653,-0.707663 0.133123,-1.975558 -0.02992,-0.468165 0.03291,-0.55903 0.197441,-1.196688 -0.09723,-0.729928 0.0075,-0.416213 0.216886,-1.573386 0.01795,-0.542582 -0.06133,-0.478395 0.0075,-0.462949 0.09274,-1.04284 0.0344,0.04192 -0.06581,-0.892602 0.08825,-1.417532 -0.04188,-0.673764 0.03739,-0.584704 -0.01945,-1.549918 0.249793,-1.814289 -0.06282,-0.37389 -0.0075,-0.686802 0.143593,-0.729727 0.04039,-0.888791 0.115174,-0.514499 0.118165,-1.161586 0.240818,-0.781679 0.109191,-0.531349 -0.03291,-0.03631 0.04188,-0.327354 0.06133,-0.195971 0.02244,0.07422 0.106199,-0.477391 0.185475,-0.50407 0.03889,0.01585 -0.02244,-0.345607 0.05235,-0.551809 0.04936,-0.279414 0.01645,0.177317 0.146585,-0.664738 0.191458,-0.398762 0.0075,-0.46315 0.06282,-0.188149 0.02842,0.289243 0.104704,-0.13038 0.02393,0.04694 0.02393,-0.200585 0.02094,0.04232 0.145089,-0.276005 0.02842,-0.315921 v 0.196172 l 0.05534,0.007 0.08975,-0.245115 0.155559,-0.185541 0.119661,-0.436272 0.0075,0.06058 0.02992,-0.15084 0.03889,-0.02708 0.009,0.04794 v -0.135194 l 0.06282,-0.08746 0.04936,-0.400166 0.04487,-0.08545 0.02094,0.134592 0.0344,-0.07462 -0.0075,0.09789 0.09274,-0.238897 -0.01346,-0.165683 v 0.132988 l 0.05086,-0.103502 v 0.108717 -0.258955 l 0.01346,0.112127 0.03141,-0.255143 0.01047,0.142214 0.09872,-0.411199 -0.01346,0.09508 0.01197,-0.05877 0.07329,0.136398 0.08526,0.04152 0.160047,-0.05195 0.05684,0.09187 -0.02692,0.01805 0.04936,0.225658 -0.0075,-0.131183 0.0344,0.103903 0.04039,0.364262 -0.01047,0.254341 0.139106,0.271793 0.191458,1.112643 -0.0374,0.896614 0.01496,1.148748 0.05983,0.547797 -0.03141,2.416243 0.104703,0.424438 0.143593,1.274916 0.04637,0.002 0.02244,0.106711 0.118165,2.130209 0.05534,0.345207 0.191458,0.620809 0.009,0.888992 0.09872,0.721904 0.200433,0.842456 0.02393,1.041636 0.05086,0.104505 0.0359,-0.04433 0.01346,0.03931 0.106199,0.526134 V 43.2955 l 0.04188,0.131784 0.04786,0.01284 0.07628,0.442891 0.163039,0.340793 0.02244,1.104821 0.05684,0.139206 0.05086,1.231991 -0.03291,0.748783 0.03739,1.297582 0.139106,1.163792 0.01047,0.515303 0.01496,-0.125767 0.125645,0.825406 0.200432,0.652101 0.09573,0.726317 0.110687,0.375695 0.04188,0.358445 0.06581,0.12677 0.01645,0.26417 0.05833,0.300074 0.04039,-0.01183 0.01945,0.31913 0.157056,0.699439 0.03739,1.091983 0.08376,0.822799 0.08227,0.409192 0.03291,-0.01063 0.11667,0.830622 0.417318,4.193825 0.06731,0.218236 0.119661,0.98808 v 1.020174 l 0.02992,0.369276 0.04787,0.1027 0.05235,0.866927 0.142098,0.849275 0.04039,0.923091 -0.04039,0.425039 0.163038,1.132903 0.02842,0.828615 0.110686,0.800132 0.06133,1.09078 -0.02842,0.992694 0.0703,0.946759 0.145089,0.872143 0.121157,1.889307 0.200463,1.600465 0.145089,0.517509 0.04338,0.637859 0.03889,-0.05015 0.14808,0.81638 0.230348,1.924811 0.308128,1.170211 0.05534,0.461545 0.240818,1.095594 0.131627,1.295978 0.318598,1.413119 0.465183,1.733854 0.257271,0.772452 0.06731,0.602556 0.270733,1.282739 0.324581,2.45616 0.6357,1.970945 0.03291,0.301278 0.09274,0.131183 0.05983,0.243109 0.0359,-0.01484 0.04039,0.378303 0.192953,0.694825 0.04637,0.408792 0.245305,0.646284 0.04188,0.236289 0.228852,0.52834 0.03141,-0.01003 0.213894,0.667942 0.175004,0.82361 0.05983,0.62361 0.02543,0.0451 0.0075,-0.1053 0.02692,0.0277 0.05534,0.30749 0.07928,0.064 0.115174,0.38753 0.09573,0.0764 0.01496,0.0845 0.04039,-0.0548 0.0359,0.18474 0.12714,0.16548 0.01945,0.19096 0.160047,0.11654 0.200432,0.46375 0.100216,0.0943 0.05983,0.25495 0.06133,-0.006 0.258767,0.39094 0.0718,-0.0205 0.09872,0.23729 0.04338,0.0361 0.03141,-0.0963 0.206415,0.20239 0.142098,0.002 0.04338,0.10591 0.163038,0.0951 0.0703,0.12215 0.128636,0.0887 0.08376,-0.0648 0.04188,0.11955 0.09124,0.0652 0.255776,0.0766 0.04487,-0.0508 0.06581,0.11212 0.379924,0.0654 0.04487,-0.0371 0.02692,0.1392 0.05086,0.0233 0.07778,-0.0704 0.151072,0.0868 0.170517,0.003 0.149576,0.13198 0.176501,-0.0321 0.16603,0.0686 -0.02692,-0.0684 v 0.0826 l -0.003,-0.057 -0.05385,0.007 0.02992,-0.0644 -0.006,0.061 -0.139106,-0.0173 -0.106199,-0.16407 -0.01944,0.0832 -0.140602,0.0568 -0.136115,-0.14 -0.216886,-0.0269 -0.73442,-0.38312 -0.424797,-0.0319 -0.849594,-0.29687 -0.46967,0.072 -0.460696,-0.2072 -0.05833,0.055 -0.133123,-0.065 -0.218381,0.005 -0.143594,0.0804 -0.233339,-0.10972 -0.231843,0.0255 -0.154064,-0.0788 -0.230348,0.14803 -0.22586,-0.0568 -0.124149,0.0413 -0.195945,-0.11293 -0.164534,0.0997 -0.161542,-0.0503 -0.05684,0.11434 -0.06881,0.0177 -0.145089,-0.12717 -0.154063,0.0676 -0.06581,-0.0814 -0.279708,-0.0395 -0.323085,0.06 -0.484628,-0.0355 -0.475653,-0.14682 -0.294666,0.14381 -0.140601,-0.12656 -0.08376,0.11573 -0.402361,-0.12576 -0.309623,-0.0134 -1.085955,0.19717 -0.312615,-0.0853 -0.305136,0.0473 -0.885492,-0.061 -0.925878,0.23148 -0.38142,-0.009 -0.429285,-0.10069 -0.08825,0.0688 -0.427788,-0.002 -0.502577,0.10952 -0.548946,-0.0495 -0.172013,-0.0889 -0.26475,0.0118 -0.387403,-0.12015 -1.887655,-0.0656 -0.230347,0.0953 -0.577365,-0.24291 -0.137611,0.0728 -0.227356,-0.0521 -0.169021,0.0784 -0.182484,-0.0491 -0.252784,0.0778 -0.203424,-0.0622 -0.06282,0.0774 -0.119661,-0.11714 -0.183979,0.0508 -0.233339,-0.0612 -0.384412,0.0764 -0.48014,-0.0178 -0.05833,0.0688 -0.246801,-0.072 -0.218382,0.0997 -0.09722,-0.0295 -0.03141,0.12316 -0.04487,0.0112 -0.09274,-0.0995 -0.360479,0.0267 -0.296161,0.13399 -0.125645,-0.053 -0.13761,0.0297 -0.255776,0.15765 -0.233339,-0.0168 -0.169021,0.11132 -0.09274,-0.0317 -0.338042,0.14823 0.164534,-0.18795 0.39189,-0.71889 0.233339,-0.32134 0.798738,-1.46788 0.358984,-0.97544 0.183979,-0.71509 0.528005,-2.865951 0.296161,-1.331882 0.475653,-1.743082 0.270734,-1.766549 0.170517,-1.574389 0.384411,-1.941259 0.222869,-1.374607 0.228852,-1.88349 0.504073,-2.957822 0.189962,-2.275634 0.121157,-2.524358 0.140601,-1.245631 0.119662,-1.947678 0.213894,-1.505388 0.385907,-1.990402 0.210903,-1.366182 0.08526,-1.535878 -0.01496,-1.823916 0.260263,-2.906673 0.285691,-2.243941 0.110686,-2.606197 0.124149,-1.742881 0.04188,-1.892115 0.09423,-1.117257 0.225861,-1.490344 0.06282,-0.971031 -0.03141,-3.562585 0.1765,-1.352141 0.119661,-0.510087 0.09872,-0.756004 0.04637,-0.07783 0.219878,-2.241133 -0.03141,-0.808757 0.07329,-2.301509 0.224365,1.414323 0.67459,3.404323 0.12714,1.351339 0.08376,1.669266 0.441251,3.217579 0.121157,1.915584 -0.02393,1.404093 0.242313,3.331311 0.0359,1.371999 0.191458,1.857014 0.02992,0.863316 0.112182,1.105824 0.218382,0.871941 0.372445,2.289675 0.218382,3.563387 0.477149,3.522468 0.164534,2.5729 0.18697,1.966933 0.314111,2.040348 0.306632,2.698667 0.287186,1.20431 0.137611,0.319933 0.05235,0.266777 0.453217,2.913694 0.20492,0.743166 0.34256,1.770762 0.07778,0.749786 0.562408,2.812799 0.326077,2.57972 0.145089,0.524729 0.09423,0.653104 0.05235,0.725916 0.01496,1.775367 -0.0344,0.0197 0.0015,-0.0822 -0.03889,0.11012 -0.720959,0.33498 -0.836162,0.51329 -0.08675,0.001 -0.308128,-0.25455 -0.09722,0.005 -0.263254,-0.14763 -0.936349,-0.135 -0.218381,0.0534 -0.423302,0.35544 -0.492106,0.24832 -0.590827,-0.20861 -0.755361,-0.41882 -0.590827,-0.16127 -0.554929,0.10812 -1.159217,-0.006 -0.423301,-0.0473 -0.48762,-0.17712 -0.741899,-0.0963 -0.409839,-0.12696 -0.842116,0.13338 -0.414326,0.21503 -0.134619,-0.0297 -0.0359,-0.10651 0.406848,-2.142436 0.650658,-1.893921 0.0718,-0.07863 0.188466,-1.011348 0.258767,-0.863116 0.475653,-2.063415 0.122653,-0.988883 0.210903,-2.851311 0.05983,-1.939454 0.257272,-2.20603 0.379924,-1.862429 0.09722,-0.17812 0.06282,-0.274399 0.373941,-2.048371 0.528005,-2.344635 0.158551,-1.154967 0.326076,-4.763886 0.0703,-3.107057 0.0703,-0.636255 -0.169021,4.026337 0.02842,3.758556 0.207912,3.194111 0.31411,3.149781 0.172013,1.229584 0.110687,2.992323 0.224364,1.773971 0.252785,1.547311 0.216885,0.567052 0.15556,0.734542 0.38142,1.364176 0.459199,1.300993 0.559416,2.481834 0.09573,0.924495 -0.02244,0.356038 -0.131627,0.200986 -0.281204,0.135595 -0.315606,-0.01083 -0.09124,0.123761 -0.510056,-0.16829 -0.145089,0.04292 -0.551937,-0.115738 -0.424797,-0.007 -0.474157,-0.237894 -0.173509,0.03209 -0.363471,-0.621211 -0.309623,-1.513211 0.08675,-0.389134 0.01945,0.04012 0.08227,-0.640868 0.154064,-0.241504 0.302144,-0.203193 0.176501,-0.493438 0.06432,-0.01163 0.338043,-0.457734 0.330564,-0.553413 0.30364,-0.317125 0.432276,-0.673764 0.542963,-0.980458 0.31411,-0.959196 0.151072,-0.729928 0.110687,-0.915268 0.764336,-2.721132 0.151072,-0.811565 0.110686,-1.195886 0.587836,-2.7442 0.272229,-1.838559 0.04039,-0.998511 0.305136,-2.462578 0.167525,-0.604161 0.653679,-1.260675 0.03889,-0.214024 0.02543,0.08465 0.125644,-0.257952 0.02094,0.138403 0.180987,0.07221 0.05534,-0.05456 0.160047,0.270588 0.547449,2.217063 0.0718,1.134307 -0.02543,0.14402 0.124148,1.065706 -0.01047,0.38773 0.119661,1.225773 0.198937,1.090379 0.276716,2.302311 0.213895,0.947763 0.106199,1.011749 0.169021,0.668148 0.170517,1.722822 0.553433,2.915498 0.164534,0.499256 0.20492,0.938335 0.200433,0.575477 0.315606,2.063215 0.260263,0.788899 0.324581,1.425355 0.106199,0.134793 0.367958,1.498368 0.15556,0.417617 0.08526,0.62763 0.468174,1.887292 0.216886,0.56685 0.287187,0.47218 0.140602,0.38412 0.421805,0.59072 0.306632,0.71007 0.263255,0.25013 0.101712,0.0712 -0.01346,-0.074"
     id="path945" />
  <path
     fill="none"
     stroke="#000000"
     stroke-width="1.2"
     stroke-linecap="butt"
     stroke-linejoin="round"
     d="m 57.117998,121.53616 0.394,4.4028 0.03,1.659 -0.138,1.144 0.07,0.072"
     id="path837" />
  <path
     fill="none"
     stroke="#000000"
     stroke-width="1.2"
     stroke-linecap="butt"
     stroke-linejoin="round"
     d="m 53.405998,122.05476 -0.338,0.6166 0.162,-0.1884 0.208,-0.119 5.56,-2.5182 1.418,-0.451 0.94,-0.1874"
     id="path841" />
  <path
     fill="none"
     stroke="#000000"
     stroke-width="1.2"
     stroke-linecap="butt"
     stroke-linejoin="round"
     d="m 64.345998,118.96876 -0.264,1.8174 -0.338,3.0946 -0.522,2.7292 -0.114,1.214 0.084,0.314"
     id="path845" />
  <path
     fill="none"
     stroke="#000000"
     stroke-width="1.2"
     stroke-linecap="butt"
     stroke-linejoin="round"
     d="m 67.845998,126.90196 -0.06,0.552 0.056,-0.414 0.7,-1.8272 0.268,-1.0014 0.238,-1.0664 0.236,-2.7258 0.212,-0.8898 0.096,-0.1828 0.12,-0.025 0.254,0.1746 0.324,0.4452 0.896,2.917 0.526,1.1888 0.258,0.4134 0.56,0.6614 0.176,0.1448 0.334,0.1124 0.17804,-0.2536 0.498,-1.3636 0.222,-0.7474 1.022,-4.3872 0.102,-0.348 0.24,-0.323 0.268,0.006 0.154,0.1634 0.252,0.7476 0.23,1.3754 0.204,3.2946 0.002,2.4198 0.176,0.3666 0.098,0.048 0.372,-0.15 -0.05,-0.164"
     id="path849" />
  <path
     fill="none"
     stroke="#000000"
     stroke-width="1.2"
     stroke-linecap="butt"
     stroke-linejoin="round"
     d="m 81.248038,119.39296 -0.47,2.3294 -0.252,2.7156 -0.158,1.0128 0.01,0.3446 0.136,0.4466 0.202,0.164 0.166,0.014"
     id="path853" />
  <path
     fill="none"
     stroke="#000000"
     stroke-width="1.2"
     stroke-linecap="butt"
     stroke-linejoin="round"
     d="m 80.304038,119.27556 0.504,0.1542 0.778,-0.3148 1.548,-0.4638 0.664,-0.2634 0.936,-0.2436 h 0.318"
     id="path857" />
  <path
     fill="none"
     stroke="#000000"
     stroke-width="1.2"
     stroke-linecap="butt"
     stroke-linejoin="round"
     d="m 80.822038,122.77176 0.216,0.4252 0.348,-0.2614 0.258,-0.094 0.384,-0.0108 0.46,-0.1032 0.522,-0.222 1.03,-0.4702 0.82,-0.532 0.868,-0.0756"
     id="path861" />
  <path
     fill="none"
     stroke="#000000"
     stroke-width="1.2"
     stroke-linecap="butt"
     stroke-linejoin="round"
     d="m 2.4859978,91.377563 0.06,-0.0938 -0.174,-0.0958 -0.528,-0.0916 -0.124,-0.1014 -0.018,-0.0442 0.066,-2e-4 0.998,0.2226 3.68,0.4232 5.0600002,0.7776 0.662,-0.0172 0.116,-0.1072 0.01,-0.1226 -0.774,-2.8814 -0.15,-0.6346 -0.014,-0.3788"
     id="path865" />
  <path
     fill="none"
     stroke="#000000"
     stroke-width="1.2"
     stroke-linecap="butt"
     stroke-linejoin="round"
     d="m 2.4359978,82.785963 -0.274,-0.6598 0.398,0.6934 0.36,0.3592 1.042,0.6082 0.642,0.2738 0.696,0.2064 1.568,0.1794 1.676,-0.0722 0.706,-0.1212 0.554,-0.1702 0.4520002,-0.1914 0.352,-0.2364 0.23,-0.2846 0.116,-0.269 0.042,-0.3034 -0.034,-0.398 -0.14,-0.381 -0.41,-0.678 -0.7040002,-0.6892 -0.418,-0.312 -0.954,-0.4444 -1.126,-0.4206 -1.254,-0.1628 -0.59,0.022 -1.044,0.3132 -0.908,0.7002 -0.77,0.7478 -0.194,0.3648 -0.084,0.67 0.102,0.26"
     id="path869" />
  <path
     fill="none"
     stroke="#000000"
     stroke-width="1.2"
     stroke-linecap="butt"
     stroke-linejoin="round"
     d="m 2.9979978,76.870763 0.012,0.1156 0.31,0.0876 0.886,-0.0892 2.22,-4e-4 2.716,-0.215 0.732,-0.1144 0.9660002,-0.3058 0.218,-0.2334 0.054,-0.553 -0.022,-0.2926 -0.21,-0.5198 -0.524,-0.5276 -0.3940002,-0.2836 -0.484,-0.2426 -1.256,-0.4776 -2.336,-0.4158 -0.69,-0.0518 -1.644,0.1112 -0.466,0.2528"
     id="path873" />
  <path
     fill="none"
     stroke="#000000"
     stroke-width="1.2"
     stroke-linecap="butt"
     stroke-linejoin="round"
     d="m 3.1959978,69.800763 0.24,-0.2324 0.66,-0.158 3.436,0.0702 2.118,0.1472 0.6620002,-0.0244 0.25,-0.1276"
     id="path877" />
  <path
     fill="none"
     stroke="#000000"
     stroke-width="1.2"
     stroke-linecap="butt"
     stroke-linejoin="round"
     d="m 3.3999978,69.087763 -0.46,-0.168 -0.338,-0.6612 -0.104,-0.3464 -0.1,-0.4016 -0.088,-1.0048 0.098,-0.977 0.166,-0.4798 0.316,-0.475 0.388,-0.4146 0.41,-0.3564 0.506,-0.2776 0.566,-0.1772 0.586,-0.0922 0.562,0.0274 0.586,0.1476 1.198,0.5006 1.228,0.7406 1.5020002,1.3848 0.82,1.2322 0.11,0.218 0.02,0.2588 -0.204,-0.3724"
     id="path881" />
  <path
     fill="none"
     stroke="#000000"
     stroke-width="1.2"
     stroke-linecap="butt"
     stroke-linejoin="round"
     d="m 10.905998,61.360963 0.534,-0.0656 -0.064,-0.0828 -0.16,0.016 -0.328,-0.1818 -0.318,-0.0842 -4.7980002,-1.0374 -1.346,-0.165 -0.164,-0.069 0.17,-0.003 1.922,-0.6482 2.852,-0.6672 1.4160002,-0.4064 0.47,-0.274 0.048,-0.1134 -0.394,-0.5036 -0.528,-0.3066 -0.4420002,-0.169 -0.57,-0.1064 -1.28,-0.452 -0.708,-0.1792 -4.244,-0.4668 -0.6,-0.1768 -0.012,-0.0842"
     id="path885" />
  <path
     fill="none"
     stroke="#000000"
     stroke-width="1.2"
     stroke-linecap="butt"
     stroke-linejoin="round"
     d="m 3.4579978,52.100763 3.03,-0.3696 3.47,0.1372 0.3740002,-0.0312 0.182,-0.1256 -0.246,0.1996"
     id="path889" />
  <path
     fill="none"
     stroke="#000000"
     stroke-width="1.2"
     stroke-linecap="butt"
     stroke-linejoin="round"
     d="m 3.2219978,52.134963 -0.112,-1.1612 -0.32,-1.292 -0.406,-0.6562 -0.4,-0.8158 -0.336,-0.9872"
     id="path893" />
  <path
     fill="none"
     stroke="#000000"
     stroke-width="1.2"
     stroke-linecap="butt"
     stroke-linejoin="round"
     d="m 7.2019978,51.029763 -0.13,-0.4362 -0.32,-0.399 -0.108,-0.2344 -0.512,-1.7708"
     id="path897" />
  <path
     fill="none"
     stroke="#000000"
     stroke-width="1.09211"
     stroke-linecap="butt"
     stroke-linejoin="round"
     d="m 10.939998,52.286563 0.392,-0.4072 -0.074,-0.5996 -0.448,-1.4668 -0.9060002,-2.4122 -0.352,-1.5544"
     id="path901" />
  <path
     fill="none"
     stroke="#000000"
     stroke-width="1.2"
     stroke-linecap="butt"
     stroke-linejoin="round"
     d="m 9.9979978,42.753763 1.0440002,-0.2006 0.01,-0.8238 -0.472,-1.6124 -0.55,-1.2256 -0.4140002,-0.6822 -0.242,-0.1718 -0.804,-0.0398 -0.34,0.1406 -0.746,0.5064 -0.748,0.664 -3.014,3.0546 -0.612,0.445 -0.324,-0.0528 -0.824,-0.5166 -0.624,-0.528 -0.50400003,-0.6226 -0.234,-0.877 0.052,-0.1814 0.40400003,-0.3808"
     id="path905" />
  <path
     fill="none"
     stroke="#000000"
     stroke-width="1.2"
     stroke-linecap="butt"
     stroke-linejoin="round"
     d="m 9.3119978,34.653563 0.7700002,-0.553 0.23,-0.4014 0.062,-0.393 -0.044,-0.3818 -0.4440002,-1.1674 -0.42,-0.747 -0.47,-0.5168 -0.6,-0.4042 -0.618,-0.1544 -0.298,0.0334 -0.31,0.1758 -0.294,0.2818 -0.772,1.251 -1.006,1.3208 -0.408,0.3628 -0.89,0.612 -0.364,0.1768 -0.266,0.0338 -0.47,-0.1852 -0.384,-0.2356 -0.764,-0.7236 -0.282,-0.3782 -0.164,-0.348 -0.078,-0.3672 0.01,-0.3608 0.482,-0.8302"
     id="path909" />
  <path
     fill="none"
     stroke="#000000"
     stroke-width="1.58178"
     stroke-linecap="butt"
     stroke-linejoin="round"
     d="m 16.615998,96.798763 0.094,-0.5472 -0.148,-1.1394 0.07,-2.455 0.406,-5.4262 0.288,-18.368 -0.188,-8.4936 -0.382,-6.566 0.332,-14.2658 -0.112,-2.7552 -0.598,-7.179 -0.122,-2.7822 0.126,-4.0232 0.48,-5.231"
     id="path913" />
  <path
     fill="none"
     stroke="#000000"
     stroke-width="1.58178"
     stroke-linecap="butt"
     stroke-linejoin="round"
     d="m 13.637998,22.155763 -0.3,-0.2668 -0.44,-0.027 -0.064,0.5172 0.11,0.4186 0.084,0.003 1.088,-1.5916 0.864,-1.9734 1.328,-3.5314 0.26,-0.5634 0.312,-0.457 0.29,-0.2636 0.222,0.0604 0.266,0.3162 0.774,1.4968 0.72,1.6708 0.692,2.079 0.256,0.4748 0.806,-0.0962"
     id="path917" />
  <path
     fill="none"
     stroke="#000000"
     stroke-width="1.2"
     stroke-linecap="butt"
     stroke-linejoin="round"
     d="m 80.894038,126.72596 0.93,0.016 1.988,-0.524 1.208,-0.4504 1.136,-0.2186"
     id="path921" />
  <path
     fill="none"
     stroke="#000000"
     stroke-width="1.72276"
     stroke-linecap="butt"
     stroke-linejoin="round"
     d="m 50.275998,133.87596 2.6,0.286 1.806,0.056 1.932,-0.104 7.522,-0.672 9.80004,-1.366 10.758,-0.952 9.598,-0.568 2.78,0.038 2.524,0.166"
     id="path925" />
  <path
     fill="none"
     stroke="#000000"
     stroke-width="1.72276"
     stroke-linecap="butt"
     stroke-linejoin="round"
     d="m 93.690038,125.90056 0.35,0.3934 -0.128,-0.036 -0.008,-0.178 -0.034,0.076 0.094,0.02 0.23,0.518 0.678,0.856 0.738,0.634 1.02,0.662 3.244,1.232 0.898002,0.458 2.172,0.132 -0.92,0.958 -1.184,0.942 -1.532002,0.976 -1.338,1.15 -1.354,0.822 -0.266,0.252 0.04,0.046 0.64,-0.046"
     id="path929" />
  <path
     fill="none"
     stroke="#000000"
     stroke-width="1.2"
     stroke-linecap="butt"
     stroke-linejoin="round"
     d="m 36.711998,0.43896263 -0.22,0.2626 0.084,-0.0214 0.018,-0.0806 0.028,1.39359997 -0.058,3.3014 0.04,4.155 -0.312,17.8330004 -0.186,6.4762 v 5.1978 l -0.128,5.7932 -0.044,12.0264 -0.212,16.4422 v 4.0378 l -0.49,25.619597 0.078,5.0582 -0.082,3.5006 0.032,9.674"
     id="path937" />
  <path
     style="stroke:#2f9ad9;stroke-opacity:1"
     fill="none"
     stroke="#000000"
     stroke-width="1.03928"
     stroke-linecap="butt"
     stroke-linejoin="round"
     d="m 48.887211,107.6382 -0.182484,-0.14442 0.20492,-0.0836 0.403856,0.19517 0.441251,-0.22205 0.267742,-0.26958 0.505568,-0.79633 0.394882,-0.35904 0.185475,-0.0921 0.218381,-0.32856 0.988701,-2.18336 0.544458,-0.8894 0.720958,-1.91057 0.330564,-1.001511 0.863056,-3.700186 0.761344,-4.182994 0.345522,-1.652818 0.255776,-1.713796 0.409839,-3.93166 0.759849,-6.000492 0.358983,-4.241965 0.222869,-2.023498 0.843611,-6.685689 0.119661,-1.357758 0.152568,-3.271737 0.296162,-4.152505 0.04936,-1.591439 v -2.509916 l 0.06432,-1.829333 0.454712,-4.103561 0.26475,-5.579464 0.131628,-1.128089 0.306631,-1.73586 0.444242,-4.087515 0.683565,-3.457077 0.07928,-0.743367 0.216886,-0.850279 0.694035,-2.016077 0.212398,-0.865322 0.296162,-0.624621 0.711984,-1.098 0.837628,-0.652302 0.270733,-0.443894 0.152568,-0.150438 0.124148,-10e-4 0.163039,0.101295 0.876518,-0.575076 0.05086,0.02367 -0.05684,0.108315 0.145089,0.154049 0.34253,0.124564 0.05385,0.100091 0.109191,0.485215 0.188466,0.463752 0.195946,0.319932 0.463687,1.643792 0.224364,0.37389 0.07778,0.602757 0.130131,0.552611 0.227357,0.171299 0.197441,0.846467 0.448729,0.968022 0.07479,1.260876 0.417318,1.522237 0.02244,1.578401 0.29317,1.226776 0.732924,4.357101 0.05684,1.013354 0.182484,1.620925 0.381419,2.359678 0.213895,3.151988 0.550471,2.494472 0.200432,2.340422 0.511552,3.53009 0.976734,9.661764 0.09423,1.853202 0.200433,2.135224 0.432276,2.879394 0.243809,2.211045 0.79126,4.366729 0.19744,1.992007 0.75237,4.77532 0.360479,2.652331 0.433772,2.31575 0.287187,1.044044 0.18697,1.188865 0.242314,1.05989 0.64617,1.736863 0.465183,1.756119 0.25428,0.733338 0.599801,1.282739 0.308128,0.974634 0.207911,0.5476 0.19445,0.34881 0.194449,0.80816 0.203424,0.46636 0.619246,0.79632 0.122653,0.38492 0.315606,0.5157 0.164534,0.11434 0.402361,0.46455 0.118165,0.0305 0.173509,0.24211 0.11667,0.0533 0.269237,0.43728 0.128636,0.0979 0.02393,-0.072 0.768823,0.88939 0.177996,0.0684 0.285691,0.35705 0.110687,-0.0311 0.14808,0.0578 0.110687,0.17912 0.124148,0.0132 0.230348,0.15024 0.308128,0.009 0.08975,0.0999 0.07479,-0.01 0.354496,0.21222 0.248297,0.001 0.231843,-0.0722 0.658137,-0.6194"
     id="path941" />
  <path
     fill="none"
     stroke="#000000"
     stroke-width="1.2"
     stroke-linecap="butt"
     stroke-linejoin="round"
     d="m 4.5679978,107.41736 0.024,-0.0606 0.184,-0.0164 4.414,0.0608 2.3920002,-0.0608 4.902,0.1794 4.85,-0.008 10.66,0.224 2.56,-0.0664 4.44,0.132 9.346,-0.0346 1.562,0.0656 8.194,0.0886 3.28,-0.0822 3.71,0.158 9.15004,0.091 3.752,-0.0786 3.764,0.003 7.612,0.1256 3.69,-0.1504 3.83,0.0886 17.674002,0.0684 6.066,-0.1074 10.212,0.1796 6.064,-0.0378 5.48,0.098 18.365,0.0558 5.471,0.1156 5.7968,-0.0408 7.5992,0.101 6.3678,-0.0688 10.5586,0.1082 1.8492,-0.044 3.843,0.1448 3.6264,-0.0516 3.55,0.119 3.502,-0.0592 12.7772,0.162 3.53,-0.0398 5.5584,0.1812 3.7144,-0.062 6.9886,0.1094 5.1164,-0.0338 10.6594,0.1482 3.4714,-0.1046 7.2178,0.1596 6.894,-0.0656 5.1924,0.1788 2.9084,-0.0524 3.1066,0.1624 7.4174,-0.0548 10.2628,0.1848 3.4808,-0.0628 3.2338,0.1118 3.5396,-0.083 2.6964,0.1214 5.3664,0.0114 0.8974,0.0846 1.431,-0.044 2.91652,0.1004 3.59604,-0.0146 0.43798,-0.0648 1.4741,0.097 1.49032,-0.0458 -0.11608,-0.0346 0.24688,-0.0442 0.0327,-0.5116"
     id="path933" />
</svg>
