<?xml version="1.0" encoding="UTF-8" standalone="no"?>
<svg
   xmlns:dc="http://purl.org/dc/elements/1.1/"
   xmlns:cc="http://creativecommons.org/ns#"
   xmlns:rdf="http://www.w3.org/1999/02/22-rdf-syntax-ns#"
   xmlns:svg="http://www.w3.org/2000/svg"
   xmlns="http://www.w3.org/2000/svg"
   xmlns:sodipodi="http://sodipodi.sourceforge.net/DTD/sodipodi-0.dtd"
   xmlns:inkscape="http://www.inkscape.org/namespaces/inkscape"
   inkscape:version="1.0 (4035a4f, 2020-05-01)"
   sodipodi:docname="plot.svg"
   id="svg970"
   height="454.30042"
   width="410.6261"
   stroke-miterlimit="10"
   stroke-linecap="square"
   stroke="none"
   fill="none"
   viewBox="0 0 410.6261 454.30042"
   version="1.1">
  <metadata
     id="metadata976">
    <rdf:RDF>
      <cc:Work
         rdf:about="">
        <dc:format>image/svg+xml</dc:format>
        <dc:type
           rdf:resource="http://purl.org/dc/dcmitype/StillImage" />
      </cc:Work>
    </rdf:RDF>
  </metadata>
  <defs
     id="defs974" />
  <sodipodi:namedview
     inkscape:current-layer="svg970"
     inkscape:window-maximized="0"
     inkscape:window-y="267"
     inkscape:window-x="0"
     inkscape:cy="211.74857"
     inkscape:cx="205.58767"
     inkscape:zoom="1.2512913"
     showgrid="false"
     id="namedview972"
     inkscape:window-height="900"
     inkscape:window-width="1440"
     inkscape:pageshadow="2"
     inkscape:pageopacity="0"
     guidetolerance="10"
     gridtolerance="10"
     objecttolerance="10"
     borderopacity="1"
     bordercolor="#666666"
     pagecolor="#ffffff" />
  <path
     id="path835"
     fill-rule="nonzero"
     d="M 29.75,28.377612 V 397.37761"
     stroke-linecap="butt"
     stroke-width="1"
     stroke="#333333" />
  <path
     id="path837"
     fill-rule="nonzero"
     d="M 82.75,28.377612 V 397.37761"
     stroke-linecap="butt"
     stroke-width="1"
     stroke="#cccccc" />
  <path
     id="path839"
     fill-rule="nonzero"
     d="M 135.75,28.377612 V 397.37761"
     stroke-linecap="butt"
     stroke-width="1"
     stroke="#cccccc" />
  <path
     id="path841"
     fill-rule="nonzero"
     d="M 188.75,28.377612 V 397.37761"
     stroke-linecap="butt"
     stroke-width="1"
     stroke="#cccccc" />
  <path
     id="path843"
     fill-rule="nonzero"
     d="M 241.75,28.377612 V 397.37761"
     stroke-linecap="butt"
     stroke-width="1"
     stroke="#cccccc" />
  <path
     id="path845"
     fill-rule="nonzero"
     d="M 294.75,28.377612 V 397.37761"
     stroke-linecap="butt"
     stroke-width="1"
     stroke="#cccccc" />
  <path
     id="path847"
     fill-rule="nonzero"
     d="M 347.75,28.377612 V 397.37761"
     stroke-linecap="butt"
     stroke-width="1"
     stroke="#cccccc" />
  <path
     id="path849"
     fill-rule="nonzero"
     d="M 400.75,28.377612 V 397.37761"
     stroke-linecap="butt"
     stroke-width="1"
     stroke="#cccccc" />
  <path
     id="path851"
     fill-rule="nonzero"
     d="m 29.75,397.37761 h 376"
     stroke-linecap="butt"
     stroke-width="1"
     stroke="#333333" />
  <path
     id="path853"
     fill-rule="nonzero"
     d="m 29.75,345.37761 h 376"
     stroke-linecap="butt"
     stroke-width="1"
     stroke="#cccccc" />
  <path
     id="path855"
     fill-rule="nonzero"
     d="m 29.75,293.37761 h 376"
     stroke-linecap="butt"
     stroke-width="1"
     stroke="#cccccc" />
  <path
     id="path857"
     fill-rule="nonzero"
     d="m 29.75,241.37761 h 376"
     stroke-linecap="butt"
     stroke-width="1"
     stroke="#cccccc" />
  <path
     id="path859"
     fill-rule="nonzero"
     d="m 29.75,189.37761 h 376"
     stroke-linecap="butt"
     stroke-width="1"
     stroke="#cccccc" />
  <path
     id="path861"
     fill-rule="nonzero"
     d="m 29.75,137.37761 h 376"
     stroke-linecap="butt"
     stroke-width="1"
     stroke="#cccccc" />
  <path
     id="path863"
     fill-rule="nonzero"
     d="m 29.75,85.377612 h 376"
     stroke-linecap="butt"
     stroke-width="1"
     stroke="#cccccc" />
  <path
     id="path865"
     fill-rule="nonzero"
     d="m 29.75,33.377612 h 376"
     stroke-linecap="butt"
     stroke-width="1"
     stroke="#cccccc" />
  <clipPath
     id="id_0">
    <path
       id="path867"
       clip-rule="nonzero"
       d="m 61.5,49.5 h 376 v 369 h -376 z" />
  </clipPath>
  <path
     transform="translate(-31.75,-21.122388)"
     id="path870"
     fill-rule="nonzero"
     d="m 66.79578,413.30283 47.66197,-46.77466 52.95775,-51.97183 52.95775,-51.97184 52.95775,-51.97183 52.95773,-51.97183 52.95777,-51.97183 52.95772,-51.97183"
     clip-path="url(#id_0)"
     stroke-linecap="butt"
     stroke-width="2"
     stroke="#c7c7c7" />
  <path
     transform="translate(-31.75,-21.122388)"
     id="path872"
     fill-rule="nonzero"
     d="m 66.79578,413.30283 47.66197,-22.26703 52.95775,-21.62122 52.95775,-22.13101 52.95775,-25.18765 52.95773,-21.38217 52.95777,-14.97715 52.95772,-7.88092"
     clip-path="url(#id_0)"
     stroke-linecap="butt"
     stroke-width="2"
     stroke="#4ca2d4" />
  <path
     transform="translate(-31.75,-21.122388)"
     id="path874"
     fill-rule="nonzero"
     d="m 66.79578,416.39536 47.66197,-9.01728 52.95775,-8.75578 52.95775,-8.96217 52.95775,-10.20003 52.95773,-8.65892 52.95777,-6.06516 52.95772,-3.19146"
     clip-path="url(#id_0)"
     stroke-linecap="butt"
     stroke-width="2"
     stroke="#983dfb" />
  <path
     transform="translate(-31.75,-21.122388)"
     id="path876"
     fill-rule="nonzero"
     d="m 69.79578,413.30283 c 0,1.65687 -1.34315,3 -3,3 -1.65686,0 -3.000004,-1.34313 -3.000004,-3 0,-1.65686 1.343144,-3 3.000004,-3 1.65685,0 3,1.34314 3,3 z"
     clip-path="url(#id_0)"
     fill-opacity="0"
     fill="#000000" />
  <path
     transform="translate(-31.75,-21.122388)"
     id="path878"
     fill-rule="nonzero"
     d="m 117.45775,366.52817 c 0,1.65686 -1.34315,3 -3,3 -1.65685,0 -3,-1.34314 -3,-3 0,-1.65687 1.34315,-3 3,-3 1.65685,0 3,1.34313 3,3 z"
     clip-path="url(#id_0)"
     fill-opacity="0"
     fill="#000000" />
  <path
     transform="translate(-31.75,-21.122388)"
     id="path880"
     fill-rule="nonzero"
     d="m 170.4155,314.55634 c 0,1.65686 -1.34316,3 -3,3 -1.65686,0 -3,-1.34314 -3,-3 0,-1.65686 1.34314,-3 3,-3 1.65684,0 3,1.34314 3,3 z"
     clip-path="url(#id_0)"
     fill-opacity="0"
     fill="#000000" />
  <path
     transform="translate(-31.75,-21.122388)"
     id="path882"
     fill-rule="nonzero"
     d="m 223.37325,262.5845 c 0,1.65686 -1.34316,3 -3,3 -1.65687,0 -3,-1.34314 -3,-3 0,-1.65686 1.34313,-3 3,-3 1.65684,0 3,1.34314 3,3 z"
     clip-path="url(#id_0)"
     fill-opacity="0"
     fill="#000000" />
  <path
     transform="translate(-31.75,-21.122388)"
     id="path884"
     fill-rule="nonzero"
     d="m 276.331,210.61267 c 0,1.65686 -1.34315,3 -3,3 -1.65687,0 -3,-1.34314 -3,-3 0,-1.65684 1.34313,-3 3,-3 1.65685,0 3,1.34316 3,3 z"
     clip-path="url(#id_0)"
     fill-opacity="0"
     fill="#000000" />
  <path
     transform="translate(-31.75,-21.122388)"
     id="path886"
     fill-rule="nonzero"
     d="m 329.28873,158.64084 c 0,1.65686 -1.34313,3 -3,3 -1.65686,0 -3,-1.34314 -3,-3 0,-1.65684 1.34314,-3 3,-3 1.65687,0 3,1.34316 3,3 z"
     clip-path="url(#id_0)"
     fill-opacity="0"
     fill="#000000" />
  <path
     transform="translate(-31.75,-21.122388)"
     id="path888"
     fill-rule="nonzero"
     d="m 382.2465,106.66901 c 0,1.65686 -1.34318,3 -3,3 -1.65687,0 -3,-1.34314 -3,-3 0,-1.65685 1.34313,-3 3,-3 1.65682,0 3,1.34315 3,3 z"
     clip-path="url(#id_0)"
     fill-opacity="0"
     fill="#000000" />
  <path
     transform="translate(-31.75,-21.122388)"
     id="path890"
     fill-rule="nonzero"
     d="m 435.20422,54.69718 c 0,1.65686 -1.34314,3 -3,3 -1.65686,0 -3,-1.34314 -3,-3 0,-1.65685 1.34314,-3 3,-3 1.65686,0 3,1.34315 3,3 z"
     clip-path="url(#id_0)"
     fill-opacity="0"
     fill="#000000" />
  <path
     transform="matrix(1.21,0,0,1.21,-45.777114,-107.91598)"
     id="path892"
     fill-rule="nonzero"
     d="m 70.29578,413.30283 c 0,1.93297 -1.567005,3.5 -3.5,3.5 -1.933,0 -3.500004,-1.56703 -3.500004,-3.5 0,-1.93303 1.567004,-3.5 3.500004,-3.5 1.932995,0 3.5,1.56697 3.5,3.5 z"
     clip-path="url(#id_0)"
     fill="#4ca2d4" />
  <path
     transform="matrix(1.21,0,0,1.21,-55.786128,-103.2399)"
     id="path894"
     fill-rule="nonzero"
     d="m 117.95775,391.0358 c 0,1.93298 -1.56701,3.5 -3.5,3.5 -1.933,0 -3.5,-1.56702 -3.5,-3.5 0,-1.933 1.567,-3.5 3.5,-3.5 1.93299,0 3.5,1.567 3.5,3.5 z"
     clip-path="url(#id_0)"
     fill="#4ca2d4" />
  <path
     transform="matrix(1.21,0,0,1.21,-66.907255,-98.699449)"
     id="path896"
     fill-rule="nonzero"
     d="m 170.9155,369.41458 c 0,1.93298 -1.567,3.5 -3.5,3.5 -1.933,0 -3.5,-1.56702 -3.5,-3.5 0,-1.93301 1.567,-3.5 3.5,-3.5 1.933,0 3.5,1.56699 3.5,3.5 z"
     clip-path="url(#id_0)"
     fill="#4ca2d4" />
  <path
     transform="matrix(1.21,0,0,1.21,-78.028383,-94.051937)"
     id="path898"
     fill-rule="nonzero"
     d="m 223.87325,347.28357 c 0,1.93298 -1.56702,3.5 -3.5,3.5 -1.933,0 -3.5,-1.56702 -3.5,-3.5 0,-1.93297 1.567,-3.5 3.5,-3.5 1.93298,0 3.5,1.56703 3.5,3.5 z"
     clip-path="url(#id_0)"
     fill="#4ca2d4" />
  <path
     transform="matrix(1.21,0,0,1.21,-89.14951,-88.76253)"
     id="path900"
     fill-rule="nonzero"
     d="m 276.831,322.09592 c 0,1.93298 -1.56702,3.5 -3.5,3.5 -1.93302,0 -3.5,-1.56702 -3.5,-3.5 0,-1.93302 1.56698,-3.5 3.5,-3.5 1.93298,0 3.5,1.56698 3.5,3.5 z"
     clip-path="url(#id_0)"
     fill="#4ca2d4" />
  <path
     transform="matrix(1.21,0,0,1.21,-100.27063,-84.272275)"
     id="path902"
     fill-rule="nonzero"
     d="m 329.78873,300.71375 c 0,1.93298 -1.56699,3.5 -3.5,3.5 -1.93299,0 -3.5,-1.56702 -3.5,-3.5 0,-1.93299 1.56701,-3.5 3.5,-3.5 1.93301,0 3.5,1.56701 3.5,3.5 z"
     clip-path="url(#id_0)"
     fill="#4ca2d4" />
  <path
     transform="matrix(1.21,0,0,1.21,-111.39177,-81.127073)"
     id="path904"
     fill-rule="nonzero"
     d="m 382.7465,285.7366 c 0,1.93302 -1.56703,3.5 -3.5,3.5 -1.93302,0 -3.5,-1.56698 -3.5,-3.5 0,-1.93298 1.56698,-3.5 3.5,-3.5 1.93297,0 3.5,1.56702 3.5,3.5 z"
     clip-path="url(#id_0)"
     fill="#4ca2d4" />
  <path
     transform="matrix(1.21,0,0,1.21,-122.51289,-79.47208)"
     id="path906"
     fill-rule="nonzero"
     d="m 435.70422,277.85568 c 0,1.93299 -1.56702,3.5 -3.5,3.5 -1.93298,0 -3.5,-1.56701 -3.5,-3.5 0,-1.93298 1.56702,-3.5 3.5,-3.5 1.93298,0 3.5,1.56702 3.5,3.5 z"
     clip-path="url(#id_0)"
     fill="#4ca2d4" />
  <path
     transform="matrix(1.21,0,0,1.21,-45.777112,-108.45229)"
     id="path908"
     fill-rule="nonzero"
     d="m 63.613792,413.21338 h 6.363958 v 6.36395 h -6.363958 z"
     clip-path="url(#id_0)"
     fill="#983dfb" />
  <path
     transform="matrix(1.21,0,0,1.21,-55.786126,-106.67178)"
     id="path910"
     fill-rule="nonzero"
     d="m 111.27576,404.1961 h 6.36397 v 6.36396 h -6.36397 z"
     clip-path="url(#id_0)"
     fill="#983dfb" />
  <path
     transform="matrix(1.21,0,0,1.21,-66.907251,-104.83308)"
     id="path912"
     fill-rule="nonzero"
     d="m 164.2335,395.44034 h 6.36397 v 6.36398 h -6.36397 z"
     clip-path="url(#id_0)"
     fill="#983dfb" />
  <path
     transform="matrix(1.21,0,0,1.21,-78.028379,-102.95102)"
     id="path914"
     fill-rule="nonzero"
     d="m 217.19125,386.47815 h 6.36397 v 6.36398 h -6.36397 z"
     clip-path="url(#id_0)"
     fill="#983dfb" />
  <path
     transform="matrix(1.21,0,0,1.21,-89.149508,-100.80901)"
     id="path916"
     fill-rule="nonzero"
     d="m 270.14902,376.27814 h 6.36395 v 6.36398 h -6.36395 z"
     clip-path="url(#id_0)"
     fill="#983dfb" />
  <path
     transform="matrix(1.21,0,0,1.21,-100.27063,-98.990634)"
     id="path918"
     fill-rule="nonzero"
     d="m 323.10675,367.6192 h 6.36395 v 6.36395 h -6.36395 z"
     clip-path="url(#id_0)"
     fill="#983dfb" />
  <path
     transform="matrix(1.21,0,0,1.21,-111.39176,-97.716955)"
     id="path920"
     fill-rule="nonzero"
     d="m 376.06448,361.55405 h 6.36399 v 6.36398 h -6.36399 z"
     clip-path="url(#id_0)"
     fill="#983dfb" />
  <path
     transform="matrix(1.21,0,0,1.21,-122.51289,-97.046747)"
     id="path922"
     fill-rule="nonzero"
     d="m 429.02225,358.36258 h 6.36395 v 6.36398 h -6.36395 z"
     clip-path="url(#id_0)"
     fill="#983dfb" />
  <path
     id="path926"
     fill-rule="nonzero"
     d="m 11.578125,397.31511 q 0,-2.53125 0.515625,-4.07812 0.53125,-1.5625 1.5625,-2.39063 1.03125,-0.84375 2.59375,-0.84375 1.15625,0 2.015625,0.46875 0.875,0.45313 1.4375,1.32813 0.5625,0.875 0.890625,2.14062 0.328125,1.25 0.328125,3.375 0,2.51562 -0.53125,4.0625 -0.515625,1.54688 -1.546875,2.40625 -1.015625,0.84375 -2.59375,0.84375 -2.078125,0 -3.25,-1.48438 -1.421875,-1.79687 -1.421875,-5.82812 z m 1.8125,0 q 0,3.53125 0.8125,4.70312 0.828125,1.15626 2.046875,1.15626 1.203125,0 2.03125,-1.17188 0.828125,-1.17188 0.828125,-4.6875 0,-3.53125 -0.828125,-4.6875 -0.828125,-1.17188 -2.046875,-1.17188 -1.21875,0 -1.9375,1.03126 -0.90625,1.29687 -0.90625,4.82812 z"
     fill="#000000" />
  <path
     id="path928"
     fill-rule="nonzero"
     d="M 7.203125,352.40578 H 5.4375 v -11.20313 q -0.625,0.60938 -1.65625,1.21876 -1.03125,0.59374 -1.859375,0.90624 v -1.70312 Q 3.40625,340.93703 4.5,339.95265 q 1.109375,-1 1.5625,-1.92187 h 1.140625 z m 4.375,-7.0625 q 0,-2.53125 0.515625,-4.07813 0.53125,-1.5625 1.5625,-2.39062 1.03125,-0.84375 2.59375,-0.84375 1.15625,0 2.015625,0.46875 0.875,0.45312 1.4375,1.32812 0.5625,0.875 0.890625,2.14063 0.328125,1.25 0.328125,3.375 0,2.51563 -0.53125,4.0625 -0.515625,1.54687 -1.546875,2.40625 -1.015625,0.84375 -2.59375,0.84375 -2.078125,0 -3.25,-1.48437 -1.421875,-1.79688 -1.421875,-5.82813 z m 1.8125,0 q 0,3.53125 0.8125,4.70313 0.828125,1.15624 2.046875,1.15624 1.203125,0 2.03125,-1.17187 0.828125,-1.17187 0.828125,-4.6875 0,-3.53125 -0.828125,-4.6875 -0.828125,-1.17187 -2.046875,-1.17187 -1.21875,0 -1.9375,1.03124 -0.90625,1.29688 -0.90625,4.82813 z"
     fill="#000000" />
  <path
     id="path930"
     fill-rule="nonzero"
     d="m 9.8125,298.74645 v 1.6875 H 0.359375 q -0.01563,-0.64064 0.203125,-1.21874 0.359375,-0.96876 1.15625,-1.90626 0.796875,-0.9375 2.296875,-2.17188 2.34375,-1.90626 3.15625,-3.01562 Q 8,290.99645 8,289.99645 q 0,-1.04688 -0.75,-1.76564 -0.75,-0.71874 -1.953125,-0.71874 -1.265625,0 -2.03125,0.76564 Q 2.5,289.04331 2.5,290.38707 l -1.8125,-0.1875 q 0.1875,-2.01562 1.390625,-3.07812 1.21875,-1.0625 3.265625,-1.0625 2.046875,0 3.25,1.14062 1.203125,1.14064 1.203125,2.82814 0,0.85936 -0.359375,1.7031 -0.34375,0.82814 -1.15625,1.75 -0.8125,0.90626 -2.703125,2.51564 -1.59375,1.32812 -2.046875,1.79686 -0.4375,0.46876 -0.734375,0.95314 z m 1.765625,-5.375 q 0,-2.53124 0.515625,-4.07814 0.53125,-1.5625 1.5625,-2.3906 1.03125,-0.84376 2.59375,-0.84376 1.15625,0 2.015625,0.46876 0.875,0.4531 1.4375,1.3281 0.5625,0.875 0.890625,2.14064 0.328125,1.25 0.328125,3.375 0,2.51562 -0.53125,4.0625 -0.515625,1.54686 -1.546875,2.40626 -1.015625,0.84374 -2.59375,0.84374 -2.078125,0 -3.25,-1.48438 -1.421875,-1.79686 -1.421875,-5.82812 z m 1.8125,0 q 0,3.53126 0.8125,4.70312 0.828125,1.15624 2.046875,1.15624 1.203125,0 2.03125,-1.17186 0.828125,-1.17188 0.828125,-4.6875 0,-3.53124 -0.828125,-4.6875 -0.828125,-1.17188 -2.046875,-1.17188 -1.21875,0 -1.9375,1.03124 -0.90625,1.2969 -0.90625,4.82814 z"
     fill="#000000" />
  <path
     id="path932"
     fill-rule="nonzero"
     d="m 0.59375,244.68086 1.75,-0.23437 q 0.3125,1.5 1.03125,2.15625 0.734375,0.65625 1.78125,0.65625 1.234375,0 2.078125,-0.85938 0.859375,-0.85937 0.859375,-2.125 0,-1.21875 -0.796875,-2 -0.78125,-0.78125 -2,-0.78125 -0.5,0 -1.234375,0.1875 L 4.25,240.13399 q 0.171875,0.0312 0.28125,0.0312 1.125,0 2.015625,-0.57813 0.90625,-0.59375 0.90625,-1.8125 0,-0.96875 -0.65625,-1.60937 -0.65625,-0.64063 -1.6875,-0.64063 -1.015625,0 -1.703125,0.65625 -0.6875,0.64063 -0.875,1.92188 l -1.765625,-0.3125 q 0.328125,-1.76563 1.46875,-2.73438 1.140625,-0.96875 2.84375,-0.96875 1.171875,0 2.15625,0.5 0.984375,0.5 1.5,1.375 0.53125,0.875 0.53125,1.84375 0,0.92188 -0.5,1.6875 -0.5,0.76563 -1.46875,1.21875 1.265625,0.28125 1.96875,1.21875 0.703125,0.92188 0.703125,2.29688 0,1.875 -1.375,3.1875 -1.359375,1.29687 -3.453125,1.29687 -1.890625,0 -3.140625,-1.125 -1.234375,-1.125 -1.40625,-2.90625 z m 10.984375,-3.28125 q 0,-2.53125 0.515625,-4.07812 0.53125,-1.5625 1.5625,-2.39063 1.03125,-0.84375 2.59375,-0.84375 1.15625,0 2.015625,0.46875 0.875,0.45313 1.4375,1.32813 0.5625,0.875 0.890625,2.14062 0.328125,1.25 0.328125,3.375 0,2.51563 -0.53125,4.0625 -0.515625,1.54688 -1.546875,2.40625 -1.015625,0.84375 -2.59375,0.84375 -2.078125,0 -3.25,-1.48437 -1.421875,-1.79688 -1.421875,-5.82813 z m 1.8125,0 q 0,3.53125 0.8125,4.70313 0.828125,1.15625 2.046875,1.15625 1.203125,0 2.03125,-1.17188 0.828125,-1.17187 0.828125,-4.6875 0,-3.53125 -0.828125,-4.6875 -0.828125,-1.17187 -2.046875,-1.17187 -1.21875,0 -1.9375,1.03125 -0.90625,1.29687 -0.90625,4.82812 z"
     fill="#000000" />
  <path
     id="path934"
     fill-rule="nonzero"
     d="m 6.21875,196.49028 v -3.42187 H 0 v -1.625 l 6.53125,-9.26563 h 1.4375 v 9.26563 h 1.9375 v 1.625 h -1.9375 v 3.42187 z m 0,-5.04687 v -6.45313 l -4.484375,6.45313 z m 5.359375,-2.01563 q 0,-2.53125 0.515625,-4.07812 0.53125,-1.5625 1.5625,-2.39063 1.03125,-0.84375 2.59375,-0.84375 1.15625,0 2.015625,0.46875 0.875,0.45313 1.4375,1.32813 0.5625,0.875 0.890625,2.14062 0.328125,1.25 0.328125,3.375 0,2.51563 -0.53125,4.0625 -0.515625,1.54688 -1.546875,2.40625 -1.015625,0.84375 -2.59375,0.84375 -2.078125,0 -3.25,-1.48437 -1.421875,-1.79688 -1.421875,-5.82813 z m 1.8125,0 q 0,3.53125 0.8125,4.70313 0.828125,1.15625 2.046875,1.15625 1.203125,0 2.03125,-1.17188 0.828125,-1.17187 0.828125,-4.6875 0,-3.53125 -0.828125,-4.6875 -0.828125,-1.17187 -2.046875,-1.17187 -1.21875,0 -1.9375,1.03125 -0.90625,1.29687 -0.90625,4.82812 z"
     fill="#000000" />
  <path
     id="path936"
     fill-rule="nonzero"
     d="m 0.578125,140.76845 1.84375,-0.15625 q 0.203125,1.34375 0.953125,2.03125 0.75,0.67187 1.8125,0.67187 1.265625,0 2.140625,-0.95312 0.875,-0.95313 0.875,-2.54688 0,-1.5 -0.84375,-2.35937 -0.84375,-0.875 -2.203125,-0.875 -0.859375,0 -1.546875,0.39062 -0.671875,0.375 -1.0625,1 l -1.65625,-0.21875 1.390625,-7.35937 h 7.125 v 1.6875 H 3.6875 l -0.765625,3.84375 q 1.28125,-0.90625 2.703125,-0.90625 1.875,0 3.15625,1.3125 1.296875,1.29687 1.296875,3.32812 0,1.95313 -1.140625,3.35938 -1.375,1.75 -3.75,1.75 -1.953125,0 -3.203125,-1.09375 Q 0.75,142.58095 0.578125,140.76845 Z m 11,-3.3125 q 0,-2.53125 0.515625,-4.07813 0.53125,-1.5625 1.5625,-2.39062 1.03125,-0.84375 2.59375,-0.84375 1.15625,0 2.015625,0.46875 0.875,0.45312 1.4375,1.32812 0.5625,0.875 0.890625,2.14063 0.328125,1.25 0.328125,3.375 0,2.51562 -0.53125,4.0625 -0.515625,1.54687 -1.546875,2.40625 -1.015625,0.84375 -2.59375,0.84375 -2.078125,0 -3.25,-1.48438 -1.421875,-1.79687 -1.421875,-5.82812 z m 1.8125,0 q 0,3.53125 0.8125,4.70312 0.828125,1.15625 2.046875,1.15625 1.203125,0 2.03125,-1.17187 0.828125,-1.17188 0.828125,-4.6875 0,-3.53125 -0.828125,-4.6875 -0.828125,-1.17188 -2.046875,-1.17188 -1.21875,0 -1.9375,1.03125 -0.90625,1.29688 -0.90625,4.82813 z"
     fill="#000000" />
  <path
     id="path938"
     fill-rule="nonzero"
     d="m 9.703125,81.734123 -1.75,0.14063 q -0.234375,-1.03125 -0.65625,-1.5 -0.71875,-0.76563 -1.765625,-0.76563 -0.84375,0 -1.46875,0.46875 -0.828125,0.60938 -1.3125,1.78125 -0.484375,1.15625 -0.5,3.29688 0.640625,-0.95313 1.546875,-1.42188 0.921875,-0.46875 1.9375,-0.46875 1.75,0 2.984375,1.29688 1.234375,1.28125 1.234375,3.32812 0,1.35938 -0.578125,2.51563 -0.578125,1.15625 -1.59375,1.78125 -1.015625,0.60937 -2.3125,0.60937 -2.1875,0 -3.578125,-1.60937 Q 0.5,89.562253 0.5,85.843503 q 0,-4.14063 1.53125,-6.03125 1.34375,-1.640626 3.609375,-1.640626 1.6875,0 2.765625,0.953126 1.078125,0.9375 1.296875,2.60937 z m -7.171875,6.17188 q 0,0.90625 0.375,1.73437 0.390625,0.82813 1.078125,1.26563 0.703125,0.4375 1.453125,0.4375 1.125,0 1.921875,-0.89063 0.796875,-0.90625 0.796875,-2.45312 0,-1.48438 -0.796875,-2.32813 -0.78125,-0.85937 -1.984375,-0.85937 -1.1875,0 -2.015625,0.85937 -0.828125,0.84375 -0.828125,2.23438 z m 9.046875,-2.42188 q 0,-2.53125 0.515625,-4.07812 0.53125,-1.5625 1.5625,-2.39063 1.03125,-0.843746 2.59375,-0.843746 1.15625,0 2.015625,0.46875 0.875,0.453126 1.4375,1.328126 0.5625,0.875 0.890625,2.14062 0.328125,1.25 0.328125,3.375 0,2.51563 -0.53125,4.0625 -0.515625,1.54688 -1.546875,2.40625 -1.015625,0.84375 -2.59375,0.84375 -2.078125,0 -3.25,-1.48437 -1.421875,-1.79688 -1.421875,-5.82813 z m 1.8125,0 q 0,3.53125 0.8125,4.70313 0.828125,1.15625 2.046875,1.15625 1.203125,0 2.03125,-1.17188 0.828125,-1.17187 0.828125,-4.6875 0,-3.53125 -0.828125,-4.6875 -0.828125,-1.17187 -2.046875,-1.17187 -1.21875,0 -1.9375,1.03125 -0.90625,1.29687 -0.90625,4.82812 z"
     fill="#000000" />
  <path
     id="path940"
     fill-rule="nonzero"
     d="m 0.703125,28.137293 v -1.6875 H 9.96875 V 27.80917 Q 8.59375,29.262293 7.25,31.68417 5.90625,34.09042 5.1875,36.637293 4.65625,38.43417 4.5,40.574793 H 2.703125 q 0.03125,-1.6875 0.65625,-4.078123 Q 4,34.106043 5.1875,31.887293 q 1.1875,-2.234373 2.515625,-3.75 z m 10.875,5.375 q 0,-2.53125 0.515625,-4.078123 0.53125,-1.5625 1.5625,-2.390627 1.03125,-0.84375 2.59375,-0.84375 1.15625,0 2.015625,0.46875 0.875,0.453127 1.4375,1.328127 0.5625,0.875 0.890625,2.140623 0.328125,1.25 0.328125,3.375 0,2.515627 -0.53125,4.0625 -0.515625,1.546877 -1.546875,2.40625 -1.015625,0.84375 -2.59375,0.84375 -2.078125,0 -3.25,-1.484373 -1.421875,-1.796877 -1.421875,-5.828127 z m 1.8125,0 q 0,3.53125 0.8125,4.703127 0.828125,1.15625 2.046875,1.15625 1.203125,0 2.03125,-1.171877 0.828125,-1.171873 0.828125,-4.6875 0,-3.53125 -0.828125,-4.6875 -0.828125,-1.171873 -2.046875,-1.171873 -1.21875,0 -1.9375,1.03125 -0.90625,1.296873 -0.90625,4.828123 z"
     fill="#000000" />
  <path
     id="path942"
     fill-rule="nonzero"
     d="m 25.078125,415.31511 q 0,-2.53125 0.515625,-4.07812 0.53125,-1.5625 1.5625,-2.39063 1.03125,-0.84375 2.59375,-0.84375 1.15625,0 2.015625,0.46875 0.875,0.45313 1.4375,1.32813 0.5625,0.875 0.890625,2.14062 0.328125,1.25 0.328125,3.375 0,2.51562 -0.53125,4.0625 -0.515625,1.54688 -1.546875,2.40625 -1.015625,0.84375 -2.59375,0.84375 -2.078125,0 -3.25,-1.48438 -1.421875,-1.79687 -1.421875,-5.82812 z m 1.8125,0 q 0,3.53125 0.8125,4.70312 0.828125,1.15626 2.046875,1.15626 1.203125,0 2.03125,-1.17188 0.828125,-1.17188 0.828125,-4.6875 0,-3.53125 -0.828125,-4.6875 -0.828125,-1.17188 -2.046875,-1.17188 -1.21875,0 -1.9375,1.03126 -0.90625,1.29687 -0.90625,4.82812 z"
     fill="#000000" />
  <path
     id="path944"
     fill-rule="nonzero"
     d="m 79.16087,422.37761 h -1.76562 v -11.20312 q -0.625,0.60937 -1.65625,1.21874 -1.03125,0.59376 -1.85938,0.90626 v -1.70313 q 1.48438,-0.6875 2.57813,-1.67187 1.10937,-1 1.5625,-1.92188 h 1.14062 z m 4.375,-7.0625 q 0,-2.53125 0.51563,-4.07812 0.53125,-1.5625 1.5625,-2.39063 1.03125,-0.84375 2.59375,-0.84375 1.15625,0 2.01562,0.46875 0.875,0.45313 1.4375,1.32813 0.5625,0.875 0.89063,2.14062 0.32812,1.25 0.32812,3.375 0,2.51562 -0.53125,4.0625 -0.51562,1.54688 -1.54687,2.40625 -1.01563,0.84375 -2.59375,0.84375 -2.07813,0 -3.25,-1.48438 -1.42188,-1.79687 -1.42188,-5.82812 z m 1.8125,0 q 0,3.53125 0.8125,4.70312 0.82813,1.15626 2.04688,1.15626 1.20312,0 2.03125,-1.17188 0.82812,-1.17188 0.82812,-4.6875 0,-3.53125 -0.82812,-4.6875 -0.82813,-1.17188 -2.04688,-1.17188 -1.21875,0 -1.9375,1.03126 -0.90625,1.29687 -0.90625,4.82812 z"
     fill="#000000" />
  <path
     id="path946"
     fill-rule="nonzero"
     d="m 134.728,420.69011 v 1.6875 h -9.45313 q -0.0156,-0.64062 0.20313,-1.21875 0.35937,-0.96875 1.15625,-1.90625 0.79687,-0.9375 2.29687,-2.17188 2.34375,-1.90624 3.15625,-3.01562 0.82813,-1.125 0.82813,-2.125 0,-1.04688 -0.75,-1.76562 -0.75,-0.71876 -1.95313,-0.71876 -1.26562,0 -2.03125,0.76563 -0.76562,0.76563 -0.76562,2.10937 l -1.8125,-0.1875 q 0.1875,-2.01562 1.39062,-3.07812 1.21875,-1.0625 3.26563,-1.0625 2.04687,0 3.25,1.14062 1.20312,1.14063 1.20312,2.82813 0,0.85937 -0.35937,1.70313 -0.34375,0.82812 -1.15625,1.75 -0.8125,0.90624 -2.70313,2.51562 -1.59375,1.32812 -2.04687,1.79688 -0.4375,0.46874 -0.73438,0.95312 z m 1.76562,-5.375 q 0,-2.53125 0.51563,-4.07812 0.53125,-1.5625 1.5625,-2.39063 1.03125,-0.84375 2.59375,-0.84375 1.15625,0 2.01562,0.46875 0.875,0.45313 1.4375,1.32813 0.5625,0.875 0.89063,2.14062 0.32812,1.25 0.32812,3.375 0,2.51562 -0.53125,4.0625 -0.51562,1.54688 -1.54687,2.40625 -1.01563,0.84375 -2.59375,0.84375 -2.07813,0 -3.25,-1.48438 -1.42188,-1.79687 -1.42188,-5.82812 z m 1.8125,0 q 0,3.53125 0.8125,4.70312 0.82813,1.15626 2.04688,1.15626 1.20312,0 2.03125,-1.17188 0.82812,-1.17188 0.82812,-4.6875 0,-3.53125 -0.82812,-4.6875 -0.82813,-1.17188 -2.04688,-1.17188 -1.21875,0 -1.9375,1.03126 -0.90625,1.29687 -0.90625,4.82812 z"
     fill="#000000" />
  <path
     id="path948"
     fill-rule="nonzero"
     d="m 178.467,418.59636 1.75,-0.23437 q 0.3125,1.5 1.03125,2.15624 0.73437,0.65626 1.78125,0.65626 1.23437,0 2.07812,-0.85938 0.85938,-0.85938 0.85938,-2.125 0,-1.21875 -0.79688,-2 -0.78125,-0.78125 -2,-0.78125 -0.5,0 -1.23437,0.1875 l 0.1875,-1.54687 q 0.17187,0.0312 0.28125,0.0312 1.125,0 2.01562,-0.57812 0.90625,-0.59375 0.90625,-1.8125 0,-0.96875 -0.65625,-1.60938 -0.65625,-0.64062 -1.6875,-0.64062 -1.01562,0 -1.70312,0.65625 -0.6875,0.64063 -0.875,1.92187 l -1.76563,-0.3125 q 0.32813,-1.76562 1.46875,-2.73437 1.14063,-0.96875 2.84375,-0.96875 1.17188,0 2.15625,0.5 0.98438,0.5 1.5,1.375 0.53125,0.875 0.53125,1.84375 0,0.92187 -0.5,1.6875 -0.5,0.76563 -1.46875,1.21875 1.26563,0.28125 1.96875,1.21875 0.70313,0.92187 0.70313,2.29687 0,1.875 -1.375,3.1875 -1.35938,1.29688 -3.45313,1.29688 -1.89062,0 -3.14062,-1.125 -1.23438,-1.125 -1.40625,-2.90625 z m 10.98437,-3.28125 q 0,-2.53125 0.51563,-4.07812 0.53125,-1.5625 1.5625,-2.39063 1.03125,-0.84375 2.59375,-0.84375 1.15625,0 2.01562,0.46875 0.875,0.45313 1.4375,1.32813 0.5625,0.875 0.89063,2.14062 0.32812,1.25 0.32812,3.375 0,2.51562 -0.53125,4.0625 -0.51562,1.54688 -1.54687,2.40625 -1.01563,0.84375 -2.59375,0.84375 -2.07813,0 -3.25,-1.48438 -1.42188,-1.79687 -1.42188,-5.82812 z m 1.8125,0 q 0,3.53125 0.8125,4.70312 0.82813,1.15626 2.04688,1.15626 1.20312,0 2.03125,-1.17188 0.82812,-1.17188 0.82812,-4.6875 0,-3.53125 -0.82812,-4.6875 -0.82813,-1.17188 -2.04688,-1.17188 -1.21875,0 -1.9375,1.03126 -0.90625,1.29687 -0.90625,4.82812 z"
     fill="#000000" />
  <path
     id="path950"
     fill-rule="nonzero"
     d="m 237.04974,422.37761 v -3.42188 H 230.831 v -1.625 l 6.53124,-9.26562 h 1.4375 v 9.26562 h 1.9375 v 1.625 h -1.9375 v 3.42188 z m 0,-5.04688 v -6.45312 l -4.48437,6.45312 z m 5.35938,-2.01562 q 0,-2.53125 0.51562,-4.07812 0.53126,-1.5625 1.5625,-2.39063 1.03126,-0.84375 2.59376,-0.84375 1.15624,0 2.01562,0.46875 0.875,0.45313 1.4375,1.32813 0.5625,0.875 0.89062,2.14062 0.32813,1.25 0.32813,3.375 0,2.51562 -0.53125,4.0625 -0.51562,1.54688 -1.54688,2.40625 -1.01562,0.84375 -2.59374,0.84375 -2.07813,0 -3.25,-1.48438 -1.42188,-1.79687 -1.42188,-5.82812 z m 1.8125,0 q 0,3.53125 0.8125,4.70312 0.82812,1.15626 2.04688,1.15626 1.20312,0 2.03124,-1.17188 0.82813,-1.17188 0.82813,-4.6875 0,-3.53125 -0.82813,-4.6875 -0.82812,-1.17188 -2.04687,-1.17188 -1.21875,0 -1.9375,1.03126 -0.90625,1.29687 -0.90625,4.82812 z"
     fill="#000000" />
  <path
     id="path952"
     fill-rule="nonzero"
     d="m 284.36685,418.62761 1.84375,-0.15625 q 0.20313,1.34375 0.95313,2.03125 0.75,0.67188 1.8125,0.67188 1.26562,0 2.14062,-0.95313 0.875,-0.95313 0.875,-2.54687 0,-1.5 -0.84375,-2.35938 -0.84375,-0.875 -2.20312,-0.875 -0.85938,0 -1.54688,0.39062 -0.67187,0.375 -1.0625,1 l -1.65625,-0.21874 1.39063,-7.35938 h 7.125 v 1.6875 h -5.71875 l -0.76563,3.84375 q 1.28125,-0.90625 2.70313,-0.90625 1.875,0 3.15625,1.3125 1.29687,1.29688 1.29687,3.32812 0,1.95313 -1.14062,3.35938 -1.375,1.75 -3.75,1.75 -1.95313,0 -3.20313,-1.09375 -1.23437,-1.09375 -1.40625,-2.90625 z m 11,-3.3125 q 0,-2.53125 0.51563,-4.07812 0.53125,-1.5625 1.5625,-2.39063 1.03125,-0.84375 2.59375,-0.84375 1.15625,0 2.01562,0.46875 0.875,0.45313 1.4375,1.32813 0.5625,0.875 0.89063,2.14062 0.32812,1.25 0.32812,3.375 0,2.51562 -0.53125,4.0625 -0.51562,1.54688 -1.54687,2.40625 -1.01563,0.84375 -2.59375,0.84375 -2.07813,0 -3.25,-1.48438 -1.42188,-1.79687 -1.42188,-5.82812 z m 1.8125,0 q 0,3.53125 0.8125,4.70312 0.82813,1.15626 2.04688,1.15626 1.20312,0 2.03125,-1.17188 0.82812,-1.17188 0.82812,-4.6875 0,-3.53125 -0.82812,-4.6875 -0.82813,-1.17188 -2.04688,-1.17188 -1.21875,0 -1.9375,1.03126 -0.90625,1.29687 -0.90625,4.82812 z"
     fill="#000000" />
  <path
     id="path954"
     fill-rule="nonzero"
     d="m 346.44962,411.56511 -1.75,0.14062 q -0.23438,-1.03124 -0.65625,-1.5 -0.71875,-0.76562 -1.76563,-0.76562 -0.84374,0 -1.46874,0.46875 -0.82813,0.60937 -1.3125,1.78125 -0.48438,1.15625 -0.5,3.29688 0.64062,-0.95313 1.54687,-1.42188 0.92187,-0.46875 1.9375,-0.46875 1.75,0 2.98437,1.29687 1.23438,1.28126 1.23438,3.32813 0,1.35937 -0.57812,2.51563 -0.57813,1.15624 -1.59376,1.78124 -1.01562,0.60938 -2.3125,0.60938 -2.1875,0 -3.57812,-1.60938 -1.39062,-1.625 -1.39062,-5.34374 0,-4.14063 1.53124,-6.03126 1.34376,-1.64062 3.60938,-1.64062 1.6875,0 2.76562,0.95312 1.07813,0.9375 1.29688,2.60938 z m -7.17188,6.17188 q 0,0.90624 0.375,1.73437 0.39063,0.82813 1.07813,1.26563 0.70313,0.4375 1.45313,0.4375 1.125,0 1.92187,-0.89063 0.79687,-0.90625 0.79687,-2.45313 0,-1.48437 -0.79687,-2.32812 -0.78125,-0.85938 -1.98437,-0.85938 -1.1875,0 -2.01563,0.85938 -0.82813,0.84375 -0.82813,2.23438 z m 9.04688,-2.42188 q 0,-2.53125 0.51562,-4.07812 0.53126,-1.5625 1.5625,-2.39063 1.03126,-0.84375 2.59376,-0.84375 1.15624,0 2.01562,0.46875 0.875,0.45313 1.4375,1.32813 0.5625,0.875 0.89062,2.14062 0.32813,1.25 0.32813,3.375 0,2.51562 -0.53125,4.0625 -0.51562,1.54688 -1.54688,2.40625 -1.01562,0.84375 -2.59374,0.84375 -2.07813,0 -3.25,-1.48438 -1.42188,-1.79687 -1.42188,-5.82812 z m 1.8125,0 q 0,3.53125 0.8125,4.70312 0.82812,1.15626 2.04688,1.15626 1.20312,0 2.03124,-1.17188 0.82813,-1.17188 0.82813,-4.6875 0,-3.53125 -0.82813,-4.6875 -0.82812,-1.17188 -2.04687,-1.17188 -1.21875,0 -1.9375,1.03126 -0.90625,1.29687 -0.90625,4.82812 z"
     fill="#000000" />
  <path
     id="path956"
     fill-rule="nonzero"
     d="m 390.40735,409.94011 v -1.6875 h 9.26562 v 1.35938 q -1.375,1.45312 -2.71875,3.875 -1.34375,2.40624 -2.0625,4.95312 -0.53125,1.79688 -0.6875,3.9375 h -1.79687 q 0.0312,-1.6875 0.65625,-4.07812 0.64062,-2.39063 1.82812,-4.60938 1.1875,-2.23438 2.51563,-3.75 z m 10.875,5.375 q 0,-2.53125 0.51562,-4.07812 0.53125,-1.5625 1.5625,-2.39063 1.03125,-0.84375 2.59375,-0.84375 1.15625,0 2.01563,0.46875 0.875,0.45313 1.4375,1.32813 0.5625,0.875 0.89062,2.14062 0.32813,1.25 0.32813,3.375 0,2.51562 -0.53125,4.0625 -0.51563,1.54688 -1.54688,2.40625 -1.01562,0.84375 -2.59375,0.84375 -2.07812,0 -3.25,-1.48438 -1.42187,-1.79687 -1.42187,-5.82812 z m 1.8125,0 q 0,3.53125 0.8125,4.70312 0.82812,1.15626 2.04687,1.15626 1.20313,0 2.03125,-1.17188 0.82813,-1.17188 0.82813,-4.6875 0,-3.53125 -0.82813,-4.6875 -0.82812,-1.17188 -2.04687,-1.17188 -1.21875,0 -1.9375,1.03126 -0.90625,1.29687 -0.90625,4.82812 z"
     fill="#000000" />
  <path
     id="path958"
     fill-rule="nonzero"
     d="m 39.18104,8.7351517 h 12"
     stroke-linecap="butt"
     stroke-width="4"
     stroke="#c7c7c7" />
  <path
     id="path962"
     fill-rule="nonzero"
     d="m 130.18105,8.7351507 c 0,3.3137083 -2.6863,6.0000013 -6,6.0000013 -3.31371,0 -6,-2.686293 -6,-6.0000013 0,-3.31371 2.68629,-6 6,-6 3.3137,0 6,2.68629 6,6 z"
     fill="#4ca2d4" />
  <path
     style="stroke-width:1.331"
     id="path966"
     fill-rule="nonzero"
     d="m 274.53411,3.0881967 h 11.29388 V 14.382106 h -11.29388 z"
     fill="#983dfb" />
  <text
     id="text980"
     y="14.182318"
     x="57.245625"
     style="font-style:normal;font-weight:normal;font-size:18.6667px;line-height:1.25;font-family:sans-serif;fill:#000000;fill-opacity:1;stroke:none"
     xml:space="preserve"><tspan
       style="font-size:18.6667px"
       y="14.182318"
       x="57.245625"
       id="tspan978"
       sodipodi:role="line">ideal</tspan></text>
  <text
     id="text984"
     y="14.273464"
     x="136.04248"
     style="font-style:normal;font-weight:normal;font-size:18.6667px;line-height:1.25;font-family:sans-serif;fill:#000000;fill-opacity:1;stroke:none"
     xml:space="preserve"><tspan
       style="font-size:18.6667px"
       y="14.273464"
       x="136.04248"
       id="tspan982"
       sodipodi:role="line">self-speedup</tspan></text>
  <text
     id="text988"
     y="14.182318"
     x="292.15845"
     style="font-style:normal;font-weight:normal;font-size:18.6667px;line-height:1.25;font-family:sans-serif;fill:#000000;fill-opacity:1;stroke:none"
     xml:space="preserve"><tspan
       style="font-size:18.6667px"
       y="14.182318"
       x="292.15845"
       id="tspan986"
       sodipodi:role="line">speedup</tspan></text>
  <text
     id="text992"
     y="450.5452"
     x="156.17014"
     style="font-style:normal;font-weight:normal;font-size:18.6667px;line-height:1.25;font-family:sans-serif;fill:#000000;fill-opacity:1;stroke:none"
     xml:space="preserve"><tspan
       style="font-size:18.6667px"
       y="450.5452"
       x="156.17014"
       id="tspan990"
       sodipodi:role="line">processors</tspan></text>
</svg>
