<?xml version="1.0" encoding="UTF-8"?>
<svg version="1.2" viewBox="0 0 326.16 131.11" xmlns="http://www.w3.org/2000/svg" xmlns:cc="http://creativecommons.org/ns#" xmlns:dc="http://purl.org/dc/elements/1.1/" xmlns:rdf="http://www.w3.org/1999/02/22-rdf-syntax-ns#">
<metadata>
<rdf:RDF>
<cc:Work rdf:about="">
<dc:format>image/svg+xml</dc:format>
<dc:type rdf:resource="http://purl.org/dc/dcmitype/StillImage"/>
<dc:title>reverb</dc:title>
</cc:Work>
</rdf:RDF>
</metadata>
<title>reverb</title>
<path d="m15.035 0.060693 0.57 5.606 0.228 4.8716-0.238 13.301-0.028 5.6418 0.43 13.452 0.032 7.7134-0.088 18.245 0.356 12.333 0.068 12.287-0.118 7.9124-0.248 8.5834-0.796 11.761-0.324 6.1136" fill="none" stroke="#bfbfbf" stroke-linejoin="round" stroke-width="1.2"/>
<path d="m0.079181 69.347 0.332 0.0442 1.916-0.0774 0.968 0.0552 1.75-0.067 5.692-0.7396 2.408-0.1816 7.364 0.0766 2.728-0.084 3.19-0.3732 3.2-0.2678 4.414-0.078 10.23 0.1536 14.634-0.5748 6.626-3e-3 14.278 0.3922 10.154-0.032 8.172-0.1204 18.478 0.3514 10.914-0.053 11.336 0.1386 7.0248 0.2672 11.178 0.2962 6.3766 0.3078 11.023 0.2954 4.697 0.2414 8.9578 0.6108 8.5828 0.5064 2.1166 0.2984 2.1456 0.1382 2.1612-0.0348 4.3154 0.1584 8.823 0.6132 6.8692 0.3112 2.2964 0.1674 6.825 0.1644 8.7958 0.3472 12.509 0.9504 2.1812 0.032 24.236 0.9562 4.1832 0.2764 7.7576 0.344 11.732 0.4012 10.857 0.2738 3.809 0.1714 1.5774 0.1152 1.4274 0.185 0.9446-0.394" fill="none" stroke="#bfbfbf" stroke-linejoin="round" stroke-width="1.2"/>
<path d="m6.6452 80.308c0.132 0.1262 0.246 0.2768 0.398 0.3784 0.058 0.038 0.14 0.046 0.206 0.0238 0.262-0.0902 0.586-0.1314 0.754-0.3528 0.262-0.3472 0.27-0.829 0.442-1.2292 0.178-0.4126 0.38-0.8146 0.602-1.205 0.662-1.1602 1.332-2.3152 2.044-3.444 0.208-0.3294 0.494-0.6046 0.716-0.925 0.378-0.5474 0.704-1.1306 1.086-1.676 0.086-0.1232 0.23-0.1988 0.314-0.324 0.45-0.6768 0.834-1.3978 1.284-2.0748 0.084-0.1254 0.228-0.2024 0.316-0.3252 0.246-0.3462 0.434-0.732 0.686-1.076 0.284-0.3906 0.626-0.7352 0.914-1.124 0.646-0.8786 1.222-1.8092 1.886-2.676 0.206-0.2692 0.498-0.4616 0.714-0.724 0.386-0.4728 0.704-0.999 1.086-1.476 0.152-0.191 0.36-0.333 0.514-0.524 0.114-0.1446 0.158-0.3408 0.286-0.476 0.81-0.8682 1.718-1.6414 2.514-2.524 0.408-0.454 0.7-1.002 1.086-1.476 0.482-0.5936 1.044-1.1204 1.514-1.724 0.93-1.198 1.728-2.4988 2.686-3.676 0.494-0.6088 1.132-1.087 1.66-1.6676 0.142-0.1556 0.2-0.3744 0.34-0.5324 0.346-0.3966 0.766-0.7274 1.112-1.124 0.14-0.1582 0.204-0.3708 0.34-0.5324 0.2-0.2408 0.46-0.427 0.66-0.6676 0.136-0.1616 0.206-0.3696 0.34-0.5324 0.468-0.5722 0.994-1.0948 1.462-1.6676 0.116-0.1434 0.166-0.3338 0.286-0.476 0.548-0.6598 1.164-1.2642 1.714-1.924 0.118-0.1422 0.162-0.3384 0.286-0.476 0.478-0.5322 1.034-0.992 1.514-1.524 0.14-0.1562 0.192-0.38 0.338-0.5324 1.106-1.1654 2.302-2.2458 3.408-3.4112 0.146-0.1524 0.198-0.3768 0.34-0.5324 0.544-0.5994 1.168-1.1246 1.714-1.724 0.14-0.1556 0.204-0.3694 0.338-0.5324 0.152-0.1866 0.324-0.3584 0.51-0.5102 0.162-0.1328 0.372-0.2014 0.532-0.3384 0.328-0.2824 0.596-0.632 0.924-0.914 0.14-0.1204 0.336-0.1656 0.476-0.286 0.33-0.282 0.596-0.632 0.924-0.914 0.14-0.1204 0.336-0.1656 0.476-0.286 0.33-0.282 0.596-0.632 0.924-0.914 0.14-0.1204 0.336-0.1656 0.476-0.286 0.328-0.282 0.586-0.6434 0.924-0.914 0.998-0.798 2.084-1.4822 3.076-2.286 0.41-0.332 0.728-0.7666 1.124-1.114 0.14-0.122 0.338-0.163 0.476-0.286 0.464-0.413 0.838-0.9256 1.324-1.314 0.852-0.6818 1.796-1.2406 2.676-1.886 0.122-0.089 0.2-0.2278 0.324-0.314 0.546-0.3818 1.13-0.7042 1.676-1.086 0.124-0.0862 0.202-0.2268 0.324-0.314 0.588-0.4186 1.188-0.8194 1.8-1.2004 0.614-0.3814 1.28-0.6788 1.876-1.0856 0.872-0.5952 1.64-1.3398 2.526-1.9148 1.584-1.0274 3.26-1.9056 4.874-2.8848 0.25-0.1518 0.454-0.377 0.716-0.5068 1.846-0.9124 3.71-1.7862 5.596-2.6142 1.314-0.5778 2.654-1.0964 4-1.6018 2.388-0.8978 4.772-1.8122 7.196-2.6074 1.026-0.3362 2.088-0.5472 3.14-0.7834 0.352-0.0788 0.712-0.1236 1.07-0.1608 1.38-0.1434 2.762-0.2818 4.146-0.3802 0.398-0.0284 0.802-0.0532 1.196 0 1.942 0.261 3.874 0.584 5.798 0.941 0.462 0.0858 0.912 0.2362 1.358 0.3856 1.34 0.448 2.676 0.9084 3.998 1.4054 1.344 0.5056 2.686 1.0196 3.998 1.6016 0.952 0.4216 1.874 0.907 2.788 1.4062 0.26 0.1424 0.472 0.3602 0.724 0.5148 0.948 0.579 1.968 1.043 2.874 1.6848 0.702 0.4968 1.254 1.178 1.926 1.7148 0.664 0.5316 1.436 0.9248 2.076 1.486 0.98 0.8594 1.872 1.8152 2.766 2.7626 0.248 0.2608 0.454 0.558 0.654 0.8564 1.15 1.7214 2.346 3.417 3.4 5.2008 0.964 1.635 1.792 3.3472 2.644 5.044 0.286 0.5684 0.54 1.1532 0.764 1.7482 0.986 2.6206 1.872 5.2788 2.868 7.896 0.894 2.3468 1.86 4.666 2.8 6.994 0.326 0.8052 0.642 1.6154 1.002 2.4058 0.7502 1.645 1.5858 3.2498 2.3276 4.8984 0.4586 1.019 0.8062 2.086 1.2726 3.1014 0.6128 1.334 1.2668 2.6498 1.9626 3.9424 0.5454 1.013 1.191 1.9692 1.7586 2.9698 1.1804 2.081 2.2668 4.2154 3.4852 6.2744 0.7162 1.2098 1.5818 2.326 2.3148 3.5258 0.7344 1.2016 1.372 2.4598 2.0852 3.674 0.5154 0.8776 1.0522 1.7426 1.6 2.6 0.9858 1.543 1.9782 3.082 3.0004 4.601 0.084 0.1248 0.2268 0.2016 0.314 0.324 0.4188 0.5874 0.8158 1.1906 1.2006 1.801 0.1776 0.2818 0.306 0.593 0.485 0.874 0.5166 0.8114 1.0476 1.614 1.6004 2.401 0.0866 0.123 0.2252 0.2026 0.314 0.324 0.2838 0.3884 0.5506 0.7898 0.8004 1.201 0.779 1.281 1.5064 2.593 2.2852 3.874 0.25 0.411 0.502 0.8238 0.8004 1.201 0.4746 0.5998 1.0298 1.132 1.514 1.724 0.1172 0.1432 0.1642 0.3366 0.286 0.476 0.3474 0.397 0.7666 0.727 1.114 1.124 0.122 0.1392 0.1642 0.3366 0.286 0.476 0.3474 0.397 0.7666 0.727 1.114 1.124 0.122 0.1392 0.1586 0.3418 0.286 0.476 1.1252 1.1838 2.3368 2.2834 3.4616 3.4676 0.1448 0.1524 0.2014 0.373 0.3384 0.5324 0.2824 0.3284 0.632 0.595 0.914 0.924 0.1204 0.1406 0.1602 0.3402 0.286 0.476 0.6936 0.7484 1.4152 1.4718 2.1626 2.1666 0.154 0.1432 0.378 0.1958 0.5324 0.3384 0.7152 0.6602 1.3524 1.4014 2.0676 2.0616 0.1546 0.1426 0.3762 0.1976 0.5324 0.3384 0.532 0.4792 0.992 1.0348 1.524 1.514 0.1562 0.1408 0.3708 0.2038 0.5324 0.3384 0.2408 0.2006 0.421 0.4684 0.6676 0.6616 0.6702 0.5246 1.4058 0.9616 2.076 1.486 0.8646 0.6766 1.6262 1.4844 2.5252 2.1146 1.3482 0.9452 2.7858 1.7564 4.1996 2.5998 0.7346 0.438 1.4798 0.8602 2.2442 1.2438 1.7652 0.8856 3.5356 1.7644 5.3422 2.5624 1.0624 0.4694 2.163 0.8486 3.2578 1.2368 1.1694 0.4148 2.3452 0.8132 3.533 1.1712 1.6594 0.5002 3.331 0.9608 5.0068 1.4026 0.841 0.2218 1.6884 0.422 2.5422 0.5878 0.8504 0.1652 1.7062 0.3072 2.567 0.4046 1.7448 0.1972 3.4998 0.2914 5.2456 0.4792 1.1366 0.1224 2.2596 0.3684 3.3998 0.4514 0.93 0.0668 1.8676 0.0728 2.7972 0 1.251-0.0978 2.4936-0.2948 3.7296-0.5108 1.2854-0.2246 2.5592-0.513 3.83-0.81 0.4698-0.1098 0.9352-0.2434 1.388-0.4098 1.0128-0.3718 2.023-0.7556 3.0046-1.203 1.3358-0.6086 2.646-1.2736 3.9422-1.9624 0.9668-0.5138 1.9212-1.0544 2.844-1.6438 1.2938-0.8264 2.5568-1.7014 3.801-2.6004 0.932-0.6734 1.7896-1.4464 2.7252-2.1148 0.4666-0.3332 1.0052-0.5564 1.4748-0.8852 0.2004-0.1404 0.333-0.3612 0.524-0.514 0.1446-0.1156 0.3366-0.1644 0.476-0.286 0.362-0.316 0.7026-0.6576 1.019-1.019 0.1384-0.1582 0.1944-0.3794 0.3384-0.5324 0.9256-0.9834 1.9362-1.8842 2.8616-2.8676 0.1442-0.1532 0.2038-0.371 0.3384-0.5324 0.2006-0.2408 0.4618-0.4264 0.6616-0.6676 0.1182-0.1426 0.1676-0.3338 0.286-0.476 0.217-0.2604 0.4964-0.4642 0.714-0.724 0.135-0.1612 0.2038-0.3708 0.3384-0.5324 0.2006-0.2408 0.4618-0.4264 0.6616-0.6676 0.1182-0.1426 0.1676-0.3338 0.286-0.476 0.217-0.2604 0.4964-0.4642 0.714-0.724 0.135-0.1612 0.2002-0.374 0.3384-0.5324 0.299-0.3426 0.6232-0.6646 0.9666-0.9626 0.1588-0.1378 0.3758-0.1982 0.5324-0.3384 0.4604-0.4118 0.8984-0.85 1.3102-1.3102 0.1402-0.1568 0.1998-0.3744 0.3384-0.5324 0.3478-0.3966 0.7662-0.7274 1.114-1.124 0.1386-0.1582 0.202-0.3724 0.3384-0.5324 0.234-0.2742 0.4916-0.5296 0.7666-0.7626 0.1604-0.136 0.38-0.1936 0.5324-0.3384 1.13-1.0726 2.2316-2.176 3.3056-3.3046 0.2282-0.2398 0.3662-0.5556 0.5954-0.7944 1.3918-1.4506 2.8916-2.7962 4.2616-4.2676 0.4162-0.447 0.695-1.0068 1.086-1.476 0.2774-0.3328 0.632-0.595 0.914-0.924 0.1204-0.1406 0.1642-0.3368 0.286-0.476 0.3474-0.397 0.7732-0.7214 1.114-1.124 0.3946-0.4664 0.7044-0.999 1.086-1.476 0.1528-0.1912 0.3672-0.3282 0.514-0.524 0.6548-0.873 1.2312-1.803 1.886-2.676 0.1468-0.1958 0.3648-0.33 0.514-0.524 0.5188-0.6746 0.9484-1.4162 1.486-2.076 0.9308-1.1424 1.9708-2.192 2.914-3.324 0.391-0.4692 0.7044-0.999 1.086-1.476 0.1528-0.191 0.3612-0.333 0.514-0.524 0.1156-0.1446 0.1614-0.339 0.286-0.476 0.5452-0.5996 1.1688-1.1246 1.714-1.724 0.1414-0.1556 0.1916-0.3818 0.3384-0.5324 2.271-2.332 4.5852-4.6216 6.9046-6.9054 0.0928-0.0914 0.2346-0.1226 0.3268-0.215 0.629-0.6306 1.2438-1.2766 1.8302-1.9472 0.1384-0.1582 0.1944-0.3792 0.3384-0.5324 0.8274-0.8816 1.6692-1.7526 2.5666-2.5626 0.4534-0.4092 0.999-0.7044 1.476-1.086 0.191-0.1528 0.333-0.3612 0.524-0.514 0.1446-0.1156 0.3368-0.1642 0.476-0.286 0.397-0.3474 0.7274-0.7662 1.124-1.114 0.158-0.1386 0.3728-0.2016 0.5324-0.3384 0.3094-0.2652 0.5582-0.5964 0.8676-0.8616 0.1596-0.1368 0.3696-0.2052 0.5324-0.3384 0.5722-0.468 1.0946-0.9946 1.6676-1.4616 0.1434-0.117 0.3328-0.1688 0.476-0.286 0.592-0.4844 1.1268-1.0362 1.724-1.514 0.4044-0.3234 0.8672-0.5682 1.276-0.886 0.1932-0.1502 0.3334-0.3606 0.524-0.514 0.8518-0.6856 1.7133-1.3602 2.6-2 0.53982-0.3896 1.1348-0.6986 1.6761-1.086 0.13114-0.094 0.27558-0.2008 0.33224-0.3518 0.0709-0.1888 0.0415-0.4034 0.0266-0.6044-7e-3 -0.0946-3e-3 -0.2352-0.0913-0.2694-0.1917-0.074-0.43076-0.092-0.61642-4e-3 -0.61924 0.2936-1.1646 0.724-1.7272 1.1154-0.5472 0.3808-1.0812 0.7814-1.6 1.2-0.1904 0.1536-0.3308 0.3638-0.524 0.514-0.4088 0.318-0.8672 0.568-1.276 0.886-0.1932 0.1502-0.333 0.3612-0.524 0.514-0.477 0.3816-0.999 0.7044-1.476 1.086-0.191 0.1528-0.333 0.3612-0.524 0.514-0.1446 0.1156-0.3338 0.1674-0.476 0.286-0.2604 0.217-0.4616 0.4994-0.724 0.714-0.4728 0.3868-1.0032 0.6992-1.476 1.086-0.2624 0.2146-0.4636 0.497-0.724 0.714-0.1422 0.1184-0.3376 0.163-0.476 0.286-0.4648 0.413-0.8596 0.9006-1.324 1.314-0.157 0.1398-0.3708 0.2038-0.5324 0.3384-0.2408 0.2006-0.4224 0.4664-0.6676 0.6616-0.405 0.3226-0.8726 0.5614-1.276 0.886-0.6124 0.4928-1.2094 1.008-1.7666 1.5626-0.149 0.1484-0.1958 0.3778-0.3384 0.5324-0.6776 0.734-1.4364 1.39-2.114 2.124-0.1426 0.1544-0.196 0.3776-0.3384 0.5324-0.6098 0.6626-1.2476 1.3004-1.9102 1.9102-0.1546 0.1424-0.3666 0.209-0.5324 0.3384-0.1356 0.1056-0.2596 0.228-0.3666 0.3626-0.1468 0.1842-0.2268 0.4198-0.3908 0.5888-1.9724 2.034-4.0364 3.9776-6.0092 6.0112-0.1464 0.1508-0.1998 0.3742-0.3384 0.5324-0.3478 0.3966-0.7732 0.7212-1.114 1.124-0.3946 0.4662-0.7044 0.999-1.086 1.476-0.1528 0.191-0.3612 0.333-0.514 0.524-0.1156 0.1446-0.1656 0.3354-0.286 0.476-0.6816 0.7952-1.4508 1.5134-2.114 2.324-0.5388 0.6586-0.969 1.4-1.486 2.076-0.3504 0.4582-0.773 0.8588-1.114 1.324-0.3936 0.5368-0.6866 1.1434-1.086 1.676-0.4024 0.5366-0.895 1.0002-1.314 1.524-0.1156 0.1446-0.1656 0.3354-0.286 0.476-0.282 0.329-0.632 0.595-0.914 0.924-0.1204 0.1406-0.1642 0.3366-0.286 0.476-0.3474 0.397-0.7732 0.7212-1.114 1.124-0.3946 0.4662-0.6716 1.0272-1.086 1.476-1.1716 1.2694-2.4704 2.4164-3.6616 3.6676-0.1624 0.1706-0.2266 0.4198-0.3908 0.5888-2.1722 2.2342-4.437 4.377-6.6092 6.6112-0.1642 0.1688-0.228 0.4186-0.3908 0.5888-1.3066 1.3662-2.7022 2.6452-4.0092 4.0112-0.1454 0.1518-0.2034 0.3712-0.3384 0.5324-0.2176 0.2598-0.497 0.4636-0.714 0.724-0.1184 0.1422-0.1674 0.3338-0.286 0.476-0.217 0.2604-0.497 0.4636-0.714 0.724-0.1184 0.1422-0.1674 0.3338-0.286 0.476-0.217 0.2604-0.497 0.4636-0.714 0.724-0.1184 0.1422-0.1674 0.3338-0.286 0.476-0.217 0.2604-0.497 0.4636-0.714 0.724-0.1186 0.1422-0.1578 0.3424-0.286 0.476-1.377 1.435-2.7246 2.9064-4.219 4.219-0.6808 0.598-1.5388 0.9594-2.276 1.486-0.664 0.4744-1.2598 1.0398-1.924 1.514-1.445 1.0314-2.9062 2.0422-4.4008 3.0004-0.922 0.5908-1.88 1.1248-2.8442 1.6438-0.8988 0.4836-1.8114 0.9438-2.7424 1.3626-1.1194 0.5036-2.2564 0.9692-3.4046 1.403-0.475 0.1794-0.9656 0.3188-1.46 0.4344-1.269 0.2968-2.5434 0.5742-3.8266 0.8024-1.1472 0.204-2.2994 0.399-3.4608 0.4936-0.8628 0.0704-1.7338 0.0634-2.5972 0-1.2226-0.0898-2.4302-0.3284-3.649-0.459-1.642-0.1758-3.2916-0.2754-4.9326-0.46-0.8352-0.094-1.6694-0.2094-2.4934-0.3756-1.171-0.236-2.3314-0.5248-3.4864-0.83-1.4078-0.372-2.8136-0.7556-4.2-1.201-1.9432-0.624-3.8858-1.2586-5.785-2.0062-1.499-0.5902-2.9492-1.2996-4.3988-2.0028-1.0008-0.4854-1.9896-0.9988-2.949-1.5614-1.7734-1.04-3.5474-2.085-5.2452-3.2442-0.6316-0.4312-1.1216-1.0426-1.724-1.514-0.9326-0.73-1.9512-1.3462-2.876-2.086-0.412-0.3296-0.7274-0.7662-1.124-1.114-0.158-0.1386-0.3774-0.1964-0.5324-0.3384-0.648-0.594-1.2196-1.2676-1.8676-1.8616-0.155-0.1422-0.3778-0.1958-0.5324-0.3384-0.7152-0.6602-1.3524-1.4014-2.0676-2.0616-0.1544-0.1426-0.3672-0.2082-0.5324-0.3384-0.135-0.1064-0.2578-0.2304-0.3626-0.3666-0.1128-0.1466-0.1656-0.3354-0.286-0.476-0.282-0.329-0.632-0.595-0.914-0.924-0.1204-0.1406-0.1588-0.3414-0.286-0.476-0.992-1.0502-2.0696-2.0174-3.0616-3.0676-0.1444-0.1528-0.1986-0.3754-0.3384-0.5324-0.4134-0.4644-0.9006-0.8596-1.314-1.324-0.1398-0.157-0.1998-0.3742-0.3384-0.5324-0.3304-0.3778-0.7316-0.6896-1.0616-1.0676-0.1218-0.1394-0.164-0.3368-0.286-0.476-0.3474-0.397-0.77-0.724-1.114-1.124-0.4958-0.5768-0.9898-1.1612-1.4008-1.8014-1.0198-1.5886-1.886-3.2716-2.8846-4.8736-0.4308-0.691-0.9174-1.3458-1.4006-2.001-0.0894-0.1214-0.2332-0.1984-0.3148-0.3252-0.52-0.809-0.9644-1.6646-1.4844-2.4736-0.0816-0.1268-0.2306-0.2-0.3148-0.3252-1.4224-2.1188-2.818-4.2558-4.2004-6.401-0.5512-0.8554-1.093-1.7176-1.6-2.5998-0.3886-0.6768-0.6774-1.409-1.0852-2.0744-0.8602-1.4036-1.8408-2.7306-2.7148-4.1256-0.698-1.1144-1.3582-2.2524-2-3.4-0.4536-0.8112-0.832-1.663-1.2852-2.4744-0.8946-1.6014-1.8986-3.1414-2.757-4.7624-0.717-1.354-1.3488-2.7526-1.9656-4.1552-0.3294-0.7494-0.534-1.55-0.8712-2.296-0.5968-1.3212-1.3142-2.585-1.9274-3.8986-0.4302-0.9218-0.8248-1.8604-1.2022-2.8054-0.38-0.956-0.688-1.9402-1.07-2.8958-0.284-0.712-0.652-1.3894-0.93-2.1044-1.444-3.7334-2.724-7.53-4.232-11.238-0.506-1.2428-1.182-2.4092-1.8-3.5998-0.464-0.891-0.92-1.7882-1.444-2.6442-0.958-1.5606-1.956-3.097-3-4.6008-0.33-0.4738-0.76-0.8688-1.114-1.324-0.114-0.146-0.162-0.34-0.286-0.476-0.646-0.6992-1.296-1.4002-2.02-2.019-0.646-0.5534-1.406-0.9616-2.076-1.486-0.864-0.6764-1.626-1.484-2.524-2.114-1.348-0.9454-2.762-1.7984-4.2-2.6004-0.962-0.5358-1.976-0.975-2.988-1.4064-1.186-0.5058-2.394-0.9566-3.604-1.4034-1.326-0.4894-2.654-0.9694-3.998-1.4046-0.522-0.1692-1.056-0.3084-1.596-0.4068-1.84-0.336-3.686-0.6504-5.54-0.8954-0.466-0.0618-0.942-0.0594-1.41-0.0232-1.824 0.1406-3.654 0.2732-5.462 0.5532-1.05 0.1626-2.072 0.4776-3.094 0.7712-0.81 0.233-1.608 0.5094-2.396 0.8074-3.278 1.2386-6.566 2.4564-9.8 3.8018-1.55 0.6438-3.068 1.3642-4.542 2.1624-1.858 1.0056-3.64 2.1456-5.444 3.2438-0.412 0.25-0.814 0.5148-1.202 0.8004-0.388 0.2866-0.722 0.6462-1.124 0.914-1.4 0.9336-2.866 1.7666-4.276 2.686-0.126 0.0822-0.202 0.2272-0.324 0.314-1.012 0.7144-2.062 1.3736-3.076 2.086-0.546 0.3834-1.088 0.772-1.6 1.2-0.332 0.2782-0.594 0.632-0.924 0.914-0.14 0.1204-0.338 0.163-0.476 0.286-0.464 0.413-0.852 0.9094-1.324 1.314-0.464 0.3976-0.998 0.7044-1.476 1.086-0.192 0.1528-0.33 0.3638-0.524 0.514-0.408 0.3178-0.872 0.5626-1.276 0.886-0.264 0.2118-0.464 0.497-0.724 0.714-0.142 0.1186-0.336 0.1656-0.476 0.286-0.328 0.282-0.596 0.632-0.924 0.914-0.14 0.1204-0.336 0.1656-0.476 0.286-0.328 0.282-0.596 0.632-0.924 0.914-0.14 0.1204-0.336 0.1656-0.476 0.286-0.328 0.282-0.594 0.632-0.924 0.914-0.14 0.1204-0.34 0.1612-0.476 0.286-0.612 0.5592-1.176 1.1706-1.762 1.757-0.154 0.1532-0.322 0.2928-0.456 0.462-0.132 0.1642-0.194 0.38-0.34 0.5324-1.106 1.1654-2.302 2.2458-3.408 3.4112-0.146 0.1524-0.198 0.3768-0.338 0.5324-0.546 0.5994-1.17 1.1246-1.714 1.724-0.142 0.1556-0.2 0.3742-0.34 0.5324-0.33 0.3778-0.73 0.6898-1.06 1.0676-0.14 0.1582-0.206 0.3696-0.34 0.5324-0.468 0.572-0.994 1.0946-1.46 1.6676-0.118 0.1434-0.168 0.3338-0.286 0.476-0.218 0.2604-0.5 0.4616-0.714 0.724-0.388 0.4728-0.692 1.0098-1.086 1.476-0.342 0.4026-0.768 0.7274-1.114 1.124-0.14 0.158-0.196 0.378-0.34 0.5324-0.66 0.7152-1.44 1.3174-2.06 2.0676-0.968 1.1696-1.762 2.4732-2.686 3.676-0.41 0.5316-0.896 1.0002-1.314 1.524-0.382 0.477-0.69 1.0122-1.086 1.476-0.406 0.4722-0.902 0.8596-1.314 1.324-0.14 0.157-0.198 0.3768-0.34 0.5324-0.528 0.5806-1.134 1.087-1.66 1.6676-0.142 0.1556-0.204 0.3708-0.34 0.5324-0.2 0.2408-0.462 0.4248-0.66 0.6676-0.386 0.4734-0.706 0.999-1.086 1.476-0.154 0.191-0.368 0.3282-0.514 0.524-0.656 0.873-1.24 1.7974-1.886 2.676-0.288 0.3888-0.64 0.727-0.914 1.124-0.928 1.3378-1.764 2.7364-2.686 4.076-0.412 0.5952-0.918 1.1216-1.316 1.7252-0.642 0.9736-1.232 1.9806-1.8 2.9996-0.514 0.9254-0.936 1.899-1.44 2.8302-0.134 0.2474-0.364 0.4408-0.47 0.7014" fill="#0c0c0c"/>
<path d="m34.916 64.429-0.05808-0.06679 0.04598 0.10237-0.05566 0.2633 0.11616 1.3796-0.01694 4.855-0.07502-0.18997 0.01694-0.50118-0.16456-1.438-0.11132-2.3764-0.02662-2.5594 0.0726 0.29113 0.2057 2.5178-0.04598 4.1522v-2.6606l-0.42592-1.0459" fill="none" stroke="#399bd4" stroke-linejoin="round" stroke-width="1.452"/>
<path d="m59.545 63.899 0.12342 0.1844-0.06534-0.07599 0.05324-4.84e-4 -0.0605 0.378 0.06776 2.4991-0.3267 3.2561 0.04356 0.39373 0.27588-0.85232 0.07744-0.71366-0.22022-2.9255 0.08712-1.9452" fill="none" stroke="#399bd4" stroke-linejoin="round" stroke-width="1.452"/>
<path d="m84.035 64.669-0.30734 0.32985 0.12584-0.40583 0.02904 0.38599-0.08954 2.6823-0.20328 1.9493 0.14278 0.82304-0.07502-6.4188 0.08712-0.20522 0.19602 1.7327 0.03388 1.3695-0.22022 2.4829 0.05808 0.38793 0.11616 0.04622-0.0024-0.10721" fill="none" stroke="#399bd4" stroke-linejoin="round" stroke-width="1.452"/>
<path d="m109.21 64.625-0.2057-0.21586 0.1573 0.24732 0.0629 0.55466-0.16214 4.4029 0.0653 0.8712 0.0532-0.04501-0.1331-0.86563-8e-3 -1.292 0.33396-3.4976-0.029-0.19554-0.0871-0.1089-0.0339 0.04017 0.0508-0.02347-0.0339-0.469-0.075 0.69744 0.14278 5.4314-0.0242 0.57233-0.0774-0.34703" fill="none" stroke="#399bd4" stroke-linejoin="round" stroke-width="1.452"/>
<path d="m133.81 64.29-0.11616-0.1786 0.17666 0.09656 0.0557 0.20449 0.0774 1.3917-0.20328 2.8476 0.10648 0.54256-0.11132-0.93364 0.0242-1.5454 0.11374-1.4186 0.1815-1.0529-0.22748 7.6869 0.11132 0.06219 0.17666-2.0355 0.01-4.635" fill="none" stroke="#399bd4" stroke-linejoin="round" stroke-width="1.452"/>
<path d="m163.14 67.496-0.23522-0.23643" fill="none" stroke="#399bd4" stroke-linejoin="round" stroke-width="1.452"/>
<path d="m163.34 67.253" fill="none" stroke="#399bd4" stroke-linejoin="round" stroke-width="1.2"/>
<path d="m163.5 66.91-0.49828-0.25483" fill="none" stroke="#399bd4" stroke-linejoin="round" stroke-width="1.452"/>
<path d="m163.32 66.398-0.14811-0.0605 0.0631 9.68e-4 -0.0125 0.59943-0.15923 1.5907-0.0591 1.7891 0.0726 1.3871 0.0694-0.39736 0.13842-0.20618-0.0597-2.2704 0.11229-2.2579-0.0363-0.09341 0.0331 0.25483-0.10912 0.5975 0.13431 0.67131-0.1469 3.418 0.0452 0.77029 0.10241-0.31484 0.0859-0.87265-0.0796-0.99026-0.0322-4.3003-0.11954-0.35042 0.10934 0.39494 0.0772 0.82933-0.0879 1.0972-0.099 0.3659-0.66913-0.86079" fill="none" stroke="#399bd4" stroke-linejoin="round" stroke-width="1.452"/>
<path d="m188.96 67.048 0.14278 2.4176-0.22022 2.6443 0.0653 0.10914 0.0334-0.11398-0.0474-0.24321 0.0908-0.37437-0.14858-3.932 0.15488 1.2037 0.0644 2.5253-0.11544 1.8549 0.10186-0.69865-5e-3 -4.6885-0.0583-0.22191 0.0145 0.27201-0.7531-0.5053" fill="none" stroke="#399bd4" stroke-linejoin="round" stroke-width="1.452"/>
<path d="m212.3 68.197-0.0436-0.03703 0.023 0.12173 0.0867 0.0048-0.0506-0.02638-1e-3 0.07744-0.0238-0.05493-0.0547 0.16166 0.098 0.29088-0.0325 0.25265 0.18804 1.8639-0.24612 3.2377 0.0392 0.09293 0.0801-0.11301-0.0789-0.27636 0.18054-0.63864 2.4e-4 -0.35332-0.22772-1.4377-0.24346-3.0354 4e-3 0.15851 0.12657 0.19892 0.18029 1.1839 0.16819 1.6942-9e-3 1.1626-0.19505 1.5379 0.0952-1.1277-0.0462-1.4822 0.11204-1.5415-0.0288-0.47722" fill="none" stroke="#399bd4" stroke-linejoin="round" stroke-width="1.452"/>
<path d="m236.77 69.234-0.0964 0.015 0.0286 0.1014 0.0455-0.04961-0.0488-0.03945-0.0407 0.58249 0.0486 3.1762-0.14907 1.2804 3e-3 1.051-0.1331-0.75165 0.13431-3.214 0.2737-1.6935 0.10791 2.8036-0.19892 3.5586 9e-3 0.09559 0.0549-0.0097 0.11858-1.1333-3e-3 -0.56386-0.29766-0.90919" fill="none" stroke="#399bd4" stroke-linejoin="round" stroke-width="1.452"/>
<path d="m259.7 70.419 0.10087 1.1749-0.0383 1.549-0.20062 2.2917 3e-3 0.47722 0.0609-0.0036-0.0706-0.07284-0.0404 1.4554 0.0595-0.23643 0.0482 0.10721 0.0673-0.38696-0.9167-0.77343" fill="none" stroke="#399bd4" stroke-linejoin="round" stroke-width="1.452"/>
<path d="m282.14 71.654-0.0322 3.0596-0.10725 1.9009 0.0484 1.0793 0.0796 0.24515-0.0252-0.10479-0.0365 0.1181 0.0726-0.0036-0.15633 0.1423-0.0569 0.27806 0.0431 0.03848 0.0888-0.25289" fill="none" stroke="#399bd4" stroke-linejoin="round" stroke-width="1.452"/>
<path d="m310.19 73.629-0.1147-0.1602" fill="none" stroke="#399bd4" stroke-linejoin="round" stroke-width="1.452"/>
<path d="m310.23 72.912-0.0658 0.11205-0.0552-0.20836-0.0581 0.1118-0.13721 3.3156-0.22361 2.1402 0.093 0.47964 0.30177 0.21054 0.0806-0.02565" fill="none" stroke="#399bd4" stroke-linejoin="round" stroke-width="1.452"/>
<path d="m34.768 60.476-0.28798-0.30903 0.11858 0.17448 0.03388-0.0334-0.02662 0.13431 0.0363-0.13455-0.0605-0.62073 0.14036-2.1478-0.01936-2.0667" fill="none" stroke="#399bd4" stroke-linejoin="round" stroke-width="1.452"/>
<path d="m34.517 50.835-0.01452-3.3026 0.08954-0.34703 0.0121-0.86031-0.0605-0.68897 0.15246-0.60403" fill="none" stroke="#399bd4" stroke-linejoin="round" stroke-width="1.452"/>
<path d="m35.133 42.702-0.21296-0.03412-0.01936-0.17206-0.1573-0.07429-0.3751 0.17037-0.25168 0.83659 0.01452 0.61904 0.13068 0.55079 0.33154 0.3342 0.54934-0.03654 0.30008-0.24297 0.25652-0.49465-0.10406-0.8182-0.45738-0.81191-0.24684-0.21344-0.2299-0.05034-0.42108 0.25095-0.7502 0.80804-0.24684 0.72455 0.03388 0.97889 0.30008 0.49465 0.2904 0.24127 0.48884 0.06437 0.3267-0.05663 0.57596-0.35187 0.51546-0.58854 0.28314-0.70785-0.0242-0.32065-0.32186-0.85934-0.21054-0.3192-0.30734-0.18949-0.59048-0.08349-0.50336 0.45157-0.23716 0.37558-0.0605 0.24369 0.0121 0.47287 0.33154 0.78069 0.37026 0.40269 0.40898 0.1452 0.26862-0.01815 0.30008-0.1285 0.4114-0.32501 0.25652-0.37776 0.28556-0.73374-0.07986-0.35501-0.30976-0.40608-0.54692-0.49174-0.61468-0.37195-0.39204-0.09075-0.22506 0.09946-0.62194 0.40946-0.21296 0.23813-0.17182 0.41164-0.0484 0.41164 0.11132 1.1028 0.40656 0.68534 0.65824 0.45351 0.42834 0.19287 0.4719 0.09777 0.46948 0.01428 0.21296-0.10261 0.57354-0.61855 0.36542-0.84022 0.10406-0.7865-0.11616-0.33469-0.36058-0.33711-0.69212-0.31436-0.51304-0.10527h-0.605l-0.45254 0.17303-0.20812 0.34316-0.03388 0.14181 0.06776 0.0048" fill="none" stroke="#399bd4" stroke-linejoin="round" stroke-width="1.452"/>
<path d="m59.323 60.973-0.36784-0.24466 0.16214-7.26e-4 -0.0605-0.21853 0.03146-2.2724 0.21538-2.2525-0.2783-0.49658-0.03388-0.2449" fill="none" stroke="#399bd4" stroke-linejoin="round" stroke-width="1.452"/>
<path d="m58.92 49.393-0.0363-0.86612 0.19844-2.3251 0.07744-2.4536" fill="none" stroke="#399bd4" stroke-linejoin="round" stroke-width="1.452"/>
<path d="m59.448 38.584-0.22748-0.02372-0.24442 0.10575 0.04114 0.07817 0.12826-0.09704 0.05082-0.34509-0.22264-1.9103-0.01694-0.7698 0.10164-1.7005 0.27104-1.6088v-0.74657" fill="none" stroke="#399bd4" stroke-linejoin="round" stroke-width="1.452"/>
<path d="m59.325 28.136 0.1815 0.41164-0.13068-0.22482 0.1331-1.2516 0.0847-2.102-0.07744-1.9684 0.06292-0.56507" fill="none" stroke="#399bd4" stroke-linejoin="round" stroke-width="1.452"/>
<path d="m59.935 20.119 0.02662 0.33009-0.05808-0.08325-0.12584 0.0085-0.30492 0.21707-0.33638 0.64106-0.1573 0.62242 0.23232 0.64469 0.24926 0.35429 0.62194-0.06123 0.3025-0.09535 0.49126-0.47819 0.19844-0.73616-0.0121-0.66211-0.49126-0.83466-0.41866-0.54692-0.36784-0.32259-0.44286-0.04138-0.33638 0.25894-0.70422 1.4048-0.34364 1.4752 0.03872 0.8257 0.93896 0.54377 0.34848 0.05106 0.91718-0.35187 0.63888-0.37534 0.51062-0.49005 0.24926-0.46585 0.07018-0.51715-0.05808-0.46319-0.66066-1.1674-0.6171-0.67808-0.57838-0.49441-0.55418-0.06195-0.1936 0.09341-0.43076 0.41866-0.6897 1.2683-0.20328 0.45859-0.10648 0.51328-0.01694 0.53772 0.1694 0.97453 0.18392 0.21393 0.23958 0.11519 0.605-0.08857 0.43076-0.14786 0.46464-0.27757-0.29282-1.0805" fill="none" stroke="#399bd4" stroke-linejoin="round" stroke-width="1.452"/>
<path d="m83.815 60.084 0.13068 0.26959-0.12826-0.7289-0.24442-2.8902" fill="none" stroke="#399bd4" stroke-linejoin="round" stroke-width="1.452"/>
<path d="m83.787 52.711-0.05808-0.34364 0.0847-0.33323-0.0024-0.94864-0.16214-2.5483 0.04114-0.46851" fill="none" stroke="#399bd4" stroke-linejoin="round" stroke-width="1.452"/>
<path d="m83.435 42.585 0.10406 0.7456 0.01936-0.45569 0.363-1.9522 0.0484-1.385 0.11616-0.77367" fill="none" stroke="#399bd4" stroke-linejoin="round" stroke-width="1.452"/>
<path d="m84.487 33.976-0.0073-1.5817 0.0968-1.701 0.24442-1.6388 0.04356-0.91839" fill="none" stroke="#399bd4" stroke-linejoin="round" stroke-width="1.452"/>
<path d="m84.728 23.339-0.3872-0.07284 0.03388 0.06123 0.07744-0.0818 0.01452-2.1248 0.15972-1.612-0.01452-0.64541" fill="none" stroke="#399bd4" stroke-linejoin="round" stroke-width="1.452"/>
<path d="m84.284 14.08-0.33638 0.05324 0.02662 0.13286 0.0605-0.0097 0.36542-2.8316-0.13552-1.4181" fill="none" stroke="#399bd4" stroke-linejoin="round" stroke-width="1.452"/>
<path d="m84.319 6.7119-0.11374-0.51522-0.21054-0.11035-0.29282 0.34437-0.14278 0.40293-0.0024 0.953 0.23474 0.71269 0.48158 0.067034 0.37026-0.10648 0.58322-0.52538 0.31944-0.45448 0.18876-0.46149 0.0363-0.36058-0.4598-0.87919-0.26136-0.22724-0.22748-0.3872-0.27346-0.20497-0.12826-0.01089-0.21538 0.033638-0.20812 0.13939-0.63404 0.88935-0.22748 0.99946 0.11132 0.4235 0.3146 0.28992 0.3872 0.2132 0.29524-0.13649 0.31702-0.42519 0.11616-1.1018-0.17424-0.91815-0.05082-0.096316-0.23716-0.062436-0.22022 0.098494-0.0968-0.065824-0.1573 0.041624-0.53482 0.66332-0.3872 0.73205-0.14036 0.31775-0.2057 1.0379 0.1089 0.88209 0.13068 0.23571 0.29766 0.27878 0.63162 0.25241 0.2178 0.016214 1.0382-0.55587 0.48642-0.51256 0.42592-0.60984 0.242-0.4915 0.02904-0.6442-0.6534-1.4704-0.5324-0.76859-0.16214-0.088814-0.7502 0.11519-0.52998 0.33977-0.27346 0.22675-0.62436 0.77271" fill="none" stroke="#399bd4" stroke-linejoin="round" stroke-width="1.452"/>
<path d="m108.99 59.907 0.12826-0.28411 0.0726-0.67905-0.2904-1.4602-0.14762-1.633 0.0629-0.45012 0.21538-0.46077" fill="none" stroke="#399bd4" stroke-linejoin="round" stroke-width="1.452"/>
<path d="m108.55 50.962-0.18634-0.26426 0.22264-0.45762 0.0194-1.7238 0.12584-1.458-0.1573-1.1197-0.17908-0.57572" fill="none" stroke="#399bd4" stroke-linejoin="round" stroke-width="1.452"/>
<path d="m108.48 39.248-0.21296-0.04961 0.4719-2.4936 0.15488-1.6896-0.046-0.24418" fill="none" stroke="#399bd4" stroke-linejoin="round" stroke-width="1.452"/>
<path d="m109.15 30.307-0.3509-0.24079 0.0339 0.08204 0.14762-0.09946 0.1694-0.54184-0.24684-1.7351 0.0557-1.8438 0.121-1.0087" fill="none" stroke="#399bd4" stroke-linejoin="round" stroke-width="1.452"/>
<path d="m109.04 19.304-0.40898 0.02662 0.0339 0.053 0.23716-0.15319-0.121-0.14205 0.1452-0.35017 0.0484-0.46996 0.029-3.9664" fill="none" stroke="#399bd4" stroke-linejoin="round" stroke-width="1.452"/>
<path d="m109.42 11.288 0.27346 0.23668 0.0436-0.09293-0.12342-0.28677 0.21054-0.8499 0.10406-0.90097-0.32428-1.2073-0.0653-0.53216 0.2662-1.4145" fill="none" stroke="#399bd4" stroke-linejoin="round" stroke-width="1.452"/>
<path d="m109.85 5.8047-0.42834-0.66526 8e-3 -0.23764-0.092 0.051788-0.363 0.81554-0.15488 0.65437 0.029 0.38575 0.0557 0.080102 0.33638 0.055176 0.45738-0.17956 0.4961-0.50481 0.25652-0.3872 0.1573-0.42374 0.0121-0.17206-0.22748-0.3342-0.11132 0.023232-0.12342-0.082038-0.39446-0.56362-0.3872-0.19844-0.52514 0.47843-0.61226 1.3775 0.1331 0.71729 0.20328 0.54668 0.72358 0.53918 0.5808-0.01089 0.53724-0.39156 0.53724-0.66332 0.2541-0.65364-0.1331-0.84821-0.7986-0.99123-0.33638-0.23305-0.40656-0.057354-0.5687 0.53627-0.56386 0.92759 0.0557 0.5278 0.43802 0.66502 0.34122 0.063162 0.60258-0.21562 0.38478-0.29935 0.36058-0.54377" fill="none" stroke="#399bd4" stroke-linejoin="round" stroke-width="1.452"/>
<path d="m134.27 60.815-0.2904-0.22385 0.0411 0.04695 0.0218-0.23401 0.01-1.044-0.11858-1.2381-0.27104-1.4709" fill="none" stroke="#399bd4" stroke-linejoin="round" stroke-width="1.452"/>
<path d="m133.62 52.353 0.1694 0.48231-0.0339-0.21054 0.14278-0.89685-0.17666-2.1618 0.0895-1.694" fill="none" stroke="#399bd4" stroke-linejoin="round" stroke-width="1.452"/>
<path d="m133.87 43.786-0.0315-1.0176 0.13068-3.5826" fill="none" stroke="#399bd4" stroke-linejoin="round" stroke-width="1.452"/>
<path d="m133.92 35.417-0.10648-0.07357 0.17424-0.8862 0.16456-2.3956 0.0436-2.4754" fill="none" stroke="#399bd4" stroke-linejoin="round" stroke-width="1.452"/>
<path d="m134.49 28.007-0.34606 0.14883-0.17908 1.1026 0.0387 0.1331 0.0629-0.0024 0.605-0.28362 0.7623-1.0104 0.1936-0.66453-0.20086-0.40753-0.11858-0.13721-0.30976-0.07792-1.1205 0.03678-0.33154 0.19675-0.484 1.05-0.0678 0.4644 0.0339 0.51159 0.19602 0.61492 0.21296 0.15706 0.43076 0.08107 0.22022-0.07478 0.98978-0.81893 0.42592-0.81651 0.0339-0.3918-0.0315-0.12995-0.5445-0.68389-0.25168-0.16432-0.14278-0.24636-0.38236-0.25894-0.11374-0.01767-0.40656 0.18537-0.28798 0.20836-0.45254 0.70011-4e-3 0.70712 0.36542 0.71317 0.43318 0.33517 0.2783 0.09317 0.3025 0.04066 0.6897-0.17763 0.63404-0.41285 0.45254-0.44044 0.31702-0.60185-0.0653-0.52538-0.31944-0.59847-0.53482-0.68099-0.36542-0.33565-0.38478-0.06558-0.37268 0.17376-0.2057 0.19989-0.43802 0.55466-0.1936 0.36929-0.19602 0.72648-0.0315 0.49876 0.0799 0.16432" fill="none" stroke="#399bd4" stroke-linejoin="round" stroke-width="1.452"/>
<path d="m162.94 74.937 0.0825 0.02299 0.0978-0.11737-0.3209 4.2512 0.0488 0.30831 0.21296 0.01283 0.0508 0.21514" fill="none" stroke="#399bd4" stroke-linejoin="round" stroke-width="1.452"/>
<path d="m162.91 81.348 0.13479 0.25241-0.17085-0.18682-0.16892 0.0073-0.26523 0.45641-0.10747 0.35017-0.0585 1.0454 0.16214 0.58903 0.28532 0.21151 0.32936-0.02952 0.62218-0.28096 0.60428-0.60137 0.16069-0.6413-0.0883-0.86297-0.3526-0.55733-0.53433 0.01379-1.0512 0.53216-0.79425 0.80417-0.22602 0.7473 0.0525 0.47916 0.24756 0.65243 0.21054 0.47263 0.3405 0.29016 0.21562 0.04308 0.42737 0.03461 0.72624-0.16214 0.68147-0.39785 0.47505-0.69962 0.24974-1.0706-0.053-0.56338-0.25652-0.78069-0.23038-0.47045-0.45085-0.53797-0.34218-0.0651-0.67252 0.36663-0.65001 0.58274-0.81433 0.88475-0.11641 0.23232 0.0331 0.13649" fill="none" stroke="#399bd4" stroke-linejoin="round" stroke-width="1.452"/>
<path d="m188.76 75.708-0.18271 0.14278 0.0825-0.02347 0.0317 0.09244-0.0494 1.067-0.25241 2.5751-0.20618 1.1398 0.0315 0.4673 0.19529 0.33251" fill="none" stroke="#399bd4" stroke-linejoin="round" stroke-width="1.452"/>
<path d="m188.01 85.623-0.0678-0.04525 0.0924 0.16771 0.0377 1.0607-0.0581 1.0065-0.31194 2.7569 0.0286 0.66865 0.22482 0.73084" fill="none" stroke="#399bd4" stroke-linejoin="round" stroke-width="1.452"/>
<path d="m187.61 96.633-0.15996 1.4355-0.0242 1.5924 0.12778 1.2262 0.10912 0.23401" fill="none" stroke="#399bd4" stroke-linejoin="round" stroke-width="1.452"/>
<path d="m186.93 105.19-0.16819 1.3092 0.10604 2.5875" fill="none" stroke="#399bd4" stroke-linejoin="round" stroke-width="1.452"/>
<path d="m186.35 112.32 0.0276 0.48182-0.11157-5e-3 -0.0162 0.33977 0.16239 0.56119 0.30855 0.36349 0.35065-0.16069 0.32622-0.29379 0.16311-0.60597-0.016-0.3388-0.47674-0.94767-0.4915-0.31242-0.4056 0.4114-0.46488 0.9288-0.0327 1.2533 0.27903 0.87725 0.136 0.1498 0.62606 0.0446 0.92177-0.71511 0.95639-1.3683 0.25555-0.90701-0.24878-0.5099-0.91137-0.51231-0.23982-0.0585-0.99317 0.1377-0.23135 0.14447-0.5157 0.77174 0.021 0.18198 0.35017 0.0492 0.17303-0.0678" fill="none" stroke="#399bd4" stroke-linejoin="round" stroke-width="1.452"/>
<path d="m212.39 77.133-0.12778 0.30056 0.0791 1.4152-0.20134 2.5168 4e-3 1.1616 0.23305 0.75383" fill="none" stroke="#399bd4" stroke-linejoin="round" stroke-width="1.452"/>
<path d="m212.08 87.763-0.17328 0.98688 0.0498 3.2263-0.0365 1.3988-0.0722 0.23087" fill="none" stroke="#399bd4" stroke-linejoin="round" stroke-width="1.452"/>
<path d="m211.51 98.695 4e-3 0.92613-0.12923 0.66937-0.0129 0.56749 0.0714 0.66743 0.21054 0.80804" fill="none" stroke="#399bd4" stroke-linejoin="round" stroke-width="1.452"/>
<path d="m210.81 106.74-0.11374 0.89589-0.0181 2.338 0.0613 0.99704 0.18659 0.67494-0.0402 0.25216" fill="none" stroke="#399bd4" stroke-linejoin="round" stroke-width="1.452"/>
<path d="m210.35 115.54 0.11253 0.68728 0.052 2.2354-0.14641 2.495 0.011 0.24781 0.0722-0.0464" fill="none" stroke="#399bd4" stroke-linejoin="round" stroke-width="1.452"/>
<path d="m210.37 125.18 0.16045 0.13528-0.24007-0.0879-0.052 0.0528-0.27951 0.42084-0.20909 0.57668-2.4e-4 0.97793 0.23256 0.30661 0.63598-0.15052 0.56628-0.32114 0.23087-0.3071 0.24877-1.4772-0.10604-0.4039-0.60209-0.54668-0.39954-0.24587-0.52829 0.30226-0.41164 0.41793-0.20957 0.83103 0.0646 1.3649 0.42906 0.66985 0.3947 0.31315 0.17642-0.0964 0.33154 0.0718 0.72697-0.77682 0.48206-0.81554 0.24781-1.2703-0.053-0.5019-0.18319-0.49151-0.0881-0.13382-0.21683-0.0685-0.38188-0.29427-0.67203-0.15682-0.34316 0.076-0.52466 0.39059-0.38066 0.50191-0.26281 0.68558-0.12923 0.94308 0.0997 0.62411 0.10846 0.27661 0.35211 0.22651 0.58346-0.054 0.31581-0.23522" fill="none" stroke="#399bd4" stroke-linejoin="round" stroke-width="1.452"/>
<path d="m236.49 78.645-0.26354 3.6298 0.0951 2.4534" fill="none" stroke="#399bd4" stroke-linejoin="round" stroke-width="1.452"/>
<path d="m235.87 89.191-0.11688 0.72818-0.27128 0.94816-0.0706 0.94888-7.3e-4 0.97502 0.21853 1.7347-1e-3 0.71075" fill="none" stroke="#399bd4" stroke-linejoin="round" stroke-width="1.452"/>
<path d="m235.44 99.647-0.0716 0.72043 0.16286 1.6998v1.2475l-0.10065 2.5957-0.0643 0.23547" fill="none" stroke="#399bd4" stroke-linejoin="round" stroke-width="1.452"/>
<path d="m235.11 111.2-0.0559 0.0165-0.24878 1.2417 0.0334 1.4121 0.18828 1.1345-0.0165 0.43342" fill="none" stroke="#399bd4" stroke-linejoin="round" stroke-width="1.452"/>
<path d="m234.61 119.61-0.25143 1.5413 0.0339 2.1407 0.32161 1.4506 0.14496 0.27636 0.0951 0.0177 9e-3 -0.11326" fill="none" stroke="#399bd4" stroke-linejoin="round" stroke-width="1.452"/>
<path d="m234.67 128.36-0.2783 0.44213-0.0905 0.0226 2e-3 -0.0978-0.13504 0.0825-0.27273 0.61492-0.10868 0.40584-0.0121 0.49416 0.098 0.41624 0.43294 0.11616 0.17738-0.0218 0.89564-0.63404 0.25362-0.35598 0.076-0.27878-0.0443-0.77198-0.50481-1.0002-0.27854-0.21344-0.22531 0.0189-0.17787-0.15997-0.15028 0.0513-0.42616 0.41261-0.30177 0.8107-0.2512 1.1188 0.21441 0.54474 0.32573 0.20812 0.52345 0.17908 0.49828 2e-3 0.44939-0.22264 0.36978-0.37268 0.39349-1.307 0.0177-0.58346-0.21828-0.75407-0.86564-0.66284-0.43221-9.7e-4 -0.6384 0.88524-0.34775 1.3078-0.0591 0.68728 0.0607 0.21272 0.22264 0.13068 0.2708-0.0145 0.36856-0.14278" fill="none" stroke="#399bd4" stroke-linejoin="round" stroke-width="1.452"/>
<path d="m259.49 80.077-0.27176 1.1529-0.19142 1.5614 0.26353 2.1122-0.15609 1.013" fill="none" stroke="#399bd4" stroke-linejoin="round" stroke-width="1.452"/>
<path d="m259.36 89.235-0.27443 3.782 0.0571 0.84192" fill="none" stroke="#399bd4" stroke-linejoin="round" stroke-width="1.452"/>
<path d="m259.15 98.163-0.1752 2.5567 0.0782 2.1565 0.15488 1.4297" fill="none" stroke="#399bd4" stroke-linejoin="round" stroke-width="1.452"/>
<path d="m258.8 107.59-0.1256 3.6346 0.016 1.3782 0.0876 0.51329" fill="none" stroke="#399bd4" stroke-linejoin="round" stroke-width="1.452"/>
<path d="m258.61 116.13-0.22482 0.1-0.093 0.36929-0.0665 0.94598 0.12294 0.60064 0.23304 0.0697 0.50022-0.0685 0.40148-0.21611 0.18609-0.35138 3e-3 -0.52756-0.0869-0.44092-0.30371-0.99099-0.26087-0.58177-0.0545-0.047-0.1 0.0513-0.36131 0.40728-0.36203 0.84386-0.30637 1.0457 0.0266 0.86104 0.10285 0.24514 0.17012 0.10263 0.45666-3e-3 0.44721-0.10747 0.46779-0.30226 0.48569-0.56071 0.1694-0.57354-0.0651-0.41914-0.28483-0.59702-0.42205-0.43681-0.49102-0.20642-0.30758 0.0656-0.48013 0.68703-0.16117 0.63114 4e-3 0.39035 0.18053 0.89661 0.33275 0.48158 0.75722 0.21731" fill="none" stroke="#399bd4" stroke-linejoin="round" stroke-width="1.452"/>
<path d="m281.99 81.181-0.076 1.4551-0.33856 1.8866 0.0982 0.34219" fill="none" stroke="#399bd4" stroke-linejoin="round" stroke-width="1.452"/>
<path d="m281.49 87.742 0.0367 0.99123-0.0997 1.9268 0.0373 0.33783 0.0634 0.04767" fill="none" stroke="#399bd4" stroke-linejoin="round" stroke-width="1.452"/>
<path d="m281.69 93.236-0.0851-0.07018-0.0917 0.07865-0.26596 0.90677-0.0198 0.50651 0.0506 0.12632 0.189 0.02105 0.36349-0.17134 0.37195-0.3025 0.30226-0.43318 0.23837-0.50505 0.0561-0.31508-0.0576-0.33977-0.227-0.40341-0.57063-0.46658-0.22313 0.0012-0.19868 0.13746-0.62339 0.53579-0.24297 0.3071-0.2766 0.66114 0.0329 0.43342 0.41382 0.60524 0.30879 0.19021 0.43899 0.05905 0.27781-0.11059 0.57814-0.76206-0.11374-1.0861-0.33711-0.91452-0.51376-0.74391-0.26765-0.06486-0.42084 0.26717-0.52635 0.62702-0.33929 1.089-0.17496 1.1543 0.11495 0.71051 0.45351 0.75141 0.44891 0.36058 0.26765 0.07817 0.93823-0.0097 0.32767-0.09244 0.30807-0.13431 0.69308-0.49029 0.33735-0.46827 0.13044-0.56991-5e-3 -0.23232-0.11156-0.17932-0.37196-0.28822" fill="none" stroke="#399bd4" stroke-linejoin="round" stroke-width="1.452"/>
<path d="m310.32 69.049 0.50264-0.04259 0.0337 0.09002-0.15924 0.04041-0.15972 0.20013 0.13407-0.29887-0.0482-0.53579 0.1377-2.6777-0.28024-1.8615" fill="none" stroke="#399bd4" stroke-linejoin="round" stroke-width="1.452"/>
<path d="m311.48 61.015 0.0639-0.28145-0.0883 0.20981-0.76399 0.59629-0.23063 0.47819 0.0613 0.28508 0.0855 0.02081 0.26572-0.03799 0.44261-0.23643 0.59097-0.49174 0.3993-0.53942-0.0569-0.34775-0.32815-0.43342-0.72165-0.53748-0.37679 0.1331-0.97938 0.99317-0.38042 0.82764-0.09 0.61928 0.0871 0.35985 0.39277 0.30855 0.16673 0.02033 0.50482-0.02565 0.70228-0.30613 0.24515-0.2057 0.84409-1.269 0.16722-0.57814-0.0411-0.44431-0.44019-0.50118-0.20498-0.13068-0.57136-0.20522-0.6505 0.01984-0.21562 0.06897-0.84071 0.54353-0.7456 0.87991-0.16504 0.7473 0.01 0.1694 0.15899 0.21804 0.93727 0.05203 0.85305-0.295 0.55418-0.09607" fill="none" stroke="#399bd4" stroke-linejoin="round" stroke-width="1.452"/>
</svg>
