<?xml version="1.0" encoding="UTF-8" standalone="no"?>
<svg
   xmlns:dc="http://purl.org/dc/elements/1.1/"
   xmlns:cc="http://creativecommons.org/ns#"
   xmlns:rdf="http://www.w3.org/1999/02/22-rdf-syntax-ns#"
   xmlns:svg="http://www.w3.org/2000/svg"
   xmlns="http://www.w3.org/2000/svg"
   xmlns:sodipodi="http://sodipodi.sourceforge.net/DTD/sodipodi-0.dtd"
   xmlns:inkscape="http://www.inkscape.org/namespaces/inkscape"
   inkscape:version="1.0 (4035a4f, 2020-05-01)"
   sodipodi:docname="reverb - page 16.svg"
   id="svg1292"
   version="1.2"
   viewBox="0 0 339.99999 140"
   height="140"
   width="340">
  <metadata
     id="metadata1298">
    <rdf:RDF>
      <cc:Work
         rdf:about="">
        <dc:format>image/svg+xml</dc:format>
        <dc:type
           rdf:resource="http://purl.org/dc/dcmitype/StillImage" />
        <dc:title>reverb</dc:title>
      </cc:Work>
    </rdf:RDF>
  </metadata>
  <defs
     id="defs1296" />
  <sodipodi:namedview
     inkscape:current-layer="svg1292"
     inkscape:window-maximized="0"
     inkscape:window-y="293"
     inkscape:window-x="0"
     inkscape:cy="53.832337"
     inkscape:cx="157.89735"
     inkscape:zoom="2.4481935"
     showgrid="false"
     id="namedview1294"
     inkscape:window-height="874"
     inkscape:window-width="1440"
     inkscape:pageshadow="2"
     inkscape:pageopacity="0"
     guidetolerance="10"
     gridtolerance="10"
     objecttolerance="10"
     borderopacity="1"
     bordercolor="#666666"
     pagecolor="#ffffff" />
  <title
     id="title1168">reverb</title>
  <path
     style="stroke:#5dabd8;stroke-opacity:1"
     fill="none"
     stroke="#fff3a8"
     stroke-width="5.19639"
     stroke-linecap="butt"
     stroke-linejoin="round"
     opacity="0.250004"
     d="m 54.009718,104.90183 0.185474,0.25976 -0.0718,-0.15205 0.05833,0.0694 0.02094,-0.0546 0.07778,0.0538 0.201928,-0.0965 0.01496,-0.0734 0.01645,0.1037 0.02244,-0.0933 0.31411,-0.22767 0.157055,-0.30188 0.08376,-0.0544 0.160047,-0.41841 0.101712,-0.10571 0.255775,-0.58832 0.237827,-0.35844 0.239322,-0.71108 0.07928,-0.0289 0.290178,-0.91146 0.05983,-0.0644 0.197441,-0.78028 0.12714,-0.28603 0.185475,-1.291766 0.12714,-0.519113 v -0.238094 l 0.379924,-1.86604 0.06133,-0.907445 0.296162,-1.206918 0.121157,-1.171816 0.09124,-0.293857 0.107695,-0.869334 0.146585,-0.408189 0.478645,-2.74099 0.189962,-1.383834 0.191457,-2.182562 0.170517,-0.948766 0.05385,-0.595536 0.175004,-0.735344 0.04936,-0.689209 0.257271,-1.761133 0.01795,-0.470973 0.177996,-1.272108 0.103208,-0.411801 0.08675,-1.00854 0.191458,-1.201302 0.03141,-0.824403 0.172013,-1.538885 0.05235,-0.985072 0.07479,-0.430455 0.03141,-0.764829 0.08975,-0.593932 0.03291,-1.02238 0.116669,-0.839848 0.212399,-0.966216 0.113678,-0.975644 0.121157,-0.374091 0.02094,-0.334976 0.251289,-1.27612 0.02244,-0.597743 0.07628,-0.297066 0.230348,-2.300305 -0.05684,-0.935928 0.119661,-1.451632 0.02393,-1.012752 -0.0703,-1.729441 0.05235,-0.738152 0.122653,-0.707663 0.133123,-1.975558 -0.02992,-0.468165 0.03291,-0.55903 0.197441,-1.196688 -0.09722,-0.729928 0.006,-0.416213 0.216886,-1.573186 0.01795,-0.542782 -0.06133,-0.478395 0.006,-0.462949 0.09274,-1.04284 0.0344,0.04192 -0.06581,-0.892401 0.08825,-1.417733 -0.04188,-0.673764 0.03739,-0.584704 -0.01944,-1.549918 0.249793,-1.814289 -0.06282,-0.37389 -0.0075,-0.686601 0.143593,-0.729928 0.04039,-0.888791 0.115174,-0.514499 0.118165,-1.161586 0.240818,-0.781679 0.109191,-0.531349 -0.03291,-0.03631 0.04188,-0.327354 0.06133,-0.195971 0.02244,0.07442 0.1062,-0.477593 0.185474,-0.504069 0.03889,0.01585 -0.02244,-0.345607 0.05235,-0.551809 0.04936,-0.279214 0.01645,0.177117 0.146585,-0.664738 0.191458,-0.398762 0.0075,-0.46315 0.06282,-0.188149 0.02842,0.289243 0.104704,-0.130179 0.02393,0.04674 0.02393,-0.200585 0.02094,0.04232 0.145089,-0.276005 0.02842,-0.315921 v 0.196172 l 0.05534,0.007 0.08975,-0.245115 0.155559,-0.185541 0.119661,-0.436272 0.0075,0.06058 0.02992,-0.15084 0.03889,-0.02708 0.009,0.04794 -0.0015,-0.134993 0.06282,-0.08766 0.04936,-0.400166 0.04487,-0.08545 0.02094,0.134592 0.0344,-0.07462 -0.0045,0.09789 0.09274,-0.238897 -0.01346,-0.165683 -0.003,0.132988 0.05086,-0.103502 -0.003,0.108717 0.0015,-0.258955 0.01346,0.112328 0.03141,-0.255345 0.01047,0.142215 0.09872,-0.411199 -0.01346,0.09508 0.01197,-0.05877 0.07329,0.136398 0.08526,0.04152 0.160047,-0.05195 0.05684,0.09207 -0.02692,0.01785 0.04936,0.225658 -0.0045,-0.131183 0.0344,0.103903 0.04039,0.364262 -0.01047,0.254341 0.139106,0.271793 0.191458,1.112643 -0.03739,0.896614 0.01496,1.148748 0.05983,0.547797 -0.03141,2.416243 0.104704,0.424438 0.143593,1.274916 0.04637,0.002 0.02244,0.106711 0.118165,2.130209 0.05534,0.345207 0.191457,0.620809 0.009,0.889192 0.09872,0.721704 0.200433,0.842456 0.02393,1.041636 0.05086,0.104705 0.0359,-0.04453 0.01346,0.03931 0.1062,0.526134 0.0015,0.513697 0.04188,0.131784 0.04786,0.01284 0.07628,0.442891 0.163038,0.340793 0.02244,1.105021 0.05684,0.139206 0.05086,1.231991 -0.03291,0.748583 0.03739,1.297582 0.139106,1.163792 0.01047,0.515303 0.01496,-0.125767 0.125644,0.825406 0.200433,0.652101 0.09573,0.726317 0.110686,0.375695 0.04188,0.358445 0.06581,0.12697 0.01645,0.26417 0.05833,0.300075 0.04039,-0.01203 0.01944,0.31913 0.157055,0.699439 0.03739,1.091983 0.08376,0.822799 0.08227,0.409192 0.03291,-0.01043 0.11667,0.830421 0.417318,4.193825 0.06731,0.218236 0.119661,0.98808 v 1.020174 l 0.02992,0.369276 0.04786,0.1027 0.05235,0.866927 0.142097,0.849275 0.04039,0.923091 -0.04039,0.425039 0.163039,1.132903 0.02991,0.828615 0.109191,0.800132 0.06133,1.09078 -0.02842,0.992694 0.0703,0.946759 0.14509,0.872143 0.121156,1.889307 0.200433,1.600465 0.145089,0.517509 0.04338,0.637859 0.03889,-0.05015 0.148081,0.81638 0.230347,1.924811 0.308128,1.170211 0.05534,0.461746 0.240818,1.095393 0.131627,1.295978 0.318598,1.413119 0.465183,1.733854 0.257271,0.772652 0.06731,0.602356 0.270734,1.282739 0.324581,2.45616 0.635699,1.970945 0.03291,0.301279 0.09274,0.131182 0.05983,0.243109 0.0359,-0.01484 0.04039,0.378303 0.192954,0.694826 0.04637,0.408791 0.245306,0.646284 0.04188,0.236289 0.228852,0.52834 0.03141,-0.01003 0.213894,0.667942 0.175005,0.82361 0.05983,0.62361 0.02543,0.0451 0.0075,-0.1053 0.02692,0.0277 0.05534,0.3075 0.07927,0.064 0.115174,0.38753 0.09573,0.0764 0.01496,0.0845 0.04038,-0.0548 0.0359,0.18474 0.12714,0.16548 0.01944,0.19096 0.160046,0.11654 0.200433,0.46375 0.100216,0.0943 0.05983,0.25495 0.06133,-0.006 0.258767,0.39094 0.0718,-0.0205 0.09872,0.23729 0.04338,0.0361 0.03141,-0.0963 0.206416,0.20239 0.142097,0.002 0.04338,0.10591 0.163038,0.0951 0.0703,0.12215 0.128636,0.0887 0.08376,-0.0648 0.04188,0.11955 0.09124,0.0652 0.255776,0.0766 0.04487,-0.0508 0.06581,0.11212 0.379924,0.0654 0.04487,-0.0371 0.02692,0.1392 0.05086,0.0233 0.07778,-0.0704 0.151072,0.0868 0.170517,0.003 0.149577,0.13198 0.1765,-0.0321 0.16603,0.0686 -0.02692,-0.0684 v 0.0828 l -0.003,-0.0572 -0.05385,0.007 0.02992,-0.0644 -0.006,0.061 -0.139106,-0.0173 -0.106199,-0.16407 -0.01945,0.0832 -0.140602,0.057 -0.136115,-0.1402 -0.216885,-0.0269 -0.73442,-0.38312 -0.424797,-0.0319 -0.849594,-0.29687 -0.46967,0.072 -0.460696,-0.2072 -0.05833,0.055 -0.133123,-0.065 -0.218381,0.005 -0.143593,0.0804 -0.23334,-0.10972 -0.231843,0.0255 -0.154064,-0.0786 -0.230347,0.14803 -0.225861,-0.057 -0.124148,0.0413 -0.195945,-0.11293 -0.164534,0.0997 -0.161543,-0.0503 -0.05684,0.11434 -0.0688,0.0177 -0.145089,-0.12717 -0.154064,0.0676 -0.06581,-0.0814 -0.279707,-0.0395 -0.323086,0.06 -0.484627,-0.0355 -0.475653,-0.14682 -0.294666,0.14381 -0.140601,-0.12656 -0.08376,0.11573 -0.402361,-0.12576 -0.309623,-0.0134 -1.085925,0.19717 -0.312614,-0.0853 -0.305136,0.0473 -0.885493,-0.061 -0.925878,0.23148 -0.381419,-0.009 -0.429285,-0.10069 -0.08825,0.0688 -0.427788,-0.002 -0.502577,0.10952 -0.548945,-0.0495 -0.172013,-0.0889 -0.264751,0.0118 -0.387402,-0.12015 -1.887655,-0.0656 -0.230347,0.0953 -0.577365,-0.24291 -0.137611,0.0728 -0.227356,-0.0521 -0.169021,0.0784 -0.182483,-0.0491 -0.252785,0.0778 -0.203423,-0.0622 -0.06282,0.0774 -0.119661,-0.11714 -0.183979,0.0508 -0.233339,-0.0612 -0.384411,0.0764 -0.48014,-0.0178 -0.05833,0.069 -0.246801,-0.0722 -0.218382,0.0997 -0.09723,-0.0295 -0.03141,0.12316 -0.04487,0.0112 -0.09274,-0.0995 -0.360479,0.0267 -0.296161,0.13399 -0.125645,-0.053 -0.13761,0.0297 -0.255776,0.15766 -0.233339,-0.0169 -0.169021,0.11132 -0.09274,-0.0317 -0.338043,0.14823 0.164534,-0.18795 0.39189,-0.71889 0.233339,-0.32134 0.798738,-1.46788 0.358984,-0.97544 0.183979,-0.71509 0.528004,-2.865951 0.296162,-1.331882 0.475653,-1.743081 0.270733,-1.76655 0.170517,-1.574389 0.384412,-1.941259 0.222868,-1.374406 0.228852,-1.883691 0.504073,-2.957822 0.189962,-2.275634 0.121157,-2.524358 0.140602,-1.245631 0.119661,-1.947678 0.213894,-1.505388 0.385907,-1.990402 0.210903,-1.366182 0.08526,-1.535878 -0.01496,-1.823916 0.260263,-2.906673 0.285691,-2.243941 0.110686,-2.606197 0.124149,-1.742881 0.04188,-1.892115 0.09423,-1.117257 0.22586,-1.490344 0.06282,-0.971031 -0.03141,-3.562384 0.1765,-1.352342 0.119661,-0.510087 0.09872,-0.756004 0.04637,-0.07783 0.219877,-2.241133 -0.03141,-0.808757 0.07329,-2.301509 0.224364,1.414323 0.67459,3.404323 0.12714,1.351339 0.08376,1.669266 0.44125,3.217579 0.121157,1.915584 -0.02393,1.404093 0.242313,3.331311 0.0359,1.371999 0.191458,1.857014 0.02992,0.863316 0.112182,1.105824 0.218382,0.871941 0.372445,2.289675 0.219877,3.563387 0.475653,3.522468 0.164534,2.5729 0.186971,1.966934 0.31411,2.040347 0.306632,2.698667 0.287187,1.20431 0.13761,0.319933 0.05235,0.266778 0.453216,2.913693 0.20492,0.743166 0.34253,1.770762 0.07778,0.749786 0.562407,2.812799 0.326077,2.57972 0.145089,0.524729 0.09423,0.653104 0.05235,0.725916 0.01496,1.775377 -0.0344,0.0197 0.0015,-0.0822 -0.03889,0.11012 -0.720958,0.33498 -0.836132,0.51329 -0.08675,10e-4 -0.308128,-0.25455 -0.09722,0.005 -0.263255,-0.14763 -0.936348,-0.135 -0.218382,0.0534 -0.423301,0.35544 -0.492106,0.24832 -0.590827,-0.20861 -0.755361,-0.41882 -0.590827,-0.16107 -0.554928,0.10792 -1.159217,-0.006 -0.423302,-0.0471 -0.487619,-0.17732 -0.741899,-0.0963 -0.409839,-0.12696 -0.842115,0.13338 -0.414327,0.21503 -0.134619,-0.0297 -0.0359,-0.10651 0.406848,-2.142446 0.650657,-1.893921 0.0718,-0.07863 0.188466,-1.011348 0.258767,-0.863116 0.475653,-2.063415 0.122653,-0.988883 0.210903,-2.851311 0.05983,-1.939454 0.257272,-2.20603 0.379924,-1.862229 0.09872,-0.178319 0.06133,-0.2744 0.373941,-2.048371 0.528005,-2.344635 0.158551,-1.154967 0.326077,-4.763886 0.0703,-3.107057 0.0703,-0.636255 -0.169022,4.026337 0.02842,3.758556 0.207911,3.194111 0.31411,3.149781 0.172013,1.229584 0.110687,2.992323 0.224364,1.773971 0.252785,1.547311 0.216885,0.567053 0.15556,0.734541 0.38142,1.364176 0.459199,1.300993 0.559416,2.482035 0.09573,0.924294 -0.02244,0.356038 -0.131627,0.200986 -0.281203,0.135595 -0.315607,-0.01083 -0.09124,0.12376 -0.510056,-0.16829 -0.145089,0.04292 -0.551937,-0.115738 -0.424797,-0.007 -0.474157,-0.237893 -0.173509,0.03209 -0.36347,-0.621211 -0.309624,-1.513211 0.08675,-0.389134 0.01945,0.04012 0.08227,-0.640868 0.154063,-0.241504 0.302145,-0.203193 0.1765,-0.493438 0.06432,-0.01163 0.338042,-0.457534 0.330564,-0.553613 0.30364,-0.316924 0.432276,-0.673965 0.542963,-0.980458 0.31411,-0.959196 0.152568,-0.729928 0.109191,-0.915268 0.764335,-2.721132 0.151072,-0.811565 0.110687,-1.195886 0.587835,-2.7442 0.272229,-1.838559 0.04039,-0.998511 0.305136,-2.462578 0.167525,-0.604161 0.653649,-1.260675 0.03889,-0.214024 0.02543,0.08465 0.125644,-0.257952 0.02094,0.138403 0.180988,0.07221 0.05534,-0.05456 0.160047,0.270589 0.547449,2.217062 0.0718,1.134307 -0.02543,0.14402 0.124148,1.065706 -0.01047,0.38773 0.119661,1.225773 0.198937,1.090379 0.276716,2.302311 0.213894,0.947763 0.1062,1.011749 0.169021,0.668148 0.170517,1.722822 0.553433,2.915498 0.164534,0.499256 0.20492,0.938335 0.200432,0.575477 0.315606,2.063215 0.260263,0.788899 0.324581,1.425355 0.106199,0.134793 0.367958,1.498368 0.15556,0.417617 0.08526,0.62783 0.468174,1.887102 0.216886,0.56685 0.287187,0.47218 0.140602,0.38412 0.421805,0.59072 0.306632,0.71007 0.263254,0.25013 0.101712,0.0712 -0.01346,-0.074"
     id="path1280" />
  <path
     style="stroke:#5dabd8;stroke-opacity:1"
     fill="none"
     stroke="#fff3a8"
     stroke-width="6"
     stroke-linecap="butt"
     stroke-linejoin="round"
     opacity="0.250004"
     d="m 90.950018,105.88336 0.102,0.16 -0.058,-0.0166 0.042,-0.089 0.038,0.045 -0.006,-0.068 0.088,0.0888 0.07,-0.0686 0.098,0.036 0.016,-0.082 0.382,0.0326 0.204,-0.1214 0.218,-0.01 0.304,-0.2044 0.058,-0.1858 0.118,0.03 0.16,-0.1658 0.126,-0.0182 0.484,-0.6246 0.104,-0.006 0.324,-0.2844 0.366002,-0.4552 0.174,-0.007 0.27,-0.3646 0.024,-0.1794 0.364,-0.5512 0.058,0.0244 0.214,-0.244 0.214,-0.344 0.048,-0.4892 0.242,-0.6134 0.048,-0.503 0.178,-0.477 0.07,-0.871398 0.154,-0.251 0.072,-0.448 0.52,-1.4188 0.198,-1.1046 0.174,-0.5298 0.04,-0.7426 0.216,-0.7674 -0.006,-1.247 0.214,-0.9158 -0.036,-0.5586 0.476,-2.0746 0.246,-2.8032 0.372,-1.693 0.034,-0.7496 0.18,-1.1494 0.112,-0.1802 0.304,-1.5152 0.052,-0.0442 -0.032,-0.2718 0.46,-1.7188 -0.106,-0.312 v -0.1966 l 0.172,-0.9412 0.046,-0.003 -0.034,-0.2606 0.116,-0.8444 0.06,-0.0598 0.164,-0.847 0.126,-0.2208 0.19,-0.6588 0.126,-0.6792 0.098,-1.2968 0.182,0.6418 0.142,0.9196 0.092,0.9448 0.124,0.5154 -0.026,0.3872 0.164,0.3494 0.136,0.954 0.184,0.5138 0.042,0.6378 0.454,1.7884 0.066,0.0614 0.214,1.1978 0.812,2.258 0.146,0.077 0.1,0.2622 0.13,0.1048 0.382,0.8726 0.072,-0.0218 0.1,0.2726 0.506,0.5654 0.782,0.56 0.18,0.2688 0.142,0.1054 0.07,-0.0226 0.228,0.3306 0.204,0.1034 0.076,0.1134 0.054,-0.017 0.13,0.1952 0.154,0.0572 0.084,0.133 0.164,0.111 0.072,-0.0378 0.046,0.1066 0.066,-0.1122 0.02,0.1942 0.3,0.1494 0.014,-0.051 0.04,0.0996 0.138,0.04 0.042,0.2166 0.154,0.0494 0.028,0.0814 0.266,0.091 0.344,0.257 0.08,-0.0926 0.01,0.0986 0.08,0.0284 0.094,-0.0936 0.07,0.1812 0.526,0.174 0.126,0.105 0.14,-0.0326 0.324,0.13 0.034,-0.0872 0.086,0.1486 0.178,-0.0214 0.09,0.0812 0.138,0.003 0.162,-0.1134 0.114,0.1314 0.104,-0.0904 0.124,-6e-4 0.06,0.072 0.228,-0.014 0.078,-0.0814 0.026,0.1102 0.084,0.009 0.112,-0.1546 0.242,-0.0298 0.036,-0.0564 0.176,0.067 0.158,-0.2698 0.074,0.0146 0.056,-0.139 -0.018,0.1208 0.142,-0.2762 0.092,-0.0702 -0.01,0.1152 0.114,-0.2756 0.072,-0.0168 0.03,-0.0996 -0.004,0.1062 0.006,-0.1594 0.03,0.0476 0.102,-0.0604 0.062,-0.1884 0.066,0.1016 0.198,-0.4712 0.03,-0.0366 0.032,0.0848 0.024,-0.0404 0.078,-0.3164 v 0.0758 l 0.328,-0.3538 0.014,0.1254 0.262,-0.1016 0.104,0.02 -0.044,0.109 0.236,0.4626 0.088,0.131 -0.01,-0.0876 0.046,0.283 0.032,-0.0318 0.058,0.182 0.108,0.8184 0.184,0.3668 0.278,1.4072 0.316,0.815 0.544,3.627 0.45,1.4874 0.002,0.3144 0.09,0.0788 0.024,0.2326 0.178,0.3512 0.114,0.4402 0.174,0.9366 0.254,0.875398 0.016,0.3538 0.152,0.4706 0.018,0.0386 0.018,-0.0772 0.062,0.6096 0.13,0.2456 0.058,0.328 0.056,0.0174 0.064,0.2456 0.088,0.0574 0.02,0.255 0.148,0.2754 0.09,0.434 0.156,0.2062 0.134,0.4302 0.014,-0.0782 0.15,0.1618 -0.034,0.0928 0.062,0.0206 -0.008,0.1086 0.01,-0.0564 0.118,0.0562 0.054,0.2224 0.062,0.006 -0.01,-0.0802 0.058,0.186 0.104,0.005 0.034,0.1436 0.052,-0.0886 0.266,0.3188 -0.064,-0.1148 0.02,0.0766 -0.264,0.1298 -0.344,-0.0338 -0.234,0.1414 -0.212,-0.1406 -0.476,0.0254 -0.198,-0.0696 -0.216,-0.2156 -0.232,-0.022 -0.406,-0.6412 -0.244,-0.2082 -0.262,-0.0862 -0.444,-0.5728 -0.162,-0.3324 -0.33,-1.0848 -0.43,-0.6884 -0.542,-1.248 -0.246,-1.091398 -0.08,-0.6624 -0.134,-0.3946 -0.4,-0.7656 -0.32,-0.9126 -0.35,-0.5264 -0.298,-0.9716 -0.308,-0.567 -1.284,-1.1954 -0.766,-0.39 -1.45,-0.402 -0.138,0.0732 -0.112,-0.028 -0.118,-0.101 -0.76,-0.2902 -0.542,-0.0306 -0.344,0.054 -0.456,-0.1682 -0.056,0.0684 -0.056,-0.032 -0.224,-0.4116 -0.732,-0.8056 -0.516,-0.2244 -0.422,-0.5516 -0.504,-0.7482 -0.368,-0.8968 -0.43,-0.2436 -0.314,-0.0782 -0.39,0.16 -0.16,0.2252 -0.354,0.9028 -0.09,1.1106 0.062,3.1256 -0.14,0.9996 -0.154,0.413 -0.176,0.8024 -0.878,1.882 -0.2,0.379 -0.114,0.088 -0.158,0.5554 -0.026,-0.0456 -0.084,0.11 -0.336,0.9622 -0.072,0.0626 -0.172,0.819998 -0.508,1.319 -0.27,0.3786 -0.402,0.8402 -0.244,0.36 -0.358,0.3232 -0.194,0.312 -0.25,0.1788 -0.258,0.4422 -0.162,0.5752 0.022,0.0858 0.162,0.0998 0.114,0.3246 0.356,0.0314 0.32,-0.0794 0.548,-0.3542 0.64,-0.5456 0.706,-0.4448 0.196,-0.2348 0.36,-0.145 0.694,-0.4896 0.1,-0.244 0.706,-0.9854 0.594,-0.6644 0.886,-1.541798 0.824,-1.821 0.146,-0.2206 0.046,0.0322 v -0.2384 l 0.08,-0.0534 0.396,-0.8558 0.48,-0.5762 0.42,-0.3436 0.342,0.0564 0.998,-0.3296 1.052,-0.1784 0.698,0.222 0.16,-0.0228 0.446,0.1486 0.402,0.0356 0.186,0.227 0.06,0.677 -0.138,0.878 -0.01,0.5082 -0.402,0.6264 -0.202,0.0714 -0.264,0.3098 -0.182,-0.0116 -0.062,0.1658 -0.482,0.3468 -0.412,0.551398 -0.548,0.456 -0.456,0.2532 -0.204,0.3266 -0.13,0.004 -1.15,0.8514 -0.742,0.7584 -0.254,0.322 -0.166,0.3602 -0.066,0.015 -0.246,0.5474 -0.402,0.6214 -0.356,0.8076 -0.082,0.2886 0.052,0.1046 0.012,-0.1976 0.486,0.0592 0.116,-0.0842 0.328,-0.034 0.416,-0.1718 0.464,-0.0752 0.142,-0.1012 0.916,-0.2562 0.412,-0.3252 0.106,0.0332 0.334,-0.117 0.236,-0.004 0.168,-0.1068 0.72,-0.0656 0.2,-0.0828 0.214,-0.1984 0.108,0.1112 0.378,-0.1988 0.466,0.1008 0.242,-0.1156 0.28,0.006 0.228,-0.0812 0.122,-0.1486 0.122,-0.0338 0.152,0.1458 0.436,-0.064 0.342,0.0684 0.06,-0.0622 0.17,0.1 0.39,-0.0302 0.182,0.0876 0.522,-0.1352 0.358,0.0482 0.064,-0.0622 0.376,0.212 0.258,-0.1212 0.202,0.1064 0.254,-0.049 0.332,0.1752 0.076,-0.0714 0.252,0.1954 0.426,0.024 0.034,-0.0664 0.214,0.2108 1.002,0.1994 0.056,0.104 0.246,-0.1638 0.196,-0.0444 0.514,0.1698 0.264,-0.0384 0.534,0.1132 0.274,0.1342 0.064,-0.0736 0.666,0.0422 0.44,0.1358 0.7,0.005 0.088,0.0666 0.372,0.05 0.238,-0.033 0.09,0.1186 0.132,-0.0342 0.128,0.0678 0.044,-0.063 0.2,0.1796 0.062,-0.0318 0.252,0.1186 0.08,-0.1182 0.028,0.1376 0.146,0.004 0.124,0.0986 0.364,0.004 0.162,0.112 0.444,0.1032 0.152,-0.0312 0.142,0.0438 0.046,0.0864 0.064,-0.1128 0.302,0.0228 0.098,-0.0726 0.224,0.1442 0.036,-0.1218 0.504,0.09 0.078,0.0632 0.336,-0.0834 0.15,0.0368 0.062,0.0896 0.072,-0.036 0.08,0.0856 0.458,-0.0412 0.088,-0.1378 0.054,0.198 0.248,-0.0598 0.508,0.0206 0.036,-0.0918 0.12,0.0806 0.372,-0.0234 0.12,-0.0658 0.128,0.0554 0.404,-0.181 0.722,-0.5348 0.124,-0.162 0.1,0.0894 0.034,-0.1632 0.012,0.1722 -0.028,-0.038 0.748,-0.81 0.196,-0.1252 -0.022,0.0822 -0.008,-0.0702 0.602,-0.6492 0.604,-0.413 0.232,-0.4968 0.51,-0.5766 0.296,-0.1528 -0.068,0.006 -0.006,-0.0728 0.072,-0.3356 0.12,-0.0152 0.082,-0.1094 0.152,-0.3696 0.248,-0.1552 0.338,-0.1142 0.124,0.0274 0.254,-0.2378 0.26,-0.1146 0.136,0.0262 0.458,-0.482198 0.08,-0.2682 0.298,-0.414 0.17,-0.065 0.766,-0.6516 0.028,-0.074 -0.08,0.0124 0.002,-0.3378 0.114,-0.4168 0.37,-0.9314 0.116,-0.0684 0.344,-1.443 0.37,-0.9464 0.82,-1.946 0.294,-0.426 0.49,-1.3042 0.414,-0.7698 0.508,-0.6816 -0.076,0.024 -0.08,-0.2058 0.03,-0.7112 0.244,-0.791 0.15,-0.2274 0.04,-0.0246 0.004,0.0492 -0.078,0.1444 -0.028,-0.0476 0.132,-0.668 0.464,-0.9644 -0.032,-0.4018 0.076,-0.637 0.22,-0.41 0.066,0.006 0.124,-0.129 0.904,-1.6298 0.546,-0.6146 0.166,-0.4728 0.546,-1.0756 0.462,-0.5974 0.788,-0.5712 0.174,-0.2158 1.002,-0.6214 0.542,-0.56 0.3522,-0.6522 0.1134,-0.673 0.0992,-0.003 0.3848,-0.8518 0.3042,-1.0946 1.0558,-1.859 0.2672,-0.876 0.1236,-0.063 0.2132,-0.4298 0.3602,-0.353 0.4954,-0.7406 0.2266,-0.5842 0.2638,-0.359 1.3878,-1.5148 0.2238,-0.3628 0.096,-0.3652 0.033,0.1484 0.3898,-1.0506 0.4394,-0.6588 0.6676,-0.6416 0.1982,-0.2686 0.2276,-0.1608 0.1792,0.068 0.115,-0.0798 0.379,-0.5202 0.2704,-0.1878 0.504,-0.575 0.333,-0.6496 0.0386,0.022 0.2684,-0.3748 0.7952,-0.6646 0.1448,0.057 0.1336,-0.0962 0.2868,-0.4608 0.2888,-0.2396 0.0214,-0.146 0.0776,-0.0688 0.0854,0.056 0.1776,-0.117 0.3168,-0.4064 0.5036,-0.3062 0.5178,-0.4526 1.4036,-1.6222 0.4024,-0.3042 0.4868,-0.5322 1.5354,-1.3504 0.4388,-0.315 0.1826,-0.2552 0.3724,-0.2878 0.183,0.0594 0.1996,-0.0736 0.6188,-0.5124 0.3272,-0.1772 0.2734,-0.0666 1.4658,-0.7732 0.1384,0.1058 0.1468,-0.0512 0.1492,-0.2504 0.3852,-0.2536 0.4328,-0.2158 0.6628,-0.1844 0.4206,-0.2624 1.1516,-0.2522 0.3208,-0.1692 0.4914,-0.0814 0.1016,-0.0766 0.1326,0.08 0.1946,0.006 0.6628,-0.1208 0.5,-0.1772 0.1862,0.0734 0.3802,-0.1644 0.4142,-0.089 1.8926,-0.2114 0.2762,0.007 0.12,0.133 0.151,0.019 0.1594,-0.1258 0.7374,-0.1242 0.1982,-0.1554 0.1938,-0.0508 0.1942,0.0756 0.6094,-0.2292 0.2982,-0.0148 0.1556,-0.119 1.6602,-0.558 0.191,-0.2386 0.2184,-0.0986 0.1988,0.0852 0.1678,-0.0228 0.3966,-0.1632 0.289,0.0308 0.2598,-0.1474 0.8584,-0.0674 0.4362,-0.1526 0.2706,-0.0162 0.1248,0.057 0.1514,-0.0572 0.392,0.1318 0.6868,-0.066 0.9456,-0.4616 0.493,0.092 0.629,-0.0368 1.0284,-0.3158 0.1288,0.0728 0.4198,-0.2594 0.507,-0.0356 0.371,0.0542 0.1762,-0.0754 0.1026,0.0622 0.681,-0.2492 0.5212,-0.0704 0.2816,0.049 0.1236,-0.0572 0.5466,0.0758 0.1242,-0.1346 0.1694,-0.0168 0.1236,0.1508 0.419,0.0376 0.1334,0.1274 0.4392,0.1376 0.5082,0.1184 0.658,0.029 0.5012,0.2814 0.1856,0.0196 0.557,0.2308 0.4774,0.0274 0.118,0.1026 0.2176,0.0498 0.1636,0.214 0.0734,-0.1346 0.0674,-0.01 0.059,0.088 0.4414,0.1366 0.122,0.1056 0.1258,-10e-4 0.146,0.1742 0.3288,0.1268 0.6068,0.04 0.5652,0.1386 0.2458,-0.033 0.0996,0.157 0.159,0.0412 0.1412,-0.1496 0.1386,-0.0268 0.4502,0.1254 0.5792,-0.0738 0.6628,0.1816 0.3502,0.1634 0.5606,0.0826 0.6096,0.3384 0.3838,0.004 0.1972,0.168 0.3024,0.067 0.2246,0.164 0.3286,0.1026 0.1096,-0.0366 0.2224,0.2122 0.1304,0.0322 0.7208,0.4938 0.1672,-0.052 0.2658,0.1276 0.5288,0.0606 0.3296,0.258 0.063,0.1182 0.1614,0.0346 0.4622,0.3006 0.2776,0.119 0.4598,0.0698 0.2418,0.2216 0.3556,0.122 0.2276,0.0106 0.5238,0.4598 0.485,0.3036 0.1576,-0.0388 0.3114,0.082 0.1648,0.1768 0.204,0.054 0.165,-0.1214 0.584,-0.018 0.1768,0.0208 0.5212,0.265 0.5092,0.0368 1.4568,0.946 1.0986,0.4868 0.3478,0.0522 0.1338,0.1752 0.4334,0.1218 0.8602,0.5604 0.3076,0.135 0.5822,0.617 0.396,0.1412 0.4628,0.3458 0.3836,0.4604 0.0734,0.006 0.22,0.3704 0.1444,0.1524 0.0764,8e-4 0.0778,0.1494 0.4264,0.2478 0.276,0.0342 0.642,0.2626 0.3328,0.4252 2.4586,1.4908 0.8168,0.7994 0.9208,0.4006 0.4926,0.2832 0.2248,0.225 0.321,0.133 1.3578,1.2896 0.2698,0.1334 0.8144,0.7078 0.1938,0.268 0.0766,-0.0632 0.054,0.0476 0.075,0.2036 0.4514,0.5322 0.729,0.3594 0.4162,0.4234 0.0778,-0.0182 0.5164,0.2334 0.8338,0.5046 1.0762,0.4068 0.2708,0.337 0.1628,0.0558 0.1232,0.2242 0.4444,0.3224 0.7592,0.7548 0.0936,0.0738 0.243,0.037 0.2084,0.3612 0.1244,0.007 0.218,0.3 0.2286,0.1324 0.2686,0.3204 0.4234,0.2416 0.2082,0.2422 0.0754,0.2194 1.2942,1.5702 0.1208,0.2376 0.1044,0.1152 0.144,0.0112 0.1844,0.3008 0.7936,0.6758 0.5484,0.6534 0.1896,0.0946 0.5498,0.6736 0.1824,0.084 0.4838,0.7564 0.563,0.553 0.6624,0.4474 0.3314,0.47 0.1696,0.0688 0.5884,0.5402 0.288,0.1846 0.4596,0.5124 1.059,0.5422 0.5798,0.4306 0.1142,-0.0378 0.3866,0.5644 0.5918,0.5024 1.132,0.8694 0.403,0.2048 1.105,0.8854 0.831,1.0116 0.0968,-0.04 0.0828,0.0916 0.327,0.5104 0.877,0.9694 0.397,0.5314 0.6576,0.6052 0.6794,0.8846 1.1738,0.99 1.7228,1.1434 0.5934,0.6556 1.0142,0.5716 0.231,0.1868 0.1714,0.332 0.0518,-0.0382 0.183,0.1336 0.1088,0.153 0.2116,0.106 0.4574,0.4226 0.2724,0.1632 0.2584,0.0368 0.2776,0.31 0.962,0.5186 0.376,0.2902 0.1612,0.0104 0.1614,0.1016 0.488,0.4998 1.3836,0.8366 0.7208,0.5616 0.2934,0.3914 0.2068,0.14 0.1734,-0.0504 0.1654,0.0514 0.349,0.244 1.0162,0.4378 0.547,0.365 0.1512,-0.0578 0.1442,0.0562 0.1568,0.2124 1.4612,0.7456 0.0734,-0.0114 0.4782,0.4002 0.0898,-0.0832 0.1196,0.0514 0.0976,0.2516 0.5252,0.496198 0.352,0.1 0.5888,0.3708 0.4468,0.1418 0.6242,0.5606 0.597,0.2054 0.1746,-0.0836 0.1746,0.0152 0.1604,0.1978 0.4592,0.2534 0.1096,-0.0146 0.4266,0.2262 0.826,0.2676 0.1808,0.2648 1.2,0.6018 0.18,0.07 0.1008,-0.0308 0.5838,0.535 0.1368,-0.0326 0.2892,0.0966 0.3462,0.2232 0.266,0.2652 0.15,0.009 0.4522,0.1962 0.2456,0.1772 0.4352,0.1584 0.4304,0.4068 0.063,-0.0556 0.4304,0.2554 0.079,-0.0384 0.0716,0.1562 0.064,-0.0574 0.224,0.1168 -0.0336,-0.0702 0.088,0.1266 0.0534,-0.1016 0.0764,0.2302 0.6904,0.417 0.2292,0.0346 0.2426,0.14 0.2994,-0.0202 0.2788,0.1024 0.1428,0.1904 0.2768,0.1314 0.0676,0.1296 0.0874,0.0538 0.0508,-0.1016 0.174,-0.009 0.1074,0.1572 0.1866,0.0356 0.0358,0.1564 0.0754,0.0416 0.0472,-0.0702 0.0914,0.007 0.109,0.1302 0.0238,-0.1312 -0.048,-0.005 0.0118,0.3016 -0.057,-0.3014 -0.4782,-0.276 -0.159,0.0306 -0.29,-0.087 -0.5912,0.0208 -0.1822,0.1098 -0.4426,0.0576 -0.2042,-0.0922 -0.2212,4e-4 -0.216,0.1002 -0.5466,0.0688 -1.529,0.0854 -0.372,-0.0406 -0.2842,-0.176 -0.062,-0.1176 -0.118,-0.0268 -0.0858,0.183 -0.1356,-0.0294 -0.1226,-0.1416 -0.4546,-0.0664 -0.8842,0.0588 -0.2508,-0.098 -0.3846,0.0976 -0.9394,-0.1424 -1.2444,0.0476 -0.4006,-0.0696 -0.144,0.1094 -0.3152,0.0368 -0.685,-0.0976 -0.9174,0.0102 -0.9742,-0.1918 -0.6398,-0.0362 -0.1584,-0.0782 -0.4124,0.0288 -1.7684,-0.236 -0.694,-0.0252 -0.0964,0.0674 -0.1082,-0.0126 -0.1268,-0.0862 -0.8624,-0.1532 -0.5184,0.0512 -0.3532,-0.063 -0.735,0.1136 -0.6436,-0.066 -0.9834,0.1012 -0.3186,-0.0518 -0.1344,0.0846 -0.543,-0.1442 -0.3078,0.1008 -0.1902,-0.0824 -0.3398,0.0376 -0.7066,0.2152 -0.8922,0.0344 -0.1464,0.0758 -0.4888,-0.179 -0.6606,-0.0432 -0.471,0.0452 -0.1606,-0.0572 -0.5612,0.164 -0.1326,-0.1084 -0.1654,-6e-4 -0.3326,0.1316 -0.793,0.0694 -0.9138,-0.1182 -0.807,-0.3342 -0.1138,0.2006 -0.1682,0.0194 -0.1332,-0.141 -0.8164,-0.009 -0.4244,-0.0898 -0.2106,-0.197 -0.0972,0.0456 -0.4392,-0.1746 -0.1244,0.0758 -0.9982,0.1032 -1.0626,-0.1024 -0.1226,0.0942 -0.2852,0.0166 -0.187,-0.1894 -0.1048,0.1376 -0.4462,-0.063 -0.2394,0.0748 -0.2688,-0.0968 -0.5076,0.0218 -0.1854,-0.1054 -0.193,-0.005 -0.2138,0.111 -0.7994,0.1128 -0.3968,0.1764 -0.347,-0.076 -0.871,-0.0254 -0.5598,0.0534 -0.2022,-0.1252 -0.1902,0.0332 -0.1628,0.1554 -0.2004,0.023 -1.452,-0.0426 -0.1958,-0.0638 -0.695,0.0346 -0.5398,-0.089 -0.8358,-0.001 -0.401,-0.113 -0.4776,-0.007 -0.1542,-0.0564 -0.7676,-0.006 -0.4568,-0.1076 -0.2214,0.046 -0.9168,-0.023 -0.728,-0.1524 -0.7208,0.0324 -1.518,-0.0822 -0.526,-0.154 -0.2648,0.0654 -0.5726,-0.0436 -0.5094,-0.1744 -0.2438,0.0924 -0.244,4e-4 -0.603,-0.121 -0.2026,0.2554 -0.2564,0.0166 -0.1736,-0.2762 -1.0118,-0.2098 -1.3204,-0.0154 -0.932,-0.216 -0.1882,0.14 -0.2268,-0.017 -0.2232,-0.1672 -0.447,-0.0868 -0.4716,0.017 -0.5556,-0.0708 -0.2344,0.0748 -0.986,0.0224 -2.854,-0.141 -0.8378,0.0172 -1.0984,0.1346 -0.6956,0.005 -0.1828,0.126 -0.1886,0.0302 -0.222,-0.1118 -0.6276,-0.0184 -0.5812,0.0972 -0.4112,-0.0528 -0.1516,0.1294 -0.152,0.0144 -0.1328,-0.1886 -0.4506,-0.06 -1.3168,-0.066 -0.4176,0.0758 -0.8388,-0.0204 -0.1736,0.1116 -0.1688,0.009 -0.1624,-0.1112 -0.9856,-0.1648 -0.8678,0.0624 -0.2394,-0.1016 -0.2458,-0.008 -0.2252,0.1754 -0.2432,0.048 -0.483,-0.0306 -0.6042,0.0896 -1.031,-0.0816 -0.3958,-0.1118 -0.3856,0.1098 -0.6788,-0.0612 -0.2114,0.2154 -0.1968,0.0496 -0.3738,-0.1082 -0.4516,0.1048 -0.141,-0.116 -0.6812,0.007 -0.1824,-0.2004 -0.2044,0.028 -0.1812,0.2406 -0.2202,0.0646 -1.5956,0.0858 -0.173,0.1042 -0.196,0.0274 -0.3378,-0.0392 -0.5966,0.0974 -0.2028,-0.0652 -0.8708,0.2834 -0.1824,-0.0932 -0.1724,0.0182 -0.1358,0.1384 -1.0492,-0.159 -0.3292,0.1078 -0.5046,0.009 -0.1966,-0.087 -0.3682,0.0994 -0.4846,0.032 -0.6992,-0.1114 -0.5324,0.06 -0.8002,-0.1262 -0.2084,-0.1764 -0.0982,0.0894 -0.3052,-0.0504 -0.278,-0.1234 -0.7558,-0.114 -0.2134,-0.1216 -0.235,-0.002 -0.1988,0.1258 -0.437,0.0406 -0.6998,-0.1042 -0.369,0.0436 -0.675,-0.072 -0.4622,0.0554 -0.7406,-0.0894 -0.2048,-0.1492 -0.2116,-0.0564 -0.1794,0.07 -0.7486,-0.1026 -0.1992,0.0722 -0.2176,-0.0284 -0.6444,-0.2312 -1.1224,0.09 -0.7428,-0.0604 -0.229,-0.2292 -0.2586,-0.0492 -0.2472,0.237 -0.74,0.1038 -0.749,-0.1404 -0.7562,0.0346 -0.247,0.1128 -0.2534,0.014 -0.6528,-0.1464 -0.8378,0.0424 -0.251,-0.269 -0.2772,-0.006 -0.229,0.3444 -0.2656,0.106 -1.02,0.124 -1.7696,-0.1484 -0.4918,0.024 -0.167,-0.1646 -0.1884,-0.016 -0.1668,0.1554 -0.776,0.0544 -0.19,0.211 -0.2236,0.0184 -0.35,-0.1482 -0.1838,-0.0208 -0.1526,0.123 -0.1798,-0.0346 -0.1726,-0.1344 -0.763,-0.08 -0.8452,0.1418 -0.1458,0.082 -0.5092,-0.0336 -0.131,0.1824 -0.165,0.0194 -0.1434,-0.173 -0.4212,0.003 -0.1744,0.071 -0.149,-0.0786 -0.3528,0.1654 -0.1238,8e-4 -0.1916,-0.131 -0.0934,0.0946 -0.5246,0.009 -0.2784,0.0858 -0.3502,-0.101 -1.619,0.1806 -0.4712,-0.0142 -0.2292,0.146 -0.977,0.0656 -0.182,0.1422 -0.2056,0.0256 -0.2056,-0.0762 -0.7854,-0.0296 -0.3478,-0.1378 -0.1502,0.0476 -0.5122,-0.081 -0.5896,-0.1642 -0.6536,0.0622 -0.2198,0.1012 -0.9498,0.0396 -0.3748,-0.039 -0.3842,-0.1786 -0.7736,0.0618 -0.4232,-0.1416 -0.4392,0.034 -0.7894,-0.0624 -1.0468,0.0994 -1.2448,-0.063 -0.6158,0.1132 -0.7196,0.0264 -0.3796,-0.1054 -1.0726,-0.0406 -0.7154,-0.1482 -1.291,-0.0488 -0.5148,0.0618 -0.5464,-0.0682 -0.5102,0.0732 -0.75,-0.1452 -1.2098,-0.0748 -0.174,-0.1014 -0.2,-0.0244 -0.602,0.1064 -0.308,-0.085 -0.74,-0.0238 -0.888,-0.132 -0.33,0.0116 -0.16,0.1148 -0.152,-0.007 -0.16,-0.1486 -0.308,-0.098 -0.114,0.1294 -0.146,0.0238 -0.116,-0.1202 -0.554,-0.1648 -0.544,0.025 -0.22,-0.1 -0.086,0.075 -0.704,-0.2986 -0.376,0.0212 -0.22,-0.1044 -0.218,0.1476 -0.664,-0.0688 -0.48,0.1478 -0.19,-0.0568 -0.258,0.125 -0.088,-0.0412 -0.082,0.1304 -0.136,-0.1136 -0.628,0.1008 -0.16,0.1942 -0.342,0.103 -0.154,0.174 -0.198,0.1028 -0.306,0.0708 -0.254,0.165 -0.022,-0.0842 -0.076,0.024 -0.176,0.2244 -0.654,0.4214 0.026,-0.115 0.04,0.0792 0.124,-0.007 0.152,-0.11 0.932,-0.2268 1.578,-0.7648 0.584,-0.4366 0.804,-0.437 1.278,-0.9236 0.644,-0.5646 0.276,-0.3332 0.19,-0.3264 0.234,-0.6398 1.758,-3.049798 0.434,-1.8946 0.36,-0.7626 0.524,-0.8346 0.082,-0.2336 0.612,-0.7622 0.62,-1.275 0.276,-1.1558 0.306,-0.6372 0.826,-1.0714 0.9142,-2.2458 0.3202,-0.5874 0.1454,-0.1206 0.0396,-0.443 0.033,0.2116 0.068,-0.1488 0.1196,-0.9828 0.5792,-1.2246 1.1364,-1.9564 0.3938,-0.5404 0.2934,-0.189 0.1298,-0.2642 1.2332,-1.5888 0.341,-0.5024 0.1578,-0.363 0.8512,-1.1106 0.2426,-0.4356 0.547,-0.4588 0.9114,-0.9988 0.7686,-0.918 0.5778,-0.8832 0.1984,-0.1356 0.46,-0.9806 0.1832,-0.2642 0.0844,-0.3746 0.1288,-0.238 0.1412,0.1472 0.1158,-0.1118 0.9684,-1.5516 0.6714,-0.8344 0.742,-1.79 0.3244,-0.4076 0.3104,-0.6434 0.2684,-0.3912 0.4278,-0.9814 0.127,-0.0236 0.1982,-0.2664 0.294,-0.2372 0.1452,0.064 0.1636,-0.05 0.332,-0.4642 0.6866,-0.5544 1.1936,-1.3272 0.2102,-0.0926 0.28,-0.3694 0.3714,-0.2814 0.1766,0.1382 0.2134,-0.073 0.1902,-0.3188 2.8164,-1.5658 0.2578,-0.1296 0.1698,0.005 0.1666,-0.102 0.1418,-0.2226 0.4114,-0.3006 2.1602,-1.109 0.3354,-0.258 0.1702,0.002 0.1622,-0.0904 0.1214,-0.2088 0.273,-0.247 0.5502,-0.2896 0.5632,-0.2402 0.3318,0.007 0.1422,-0.0912 0.9224,-0.2318 1.1474,-0.4658 0.5616,-0.0638 2.474,-0.5772 0.9488,-0.1362 0.2688,-0.2852 0.3044,-0.086 0.2852,0.2694 0.3458,-0.003 1.5436,-0.3104 0.92,0.0414 0.8652,-0.058 0.5744,0.0502 0.2602,-0.2114 0.3146,-4e-4 0.309,0.2004 1.185,0.003 0.555,0.0806 0.279,-0.0918 1.0164,0.022 1.3566,-0.178 0.5474,-0.101 0.2502,-0.145 0.273,-0.042 0.461,0.1614 0.8944,0.0332 1.1178,-0.0938 0.2958,0.0394 0.5506,-0.1062 1.2018,-0.0204 0.354,0.177 0.4428,0.0458 0.5168,0.1528 1.0756,0.124 0.49,-0.0322 0.6434,0.064 0.7338,0.2692 0.2778,0.184 0.9466,0.4292 0.3488,0.1004 0.3318,0.2234 1.3342,0.4006 0.445,0.3046 1.9474,0.6992 0.7614,0.3414 0.2028,0.1562 0.8416,0.3158 0.449,0.3194 0.4628,0.096 1.496,0.5238 0.9552,0.2514 1.0618,0.1814 0.4746,0.1904 1.6536,0.8958 1.8452,0.7412 1.8604,1.2034 1.3498,0.759 0.3662,0.33 0.4124,0.192 1.2628,0.9092 1.605,0.8584 0.9564,0.804 0.664,0.2846 0.7866,0.459 0.4096,0.1202 0.3416,0.2666 1.4216,0.736 1.3454,1.0682 0.4356,0.5982 2.7948,1.9696 0.6532,0.5764 1.0498,1.4454 0.3842,0.223 0.8838,0.93 0.8378,0.7102 0.5814,0.6034 1.2524,1.4484 0.3754,0.7152 0.404,0.3462 1.0406,1.2576 0.5712,0.5174 0.9542,1.2466 0.71,0.6358 0.633,0.8832 0.4968,0.4436 0.3352,0.155 0.22,0.298 0.7678,0.72 0.9766,0.5946 0.9206,0.8052 0.3378,0.2058 0.1696,0.302 0.2052,0.1626 0.622,0.2882 0.3584,0.3308 0.192,0.0572 0.9426,0.6642 0.678,0.769 0.4238,0.2964 2.1068,2.2754 0.168,0.0518 0.7234,0.6874 1.3422,1.0202 1.2684,1.293 0.3204,0.1134 0.1176,0.1724 0.8832,0.8086 1.408,0.878 0.1522,0.006 0.151,0.0978 0.2708,0.3894 0.5882,0.5464 0.75,0.4298 0.0618,-0.096 0.5958,0.6454 0.2946,0.1116 0.2832,0.361 1.1686,0.638 0.6482,0.444 0.4004,0.439398 0.7736,0.4506 2.3974,0.7588 1.4116,0.6184 0.624,0.1782 0.7866,0.1168 -0.9716,-0.2556 -0.2696,-0.0182 -1.8222,0.1424 -1.9368,-0.1826 -3.2194,-0.0714 -0.7472,-0.0824 -1.7604,0.1262 -1.1362,-0.0108 -2.509,-0.243 -1.1268,-0.007 -0.2964,-0.0834 -1.0994,-0.052 -0.9998,-0.1608 -0.4854,-0.1862 -0.8702,-0.2168 -0.2896,-0.2778 -0.2958,-0.0758 -0.2488,0.222 -1.2862,-0.1112 -0.629,0.1016 -1.0554,-0.1736 -1.8734,-0.1326 -0.2694,-0.2328 -0.3242,-0.0578 -0.3492,0.2258 -0.694,0.0946 -0.4008,-0.0766 -0.4244,0.009 -0.3658,0.2162 -0.3274,0.039 -0.2996,-0.0952 -1.2136,-0.0946 -1.9364,0.0348 -0.4732,-0.2716 -0.5148,-0.0492 -0.4362,0.3118 -0.4426,0.0744 -1.232,-0.0476 -0.3886,0.1186 -0.4002,0.002 -2.1084,-0.3196 -1.304,-0.1068 -0.5614,-0.229 -0.2798,0.0962 -0.2798,0.011 -0.896,-0.1266 -0.552,0.0646 -1.23,-0.182 -0.7726,0.0282 -1.329,-0.126798 -0.2596,-0.1686 -0.248,-0.054 -0.2732,0.093 -0.6398,-0.0234 -0.572,-0.0986 -0.3016,0.0492 -0.977,-0.0708 -2.7664,0.0966 -1.1656,-0.0836 -0.3266,0.0882 -1.545,-0.1086 -1.0106,0.1082 -0.6424,-0.0956 -0.8722,0.0724 -0.2768,-0.1292 -0.2602,-0.0146 -0.2654,0.0844 -0.658,-0.005 -0.3432,0.0892 -0.357,0.008 -0.336,-0.1106 -0.9608,10e-4 -0.7482,-0.0834 -0.4368,0.0346 -0.5464,-0.1704 -0.3302,-0.0124 -0.3216,0.1606 -0.3506,0.029 -3.3832,-0.1526 -0.354,0.1136 -0.3714,0.019 -0.9888,-0.0724 -0.3352,0.0402 -1.3298,-0.116 -0.3464,0.113 -0.3262,0.0176 -0.3312,-0.1244 -1.4304,-0.0788 -0.3376,-0.2084 -0.3264,-0.0352 -0.313,0.204 -0.6846,0.0382 -1.8956,-0.3986 -0.2782,-0.0338 -0.2672,0.082 -0.2742,-0.0366 -0.2578,-0.161 -1.208,-0.1758 -0.321,-0.554 -0.4008,-0.0788 -0.2436,0.602 -0.6488,0.0968 -0.2796,-0.152 -0.2892,-0.056 -0.253,0.0646 -1.092,-0.2376 -0.5624,-0.0314 -0.2836,-0.0974 -1.1928,0.0274 -0.263,-0.4944 -0.3366,-0.0362 -0.227,0.5054 -0.6094,0.1204 -0.2748,-0.061 -0.5954,0.061 -1.2188,-0.0836 -0.5556,0.0922 -1.3468,-0.0306 -0.2524,-0.3892 -0.306,-0.096 -0.2118,0.3608 -0.2624,0.0244 -1.8356,-0.1062 -0.6208,0.172 -0.3254,-0.0824 -1.2404,0.0624 -0.2666,-0.1764 -0.2576,0.003 -0.2338,0.174 -0.4998,0.056 -0.5494,-0.148 -0.2562,0.0786 -0.99,0.004 -0.2484,0.0596 -0.5274,-0.1098 -2.5528,0.0718 -0.6294,0.1302 -1.1268,0.0468 -0.269,0.1222 -0.2864,0.005 -0.2654,-0.1404 -0.5202,0.008 -0.6222,0.0976 -0.659,-0.047 -1.6562,0.3174 -0.2508,-0.098 -1.1296,-0.0386 -0.2612,0.175 -0.2522,0.021 -0.253,-0.1474 -1.2854,-0.0294 -0.686,0.1542 -1.211,0.0846 -0.7428,0.019 -1.294,-0.0964 -0.2296,0.0196 -0.252,0.1366 -0.2906,0.0634 -0.8064,0.005 -0.247,0.0998 -0.231,8e-4 -0.2194,-0.0972 -1.6356,0.0768 -0.853,-0.1402 -0.9292,0.0266 -0.2188,0.0704 -0.473,-0.1016 -2.1148,0.0224 -0.26,-0.067 -0.2768,0.0348 -0.2912,0.1784 -0.3324,0.0666 -1.5196,0.0794 -0.41,0.0936 -0.342,-0.0522 -0.108,-0.1354 0.024,-0.3206 0.038,0.0858 0.446,-0.7206 0.268,-0.2702 0.584,-0.3606 0.887,-0.9106 0.8256,-0.6196 1.6104,-1.88 0.5178,-0.5214 0.1848,-0.0886 0.1442,-0.1936 0.253,-0.5896 0.781,-1.288 1.396,-1.8434 0.2488,-0.5644 0.4594,-0.7696 0.2468,-0.6806 1.1096,-2.274 0.2402,-0.3346 1.2166,-2.4836 0.6604,-1.0068 0.465,-0.5008 0.2604,-0.441 0.2598,-0.2858 0.2462,-0.6156 0.0962,-0.011 0.0692,-0.139 0.0528,-0.3686 0.1104,-0.241 1.0224,-1.2368 0.234,-0.485 0.2436,-0.2794 0.428,-1.0622 0.7178,-0.7866 0.2764,-0.4326 0.094,0.0442 0.145,-0.3566 0.6324,-0.936 0.6764,-0.6264 0.2838,-0.4588 1.1964,-1.3042 0.2284,-0.4142 0.1424,-0.0474 0.0896,-0.1188 0.2452,-0.5178 2.2924,-2.7746 0.3832,-0.2088 0.1562,-0.1874 0.1774,0.3534 0.2354,-0.0526 0.144,-0.5586 0.9978,-0.7116 0.7228,-0.3136 0.644,-0.3722 0.1946,0.005 0.1584,-0.0694 0.5622,-0.4282 0.2146,0.2518 0.2,-0.1216 0.1518,-0.467 0.4878,-0.4912 0.4422,-0.3356 0.8282,-0.2726 2.192,-1.1058 0.2656,0.1412 0.2904,-0.0906 0.2766,-0.3736 1.1352,-0.5502 0.3028,-0.2434 0.3292,-0.1366 0.3004,-0.006 0.9992,-0.4204 2.2866,-0.4552 0.8802,-0.0918 3.8266,-0.8338 0.4742,-0.029 0.2894,0.085 0.3196,-0.0168 0.3382,-0.1002 0.6848,-0.0756 0.301,-0.2368 0.3144,-0.0628 0.2918,0.2038 0.3018,0.025 0.8422,-0.1796 1.2628,-0.017 0.5472,-0.1208 1.0226,-0.0334 0.2288,-0.1442 0.2342,-0.01 0.2164,0.1814 1.311,0.1286 1.1338,0.5388 1.0958,0.191 0.2334,-0.166 0.2258,0.056 0.2004,0.2694 2.1538,0.628 0.899,0.5268 0.736,0.2554 0.3002,-0.0888 0.3062,0.0466 0.2556,0.2366 0.2818,0.0968 0.6378,0.0994 1.119,0.2916 1.9286,0.673 0.6066,0.1064 0.2836,-0.1762 0.2882,0.0434 0.3072,0.3438 0.3566,0.1756 1.7724,0.3506 2.0612,0.5554 1.8872,0.7656 1.9628,0.6604 2.1764,0.898 2.1528,1.2028 0.8044,0.6082 1.1028,0.6916 2.371,2.1348 0.4974,0.2552 0.5538,0.428 0.8582,0.3946 0.4298,0.3218 0.7908,0.993 0.3836,0.3804 0.5666,0.854 0.8536,0.6918 1.1874,1.403 0.6286,1.0188 0.264,0.2956 0.5408,0.9292 0.8228,1.1026 0.3858,0.8496 0.5962,0.6932 0.637,0.4824 1.1254,1.1722 1.3988,1.1866 1.758,1.2694 1.0232,0.5166 0.2102,0.2302 1.0328,0.6282 1.5016,1.4612 0.1866,0.0756 0.3376,0.4786 1.053,1.1768 0.9198,1.2056 0.3884,0.3976 0.318,0.5044 0.637,0.749 0.4364,0.7422 0.1268,0.0194 0.109,0.108 0.2472,0.5106 0.3516,0.277 0.3862,0.7274 0.3128,0.2344 0.2988,0.4298 0.1336,0.004 0.2672,0.155 0.2366,0.273 0.8274,0.265 0.4522,0.2452 0.3156,0.0356 0.5206,0.2248 0.068,0.0936 -0.1628,-0.2912 -0.0524,0.0122 0.0518,0.2078 -0.437,-0.4048 -0.183,0.0366 -0.1842,-0.0686 -0.3604,-0.2988 -0.4676,-0.185 -0.9366,-0.1954 -1.9002,-0.1726 -0.282,-0.1452 -0.2984,-0.0538 -0.3048,0.1358 -1.0948,-0.1412 -1.2392,0.0424 -0.8402,0.1028 -1.0444,-0.0134 -0.3714,-0.0752 -1.044,0.0108 -2.0268,-0.1578 -3.3828,0.0104 -0.3312,-0.2494 -0.3488,-0.0278 -0.3128,0.262 -0.3448,0.0212 -0.3082,-0.0342 -0.6118,-0.2158 -0.9186,-0.0702 -0.7582,-0.26 -1.391,-0.3504 -0.264,-0.2554 -0.3244,-0.057 -0.3124,0.218 -0.3692,0.0352 -1.0542,-0.059 -0.4048,0.1316 -0.8168,0.006 -1.644,0.1842 -1.5644,0.0834 -0.4268,0.0124 -0.3846,-0.0744 -2.6584,0.294 -1.956,-0.0536 -2.1872,-0.331 -1.0266,0.0474 -2.1382,-0.1516 -0.2778,0.259 -0.3416,0.059 -0.3526,-0.2128 -0.7206,0.015 -0.703,-0.0736 -0.6596,0.0734 -1.37,-0.1946 -1.885,0.0856 -0.2626,0.3428 -0.3456,0.0598 -0.3028,-0.306 -0.5862,-0.0656 -2.24,0.1324 -0.325,0.1072 -0.301,-0.0148 -0.3294,-0.1572 -0.8654,0.016 -1.0144,-0.1038 -0.691,0.1294 -3.751,0.3272 -2.178,-0.0218 -2.3352,-0.147 -0.3592,0.0894 -0.369,-0.003 -0.6758,-0.1562 -0.383,-0.005 -0.402,0.1178 -0.4122,0.0212 -0.3842,-0.1252 -0.396,-0.0352 -1.2952,0.0758 -0.3768,-0.1434 -0.4014,-0.0354 -0.4042,0.1524 -0.3766,0.024 -0.3812,0.006 -0.7576,-0.1694 -0.3626,0.1218 -0.3344,-0.006 -0.9518,-0.2322 -1.0184,-0.1392 -1.764,0.039 -0.443,-0.1372 -0.4256,0.0368 -0.3928,0.228 -0.3906,0.053 -1.1346,-0.033 -0.8918,0.1012 -1.2516,-0.101 -0.8112,0.044 -1.3722,-0.0816 -2.283,-0.003 -2.118,-0.126 -0.6592,0.087 -0.646,-0.1356 -1.0424,0.005 -0.3548,-0.2688 -0.4004,-0.0256 -0.3454,0.3336 -0.66,0.072 -0.523,-0.1312 -0.2884,0.0684 -0.6584,-0.0548 -1.1676,0.0594 -0.5974,-0.0698 -2.0912,0.092 -0.3264,-0.068 -0.6536,0.0324 -1.9138,-0.161 -0.7126,-0.002 -0.3446,-0.1562 -0.1276,0.0686 -0.1176,-0.0884 0.0854,-0.545 0.044,-0.1882 0.0414,0.0804 0.078,-0.1538 0.1474,-0.6604 0.2572,-0.4886 0.5016,-0.5904 1.3248,-1.3932 1.9986,-1.7532 0.598,-0.909 0.903,-1.0672 0.2488,-0.2608 0.2654,-0.1558 1.0866,-1.1574 0.509,-0.394 1.0504,-1.1134 0.2234,-0.4386 0.3176,-0.3636 0.2938,-0.147 1.0972,-1.1226 0.5652,-0.6848 0.804,-0.7642 0.271,-0.128 0.5682,-0.6868 0.9076,-0.8462 0.3036,-0.329 0.2784,-0.8816 0.3488,-0.4226 0.305,0.4226 0.2978,-0.1556 0.3018,-0.2724 1.7122,-1.9106 0.8102,-1.1326 0.55,-0.649 0.3044,-0.499 0.1622,-0.0994 0.7476,-1.0166 0.966,-0.7266 0.361,-0.3722 1.6608,-2.11 0.6454,-0.3474 0.3498,-0.3052 0.1006,0.0648 0.1174,-0.0484 0.0752,-0.191 0.118,-0.1038 0.5982,-0.3722 0.4004,-0.09 0.8642,-0.383 0.5152,-0.087 1.1142,-0.3358 0.9162,-0.106 0.4502,-0.2062 2.2806,-0.5364 0.818,-0.2622 0.8424,-0.174 1.0948,-0.0868 0.2126,-0.0982 0.254,0.001 0.2674,0.1006 0.8182,0.1182 1.8978,-0.0978 0.703,-0.0932 0.8968,0.0712 1.0826,-0.0362 0.6172,0.1966 0.675,-0.028 1.598,0.3606 0.446,0.034 0.4326,0.2294 0.8842,0.2484 0.3272,-0.0168 1.3472,0.1578 0.3556,0.137 1.1734,0.0202 1.242,0.1794 1.091,0.046 1.6652,0.2044 0.5584,0.1412 1.7948,0.762 0.281,-0.0192 0.2692,0.114 0.2832,0.2972 0.6094,0.254 0.302,-0.0322 0.2916,0.06 0.2782,0.1986 0.5296,0.1406 1.0698,0.4334 1.185,0.9734 0.2296,-0.1894 0.2026,0.099 0.1632,0.4702 0.8674,0.773 0.1914,0.2724 0.2298,0.1476 0.2192,0.0348 1.5308,1.029 0.397,0.3826 0.2188,0.0384 0.6636,0.7172 0.6836,0.5814 1.1638,0.6084 0.871,0.538 1.282,0.5278 1.7502,1.2044 1.9736,1.1092 0.319,0.0348 0.287,0.1268 0.2426,0.226 0.8982,0.547 0.1686,0.305 0.5356,0.4834 0.6916,0.8994 0.688,0.748 0.1672,-0.0512 0.1216,0.1152 0.1208,0.3682 0.1808,0.2746 0.4744,0.492 0.1668,0.2588 0.657,0.553 1.1484,1.6268 0.1456,0.0658 0.114,0.1512 0.1112,0.3278 0.5306,0.8286 0.963,0.8524 0.6298,0.668 0.3424,0.5824 0.6426,0.8192 0.738,0.5098 0.1878,-0.033 0.1812,0.1064 0.1426,0.2406 0.1726,0.1428 1.1692,0.4228 0.2896,0.2384 -0.0368,-0.1986 -0.0286,0.1954 -0.0504,0.004 -0.0638,-0.1242 -1.7576,-0.318 -1.4798,-0.0322 -0.7622,-0.108 -0.2632,0.044 -1.46,-0.3824 -1.6744,-0.1574 -3.1972,0.0682 -1.0618,0.1238 -3.4352,0.109 -0.396,-0.1102 -0.3378,-0.0148 -0.3514,0.1258 -0.7052,-0.026 -0.7278,0.084 -1.7464,-0.202 -0.6538,-0.0126 -1.0806,-0.1582 -1.0928,0.0404 -2.5642,-0.132 -1.9182,0.0782 -0.7904,0.0928 -0.397,-0.0436 -0.3756,0.0326 -0.3788,0.126 -1.5476,-0.007 -0.344,0.055 -0.6464,-0.051 -1.2886,0.0536 -0.3238,-0.2116 -0.3708,0.022 -0.3302,0.3104 -0.3654,0.092 -1.7426,0.2076 -1.0918,-0.0182 -0.342,0.1214 -0.3182,0.005 -0.2826,-0.1572 -0.2672,-0.025 -2.4862,-0.0302 -0.3396,0.0204 -0.7068,0.1956 -0.8384,-0.0972 -0.2934,0.1624 -0.3356,0.0154 -0.3502,-0.1786 -2.5088,-0.2106 -0.5334,-0.1708 -0.2614,0.1382 -0.2916,0.008 -1.1226,-0.218 -0.4052,0.2642 -0.398,0.0154 -0.3514,-0.3338 -0.7538,-0.1494 -0.75,-0.0638 -0.3908,-0.176 -0.4036,-0.0398 -0.3696,0.1332 -0.3684,0.0204 -1.211,-0.1508 -2.0834,-0.0458 -0.3508,0.2818 -0.429,0.012 -0.4102,-0.3674 -1.4432,-0.2098 -0.3474,-0.1972 -0.3598,-0.0412 -0.4014,0.1528 -0.4518,0.0268 -1.1278,-0.1202 -0.336,0.132 -0.3312,0.0184 -0.9312,-0.181 -0.3004,0.1294 -0.2808,-0.0286 -0.2674,-0.1928 -1.0946,-0.138 -0.2524,-0.1558 -0.253,-0.0458 -0.237,0.1466 -0.2466,0.0386 -0.7262,-0.0442 -0.2674,0.1044 -0.5488,-0.0162 -0.9416,0.2174 -1.2828,-0.002 -1.3994,0.2476 -0.6268,0.1936 -0.541,-0.01 -0.5522,0.1614 -1.1332,0.06 -0.5744,0.1226 -0.2876,-0.0708 -0.5058,0.1074 -1.3742,-0.0226 -0.5096,-0.0914 -0.1912,0.111 -0.2254,0.0178 -0.225,-0.1468 -0.3622,0.0694 -0.6056,-0.0324 -0.2442,0.0472 -0.3582,-0.0952 -0.123,-0.1574 0.092,-0.0724 0.2392,-0.5382 0.3466,-0.4234 1.179,-0.98 0.485,-0.2134 1.3622,-1.3516 2.8872,-2.6114 2.6576,-3.0484 0.6692,-0.4526 0.7148,-0.6914 0.2422,-0.1166 1.257,-0.9548 1.2158,-0.9696 0.4656,-0.4488 0.4358,-0.2474 0.7912,-0.6186 0.4972,-0.636 0.7922,-0.61 0.727,-0.7146 0.1816,0.0264 0.1796,-0.0796 0.5404,-0.4228 0.1522,-0.0184 0.747,-0.4868 0.4786,-0.2022 0.567,-0.1042 0.225,-0.1382 1.4166,-0.2658 0.2026,0.0974 0.2058,-0.0392 0.1946,-0.2238 0.1878,-0.0904 0.8578,-0.1184 0.2574,0.0168 1.3828,-0.2888 2.6918,-0.257 1.2244,0.0508 1.1324,-0.074 0.6232,-0.1106 0.2242,0.196 0.254,0.0344 0.2108,-0.1868 0.5464,-0.058 0.7022,0.0626 0.63,0.1726 0.6338,-0.0306 0.584,0.089 0.4384,-0.007 0.2168,0.2078 0.2404,0.021 0.2406,-0.2338 0.2564,-0.0872 0.7834,-0.0554 1.4868,0.234 0.2314,0.1242 1.0836,-0.005 0.2758,0.1606 0.286,0.0548 0.2864,-0.1134 0.5684,-0.0436 0.9914,0.0888 2.3412,0.6822 0.1836,0.0236 0.1924,-0.2918 0.2202,0.034 0.1388,0.4024 0.347,0.2208 0.1336,-0.0304 0.1534,0.0554 0.1882,0.1842 0.2464,0.0886 1.3792,0.184 1.2096,0.3146 0.1588,-0.137 0.1544,0.0362 0.103,0.243 0.3088,0.2248 0.383,0.1502 0.4274,0.293 0.6474,0.1988 0.4208,0.2066 1.2952,0.2688 0.2476,-0.2504 0.2436,0.07 0.2016,0.3704 0.4432,0.33 0.3944,0.174 0.2046,0.1826 2.6926,1.5824 0.2244,-0.2738 0.249,0.1004 0.2648,0.4886 0.5708,0.3362 0.4472,0.114 0.8346,0.426 0.8188,0.5804 0.77,0.6658 1.6004,1.794 0.3624,0.2056 1.413,1.0616 0.879,1.0594 0.3498,0.2974 0.1934,-0.1306 0.2388,0.1018 0.2452,0.4058 0.3786,0.3476 0.3322,0.1462 0.2902,0.3324 0.6588,0.5144 -0.048,-0.0182 0.001,-0.2054 -0.0356,0.1832 -0.1202,0.097 -0.5908,-0.0492 -0.6736,-0.1498 -0.4116,-0.1962 -1.4066,-0.349 -0.5376,-0.2036 -0.235,0.0686 -0.4754,-0.0526 -0.2248,0.0358 -0.9078,-0.1884 -2.2882,0.0788 -0.638,-0.0434 -1.2392,-0.3294 -0.27,0.052 -1.6042,-0.3636 -0.9222,-0.0368 -0.6288,-0.1606 -0.3036,0.0754 -1.3052,-0.093 -1.4776,-0.007 -2.411,0.2156 -0.3194,-0.1772 -0.332,0.0166 -0.3178,0.2348 -0.6608,0.1648 -0.9756,0.1592 -1.2412,0.0722 -0.3518,0.0978 -1.9176,0.0864 -0.336,-0.1956 -0.3744,-0.004 -0.3346,0.2628 -1.143,0.1626 -0.4892,-0.0554 -1.5704,0.2498 -1.3878,0.0574 -0.3004,-0.009 -0.2462,-0.1612 -0.262,-0.044 -0.275,0.1244 -1.2084,0.037 -0.2962,0.153 -0.3182,0.0376 -0.3126,-0.1124 -0.6184,-0.0394 -0.2436,0.2522 -0.2906,0.029 -0.2552,-0.2592 -1.1132,-0.0928 -0.3246,-0.118 -0.3288,-0.0232 -0.3104,0.1008 -0.5726,0.0434 -0.6092,-0.1546 -0.256,0.1268 -0.8594,-0.0546 -0.3082,-0.0928 -0.2796,0.271 -0.288,-0.013 -0.228,-0.3552 -1.207,-0.193 -0.3184,-0.1156 -0.276,-0.0102 -0.2688,0.091 -0.2978,0.0138 -0.6832,-0.0846 -1.3266,0.0522 -0.6248,-0.0466 -0.261,0.4338 -0.339,-0.017 -0.2608,-0.5234 -0.5892,-0.186 -0.5896,0.007 -0.3216,-0.1844 -0.346,-0.0154 -0.3278,0.1152 -1.3782,-0.0338 -0.962,-0.301 -0.2996,0.1376 -0.3314,-0.014 -0.3222,-0.2046 -0.35,-0.0596 -1.0018,-0.008 -0.3364,-0.0752 -0.3012,0.0278 -0.2806,0.1244 -0.6584,0.0492 -0.282,-0.0466 -0.5356,0.065 -0.6242,-0.0412 -0.3224,-0.0996 -0.1134,-0.0926 -0.1034,-0.5718 -0.0454,-0.1606 -0.0216,0.0816 -0.018,-0.0674 0.005,-0.2646 0.1428,-0.3494 0.2634,-0.164 0.2134,-0.0448 0.2588,-0.1674 0.2744,-0.3154 1.4102,-0.7786 0.807,-0.558 0.415,-0.1784 1.1382,-0.7722 2.3366,-1.2606 2.4254,-1.8126 0.647,-0.1354 0.3558,-0.1532 0.2062,0.0536 0.2302,-0.0296 0.6884,-0.2964 0.259,0.153 0.2756,-0.0556 0.2268,-0.3104 0.2574,-0.1234 0.4466,-0.1406 0.4956,-0.0482 2.015,-0.0306 0.872,0.0672 0.3134,0.362 0.3328,0.0386 0.2996,-0.3626 0.7264,-0.1754 2.2814,-0.0462 1.431,0.0744 1.2348,-0.0106 0.3248,0.2968 0.3878,0.0586 0.3636,-0.2408 1.4384,-0.015 1.936,0.2802 0.514,0.2012 1.1248,0.2568 0.5734,0.2146 0.2624,-0.0196 1.0588,0.2698 0.2242,-0.0346 0.2494,0.0622 0.2478,0.1658 1.1264,0.2708 0.8456,0.0268 1.0114,0.2676 0.957,0.2648 1.7658,0.6592 1.1798,0.2784 0.9452,0.3138 1.024,0.4708 0.5324,0.503 1.1904,0.592 0.2288,0.0606 0.2194,-0.1804 0.2806,0.06 0.3016,0.3074 0.5908,0.1118 0.591,-0.0238 0.2908,0.1332 0.5652,-0.0848 0.4624,0.008 0.174,0.1244 0.4838,0.054 0.0858,0.0416 0.0456,0.1248 -0.026,-0.2042 -0.1132,0.2238 -0.0358,-0.039 -0.59,0.092 -0.6396,0.0136 -0.9856,-0.0772 -0.3198,-0.1886 -0.2982,0.008 -0.2902,0.2452 -0.3786,0.0438 -0.3564,0.0108 -0.3386,-0.1096 -0.3232,-0.0218 -0.3276,0.162 -1.0016,-0.0264 -2.6286,0.2966 -0.385,-0.005 -2.2178,-0.186 -0.2838,0.0494 -0.8984,-0.1808 -1.1944,-0.0522 -1.3194,0.0536 -0.7366,-0.0458 -0.6824,0.0934 -0.9228,0.0116 -1.608,-0.2682 -0.7534,-0.2118 -0.8418,-0.0366 -0.2576,-0.114 -0.2322,-0.018 -0.2278,0.1204 -0.525,0.0622 -0.4676,-0.0734 -1.0794,0.0218 -0.2256,0.0838 -0.2414,-0.0142 -0.2172,-0.1754 -1.1884,-0.1094 -1.0076,0.027 -0.6168,-0.1008 -0.1998,0.222 -0.2206,0.0302 -0.1922,-0.1892 -0.7092,0.0268 -0.3158,-0.0658 -0.13,0.0678 -0.4734,0.0552 -0.9934,-0.175 -0.5292,0.027 -0.3038,-0.1076 -0.559,0.0152 -0.1586,-0.0804 -0.1782,-0.004 -0.3158,0.1086 -0.7758,-0.0384 -0.8888,0.1368 -0.8824,-0.0908 -0.5102,0.0248 -0.4446,-0.084 -0.1338,0.0634 -0.3416,-0.14 -0.8932,-0.1522 -0.4618,0.0794 -2.8788,0.0932 -0.2708,0.1486 -0.2892,-0.011 -0.3058,-0.1598 -0.6612,-0.0882 -0.8246,0.0774 -0.8396,-0.007 -1.0954,0.1798 -0.6594,-0.0382 -0.65,0.167 -1.6068,0.0294 -1.2812,-0.1104 -2.5096,0.0776 -0.3856,-0.0426 -0.3444,0.0164 -0.2864,0.1548 -0.2894,0.015 -0.295,-0.07 -1.6432,-0.006 -0.5054,-0.1144 -0.249,-0.1234 -0.2412,-0.008 -0.381,-0.2348 0.148,-0.4608 0.2824,-0.4808 0.472,-0.4916 0.249,-0.4036 0.2976,-0.3176 1.3842,-1.1292 3.4218,-3.538 0.6054,-0.5042 0.2734,-0.1548 0.1708,-0.443 0.9134,-1.2456 0.4394,-1.3022 0.3162,-0.5932 1.3852,-1.5122 1.0166,-1.4826 0.2086,-0.1544 0.3266,-0.893 1.0328,-1.8952 0.262,-0.3348 0.2254,-0.8344 0.0574,-1.0512 -0.1094,-1.2804 -0.1772,-0.1896 -0.3384,-0.199 -0.484,-0.1084 -0.7808,0.2734 -1.1434,0.5446 -0.41,0.2898 -2.8728,1.5584 -1.4208,0.9862 -2.1394,2.888 -1.0096,1.0216 -0.7468,0.5862 -0.7678,0.4902 -1.878,1.7406 -2.387,2.7334 -0.236,0.4222 -1.3154,1.8658 -1.9742,2.097 -0.7788,1.1718 -0.4728,0.4778 -0.5818,0.9504 -0.5294,1.202 -0.588,1.0628 -0.4458,0.6014 -0.4122,0.397 -0.6202,1.0506 -0.4792,0.6376 -0.1758,0.3884 -0.091,0.4392 0.0144,0.6342 0.0814,0.1976 0.4152,0.671 0.2658,0.1848 0.5294,0.003 0.494,-0.1666 0.6938,-0.3728 1.2056,-0.838 1.8152,-1.0476 0.3384,-0.0836 2.5588,-1.0064 2.6324,-1.5736 0.2638,-0.212 0.578,-0.268 0.0198,0.1318 -0.129,0.1474 -0.088,0.4498 -0.1692,0.352 -1.6042,1.9208 -1.0748,1.125 -1.7988,2.6758 -0.7398,1.4516 -0.56,1.3264 -1.2244,1.7838 -0.614,0.6954 -1.3368,1.2796 -2.4838,2.097 -1.2584,0.9068 -0.6596,0.4004 -1.8388,0.942 -1.5012,0.6608 -2.26,1.310798 -0.58,0.2334 -0.222,0.1948 -0.548,0.2866 -0.572,0.4074 -0.78,0.8012 -0.214,0.1114 -0.188,0.359 -0.086,-0.0488 -0.15,0.0644 -0.062,0.1512 -0.352,0.393 -0.422,0.33 -0.252,0.4714 -0.238,0.1414 -0.056,0.1672 -0.268,0.3244 -0.04,0.1458 0.082,0.0734 0.092,0.6412 0.168,0.2756 0.212,0.1492 1.418,0.085 0.924,-0.0764 0.942,0.2234 1.206,-0.1626 1.038,-0.3236 2.1498,-1.1164 1.096,-0.2868 0.9292,-0.4564 1.0128,-0.3858 1.6052,-0.4522 1.53,-0.3792 2.5716,-0.446 2.345,-0.7518 1.5458,-0.3528 0.7164,-0.1172 1.0576,-0.0196 0.9194,-0.2198 3.5758,-0.5894 1.8834,-0.0108 4.4446,-0.4164 1.0748,-0.0204 2.272,0.004 1.7116,0.1946 2.4298,0.0724 2.8766,-0.223 1.3396,-0.2246 3.5788,-0.1664 3.7556,-0.318398 3.75,-0.222 1.3396,-0.1754 1.3524,-0.038 1.1422,-0.1962 1.261,-0.111 0.6142,-0.327 0.0194,-0.05 -0.358,0.1066 -0.939,-0.128 -0.4646,0.056 -0.4556,0.21 -0.8834,0.1544 -1.87,0.0508 -1.411,-0.2348 -1.7938,-0.3972 -1.707,-0.1452 -1.1092,-0.175 -0.5308,0.1552 -0.5152,-6e-4 -1.8254,-0.3914 -2.352,-1.1658 -1.7044,-1.0648 -1.2278,-0.9636 -1.5168,-0.9826 -2.3712,-1.3976 -1.412,-0.6462 -2.2266,-0.6536 -2.3646,-0.974 -0.7116,-0.6356 -0.5756,-0.7058 -1.2346,-1.7582 -0.2424,-0.5246 -0.062,-0.4926 0.1326,-0.6332 0.1628,-0.3836 0.6516,-0.8274 1.5348,-1.5086 0.6346,-0.5092 2.9006,-2.2388 3.9524,-2.6582 2.1406,-1.6844 2.1272,-1.4206 2.0568,-1.697 3.2466,-2.8968 1.3764,-0.8458 0.8464,-0.3704 0.4642,-0.15 0.7606,-0.0468 2.0836,0.2284 0.2364,0.08 0.426,0.2842 1.9548,0.7766 0.924,0.229 2.1896,0.1946 1.0128,0.1526 2.4538,0.5598 1.055,0.1094 1.7302,0.3102 0.4854,-0.002 0.4564,0.119 0.43,0.2882 1.2386,0.3336 0.3936,0.1736 0.3928,0.3222 0.8296,0.4918 0.9002,0.4434 2.8374,0.8688 0.7126,0.4446 1.5056,0.7678 0.7222,0.531 0.9624,0.5616 0.8526,0.687 1.2286,1.1562 1.6412,1.1452 0.8124,0.422 0.8626,0.6144 0.4332,0.1996 3.133,2.3632 0.7698,0.3854 0.6578,0.5616 0.9124,0.539 0.7138,0.3136 2.911,0.8966 2.2004,0.821 2.8612,1.4138 1.5256,0.5364 1.9748,0.8618 2.5152,1.2298 2.12,0.8904 0.565,0.3124 1.4826,1.2876 0.7408,0.3042 0.8392,0.5068 0.9314,0.2972 2.065,0.8876 0.6608,0.2048 0.3206,-0.0296 0.2968,0.066 0.286,0.2686 0.913,0.3696 1.3352,0.8648 0.5326,0.2332 0.4864,0.3156 0.8096,0.3458 1.0348,0.2892 0.4316,0.1894 0.904,0.4852 0.2466,0.2414 0.1592,0.0298 0.3184,0.3386 0.3856,0.2616 0.358,0.1106 1.074,0.589198 0.6428,0.2204 0.925,0.5302 0.5184,0.4252 0.196,0.01 0.3084,0.201 0.4276,0.168 0.674,0.0974 1.5844,0.713 0.5032,0.285 0.7834,0.0864 0.1282,0.1452 0.1728,0.0306 0.2876,-0.05 0.8332,-0.3704 0.6694,-0.14 0.9748,-0.6314 0.0124,-0.1838 -0.1232,-0.503 -0.3928,-0.809 -0.7592,-0.396598 -0.2562,-0.4378 -0.2984,-0.3046 -0.6874,-0.3802 -0.1472,-0.0214 -0.571,-0.436 -0.3282,-0.1388 -0.4854,-0.4106 -0.9346,-0.4368 -0.8678,-0.218 -0.4554,-0.2686 -0.2136,0.0226 -0.19,-0.1144 -1.4846,-1.1354 -1.2792,-1.1876 -1.0458,-0.6866 -1.133,-1.0244 -0.9412,-0.656 -1.0106,-0.425 -1.0184,-1.113 -0.3648,-0.2116 -0.8282,-0.3022 -0.4872,-0.2958 -0.6538,-0.6674 -0.7476,-0.552 -0.5264,-0.7032 -0.8564,-0.7988 -0.456,-0.3736 -1.0312,-0.5994 -0.7278,-0.7444 -0.886,-0.6082 -0.1652,-0.395 -0.4252,-0.5982 -0.2702,-0.6646 -0.1768,-0.2384 -0.1798,-0.0862 -0.134,-0.1612 -0.2322,-0.5102 -1.0534,-1.3186 -0.1842,-0.3694 -0.3286,-0.4088 -0.5554,-0.4782 -0.2226,-0.2976 -0.5418,-0.2914 -0.1884,-0.3694 -0.4236,-0.416 -0.2366,-0.162 -0.2776,-0.0174 -0.3462,-0.1814 -0.5462,-0.8402 -0.5128,-0.4664 -0.209,-0.379 -0.3758,-0.2416 -0.9298,-1.106 -0.3172,-0.2328 -0.2822,-0.3502"
     id="path1288" />
  <path
     fill="none"
     stroke="#000000"
     stroke-width="1.2"
     stroke-linecap="butt"
     stroke-linejoin="round"
     d="m 57.118018,121.53616 0.394,4.4034 0.03,1.658 -0.138,1.144 0.07,0.072"
     id="path1172" />
  <path
     fill="none"
     stroke="#000000"
     stroke-width="1.2"
     stroke-linecap="butt"
     stroke-linejoin="round"
     d="m 53.406018,122.05476 -0.338,0.6166 0.162,-0.1884 0.208,-0.119 5.56,-2.5182 1.418,-0.451 0.94,-0.1874"
     id="path1176" />
  <path
     fill="none"
     stroke="#000000"
     stroke-width="1.2"
     stroke-linecap="butt"
     stroke-linejoin="round"
     d="m 64.346018,118.96876 -0.264,1.8174 -0.338,3.0946 -0.522,2.7308 -0.114,1.212 0.084,0.314"
     id="path1180" />
  <path
     fill="none"
     stroke="#000000"
     stroke-width="1.2"
     stroke-linecap="butt"
     stroke-linejoin="round"
     d="m 67.846018,126.90156 -0.06,0.554 0.056,-0.416 0.7,-1.8268 0.268,-1.0014 0.238,-1.0664 0.236,-2.7258 0.212,-0.8898 0.096,-0.1828 0.12,-0.025 0.254,0.1746 0.324,0.4452 0.896,2.917 0.526,1.1888 0.258,0.4134 0.56,0.6614 0.176,0.1448 0.334,0.1124 0.178,-0.2536 0.498,-1.3636 0.222,-0.7474 1.022,-4.3872 0.102,-0.348 0.24,-0.323 0.268,0.006 0.154,0.1634 0.252,0.7476 0.23,1.3754 0.204,3.2946 0.002,2.42 0.176,0.368 0.098,0.046 0.372,-0.15 -0.05,-0.164"
     id="path1184" />
  <path
     fill="none"
     stroke="#000000"
     stroke-width="1.2"
     stroke-linecap="butt"
     stroke-linejoin="round"
     d="m 81.248018,119.39296 -0.47,2.3294 -0.252,2.7156 -0.158,1.013 0.01,0.3446 0.136,0.446 0.202,0.164 0.166,0.014"
     id="path1188" />
  <path
     fill="none"
     stroke="#000000"
     stroke-width="1.2"
     stroke-linecap="butt"
     stroke-linejoin="round"
     d="m 80.304018,119.27556 0.504,0.1542 0.778,-0.3146 1.548,-0.464 0.664,-0.2634 0.936,-0.2436 h 0.318"
     id="path1192" />
  <path
     fill="none"
     stroke="#000000"
     stroke-width="1.2"
     stroke-linecap="butt"
     stroke-linejoin="round"
     d="m 80.822018,122.77176 0.216,0.4252 0.348,-0.2614 0.258,-0.0938 0.384,-0.011 0.46,-0.1032 0.522,-0.222 1.03,-0.4702 0.82,-0.532 0.868,-0.0756"
     id="path1196" />
  <path
     fill="none"
     stroke="#000000"
     stroke-width="1.2"
     stroke-linecap="butt"
     stroke-linejoin="round"
     d="m 2.4859978,91.377562 0.06,-0.0938 -0.174,-0.0958 -0.528,-0.0916 -0.124,-0.1014 -0.018,-0.0442 0.066,-2e-4 0.998,0.2226 3.68,0.4232 5.0600002,0.7776 0.662,-0.0172 0.116,-0.1072 0.01,-0.1226 -0.774,-2.8814 -0.15,-0.6346 -0.014,-0.3788"
     id="path1200" />
  <path
     fill="none"
     stroke="#000000"
     stroke-width="1.2"
     stroke-linecap="butt"
     stroke-linejoin="round"
     d="m 2.4359978,82.785962 -0.274,-0.6598 0.398,0.6934 0.36,0.3592 1.042,0.6084 0.642,0.2736 0.696,0.2066 1.568,0.1792 1.676,-0.072 0.706,-0.1214 0.554,-0.1702 0.4520002,-0.1914 0.352,-0.2364 0.23,-0.2846 0.116,-0.269 0.042,-0.3034 -0.034,-0.398 -0.14,-0.381 -0.41,-0.678 -0.7040002,-0.6892 -0.418,-0.312 -0.954,-0.4444 -1.126,-0.4206 -1.254,-0.1628 -0.59,0.0222 -1.044,0.313 -0.908,0.7002 -0.77,0.748 -0.194,0.3646 -0.084,0.67 0.102,0.26"
     id="path1204" />
  <path
     fill="none"
     stroke="#000000"
     stroke-width="1.2"
     stroke-linecap="butt"
     stroke-linejoin="round"
     d="m 2.9979978,76.870762 0.012,0.1156 0.31,0.0876 0.886,-0.0892 2.22,-4e-4 2.716,-0.215 0.732,-0.1144 0.9660002,-0.3058 0.218,-0.2334 0.054,-0.553 -0.022,-0.2926 -0.21,-0.5198 -0.524,-0.5276 -0.3940002,-0.2836 -0.484,-0.2426 -1.256,-0.4776 -2.336,-0.4158 -0.69,-0.0518 -1.644,0.1112 -0.466,0.2528"
     id="path1208" />
  <path
     fill="none"
     stroke="#000000"
     stroke-width="1.2"
     stroke-linecap="butt"
     stroke-linejoin="round"
     d="m 3.1959978,69.800762 0.24,-0.2324 0.66,-0.158 3.436,0.0702 2.118,0.1472 0.6620002,-0.0244 0.25,-0.1276"
     id="path1212" />
  <path
     fill="none"
     stroke="#000000"
     stroke-width="1.2"
     stroke-linecap="butt"
     stroke-linejoin="round"
     d="m 3.3999978,69.087762 -0.46,-0.1678 -0.338,-0.6614 -0.104,-0.3464 -0.1,-0.4016 -0.088,-1.0048 0.098,-0.977 0.166,-0.4798 0.316,-0.475 0.388,-0.4146 0.41,-0.3562 0.506,-0.2778 0.566,-0.1772 0.586,-0.0922 0.562,0.0274 0.586,0.1476 1.198,0.5006 1.228,0.7406 1.5020002,1.3848 0.82,1.2322 0.11,0.218 0.02,0.2588 -0.204,-0.3724"
     id="path1216" />
  <path
     fill="none"
     stroke="#000000"
     stroke-width="1.2"
     stroke-linecap="butt"
     stroke-linejoin="round"
     d="m 10.905998,61.360962 0.534,-0.0656 -0.064,-0.0828 -0.16,0.016 -0.328,-0.1818 -0.318,-0.0842 -4.7980002,-1.0374 -1.346,-0.165 -0.164,-0.069 0.17,-0.003 1.922,-0.6482 2.852,-0.6672 1.4160002,-0.4064 0.47,-0.274 0.048,-0.1132 -0.394,-0.5038 -0.528,-0.3066 -0.4420002,-0.169 -0.57,-0.1064 -1.28,-0.452 -0.708,-0.1792 -4.244,-0.4668 -0.6,-0.1768 -0.012,-0.0842"
     id="path1220" />
  <path
     fill="none"
     stroke="#000000"
     stroke-width="1.2"
     stroke-linecap="butt"
     stroke-linejoin="round"
     d="m 3.4579978,52.100762 3.03,-0.3696 3.47,0.1372 0.3740002,-0.0312 0.182,-0.1256 -0.246,0.1996"
     id="path1224" />
  <path
     fill="none"
     stroke="#000000"
     stroke-width="1.2"
     stroke-linecap="butt"
     stroke-linejoin="round"
     d="m 3.2219978,52.134962 -0.112,-1.1612 -0.32,-1.292 -0.406,-0.6562 -0.4,-0.8158 -0.336,-0.9872"
     id="path1228" />
  <path
     fill="none"
     stroke="#000000"
     stroke-width="1.2"
     stroke-linecap="butt"
     stroke-linejoin="round"
     d="m 7.2019978,51.029762 -0.13,-0.4362 -0.32,-0.399 -0.108,-0.2344 -0.512,-1.7708"
     id="path1232" />
  <path
     fill="none"
     stroke="#000000"
     stroke-width="1.09211"
     stroke-linecap="butt"
     stroke-linejoin="round"
     d="m 10.941998,52.286562 0.39,-0.4072 -0.074,-0.5996 -0.448,-1.4668 -0.9060002,-2.4122 -0.352,-1.5544"
     id="path1236" />
  <path
     fill="none"
     stroke="#000000"
     stroke-width="1.2"
     stroke-linecap="butt"
     stroke-linejoin="round"
     d="m 9.9979978,42.753762 1.0440002,-0.2006 0.01,-0.8238 -0.472,-1.6124 -0.55,-1.2256 -0.4140002,-0.6822 -0.242,-0.1718 -0.804,-0.0398 -0.34,0.1408 -0.746,0.5062 -0.748,0.664 -3.014,3.0546 -0.612,0.445 -0.324,-0.0528 -0.824,-0.5166 -0.624,-0.528 -0.50400003,-0.6226 -0.234,-0.877 0.052,-0.1814 0.40400003,-0.3808"
     id="path1240" />
  <path
     fill="none"
     stroke="#000000"
     stroke-width="1.2"
     stroke-linecap="butt"
     stroke-linejoin="round"
     d="m 9.3119978,34.653562 0.7700002,-0.553 0.23,-0.4014 0.062,-0.393 -0.044,-0.3818 -0.4440002,-1.1674 -0.42,-0.747 -0.47,-0.5168 -0.6,-0.4042 -0.618,-0.1544 -0.298,0.0334 -0.31,0.1758 -0.294,0.2818 -0.772,1.251 -1.006,1.3208 -0.408,0.3628 -0.89,0.612 -0.364,0.1768 -0.266,0.0338 -0.47,-0.185 -0.384,-0.2358 -0.764,-0.7234 -0.282,-0.3784 -0.164,-0.348 -0.078,-0.3672 0.01,-0.3608 0.482,-0.8302"
     id="path1244" />
  <path
     fill="none"
     stroke="#000000"
     stroke-width="1.58178"
     stroke-linecap="butt"
     stroke-linejoin="round"
     d="m 16.615998,96.798762 0.094,-0.5472 -0.148,-1.1394 0.07,-2.455 0.406,-5.4262 0.28802,-18.368 -0.18802,-8.4936 -0.382,-6.566 0.332,-14.2658 -0.112,-2.7552 -0.598,-7.179 -0.122,-2.7822 0.126,-4.0232 0.48,-5.231"
     id="path1248" />
  <path
     fill="none"
     stroke="#000000"
     stroke-width="1.58178"
     stroke-linecap="butt"
     stroke-linejoin="round"
     d="m 13.637998,22.155762 -0.3,-0.2668 -0.44,-0.027 -0.064,0.5172 0.11,0.4186 0.084,0.003 1.088,-1.5916 0.864,-1.9734 1.328,-3.5314 0.26,-0.5634 0.312,-0.457 0.29002,-0.2636 0.222,0.0604 0.266,0.3162 0.774,1.4968 0.72,1.6708 0.694,2.079 0.254,0.4748 0.806,-0.0962"
     id="path1252" />
  <path
     fill="none"
     stroke="#000000"
     stroke-width="1.2"
     stroke-linecap="butt"
     stroke-linejoin="round"
     d="m 80.894018,126.72556 0.93,0.016 1.988,-0.524 1.208,-0.45 1.136,-0.2186"
     id="path1256" />
  <path
     fill="none"
     stroke="#000000"
     stroke-width="1.72276"
     stroke-linecap="butt"
     stroke-linejoin="round"
     d="m 50.276018,133.87556 2.6,0.286 1.806,0.058 1.932,-0.106 7.522,-0.672 9.8,-1.366 10.758,-0.95 9.598,-0.57 2.78,0.038 2.524,0.166"
     id="path1260" />
  <path
     fill="none"
     stroke="#000000"
     stroke-width="1.72276"
     stroke-linecap="butt"
     stroke-linejoin="round"
     d="m 93.690018,125.89956 0.35,0.394 -0.128,-0.034 -0.008,-0.18 -0.034,0.078 0.094,0.018 0.23,0.52 0.678,0.854 0.738,0.634 1.02,0.662 3.244,1.232 0.898002,0.46 2.172,0.13 -0.92,0.958 -1.184,0.942 -1.532002,0.976 -1.338,1.15 -1.354,0.822 -0.266,0.252 0.04,0.048 0.64,-0.048"
     id="path1264" />
  <path
     fill="none"
     stroke="#000000"
     stroke-width="1.2"
     stroke-linecap="butt"
     stroke-linejoin="round"
     d="m 36.712018,0.43896153 -0.22,0.2626 0.084,-0.0212 0.018,-0.0808 0.028,1.39359997 -0.058,3.3016 0.04,4.1548 -0.312,17.8330005 -0.186,6.4762 0.004,5.1978 -0.128,5.7932 -0.044,12.0264 -0.212,16.4422 v 4.0378 l -0.49,25.619598 0.078,5.0582 -0.082,3.5006 0.032,9.674"
     id="path1272" />
  <path
     style="stroke:#2f9ad9;stroke-opacity:1"
     fill="none"
     stroke="#000000"
     stroke-width="1.03928"
     stroke-linecap="butt"
     stroke-linejoin="round"
     d="m 48.886726,107.6382 -0.182484,-0.14442 0.20492,-0.0836 0.403856,0.19517 0.441251,-0.22205 0.267741,-0.26958 0.505569,-0.79633 0.394881,-0.35904 0.185475,-0.0921 0.218382,-0.32856 0.9887,-2.18336 0.544458,-0.8894 0.720958,-1.91056 0.330564,-1.001522 0.863056,-3.700186 0.761344,-4.182994 0.345521,-1.652818 0.255776,-1.713595 0.409839,-3.931861 0.759849,-6.000492 0.358983,-4.241965 0.222869,-2.023498 0.843611,-6.685689 0.119661,-1.357758 0.152568,-3.271737 0.296161,-4.152505 0.04936,-1.591439 -0.003,-2.509916 0.06432,-1.829333 0.454712,-4.103561 0.26475,-5.579464 0.131627,-1.128089 0.306632,-1.73586 0.444242,-4.087515 0.683564,-3.457077 0.07928,-0.743367 0.216886,-0.850279 0.694034,-2.016077 0.212399,-0.865322 0.296161,-0.624621 0.711984,-1.098 0.837627,-0.652302 0.270734,-0.443894 0.152568,-0.150438 0.124148,-10e-4 0.163038,0.101295 0.876518,-0.575076 0.05086,0.02367 -0.05684,0.108315 0.145089,0.154049 0.34253,0.124564 0.05385,0.100091 0.109191,0.485215 0.188466,0.463752 0.195945,0.319932 0.463687,1.643792 0.224364,0.37389 0.07778,0.602757 0.130132,0.552811 0.227356,0.171099 0.197441,0.846467 0.448729,0.968022 0.07479,1.260876 0.417318,1.522237 0.02244,1.578401 0.293169,1.226776 0.732925,4.357301 0.05684,1.013154 0.182483,1.620925 0.38142,2.359678 0.213894,3.151988 0.550441,2.494472 0.200433,2.340422 0.511551,3.53009 0.976734,9.661965 0.09423,1.853001 0.200433,2.135224 0.432275,2.879394 0.24381,2.211045 0.791259,4.366729 0.197441,1.992007 0.752369,4.77532 0.36048,2.652331 0.433771,2.315751 0.287187,1.044043 0.18697,1.188865 0.242314,1.05989 0.64617,1.736863 0.465183,1.756119 0.25428,0.733338 0.599801,1.282739 0.308128,0.974635 0.207911,0.5476 0.194449,0.34881 0.194449,0.80816 0.203424,0.46636 0.619247,0.79632 0.122652,0.38492 0.315607,0.5157 0.164534,0.11434 0.40236,0.46455 0.118166,0.0305 0.173508,0.24211 0.11667,0.0533 0.269237,0.43748 0.128636,0.0977 0.02393,-0.072 0.768823,0.8896 0.177996,0.0682 0.285691,0.35705 0.110686,-0.0311 0.148081,0.0578 0.110687,0.17913 0.124148,0.0132 0.230348,0.15024 0.308127,0.009 0.08975,0.0999 0.07479,-0.01 0.354496,0.21222 0.248297,0.001 0.231843,-0.0722 0.658137,-0.6194"
     id="path1276" />
  <path
     style="stroke:#2f9ad9;stroke-opacity:1"
     fill="none"
     stroke="#000000"
     stroke-width="1.2"
     stroke-linecap="butt"
     stroke-linejoin="round"
     d="m 87.286018,107.02836 -0.184,-0.1518 0.232,0.0218 0.318,-0.086 0.536,-0.3288 0.962,-0.8786 0.978,-1.1262 1.4,-3.2878 0.608,-1.208998 0.482,-0.7866 0.78,-1.7848 0.638002,-2.0244 0.1,-0.5034 0.288,-2.2118 0.234,-4.608 0.334,-2.21 0.264,-0.9926 1.184,-5.7732 0.816,-3.3714 0.33,-1.0694 1.114,-2.6094 0.416,-1.2286 0.562,-0.965 0.798,-0.78 0.29,-0.1316 0.312,-0.0384 0.318,0.2114 0.176,0.2424 0.71,1.472 0.296,0.8156 0.522,1.133 0.196,0.7636 0.09,0.91 0.178,0.9522 0.5,0.8986 0.182,0.4814 1.022,3.4224 1.184,2.3718 0.414,1.299 0.906,1.5848 0.73,0.4988 1.074,0.49 0.802,0.8236 0.154,0.05 0.146,-0.077 0.314,-0.0326 0.458,-0.256 0.812,-0.9604 0.322,-0.2464 0.548,-0.9956 0.294,-0.3876 0.346,0.007 0.16,-0.0924 0.228,-0.0276 0.628,0.2758 0.784,0.8124 0.632,1.028 0.6,1.5118 0.482,1.4912 0.438,1.0274 0.348,1.3094 0.236,1.5938 0.334,1.107 0.444,1.065 0.182,0.841 0.182,1.5406 0.218,0.755 0.202,1.064 0.456,0.919398 0.484,1.393 0.334,0.5306 0.008,0.1588 0.1,0.1122 0.376,0.9122 0.056,-0.006 0.058,0.2166 0.25,0.4326 0.11,4e-4 0.228,0.23 0.028,-0.0498 0.342,0.5664 0.2,0.0284 0.078,0.122 0.986,0.4028 0.074,0.0998 0.65,0.255 0.332,0.0652 0.774,-0.0134 0.194,0.0754 0.078,-0.0618 0.504,-0.0418 0.758,-0.3816 0.524,-0.3902 0.542,-0.233 0.556,-0.4774 0.846,-0.9906 0.542,-0.5324 0.132,-0.0306 0.256,-0.2582 2.016,-2.840998 2.35,-4.6636 0.98,-1.6916 0.884,-2.1332 0.58,-2.561 0.738,-2.1676 2.19,-4.342 1.074,-1.7318 0.822,-1.1298 0.51,-0.9034 0.81,-2.5792 0.286,-0.5834 1.174,-1.833 2.2438,-3.051 1.6222,-3.3826 0.7514,-1.1782 0.8676,-0.8458 2.0026,-2.475 2.645,-3.5574 0.4828,-0.8984 0.9642,-0.9924 0.8792,-0.7718 2.3334,-1.497 0.6034,-0.499 0.292,-0.4772 0.197,-0.1066 0.4688,-0.5176 1.2168,-0.9284 1.7866,-0.9602 1.1894,-0.7362 4.2758,-2.0244 0.4848,-0.1696 0.4644,-0.0336 1.613,-0.7176 1.8088,-0.5806 3.0984,-0.547 2.37,-0.5058 1.153,-0.1028 3.3724,-0.7124 3.3014,-0.2824 1.2802,0.005 1.8138,0.1214 1.1074,0.1756 0.5524,-0.022 1.2056,0.089 1.0738,0.1732 3.0954,0.335 0.569,0.103 0.5676,0.1962 2.2782,0.443 3.6786,0.855 2.8642,1.1642 2.2428,0.6936 0.5134,0.2682 1.9394,0.7768 4.1296,2.3728 0.8484,0.6496 0.8376,0.499 2.359,1.5898 2.0394,1.0198 1.458,0.9706 0.9956,0.482 1.8192,1.3518 1.0444,0.616 0.8806,0.6132 2.4006,1.3918 1.9212,1.3592 2.5334,2.0112 2.6108,2.5094 2.4064,1.6802 2.1268,1.6334 1.3302,1.4348 1.0416,1.4374 0.3324,0.3276 0.697,0.565 1.8924,1.2858 1.6968,1.3854 0.3392,0.3042 0.6304,0.8686 1.4526,1.4706 0.6864,0.4996 1.9322,1.1828 0.9032,0.781 0.4534,0.6506 0.7654,0.7992 1.201,0.9594 0.9154,0.832 0.2814,0.1448 0.6412,0.5634 2.0012,1.4132 1.204,1.5776 1.6844,1.9528 0.2932,0.3006 1.5788,1.1938 1.5318,1.4016 0.917,1.1994 1.754,1.311 1.0088,0.5276 1.0588,0.7918 0.6164,0.29 0.277,0.3156 0.3016,0.224 2.2448,1.364998 0.5202,0.413 1.4206,0.8902 0.6314,0.1744 0.2862,0.264 0.5996,0.2414 1.5754,0.9174 0.8388,0.38 0.5888,0.1594 2.3334,1.507 1.1378,0.4318 1.6444,0.4354 1.7584,0.851 1.9528,0.536 0.7886,0.3436 0.5076,0.085 0.2552,0.2394 0.285,0.098 0.2692,-0.0372 1.3124,0.1754 0.7178,0.1594 0.8816,0.3446 0.2698,-0.0746 0.2474,0.0786 0.26,0.2 1.1956,0.1742 0.5652,0.199 0.5062,0.009 1.2056,0.1896 0.7772,-0.0526 0.9608,-0.2164 0.4762,-0.1768 0.4736,-0.112 0.4602,-0.028 1.3192,-0.3418 0.46,-0.0602 1.5472,0.0198"
     id="path1284" />
  <path
     fill="none"
     stroke="#000000"
     stroke-width="1.2"
     stroke-linecap="butt"
     stroke-linejoin="round"
     d="m 4.5679978,107.41736 0.024,-0.0604 0.184,-0.0166 4.414,0.0608 2.3920002,-0.0608 4.902,0.1794 4.85002,-0.008 10.66,0.224 2.56,-0.0664 4.44,0.132 9.346,-0.0346 1.562,0.0656 8.194,0.0886 3.28,-0.082 3.71,0.1578 9.15,0.091 3.752,-0.0786 3.764,0.003 7.612,0.1256 3.69,-0.1504 3.83,0.0886 17.674002,0.0684 6.066,-0.1074 10.212,0.1796 6.064,-0.0378 5.48,0.098 18.365,0.0558 5.471,0.1156 5.7968,-0.0408 7.5992,0.101 6.3678,-0.0688 10.5586,0.1082 1.8492,-0.044 3.8432,0.1448 3.6264,-0.0516 3.5498,0.119 3.502,-0.0592 12.7774,0.162 3.53,-0.0398 5.5582,0.1812 3.7144,-0.062 6.9888,0.1094 5.1162,-0.0338 10.6594,0.1482 3.4714,-0.1046 7.2178,0.1596 6.8942,-0.0656 5.1922,0.1788 2.9084,-0.0524 3.1068,0.1626 7.4172,-0.055 10.2628,0.1848 3.4808,-0.0628 3.2338,0.1118 3.5396,-0.083 2.6964,0.1214 5.3664,0.0114 0.8976,0.0846 1.4308,-0.044 2.9166,0.1004 3.59598,-0.0146 0.438,-0.0648 1.47408,0.097 1.49032,-0.0458 -0.11606,-0.0346 0.24688,-0.0442 0.0327,-0.5116"
     id="path1268" />
</svg>
