<?xml version="1.0" encoding="UTF-8" standalone="no"?>
<svg
   xmlns:dc="http://purl.org/dc/elements/1.1/"
   xmlns:cc="http://creativecommons.org/ns#"
   xmlns:rdf="http://www.w3.org/1999/02/22-rdf-syntax-ns#"
   xmlns:svg="http://www.w3.org/2000/svg"
   xmlns="http://www.w3.org/2000/svg"
   xmlns:sodipodi="http://sodipodi.sourceforge.net/DTD/sodipodi-0.dtd"
   xmlns:inkscape="http://www.inkscape.org/namespaces/inkscape"
   inkscape:version="1.0 (4035a4f, 2020-05-01)"
   sodipodi:docname="reverb - page 14.svg"
   id="svg2248"
   version="1.2"
   viewBox="0 0 255.84776 50.404797"
   height="50.404797"
   width="255.84776">
  <metadata
     id="metadata2254">
    <rdf:RDF>
      <cc:Work
         rdf:about="">
        <dc:format>image/svg+xml</dc:format>
        <dc:type
           rdf:resource="http://purl.org/dc/dcmitype/StillImage" />
      </cc:Work>
    </rdf:RDF>
  </metadata>
  <defs
     id="defs2252" />
  <sodipodi:namedview
     inkscape:current-layer="svg2248"
     inkscape:window-maximized="0"
     inkscape:window-y="293"
     inkscape:window-x="0"
     inkscape:cy="6.9595939"
     inkscape:cx="125.6538"
     inkscape:zoom="2.6262954"
     showgrid="false"
     id="namedview2250"
     inkscape:window-height="874"
     inkscape:window-width="1440"
     inkscape:pageshadow="2"
     inkscape:pageopacity="0"
     guidetolerance="10"
     gridtolerance="10"
     objecttolerance="10"
     borderopacity="1"
     bordercolor="#666666"
     pagecolor="#ffffff" />
  <title
     id="title2092">reverb</title>
  <path
     style="opacity:1;stroke:#fe9999;stroke-opacity:1"
     fill="none"
     stroke="#fff3a8"
     stroke-width="6"
     stroke-linecap="butt"
     stroke-linejoin="round"
     opacity="0.250004"
     d="m 10.681999,9.9513998 -0.062,-0.0492 0.092,0.0264 -0.01,-0.0734 0.024,0.0958 0.014,-0.07 0.496,0.1348002 0.328,-0.0268 0.42,0.0722 0.236,-0.0696 0.222,0.0584 0.798,-0.0438 1.424,-0.1774002 1.986,0.0698 1.798,-0.2114 1.26,-0.2936 1.656,0.1906 2.32,-0.2364 1.262,0.0754 3.046,-0.6756 0.382,0.0332 2.05,-0.1502 0.44,-0.042 0.474,-0.1572 1.536,0.1088 0.61,-0.1246 0.728,-0.3326 0.046,0.0944 0.69,-0.2054 0.502,-0.0308 1.582,-0.2778 0.936,-0.0296 0.296,0.082 4.346,-0.155 0.738,0.0998 2.04,-0.002 1.936,-0.3046 0.494,0.1018 0.242,-0.0728 0.814,0.051 3.842,-0.2548 2.51,0.1664 1.884,-0.0338 0.836,-0.1416 1.274,-0.097 0.872,-0.206 1.1,-0.0626 0.674,-0.1222 0.326,0.0966 0.308,-0.0404 0.298,-0.1846 2.41,-0.2924 0.434,0.0118 1.872,-0.2178 0.46,0.0556 1.234,-0.241 0.344,-0.016 0.278,0.1898 0.248,-0.009 0.268,-0.1586 1.174,-0.1272 0.292,-0.1654 0.338,-0.0264 0.378,0.144 0.394,0.014 3.396,-0.3606 0.332,0.0744 0.55,-0.0534 0.914,0.039 0.702,-0.0896 2.454,0.0464 2.266,-0.1106 1.234,-0.1696 1.028,-0.0158 0.316,-0.2238 0.318,-0.033 0.35397,0.2256 2.008,0.005 0.41,-0.0468 0.394,-0.1398 0.964,-0.1308 0.488,0.119 0.514,-0.0564 0.514,-0.23 0.948,-0.144 2.572,-0.1674 2.16,-0.221 1.432,-0.085 0.876001,0.0402 0.408,-0.144 1.908,-0.1266 1.412,0.0328 2.232,-0.1268 0.378,0.1114 0.376,-0.006 0.378,-0.1918 1.316,-0.1218 0.618,-0.2014 0.336,0.0986 0.716,0.0278 1.258,-0.009 0.97,-0.1268 0.314,0.1056 0.34,-0.0476 0.306,-0.1552 1.54,-0.1066 0.314,0.005 1.474,0.301 1.56,0.045 0.588,0.076 0.276,-0.0484 1.1338,0.048 0.2712,-0.0422 1.21,0.2058 0.9038,-0.0168 1.6354,0.1386 1.0856,-0.0168 0.6886,0.0402 0.6598,0.1354 0.557,-0.1056 0.8412,0.0788 0.6378,0.1384 1.805,-0.039 2.8822,0.0542 0.9272,-0.0532 1.9462,0.1494 1.0532,10e-4 1.694,0.2254 2.2416,0.006 0.726,0.141 3.5032,0.3088 0.8586,-0.0456 1.2306,0.0544 1.9072,-0.1404 2.9314,0.0168 1.0214,-0.0704 4.6172,0.1528 0.986,-0.075 1.0522,0.0822 1.5276,-0.0908 0.9928,0.069 3.3098,-0.1642 1.342,0.0442 0.9892,-0.1378 1.7176,-0.0648 1.7376,-0.289 3.9994,-0.2684 0.7936,0.0826 2.2462,0.0434 3.2782,0.2382 2.0558,0.065 3.3354,-0.0838 2.1052,0.0802 0.8306,0.1358 0.7098,0.037 1.3188,-0.1138 2.5004,-0.021 1.2948,-0.0882 1.9384,-0.003 1.5118,0.139 2.6354,0.0574 1.6818,-0.0242 0.759,-0.1518 3.924,0.1904 1.1796,-0.0718 1.703,0.0244 2.4198,-0.1564 0.759,0.0492 3.0058,-0.018 4.338,0.1588 0.6542,-0.0494 2.2906,0.1292 2.7564,0.251 2.5176,0.0936 2.7206,0.3848 3.435,0.053 0.243,0.1368 1.2464,0.2184 0.3638,0.152 0.4288,0.0742 2.123,0.1524 2.1618,0.3952 4.7774,1.3676 1.5374,0.7786 1.2774,0.3718 0.5152,0.3862 0.0302,0.1892 0.1962,0.181 0.095,0.2148 0.505,0.6778002 0.0454,1.3906 0.5416,1.4128 -0.0318,1.1192 0.096,0.6558 0.2898,0.887 -0.2532,0.9106 -0.1418,1.0576 0.1466,1.2026 -0.2806,1.4002 0.1946,1.6536 -0.167,0.6522 -0.0556,0.529 -0.0442,1.4886 0.0532,0.8202 -0.1578,1.189 -0.1292,0.2628 -0.0926,0.5864 0.0398,1.5184 0.0634,0.4408 -0.303,0.5324 -0.1552,0.479 -0.057,1.0596 -0.11,0.6986 -0.3532,1.2758 -0.0848,0.6698 -0.3784,1.2264 -0.081,1.0004 -0.7952,1.9576 -0.4742,1.84 -0.2836,0.6684 -0.4696,0.8088 -0.0304,0.1814 -1.0074,1.4142 -0.5622,1.0402 -0.6544,0.839 -0.238,0.1524 -1.3412,0.4406 -0.329,0.2572 -0.76,0.3906 -1.7788,0.4844 -3.2294,0.2254 -1.4682,-0.0362 -1.7302,-0.1742 -0.6894,0.1352 -0.9408,0.0838 -2.172,-0.2476 -2.0922,-0.0544 -2.066,-0.3278 -0.8004,-0.0824 -1.0546,-0.0104 -0.534,-0.1246 -1.4198,-0.1058 -0.371,-0.1476 -0.1962,0.0698 -1.9996,0.0386 -1.9526,-0.0318 -0.5554,0.0496 -0.4522,-0.0496 -0.4406,0.11 -2.1872,0.085 -2.0562,-0.1668 -3.141,-0.1394 -0.252,-0.0594 -1.2672,0.0342 -5.145,-0.2472 -0.586,0.008 -0.8816,0.1462 -0.9414,-0.0872 -1.0988,0.0116 -2.2644,-0.2694 -1.7318,0.0318 -1.5036,-0.1162 -0.7446,0.0126 -1.7584,-0.124 -1.4582,-0.1784 -0.74,0.017 -2.2232,-0.2148 -0.9334,-0.007 -1.0978,-0.1908 -1.1224,-0.1106 -1.6722,-0.01 -0.5434,0.0582 -1.2272,-0.083 -0.9696,-0.218 -1.2228,-0.1684 -1.3868,-0.0834 -1.2674,-0.2138 -0.687,0.0268 -0.4736,-0.098 -0.835,-0.033 -1.2864,-0.2972 -0.6646,-0.0452 -1.7446,-0.3136 -1.4218,-0.145 -0.3348,-0.0658 -0.2696,-0.1616 -0.5046,-0.071 -1.3138,-0.3484 -0.7772,0.1154 -0.5778,-0.1072 -0.6358,0.0472 -0.266,-0.0424 -0.783,0.0874 -0.1776,-0.0872 -0.1994,0.009 -0.1882,0.1292 -0.1994,0.0384 -1.9198,0.1204 -1.1574,-0.083 -0.2594,-0.1222 -0.3016,-0.009 -0.2894,0.1178 -0.5694,0.009 -0.2664,0.0678 -1.9792,0.031 -0.9246,-0.0972 -0.5,-0.184 -0.2026,0.1152 -0.1872,0.007 -0.596,-0.0688 -1.6736,0.0952 -2.6212,-0.0768 -0.2068,0.0218 -0.1982,0.156 -0.9964,0.013 -0.2536,0.1432 -0.268,0.0304 -0.2556,-0.073 -0.7944,-0.046 -1.74,0.1002 -1.095,-0.0592 -0.3044,0.2184 -0.3122,0.0262 -0.2386,-0.2168 -1.2624,-0.1016 -0.5146,0.1238 -0.527,0.0404 -1.7734,-0.0336 -0.3076,0.2732 -0.3472,0.009 -0.2518,-0.324 -0.2358,-0.093 -1.002,-0.1132 -1.5892,0.182 -0.8664,-0.0564 -0.1966,0.2716 -0.261,0.0326 -0.2132,-0.2778 -1.3914,-0.1746 -1.4844,0.0114 -0.9926,0.0906 -0.2582,0.1694 -0.2656,0.059 -0.211,-0.137 -0.9892,-0.0194 -1.5746,-0.2042 -1.7186,0.0464 -0.1356,-0.0668 -0.7458,-0.0506 -0.1986,-0.0808 -0.4088,0.0948 -0.5482,0.0234 -1.0468,-0.1952 -0.1802,0.0478 -1.1128,-0.0946 -0.1794,-0.0852 -0.8054,0.0648 -0.544,-0.0456 -1.076,-0.2154 -1.242,0.033 -0.328,-0.0676 -0.134,0.1068 -0.526,0.0696 -0.202,0.1222 -0.136,-0.0924 -0.156,-0.002 -0.304,0.096 -1.03,0.0586 -0.174,-0.2272 -0.202,-0.0318 -0.172,0.267 -0.182,0.0694 -2.35,0.241 -0.772,-0.0336 -0.54,0.0696 -0.63,-0.0776 -1.268,0.073 -1.312,0.1886 -1.174,-0.0212 -0.762,0.0898 -0.138,-0.0648 -0.796,0.0392 -1.182,-0.1154 -3.582001,0.3852 -1.598,0.028 -2.034,0.2872 -1.452,0.0208 -1.644,-0.0708 -1.534,0.0536 -1.378,0.1672 -2.15197,-0.1634 -0.596,-0.1036 -2.652,-0.0684 -1.07,-0.1782 -0.538,0.0892 -2.812,0.0238 -0.584,0.1072 -1.104,-0.0634 -0.296,0.1736 -0.306,0.0192 -0.268,-0.1546 -0.592,-0.014 -2.212,0.1206 -1.654,0.149 -0.28,0.1282 -0.252,0.0276 -0.254,-0.1142 -0.246,-0.026 -1.81,0.0564 -1.248,-0.0962 -0.542,0.0124 -0.594,0.1046 -0.314,-0.062 -1.094,0.0476 -1.768,-0.0368 -0.496,0.0544 -0.92,-0.141 -0.854,0.0612 -2.728,-0.0818 -3.938,0.1856 -0.896,-0.0396 -0.898,0.1392 -1.124,-6e-4 -0.376,0.0628 -1.468,-0.0834 -0.77,-0.114 -2.276,0.1618 -0.754,-0.0856 -3.656,0.0942 -0.976,-0.08 -0.488,0.0946 -1.206,0.0456 -0.514,0.1282 -1.28,0.083 -0.372,-0.0536 -0.36,0.067 -1.478,0.0138 -1.018,0.1234 -0.998,-0.1144 -0.27,0.0788 -0.252,-0.086 -1.152,-0.0264 -0.308,-0.0812 -0.434,0.0286 -1.208,-0.1356 -0.58,-0.1384 -0.348,-0.002 -0.57,-0.1932 -0.312,0.0456 -0.8,-0.1272 -1.722,0.0134 -0.31,-0.1352 -0.476,-0.0554 -0.23,-0.1024 -1.066,-0.1006 -0.312,-0.1562 -2.188,-0.428 -0.378,-0.0258 -1.302,-0.3148 -0.682,-0.2336 -1.134,-0.191 -0.994,-0.5604 -2.15,-0.687 -0.544,-0.43 -0.676,-0.6706 -1.65,-1.2424 -2.4939996,-1.212 -0.596,-0.52 -1.268,-1.6276 -1.068,-0.959 -0.15,-0.3898 -0.794,-1.1734 -0.324,-1.0244 -0.594,-0.832 -0.392,-0.9726 -0.354,-1.1706 -0.414,-2.7586 -0.01,-0.7286 0.312,-1.1074 0.26,-1.3514 0.164,-0.2456 0.27,-0.741 0.344,-0.6826 0.106,-0.5322 0.068,-1.3446 0.132,-0.432 0.586,-1.01 0.548,-1.338 0.89,-0.9092 1.014,-0.3946 0.506,-0.078 0.124,-0.0996 0.362,-0.0558 1.7319996,0.1464 1.28,-0.19 0.91,-0.2256 0.708,-0.083 0.608,0.006 0.768,-0.2226 0.798,-0.0924 1.328,0.008 0.424,0.1338 2.368,-0.4376 0.516,-0.0514 0.424,0.0992 0.234,-0.113 0.89,-0.1248 1.258,-0.3278 0.4,-0.002 0.51,-0.0976 0.644,-0.2432 1.384,-0.1592 1.584,-0.376 2.348,-0.001 1.88,-0.183 2.266,0.0768 1.844,-0.0506 2.392,-0.241 0.876,0.0338 1.628,-0.24 0.508,0.0678 0.31,-0.0726 0.782,-0.008 0.646,-0.0948 1.264,-8e-4 0.61,-0.0626 2.446,0.0464 0.7,0.1088 1.602,0.1108 1.462,10e-4 2.76,0.154 0.562,-0.0332 0.284,0.1084 1.318,-0.0298 0.328,0.1248 0.312,0.0102 0.272,-0.1352 2.986,-0.1268 0.942,-0.1882 0.268,0.2608 0.324,0.0246 0.264,-0.3304 0.546,-0.1504 0.576,0.0276 0.278,-0.0466 0.568,0.0744 0.95,-0.0874 2.718,0.1104 0.406,-0.1116 1.324,-0.1574 0.42,-0.0398 0.386,0.0528 1.108,-0.1158 1.032,0.005 0.726,0.1336 1.536,0.0676 2.402,-0.2544 0.768,-0.2118 0.358,0.0314 1.21,-0.1096 0.482,-0.135 0.474,-0.003 2.016,-0.3656 2.142,-0.2142 0.334,-0.1424 0.334,-0.0456 0.29,0.1212 0.282,0.009 1.19,-0.1358 1.77397,-0.0288 1.034,-0.1578002 4.262,-0.1338 0.906,0.0326 0.442,-0.108 2.918,-0.2266 0.85,0.0192 0.846,-0.098 1.474001,-0.007 6.186,-0.6576 1.302,-0.1798 0.314,-0.1642 0.342,-0.045 0.774,0.091 2.938,-0.2598 0.552,0.0374 0.238,-0.1026 1.078,-0.0524 0.292,-0.1408 0.304,-0.0498 0.274,0.137 0.29,0.029 0.996,-0.01 1.906,-0.0626 0.692,-0.1066 0.7278,0.0642 0.238,-0.141 0.2806,0.009 0.2736,0.2422 0.3318,0.1026 1.1074,0.13 2.139,0.006 2.1012,0.1792 0.3332,-0.1798 0.3144,-0.004 0.28,0.2124 1.3786,0.2272 1.2168,-0.0322 0.6582,0.083 0.2956,-0.0454 1.3806,0.099 0.3562,-0.1272 0.349,0.0282 0.2736,0.1996 0.2468,0.0658 2.5936,0.1942 1.4838,-0.022 0.2334,-0.1584 0.2138,0.028 0.1342,0.2228 0.195,0.1136 0.3052,-0.0178 0.874,0.1102 1.8036,-0.0746 1.0452,-0.1248 1.2622,0.123 4.8312,0.1266 0.3294,0.087 1.3406,-0.061 2.3778,0.1632 0.526,-0.0824 0.2926,0.105 1.4638,0.027 1.4302,0.1198 0.8846,-0.092 1.108,-0.037 0.5826,0.0582 0.959,-0.1154 0.5976,0.0298 1.6218,-0.2138 1.1638,-0.0736 1.345,0.0308 0.91,0.1974 0.984,-0.0458 3.117,0.2264 0.8566,-0.009 0.7558,0.1722 1.1492,-0.0294 0.6706,-0.1178 1.914,-0.0134 1.2966,-0.1004 0.6586,0.008 0.372,0.116 0.3792,0.0166 0.3814,-0.1286 1.4748,0.0236 1.1712,-0.2358 1.9138,-0.1374 2.629,0.023 0.5958,-0.0968 0.5642,0.1232 3.701,-0.165 1.8822,0.143 0.6664,-0.0374 0.7176,0.1762 1.1688,-0.0946 1.8202,-0.0166 3.634,0.2492 2.6366,-0.0272 0.6348,-0.0436 0.5132,-0.115 0.5318,0.0866 0.7562,-0.0266 0.2434,0.0654 1.467,0.0538 2.1848,0.002 1.1798,-0.0456 0.1078,-0.0984 0.4298,-0.0382 0.1158,-0.0892 0.7868,0.0934 0.2266,-0.0856 1.0958,-0.0284 2.25,0.0306 0.9484,0.0878 2.7218,-0.1428 0.2582,0.072 1.1538,0.1002 0.4368,0.1508 1.013,0.1702 1.4814,-0.0246 0.2998,0.0628 1.1596,0.005 0.4394,0.1138 0.4722,-0.0334 1.9072,0.3760002 1.531,0.1326 0.8644,-0.005 1.727,0.295 0.659,0.006 0.4998,0.083 0.5304,0.1768 0.2238,-0.0936 0.8858,0.1792 1.0696,0.0706 1.4352,-0.0208 0.9992,0.095 1.8536,0.3036 0.1768,-0.0946 0.879,-0.0978 0.5706,0.0636 1.6918,-0.062 0.1968,0.0744 0.3612,-0.059 0.6944,0.0346 0.3234,0.0672 0.1988,0.2354 0.2156,0.004 0.338,0.142 0.6484,0.4188 0.8446,0.4366 0.5222,1.064 0.5478,0.7644 0.204,0.4134 0.1766,0.9554 0.007,0.432 -0.1304,0.6574 0.049,0.5166 0.153,0.641 -0.0148,0.4794 -0.4024,2.2932 -0.0458,0.5708 0.1042,1.3122 -0.1268,0.9006 0.1384,1.0394 -0.1174,1.0476 0.044,1.1684 -0.0988,0.7182 0.0248,1.3884 -0.1468,0.653 -0.2304,0.5604 -0.2004,1.411 -0.718,2.067 -0.1424,1.325 -0.1292,0.6174 -0.2814,0.7742 -0.0816,0.4626 -0.819,0.9346 -0.1866,0.6014 -0.481,0.8812 -0.8544,0.9086 -0.8244,0.4746 -0.9112,0.2758 -0.206,0.1584 -0.487,0.155 -0.5266,0.4592 -0.1428,0.0256 -0.287,0.2516 -0.5344,0.2698 -0.7618,0.1772 -0.5612,-0.0196 -0.3144,0.0648 -0.3478,-0.0498 -0.4926,0.1204 -0.2898,0.2114 -0.7116,0.2394 -0.954,0.013 -1.2456,-0.1062 -1.2934,-0.213 -2.2966,-0.0204 -0.8108,-0.1204 -1.496,0.0908 -1.0742,-0.0526 -0.228,0.0664 -1.44,-0.0882 -1.2438,-0.162 -0.5802,-0.006 -0.6086,-0.174 -1.4512,-0.0274 -3.6734,-0.4888 -3.7596,-0.276 -1.7388,-0.2042 -2.35,-0.1428 -4.9776,0.0422 -3.7856,-0.2464 -0.3616,0.0694 -1.5522,0.0174 -3.8572,-0.2856 -2.2872,-0.0136 -1.737,-0.1724 -3.2852,0.0912 -2.856,-0.2612 -1.7364,-0.0392 -0.9576,-0.1022 -0.6182,0.072 -1.4144,0.005 -1.365,-0.1612 -1.4508,-0.071 -2.0104,0.083 -2.8484,-0.0418 -0.2448,0.0654 -0.2252,-0.013 -0.5358,-0.1854 -1.0248,-0.0558 -1.1842,0.0704 -0.5424,-0.0282 -2.1822,-0.3082 -1.3882,0.0426 -0.2068,0.1086 -0.2114,0.0104 -0.6746,-0.0496 -0.2054,0.0842 -0.833,-0.1252 -2.6136,-0.1054 -0.6036,-0.1548 -1.0812,0.044 -0.719,-0.1268 -1.0844,0.0634 -1.0076,-0.0658 -0.4882,-0.136 -0.2394,0.0894 -0.9848,0.098 -2.5598,0.084 -0.8506,-0.095 -1.0952,0.0596 -0.7578,-0.0934 -0.2116,-0.1694 -0.2658,-0.015 -0.279,0.1814 -0.291,0.0362 -1.1842,-0.1326 -2.3598,0.2548 -2.666,-0.1622 -1.0928,0.002 -0.5514,0.0682 -1.805,-0.0114 -0.306,-0.1314 -0.2944,-0.0358 -0.5994,0.1076 -1.971,-0.0484 -0.6302,0.1424 -1.144,-0.149 -0.5254,0.0418 -0.7672,-0.0676 -0.5888,0.099 -1.4024,0.0598 -0.9314,-0.0648 -0.945,0.0252 -1.155,-0.1034 -0.3966,0.0486 -0.5362,-0.0788 -0.3792,0.0476 -1.96,-0.1892 -1.4682,0.1824 -0.6984,-0.0722 -0.194,0.0866 -1.9122,-0.3048 -0.469,0.0904 -0.29,-0.0618 -0.978,0.0234 -1.16,-0.1364 -0.398,-0.1252 -0.524,-0.0378 -0.218,0.054 -0.516,-0.0704 -2.026,-0.0538 -1.184,-0.1264 -0.788,-0.0128 -0.516,-0.124 -1.168,0.003 -1.384,-0.1492 -2.754,0.1334 -0.876,0.1252 -0.754,-0.0938 -0.81,0.0588 -0.294,-0.1296 -0.32,-0.0142 -0.294,0.1342 -0.522,0.0514 -1.25,-0.005 -0.604001,0.065 -0.912,-0.0366 -0.148,-0.1834 -0.188,-0.0196 -0.18,0.193 -2.266,0.2456 -0.526,0.1456 -1.32,0.0448 -0.214,-0.2338 -0.198,-0.0302 -0.162,0.2876 -0.218,0.074 -0.698,-0.0222 -0.242,0.0726 -1.37,0.0954 -1.644,-0.025 -0.48,0.1066 -0.826,-0.0282 -0.53,0.064 -0.246,-0.0686 -1.37597,-0.008 -0.854,0.0802 -2.098,0.0408 -1.378,-0.0976 -0.842,0.1146 -0.502,-0.1172 -1.55,-0.0896 -0.832,0.0456 -0.6,-0.1152 -1.296,-0.0722 -0.274,0.0936 -0.274,-0.006 -0.286,-0.1466 -1.14,-0.1046 -0.962,0.0132 -1.508,-0.0928 -0.308,0.0716 -0.32,-0.01 -3.284,-0.361 -2.722,-0.0696 -0.514,0.0786 -1.242,-0.0126 -2.21,0.1892 -0.492,0.1026 -0.498,-0.0112 -1.152,0.196 -0.684,-0.002 -0.628,0.2148 -0.738,-0.009 -2.082,0.2296 -0.97,2e-4 -0.946,0.1854 -2.964,0.1654 -0.488,-0.0792 -1.066,0.1412 -1.174,0.0276 -1.338,0.1186 -0.616,-0.015 -2.448,0.3476 -2.26,0.0708 -1.758,0.1912 -2.102,0.0758 -0.522,0.1316 -0.576,-0.1354 -0.546,-0.0482 -0.416,-0.005 -0.354,0.1236 -0.454,-0.0584 -0.86,0.0316 -0.304,-0.0498 -0.13,0.0468 -0.286,-0.1554 -0.53,-0.0582 -0.934,-0.244 -1.744,0.0702 -1.244,-0.1606 -1.722,-0.1072 -0.464,-0.1214 -1.22,-0.4978 -1.57,-0.334 -0.706,-0.0612 -0.966,-0.345 -0.372,-0.072 -1.66,-0.6302 -1.038,-0.5872 -0.664,-0.1968 -0.284,-0.1624 -0.292,-0.0198 -0.544,-0.5098 -0.392,-0.2982 -0.214,-0.0514 -0.154,-0.1824 -0.322,-0.066 -0.234,-0.1818 -0.94,-0.3222 -0.696,-0.6002 -1.096,-0.4714 -0.34,-0.3136 -0.368,-0.0876 -0.546,-0.2742 -0.47,-0.433 -0.9419996,-0.5496 -0.314,-0.1142 -0.886,-0.6716 -0.57,-1.6626 -0.644,-0.7624 -0.384,-0.5658 -0.182,-1.4516 -0.394,-1.79 v -0.361 l 0.286,-1.5164 0.372,-0.8014 0.264,-0.3908 0.33,-0.2876 0.22,-0.06 0.266,-0.2342 0.358,-0.1516 0.648,-0.5122 0.436,-0.237 0.254,-0.2564 0.3979996,-0.2154 0.222,0.0194 0.216,-0.0958 0.242,-0.2132 0.532,-0.2544 0.624,-0.2212 0.474,-0.245 0.324,-0.066 0.526,-0.318 0.542,-0.1118 0.508,-0.23 0.886,-0.0538 0.31,-0.0878 1.042,-0.0422 0.842,-0.141 0.626,-0.2046 0.864,0.0668 0.206,-0.0882 1.614,-0.129 1.814,-0.354 1.946,0.1078 0.4,-0.04 0.376,-0.1234 0.178,0.044 0.434,-0.068 0.952,-0.2478 0.694,-0.0502 0.416,0.0146 0.774,0.193 0.336,0.009 1.548,-0.1558 0.966,-0.2384 1.49,-0.0636 0.64,0.0916 0.212,-0.0874 0.498,-0.0182 2.384,-0.3692 0.552,-0.0384 1.382,0.073 2.16,-0.232 3.1,-0.0562 0.322,0.0452 0.892,-0.0918 1.52,0.0206 1.684,0.2674 2.76,-0.214 2.608,0.2072 2.378,-0.0662 2.058,-0.134 0.236,0.0982 0.214,0.0182 0.232,-0.0798 0.7,0.031 1.028,0.1778 3.672,0.1894 0.608,-0.0344 0.246,0.167 0.254,0.0386 0.26,-0.1922 0.752,-0.089 2.332,0.049 0.584,0.0896 3.972,-0.0538 0.926,-0.087 0.674,0.008 0.804,-0.2196 1.218,-0.0592 1.022,-0.164 0.738,0.005 0.336,-0.1396 0.314,-0.002 0.28,0.1642 0.568,0.04 1.16,-0.1664 1.514,-0.0748 0.608,-0.1284 0.768,-0.06 0.322,-0.1462 0.09,0.1382 0.466,-0.0132 1.202,-0.259 0.64597,0.0244 0.324,-0.1902 0.854,-0.1948 0.084,-0.2298 0.118,-0.053 0.116,0.2092 0.51,-0.0622 0.134,0.042 0.454,-0.1414 0.678,-0.0182 2.196,-0.3646 0.292,0.1204 0.276,0.009 0.898,-0.0716 2.34,0.1162 0.324,-0.0684 4.390001,0.0842 1.96,-0.0944 0.398,0.064 0.396,-0.0334 0.77,-0.2062 1.142,-0.041 0.796,-0.1094 0.434,0.032 1.562,-0.122 0.714,0.0172 1.122,-0.173 0.342,0.0932 0.346,-0.0232 0.326,-0.168 0.72,-0.1472 1.686,-0.2082 1.262,-0.0828 1.532,-0.2778 0.974,-0.0412 0.276,0.2116 0.312,0.0166 0.304,-0.2488 1.6106,-0.2264 0.5936,0.0198 2.12,-0.1468 0.2432,0.003 0.2358,0.2398 0.2674,0.0582 0.258,-0.2292 0.7242,-0.0354 0.7464,0.0962 1.9722,0.0826 0.3806,0.083 1.5628,-0.0734 1.5128,0.046 0.8524,-0.0486 1.8832,0.202 1.839,0.0874 0.275,-0.1918 0.3432,0.0196 0.3814,0.2218 1.0538,0.073 1.0066,-0.0626 1.3866,0.0528 0.6696,0.0938 0.2582,-0.1708 0.2994,-0.023 0.2862,0.2134 1.0102,0.082 0.4764,0.1176 0.2456,-0.0536 2.668,-0.1014 0.3194,-0.1644 0.333,0.012 0.3582,0.207 0.6552,0.1384 0.6516,-0.0398 0.3144,0.0928 2.512,0.046 1.7738,0.1248 0.8188,-0.0356 0.7706,0.0614 1.0478,-0.0828 0.3812,0.0872 1.6824,0.0354 4.1406,0.398 1.5574,-0.0428 0.4204,0.0582 1.571,-0.0258 2.0526,0.0684 1.0532,0.1086 0.5958,0.1308 0.8958,-0.038 0.272,0.0754 3.0554,-0.0874 2.7236,-0.279 4.0456,0.0606 0.3612,-0.0672 0.7126,0.008 1.4354,-0.1272 1.992,-0.0778 2.7964,0.0432 1.9712,-0.2104 0.9992,0.031 1.8454,-0.25 1.7772,-0.0244 0.276,0.1116 0.2578,0.013 0.2578,-0.0878 1.2428,-0.052 2.3584,-0.3764 1.002,-0.0244 0.5932,0.0928 1.277,0.0206 3.8792,-0.0206 1.8562,-0.241 0.5966,-0.005 3.4338,0.2838 3.1062,0.4182 2.1906,0.068 1.253,0.204 0.2696,-0.0284 1.5726,0.2212 1.6888,0.0428 2.9852,0.367 3.2036,0.124 0.9432,0.0844 0.604,0.124 0.3886,-0.0178 1.1636,0.1342 0.578,-0.025 2.4858,0.1722 0.8054,-0.1636 2.456,0.0206 0.0838,0.07 0.5956,-0.051 1.1032,0.117 0.3534,-0.0536 0.17,0.098 0.3608,-0.0202 1.7252,0.2518 0.353,-0.0756 0.102,0.059 0.5078,0.0298 0.7372,0.2006 1.0922,0.1394 0.1918,0.2096 0.0476,-0.0514 -0.045,0.0994 0.5876,1.1924 -0.094,1.7608 -0.2072,0.982 0.0304,1.4318 -0.0446,0.3764 -0.5062,1.5828 0.1392,1.5314 -0.0434,0.5342 -1.0514,2.2902 -0.068,1.0836 -0.1362,0.673 -0.1726,0.4498 -0.1146,0.0974 -0.1016,0.2998 -0.1842,0.2636 -0.312,0.8532 -0.2828,1.9224 -0.7112,1.6662 -0.087,0.354 0.0114,0.4658 -0.1324,0.3026 -0.387,0.3906 -0.7622,0.4414 -0.287,0.4102 -0.5462,0.452 -1.0442,0.2492 -0.7798,0.0608 -0.8422,0.2498 -0.9642,0.116 -1.067,-0.009 -0.4432,-0.068 -0.9072,0.0638 -2.2338,-0.2314 -2.1424,-0.0624 -2.9,-0.1988 -2.3886,-0.2508 -0.3992,0.008 -1.5596,-0.2132 -2.5492,-0.1258 -1.3306,0.0438 -0.296,-0.0888 -1.1756,-0.1412 -3.6248,-0.1672 -4.1468,-0.3888 -1.6432,-0.021 -4.526,-0.7578 -2.7678,-0.1592 -4.7322,-0.546 -5.6184,-0.3258 -0.793,0.0426 -1.1778,-0.174 -1.1248,0.0208 -1.1202,-0.139 -1.3368,0.042 -0.8592,-0.0814 -3.0714,-0.0242 -1.7502,-0.1086 -0.9204,-0.006 -1.3912,0.1274 -0.7886,-0.005 -1.7106,0.1782 -2.3572,0.009 -2.5872,0.3122 -1.949,0.129 -2.073,-0.0642 -1.5788,0.065 -1.4184,0.1432 -0.794,-0.0682 -1.1356,0.0194 -1.5898,0.1132 -2.1738,-0.1612 -2.4962,-0.0628 -0.3678,-0.2116 -0.367,-0.0598 -0.3998,0.1742 -0.4346,0.0158 -4.529,-0.3888 -1.6054,-0.0146 -0.4474,-0.3096 -0.4674,-0.0524 -0.418,0.3114 -0.8804,0.027 -1.739,-0.1844 -2.4586,-0.0262 -1.1576,-0.0756 -0.6802,0.0312 -0.3374,-0.2084 -0.375,-0.0404 -0.3236,0.2438 -0.9872,0.1112 -1.0978,-0.0534 -0.3916,-0.097 -0.753,-0.0676 -0.6304,0.0856 -0.3382,-0.0534 -1.3436,0.0122 -0.3478,-0.129 -0.4034,0.009 -0.4082,0.1594 -3.5006,-0.0472 -0.3562,0.1946 -0.3646,-2e-4 -0.3528,-0.2184 -1.0446,0.007 -3.2078,0.221 -1.884,0.0264 -0.34,0.255 -0.38,0.0228 -0.41,-0.2634 -0.816,-0.1118 -1.384,-0.0294 -2.414,-0.1844 -1.226,0.0604 -1.098,-0.0418 -0.37,0.176 -0.364,-0.004 -0.33,-0.1578 -0.326,-0.0488 -2.844,-0.2714 -1.56,-0.0472 -0.676,0.0808 -0.622,-0.0928 -2.440001,-0.0646 -2.38,-0.1516 -2.99,0.0766 -0.59,-0.0782 -1.748,0.006 -0.634,-0.0634 -1.42,0.1524 -1.052,-0.0968 -1.484,0.0268 -2.90797,-0.2596 -2.59,-0.1518 -0.526,0.0628 -0.254,-0.125 -0.306,-0.0356 -0.57,0.0294 -1.692,-0.1274 -0.288,0.0252 -0.834,-0.1698 -0.918,-0.0188 -0.358,0.14 -0.35,2e-4 -0.344,-0.1682 -1.054,-0.0682 -1.22,0.0992 -0.658,-0.0698 -0.386,-0.1374 -0.386,-0.0386 -0.33,0.0918 -1.268,-0.0492 -0.294,0.207 -0.324,0.0476 -0.374,-0.2122 -1.092,-0.108 -1.504,-0.0146 -1.504,0.0714 -0.578,-0.0478 -0.518,0.0562 -0.244,0.2978 -0.276,0.0328 -0.218,-0.3004 -0.216,-0.0544 -1.162,-0.0354 -0.99,0.1604 -0.278,-0.0638 -1.078,-0.0102 -0.256,0.3374 -0.298,0.0622 -0.276,-0.3368 -0.584,-0.0884 -0.996,-0.0232 -0.752,0.0764 -0.466,-0.0692 -0.214,0.1712 -0.2,0.0682 -0.398,-0.0128 -0.742,0.1212 -1.286,-0.043 -0.984,0.066 -0.674,-0.05 -1.634,0.1028 -0.46,0.0874 -2.456,0.0904 -0.418,0.0866 -1.508,-0.0108 -0.764,0.0966 -0.882,0.0126 -0.494,0.1108 -1.148,0.0976 -1.846,-0.134 -1.284,0.0432 -0.222,0.0664 -0.842,-0.1502 -1.476,-0.08 -0.272,0.0472 -1.888,-0.0542 -0.664,0.0776 -1.212,-0.0348 -1.74,-0.2018 -4.792,0.0626 -0.944,-0.0724 -0.15,0.1312 -0.13,-0.006 -0.064,-0.1496 -0.186,-0.1652 -1.174,-0.4186 -0.306,0.0444 -0.358,-0.0534 -0.238,-0.1222 -0.44,-0.0286 -1.99,-0.4288 -0.48,-0.0204 -1.334,-0.2584 -0.154,-0.0976 -0.11,-0.2298 -0.25,-0.1776 -0.14,0.0116 -0.384,-0.2048 -0.504,-0.1422 -0.678,-0.0684 -0.774,-0.2434 -1.036,-0.4426 -0.316,-0.2048 -1.492,-0.5972 -0.446,-0.3192 -0.278,-0.7646 -0.496,-0.85 -0.468,-0.6344 -0.7419996,-2.0378 0.384,-1.0912 0.184,-0.2804 0.4979996,-0.3602 0.622,-0.1938 0.636,-0.002 0.472,-0.114 0.664,0.009 0.92,-0.1274 0.694,-0.1764 2.072,-0.258 0.33,-0.023 0.328,0.0652 0.174,0.1164 0.206,-0.008 0.246,-0.0902 1.34,-0.1082 1.848,-0.4388 0.82,-0.0562 1.926,0.0542 1.69,-0.1932 0.536,-0.1166 0.434,0.1164 0.454,-0.002 1.068,0.1936 1.628,0.0148 2.772,-0.1604 1.136,0.0958 1.548,-0.0126 2.778,-0.474 1.134,-0.0758 0.626,0.0578 1.436,-0.136 1.372,-0.0112 4.464,-0.309 5.472,-0.2168 1.842,0.069 0.69,-0.1918 1.102,-0.054 2.198,-0.3376 4.474,-0.0374 3.954,-0.3822 2.12,-0.1068 0.8,-0.0994 3.462,0.005 3.824,-0.3102 0.51,0.0752 1.644,-0.0722 0.47,0.269 0.486,0.0594 0.462,-0.2364 3.158,0.1398 1.62,-0.1328 2.57197,-0.0976 1.004,0.0188 0.446,0.1622 0.428,0.022 0.414,-0.1506 1.894,-0.0144 0.92,-0.1134 1.414,0.048 0.92,-0.1336 0.868,-0.015 3.988,0.052 0.356001,-0.149 0.366,-0.016 0.356,0.1754 1.608,0.0444 0.882,0.104 1.236,-0.012 0.412,0.1234 0.412,0.031 0.424,-0.0908 2.472,-0.1018 0.458,0.094 4.396,-0.0764 0.506,0.1808 0.518,6e-4 0.502,-0.2186 0.476,-0.0542 1.97,-0.0702 0.676,0.0444 3.0236,-0.1386 0.5274,0.002 0.5448,0.159 0.4924,0.0208 0.411,-0.1538 0.8476,-0.0796 2.43,-0.12 1.3854,0.0516 2.3784,-0.1618 0.3796,-0.1454 0.3676,-0.0278 0.3624,0.1408 2.2714,-0.002 1.6994,0.103 0.6996,-0.1028 1.0654,-0.0262 0.376,-0.2114 0.3972,-0.0606 0.3814,0.2024 1.8792,-0.0286 0.7004,0.106 1.0268,0.0372 2.212,-0.1666 0.4764,-0.2272 0.4998,-0.016 0.4122,0.2144 1.8882,0.0266 1.095,-0.1322 1.2492,0.0104 2.4488,0.1532 0.5444,-0.0468 0.5526,0.0522 0.5286,0.1524 2.9616,0.1408 1.5808,-0.0816 2.7498,0.107 0.4522,-0.1778 0.4532,2e-4 0.4152,0.2622 0.8836,0.108 3.856,0.2024 1.8476,-0.202 0.293,-0.1886 0.2692,-0.0304 0.5124,0.1356 1.1786,0.0422 0.751,0.1136 0.6682,-0.0928 0.516,0.0224 1.8418,-0.11 0.6636,-0.1464 0.9256,-0.0678 0.2684,-0.0758 2.9188,0.1852 2.5822,0.0864 1.2714,0.011 0.8518,-0.1146 3.706,-0.063 3.7072,0.1972 3.3338,-0.2316 2.777,0.0152 0.3444,-0.0652 1.1426,-0.0294 0.3564,0.071 3.4402,0.0752 1.4828,-0.0732 0.6738,0.034 0.6376,-0.091 1.105,-0.035 1.5412,0.0696 1.3868,0.197 1.4886,0.0158 0.407,0.0804 3.4674,0.196 2.8532,-0.0692 3.2618,0.2656 1.5044,-0.2014 0.9168,-0.0174 2.1714,-0.2116 1.0894,-0.2156 0.456,0.078 0.2172,0.1054 0.2064,0.0188 0.1432,-0.066 1.4074,0.0928 1.3448,-0.1118 0.8082,0.0182 0.2448,-0.0842 0.2794,-0.004 4.2246,0.4626 0.0654,-0.0346 -0.065,-0.0398 0.3364,0.054 0.8354,-0.0292 0.5038,0.2366 0.1734,-0.0496 0.384,0.2684 0.1624,0.2624 0.4192,0.2996 0.3592,0.3632 1.3466,0.8642 -0.0672,0.2682 0.0414,0.7802 0.716,1.6526 0.0432,1.0042 -0.1232,0.6966 -0.3266,1.0284 -0.0744,1.3962 -0.4058,0.9774 -0.2004,0.293 -0.3872,0.3562 -1.0356,0.848 -1.1704,0.5752 -0.3462,0.072 -0.5326,0.4232 -0.1238,-0.0388 -1.988,0.8398 -0.8748,0.6926 -0.4988,0.1316 -0.8262,-0.0232 -0.4542,0.1462 -0.5882,-0.1248 -0.7328,0.1424 -1.2844,0.1036 -1.8902,-0.024 -0.4156,0.053 -0.2084,-0.043 -0.771,0.1058 -0.3972,-0.0576 -0.2284,0.082 -0.5468,0.028 -0.5866,-0.0566 -1.4406,0.0364 -5.2684,-0.3894 -0.4926,0.007 -0.5066,0.1002 -0.494,-0.0242 -0.423,-0.1074 -1.4818,-0.1888 -1.2296,-0.292 -0.8388,-0.1196 -2.5904,-0.1966 -0.3588,-0.0998 -0.8422,-0.021 -2.8146,-0.3594 -1.705,-0.3824 -0.4696,-0.004 -1.5766,-0.1992 -4.3844,-0.1634 -2.8884,-0.313 -0.9756,-0.0108 -0.4378,-0.1196 -0.8504,-0.0742 -5.0008,-0.2834 -1.2094,-0.0216 -0.8124,0.084 -0.3604,-0.1266 -1.3046,-0.0992 -5.7938,0.0298 -2.8484,0.17 -1.9094,-0.058 -0.432,0.0858 -1.8406,-0.087 -2.4982,0.0124 -1.6826,0.0754 -3.7462,-0.1056 -1.7452,0.0158 -1.3184,0.1154 -1.3466,-0.0624 -0.4952,0.1246 -0.5088,0.0346 -3.2106,-0.003 -2.8156,0.254 -0.3884,-0.2244 -0.365,-0.0108 -0.3412,0.231 -2.0008,0.1934 -1.4454,-4e-4 -2.6452,0.2796 -0.4188,-0.1794 -0.4258,0.0166 -0.3986,0.2762 -0.4296,0.055 -3.0606,0.0146 -0.6516,0.0942 -0.3932,-0.0864 -0.3928,0.01 -1.2362,0.1428 -0.44,-0.2362 -0.4572,0.0134 -0.4204,0.3052 -0.4848,0.0858 -3.6448,-0.0238 -0.4226,0.0646 -1.3754,-0.159 -1.4018,0.0524 -0.3444,-0.081 -0.79,-0.0528 -0.8008,0.0834 -2.1632,-0.0918 -0.3798,0.1148 -0.3588,0.0168 -0.332,-0.128 -1.765,-0.123 -2.5608,-0.006 -1.486,0.0648 -2.712,-0.1092 -1.072,-0.1312 -0.564,0.004 -2.58,-0.2332 -1.794,-0.0664 -3.276,-0.3044 -1.648,-0.3198 -0.41,0.0594 -0.408,-0.0366 -1.472,-0.2916 -1.844001,-0.1766 -1.23,-0.218 -1.314,-0.1376 -0.784,-0.0584 -0.73,0.059 -0.688,-0.1462 -2.454,-0.1518 -2.148,-0.238 -3.06,-0.0206 -0.31,-0.234 -0.35597,-0.0452 -0.36,0.1984 -1.534,-0.0334 -0.388,0.042 -1.608,-0.1714 -2.424,-0.0478 -0.358,-0.1052 -0.404,0.0134 -0.776,0.1614 -2.982,-0.0102 -0.392,0.1036 -0.44,0.0104 -0.452,-0.1106 -1.09,0.006 -1.924,0.191 -0.906,0.1554 -1.412,0.0596 -0.31,0.1634 -0.34,0.0316 -0.34,-0.1802 -0.598,-0.0256 -1.38,0.1312 -1.41,0.237 -1.01,0.076 -0.912,-0.0654 -0.298,0.3326 -0.314,0.0384 -0.266,-0.3184 -0.894,-0.1962 -2.222,0.0338 -0.938,-0.1172 -0.942,-0.0174 -0.304,0.1598 -0.288,-6e-4 -0.25,-0.233 -0.962,-0.1356 -0.242,-0.1186 -1.55,-0.1254 -0.548,-0.1658 -1.346,-0.0324 -0.208,-0.098 -1.418,-0.2428 -2.99,-0.4464 -0.986,-0.061 -0.256,-0.0818 -0.86,0.0406 -1.398,-0.1214 -0.284,0.045 -1.784,-0.0898 -0.952,0.0548 -0.588,-0.0482 -1.538,0.1612 -2.56,0.0624 -0.66,0.1328 -0.518,-0.0286 -1.018,0.1302 -0.568,0.1466 -0.342,-0.0278 -2.148,0.1394 -0.694,-0.1578 -1.094,-0.0166 -0.438,-0.079 -0.43,0.0602 -1.234,0.007 -1.594,-0.166 -0.374,0.0488 -2.56,-0.0968 -0.954,-0.125 -1,-0.4696 -1.81,-0.2526 -1.1,-0.0378 -1.164,-0.2106 -0.698,-0.3966 -0.442,-0.1136 -0.248,-0.366 -0.246,-0.2322 -0.024,-0.1242 0.098,0.0598 V 26.33 l 0.218,-0.2828 0.596,-0.2062 1.28,-0.1292 1.982,-0.0684 0.844,-0.1096 0.56,0.039 1.756,-0.2288 1.904,-0.003 0.982,0.1236 0.23,0.0842 0.524,0.0154 0.29,0.1828 0.298,0.0558 0.606,-0.057 1.112,0.1406 1.862,-0.1816 0.924,-0.0272 2.726,0.4556 1.882,-0.0246 0.556,0.047 0.808,-0.0954 1.714,0.1826 1.194,0.028 1.944,-0.1014 1.87,0.007 2.64,0.2762 2.24,0.0976 4.31,-0.2 1.306,0.0638 2.14,-0.013 1.284,-0.1378 1.924,-0.096 2.236,0.007 0.828,0.0634 1.458,-0.038 0.888,-0.0598 1.456,-0.2086 1.47,0.0102 1.482,0.2406 0.436,-0.1434 2.334,-0.2284 0.764,0.001 2.066,-0.2916 0.792,-0.186 0.57,0.0314 0.79,-0.233 0.26,0.0976 0.284,-0.015 0.284,-0.1402 0.588,-0.0702 1.368,-0.0234 2.986,-0.2286 0.8,0.0142 0.414,0.1178 0.422,-0.003 0.414,-0.1308 3.79797,-0.1552 0.622,-0.1008 2.688,-0.0426 1.286,0.0982 1.056,-0.0156 2.412,-0.313 0.704,0.0284 1.098,-0.1032 0.414,0.0742 2.260001,-0.0766 1.078,-0.085 2.488,-0.342 1.948,0.1472 0.87,-0.0482 0.444,0.0578 1.758,-0.0222 0.956,0.0634 3.81,-0.0976 0.504,-0.0604 1.858,0.1784 1.36,0.009 0.84,0.0934 1.1996,0.0268 2.1444,-0.0708 3.946,-0.404 0.3488,-0.0128 0.6658,0.0926 0.3196,-0.0598 3.0774,-0.0992 1.801,-0.151 0.2926,0.007 0.3376,0.14 0.364,0.0244 0.3734,-0.1262 0.3812,0.003 2.5504,0.2074 0.9638,-0.0498 0.316,0.0802 0.9844,-0.148 0.4436,0.0554 0.7896,-0.049 0.4976,0.0482 0.239,-0.2686 0.2578,-0.0538 0.2324,0.2738 0.2446,0.0498 0.6684,-0.083 0.9194,0.0494 0.9228,0.1332 0.6348,-0.038 0.7524,0.0686 0.2688,-0.2144 0.2988,-0.0258 0.2608,0.2378 0.2558,0.0362 0.729,-0.004 2.7226,0.3248 0.4182,-0.0162 0.2196,-0.116 0.2564,-0.0172 0.2806,0.1298 2.0088,0.1254 0.8184,-0.0506 2.9748,0.0812 4.3506,-0.1564 0.6108,0.1016 1.015,0.0396 3.1964,-0.1728 2.1254,0.0498 0.558,0.0656 0.6376,-0.0818 1.4366,0.0694 1.7222,-0.009 1.7276,-0.1372 2.7108,0.0158 4.1438,-0.2836 3.499,0.0136 2.8836,0.1024 2.803,-0.0874 2.816,0.1744 2.5862,-0.0446 2.8138,0.0974 4.8732,-0.009 3.99,0.5046 1.4382,0.0804 0.5186,-0.0378 0.7822,0.0868 0.2926,-0.064 0.9064,0.18 1.5158,0.0694 2.2488,-0.001 0.4458,0.0254 0.4848,0.116 0.2392,-0.0436 2.1612,0.1582 1.9922,-0.1416 0.4716,0.0426 0.6494,-0.0776 0.5938,0.007 1.0876,-0.2142 0.911,-0.087 0.5276,-0.1436 2.946,0.129 0.4204,-0.0478 2.1828,0.003 1.1324,-0.0944 0.3622,-0.1782 0.561,-0.123 1.1986,0.0122 0.9498,0.0486 0.447,0.1848 0.1534,-0.071 1.2262,0.1796 0.2174,-0.0466 0.574,0.1206 0.3366,0.1378 0.1014,0.278 -0.059,0.0714 0.0316,0.09 0.1642,0.077 0.3698,0.4356 0.2688,0.4414 0.0376,0.3832 -0.1492,0.6708 0.038,0.516 -0.0448,0.2754 -0.1928,0.2828 -1.0072,0.5314 -0.4622,0.4574 -0.6788,0.4578 -1.5478,0.5908 -1.0624,0.088 -1.9518,-0.1318 -3.055,0.3516 -1.152,-0.0632 -1.1336,-0.245 -0.425,0.0606 -0.2474,-0.0702 -1.1986,-0.047 -0.6642,-0.1088 -2.679,-0.0256 -1.4664,-0.1326 -0.78,-0.149 -4.3628,-0.2332 -0.836,0.012 -3.6796,-0.3848 -3.6568,-0.1362 -2.512,-0.3336 -3.316,-0.1226 -1.06,0.0158 -0.9,-0.1488 -0.8834,-0.0218 -2.447,-0.306 -2.447,-0.037 -4.5548,-0.4368 -1.4052,-0.007 -1.94,-0.1346 -4.6566,0.0504 -5.4372,-0.1098 -1.3674,-0.1052 -1.9824,0.0216 -0.5902,-0.057 -2.5738,0.1068 -6.86,-0.1048 -1.9634,0.0998 -1.7838,-0.0352 -2.9996,0.1432 -4.3868,0.0314 -1.2892,0.1404 -5.3,0.1574 -2.6962,-0.0836 -4.3028,0.0386 -1.5646,-0.2044 -0.3794,0.0266 -1.183,-0.1282 -1.6514,0.0402 -1.984,-0.0614 -2.6484,-0.2562 -0.3826,-0.2046 -0.3646,-0.005 -0.3414,0.1512 -4.185,-0.0402 -2.315,-0.17 -0.318,-0.2294 -0.264,-0.0122 -0.222,0.2492 -1.488,0.0948 -0.4,0.0132 -0.89,-0.1396 -3.474,0.0218 -0.302,-0.0868 -0.284,0.0138 -0.264,0.1564 -0.304,0.0648 -3.052,0.0238 -3.366,0.1578 -0.622,0.083 -0.71,0.008 -0.248,0.1012 -0.29,0.0274 -0.316,-0.1126 -0.308,0.001 -1.6,0.1538 -1.516001,0.3366 -2.574,0.363 -2.416,0.194 -0.512,0.192 -0.072,0.04 0.072,0.059 -0.184,0.096"
     id="path2244" />
  <path
     style="opacity:1;stroke:#c592fd;stroke-opacity:1"
     fill="none"
     stroke="#fff3a8"
     stroke-width="6"
     stroke-linecap="butt"
     stroke-linejoin="round"
     opacity="0.250004"
     d="m 34.379999,11.9884 0.09,-0.3934 -0.04,0.1566 0.136,-0.0406 0.288,0.0664 3.288,-0.4678 2.056,-0.2172 0.41,0.0438 0.428,-0.1392 1.64,-0.2966 2.844,-0.2414 1.438,-0.2698 0.262,0.0514 0.278,-0.0424 0.26,-0.1846 0.778,-0.1616002 2.906,-0.0128 0.264,0.1408 0.306,0.0182 0.276,-0.1766 0.918,-0.17 3.122,-0.2324 1.452,-0.0182 0.3,0.1176 0.288,0.0148 0.296,-0.128 0.32,-0.0208 1.868,-0.0202 4.128,-0.2362 1.874,0.0562 0.34,-0.087 2.328,-0.0706 0.44,-0.136 1.11,-0.041 0.584,-0.1448 0.144,0.053 0.612,-0.011 1.03,-0.109 0.324,0.0574 1.374,-0.151 0.162,-0.151 0.156,-0.0304 0.14,0.1366 0.3,0.0544 0.958,-0.0864 2.282,0.0574 1.092,-0.097 0.366,-0.008 0.426,0.0894 1.922,-0.0778 0.68,0.0948 1.684,0.0188 2.828,0.2518 0.56197,0.009 0.61,-0.1646 0.612,0.013 0.48,0.1958 1.262,0.075 1.302,-0.102 1.412,0.1382 0.524,0.2188 0.554,0.0188 0.518,-0.184 1.908,0.0274 0.396,-0.2816 0.416,-0.0486 0.38,0.2448 0.378,0.0482 1.338001,0.0376 0.736,-0.0988 0.092,0.2658 0.142,0.0422 0.066,-0.2814 0.558,-0.2162 0.198,-0.3454 0.272,-0.0724 0.266,0.296 0.334,0.0352 1.338,-0.1196 0.566,0.0176 0.128,0.4982 0.19,0.1086 0.078,-0.4956 0.158,-0.0974 0.74,-0.0858 1.114,-0.009 1.354,-0.214 0.2,0.4114 0.236,0.0422 0.118,-0.3978 0.304,-0.124 0.274,0.0482 0.3,-0.0486 0.24,0.0512 0.658,-0.0144 0.62,-0.0988 1.232,0.0336 2.064,-0.0824 0.224,-0.062 0.672,0.1322 0.612,-0.0896 2.062,-0.002 1.322,0.126 2.0196,0.052 1.3832,0.141 0.1714,-0.0482 0.1346,0.034 0.0994,0.1466 0.3536,0.1344 0.6704,0.025 0.247,0.1196 0.3834,0.015 0.3442,0.1416 0.2478,-0.0136 0.084,0.1248 0.3272,0.158 0.4648,0.0808 0.6164,0.2404 0.3494,0.052 0.0812,0.0766 -0.0722,-0.1648 8e-4,0.2168 0.8364,0.7758002 0.2918,0.1376 0.1208,-0.1204 0.1176,0.0474 0.1862,0.4236 0.1972,0.0918 0.279,0.328 0.2762,0.6048 0.0654,0.008 0.1914,0.3816 0.3322,0.428 -0.0184,0.2406 -0.107,0.1198 0.0136,0.5066 0.2438,0.4562 0.1796,0.13 0.1752,0.2768 0.102,0.3538 0.037,0.5034 0.5362,1.0092 0.0102,0.4922 -0.1278,0.575 0.0856,0.8168 -0.0724,1.845 0.2946,0.8764 0.1992,1.2446 0.4232,0.748 0.086,0.2884 0.2048,1.2374 0.004,0.4692 -0.2364,1.212 0.0416,0.4142 -0.0572,1.4594 -0.157,0.6412 -0.2552,0.5578 -0.1152,0.9456 -0.4242,1.2252 -0.1026,0.709 -0.5512,1.5892 -0.2258,0.4224 -0.377,0.6088 -0.4146,0.4308 -0.4904,0.3686 -1.2062,0.664 -0.328,0.3422 -0.6962,0.3762 -0.1774,-0.0586 -0.799,0.175 -0.2176,-0.0332 -0.8216,0.1686 -0.0932,0.0818 -0.4718,-0.163 -0.628,-0.013 -0.3236,0.1046 -0.2356,-0.028 -0.995,0.16 -0.268,-0.0336 -0.7178,0.1062 -0.3816,-0.0334 -0.544,0.2024 -0.572,0.1052 -1.28,0.104 -0.444,0.1284 -0.45,-0.008 -0.71,0.2016 -1.842,0.1838 -2.01,-0.0548 -1.624,0.0564 -0.2,-0.1864 -0.26,0.021 -0.264,0.218 -0.774,0.1002 -0.832,-0.0806 -0.736,-0.1654 -1.02,0.004 -0.216,-0.1172 -0.246,-0.008 -0.258,0.1352 -0.536,0.0494 -1.416,-0.016 -0.344,0.1416 -0.214,-0.0446 -0.868,0.1012 -0.22,-0.1302 -0.262,0.0454 -0.272,0.2174 -1.412,0.1852 -3.942001,0.1488 -0.92,0.0852 -1.878,-0.0632 -0.606,0.1126 -1.938,-0.1836 -0.906,0.0442 -2.344,-0.1234 -0.194,0.296 -0.256,0.0436 -0.18597,-0.2946 -0.22,-0.046 -0.966,0.1154 -1.374,0.0118 -0.894,0.0874 -0.312,0.3972 -0.416,0.0918 -0.344,-0.3096 -1.984,0.003 -0.968,-0.147 -1.348,0.1268 -0.26,0.171 -0.258,0.038 -0.246,-0.1356 -1.294,0.0948 -1.306,-0.1026 -2.19,0.0488 -0.686,-0.0838 -1.134,-0.005 -4.308,0.4292 -3.244,0.4344 -0.964,-0.0552 -2.018,0.1956 -1.434,0.2402 -2.092,-0.0542 -2.476,0.2414 -1.808,-0.196 -1.284,0.0458 -2.972,-0.0868 -1.566,-0.157 -0.74,-0.1338 -3.528,0.0374 -0.886,-0.201 -0.984,-0.0564 -0.388,0.0488 -0.462,-0.2678 -1.096,-0.289 -0.208,-0.1176 -2.658,-0.587 -0.816,-0.4936 -0.456,-0.6212 -0.39,-0.3786 -0.734,-0.5356 -0.454,-0.5844 -0.364,-0.3562 -0.508,-0.3242 -0.838,-0.366 -0.44,-0.3924 -1.378,-1.7898 -0.586,-1.172 -0.018,-1.0586 0.13,-1.1094 0.102,-0.3612 v -0.3374 l -0.122,-0.5154 v -0.5042 l 0.322,-1.2098 -0.072,-1.2226 0.058,-0.282 0.236,-0.5466 0.094,-0.7556 -0.122,-0.6484 0.15,-0.944 -0.04,-0.9978 0.05,-0.346 0.24,-0.715 0.162,-1.24 0.19,-0.5768 -0.014,-0.696 -0.09,-0.5288 -0.156,-0.4552 0.01,-0.74 0.04,-0.1268 0.152,-0.0748 0.184,-0.2928 0.294,-0.2184 0.46,-0.2168 0.254,-0.0248 0.246,-0.1094 2.02,0.065 0.562,0.1002 0.718,-0.0274 0.87,0.1878 0.768,0.3344 0.174,-0.0284 0.686,0.1024 0.392,-0.0162 2.502,-0.4426 0.454,0.029 2.256,-0.1378 2.504,0.1378 1.344,-0.0944 0.588,0.0236 1.036,-0.1408 1.822,-0.1064 1.236,0.0384 0.37,-0.1516 1.428,-0.3364 -0.082,-0.0302 0.532,-0.1768 0.404,-0.0612 0.204,0.0916 0.26,-0.0208 0.278,-0.1676 1.978,-0.146 1.01,-0.176 1.008,-0.0914 0.388,0.065 0.276,-0.121 1.13,-0.1438 2.248,-0.0714 0.624,0.0538 0.586,-0.1054 0.478,-0.0318 0.204,0.0666 0.802,-0.0956 0.822,0.0132 1.606,0.1626 1.196,-0.1872 1.038,-0.004 0.496,0.068 0.25,-0.102 2.176,-0.1294 0.51,-0.1084 4.574,-0.1872 0.802,0.055 0.608,-0.0738 0.442,0.0714 0.254,-0.0836 2.782,-0.096 3.944,0.1022 2.37197,-0.1254 1.292,0.0132 1,-0.115 2.642,0.1532 0.358,-0.0466 1.302,0.026 0.556,-0.0748 0.542,0.0788 0.806,-0.0422 1.016001,0.1524 1.868,-0.0102 1.07,0.0682 0.974,-0.129 2.888,0.0836 1.93,-0.0658 0.974,-0.1076 0.264,0.005 0.26,0.12 0.272,-0.001 0.266,-0.126 1.272,-0.1516 0.496,0.0696 1.876,-0.0472 2.476,0.0616 0.968,-0.0782 0.282,-0.1444 0.12,0.0726 0.294,0.0296 1.754,-0.05 0.392,0.0648 0.294,-0.0874 0.4134,0.0202 -0.003,-0.0398 -0.0728,0.0732 0.4908,0.2134 0.8312,0.1016 0.862,0.226 0.2606,0.1778 0.2386,0.3142 0.2154,-0.001 0.1218,0.1028 0.7658,0.311 0.6722,0.409 0.3414,0.4926 0.5944,0.559 0.2732,0.4134 0.1106,0.3886 -0.1014,0.657 0.1036,0.6786 8e-4,1.2272 0.5926,2.2692 0.743,2.0964 0.0582,0.494 0.3432,0.6408 0.0698,0.713 -0.0262,1.4754 0.1898,1.4248 -0.3236,1.4674 -0.1284,0.221 -0.173,0.7904 -0.253,0.5836 -0.3014,0.3886 -0.9566,0.887 -0.6744,0.2786 -0.7942,0.164 -0.6112,0.248 -0.5428,0.2978 -0.5018,0.509 -0.6322,0.2668 -0.6478,0.1214 -1.2318,0.0672 -0.0614,0.078 -0.2578,-0.0548 -0.54,0.0164 -1.448,0.1284 -0.48,-0.0776 -1.946,0.2352 -2.672,-0.2402 -0.234,0.074 -0.74,-0.1854 -1.058,-0.014 -1.442,0.1048 -0.57,-0.0574 -0.52,0.0158 -0.214,0.0646 -0.7,-0.0934 -0.574,0.024 -0.914,0.1498 -1.782,0.0718 -1.194,-0.0418 -0.59,-0.0952 -3.162,0.0364 -1.922001,0.199 -2.842,0.1124 -0.564,0.0848 -0.966,-0.0286 -2.556,0.079 -0.84,0.1598 -1.312,0.072 -2.57597,-0.1462 -2.926,0.2204 -0.646,-0.002 -1.182,-0.1248 -2.078,0.3524 -1.34,-0.0278 -2.84,0.1646 -0.664,0.0634 -0.286,0.1506 -0.27,-0.0136 -0.28,-0.1188 -1.724,-0.0408 -4.104,0.445 -1.224,-0.0694 -1.92,0.1672 -0.924,-0.0604 -0.892,0.1566 -0.406,-0.1068 -2.594,0.183 -1.874,-0.0226 -1.208,0.1774 -1.216,0.0718 -0.482,0.1776 -1.462,0.0918 -4.362,0.0218 -3.318,-0.1822 -1.41,-0.1942 -1.246,-0.416 -2.326,-0.1924 -0.7,-0.1836 -1.176,-0.7158 -0.658,-0.2476 -0.804,-0.1472 -0.918,-0.2572 -0.68,-0.6724 -0.876,-0.6302 -1.296,-0.584 -0.294,-0.2618 -0.388,-1.4592 0.042,-1.751 -0.15,-0.8572 0.046,-0.5056 -0.1,-0.7246 0.012,-0.4218 0.142,-0.6988 -0.022,-1.0064 0.102,-0.4312 0.388,-1.0334 0.04,-0.281 0.264,-0.6414 0.202,-0.297 0.28,-0.735 0.268,-0.471 1.064,-0.8414 1.85,-0.3082 1.11,-0.0754 0.288,-0.1458 1.23,0.2808 3.33,0.2242 3.912,0.0366 2.042,0.1994 1.824,0.0558 3.504,-0.02 1.922,-0.1266 1.606,-0.019 1.784,-0.1986 0.684,0.0906 0.668,-0.0224 0.634,-0.1902 1.614,-0.158 0.854,-0.01 1.718,-0.1908 0.344,-0.099 1.302,-0.165 1.726,-0.0638 0.628,0.2952 0.622,0.0226 0.554,-0.3228 3.43,-0.049 1.072,-0.0776 1.982,-0.3378 0.394,0.1872 0.428,-0.004 0.424,-0.2684 2.532,-0.1378 1.824,-0.254 0.35,0.009 0.884,-0.1716 0.264,-0.009 0.254,0.33 0.29,0.0112 0.234,-0.406 0.314,-0.1052 1.002,-0.1792 1.17997,-0.1126 2.32,-0.5856 0.424,0.006 0.682,-0.1266 4.67,-0.0252 0.292,-0.1708 0.312,-0.0154 0.262,0.18 1.118,0.101 0.648001,-0.008 2.406,0.24 3.976,0.0952 1.646,-0.096 2.682,0.1366 1.916,0.002 1.578,-0.0532 0.436,-0.103 0.434,0.0392 0.904,-0.0878 1.078,-0.2026 0.706,-0.0324 1.012,-0.338 0.348,-0.0464 0.158,0.171 0.168,0.02 0.136,-0.1752 0.32,-0.0182 0.892,0.4138 0.2,0.013 0.226,0.105 0.4744,0.3134 0.7668,0.374 0.469,0.2922 0.421,0.563 0.3662,0.8488 0.146,0.528 0.0716,0.5758 -0.053,0.5832 0.0398,0.3886 0.168,0.5444 0.3396,0.656 -0.0356,1.11 0.2008,0.5602 0.3354,0.577 0.0902,0.3632 -0.0328,0.3604 0.145,1.0452 -0.1366,0.7786 -0.2918,0.6026 0.0198,0.672 -0.1804,0.4264 -0.1778,0.2104 -0.5784,0.3288 -0.538,0.1488 -0.5002,0.011 -0.3468,0.1126 -0.4008,-0.001 -0.3286,0.1058 -0.4968,-0.0338 -0.176,0.1054 -0.202,-0.0118 -0.192,-0.1122 -0.316,-0.067 -0.95,-0.007 -0.59,0.0994 -1.246,0.0848 -0.33,0.125 -0.336,0.006 -0.3,-0.1382 -0.514,-0.1024 -1.246,0.0112 -2.27,0.5412 -1.698,0.2234 -3.178,0.2684 -2.392,0.3348 -1.924,-0.0108 -0.78,-0.0698 -3.262001,0.206 -1.762,0.0344 -2.162,-0.0292 -0.338,-0.1284 -0.342,0.0112 -0.326,0.162 -0.35,0.071 -3.486,0.2788 -1.618,-0.0352 -1.11397,-0.1202 -1.704,0.281 -0.37,0.1494 -0.856,0.0574 -1.822,0.2796 -0.53,-0.0804 -1.844,0.0282 -0.38,-0.09 -0.416,-0.0108 -1.56,0.088 -0.754,-0.0342 -1.326,0.1048 -0.414,0.2058 -0.178,-0.1132 -0.804,0.0282 -0.27,-0.0454 -0.654,0.0608 -1.272,-0.1086 -0.548,0.1072 -0.414,-0.0886 -0.176,0.0164 -0.132,0.2582 -0.198,0.0328 -0.182,-0.2136 -0.416,-0.0858 -1.018,0.1546 -1.274,-0.007 -2.108,-0.1878 -0.304,0.1402 -0.364,0.004 -0.362,-0.169 -0.656,-0.0662 -4.198,-0.022 -1.632,-0.054 -0.724,-0.1066 -2.92,0.0242 -2.83,-0.2604 -2.364,-0.0478 -2.53,-0.263 -1.234,-0.0218 -0.35,-0.0856 -0.646,-0.033 -0.708,-0.1938 -0.874,-0.0616 -1.696,-0.2842 -0.164,0.0298 -0.896,-0.37 -1.206,-0.3038 -0.314,-0.195 -0.15,-0.007 -0.456,-0.6722 -1.078,-1.0524 -0.258,-0.7692 -0.084,-0.7948 0.132,-0.665 0.228,-0.5246 0.478,-0.5334 0.276,-0.131 0.342,-0.1492 0.162,0.0368 0.292,-0.156 1.338,-0.3554 0.326,-0.002 0.338,0.0816 0.704,-0.037 1.122,0.1434 0.624,0.004 1.084,-0.2142 2.124,6e-4 3.366,-0.2518 0.378,-0.1038 0.87,-0.044 2.114,-0.2712 1.142,-0.2634 3.462,-0.0708 2.772,-0.3718 0.998,-0.2232 0.916,-0.0718 1.318,-0.0886 0.668,0.06 0.652,-0.1246 2.494,0.041 1.484,-0.1442 0.942,0.006 1.276,-0.1186 0.794,0.0658 0.63,-0.1038 3.766,-0.2326 1.68,0.0456 4.02,-0.3358 1.036,-0.1438 4.172,-0.2022 0.88,0.008 1.13997,-0.1528 1.104,-0.0418 7.242,0.0804 0.418,0.0856 1.790001,0.104 0.984,-0.0644 1.98,-0.2646 2.424,-0.1174 0.638,0.092 0.724,-0.1866 0.308,0.0384 0.96,-0.1376 0.358,-0.0846 0.38,-0.1936 0.354,-0.0976 0.266,0.0106 1.148,-0.3456 0.704,0.008 0.804,-0.1578 1.398,0.1472 0.268,-0.0442 0.592,0.2002 1.206,0.2322 1.296,0.046 1.198,0.1582 0.474,0.1776 0.186,-0.0984 0.18,-0.006 1,0.1608 1.5972,0.6346 0.4494,0.2778 0.3462,0.3816 0.0364,-0.0374 0.001,0.2052 0.0984,0.2262 -0.04,0.3544 -0.3778,0.1432 -0.428,0.3078 -0.9568,0.4126 -0.554,0.7978 -0.132,0.0272 -0.45,0.4146 -2.1,0.6338 -1.442,0.2762 -1.168,-0.0662 -1.392,-0.3774 -0.57,-0.0104 -1.352,-0.1662 -1.148,-0.1832 -0.452,-0.148 -2.184,-0.047 -1.28,-0.2312 -1.862,0.218 -0.68,0.0204 -0.47,0.1234 -1.242,0.0296 -0.48,0.146 -0.93,0.006 -1.068001,0.2128 -1.08,0.093 -1.278,-0.095 -2.588,0.0352 -0.854,-0.2744 -1.1,0.004 -1.526,-0.2084 -0.934,-0.0302 -1.24,-0.2036 -1.35197,-0.009 -2.188,-0.1292 -0.538,0.0546 -0.596,-0.114 -3.58,0.168 -1.616,-0.0214 -1.168,0.1148 -0.872,-0.083 -2.442,0.0636 -1.62,-0.0698 -0.602,0.0708 -1.074,-0.0498 -0.656,0.192 -0.358,-0.0632 -2.644,-0.0684 -2.534,0.0138 -1.394,0.0934 -0.448,0.1296 -0.424,0.032 -0.4,-0.135 -1.724,-0.1332 -2.626,0.1028 -1.538,-0.1256 -3.106,-0.085 -3.512,0.207 -3.02,0.4562 -1.146,0.2502 -0.794,0.2536 -1.168,0.482 -0.864,0.4954 v 0.1206 l 0.112,0.096 -0.2,0.4742 0.332,0.2578 0.496,0.0932 1.482,-0.127 2.708,-0.1008 1.924,-0.199 0.738,-0.0148 4.54,0.0324 4.66,-0.0912 4.16,0.0986 8.106,-0.1146 2.952,0.1128 0.928,0.09 4.992,-0.084 1.47,0.0588 1.676,0.2202 0.842,0.1896 0.408,-0.0336 0.898,0.0874 3.21797,0.1178 1.61,-0.0438 1.908,0.1794 1.514,0.0496 1.136,0.1592 1.796,0.0276 2.460001,-0.0958 2.522,0.2132 2.49,-0.031 1.112,-0.1598 3.19,0.0698 0.664,-0.0764 0.78,0.0266"
     id="path2224" />
  <path
     style="opacity:1;stroke:#c592fd;stroke-opacity:1"
     fill="none"
     stroke="#fff3a8"
     stroke-width="6"
     stroke-linecap="butt"
     stroke-linejoin="round"
     opacity="0.250004"
     d="m 243.65697,9.9421998 -0.7506,0.092 -2.183,-0.1104002 -1.023,0.0434 -1.5264,-0.1208 -2.1546,-0.0392 -3.1242,-0.1632 -2.9522,-0.3656 -1.707,-0.003 -3.2174,-0.4028 -0.7776,0.0484 -1.5672,-0.1216 -2.371,0.072 -2.1918,-0.2456 -2.077,-0.1448 -2.1334,0.2906 -1.6316,0.0818 -1.4688,-0.0872 -0.6592,0.0736 -1.9902,-0.0698 -3.1728,-0.147 -0.819,-0.1012 -1.0968,0.0232 -3.8616,-0.3926 -1.2168,0.0288 -1.7728,0.1836 -2.678,-0.2544 -1.5328,-0.2714 -0.8774,-0.076 -1.0746,0.003 -2.361,0.2666 -2.9812,-0.1822 -3.8634,0.5034 -1.7512,0.0592 -2.087,-0.2962 -0.3744,0.007 -0.3548,0.1064 -1.2678,-0.1658 -0.8464,0.0646 -1.1588,-0.0214 -1.0676,-0.1204 -0.4534,-0.1278 -2.2198,0.1158 -0.153,-0.11 -0.25,0.0726 -0.3236,-0.0772 -0.7908,0.0282 -0.569,-0.089 -0.6194,0.0834 -0.2184,-0.0506 -0.43,0.0232 -0.3398,0.1072 -0.685,-0.1294 -0.9226,0.1378 -1.4496,-0.0118 -0.318,0.1374 -0.148,-0.0338 -0.2178,0.1282 -0.4422,0.001 -0.1358,0.0798 -0.6338,0.0358 -1.1024,0.4184 -0.2138,0.0138 -0.5638,0.193 -1.1086,0.6732 -0.1016,0.023 -0.003,-0.0478 -0.1158,0.3134 -0.392,0.4072002 -0.2208,0.445 -0.2104,0.1858 -0.7772,1.73 -0.1948,1.6426 -0.0432,1.1966 -0.164,0.5894 -0.0268,0.9984 -0.4832,1.2168 -0.3586,1.8532 -0.002,0.671 -0.1114,0.739 0.164,0.7408 0.4428,0.8958 -0.1298,0.3492 -0.0102,0.3658 0.2036,0.6734 0.0714,0.6442 -0.1684,0.6122 2e-4,0.3642 0.1444,0.4832 0.2802,0.4898 0.0766,0.4908 4e-4,0.7422 0.3862,1.307 -0.0176,0.4458 0.569,1.492 0.0508,-0.024 0.0396,0.094 0.1512,0.6748 0.5462,1.6104 0.1522,0.6652 0.4606,0.6812 0.0428,0.2704 0.2316,0.3336 0.1704,-0.005 0.2794,0.3298 0.3382,0.0584 0.2366,0.1936 0.1656,-0.0234 0.6354,0.284 0.143,-0.056 0.1134,0.041 0.0816,0.1742 0.2282,0.1596 0.5926,-0.061 0.4564,0.0976 1.0928,0.0782 0.2142,-0.0892 0.175,0.009 0.1468,0.1664 0.1696,0.0218 0.4374,-0.0884 0.157,0.0348 0.8632,-0.0876 1.324,0.0876 0.355,-0.1054 0.1432,0.1284 0.2994,0.007 0.115,0.099 0.3834,-0.0344 0.631,0.0944 0.635,0.2696 1.414,0.3362 0.2304,-0.0424 0.3264,0.104 0.5366,-0.1572 0.6688,-0.029 2.6262,0.5978 0.2036,-0.0882 0.2076,0.007 0.194,0.151 0.4126,0.0832 0.2184,-0.0952 0.2794,-0.002 0.3124,0.1208 1.9078,0.161 1.6178,0.0204 0.6788,-0.1024 0.2162,0.0438 1.2334,-0.0384 3.197,0.1988 1.894,0.317 0.3804,-0.032 0.7308,0.1418 3.4598,0.0878 1.3062,0.3178 1.4044,0.044 0.493,0.1346 2.77,0.3576 1.844,0.1026 0.4584,-0.1344 0.5066,0.0236 0.5772,0.1964 2.2794,0.0902 1.0628,0.1888 1.021,-0.006 3.8026,0.1904 0.9116,-0.0554 3.959,0.373 1.458,-0.0528 2.0976,0.1032 0.645,0.1388 1.3112,0.0936 1.0338,-0.001 1.8324,0.2084 0.8006,-8e-4 0.5358,-0.2108 0.8086,0.01 0.8066,0.1602 2.0974,0.2682 0.762,-0.0624 1.221,-0.221 0.5108,0.0462 0.7966,0.233 1.0592,0.1108 0.7968,0.201 0.705,0.0292 0.546,-0.1142 0.6846,0.0234 1.3824,0.1254 1.1818,0.2818 0.2604,-0.2144 0.05,0.0812 0.6468,-0.0914 0.5172,0.1108 0.7236,0.008 0.0482,-0.098 0.4106,-0.1222 0.0894,0.0906 0.5364,-0.1762 0.1498,0.0474 0.7536,-0.0822 0.083,-0.1164 0.164,-0.0244 0.119,-0.2058 0.036,0.0936 0.0768,10e-4 0.5948,-0.037 0.2768,-0.0962 0.0986,-0.2154 0.1708,-0.1232 0.139,-0.222 0.078,-0.0238 0.0234,0.1004 0.2576,-0.2624 1.0252,-1.6666 0.133,-0.4804 0.3134,-0.5792 0.3856,-1.0418 0.1206,-0.1696 0.1524,-0.9488 0.266,-0.7064 0.0808,-1.0754 0.1294,-0.383 0.0172,0.0798 0.0412,-0.0788 0.1168,-0.5746 0.0512,-1.7458 0.2786,-0.5742 0.0858,-1.0512 0.2866,-1.3724 -0.01,-0.9516 0.1624,-1.2694 -0.027,-0.8946 -0.1208,-0.789 -0.0236,-1.6124 -0.1876,-0.714 -0.2144,-1.7182 0.072,-0.5694 -0.0614,-0.5014 -0.4088,-0.9512 -0.1244,-1.153 -0.17,-0.6618 -0.104,-1.1804 -0.2348,-0.7946 0.0318,-1.0236 -0.3662,-1.2732 0.009,-0.3226 -0.3682,-1.1064 -0.1376,-0.1864 0.018,-0.1972 -0.0946,-0.4614 -0.2632,-0.5670002 -0.147,-0.147 -0.0586,-0.312 -0.0176,0.0976 -0.5466,-0.2808 0.079,0.0764 -0.047,0.0416 -0.8142,0.3002 -0.0818,0.2224 -0.0236,-0.0374 -0.2592,0.1832002 -0.0876,0.125 -0.1702,0.0208 -0.3388,0.3988 -0.5888,0.3356 -0.6712,0.1798 -0.318,0.2452 -1.161,0.2882 -0.3614,0.158 -0.2526,0.241 -0.5256,0.2074 -0.567,0.0958 -0.8988,0.3406 -1.2166,0.6226 -0.605,0.12 -0.7994,-0.006 -0.6718,0.1084 -0.147,-0.0884 -0.1166,0.009 -0.1906,0.2356 -0.7748,0.1508 -1.1296,0.1242 -0.2148,0.079 -0.9718,-0.0744 -0.2312,0.1094 -0.5904,0.1182 -1.1046,0.096 -1.573,0.0274 -0.7586,-0.0938 -0.432,0.075 -0.8222,-0.0848 -2.3554,0.0796 -1.0824,-0.0536 -0.499,0.1536 -0.5184,0.0304 -3.7162,-0.3582 -0.2462,0.03 -0.2646,0.1208 -0.2824,0.0394 -0.279,-0.043 -0.989,0.1634 -3.385,-0.4402 -1.413,-0.0796 -1.181,0.01 -0.6206,0.1092 -0.5116,-0.0228 -1.447,0.108 -1.731,-0.034 -0.7878,-0.1912 -1.5554,-0.007 -1.8638,0.1278 -1.2112,0.1564 -2.1146,-0.1238 -0.6786,0.0572 -0.6864,-0.0606 -0.6146,0.0482 -2.3216,-0.3454 -1.0866,-0.007 -0.252,0.052 -2.997,-0.0674 -3.0042,-0.301 -1.8244,0.1658 -1.1976,-0.004 -1.3384,-0.0678 -1.0978,-0.195 -1.102,-0.0558 -1.4124,0.0902 -0.5912,0.0958 -0.8078,-0.002 -3.0772,-0.325 -0.3506,-0.147 -0.3318,-0.045 -1.6734,0.0274 -1.0886,-0.194 -0.2386,0.0656 -1.4168,-0.1412 -0.4158,0.0376 -1.8112,0.322 -1.0898,0.2682 -0.3722,0.2802 -0.7518,0.2664 -0.6086,0.4168 -0.9522,0.5072 -0.3368,0.3602 -0.7594,0.511 -0.4246,0.7012 -0.7668,1.671 -0.1444,0.445 -0.043,0.7938 0.3016,1.494 -0.0744,1.2816 0.3852,1.4578 0.0416,0.6752 -0.0706,0.9108 0.4566,1.7004 0.006,0.151 -0.2252,0.6092 -0.0882,0.5986 0.0268,0.4248 0.4658,1.0694 0.1592,0.5176 0.0102,0.2292 0.294,0.7606 0.9592,1.1448 0.8754,0.7228 0.1342,-0.1082 0.155,-0.016 0.4774,0.0468 1.019,-0.0674 1.049,0.1532 0.6542,-0.04 0.3478,0.1506 1.5964,0.3732 1.5344,-0.109 0.3382,-0.1088 0.3532,-0.007 0.3832,0.0968 1.667,0.0634 0.4182,0.1316 0.399,0.0308 0.398,-0.0718 0.858,0.0292 0.6638,0.1768 1.708,0.0402 0.3698,-0.1752 0.396,0.0418 0.4038,0.265 0.9322,0.196 0.9012,0.1078 0.7166,0.1992 1.2072,0.0466 0.7564,-0.0642 1.7808,0.2456 0.5262,-0.1066 0.5352,0.0904 0.5554,0.2826 0.974,0.2392 1.2236,0.1496 2.197,-0.0586 2.8326,0.1332 1.0714,0.248 2.2296,0.253 1.8222,-0.2558 1.133,-0.034 1.3108,0.0546 2.24,0.2396 2.3062,0.4948 0.864,-0.0296 2.6152,0.09 1.7974,0.2042 2.7016,0.577 2.1786,-0.0816 2.4984,0.411 1.656,0.0806 1.749,-0.0866 1.2994,0.033 1.4288,0.2324 0.9276,-0.0948 0.4666,0.0928 0.4672,2e-4 2.082,-0.0938 1.511,0.2026 1.5322,-0.047 0.5482,0.0916 0.853,-0.0556 1.8526,0.1564 2.0898,-0.0774 0.535,0.0552 0.186,-0.1514 0.7406,-0.0674 0.5596,-0.3038 0.2826,-0.0748 1.3732,-0.927 0.4298,-0.9338 0.1012,-0.1046 0.1128,0.006 0.6186,-0.6764 0.1358,-0.2992 0.1586,-0.9768 0.315,-0.6578 0.129,-0.4458 0.0334,-0.7506 -0.086,-0.8406 0.1616,-0.3474 0.2758,-1.3736 -0.0508,-1.2902 0.173,-1.5756 -0.2714,-2.2112 0.1492,-1.9006 -0.3958,-2.2506 -0.1596,-0.3492 -0.3504,-1.2202 -0.1882,-1.8362 -0.2636,-0.4802 -0.4046,-0.441 -0.133,-0.0706 -0.9558,0.2442 -0.7724,0.5826 -0.3208,0.1412 -1.7586,0.4356 -0.2718,0.207 -0.2904,0.1202 -0.2244,0.0138 -1.0876,0.4726 -2.071,0.7248 -0.9134,0.1138 -0.2992,0.0954 -1.7868,0.1174 -0.6884,0.1164 -0.859,0.276 -0.5448,-0.0176 -0.3042,0.174 -0.3316,0.0258 -1.194,-0.1786 -1.1768,-0.0116 -1.7682,0.1354 -1.3364,0.2146 -0.831,-0.162 -1.9852,-0.1624 -0.8318,0.0256 -1.116,-0.0614 -1.6378,0.0834 -0.743,-0.0496 -4.3524,0.1334 -1.6654,-0.1984 -2.2486,-0.0362 -1.4122,-0.1284 -1.6074,0.0124 -1.6356,0.138 -1.5784,0.024 -1.6976,-0.09 -0.443,0.1316 -0.5096,0.0182 -0.505,-0.1736 -4.5496,-0.5758 -2.455,-0.0202 -0.9632,0.122 -0.4372,-0.1092 -0.782,-0.0266 -1.9328,-0.2196 -1.5422,-0.2918 -0.806,-0.003 -2.4664,-0.439 -1.7946,-0.1282 -1.071,-0.142 -1.5744,0.0184 -3.4626,-0.4244 -2.2626,0.0664 -0.9354,0.1504 -0.6308,-0.0652 -0.8626,0.1876 -1.574,0.0766 -0.8924,0.2204 -0.641,0.0708 -1.6136,0.6054 -0.5122,0.4968 -1.0884,1.2418 -0.2732,0.4752 -0.127,0.532 0.008,0.4092 0.7864,1.9686 0.4496,1.8572 0.5534,1.2956 0.4626,0.8446 0.218,0.9818 0.1724,0.4016 0.7294,0.6132 0.7158,0.3906 0.4046,0.1524 1.0474,0.2358 0.6424,10e-4 1.6046,-0.165 1.069,0.0326 1.2708,0.1906 0.578,-0.0592 1.9864,0.1292 1.436,-0.2326 0.4634,-0.1528 0.491,-0.0246 0.4632,0.1288 1.4014,4e-4 0.4922,0.065 0.4696,0.2062 0.4286,0.1068 1.8154,0.276 0.8292,0.0418 2.5652,-0.1146 1.8262,0.2324 1.1332,0.2506 1.3864,0.1478 3.0398,0.1748 5.7062,0.9476 0.7334,-0.0306 0.786,-0.1492 1.3868,-0.1198 3.2362,0.1094 0.9422,0.1016 2.7622,0.5048 1.8428,0.4158 0.3706,0.005 1.8414,-0.5498 0.4652,-0.082 0.5808,-0.0208 3.0362,0.1564 0.8412,0.0568 2.654,0.4224 0.2756,0.0582 0.1984,0.1632 0.1956,-0.0138 0.1824,-0.1602 1.0608,-0.0464 1.0212,0.158 2.1884,0.149 2.3888,0.2522 0.9468,0.002 0.22,0.1004 0.4316,-0.1142 1.6392,0.1072 1.778,0.3584 0.606,-0.002 0.238,0.1076 1.4004,-0.3572 1.52,-0.1238 -0.0656,-0.0764 0.2558,-0.0574 0.1974,-0.1894 0.136,-0.3908 0.3372,-0.6224 0.924,-1.0104 -0.0244,-0.1874 0.1142,-0.3658 0.0254,-1.3728 0.055,-0.3874 0.1974,-0.5342 0.0766,-0.7562 -0.0722,-0.6822 0.0338,-1.7574 0.0996,-0.5092 0.3218,-1.011 -0.0184,-0.1886 -0.5748,-1.4332 -0.2354,-1.2478 -0.169,-0.4142 -0.2972,-0.1514 -0.469,-0.1124 -0.7216,-0.0312 -0.7892,0.1358 -0.5868,0.2986 -0.838,0.7106 -0.5728,0.1422 -0.632,0.007 -0.8202,0.1648 -1.3542,0.9752 -0.6046,0.2098 -0.2808,0.199 -1.0086,0.2136 -2.2222,-0.0204 -1.636,0.289 -0.8568,0.0452 -0.4864,0.1202 -1.2514,-0.0356 -0.9778,0.0916 -2.0378,0.0642 -4.9326,0.0658 -0.9878,0.1342 -0.4466,-0.0262 -0.916,0.0694 -0.7328,0.01 -0.871,-0.1062 -0.9776,0.067 -0.9572,-0.1498 -1.9222,0.0666 -4.1798,-0.1416 -3.3194,-0.2976 -0.8754,0.004 -1.001,-0.1664 -0.519,-0.0196 -2.8738,0.0884 -1.7328,-0.064 -4.2164,-0.6876 -1.9822,0.0536 -0.6898,-0.0468 -1.2546,0.1036 -0.8116,-0.0326 -1.0196,-0.0596 -0.869,-0.1298 -0.5202,-0.148 -2.634,-0.463 -0.7846,-0.0198 -0.6868,0.1124 -0.9292,-0.125 -3.074,0.0152 -0.4696,-0.066 -0.438,-0.1764 -0.4268,-0.0788 -1.1372,-0.0206 -0.7186,0.1058 -0.3048,-0.1198 -0.2942,0.0146 -1.2206,0.1894 -2.465,0.1912 -0.5994,0.2586 -0.2576,0.2676 -0.1268,0.4056 -0.05,0.474 0.1358,0.4754 0.2876,0.3612 0.3686,0.303 0.1732,0.2908 0.211,0.191 0.1724,0.0286 0.271,0.2652 0.131,0.0404 2.6294,0.0942 1.7478,0.1498 1.4222,0.2038 0.3394,0.01 0.897,-0.2136 0.935,-0.0342 2.9688,0.1822 0.5118,0.1292 0.9572,0.1236 0.8314,-0.0888 0.3602,0.1342 2.104,-0.1306 1.0756,0.0104 1.7268,0.1828 0.538,-0.0216 0.9228,0.156 1.7894,0.137 0.5276,0.12 1.0566,-0.016 1.2494,0.0972 6.2052,0.6202 0.8688,0.039 1.664,-0.1928 1.4524,0.1424 1.8156,0.3192 3.1858,0.9 0.9476,0.1988 0.3436,0.1374 0.2852,-0.0502 0.517,-0.314 0.3064,-0.1068 0.7984,-0.133 1.0814,-0.0588 1.7872,0.2582 2.8828,0.6214 0.486,-0.0468 0.1556,0.064 0.3492,-0.1688 0.7178,-0.1814 1.673,-0.1388 1.208,-0.0214 1.4544,0.0958 1.7066,0.251 1.289,-0.1332 3.1608,0.1134 0.3982,0.1488 -0.119,-0.0444 0.1166,-0.0584 0.8556,-0.1108 0.958,0.0406 0.671,-0.01 0.006,-0.0416 -0.1382,0.1142 0.2928,-0.1656 1.5334,-0.1894 -0.0408,-0.061 0.1024,-0.0992 0.0564,0.1152 0.3166,-0.258 1.2526,-0.1776 0.017,-0.1646 0.5468,-0.239 0.4186,-0.447 0.4706,-0.1722 0.2298,0.0288 0.1184,-0.16 -0.0558,-0.2094 0.0626,-0.2032 0.1692,0.002 0.273,-0.3898 -0.007,-0.2802 0.0726,0.0654 0.0376,-0.1088 8e-4,0.0604 -0.0646,-0.0208 -0.1308,0.1536"
     id="path2240" />
  <path
     fill="none"
     stroke="#000000"
     stroke-width="1.2"
     stroke-linecap="butt"
     stroke-linejoin="round"
     d="m 46.239999,27.07 0.028,0.2582 0.048,-0.0724 -0.156,-0.1594 -0.238,-0.4308 -0.58,-1.2666 -0.676,-1.1974 -0.544,-0.7316 -0.244,-0.1938 -0.242,-0.0946 -0.208,0.0302 -0.332,0.3464 -0.586,1.0708 -0.604,1.934 -0.39,1.8246 0.026,0.3954 0.072,0.2534 0.114,0.097 0.428,-0.1178 1.202,-0.8952 0.95,-1.041 0.898,-1.1832 1.216,-1.9928 0.186,-0.4162"
     id="path2096" />
  <path
     fill="none"
     stroke="#000000"
     stroke-width="1.2"
     stroke-linecap="butt"
     stroke-linejoin="round"
     d="m 52.561999,20.1416 0.11,-0.007 0.238,0.145 0.482,0.493 0.662,0.8448 1.656,2.7036 1.624,2.4724 0.892,0.9812 0.308,0.183"
     id="path2100" />
  <path
     fill="none"
     stroke="#000000"
     stroke-width="1.2"
     stroke-linecap="butt"
     stroke-linejoin="round"
     d="m 58.029999,19.6168 -0.448,0.26 -0.324,0.3622 -3.056,4.1796 -1.684,2.0428 -1.026,1.0466 -0.05,0.1254 0.238,-0.1412"
     id="path2104" />
  <path
     fill="none"
     stroke="#000000"
     stroke-width="1.2"
     stroke-linecap="butt"
     stroke-linejoin="round"
     d="m 66.125999,16.8296 -0.228,0.1292 -0.41,-0.0548 -1.06,0.2506 -1.112,0.4112 -0.768,0.0518 0.084,0.0602 -0.092,0.403 -0.102,2.0206 -0.186,6.797 0.062,1.5248 0.282,0.672 1.44,0.009 0.774,-0.038 0.168,-0.0682 0.122,0.032 0.106,0.2428 -0.056,0.2114"
     id="path2108" />
  <path
     fill="none"
     stroke="#000000"
     stroke-width="1.2"
     stroke-linecap="butt"
     stroke-linejoin="round"
     d="m 68.583999,21.1852 -0.038,0.3684 -0.172,0.571 -0.242,0.215 -0.3,0.409 -0.168,0.3562 -0.248,0.928 -0.062,0.94 0.174,0.8034 0.172,0.2988 0.184,0.15 0.238,0.0764 0.618,-0.0542 0.712,-0.1868 0.666,-0.3566 0.61,-0.4682 0.482,-0.8148 0.098,-0.7344 -0.02,-0.4226 -0.08,-0.3834 -0.354,-0.6758 -0.61,-0.5744 -0.388,-0.1736 -0.758,-0.0584 -0.286,0.041"
     id="path2112" />
  <path
     fill="none"
     stroke="#000000"
     stroke-width="1.2"
     stroke-linecap="butt"
     stroke-linejoin="round"
     d="m 70.567999,17.305 -0.252,0.0128 0.09,0.026 0.998,-0.3842 0.936,-0.2702 0.536,-0.0492 1.13,0.0766 0.958,-0.0696 -0.084,0.1558 0.536,3.0088 0.63,5.64 0.45,1.1492 0.546,0.6834 0.302,0.1808 -0.106,-0.0608 -0.098,0.053 -0.162,0.2748 -0.322,0.3066 -0.438,0.3394 -1.096,0.6518 -2.114,1.0786 1.364,-1.0036"
     id="path2116" />
  <path
     fill="none"
     stroke="#000000"
     stroke-width="1.2"
     stroke-linecap="butt"
     stroke-linejoin="round"
     d="m 84.627999,23.8468 v 0.1086 l 0.856,-0.008 0.634,-0.1422 0.80597,-0.256 1.468,-0.8058"
     id="path2120" />
  <path
     fill="none"
     stroke="#000000"
     stroke-width="1.2"
     stroke-linecap="butt"
     stroke-linejoin="round"
     d="m 86.443999,25.5368 -0.062,-0.086 v -0.2622 l 0.32797,-2.0094 0.066,-2.0318"
     id="path2124" />
  <path
     fill="none"
     stroke="#000000"
     stroke-width="1.2"
     stroke-linecap="butt"
     stroke-linejoin="round"
     d="m 97.703969,19.3846 0.286,0.8786 3.770001,4.6484 1.186,1.1062 0.644,0.5006 0.182,0.2628 -0.006,0.1284 -0.084,0.0306"
     id="path2128" />
  <path
     fill="none"
     stroke="#000000"
     stroke-width="1.2"
     stroke-linecap="butt"
     stroke-linejoin="round"
     d="m 103.75197,18.7354 -0.374,0.2732 -0.726,0.8044 -1.678,2.1892 -2.218001,2.5498 -1.276,1.1674 -0.81,0.6162 -0.356,0.1468 -0.034,-0.1156 0.438,-0.5636 0.37,-0.2966"
     id="path2132" />
  <path
     fill="none"
     stroke="#000000"
     stroke-width="1.2"
     stroke-linecap="butt"
     stroke-linejoin="round"
     d="m 111.19997,16.8394 0.216,-0.1568 0.02,-0.1342 -0.33,0.098 -0.982,-0.1126 -1.162,0.1556 -0.148,0.1038 -0.114,0.2368 -0.226,1.0594 -0.2,2.9318 -0.33,2.4452 -0.202,1.2564 -0.462,2.065 -0.246,1.67 0.058,0.186 0.18,0.203 0.304,-0.0596 1.554,0.0516 1.474,-0.1718 0.476,0.0556 0.038,0.0564 -0.134,0.224"
     id="path2136" />
  <path
     fill="none"
     stroke="#000000"
     stroke-width="1.2"
     stroke-linecap="butt"
     stroke-linejoin="round"
     d="m 113.94997,21.4912 0.416,0.6784 0.226,0.8478 0.066,0.5326 -0.178,1.7168 -0.52,1.7656 0.044,0.0634 0.084,-0.0408 0.06,-0.1334"
     id="path2140" />
  <path
     fill="none"
     stroke="#000000"
     stroke-width="1.2"
     stroke-linecap="butt"
     stroke-linejoin="round"
     d="m 116.25597,17.2564 -0.068,-0.0562 0.078,0.0564 0.334,0.0196 0.616,-0.0458 1.87,-0.4674 1.3878,-0.1934 0.6326,0.0648 0.333,0.1538 -0.171,0.2822 -0.3878,1.4272 -0.1698,1.167 -0.0654,1.3662 0.0762,1.5482 0.6108,3.346 0.1488,1.1142 0.0398,0.9394 0.2652,1.4546 0.0376,0.6538 -0.0598,0.3016 -0.7646,0.5872 -3.5014,1.5288 -0.354,0.0302 0.426,-0.1002 0.336,-0.1772"
     id="path2144" />
  <path
     fill="none"
     stroke="#000000"
     stroke-width="1.2"
     stroke-linecap="butt"
     stroke-linejoin="round"
     d="m 140.88437,23.6914 0.8208,0.0898 2.3944,-0.152 0.753,0.3684 0.2054,0.1952 0.1416,-0.3026"
     id="path2148" />
  <path
     fill="none"
     stroke="#000000"
     stroke-width="1.2"
     stroke-linecap="butt"
     stroke-linejoin="round"
     d="m 143.17937,25.6596 0.0234,0.04 0.034,-0.097 -0.2024,-2.388 0.1656,-0.8302 0.2462,-0.3022"
     id="path2152" />
  <path
     fill="none"
     stroke="#000000"
     stroke-width="1.2"
     stroke-linecap="butt"
     stroke-linejoin="round"
     d="m 39.007999,12.6048 0.374,-0.578 0.064,-0.0434 0.036,0.0504 -0.382,0.6052 -1.304,2.8086 -0.8,2.1304 -0.526,1.7798 -0.458,2.3196 -0.15,1.2464 -0.124,1.3536 -0.066,2.9462 0.206,2.8864 0.498,2.3718 0.296,0.913 0.296,0.7004 0.38,0.5792 1.232,1.4346 0.888,0.7236"
     id="path2156" />
  <path
     fill="none"
     stroke="#000000"
     stroke-width="1.2"
     stroke-linecap="butt"
     stroke-linejoin="round"
     d="m 123.78797,11.059 1.1176,0.91 0.8538,0.849 0.5094,0.6552 0.5376,0.8878 0.4976,1.2068 0.4326,1.532 0.326,1.8228 0.2454,1.9718 0.2616,3.7906 -0.016,1.5788 -0.0924,1.3616 -0.1692,1.294 -0.489,2.3878 -1.7216,4.6068 0.006,0.1616 0.1506,-0.0612"
     id="path2160" />
  <path
     fill="none"
     stroke="#000000"
     stroke-width="1.2"
     stroke-linecap="butt"
     stroke-linejoin="round"
     d="m 19.153999,28.4656 0.112,0.0164 0.228,0.2586 -0.67,-1.531 -0.476,-0.7994 -0.638,-0.7748 -0.796,-0.6364 -0.87,-0.5176 -0.446,-0.2282 -0.682,-0.1008 -0.682,0.1898 -0.326,0.4638 -0.276,0.7904 -0.24,1.0776 -0.078,0.6448 0.01,0.6774 0.094,1.2462 0.298,0.9432 0.21,0.2776 0.24,0.1068 0.264,0.0124 0.304,-0.112 0.774,-0.551 1.044,-1.0304 1.55,-2.3134 0.396,-0.7116 0.478,-1.1184 0.164,-0.7458 v -0.239 l -0.118,-0.128"
     id="path2164" />
  <path
     fill="none"
     stroke="#000000"
     stroke-width="1.2"
     stroke-linecap="butt"
     stroke-linejoin="round"
     d="m 20.937999,18.354 0.108,-0.0142 0.17,-0.3174 0.434,-0.4372 0.188,-0.0626 0.318,0.0894 0.108,0.131 0.228,0.5902 0.07,0.4016 -0.028,0.9656 -0.176,0.956 -0.344,0.967 -0.042,0.339 0.08,0.0598 0.16,-0.2598 0.208,0.0992 0.584,0.0918 0.912,-0.0918 0.296,0.0682 0.26,0.2842"
     id="path2168" />
  <path
     fill="none"
     stroke="#000000"
     stroke-width="1.2"
     stroke-linecap="butt"
     stroke-linejoin="round"
     d="m 164.58857,25.3398 0.0698,-0.4068 -0.0148,0.1186 -0.521,-1.309 -0.5284,-0.924 -0.6776,-0.7436 -0.4598,-0.339 -0.2402,-0.0564 -0.2124,0.0348 -0.3742,0.1984 -0.4086,0.4634 -0.41,0.641 -0.5422,1.28 -0.108,0.439 -0.0752,0.8074 0.0812,0.3392 0.0986,-0.0222 0.627,-0.3606 0.6496,-0.5782 0.8218,-0.9254 0.7898,-1.0206 1.389,-2.195"
     id="path2172" />
  <path
     fill="none"
     stroke="#000000"
     stroke-width="1.2"
     stroke-linecap="butt"
     stroke-linejoin="round"
     d="m 169.99877,18.2504 -0.0762,-0.5388 0.9376,1.1808 1.5078,2.2336 1.396,2.233 1.7338,2.2424 0.1892,0.3638 -0.0468,0.1308"
     id="path2176" />
  <path
     fill="none"
     stroke="#000000"
     stroke-width="1.2"
     stroke-linecap="butt"
     stroke-linejoin="round"
     d="m 175.03597,16.638 -0.4838,1.0368 -2.9444,4.677 -0.6378,0.857 -1.1498,1.3632 -0.888,0.9962 -0.523,0.4356 1.4968,-1.1704"
     id="path2180" />
  <path
     fill="none"
     stroke="#000000"
     stroke-width="1.2"
     stroke-linecap="butt"
     stroke-linejoin="round"
     d="m 182.15857,15.496 0.007,0.0668 0.002,-0.044 -0.1966,-0.01 -0.7386,0.229 -1.2892,0.5496 -0.9034,0.4932 -0.1252,0.185 -0.1214,0.4704 -0.0746,1.1508 0.03,6.2978 0.103,1.3518 0.145,0.389 0.1748,0.2616 0.3896,0.2746 1.8536,0.4816 0.6526,0.0572 0.1442,0.0824 -0.0264,0.0418"
     id="path2184" />
  <path
     fill="none"
     stroke="#000000"
     stroke-width="1.2"
     stroke-linecap="butt"
     stroke-linejoin="round"
     d="m 183.45197,19.9082 -0.3826,0.2076 -0.0132,-0.1218 0.4972,-0.6636 0.7008,-0.5758 0.213,-0.0628 0.1942,0.0402 0.385,0.2188 0.2152,0.5272 0.1022,0.7902 -0.1622,1.0004 -0.1938,0.527 -0.4394,0.87 -0.5784,0.7168 -0.1398,0.0522 0.1296,-0.1448 0.2408,-0.0736 1.2402,0.0854 0.3528,0.137 0.289,0.323 0.2126,0.124"
     id="path2188" />
  <path
     fill="none"
     stroke="#000000"
     stroke-width="1.2"
     stroke-linecap="butt"
     stroke-linejoin="round"
     d="m 186.60477,16.1088 v 0.052 l 0.0874,-0.117 0.8056,-0.2774 1.0604,-0.1808 1.2324,-0.159 0.1478,0.008 0.2108,0.1238 -0.0322,0.636 0.06,0.5736 0.5036,2.6804 0.4784,4.6998 0.6674,2.5442 -0.0132,0.4844 -0.154,0.5054 -0.635,0.4868 -1.4316,0.5136 -0.964,0.2466 -0.2004,0.0342 -0.1224,-0.0286 -0.0306,-0.0746 0.2066,-0.1456 0.1602,-8e-4"
     id="path2192" />
  <path
     fill="none"
     stroke="#000000"
     stroke-width="1.2"
     stroke-linecap="butt"
     stroke-linejoin="round"
     d="m 201.22857,22.0414 0.1648,0.0366 0.0838,-0.0704 0.267,-0.0378 2.321,-0.2264 0.3714,0.0442 0.1152,0.0784 0.0828,0.282"
     id="path2196" />
  <path
     fill="none"
     stroke="#000000"
     stroke-width="1.2"
     stroke-linecap="butt"
     stroke-linejoin="round"
     d="m 202.86097,24.323 -0.0824,-0.0632 -0.1056,-0.502 -0.002,-0.9474 0.4206,-2.1296 0.1052,-1.2524"
     id="path2200" />
  <path
     fill="none"
     stroke="#000000"
     stroke-width="1.2"
     stroke-linecap="butt"
     stroke-linejoin="round"
     d="m 216.10237,18.9814 1.382,1.3544 0.4824,0.6748 2.9928,5.1044 0.7994,0.8106"
     id="path2204" />
  <path
     fill="none"
     stroke="#000000"
     stroke-width="1.2"
     stroke-linecap="butt"
     stroke-linejoin="round"
     d="m 221.24977,18.8148 -0.7792,0.5328 -0.4098,0.4168 -1.8132,2.565 -3.2188,3.9552 -0.8012,0.8434 -0.217,0.1396 -0.1064,-0.008 -0.0166,-0.1426"
     id="path2208" />
  <path
     fill="none"
     stroke="#000000"
     stroke-width="1.2"
     stroke-linecap="butt"
     stroke-linejoin="round"
     d="m 228.36997,17.2908 0.0148,-0.066 -0.4064,-0.0694 -0.5244,-0.0114 -0.5234,0.0784 -1.194,0.3118 -0.1468,0.075 -0.194,0.2228 -0.0426,0.4128 0.1242,1.7478 0.009,1.9354 -0.166,2.1112 -0.1354,1.0064 -0.3662,1.7374 -0.4546,1.2644 -0.2982,1.1922 0.0196,0.2524 0.2522,0.4118 0.5276,0.2698 1.4554,0.293 1.8042,0.0404 0.1476,0.0386 0.0676,0.1026"
     id="path2212" />
  <path
     fill="none"
     stroke="#000000"
     stroke-width="1.2"
     stroke-linecap="butt"
     stroke-linejoin="round"
     d="m 230.07997,21.1458 0.032,0.3484 -0.0886,0.3892 -0.1914,-0.1272 -0.27,0.2004 0.009,-0.1222 0.1762,-0.1692 0.6258,-0.4076 0.7916,-0.1548 0.2336,0.009 0.2046,0.0972 0.2744,0.3928 0.081,0.234 -0.0814,0.5292 -0.1146,0.312 -0.3998,0.6436 -0.4272,0.4272 -0.3048,0.0652 -0.036,-0.0646 0.0486,-0.0758 0.3974,-0.2304 0.968,-0.0852 0.2794,0.116 0.4294,0.603 0.2002,0.6924 0.0208,0.3714 -0.1168,0.7554 -0.1348,0.3842 -0.4514,0.7084 -0.2674,0.275 -0.2938,0.1826 -0.4648,0.1402 -0.4138,-0.0374 -0.247,-0.181 -0.0382,-0.0876 0.1582,-0.212 0.0538,-0.054 0.1084,0.0184"
     id="path2216" />
  <path
     fill="none"
     stroke="#000000"
     stroke-width="1.2"
     stroke-linecap="butt"
     stroke-linejoin="round"
     d="m 233.36737,17.5044 0.03,-0.0498 0.0118,0.0606 0.5836,0.005 1.6278,-0.3812 1.1192,-0.1604 0.948,-0.0772 1.0502,0.1064 -0.049,0.1058 0.1048,0.4944 0.2392,2.6652 0.0732,1.7196 -0.3104,3.6762 -0.007,1.375 0.0788,0.6174 0.2746,0.8662 0.0842,0.5244 0.005,0.5822 -0.1066,0.1996 -0.3336,0.2362 -0.8328,0.0836 -2.1874,0.807 0.4862,-0.264 0.1868,-0.3184"
     id="path2220" />
  <path
     fill="none"
     stroke="#000000"
     stroke-width="1.2"
     stroke-linecap="butt"
     stroke-linejoin="round"
     d="m 159.76917,12.2544 -0.5738,1.2634 -0.525,1.6496 -1.2924,3.4676 -0.3798,1.9668 -0.24,2.151 -0.1044,1.593 0.0984,3.5344 0.1872,1.002 0.5036,1.159 1.1846,2.2616 0.4214,1.1072 0.5694,0.8814"
     id="path2228" />
  <path
     fill="none"
     stroke="#000000"
     stroke-width="1.2"
     stroke-linecap="butt"
     stroke-linejoin="round"
     d="m 241.40317,13.6276 0.0284,-0.1274 -0.107,-0.2512"
     id="path2232" />
  <path
     fill="none"
     stroke="#000000"
     stroke-width="1.2"
     stroke-linecap="butt"
     stroke-linejoin="round"
     d="m 241.20777,13.4976 -0.0488,0.012 0.012,0.0962 0.1896,0.8094 0.7572,1.9422 0.9088,1.9144 0.5728,1.9362 0.3138,2.5206 0.2576,3.3352 0.0686,2.0412 -0.1298,2.2944 -0.2662,1.5794 -0.6366,1.988 -1.5282,4.1342 -0.1914,0.3514 0.2052,-0.2682"
     id="path2236" />
</svg>
