<?xml version="1.0" encoding="UTF-8" standalone="no"?>
<svg
   version="1.1"
   viewBox="0.0 0.0 460.0 440.0"
   fill="none"
   stroke="none"
   stroke-linecap="square"
   stroke-miterlimit="10"
   width="460"
   height="440"
   id="svg97"
   sodipodi:docname="self-speedup.svg"
   inkscape:version="1.2.2 (b0a84865, 2022-12-01)"
   xmlns:inkscape="http://www.inkscape.org/namespaces/inkscape"
   xmlns:sodipodi="http://sodipodi.sourceforge.net/DTD/sodipodi-0.dtd"
   xmlns="http://www.w3.org/2000/svg"
   xmlns:svg="http://www.w3.org/2000/svg">
  <defs
     id="defs101">
    <rect
       x="424.21173"
       y="125.93786"
       width="114.89068"
       height="29.459147"
       id="rect506" />
    <rect
       x="424.94821"
       y="212.84234"
       width="142.14038"
       height="14.729575"
       id="rect450" />
    <rect
       x="410.21863"
       y="123.72842"
       width="151.71461"
       height="27.249712"
       id="rect390" />
    <rect
       x="422.00229"
       y="217.99769"
       width="114.89068"
       height="24.303797"
       id="rect384" />
  </defs>
  <sodipodi:namedview
     id="namedview99"
     pagecolor="#ffffff"
     bordercolor="#000000"
     borderopacity="0.25"
     inkscape:showpageshadow="2"
     inkscape:pageopacity="0.0"
     inkscape:pagecheckerboard="0"
     inkscape:deskcolor="#d1d1d1"
     showgrid="false"
     inkscape:zoom="0.93014655"
     inkscape:cx="190.83014"
     inkscape:cy="232.22147"
     inkscape:window-width="1366"
     inkscape:window-height="858"
     inkscape:window-x="56"
     inkscape:window-y="37"
     inkscape:window-maximized="0"
     inkscape:current-layer="svg97" />
  <path
     stroke="#333333"
     stroke-width="1.0"
     stroke-linecap="butt"
     d="M72.5 34.5L72.5 377.5"
     fill-rule="nonzero"
     id="path4" />
  <path
     stroke="#cccccc"
     stroke-width="1.0"
     stroke-linecap="butt"
     d="M120.5 34.5L120.5 377.5"
     fill-rule="nonzero"
     id="path6" />
  <path
     stroke="#cccccc"
     stroke-width="1.0"
     stroke-linecap="butt"
     d="M168.5 34.5L168.5 377.5"
     fill-rule="nonzero"
     id="path8" />
  <path
     stroke="#cccccc"
     stroke-width="1.0"
     stroke-linecap="butt"
     d="M215.5 34.5L215.5 377.5"
     fill-rule="nonzero"
     id="path10" />
  <path
     stroke="#cccccc"
     stroke-width="1.0"
     stroke-linecap="butt"
     d="M263.5 34.5L263.5 377.5"
     fill-rule="nonzero"
     id="path12" />
  <path
     stroke="#cccccc"
     stroke-width="1.0"
     stroke-linecap="butt"
     d="M311.5 34.5L311.5 377.5"
     fill-rule="nonzero"
     id="path14" />
  <path
     stroke="#cccccc"
     stroke-width="1.0"
     stroke-linecap="butt"
     d="M359.5 34.5L359.5 377.5"
     fill-rule="nonzero"
     id="path16" />
  <path
     stroke="#cccccc"
     stroke-width="1.0"
     stroke-linecap="butt"
     d="M406.5 34.5L406.5 377.5"
     fill-rule="nonzero"
     id="path18" />
  <path
     stroke="#333333"
     stroke-width="1.0"
     stroke-linecap="butt"
     d="M72.5 377.5L430.5 377.5"
     fill-rule="nonzero"
     id="path20" />
  <path
     stroke="#cccccc"
     stroke-width="1.0"
     stroke-linecap="butt"
     d="M72.5 331.5L430.5 331.5"
     fill-rule="nonzero"
     id="path22" />
  <path
     stroke="#cccccc"
     stroke-width="1.0"
     stroke-linecap="butt"
     d="M72.5 285.5L430.5 285.5"
     fill-rule="nonzero"
     id="path24" />
  <path
     stroke="#cccccc"
     stroke-width="1.0"
     stroke-linecap="butt"
     d="M72.5 240.5L430.5 240.5"
     fill-rule="nonzero"
     id="path26" />
  <path
     stroke="#cccccc"
     stroke-width="1.0"
     stroke-linecap="butt"
     d="M72.5 194.5L430.5 194.5"
     fill-rule="nonzero"
     id="path28" />
  <path
     stroke="#cccccc"
     stroke-width="1.0"
     stroke-linecap="butt"
     d="M72.5 148.5L430.5 148.5"
     fill-rule="nonzero"
     id="path30" />
  <path
     stroke="#cccccc"
     stroke-width="1.0"
     stroke-linecap="butt"
     d="M72.5 102.5L430.5 102.5"
     fill-rule="nonzero"
     id="path32" />
  <path
     stroke="#cccccc"
     stroke-width="1.0"
     stroke-linecap="butt"
     d="M72.5 56.5L430.5 56.5"
     fill-rule="nonzero"
     id="path34" />
  <clipPath
     id="id_0">
    <path
       d="M72.5 34.0L430.6807 34.0L430.6807 377.5L72.5 377.5L72.5 34.0Z"
       clip-rule="nonzero"
       id="path36" />
  </clipPath>
  <path
     stroke="#4285f4"
     stroke-width="2.0"
     stroke-linecap="butt"
     clip-path="url(#id_0)"
     d="M77.27574 372.92L120.25742 337.1083L168.01485 315.7388L215.77228 293.13666L263.5297 268.47488L311.28714 246.1159L359.04456 224.89139L416.35345 198.54013L425.90494 162.67152"
     fill-rule="nonzero"
     id="path39" />
  <path
     fill="#4285f4"
     clip-path="url(#id_0)"
     d="M81.77574 372.92C81.77574 375.40527 79.761024 377.42 77.27574 377.42C74.79046 377.42 72.77574 375.40527 72.77574 372.92C72.77574 370.43472 74.79046 368.42 77.27574 368.42C79.761024 368.42 81.77574 370.43472 81.77574 372.92Z"
     fill-rule="nonzero"
     id="path41" />
  <path
     fill="#4285f4"
     clip-path="url(#id_0)"
     d="M124.75742 337.1083C124.75742 339.5936 122.74271 341.6083 120.25742 341.6083C117.77215 341.6083 115.75742 339.5936 115.75742 337.1083C115.75742 334.62302 117.77215 332.6083 120.25742 332.6083C122.74271 332.6083 124.75742 334.62302 124.75742 337.1083Z"
     fill-rule="nonzero"
     id="path43" />
  <path
     fill="#4285f4"
     clip-path="url(#id_0)"
     d="M172.51485 315.7388C172.51485 318.2241 170.50014 320.2388 168.01485 320.2388C165.52957 320.2388 163.51485 318.2241 163.51485 315.7388C163.51485 313.2535 165.52957 311.2388 168.01485 311.2388C170.50014 311.2388 172.51485 313.2535 172.51485 315.7388Z"
     fill-rule="nonzero"
     id="path45" />
  <path
     fill="#4285f4"
     clip-path="url(#id_0)"
     d="M220.27228 293.13666C220.27228 295.62192 218.25755 297.63666 215.77228 297.63666C213.287 297.63666 211.27228 295.62192 211.27228 293.13666C211.27228 290.65137 213.287 288.63666 215.77228 288.63666C218.25755 288.63666 220.27228 290.65137 220.27228 293.13666Z"
     fill-rule="nonzero"
     id="path47" />
  <path
     fill="#4285f4"
     clip-path="url(#id_0)"
     d="M268.0297 268.47488C268.0297 270.96017 266.01498 272.97488 263.5297 272.97488C261.04443 272.97488 259.0297 270.96017 259.0297 268.47488C259.0297 265.98962 261.04443 263.97488 263.5297 263.97488C266.01498 263.97488 268.0297 265.98962 268.0297 268.47488Z"
     fill-rule="nonzero"
     id="path49" />
  <path
     fill="#4285f4"
     clip-path="url(#id_0)"
     d="M315.78714 246.1159C315.78714 248.60118 313.7724 250.6159 311.28714 250.6159C308.80185 250.6159 306.78714 248.60118 306.78714 246.1159C306.78714 243.63062 308.80185 241.6159 311.28714 241.6159C313.7724 241.6159 315.78714 243.63062 315.78714 246.1159Z"
     fill-rule="nonzero"
     id="path51" />
  <path
     fill="#4285f4"
     clip-path="url(#id_0)"
     d="M363.54456 224.89139C363.54456 227.37668 361.52985 229.39139 359.04456 229.39139C356.55927 229.39139 354.54456 227.37668 354.54456 224.89139C354.54456 222.40611 356.55927 220.39139 359.04456 220.39139C361.52985 220.39139 363.54456 222.40611 363.54456 224.89139Z"
     fill-rule="nonzero"
     id="path53" />
  <path
     fill="#4285f4"
     clip-path="url(#id_0)"
     d="M420.85345 198.54013C420.85345 201.02542 418.83875 203.04013 416.35345 203.04013C413.8682 203.04013 411.85345 201.02542 411.85345 198.54013C411.85345 196.05486 413.8682 194.04013 416.35345 194.04013C418.83875 194.04013 420.85345 196.05486 420.85345 198.54013Z"
     fill-rule="nonzero"
     id="path55" />
  <path
     fill="#4285f4"
     clip-path="url(#id_0)"
     d="M430.40494 162.67152C430.40494 165.1568 428.39023 167.17152 425.90494 167.17152C423.41968 167.17152 421.40494 165.1568 421.40494 162.67152C421.40494 160.18623 423.41968 158.17152 425.90494 158.17152C428.39023 158.17152 430.40494 160.18623 430.40494 162.67152Z"
     fill-rule="nonzero"
     id="path57" />
  <path
     fill="#000000"
     d="M164.96535 430.125L164.96535 417.23438L166.71535 417.23438L173.48097 427.35938L173.48097 417.23438L175.10597 417.23438L175.10597 430.125L173.3716 430.125L166.59035 420.0L166.59035 430.125L164.96535 430.125ZM183.88722 430.125L183.88722 428.75Q182.8091 430.34375 180.9341 430.34375Q180.10597 430.34375 179.38722 430.03125Q178.66847 429.70312 178.32472 429.23438Q177.98097 428.75 177.84035 428.04688Q177.7466 427.57812 177.7466 426.57812L177.7466 420.79688L179.32472 420.79688L179.32472 425.96875Q179.32472 427.20312 179.41847 427.64062Q179.57472 428.26562 180.0591 428.625Q180.54347 428.96875 181.2466 428.96875Q181.96535 428.96875 182.59035 428.60938Q183.21535 428.25 183.46535 427.625Q183.73097 426.98438 183.73097 425.79688L183.73097 420.79688L185.3091 420.79688L185.3091 430.125L183.88722 430.125ZM187.77785 430.125L187.77785 420.79688L189.19972 420.79688L189.19972 422.09375Q189.63722 421.42188 190.35597 421.0Q191.09035 420.57812 192.02785 420.57812Q193.0591 420.57812 193.71535 421.01562Q194.38722 421.4375 194.65285 422.21875Q195.76222 420.57812 197.54347 420.57812Q198.9341 420.57812 199.66847 421.35938Q200.41847 422.125 200.41847 423.71875L200.41847 430.125L198.85597 430.125L198.85597 424.25Q198.85597 423.29688 198.69972 422.875Q198.54347 422.45312 198.13722 422.20312Q197.73097 421.95312 197.1841 421.95312Q196.19972 421.95312 195.54347 422.60938Q194.90285 423.26562 194.90285 424.70312L194.90285 430.125L193.32472 430.125L193.32472 424.0625Q193.32472 423.0 192.9341 422.48438Q192.54347 421.95312 191.66847 421.95312Q190.9966 421.95312 190.4341 422.3125Q189.8716 422.65625 189.60597 423.32812Q189.35597 424.0 189.35597 425.28125L189.35597 430.125L187.77785 430.125ZM203.23097 430.125L201.76222 430.125L201.76222 417.23438L203.35597 417.23438L203.35597 421.84375Q204.35597 420.57812 205.90285 420.57812Q206.76222 420.57812 207.52785 420.9375Q208.3091 421.28125 208.79347 421.90625Q209.29347 422.53125 209.57472 423.42188Q209.85597 424.3125 209.85597 425.3125Q209.85597 427.71875 208.66847 429.03125Q207.4966 430.34375 205.82472 430.34375Q204.1841 430.34375 203.23097 428.95312L203.23097 430.125ZM203.21535 425.39062Q203.21535 427.0625 203.66847 427.8125Q204.41847 429.03125 205.69972 429.03125Q206.73097 429.03125 207.48097 428.14062Q208.2466 427.23438 208.2466 425.45312Q208.2466 423.625 207.51222 422.75Q206.79347 421.875 205.76222 421.875Q204.73097 421.875 203.96535 422.78125Q203.21535 423.6875 203.21535 425.39062ZM218.16847 427.125L219.8091 427.32812Q219.41847 428.75 218.3716 429.54688Q217.32472 430.34375 215.69972 430.34375Q213.65285 430.34375 212.44972 429.07812Q211.2466 427.8125 211.2466 425.53125Q211.2466 423.1875 212.44972 421.89062Q213.66847 420.57812 215.60597 420.57812Q217.48097 420.57812 218.66847 421.85938Q219.85597 423.125 219.85597 425.4375Q219.85597 425.57812 219.84035 425.85938L212.88722 425.85938Q212.96535 427.40625 213.7466 428.21875Q214.54347 429.03125 215.69972 429.03125Q216.57472 429.03125 217.1841 428.57812Q217.8091 428.125 218.16847 427.125ZM212.96535 424.5625L218.1841 424.5625Q218.07472 423.39062 217.59035 422.79688Q216.82472 421.875 215.6216 421.875Q214.54347 421.875 213.79347 422.60938Q213.0591 423.34375 212.96535 424.5625ZM221.76222 430.125L221.76222 420.79688L223.1841 420.79688L223.1841 422.20312Q223.73097 421.21875 224.1841 420.90625Q224.65285 420.57812 225.19972 420.57812Q226.01222 420.57812 226.82472 421.09375L226.29347 422.5625Q225.69972 422.21875 225.1216 422.21875Q224.60597 422.21875 224.1841 422.53125Q223.77785 422.84375 223.60597 423.39062Q223.34035 424.23438 223.34035 425.23438L223.34035 430.125L221.76222 430.125ZM232.1841 425.45312Q232.1841 422.85938 233.63722 421.60938Q234.84035 420.57812 236.5591 420.57812Q238.4966 420.57812 239.71535 421.84375Q240.9341 423.10938 240.9341 425.32812Q240.9341 427.125 240.38722 428.15625Q239.85597 429.1875 238.82472 429.76562Q237.79347 430.34375 236.5591 430.34375Q234.60597 430.34375 233.38722 429.09375Q232.1841 427.82812 232.1841 425.45312ZM233.8091 425.45312Q233.8091 427.25 234.59035 428.14062Q235.3716 429.03125 236.5591 429.03125Q237.7466 429.03125 238.52785 428.14062Q239.3091 427.23438 239.3091 425.40625Q239.3091 423.67188 238.51222 422.78125Q237.73097 421.89062 236.5591 421.89062Q235.3716 421.89062 234.59035 422.78125Q233.8091 423.67188 233.8091 425.45312ZM243.15285 430.125L243.15285 422.01562L241.76222 422.01562L241.76222 420.79688L243.15285 420.79688L243.15285 419.79688Q243.15285 418.85938 243.32472 418.40625Q243.54347 417.78125 244.1216 417.40625Q244.69972 417.01562 245.7466 417.01562Q246.40285 417.01562 247.21535 417.17188L246.98097 418.5625Q246.48097 418.46875 246.04347 418.46875Q245.32472 418.46875 245.02785 418.78125Q244.73097 419.07812 244.73097 419.92188L244.73097 420.79688L246.54347 420.79688L246.54347 422.01562L244.73097 422.01562L244.73097 430.125L243.15285 430.125ZM252.77785 433.70312L252.77785 420.79688L254.21535 420.79688L254.21535 422.0Q254.73097 421.29688 255.3716 420.9375Q256.0122 420.57812 256.91846 420.57812Q258.12158 420.57812 259.02783 421.20312Q259.9497 421.8125 260.41846 422.9375Q260.8872 424.04688 260.8872 425.39062Q260.8872 426.8125 260.37158 427.96875Q259.85596 429.10938 258.87158 429.73438Q257.8872 430.34375 256.80908 430.34375Q256.02783 430.34375 255.38722 430.01562Q254.76222 429.67188 254.35597 429.15625L254.35597 433.70312L252.77785 433.70312ZM254.21535 425.51562Q254.21535 427.3125 254.9341 428.17188Q255.66847 429.03125 256.6997 429.03125Q257.7622 429.03125 258.5122 428.14062Q259.2622 427.25 259.2622 425.375Q259.2622 423.59375 258.52783 422.70312Q257.79346 421.8125 256.77783 421.8125Q255.76222 421.8125 254.98097 422.76562Q254.21535 423.70312 254.21535 425.51562ZM262.7622 430.125L262.7622 420.79688L264.18408 420.79688L264.18408 422.20312Q264.73096 421.21875 265.18408 420.90625Q265.65283 420.57812 266.1997 420.57812Q267.0122 420.57812 267.8247 421.09375L267.29346 422.5625Q266.6997 422.21875 266.12158 422.21875Q265.60596 422.21875 265.18408 422.53125Q264.77783 422.84375 264.60596 423.39062Q264.34033 424.23438 264.34033 425.23438L264.34033 430.125L262.7622 430.125ZM268.18408 425.45312Q268.18408 422.85938 269.6372 421.60938Q270.84033 420.57812 272.55908 420.57812Q274.49658 420.57812 275.71533 421.84375Q276.93408 423.10938 276.93408 425.32812Q276.93408 427.125 276.3872 428.15625Q275.85596 429.1875 274.8247 429.76562Q273.79346 430.34375 272.55908 430.34375Q270.60596 430.34375 269.3872 429.09375Q268.18408 427.82812 268.18408 425.45312ZM269.80908 425.45312Q269.80908 427.25 270.59033 428.14062Q271.37158 429.03125 272.55908 429.03125Q273.74658 429.03125 274.52783 428.14062Q275.30908 427.23438 275.30908 425.40625Q275.30908 423.67188 274.5122 422.78125Q273.73096 421.89062 272.55908 421.89062Q271.37158 421.89062 270.59033 422.78125Q269.80908 423.67188 269.80908 425.45312ZM284.87158 426.70312L286.41846 426.90625Q286.16846 428.51562 285.12158 429.4375Q284.0747 430.34375 282.54346 430.34375Q280.62158 430.34375 279.4497 429.09375Q278.29346 427.82812 278.29346 425.5Q278.29346 423.98438 278.79346 422.85938Q279.29346 421.71875 280.30908 421.15625Q281.34033 420.57812 282.54346 420.57812Q284.0747 420.57812 285.02783 421.35938Q285.99658 422.125 286.27783 423.53125L284.73096 423.76562Q284.5122 422.82812 283.9497 422.35938Q283.40283 421.875 282.60596 421.875Q281.41846 421.875 280.66846 422.73438Q279.91846 423.59375 279.91846 425.45312Q279.91846 427.32812 280.6372 428.1875Q281.35596 429.03125 282.52783 429.03125Q283.4497 429.03125 284.0747 428.46875Q284.6997 427.89062 284.87158 426.70312ZM294.16846 427.125L295.80908 427.32812Q295.41846 428.75 294.37158 429.54688Q293.3247 430.34375 291.6997 430.34375Q289.65283 430.34375 288.4497 429.07812Q287.24658 427.8125 287.24658 425.53125Q287.24658 423.1875 288.4497 421.89062Q289.66846 420.57812 291.60596 420.57812Q293.48096 420.57812 294.66846 421.85938Q295.85596 423.125 295.85596 425.4375Q295.85596 425.57812 295.84033 425.85938L288.8872 425.85938Q288.96533 427.40625 289.74658 428.21875Q290.54346 429.03125 291.6997 429.03125Q292.5747 429.03125 293.18408 428.57812Q293.80908 428.125 294.16846 427.125ZM288.96533 424.5625L294.18408 424.5625Q294.0747 423.39062 293.59033 422.79688Q292.8247 421.875 291.62158 421.875Q290.54346 421.875 289.79346 422.60938Q289.05908 423.34375 288.96533 424.5625ZM297.1372 427.34375L298.71533 427.09375Q298.84033 428.03125 299.43408 428.53125Q300.04346 429.03125 301.12158 429.03125Q302.21533 429.03125 302.74658 428.59375Q303.27783 428.14062 303.27783 427.54688Q303.27783 427.01562 302.80908 426.70312Q302.48096 426.5 301.18408 426.17188Q299.4497 425.73438 298.77783 425.42188Q298.10596 425.09375 297.74658 424.53125Q297.40283 423.95312 297.40283 423.26562Q297.40283 422.64062 297.68408 422.10938Q297.98096 421.57812 298.46533 421.23438Q298.84033 420.95312 299.48096 420.76562Q300.12158 420.57812 300.84033 420.57812Q301.9497 420.57812 302.77783 420.90625Q303.60596 421.21875 303.99658 421.76562Q304.40283 422.29688 304.54346 423.20312L302.99658 423.40625Q302.8872 422.6875 302.3872 422.28125Q301.8872 421.875 300.96533 421.875Q299.87158 421.875 299.40283 422.23438Q298.93408 422.59375 298.93408 423.07812Q298.93408 423.39062 299.1372 423.64062Q299.3247 423.89062 299.73096 424.0625Q299.98096 424.14062 301.1372 424.46875Q302.80908 424.90625 303.46533 425.20312Q304.1372 425.48438 304.5122 426.03125Q304.90283 426.57812 304.90283 427.375Q304.90283 428.17188 304.43408 428.875Q303.98096 429.57812 303.10596 429.96875Q302.23096 430.34375 301.1372 430.34375Q299.30908 430.34375 298.35596 429.59375Q297.40283 428.82812 297.1372 427.34375ZM306.1372 427.34375L307.71533 427.09375Q307.84033 428.03125 308.43408 428.53125Q309.04346 429.03125 310.12158 429.03125Q311.21533 429.03125 311.74658 428.59375Q312.27783 428.14062 312.27783 427.54688Q312.27783 427.01562 311.80908 426.70312Q311.48096 426.5 310.18408 426.17188Q308.4497 425.73438 307.77783 425.42188Q307.10596 425.09375 306.74658 424.53125Q306.40283 423.95312 306.40283 423.26562Q306.40283 422.64062 306.68408 422.10938Q306.98096 421.57812 307.46533 421.23438Q307.84033 420.95312 308.48096 420.76562Q309.12158 420.57812 309.84033 420.57812Q310.9497 420.57812 311.77783 420.90625Q312.60596 421.21875 312.99658 421.76562Q313.40283 422.29688 313.54346 423.20312L311.99658 423.40625Q311.8872 422.6875 311.3872 422.28125Q310.8872 421.875 309.96533 421.875Q308.87158 421.875 308.40283 422.23438Q307.93408 422.59375 307.93408 423.07812Q307.93408 423.39062 308.1372 423.64062Q308.3247 423.89062 308.73096 424.0625Q308.98096 424.14062 310.1372 424.46875Q311.80908 424.90625 312.46533 425.20312Q313.1372 425.48438 313.5122 426.03125Q313.90283 426.57812 313.90283 427.375Q313.90283 428.17188 313.43408 428.875Q312.98096 429.57812 312.10596 429.96875Q311.23096 430.34375 310.1372 430.34375Q308.30908 430.34375 307.35596 429.59375Q306.40283 428.82812 306.1372 427.34375ZM315.18408 425.45312Q315.18408 422.85938 316.6372 421.60938Q317.84033 420.57812 319.55908 420.57812Q321.49658 420.57812 322.71533 421.84375Q323.93408 423.10938 323.93408 425.32812Q323.93408 427.125 323.3872 428.15625Q322.85596 429.1875 321.8247 429.76562Q320.79346 430.34375 319.55908 430.34375Q317.60596 430.34375 316.3872 429.09375Q315.18408 427.82812 315.18408 425.45312ZM316.80908 425.45312Q316.80908 427.25 317.59033 428.14062Q318.37158 429.03125 319.55908 429.03125Q320.74658 429.03125 321.52783 428.14062Q322.30908 427.23438 322.30908 425.40625Q322.30908 423.67188 321.5122 422.78125Q320.73096 421.89062 319.55908 421.89062Q318.37158 421.89062 317.59033 422.78125Q316.80908 423.67188 316.80908 425.45312ZM325.7622 430.125L325.7622 420.79688L327.18408 420.79688L327.18408 422.20312Q327.73096 421.21875 328.18408 420.90625Q328.65283 420.57812 329.1997 420.57812Q330.0122 420.57812 330.8247 421.09375L330.29346 422.5625Q329.6997 422.21875 329.12158 422.21875Q328.60596 422.21875 328.18408 422.53125Q327.77783 422.84375 327.60596 423.39062Q327.34033 424.23438 327.34033 425.23438L327.34033 430.125L325.7622 430.125ZM331.1372 427.34375L332.71533 427.09375Q332.84033 428.03125 333.43408 428.53125Q334.04346 429.03125 335.12158 429.03125Q336.21533 429.03125 336.74658 428.59375Q337.27783 428.14062 337.27783 427.54688Q337.27783 427.01562 336.80908 426.70312Q336.48096 426.5 335.18408 426.17188Q333.4497 425.73438 332.77783 425.42188Q332.10596 425.09375 331.74658 424.53125Q331.40283 423.95312 331.40283 423.26562Q331.40283 422.64062 331.68408 422.10938Q331.98096 421.57812 332.46533 421.23438Q332.84033 420.95312 333.48096 420.76562Q334.12158 420.57812 334.84033 420.57812Q335.9497 420.57812 336.77783 420.90625Q337.60596 421.21875 337.99658 421.76562Q338.40283 422.29688 338.54346 423.20312L336.99658 423.40625Q336.8872 422.6875 336.3872 422.28125Q335.8872 421.875 334.96533 421.875Q333.87158 421.875 333.40283 422.23438Q332.93408 422.59375 332.93408 423.07812Q332.93408 423.39062 333.1372 423.64062Q333.3247 423.89062 333.73096 424.0625Q333.98096 424.14062 335.1372 424.46875Q336.80908 424.90625 337.46533 425.20312Q338.1372 425.48438 338.5122 426.03125Q338.90283 426.57812 338.90283 427.375Q338.90283 428.17188 338.43408 428.875Q337.98096 429.57812 337.10596 429.96875Q336.23096 430.34375 335.1372 430.34375Q333.30908 430.34375 332.35596 429.59375Q331.40283 428.82812 331.1372 427.34375Z"
     fill-rule="nonzero"
     id="path59" />
  <path
     fill="#000000"
     d="M27.492403 267.3125L27.351778 265.70312Q28.320528 265.59375 28.945528 265.1875Q29.554903 264.76562 29.945528 263.89062Q30.320528 263.0 30.320528 261.90625Q30.320528 260.92188 30.039278 260.1875Q29.742403 259.4375 29.242403 259.07812Q28.726778 258.70312 28.133028 258.70312Q27.523653 258.70312 27.070528 259.0625Q26.617403 259.40625 26.320528 260.21875Q26.117403 260.73438 25.695528 262.51562Q25.258028 264.28125 24.883028 265.0Q24.398653 265.92188 23.679903 266.375Q22.961153 266.82812 22.086153 266.82812Q21.101778 266.82812 20.258028 266.28125Q19.414278 265.71875 18.976778 264.65625Q18.523653 263.59375 18.523653 262.28125Q18.523653 260.85938 18.992403 259.76562Q19.445528 258.67188 20.351778 258.07812Q21.242403 257.48438 22.383028 257.45312L22.508028 259.07812Q21.273653 259.21875 20.648653 259.98438Q20.023653 260.73438 20.023653 262.21875Q20.023653 263.76562 20.601778 264.48438Q21.164278 265.1875 21.961153 265.1875Q22.664278 265.1875 23.101778 264.67188Q23.554903 264.1875 24.023653 262.10938Q24.492403 260.03125 24.851778 259.25Q25.367403 258.125 26.164278 257.59375Q26.961153 257.0625 27.992403 257.0625Q29.023653 257.0625 29.929903 257.65625Q30.836153 258.23438 31.351778 259.34375Q31.851778 260.4375 31.851778 261.82812Q31.851778 263.57812 31.351778 264.76562Q30.836153 265.9375 29.820528 266.60938Q28.789278 267.28125 27.492403 267.3125ZM28.633028 248.54688L28.836153 246.90625Q30.258028 247.29688 31.054903 248.34375Q31.851778 249.39062 31.851778 251.01562Q31.851778 253.0625 30.586153 254.26562Q29.320528 255.46875 27.039278 255.46875Q24.695528 255.46875 23.398653 254.26562Q22.086153 253.04688 22.086153 251.10938Q22.086153 249.23438 23.367403 248.04688Q24.633028 246.85938 26.945528 246.85938Q27.086153 246.85938 27.367403 246.875L27.367403 253.82812Q28.914278 253.75 29.726778 252.96875Q30.539278 252.17188 30.539278 251.01562Q30.539278 250.14062 30.086153 249.53125Q29.633028 248.90625 28.633028 248.54688ZM26.070528 253.75L26.070528 248.53125Q24.898653 248.64062 24.304903 249.125Q23.383028 249.89062 23.383028 251.09375Q23.383028 252.17188 24.117403 252.92188Q24.851778 253.65625 26.070528 253.75ZM31.633028 244.96875L18.742403 244.96875L18.742403 243.39062L31.633028 243.39062L31.633028 244.96875ZM31.633028 240.5625L23.523653 240.5625L23.523653 241.95312L22.304903 241.95312L22.304903 240.5625L21.304903 240.5625Q20.367403 240.5625 19.914278 240.39062Q19.289278 240.17188 18.914278 239.59375Q18.523653 239.01562 18.523653 237.96875Q18.523653 237.3125 18.679903 236.5L20.070528 236.73438Q19.976778 237.23438 19.976778 237.67188Q19.976778 238.39062 20.289278 238.6875Q20.586153 238.98438 21.429903 238.98438L22.304903 238.98438L22.304903 237.17188L23.523653 237.17188L23.523653 238.98438L31.633028 238.98438L31.633028 240.5625ZM27.758028 236.54688L26.179903 236.54688L26.179903 231.6875L27.758028 231.6875L27.758028 236.54688ZM28.851778 230.57812L28.601778 229.0Q29.539278 228.875 30.039278 228.28125Q30.539278 227.67188 30.539278 226.59375Q30.539278 225.5 30.101778 224.96875Q29.648653 224.4375 29.054903 224.4375Q28.523653 224.4375 28.211153 224.90625Q28.008028 225.23438 27.679903 226.53125Q27.242403 228.26562 26.929903 228.9375Q26.601778 229.60938 26.039278 229.96875Q25.461153 230.3125 24.773653 230.3125Q24.148653 230.3125 23.617403 230.03125Q23.086153 229.73438 22.742403 229.25Q22.461153 228.875 22.273653 228.23438Q22.086153 227.59375 22.086153 226.875Q22.086153 225.76562 22.414278 224.9375Q22.726778 224.10938 23.273653 223.71875Q23.804903 223.3125 24.711153 223.17188L24.914278 224.71875Q24.195528 224.82812 23.789278 225.32812Q23.383028 225.82812 23.383028 226.75Q23.383028 227.84375 23.742403 228.3125Q24.101778 228.78125 24.586153 228.78125Q24.898653 228.78125 25.148653 228.57812Q25.398653 228.39062 25.570528 227.98438Q25.648653 227.73438 25.976778 226.57812Q26.414278 224.90625 26.711153 224.25Q26.992403 223.57812 27.539278 223.20312Q28.086153 222.8125 28.883028 222.8125Q29.679903 222.8125 30.383028 223.28125Q31.086153 223.73438 31.476778 224.60938Q31.851778 225.48438 31.851778 226.57812Q31.851778 228.40625 31.101778 229.35938Q30.336153 230.3125 28.851778 230.57812ZM35.21115 220.9375L22.304903 220.9375L22.304903 219.5L23.508028 219.5Q22.804903 218.98438 22.445528 218.34375Q22.086153 217.70312 22.086153 216.79688Q22.086153 215.59375 22.711153 214.6875Q23.320528 213.76562 24.445528 213.29688Q25.554903 212.82812 26.898653 212.82812Q28.320528 212.82812 29.476778 213.34375Q30.617403 213.85938 31.242403 214.84375Q31.851778 215.82812 31.851778 216.90625Q31.851778 217.6875 31.523653 218.32812Q31.179903 218.95312 30.664278 219.35938L35.21115 219.35938L35.21115 220.9375ZM27.023653 219.5Q28.820528 219.5 29.679903 218.78125Q30.539278 218.04688 30.539278 217.01562Q30.539278 215.95312 29.648653 215.20312Q28.758028 214.45312 26.883028 214.45312Q25.101778 214.45312 24.211153 215.1875Q23.320528 215.92188 23.320528 216.9375Q23.320528 217.95312 24.273653 218.73438Q25.211153 219.5 27.023653 219.5ZM28.633028 204.54688L28.836153 202.90625Q30.258028 203.29688 31.054903 204.34375Q31.851778 205.39062 31.851778 207.01562Q31.851778 209.0625 30.586153 210.26562Q29.320528 211.46875 27.039278 211.46875Q24.695528 211.46875 23.398653 210.26562Q22.086153 209.04688 22.086153 207.10938Q22.086153 205.23438 23.367403 204.04688Q24.633028 202.85938 26.945528 202.85938Q27.086153 202.85938 27.367403 202.875L27.367403 209.82812Q28.914278 209.75 29.726778 208.96875Q30.539278 208.17188 30.539278 207.01562Q30.539278 206.14062 30.086153 205.53125Q29.633028 204.90625 28.633028 204.54688ZM26.070528 209.75L26.070528 204.53125Q24.898653 204.64062 24.304903 205.125Q23.383028 205.89062 23.383028 207.09375Q23.383028 208.17188 24.117403 208.92188Q24.851778 209.65625 26.070528 209.75ZM28.633028 194.54688L28.836153 192.90625Q30.258028 193.29688 31.054903 194.34375Q31.851778 195.39062 31.851778 197.01562Q31.851778 199.0625 30.586153 200.26562Q29.320528 201.46875 27.039278 201.46875Q24.695528 201.46875 23.398653 200.26562Q22.086153 199.04688 22.086153 197.10938Q22.086153 195.23438 23.367403 194.04688Q24.633028 192.85938 26.945528 192.85938Q27.086153 192.85938 27.367403 192.875L27.367403 199.82812Q28.914278 199.75 29.726778 198.96875Q30.539278 198.17188 30.539278 197.01562Q30.539278 196.14062 30.086153 195.53125Q29.633028 194.90625 28.633028 194.54688ZM26.070528 199.75L26.070528 194.53125Q24.898653 194.64062 24.304903 195.125Q23.383028 195.89062 23.383028 197.09375Q23.383028 198.17188 24.117403 198.92188Q24.851778 199.65625 26.070528 199.75ZM31.633028 184.875L30.461153 184.875Q31.851778 185.76562 31.851778 187.5Q31.851778 188.60938 31.242403 189.54688Q30.617403 190.48438 29.523653 191.0Q28.414278 191.51562 26.976778 191.51562Q25.570528 191.51562 24.445528 191.04688Q23.304903 190.57812 22.695528 189.65625Q22.086153 188.71875 22.086153 187.5625Q22.086153 186.71875 22.445528 186.0625Q22.804903 185.40625 23.367403 184.98438L18.742403 184.98438L18.742403 183.42188L31.633028 183.42188L31.633028 184.875ZM26.976778 189.89062Q28.773653 189.89062 29.664278 189.14062Q30.539278 188.375 30.539278 187.34375Q30.539278 186.3125 29.695528 185.59375Q28.851778 184.85938 27.101778 184.85938Q25.195528 184.85938 24.304903 185.59375Q23.398653 186.32812 23.398653 187.40625Q23.398653 188.46875 24.258028 189.1875Q25.117403 189.89062 26.976778 189.89062ZM31.633028 174.82812L30.258028 174.82812Q31.851778 175.90625 31.851778 177.78125Q31.851778 178.60938 31.539278 179.32812Q31.211153 180.04688 30.742403 180.39062Q30.258028 180.73438 29.554903 180.875Q29.086153 180.96875 28.086153 180.96875L22.304903 180.96875L22.304903 179.39062L27.476778 179.39062Q28.711153 179.39062 29.148653 179.29688Q29.773653 179.14062 30.133028 178.65625Q30.476778 178.17188 30.476778 177.46875Q30.476778 176.75 30.117403 176.125Q29.758028 175.5 29.133028 175.25Q28.492403 174.98438 27.304903 174.98438L22.304903 174.98438L22.304903 173.40625L31.633028 173.40625L31.633028 174.82812ZM35.21115 170.9375L22.304903 170.9375L22.304903 169.5L23.508028 169.5Q22.804903 168.98438 22.445528 168.34375Q22.086153 167.70312 22.086153 166.79688Q22.086153 165.59375 22.711153 164.6875Q23.320528 163.76562 24.445528 163.29688Q25.554903 162.82812 26.898653 162.82812Q28.320528 162.82812 29.476778 163.34375Q30.617403 163.85938 31.242403 164.84375Q31.851778 165.82812 31.851778 166.90625Q31.851778 167.6875 31.523653 168.32812Q31.179903 168.95312 30.664278 169.35938L35.21115 169.35938L35.21115 170.9375ZM27.023653 169.5Q28.820528 169.5 29.679903 168.78125Q30.539278 168.04688 30.539278 167.01562Q30.539278 165.95312 29.648653 165.20312Q28.758028 164.45312 26.883028 164.45312Q25.101778 164.45312 24.211153 165.1875Q23.320528 165.92188 23.320528 166.9375Q23.320528 167.95312 24.273653 168.73438Q25.211153 169.5 27.023653 169.5Z"
     fill-rule="nonzero"
     id="path61" />
  <path
     fill="#000000"
     d="M54.25 377.64062Q54.25 375.35938 54.71875 373.96875Q55.1875 372.57812 56.109375 371.82812Q57.046875 371.0625 58.453125 371.0625Q59.484375 371.0625 60.265625 371.48438Q61.046875 371.89062 61.546875 372.6875Q62.0625 373.46875 62.359375 374.60938Q62.65625 375.73438 62.65625 377.64062Q62.65625 379.90625 62.1875 381.3125Q61.71875 382.70312 60.78125 383.46875Q59.859375 384.21875 58.453125 384.21875Q56.578125 384.21875 55.515625 382.89062Q54.25 381.28125 54.25 377.64062ZM55.875 377.64062Q55.875 380.8125 56.609375 381.875Q57.359375 382.92188 58.453125 382.92188Q59.53125 382.92188 60.28125 381.875Q61.03125 380.8125 61.03125 377.64062Q61.03125 374.46875 60.28125 373.42188Q59.53125 372.375 58.4375 372.375Q57.34375 372.375 56.6875 373.29688Q55.875 374.46875 55.875 377.64062Z"
     fill-rule="nonzero"
     id="path63" />
  <path
     fill="#000000"
     d="M50.203125 338.2L48.625 338.2L48.625 328.1219Q48.046875 328.66876 47.125 329.21564Q46.203125 329.7469 45.453125 330.02814L45.453125 328.4969Q46.78125 327.8719 47.78125 326.98126Q48.78125 326.09064 49.1875 325.2625L50.203125 325.2625L50.203125 338.2ZM54.25 331.84064Q54.25 329.5594 54.71875 328.16876Q55.1875 326.77814 56.109375 326.02814Q57.046875 325.2625 58.453125 325.2625Q59.484375 325.2625 60.265625 325.6844Q61.046875 326.09064 61.546875 326.8875Q62.0625 327.66876 62.359375 328.8094Q62.65625 329.9344 62.65625 331.84064Q62.65625 334.10626 62.1875 335.5125Q61.71875 336.90314 60.78125 337.66876Q59.859375 338.41876 58.453125 338.41876Q56.578125 338.41876 55.515625 337.09064Q54.25 335.48126 54.25 331.84064ZM55.875 331.84064Q55.875 335.0125 56.609375 336.075Q57.359375 337.1219 58.453125 337.1219Q59.53125 337.1219 60.28125 336.075Q61.03125 335.0125 61.03125 331.84064Q61.03125 328.66876 60.28125 327.6219Q59.53125 326.575 58.4375 326.575Q57.34375 326.575 56.6875 327.4969Q55.875 328.66876 55.875 331.84064Z"
     fill-rule="nonzero"
     id="path65" />
  <path
     fill="#000000"
     d="M52.5625 290.88437L52.5625 292.4L44.046875 292.4Q44.03125 291.82187 44.234375 291.30624Q44.5625 290.43124 45.265625 289.5875Q45.984375 288.74374 47.34375 287.63437Q49.4375 285.91562 50.171875 284.91562Q50.921875 283.9 50.921875 283.00937Q50.921875 282.05624 50.25 281.41562Q49.578125 280.775 48.5 280.775Q47.34375 280.775 46.65625 281.4625Q45.984375 282.15 45.96875 283.35312L44.34375 283.18124Q44.515625 281.36874 45.59375 280.41562Q46.6875 279.4625 48.53125 279.4625Q50.375 279.4625 51.453125 280.49374Q52.546875 281.525 52.546875 283.04062Q52.546875 283.80624 52.21875 284.55624Q51.90625 285.30624 51.171875 286.13437Q50.4375 286.9625 48.734375 288.4Q47.3125 289.60312 46.90625 290.025Q46.5 290.44687 46.25 290.88437L52.5625 290.88437ZM54.25 286.04062Q54.25 283.75937 54.71875 282.36874Q55.1875 280.97812 56.109375 280.22812Q57.046875 279.4625 58.453125 279.4625Q59.484375 279.4625 60.265625 279.88437Q61.046875 280.29062 61.546875 281.0875Q62.0625 281.86874 62.359375 283.00937Q62.65625 284.13437 62.65625 286.04062Q62.65625 288.30624 62.1875 289.7125Q61.71875 291.10312 60.78125 291.86874Q59.859375 292.61874 58.453125 292.61874Q56.578125 292.61874 55.515625 291.29062Q54.25 289.68124 54.25 286.04062ZM55.875 286.04062Q55.875 289.2125 56.609375 290.275Q57.359375 291.32187 58.453125 291.32187Q59.53125 291.32187 60.28125 290.275Q61.03125 289.2125 61.03125 286.04062Q61.03125 282.86874 60.28125 281.82187Q59.53125 280.775 58.4375 280.775Q57.34375 280.775 56.6875 281.69687Q55.875 282.86874 55.875 286.04062Z"
     fill-rule="nonzero"
     id="path67" />
  <path
     fill="#000000"
     d="M44.25 243.19376L45.84375 242.99063Q46.109375 244.33438 46.765625 244.92813Q47.421875 245.52188 48.359375 245.52188Q49.484375 245.52188 50.25 244.75626Q51.015625 243.975 51.015625 242.83438Q51.015625 241.74063 50.296875 241.0375Q49.59375 240.31876 48.5 240.31876Q48.046875 240.31876 47.375 240.50626L47.546875 239.11563Q47.703125 239.13126 47.8125 239.13126Q48.8125 239.13126 49.625 238.6Q50.4375 238.06876 50.4375 236.975Q50.4375 236.1 49.84375 235.5375Q49.25 234.95938 48.328125 234.95938Q47.40625 234.95938 46.78125 235.5375Q46.171875 236.11563 46.0 237.2875L44.421875 237.00626Q44.703125 235.4125 45.734375 234.5375Q46.765625 233.6625 48.296875 233.6625Q49.34375 233.6625 50.234375 234.11563Q51.125 234.56876 51.59375 235.35Q52.0625 236.13126 52.0625 237.00626Q52.0625 237.85 51.609375 238.5375Q51.171875 239.20938 50.28125 239.61563Q51.421875 239.88126 52.046875 240.725Q52.6875 241.55313 52.6875 242.7875Q52.6875 244.475 51.453125 245.6625Q50.234375 246.83438 48.359375 246.83438Q46.65625 246.83438 45.53125 245.81876Q44.421875 244.80313 44.25 243.19376ZM54.25 240.24063Q54.25 237.95938 54.71875 236.56876Q55.1875 235.17813 56.109375 234.42813Q57.046875 233.6625 58.453125 233.6625Q59.484375 233.6625 60.265625 234.08438Q61.046875 234.49063 61.546875 235.2875Q62.0625 236.06876 62.359375 237.20938Q62.65625 238.33438 62.65625 240.24063Q62.65625 242.50626 62.1875 243.9125Q61.71875 245.30313 60.78125 246.06876Q59.859375 246.81876 58.453125 246.81876Q56.578125 246.81876 55.515625 245.49063Q54.25 243.88126 54.25 240.24063ZM55.875 240.24063Q55.875 243.4125 56.609375 244.475Q57.359375 245.52188 58.453125 245.52188Q59.53125 245.52188 60.28125 244.475Q61.03125 243.4125 61.03125 240.24063Q61.03125 237.06876 60.28125 236.02188Q59.53125 234.975 58.4375 234.975Q57.34375 234.975 56.6875 235.89688Q55.875 237.06876 55.875 240.24063Z"
     fill-rule="nonzero"
     id="path69" />
  <path
     fill="#000000"
     d="M49.3125 200.8L49.3125 197.72188L43.734375 197.72188L43.734375 196.26875L49.609375 187.90938L50.90625 187.90938L50.90625 196.26875L52.640625 196.26875L52.640625 197.72188L50.90625 197.72188L50.90625 200.8L49.3125 200.8ZM49.3125 196.26875L49.3125 190.45625L45.28125 196.26875L49.3125 196.26875ZM54.25 194.44063Q54.25 192.15938 54.71875 190.76875Q55.1875 189.37813 56.109375 188.62813Q57.046875 187.8625 58.453125 187.8625Q59.484375 187.8625 60.265625 188.28438Q61.046875 188.69063 61.546875 189.4875Q62.0625 190.26875 62.359375 191.40938Q62.65625 192.53438 62.65625 194.44063Q62.65625 196.70625 62.1875 198.1125Q61.71875 199.50313 60.78125 200.26875Q59.859375 201.01875 58.453125 201.01875Q56.578125 201.01875 55.515625 199.69063Q54.25 198.08125 54.25 194.44063ZM55.875 194.44063Q55.875 197.6125 56.609375 198.675Q57.359375 199.72188 58.453125 199.72188Q59.53125 199.72188 60.28125 198.675Q61.03125 197.6125 61.03125 194.44063Q61.03125 191.26875 60.28125 190.22188Q59.53125 189.175 58.4375 189.175Q57.34375 189.175 56.6875 190.09688Q55.875 191.26875 55.875 194.44063Z"
     fill-rule="nonzero"
     id="path71" />
  <path
     fill="#000000"
     d="M44.25 151.625L45.90625 151.48438Q46.09375 152.70312 46.765625 153.3125Q47.4375 153.92188 48.390625 153.92188Q49.53125 153.92188 50.3125 153.0625Q51.109375 152.20312 51.109375 150.76562Q51.109375 149.42188 50.34375 148.64062Q49.59375 147.85938 48.359375 147.85938Q47.59375 147.85938 46.96875 148.20312Q46.359375 148.54688 46.015625 149.10938L44.53125 148.90625L45.78125 142.29688L52.1875 142.29688L52.1875 143.79688L47.046875 143.79688L46.34375 147.26562Q47.515625 146.45312 48.78125 146.45312Q50.46875 146.45312 51.625 147.625Q52.796875 148.79688 52.796875 150.625Q52.796875 152.375 51.765625 153.65625Q50.53125 155.21875 48.390625 155.21875Q46.625 155.21875 45.515625 154.23438Q44.40625 153.25 44.25 151.625ZM54.25 148.64062Q54.25 146.35938 54.71875 144.96875Q55.1875 143.57812 56.109375 142.82812Q57.046875 142.0625 58.453125 142.0625Q59.484375 142.0625 60.265625 142.48438Q61.046875 142.89062 61.546875 143.6875Q62.0625 144.46875 62.359375 145.60938Q62.65625 146.73438 62.65625 148.64062Q62.65625 150.90625 62.1875 152.3125Q61.71875 153.70312 60.78125 154.46875Q59.859375 155.21875 58.453125 155.21875Q56.578125 155.21875 55.515625 153.89062Q54.25 152.28125 54.25 148.64062ZM55.875 148.64062Q55.875 151.8125 56.609375 152.875Q57.359375 153.92188 58.453125 153.92188Q59.53125 153.92188 60.28125 152.875Q61.03125 151.8125 61.03125 148.64062Q61.03125 145.46875 60.28125 144.42188Q59.53125 143.375 58.4375 143.375Q57.34375 143.375 56.6875 144.29688Q55.875 145.46875 55.875 148.64062Z"
     fill-rule="nonzero"
     id="path73" />
  <path
     fill="#000000"
     d="M52.453125 99.46562L50.890625 99.59062Q50.671875 98.66875 50.28125 98.24687Q49.640625 97.55937 48.703125 97.55937Q47.953125 97.55937 47.375 97.98125Q46.625 98.52812 46.1875 99.575Q45.765625 100.62187 45.75 102.55937Q46.328125 101.68437 47.140625 101.2625Q47.96875 100.84062 48.875 100.84062Q50.46875 100.84062 51.578125 102.0125Q52.6875 103.16875 52.6875 105.0125Q52.6875 106.23125 52.15625 107.27812Q51.640625 108.30937 50.71875 108.87187Q49.8125 109.41875 48.65625 109.41875Q46.671875 109.41875 45.421875 107.96562Q44.171875 106.5125 44.171875 103.16875Q44.171875 99.43437 45.5625 97.73125Q46.765625 96.2625 48.796875 96.2625Q50.328125 96.2625 51.296875 97.12187Q52.265625 97.96562 52.453125 99.46562ZM46.0 105.02812Q46.0 105.84062 46.34375 106.59062Q46.6875 107.34062 47.3125 107.73125Q47.9375 108.12187 48.625 108.12187Q49.625 108.12187 50.34375 107.30937Q51.0625 106.49687 51.0625 105.10625Q51.0625 103.77812 50.34375 103.0125Q49.640625 102.23125 48.5625 102.23125Q47.484375 102.23125 46.734375 103.0125Q46.0 103.77812 46.0 105.02812ZM54.25 102.84062Q54.25 100.55937 54.71875 99.16875Q55.1875 97.77812 56.109375 97.02812Q57.046875 96.2625 58.453125 96.2625Q59.484375 96.2625 60.265625 96.68437Q61.046875 97.09062 61.546875 97.8875Q62.0625 98.66875 62.359375 99.80937Q62.65625 100.93437 62.65625 102.84062Q62.65625 105.10625 62.1875 106.5125Q61.71875 107.90312 60.78125 108.66875Q59.859375 109.41875 58.453125 109.41875Q56.578125 109.41875 55.515625 108.09062Q54.25 106.48125 54.25 102.84062ZM55.875 102.84062Q55.875 106.0125 56.609375 107.075Q57.359375 108.12187 58.453125 108.12187Q59.53125 108.12187 60.28125 107.075Q61.03125 106.0125 61.03125 102.84062Q61.03125 99.66875 60.28125 98.62187Q59.53125 97.575 58.4375 97.575Q57.34375 97.575 56.6875 98.49687Q55.875 99.66875 55.875 102.84062Z"
     fill-rule="nonzero"
     id="path75" />
  <path
     fill="#000000"
     d="M44.359375 52.196877L44.359375 50.68125L52.6875 50.68125L52.6875 51.915627Q51.46875 53.228127 50.25 55.4Q49.046875 57.55625 48.390625 59.853127Q47.90625 61.478127 47.78125 63.4L46.15625 63.4Q46.1875 61.884377 46.75 59.728127Q47.328125 57.571877 48.390625 55.571877Q49.453125 53.571877 50.65625 52.196877L44.359375 52.196877ZM54.25 57.040627Q54.25 54.759377 54.71875 53.36875Q55.1875 51.978127 56.109375 51.228127Q57.046875 50.4625 58.453125 50.4625Q59.484375 50.4625 60.265625 50.884377Q61.046875 51.290627 61.546875 52.0875Q62.0625 52.86875 62.359375 54.009377Q62.65625 55.134377 62.65625 57.040627Q62.65625 59.30625 62.1875 60.7125Q61.71875 62.103127 60.78125 62.86875Q59.859375 63.61875 58.453125 63.61875Q56.578125 63.61875 55.515625 62.290627Q54.25 60.68125 54.25 57.040627ZM55.875 57.040627Q55.875 60.2125 56.609375 61.275Q57.359375 62.321877 58.453125 62.321877Q59.53125 62.321877 60.28125 61.275Q61.03125 60.2125 61.03125 57.040627Q61.03125 53.86875 60.28125 52.821877Q59.53125 51.775 58.4375 51.775Q57.34375 51.775 56.6875 52.696877Q55.875 53.86875 55.875 57.040627Z"
     fill-rule="nonzero"
     id="path77" />
  <path
     fill="#000000"
     d="M68.25 397.14062Q68.25 394.85938 68.71875 393.46875Q69.1875 392.07812 70.109375 391.32812Q71.046875 390.5625 72.453125 390.5625Q73.484375 390.5625 74.265625 390.98438Q75.046875 391.39062 75.546875 392.1875Q76.0625 392.96875 76.359375 394.10938Q76.65625 395.23438 76.65625 397.14062Q76.65625 399.40625 76.1875 400.8125Q75.71875 402.20312 74.78125 402.96875Q73.859375 403.71875 72.453125 403.71875Q70.578125 403.71875 69.515625 402.39062Q68.25 400.78125 68.25 397.14062ZM69.875 397.14062Q69.875 400.3125 70.609375 401.375Q71.359375 402.42188 72.453125 402.42188Q73.53125 402.42188 74.28125 401.375Q75.03125 400.3125 75.03125 397.14062Q75.03125 393.96875 74.28125 392.92188Q73.53125 391.875 72.4375 391.875Q71.34375 391.875 70.6875 392.79688Q69.875 393.96875 69.875 397.14062Z"
     fill-rule="nonzero"
     id="path79" />
  <path
     fill="#000000"
     d="M116.96055 403.5L115.38242 403.5L115.38242 393.42188Q114.8043 393.96875 113.88242 394.51562Q112.96055 395.04688 112.21055 395.32812L112.21055 393.79688Q113.53867 393.17188 114.53867 392.28125Q115.53867 391.39062 115.94492 390.5625L116.96055 390.5625L116.96055 403.5ZM121.00742 397.14062Q121.00742 394.85938 121.47617 393.46875Q121.94492 392.07812 122.8668 391.32812Q123.8043 390.5625 125.21055 390.5625Q126.2418 390.5625 127.02305 390.98438Q127.8043 391.39062 128.30429 392.1875Q128.81992 392.96875 129.11679 394.10938Q129.41367 395.23438 129.41367 397.14062Q129.41367 399.40625 128.94492 400.8125Q128.47617 402.20312 127.53867 402.96875Q126.6168 403.71875 125.21055 403.71875Q123.33555 403.71875 122.27305 402.39062Q121.00742 400.78125 121.00742 397.14062ZM122.63242 397.14062Q122.63242 400.3125 123.3668 401.375Q124.1168 402.42188 125.21055 402.42188Q126.28867 402.42188 127.03867 401.375Q127.78867 400.3125 127.78867 397.14062Q127.78867 393.96875 127.03867 392.92188Q126.28867 391.875 125.19492 391.875Q124.10117 391.875 123.44492 392.79688Q122.63242 393.96875 122.63242 397.14062Z"
     fill-rule="nonzero"
     id="path81" />
  <path
     fill="#000000"
     d="M167.07735 401.98438L167.07735 403.5L158.56172 403.5Q158.5461 402.92188 158.74922 402.40625Q159.07735 401.53125 159.78047 400.6875Q160.49922 399.84375 161.8586 398.73438Q163.95235 397.01562 164.68672 396.01562Q165.43672 395.0 165.43672 394.10938Q165.43672 393.15625 164.76485 392.51562Q164.09297 391.875 163.01485 391.875Q161.8586 391.875 161.1711 392.5625Q160.49922 393.25 160.4836 394.45312L158.8586 394.28125Q159.03047 392.46875 160.1086 391.51562Q161.20235 390.5625 163.0461 390.5625Q164.88985 390.5625 165.96797 391.59375Q167.06172 392.625 167.06172 394.14062Q167.06172 394.90625 166.7336 395.65625Q166.4211 396.40625 165.68672 397.23438Q164.95235 398.0625 163.24922 399.5Q161.82735 400.70312 161.4211 401.125Q161.01485 401.54688 160.76485 401.98438L167.07735 401.98438ZM168.76485 397.14062Q168.76485 394.85938 169.2336 393.46875Q169.70235 392.07812 170.62422 391.32812Q171.56172 390.5625 172.96797 390.5625Q173.99922 390.5625 174.78047 390.98438Q175.56172 391.39062 176.06172 392.1875Q176.57735 392.96875 176.87422 394.10938Q177.1711 395.23438 177.1711 397.14062Q177.1711 399.40625 176.70235 400.8125Q176.2336 402.20312 175.2961 402.96875Q174.37422 403.71875 172.96797 403.71875Q171.09297 403.71875 170.03047 402.39062Q168.76485 400.78125 168.76485 397.14062ZM170.38985 397.14062Q170.38985 400.3125 171.12422 401.375Q171.87422 402.42188 172.96797 402.42188Q174.0461 402.42188 174.7961 401.375Q175.5461 400.3125 175.5461 397.14062Q175.5461 393.96875 174.7961 392.92188Q174.0461 391.875 172.95235 391.875Q171.8586 391.875 171.20235 392.79688Q170.38985 393.96875 170.38985 397.14062Z"
     fill-rule="nonzero"
     id="path83" />
  <path
     fill="#000000"
     d="M206.52228 400.09375L208.11603 399.89062Q208.38165 401.23438 209.0379 401.82812Q209.69415 402.42188 210.63165 402.42188Q211.75665 402.42188 212.52228 401.65625Q213.2879 400.875 213.2879 399.73438Q213.2879 398.64062 212.56915 397.9375Q211.86603 397.21875 210.77228 397.21875Q210.31915 397.21875 209.64728 397.40625L209.81915 396.01562Q209.9754 396.03125 210.08478 396.03125Q211.08478 396.03125 211.89728 395.5Q212.70978 394.96875 212.70978 393.875Q212.70978 393.0 212.11603 392.4375Q211.52228 391.85938 210.6004 391.85938Q209.67853 391.85938 209.05353 392.4375Q208.44415 393.01562 208.27228 394.1875L206.69415 393.90625Q206.9754 392.3125 208.00665 391.4375Q209.0379 390.5625 210.56915 390.5625Q211.61603 390.5625 212.50665 391.01562Q213.39728 391.46875 213.86603 392.25Q214.33478 393.03125 214.33478 393.90625Q214.33478 394.75 213.88165 395.4375Q213.44415 396.10938 212.55353 396.51562Q213.69415 396.78125 214.31915 397.625Q214.95978 398.45312 214.95978 399.6875Q214.95978 401.375 213.7254 402.5625Q212.50665 403.73438 210.63165 403.73438Q208.92853 403.73438 207.80353 402.71875Q206.69415 401.70312 206.52228 400.09375ZM216.52228 397.14062Q216.52228 394.85938 216.99103 393.46875Q217.45978 392.07812 218.38165 391.32812Q219.31915 390.5625 220.7254 390.5625Q221.75665 390.5625 222.5379 390.98438Q223.31915 391.39062 223.81915 392.1875Q224.33478 392.96875 224.63165 394.10938Q224.92853 395.23438 224.92853 397.14062Q224.92853 399.40625 224.45978 400.8125Q223.99103 402.20312 223.05353 402.96875Q222.13165 403.71875 220.7254 403.71875Q218.8504 403.71875 217.7879 402.39062Q216.52228 400.78125 216.52228 397.14062ZM218.14728 397.14062Q218.14728 400.3125 218.88165 401.375Q219.63165 402.42188 220.7254 402.42188Q221.80353 402.42188 222.55353 401.375Q223.30353 400.3125 223.30353 397.14062Q223.30353 393.96875 222.55353 392.92188Q221.80353 391.875 220.70978 391.875Q219.61603 391.875 218.95978 392.79688Q218.14728 393.96875 218.14728 397.14062Z"
     fill-rule="nonzero"
     id="path85" />
  <path
     fill="#000000"
     d="M259.34222 403.5L259.34222 400.42188L253.76408 400.42188L253.76408 398.96875L259.6391 390.60938L260.93597 390.60938L260.93597 398.96875L262.67035 398.96875L262.67035 400.42188L260.93597 400.42188L260.93597 403.5L259.34222 403.5ZM259.34222 398.96875L259.34222 393.15625L255.31096 398.96875L259.34222 398.96875ZM264.27972 397.14062Q264.27972 394.85938 264.74847 393.46875Q265.21722 392.07812 266.1391 391.32812Q267.0766 390.5625 268.48285 390.5625Q269.5141 390.5625 270.29535 390.98438Q271.0766 391.39062 271.5766 392.1875Q272.09222 392.96875 272.3891 394.10938Q272.68597 395.23438 272.68597 397.14062Q272.68597 399.40625 272.21722 400.8125Q271.74847 402.20312 270.81097 402.96875Q269.8891 403.71875 268.48285 403.71875Q266.60785 403.71875 265.54535 402.39062Q264.27972 400.78125 264.27972 397.14062ZM265.90472 397.14062Q265.90472 400.3125 266.6391 401.375Q267.3891 402.42188 268.48285 402.42188Q269.56097 402.42188 270.31097 401.375Q271.06097 400.3125 271.06097 397.14062Q271.06097 393.96875 270.31097 392.92188Q269.56097 391.875 268.46722 391.875Q267.37347 391.875 266.71722 392.79688Q265.90472 393.96875 265.90472 397.14062Z"
     fill-rule="nonzero"
     id="path87" />
  <path
     fill="#000000"
     d="M302.03714 400.125L303.6934 399.98438Q303.8809 401.20312 304.55276 401.8125Q305.22464 402.42188 306.17776 402.42188Q307.3184 402.42188 308.09964 401.5625Q308.8965 400.70312 308.8965 399.26562Q308.8965 397.92188 308.1309 397.14062Q307.3809 396.35938 306.1465 396.35938Q305.3809 396.35938 304.7559 396.70312Q304.1465 397.04688 303.80276 397.60938L302.3184 397.40625L303.5684 390.79688L309.97464 390.79688L309.97464 392.29688L304.834 392.29688L304.1309 395.76562Q305.30276 394.95312 306.5684 394.95312Q308.2559 394.95312 309.41214 396.125Q310.584 397.29688 310.584 399.125Q310.584 400.875 309.55276 402.15625Q308.3184 403.71875 306.17776 403.71875Q304.41214 403.71875 303.30276 402.73438Q302.1934 401.75 302.03714 400.125ZM312.03714 397.14062Q312.03714 394.85938 312.5059 393.46875Q312.97464 392.07812 313.8965 391.32812Q314.834 390.5625 316.24026 390.5625Q317.2715 390.5625 318.05276 390.98438Q318.834 391.39062 319.334 392.1875Q319.84964 392.96875 320.1465 394.10938Q320.4434 395.23438 320.4434 397.14062Q320.4434 399.40625 319.97464 400.8125Q319.5059 402.20312 318.5684 402.96875Q317.6465 403.71875 316.24026 403.71875Q314.36526 403.71875 313.30276 402.39062Q312.03714 400.78125 312.03714 397.14062ZM313.66214 397.14062Q313.66214 400.3125 314.3965 401.375Q315.1465 402.42188 316.24026 402.42188Q317.3184 402.42188 318.0684 401.375Q318.8184 400.3125 318.8184 397.14062Q318.8184 393.96875 318.0684 392.92188Q317.3184 391.875 316.22464 391.875Q315.1309 391.875 314.47464 392.79688Q313.66214 393.96875 313.66214 397.14062Z"
     fill-rule="nonzero"
     id="path89" />
  <path
     fill="#000000"
     d="M357.99768 393.76562L356.43518 393.89062Q356.21643 392.96875 355.8258 392.54688Q355.18518 391.85938 354.24768 391.85938Q353.49768 391.85938 352.91956 392.28125Q352.16956 392.82812 351.73206 393.875Q351.31018 394.92188 351.29456 396.85938Q351.87268 395.98438 352.68518 395.5625Q353.5133 395.14062 354.41956 395.14062Q356.0133 395.14062 357.12268 396.3125Q358.23206 397.46875 358.23206 399.3125Q358.23206 400.53125 357.7008 401.57812Q357.18518 402.60938 356.2633 403.17188Q355.35706 403.71875 354.2008 403.71875Q352.21643 403.71875 350.96643 402.26562Q349.71643 400.8125 349.71643 397.46875Q349.71643 393.73438 351.10706 392.03125Q352.31018 390.5625 354.34143 390.5625Q355.87268 390.5625 356.84143 391.42188Q357.81018 392.26562 357.99768 393.76562ZM351.54456 399.32812Q351.54456 400.14062 351.8883 400.89062Q352.23206 401.64062 352.85706 402.03125Q353.48206 402.42188 354.16956 402.42188Q355.16956 402.42188 355.8883 401.60938Q356.60706 400.79688 356.60706 399.40625Q356.60706 398.07812 355.8883 397.3125Q355.18518 396.53125 354.10706 396.53125Q353.02893 396.53125 352.27893 397.3125Q351.54456 398.07812 351.54456 399.32812ZM359.79456 397.14062Q359.79456 394.85938 360.2633 393.46875Q360.73206 392.07812 361.65393 391.32812Q362.59143 390.5625 363.99768 390.5625Q365.02893 390.5625 365.81018 390.98438Q366.59143 391.39062 367.09143 392.1875Q367.60706 392.96875 367.90393 394.10938Q368.2008 395.23438 368.2008 397.14062Q368.2008 399.40625 367.73206 400.8125Q367.2633 402.20312 366.3258 402.96875Q365.40393 403.71875 363.99768 403.71875Q362.12268 403.71875 361.06018 402.39062Q359.79456 400.78125 359.79456 397.14062ZM361.41956 397.14062Q361.41956 400.3125 362.15393 401.375Q362.90393 402.42188 363.99768 402.42188Q365.0758 402.42188 365.8258 401.375Q366.5758 400.3125 366.5758 397.14062Q366.5758 393.96875 365.8258 392.92188Q365.0758 391.875 363.98206 391.875Q362.8883 391.875 362.23206 392.79688Q361.41956 393.96875 361.41956 397.14062Z"
     fill-rule="nonzero"
     id="path91" />
  <path
     fill="#000000"
     d="M397.66135 392.29688L397.66135 390.78125L405.98947 390.78125L405.98947 392.01562Q404.77072 393.32812 403.55197 395.5Q402.34885 397.65625 401.6926 399.95312Q401.20822 401.57812 401.08322 403.5L399.45822 403.5Q399.48947 401.98438 400.05197 399.82812Q400.6301 397.67188 401.6926 395.67188Q402.7551 393.67188 403.95822 392.29688L397.66135 392.29688ZM407.55197 397.14062Q407.55197 394.85938 408.02072 393.46875Q408.48947 392.07812 409.41135 391.32812Q410.34885 390.5625 411.7551 390.5625Q412.78635 390.5625 413.5676 390.98438Q414.34885 391.39062 414.84885 392.1875Q415.36447 392.96875 415.66135 394.10938Q415.95822 395.23438 415.95822 397.14062Q415.95822 399.40625 415.48947 400.8125Q415.02072 402.20312 414.08322 402.96875Q413.16135 403.71875 411.7551 403.71875Q409.8801 403.71875 408.8176 402.39062Q407.55197 400.78125 407.55197 397.14062ZM409.17697 397.14062Q409.17697 400.3125 409.91135 401.375Q410.66135 402.42188 411.7551 402.42188Q412.83322 402.42188 413.58322 401.375Q414.33322 400.3125 414.33322 397.14062Q414.33322 393.96875 413.58322 392.92188Q412.83322 391.875 411.73947 391.875Q410.64572 391.875 409.98947 392.79688Q409.17697 393.96875 409.17697 397.14062Z"
     fill-rule="nonzero"
     id="path93" />
  <path
     fill="#757575"
     d="M101.63233 22.797113L103.41358 22.640863Q103.53858 23.703363 103.99171 24.390863Q104.46046 25.078363 105.42921 25.515863Q106.41358 25.937738 107.64796 25.937738Q108.72608 25.937738 109.55421 25.625238Q110.38233 25.297113 110.78858 24.734613Q111.19483 24.172113 111.19483 23.500238Q111.19483 22.828363 110.80421 22.328363Q110.41358 21.828363 109.52296 21.484613Q108.94483 21.250238 106.96046 20.781488Q104.99171 20.312738 104.21046 19.890863Q103.17921 19.359613 102.67921 18.562738Q102.17921 17.765863 102.17921 16.781488Q102.17921 15.687738 102.78858 14.750238Q103.39796 13.812738 104.58546 13.328363Q105.77296 12.828363 107.21046 12.828363Q108.80421 12.828363 110.02296 13.343988Q111.24171 13.859613 111.88233 14.859613Q112.53858 15.843988 112.58546 17.109613L110.77296 17.250238Q110.63233 15.890863 109.78858 15.203363Q108.94483 14.500238 107.28858 14.500238Q105.56983 14.500238 104.77296 15.140863Q103.99171 15.765863 103.99171 16.640863Q103.99171 17.422113 104.55421 17.922113Q105.10108 18.422113 107.41358 18.937738Q109.72608 19.453363 110.58546 19.843988Q111.83546 20.422113 112.42921 21.312738Q113.02296 22.187738 113.02296 23.343988Q113.02296 24.484613 112.36671 25.500238Q111.71046 26.515863 110.47608 27.078363Q109.25733 27.640863 107.72608 27.640863Q105.78858 27.640863 104.47608 27.078363Q103.16358 26.500238 102.41358 25.359613Q101.66358 24.218988 101.63233 22.797113ZM122.14796 24.047113L123.96046 24.281488Q123.53858 25.859613 122.36671 26.750238Q121.21046 27.625238 119.39796 27.625238Q117.13233 27.625238 115.78858 26.234613Q114.46046 24.828363 114.46046 22.297113Q114.46046 19.672113 115.80421 18.234613Q117.14796 16.781488 119.30421 16.781488Q121.38233 16.781488 122.69483 18.203363Q124.02296 19.609613 124.02296 22.187738Q124.02296 22.343988 124.00733 22.656488L116.27296 22.656488Q116.36671 24.359613 117.24171 25.265863Q118.11671 26.172113 119.41358 26.172113Q120.38233 26.172113 121.05421 25.672113Q121.74171 25.156488 122.14796 24.047113ZM116.36671 21.203363L122.16358 21.203363Q122.05421 19.906488 121.50733 19.250238Q120.66358 18.234613 119.31983 18.234613Q118.11671 18.234613 117.28858 19.047113Q116.46046 19.843988 116.36671 21.203363ZM126.00733 27.390863L126.00733 13.078363L127.75733 13.078363L127.75733 27.390863L126.00733 27.390863ZM130.46045 27.390863L130.46045 18.390863L128.91357 18.390863L128.91357 17.015863L130.46045 17.015863L130.46045 15.922113Q130.46045 14.875238 130.64795 14.359613Q130.89795 13.672113 131.53857 13.250238Q132.1792 12.828363 133.33545 12.828363Q134.08545 12.828363 134.97607 13.000238L134.71045 14.531488Q134.16357 14.437738 133.6792 14.437738Q132.88232 14.437738 132.53857 14.781488Q132.21045 15.125238 132.21045 16.062738L132.21045 17.015863L134.2417 17.015863L134.2417 18.390863L132.21045 18.390863L132.21045 27.390863L130.46045 27.390863ZM135.3667 23.093988L135.3667 21.328363L140.75732 21.328363L140.75732 23.093988L135.3667 23.093988ZM142.33545 24.297113L144.08545 24.015863Q144.22607 25.062738 144.89795 25.625238Q145.56982 26.172113 146.77295 26.172113Q147.97607 26.172113 148.5542 25.687738Q149.14795 25.187738 149.14795 24.531488Q149.14795 23.937738 148.63232 23.593988Q148.27295 23.359613 146.83545 23.000238Q144.89795 22.500238 144.14795 22.156488Q143.41357 21.797113 143.02295 21.172113Q142.63232 20.531488 142.63232 19.765863Q142.63232 19.078363 142.94482 18.484613Q143.27295 17.890863 143.81982 17.500238Q144.22607 17.203363 144.9292 17.000238Q145.64795 16.781488 146.46045 16.781488Q147.6792 16.781488 148.60107 17.140863Q149.52295 17.484613 149.96045 18.093988Q150.39795 18.687738 150.56982 19.687738L148.85107 19.922113Q148.72607 19.125238 148.16357 18.687738Q147.60107 18.234613 146.58545 18.234613Q145.3667 18.234613 144.85107 18.640863Q144.33545 19.031488 144.33545 19.562738Q144.33545 19.906488 144.5542 20.187738Q144.75732 20.468988 145.22607 20.656488Q145.4917 20.750238 146.77295 21.093988Q148.64795 21.593988 149.38232 21.922113Q150.1167 22.234613 150.53857 22.843988Q150.96045 23.437738 150.96045 24.343988Q150.96045 25.218988 150.44482 26.000238Q149.9292 26.781488 148.96045 27.203363Q147.9917 27.625238 146.77295 27.625238Q144.75732 27.625238 143.69482 26.781488Q142.63232 25.937738 142.33545 24.297113ZM153.03857 31.359613L153.03857 17.015863L154.64795 17.015863L154.64795 18.359613Q155.21045 17.578363 155.91357 17.187738Q156.63232 16.781488 157.64795 16.781488Q158.97607 16.781488 159.9917 17.468988Q161.00732 18.156488 161.52295 19.406488Q162.0542 20.640863 162.0542 22.125238Q162.0542 23.718988 161.47607 25.000238Q160.91357 26.265863 159.81982 26.953363Q158.72607 27.625238 157.52295 27.625238Q156.64795 27.625238 155.94482 27.250238Q155.25732 26.875238 154.8042 26.312738L154.8042 31.359613L153.03857 31.359613ZM154.63232 22.265863Q154.63232 24.265863 155.44482 25.218988Q156.25732 26.172113 157.41357 26.172113Q158.58545 26.172113 159.41357 25.187738Q160.25732 24.203363 160.25732 22.109613Q160.25732 20.140863 159.4292 19.156488Q158.6167 18.156488 157.4917 18.156488Q156.3667 18.156488 155.4917 19.218988Q154.63232 20.265863 154.63232 22.265863ZM171.14795 24.047113L172.96045 24.281488Q172.53857 25.859613 171.3667 26.750238Q170.21045 27.625238 168.39795 27.625238Q166.13232 27.625238 164.78857 26.234613Q163.46045 24.828363 163.46045 22.297113Q163.46045 19.672113 164.8042 18.234613Q166.14795 16.781488 168.3042 16.781488Q170.38232 16.781488 171.69482 18.203363Q173.02295 19.609613 173.02295 22.187738Q173.02295 22.343988 173.00732 22.656488L165.27295 22.656488Q165.3667 24.359613 166.2417 25.265863Q167.1167 26.172113 168.41357 26.172113Q169.38232 26.172113 170.0542 25.672113Q170.7417 25.156488 171.14795 24.047113ZM165.3667 21.203363L171.16357 21.203363Q171.0542 19.906488 170.50732 19.250238Q169.66357 18.234613 168.31982 18.234613Q167.1167 18.234613 166.28857 19.047113Q165.46045 19.843988 165.3667 21.203363ZM182.14795 24.047113L183.96045 24.281488Q183.53857 25.859613 182.3667 26.750238Q181.21045 27.625238 179.39795 27.625238Q177.13232 27.625238 175.78857 26.234613Q174.46045 24.828363 174.46045 22.297113Q174.46045 19.672113 175.8042 18.234613Q177.14795 16.781488 179.3042 16.781488Q181.38232 16.781488 182.69482 18.203363Q184.02295 19.609613 184.02295 22.187738Q184.02295 22.343988 184.00732 22.656488L176.27295 22.656488Q176.3667 24.359613 177.2417 25.265863Q178.1167 26.172113 179.41357 26.172113Q180.38232 26.172113 181.0542 25.672113Q181.7417 25.156488 182.14795 24.047113ZM176.3667 21.203363L182.16357 21.203363Q182.0542 19.906488 181.50732 19.250238Q180.66357 18.234613 179.31982 18.234613Q178.1167 18.234613 177.28857 19.047113Q176.46045 19.843988 176.3667 21.203363ZM192.77295 27.390863L192.77295 26.078363Q191.78857 27.625238 189.8667 27.625238Q188.63232 27.625238 187.58545 26.937738Q186.5542 26.250238 185.97607 25.031488Q185.41357 23.812738 185.41357 22.218988Q185.41357 20.656488 185.9292 19.390863Q186.44482 18.125238 187.47607 17.453363Q188.52295 16.781488 189.78857 16.781488Q190.72607 16.781488 191.46045 17.187738Q192.19482 17.578363 192.66357 18.203363L192.66357 13.078363L194.39795 13.078363L194.39795 27.390863L192.77295 27.390863ZM187.21045 22.218988Q187.21045 24.203363 188.0542 25.187738Q188.89795 26.172113 190.03857 26.172113Q191.19482 26.172113 191.9917 25.234613Q192.8042 24.297113 192.8042 22.359613Q192.8042 20.234613 191.97607 19.234613Q191.16357 18.234613 189.96045 18.234613Q188.78857 18.234613 187.9917 19.203363Q187.21045 20.156488 187.21045 22.218988ZM203.83545 27.390863L203.83545 25.859613Q202.63232 27.625238 200.5542 27.625238Q199.63232 27.625238 198.83545 27.281488Q198.03857 26.922113 197.64795 26.390863Q197.27295 25.859613 197.1167 25.078363Q197.00732 24.562738 197.00732 23.437738L197.00732 17.015863L198.75732 17.015863L198.75732 22.765863Q198.75732 24.140863 198.8667 24.625238Q199.03857 25.312738 199.56982 25.718988Q200.1167 26.109613 200.89795 26.109613Q201.69482 26.109613 202.38232 25.703363Q203.08545 25.297113 203.3667 24.609613Q203.66357 23.906488 203.66357 22.578363L203.66357 17.015863L205.41357 17.015863L205.41357 27.390863L203.83545 27.390863ZM207.03857 31.359613L207.03857 17.015863L208.64795 17.015863L208.64795 18.359613Q209.21045 17.578363 209.91357 17.187738Q210.63232 16.781488 211.64795 16.781488Q212.97607 16.781488 213.9917 17.468988Q215.00732 18.156488 215.52295 19.406488Q216.0542 20.640863 216.0542 22.125238Q216.0542 23.718988 215.47607 25.000238Q214.91357 26.265863 213.81982 26.953363Q212.72607 27.625238 211.52295 27.625238Q210.64795 27.625238 209.94482 27.250238Q209.25732 26.875238 208.8042 26.312738L208.8042 31.359613L207.03857 31.359613ZM208.63232 22.265863Q208.63232 24.265863 209.44482 25.218988Q210.25732 26.172113 211.41357 26.172113Q212.58545 26.172113 213.41357 25.187738Q214.25732 24.203363 214.25732 22.109613Q214.25732 20.140863 213.4292 19.156488Q212.6167 18.156488 211.4917 18.156488Q210.3667 18.156488 209.4917 19.218988Q208.63232 20.265863 208.63232 22.265863ZM223.39795 22.203363Q223.39795 19.328363 224.9917 17.937738Q226.33545 16.781488 228.25732 16.781488Q230.39795 16.781488 231.7417 18.187738Q233.10107 19.593988 233.10107 22.062738Q233.10107 24.062738 232.50732 25.218988Q231.91357 26.359613 230.75732 27.000238Q229.6167 27.625238 228.25732 27.625238Q226.06982 27.625238 224.72607 26.234613Q223.39795 24.828363 223.39795 22.203363ZM225.19482 22.203363Q225.19482 24.203363 226.0542 25.187738Q226.9292 26.172113 228.25732 26.172113Q229.56982 26.172113 230.4292 25.187738Q231.3042 24.187738 231.3042 22.140863Q231.3042 20.218988 230.4292 19.234613Q229.5542 18.234613 228.25732 18.234613Q226.9292 18.234613 226.0542 19.234613Q225.19482 20.218988 225.19482 22.203363ZM235.46045 27.390863L235.46045 18.390863L233.91357 18.390863L233.91357 17.015863L235.46045 17.015863L235.46045 15.922113Q235.46045 14.875238 235.64795 14.359613Q235.89795 13.672113 236.53857 13.250238Q237.1792 12.828363 238.33545 12.828363Q239.08545 12.828363 239.97607 13.000238L239.71045 14.531488Q239.16357 14.437738 238.6792 14.437738Q237.88232 14.437738 237.53857 14.781488Q237.21045 15.125238 237.21045 16.062738L237.21045 17.015863L239.2417 17.015863L239.2417 18.390863L237.21045 18.390863L237.21045 27.390863L235.46045 27.390863ZM247.46045 27.390863L247.46045 18.390863L245.91357 18.390863L245.91357 17.015863L247.46045 17.015863L247.46045 15.922113Q247.46045 14.875238 247.64795 14.359613Q247.89795 13.672113 248.53857 13.250238Q249.1792 12.828363 250.33545 12.828363Q251.08545 12.828363 251.97607 13.000238L251.71045 14.531488Q251.16357 14.437738 250.6792 14.437738Q249.88232 14.437738 249.53857 14.781488Q249.21045 15.125238 249.21045 16.062738L249.21045 17.015863L251.2417 17.015863L251.2417 18.390863L249.21045 18.390863L249.21045 27.390863L247.46045 27.390863ZM253.0542 15.093988L253.0542 13.078363L254.81982 13.078363L254.81982 15.093988L253.0542 15.093988ZM253.0542 27.390863L253.0542 17.015863L254.81982 17.015863L254.81982 27.390863L253.0542 27.390863ZM257.03857 27.390863L257.03857 17.015863L258.63232 17.015863L258.63232 18.500238Q259.77295 16.781488 261.9292 16.781488Q262.8667 16.781488 263.64795 17.125238Q264.44482 17.453363 264.83545 18.000238Q265.22607 18.547113 265.38232 19.297113Q265.47607 19.797113 265.47607 21.015863L265.47607 27.390863L263.71045 27.390863L263.71045 21.078363Q263.71045 20.000238 263.50732 19.468988Q263.3042 18.937738 262.77295 18.625238Q262.25732 18.312738 261.5542 18.312738Q260.4292 18.312738 259.6167 19.031488Q258.8042 19.734613 258.8042 21.718988L258.8042 27.390863L257.03857 27.390863ZM273.81982 26.109613Q272.83545 26.937738 271.9292 27.281488Q271.02295 27.625238 269.9917 27.625238Q268.28857 27.625238 267.3667 26.797113Q266.44482 25.953363 266.44482 24.656488Q266.44482 23.890863 266.78857 23.265863Q267.14795 22.640863 267.71045 22.265863Q268.27295 21.875238 268.97607 21.672113Q269.4917 21.547113 270.53857 21.406488Q272.66357 21.156488 273.66357 20.812738Q273.6792 20.453363 273.6792 20.343988Q273.6792 19.281488 273.1792 18.828363Q272.50732 18.234613 271.1792 18.234613Q269.9292 18.234613 269.33545 18.672113Q268.75732 19.109613 268.47607 20.218988L266.75732 19.984613Q266.9917 18.875238 267.52295 18.203363Q268.0542 17.515863 269.06982 17.156488Q270.08545 16.781488 271.4292 16.781488Q272.75732 16.781488 273.58545 17.093988Q274.41357 17.406488 274.8042 17.890863Q275.19482 18.359613 275.35107 19.078363Q275.44482 19.531488 275.44482 20.703363L275.44482 23.047113Q275.44482 25.500238 275.5542 26.156488Q275.66357 26.797113 276.00732 27.390863L274.16357 27.390863Q273.89795 26.843988 273.81982 26.109613ZM273.66357 22.187738Q272.71045 22.578363 270.78857 22.843988Q269.71045 23.000238 269.25732 23.203363Q268.81982 23.390863 268.56982 23.765863Q268.31982 24.140863 268.31982 24.609613Q268.31982 25.312738 268.85107 25.781488Q269.38232 26.250238 270.41357 26.250238Q271.4292 26.250238 272.21045 25.812738Q273.00732 25.359613 273.38232 24.593988Q273.66357 23.984613 273.66357 22.828363L273.66357 22.187738ZM278.00732 27.390863L278.00732 13.078363L279.75732 13.078363L279.75732 27.390863L278.00732 27.390863ZM290.9292 27.390863L286.97607 17.015863L288.83545 17.015863L291.06982 23.234613Q291.4292 24.234613 291.72607 25.312738Q291.96045 24.500238 292.38232 23.343988L294.6792 17.015863L296.4917 17.015863L292.56982 27.390863L290.9292 27.390863ZM304.14795 24.047113L305.96045 24.281488Q305.53857 25.859613 304.3667 26.750238Q303.21045 27.625238 301.39795 27.625238Q299.13232 27.625238 297.78857 26.234613Q296.46045 24.828363 296.46045 22.297113Q296.46045 19.672113 297.8042 18.234613Q299.14795 16.781488 301.3042 16.781488Q303.38232 16.781488 304.69482 18.203363Q306.02295 19.609613 306.02295 22.187738Q306.02295 22.343988 306.00732 22.656488L298.27295 22.656488Q298.3667 24.359613 299.2417 25.265863Q300.1167 26.172113 301.41357 26.172113Q302.38232 26.172113 303.0542 25.672113Q303.7417 25.156488 304.14795 24.047113ZM298.3667 21.203363L304.16357 21.203363Q304.0542 19.906488 303.50732 19.250238Q302.66357 18.234613 301.31982 18.234613Q300.1167 18.234613 299.28857 19.047113Q298.46045 19.843988 298.3667 21.203363ZM308.02295 27.390863L308.02295 17.015863L309.60107 17.015863L309.60107 18.593988Q310.21045 17.484613 310.72607 17.140863Q311.2417 16.781488 311.85107 16.781488Q312.7417 16.781488 313.66357 17.343988L313.0542 18.984613Q312.41357 18.593988 311.77295 18.593988Q311.19482 18.593988 310.72607 18.953363Q310.27295 19.297113 310.06982 19.906488Q309.78857 20.843988 309.78857 21.953363L309.78857 27.390863L308.02295 27.390863ZM314.33545 24.297113L316.08545 24.015863Q316.22607 25.062738 316.89795 25.625238Q317.56982 26.172113 318.77295 26.172113Q319.97607 26.172113 320.5542 25.687738Q321.14795 25.187738 321.14795 24.531488Q321.14795 23.937738 320.63232 23.593988Q320.27295 23.359613 318.83545 23.000238Q316.89795 22.500238 316.14795 22.156488Q315.41357 21.797113 315.02295 21.172113Q314.63232 20.531488 314.63232 19.765863Q314.63232 19.078363 314.94482 18.484613Q315.27295 17.890863 315.81982 17.500238Q316.22607 17.203363 316.9292 17.000238Q317.64795 16.781488 318.46045 16.781488Q319.6792 16.781488 320.60107 17.140863Q321.52295 17.484613 321.96045 18.093988Q322.39795 18.687738 322.56982 19.687738L320.85107 19.922113Q320.72607 19.125238 320.16357 18.687738Q319.60107 18.234613 318.58545 18.234613Q317.3667 18.234613 316.85107 18.640863Q316.33545 19.031488 316.33545 19.562738Q316.33545 19.906488 316.5542 20.187738Q316.75732 20.468988 317.22607 20.656488Q317.4917 20.750238 318.77295 21.093988Q320.64795 21.593988 321.38232 21.922113Q322.1167 22.234613 322.53857 22.843988Q322.96045 23.437738 322.96045 24.343988Q322.96045 25.218988 322.44482 26.000238Q321.9292 26.781488 320.96045 27.203363Q319.9917 27.625238 318.77295 27.625238Q316.75732 27.625238 315.69482 26.781488Q314.63232 25.937738 314.33545 24.297113ZM325.0542 15.093988L325.0542 13.078363L326.81982 13.078363L326.81982 15.093988L325.0542 15.093988ZM325.0542 27.390863L325.0542 17.015863L326.81982 17.015863L326.81982 27.390863L325.0542 27.390863ZM328.39795 22.203363Q328.39795 19.328363 329.9917 17.937738Q331.33545 16.781488 333.25732 16.781488Q335.39795 16.781488 336.7417 18.187738Q338.10107 19.593988 338.10107 22.062738Q338.10107 24.062738 337.50732 25.218988Q336.91357 26.359613 335.75732 27.000238Q334.6167 27.625238 333.25732 27.625238Q331.06982 27.625238 329.72607 26.234613Q328.39795 24.828363 328.39795 22.203363ZM330.19482 22.203363Q330.19482 24.203363 331.0542 25.187738Q331.9292 26.172113 333.25732 26.172113Q334.56982 26.172113 335.4292 25.187738Q336.3042 24.187738 336.3042 22.140863Q336.3042 20.218988 335.4292 19.234613Q334.5542 18.234613 333.25732 18.234613Q331.9292 18.234613 331.0542 19.234613Q330.19482 20.218988 330.19482 22.203363ZM340.03857 27.390863L340.03857 17.015863L341.63232 17.015863L341.63232 18.500238Q342.77295 16.781488 344.9292 16.781488Q345.8667 16.781488 346.64795 17.125238Q347.44482 17.453363 347.83545 18.000238Q348.22607 18.547113 348.38232 19.297113Q348.47607 19.797113 348.47607 21.015863L348.47607 27.390863L346.71045 27.390863L346.71045 21.078363Q346.71045 20.000238 346.50732 19.468988Q346.3042 18.937738 345.77295 18.625238Q345.25732 18.312738 344.5542 18.312738Q343.4292 18.312738 342.6167 19.031488Q341.8042 19.734613 341.8042 21.718988L341.8042 27.390863L340.03857 27.390863Z"
     fill-rule="nonzero"
     id="path95" />
  <text
     xml:space="preserve"
     id="text382"
     style="white-space:pre;shape-inside:url(#rect384);display:inline;opacity:0.995763;fill:#ffffff;stroke:#686868;stroke-width:3" />
  <text
     xml:space="preserve"
     id="text388"
     style="white-space:pre;shape-inside:url(#rect390);display:inline;opacity:0.995763;fill:#ffffff;stroke:#686868;stroke-width:3" />
</svg>
