<?xml version="1.0" encoding="UTF-8" standalone="no"?>
<svg
   xmlns:dc="http://purl.org/dc/elements/1.1/"
   xmlns:cc="http://creativecommons.org/ns#"
   xmlns:rdf="http://www.w3.org/1999/02/22-rdf-syntax-ns#"
   xmlns:svg="http://www.w3.org/2000/svg"
   xmlns="http://www.w3.org/2000/svg"
   xmlns:sodipodi="http://sodipodi.sourceforge.net/DTD/sodipodi-0.dtd"
   xmlns:inkscape="http://www.inkscape.org/namespaces/inkscape"
   inkscape:version="1.0 (4035a4f, 2020-05-01)"
   sodipodi:docname="seam-carve-equation.svg"
   id="svg206"
   version="1.2"
   viewBox="0 0 181.52321 81.41317"
   height="81.41317"
   width="181.52321">
  <metadata
     id="metadata212">
    <rdf:RDF>
      <cc:Work
         rdf:about="">
        <dc:format>image/svg+xml</dc:format>
        <dc:type
           rdf:resource="http://purl.org/dc/dcmitype/StillImage" />
        <dc:title>seam-carve</dc:title>
      </cc:Work>
    </rdf:RDF>
  </metadata>
  <defs
     id="defs210" />
  <sodipodi:namedview
     inkscape:current-layer="svg206"
     inkscape:window-maximized="0"
     inkscape:window-y="47"
     inkscape:window-x="107"
     inkscape:cy="43.237219"
     inkscape:cx="95.187365"
     inkscape:zoom="1.7885521"
     fit-margin-bottom="0"
     fit-margin-right="0"
     fit-margin-left="0"
     fit-margin-top="0"
     showgrid="false"
     id="namedview208"
     inkscape:window-height="764"
     inkscape:window-width="1183"
     inkscape:pageshadow="2"
     inkscape:pageopacity="0"
     guidetolerance="10"
     gridtolerance="10"
     objecttolerance="10"
     borderopacity="1"
     bordercolor="#666666"
     pagecolor="#ffffff" />
  <title
     id="title138">seam-carve</title>
  <g
     transform="matrix(0.25,0,0,0.25,-78.264358,-159.64825)"
     id="g144">
    <path
       id="path142"
       d="m 434.322,649.569 55.395,-0.567 64.216,-1.236 100.774,-4.103 27.456,-0.852 112.168,-2.124 87.739,-0.094 116.553,0.761 28.877,-0.136"
       stroke-linejoin="round"
       stroke-linecap="butt"
       stroke-width="4"
       stroke="#000000"
       fill="none" />
  </g>
  <g
     transform="matrix(0.25,0,0,0.25,-78.264358,-159.64825)"
     id="g148">
    <path
       id="path146"
       d="m 435.459,799.777 165.998,0.277 120.828,-0.481 168.573,-1.805 148.252,-2.985"
       stroke-linejoin="round"
       stroke-linecap="butt"
       stroke-width="4"
       stroke="#000000"
       fill="none" />
  </g>
  <g
     transform="matrix(0.25,0,0,0.25,-78.264358,-159.64825)"
     id="g152">
    <path
       id="path150"
       d="m 430.693,946.775 c 0,0 0,0 0,0 94.781,-0.76 189.564,-1.352 284.345,-2.28 33.822,-0.33 67.64,-1.078 101.462,-1.494 6.331,-0.078 12.669,-0.243 18.996,0.014 0.716,0.029 1.283,0.666 1.978,0.837 0.657,0.162 1.349,0.146 2.026,0.147 52.667,0.048 105.336,0.506 158,0 10.29,-0.099 20.55,-0.992 30.81,-1.812 0.28,-0.023 0.63,-0.447 0.49,-0.691 -0.55,-0.939 -1.33,-1.801 -2.27,-2.347 -0.59,-0.34 -1.35,-0.144 -2.03,-0.148 -7.67,-0.041 -15.34,-0.247 -23,0.014 -0.71,0.025 -1.28,0.666 -1.974,0.837 -0.658,0.162 -1.349,0.146 -2.026,0.147 -51.667,0.049 -103.333,0.048 -155,10e-4 -1.676,-0.002 -3.366,0.086 -5.026,-0.148 -0.709,-0.1 -1.262,-0.808 -1.978,-0.837 -6.327,-0.257 -12.665,-0.092 -18.996,-0.014 -33.833,0.416 -67.661,1.12 -101.493,1.495 -96.507,1.071 -193.02,1.526 -289.524,2.845 -1.189,0.016 -2.883,0.076 -3.374,1.158 -0.41,0.903 0.8,2.145 1.758,2.399"
       fill="#000000" />
  </g>
  <g
     transform="matrix(0.25,0,0,0.25,-78.264358,-159.64825)"
     id="g156">
    <path
       id="path154"
       d="m 429.171,654.236 -0.658,-0.244 0.314,0.072 0.383,-0.912 -0.211,-0.058 0.719,1.209 0.549,6.941 0.296,54.983 0.741,16.861 1.103,15.774 0.276,11.148 -0.961,22.179 -1.704,27.119 -0.748,10.245 -0.999,6.737 -0.416,7.264 0.03,14.85 0.694,11.247 0.13,10.142 -1.118,21.014 -0.022,5.235 -1.099,12.064 -1.884,12.558 -0.731,7.689 0.04,8.905 0.897,6.323 1.523,6.651 -0.006,8.381 -0.907,5.295"
       stroke-linejoin="round"
       stroke-linecap="butt"
       stroke-width="4"
       stroke="#000000"
       fill="none" />
  </g>
  <g
     transform="matrix(0.25,0,0,0.25,-78.264358,-159.64825)"
     id="g160">
    <path
       id="path158"
       d="m 576.581,650.307 -0.31,-2.608 0.323,0.281 -0.115,2.312 0.343,1.774 -0.426,7.844 0.339,13.673 -0.302,20.168 0.379,5.895 -0.159,10.949 0.568,11.473 -0.273,15.401 -0.425,6.442 0.422,4.392 0.405,26.006 0.421,4.076 0.065,4.187 -0.449,5.937 0.485,11.239 -1.663,17.185 0.314,12.025 -0.437,7.843 -0.828,9.817 -0.705,3.442 -0.435,8.619 -0.904,4.816 -0.359,8.26 0.19,3.688 -2.531,16.412 -0.046,1.366 1.083,6.771 0.132,7.538 -0.816,2.246 -0.497,2.998 -0.733,9.835 0.311,4.38 0.925,4.903 0.348,5.78 -0.193,3.285 0.447,1.672 -0.327,-2.933"
       stroke-linejoin="round"
       stroke-linecap="butt"
       stroke-width="4"
       stroke="#000000"
       fill="none" />
  </g>
  <g
     transform="matrix(0.25,0,0,0.25,-78.264358,-159.64825)"
     id="g164">
    <path
       id="path162"
       d="m 726.12,641.344 0.829,10.487 -0.15,19.099 -0.555,11.776 1.716,32.555 -0.049,3.351 -2.098,25.687 -0.003,9.066 0.745,13.346 -0.093,6.261 -0.358,9.406 -1.467,17.072 -0.114,20.435 -0.841,20.283 0.576,19.425 -0.653,19.745 -0.896,12.62 0.201,22.143 -1.333,11.672 0.24,2.065 -0.238,16.029 -0.111,1.088 -0.465,0.585 0.396,0.559 0.226,4.367 -0.407,2.22"
       stroke-linejoin="round"
       stroke-linecap="butt"
       stroke-width="4"
       stroke="#000000"
       fill="none" />
  </g>
  <g
     transform="matrix(0.25,0,0,0.25,-78.264358,-159.64825)"
     id="g168">
    <path
       id="path166"
       d="m 860.394,646.155 0.133,-0.967 0.806,0.663 0.541,2.248 0.094,2.703 -0.94,23.455 -0.264,18.138 0.328,11.025 -0.081,27.343 1.43,19.735 0.469,18.828 -0.578,3.828 0.126,3.668 0.764,3.569 0.081,3.808 -0.49,26.198 0.83,29.97 -0.571,9.875 -0.228,23.392 0.26,4.716 -0.472,7.79 0.365,4.753 -0.207,4.429 0.35,7.055 -0.507,11.193 -0.533,3.644 0.283,3.019 1.072,3.451 -0.072,9.09"
       stroke-linejoin="round"
       stroke-linecap="butt"
       stroke-width="4"
       stroke="#000000"
       fill="none" />
  </g>
  <g
     transform="matrix(0.25,0,0,0.25,-78.264358,-159.64825)"
     id="g172">
    <path
       id="path170"
       d="m 1009.28,642.167 -0.4,-1.155 0.6,0.026 0.42,4.709 -0.68,29.924 1.41,23.141 0.14,12.518 -1.48,25.353 0.12,10.894 -0.28,3.567 0.55,23.363 0.5,5.848 0.2,29.2 0.36,6.529 -0.66,3.26 -0.41,12.948 0.39,3.131 0.34,10.742 1.17,5.217 0.19,5.096 -0.64,27.529 0.62,8.881 1.29,9.201 0.64,8.727 0.73,21.333 0.86,3.267 0.95,1.581 0.25,2.132 -0.15,3.429"
       stroke-linejoin="round"
       stroke-linecap="butt"
       stroke-width="4"
       stroke="#000000"
       fill="none" />
  </g>
  <g
     transform="matrix(0.25,0,0,0.25,-78.264358,-159.64825)"
     id="g176">
    <path
       id="path174"
       d="m 791.953,908.52 c 0,0 0,0 0,0 0.515,-0.439 0.905,-1.097 1.545,-1.318 0.298,-0.103 0.506,0.631 0.797,0.51 0.617,-0.256 0.793,-1.167 1.41,-1.424 0.357,-0.149 0.764,0.576 1.098,0.379 0.698,-0.412 0.863,-1.415 1.503,-1.913 0.896,-0.697 2.163,-0.836 3.008,-1.594 0.721,-0.647 0.888,-1.745 1.526,-2.474 0.512,-0.586 1.403,-0.777 1.864,-1.404 0.139,-0.188 -0.553,-0.385 -0.41,-0.57 1.033,-1.338 2.562,-2.237 3.604,-3.568 0.271,-0.346 -0.028,-0.931 0.208,-1.302 0.399,-0.629 1.3,-0.873 1.605,-1.552 0.134,-0.3 -0.613,-0.505 -0.54,-0.826 0.301,-1.303 0.951,-2.508 1.579,-3.689 0.267,-0.5 1.132,-0.747 1.083,-1.312 -0.15,-1.717 -0.933,-3.331 -1.626,-4.911 -1.16,-2.647 -2.346,-5.31 -3.919,-7.736 -0.797,-1.23 -1.882,-2.309 -3.111,-3.109 -1.726,-1.124 -3.615,-2.093 -5.618,-2.573 -1.659,-0.397 -3.44,-0.309 -5.118,0 -1.314,0.242 -2.501,0.97 -3.669,1.619 -1.146,0.637 -2.258,1.36 -3.244,2.224 -1.712,1.5 -3.518,2.97 -4.816,4.839 -1.65,2.374 -2.751,5.092 -3.92,7.736 -0.695,1.574 -1.424,3.183 -1.66,4.887 -0.324,2.351 -0.387,4.779 0.002,7.12 0.272,1.634 1.026,3.194 1.943,4.573 0.518,0.779 1.605,1.007 2.231,1.702 0.649,0.721 0.783,1.856 1.53,2.476 1.706,1.415 3.571,2.751 5.661,3.489 0.677,0.239 1.297,-0.668 2.005,-0.783 0.667,-0.108 1.369,-0.04 2.022,0.131 0.38,0.1 0.599,0.556 0.979,0.655 m 9.995,-51.93 c 0,0 0,0 0,0 1.403,-0.861 2.992,-1.475 4.209,-2.584 0.231,-0.211 -0.639,-0.507 -0.507,-0.791 0.937,-2.019 2.073,-3.98 3.509,-5.681 2.616,-3.097 5.847,-5.626 8.574,-8.626 0.615,-0.677 0.76,-1.709 1.407,-2.356 0.693,-0.692 1.771,-0.892 2.498,-1.549 0.968,-0.876 1.271,-2.625 2.524,-2.994 0.794,-0.233 1.286,1.066 1.786,1.726 0.236,0.311 0.6,0.801 0.365,1.114 -0.886,1.184 -2.469,1.716 -3.365,2.894 -0.257,0.338 0.437,0.901 0.208,1.259 -0.45,0.703 -1.499,0.848 -1.989,1.524 -1.042,1.437 -1.96,3.007 -2.518,4.691 -0.123,0.369 0.642,0.585 0.642,0.974 0,0.709 -0.687,1.32 -0.642,2.027 0.039,0.616 0.447,1.187 0.873,1.633 0.788,0.827 1.709,1.542 2.698,2.114 1.173,0.678 2.38,1.633 3.734,1.604 2.412,-0.052 4.612,-1.499 7,-1.837 1.658,-0.235 3.362,-0.092 5.02,0.133 0.404,0.055 0.611,0.76 1.011,0.686 3.409,-0.631 6.772,-1.563 10.037,-2.729 1.095,-0.392 1.821,-1.537 2.925,-1.903 0.369,-0.123 0.612,0.609 1.001,0.598 0.39,-0.01 0.592,-0.569 0.974,-0.651 0.669,-0.144 1.384,-0.148 2.052,0 0.393,0.087 0.61,0.767 1.003,0.675 0.997,-0.235 1.875,-0.88 2.661,-1.538 1.557,-1.304 3.165,-2.628 4.312,-4.303 0.477,-0.697 0.436,-1.668 0.35,-2.508 -0.04,-0.391 -0.569,-0.577 -0.703,-0.946 -0.193,-0.53 0.127,-1.253 -0.249,-1.674 -1.596,-1.785 -3.063,-4.398 -5.44,-4.692 -3.722,-0.461 -7.223,2.106 -10.932,2.665 -0.341,0.052 -0.628,-0.707 -0.392,-0.958 1.453,-1.546 3.498,-2.442 4.998,-3.943 2.375,-2.376 4.162,-5.301 6.577,-7.636 0.226,-0.219 0.486,0.446 0.795,0.507 0.135,0.027 0.324,-0.158 0.293,-0.293 -0.09,-0.379 -0.521,-0.623 -0.598,-1.005 -0.037,-0.183 0.17,-0.339 0.299,-0.474 1.077,-1.129 2.115,-2.306 3.31,-3.31 0.808,-0.679 2.043,-0.859 2.665,-1.712 0.307,-0.42 -0.462,-1.038 -0.297,-1.531 0.282,-0.843 0.817,-1.66 1.538,-2.18 0.253,-0.182 0.48,0.561 0.787,0.506 0.424,-0.076 0.871,-0.412 0.997,-0.824 0.146,-0.479 -0.304,-0.972 -0.298,-1.472 0.003,-0.2 0.163,-0.385 0.323,-0.505 0.879,-0.659 2.063,-0.954 2.757,-1.806 0.848,-1.042 0.896,-2.574 1.69,-3.658 0.533,-0.727 1.597,-0.919 2.173,-1.614 1.029,-1.242 1.587,-2.821 2.566,-4.103 0.744,-0.974 1.839,-1.645 2.574,-2.626 1.276,-1.701 2.124,-3.701 3.43,-5.38 1.04,-1.338 2.529,-2.282 3.57,-3.62 1.306,-1.679 2.077,-3.739 3.43,-5.38 1.746,-2.118 3.76,-4.011 5.813,-5.833 0.786,-0.698 1.874,-0.996 2.662,-1.692 2.057,-1.817 4.01,-3.76 5.833,-5.813 0.698,-0.786 0.993,-1.877 1.692,-2.662 2.067,-2.322 4.503,-4.298 6.57,-6.62 0.699,-0.785 1,-1.871 1.692,-2.662 1.652,-1.889 3.656,-3.45 5.308,-5.338 0.692,-0.791 1.006,-1.866 1.692,-2.662 1.396,-1.621 3.296,-2.801 4.523,-4.553 0.288,-0.412 -0.576,-1.059 -0.299,-1.478 0.719,-1.086 2.057,-1.612 2.963,-2.547 1.449,-1.495 2.903,-3.011 4.085,-4.725 0.772,-1.118 1.022,-2.529 1.723,-3.692 0.325,-0.538 0.973,-0.823 1.317,-1.349 0.911,-1.393 1.382,-3.068 2.424,-4.367 0.915,-1.141 2.57,-1.598 3.351,-2.835 1.034,-1.636 1.514,-3.589 1.906,-5.485 0.105,-0.505 -0.206,-1.031 -0.466,-1.477 -0.676,-1.162 -1.275,-2.449 -2.314,-3.302 -1.019,-0.837 -2.377,-1.162 -3.63,-1.578 -0.354,-0.118 -0.765,-0.115 -1.121,0 -1.261,0.407 -2.489,0.932 -3.665,1.546 -1.326,0.692 -2.762,1.299 -3.818,2.36 -0.925,0.929 -1.14,2.383 -1.94,3.424 -0.266,0.346 -0.9,0.26 -1.161,0.611 -1.679,2.262 -2.903,4.838 -4.57,7.109 -0.724,0.986 -1.854,1.628 -2.57,2.62 -3.627,5.022 -6.643,10.479 -10.43,15.38 -1.901,2.46 -4.559,4.249 -6.57,6.62 -1.757,2.072 -2.835,4.68 -4.692,6.662 -3.131,3.342 -6.946,5.982 -10.187,9.217 -0.695,0.693 -0.883,1.783 -1.553,2.5 -1.02,1.094 -2.481,1.729 -3.455,2.865 -1.051,1.227 -1.539,2.861 -2.539,4.13 -1.051,1.333 -2.484,2.325 -3.574,3.626 -2.44,2.914 -4.769,5.923 -7,9 -1.249,1.721 -2.101,3.719 -3.43,5.38 -1.353,1.692 -3.217,2.928 -4.57,4.62 -3.99,4.988 -7.468,10.37 -11.43,15.38 -1.347,1.704 -2.333,5.08 -4.477,4.735 -2.133,-0.344 -1.65,-4.004 -2.701,-5.891 -0.466,-0.836 -1.18,-1.508 -1.818,-2.221 -0.226,-0.252 -0.433,-0.606 -0.765,-0.664 -1.011,-0.178 -2.088,-0.28 -3.078,-0.011 -0.978,0.265 -1.879,0.854 -2.612,1.554 -0.941,0.9 -1.178,2.505 -2.309,3.149 -0.613,0.35 -1.303,-0.579 -1.999,-0.693 -0.994,-0.164 -2.039,-0.363 -3.02,-0.134 -1.321,0.309 -2.647,0.842 -3.696,1.701 -2.77,2.269 -4.96,5.174 -7.62,7.57 -0.781,0.704 -1.86,1.013 -2.662,1.692 -1.774,1.502 -3.086,3.556 -5.033,4.823 -0.383,0.25 -0.398,-0.875 -0.338,-1.327 0.051,-0.385 0.634,-0.585 0.642,-0.973 0.009,-0.388 -0.62,-0.612 -0.598,-1 0.04,-0.713 0.792,-1.286 0.768,-2 -0.035,-1.047 -0.941,-1.952 -0.938,-3 0.003,-1.05 0.917,-1.954 0.954,-3.004 0.283,-7.991 0.366,-16.001 10e-4,-23.989 -0.244,-5.351 -1.468,-10.62 -1.827,-15.965 -0.028,-0.407 0.678,-0.607 0.684,-1.015 0.01,-0.708 -0.608,-1.318 -0.641,-2.025 -0.015,-0.315 0.64,-0.509 0.509,-0.796 -0.281,-0.617 -1.507,-0.696 -1.498,-1.374 0.037,-2.98 1.34,-5.825 1.626,-8.791 0.039,-0.405 -0.555,-0.627 -0.682,-1.014 -0.11,-0.333 -0.092,-0.715 0,-1.054 0.188,-0.689 0.754,-1.266 0.828,-1.976 0.206,-1.986 0.218,-4.006 10e-4,-5.99 -0.402,-3.678 -1.528,-7.258 -1.853,-10.944 -0.065,-0.736 0.791,-1.368 0.702,-2.102 -0.246,-2.036 -1.38,-3.892 -1.67,-5.922 -0.058,-0.402 0.673,-0.606 0.678,-1.012 0.008,-0.708 -0.644,-1.318 -0.642,-2.027 10e-4,-0.391 0.568,-0.592 0.651,-0.974 0.148,-0.679 0.2,-1.415 0.013,-2.085 -0.358,-1.286 -0.969,-2.497 -1.615,-3.666 -0.269,-0.485 -0.867,-0.744 -1.101,-1.246 -0.236,-0.508 0.091,-1.217 -0.25,-1.662 -0.59,-0.771 -1.407,-1.478 -2.345,-1.729 -1.314,-0.351 -2.761,-0.318 -4.08,0.011 -0.659,0.164 -1.081,0.843 -1.497,1.379 -0.705,0.908 -1.333,1.886 -1.839,2.918 -0.156,0.317 -0.224,0.72 -0.108,1.054 0.472,1.371 1.412,2.558 1.832,3.946 0.201,0.664 0.144,1.404 -0.01,2.08 -0.091,0.4 -0.715,0.607 -0.694,1.017 0.361,7.005 1.336,13.967 1.828,20.964 0.117,1.659 0.198,3.338 -10e-4,4.989 -0.086,0.711 -0.666,1.283 -0.837,1.978 -0.162,0.657 -0.143,1.349 -0.147,2.026 -0.04,6.665 -0.241,13.336 0.014,19.996 0.027,0.714 0.795,1.263 0.828,1.977 0.032,0.708 -0.642,1.318 -0.642,2.027 0,0.388 0.525,0.602 0.642,0.973 0.106,0.335 0.106,0.719 0,1.054 -0.117,0.371 -0.644,0.584 -0.642,0.973 0.002,0.391 0.551,0.596 0.651,0.974 0.175,0.654 0.147,1.349 0.147,2.026 -0.005,11.341 0.164,22.687 -0.161,34.024 -0.008,0.271 -0.613,0.158 -0.813,-0.025 -3.139,-2.871 -5.771,-6.288 -9.05,-8.999 -0.387,-0.319 -0.978,0.368 -1.475,0.299 -0.71,-0.099 -1.296,-0.667 -2.004,-0.783 -0.676,-0.11 -1.407,-0.112 -2.05,0.122 -0.963,0.349 -1.827,0.949 -2.636,1.577 -0.637,0.495 -1.455,0.979 -1.661,1.759 -0.429,1.618 -0.559,3.401 -0.135,5.02 0.802,3.062 2.089,6.027 3.736,8.73 0.996,1.635 2.619,2.801 4.06,4.061 1.078,0.942 2.464,1.51 3.475,2.525 0.742,0.745 1.019,1.854 1.692,2.662 1.003,1.204 2.346,2.101 3.308,3.338 1.383,1.778 2.402,3.812 3.69,5.66 0.213,0.305 0.472,0.604 0.8,0.78 1.177,0.631 2.368,1.302 3.666,1.616 m -31.67,-3.15 c 0,0 0,0 0,0 1.093,-0.636 2.345,-1.056 3.279,-1.908 1.135,-1.035 2.353,-2.184 2.814,-3.65 0.278,-0.886 -0.82,-1.73 -0.833,-2.658 -0.01,-0.715 0.788,-1.288 0.767,-2.003 -0.01,-0.333 -0.669,-0.256 -0.842,-0.542 -1.054,-1.737 -2.134,-3.499 -2.778,-5.427 -0.127,-0.379 0.826,-0.684 0.62,-1.026 -0.612,-1.019 -1.874,-1.481 -2.662,-2.371 -0.138,-0.157 -0.186,-0.556 0.011,-0.626 0.528,-0.189 1.527,0.559 1.683,0.02 0.29,-1.004 -0.674,-1.993 -0.814,-3.029 -0.09,-0.668 -0.032,-1.365 0.132,-2.02 0.078,-0.314 0.633,-0.47 0.569,-0.788 -0.099,-0.495 -1.004,-0.667 -0.961,-1.17 0.065,-0.772 0.957,-1.247 1.227,-1.974 0.184,-0.498 -0.279,-1.213 0.095,-1.59 0.915,-0.923 2.333,-1.169 3.389,-1.926 0.553,-0.397 1.168,-0.856 1.384,-1.502 0.321,-0.956 0.212,-2.017 0.134,-3.023 -0.04,-0.519 -0.16,-1.077 -0.483,-1.485 -0.957,-1.21 -2.015,-2.38 -3.277,-3.267 -1.092,-0.769 -2.367,-1.307 -3.666,-1.617 -1.011,-0.241 -2.107,-0.241 -3.118,0 -1.299,0.31 -2.502,0.961 -3.666,1.616 -0.421,0.237 -0.798,0.599 -1.025,1.026 -0.882,1.661 -1.36,3.519 -2.266,5.168 -0.41,0.746 -0.921,2.396 -1.647,1.952 -2.582,-1.58 -4.187,-4.378 -6.122,-6.706 -0.592,-0.712 -0.776,-1.726 -1.43,-2.38 -1.051,-1.052 -2.543,-1.591 -3.593,-2.644 -0.734,-0.738 -1.003,-1.839 -1.669,-2.638 -1.003,-1.204 -2.314,-2.127 -3.308,-3.338 -2.72,-3.315 -5.344,-6.716 -7.816,-10.22 -0.69,-0.979 -0.906,-2.252 -1.646,-3.193 -0.604,-0.769 -1.684,-1.062 -2.297,-1.823 -0.821,-1.019 -1.152,-2.366 -1.928,-3.421 -0.651,-0.884 -1.631,-1.483 -2.313,-2.343 -0.575,-0.725 -0.815,-1.689 -1.43,-2.38 -0.663,-0.745 -1.679,-1.117 -2.345,-1.861 -0.698,-0.78 -0.903,-1.956 -1.688,-2.649 -0.226,-0.198 -0.453,0.518 -0.753,0.496 -0.329,-0.024 -0.582,-0.344 -0.781,-0.607 -0.635,-0.838 -1.021,-1.853 -1.695,-2.661 -1.003,-1.203 -2.332,-2.112 -3.308,-3.338 -1.613,-2.025 -2.763,-4.399 -4.43,-6.38 -2.932,-3.484 -6.122,-6.748 -9.335,-9.975 -0.66,-0.663 -1.624,-0.98 -2.258,-1.669 -0.87,-0.945 -1.322,-2.224 -2.194,-3.168 -2.974,-3.22 -6.052,-6.356 -9.31,-9.289 -3.592,-3.232 -7.331,-6.311 -11.216,-9.186 -1.344,-0.994 -2.75,-2.239 -4.416,-2.379 -1.675,-0.141 -3.329,0.758 -4.781,1.607 -1.089,0.636 -1.993,1.632 -2.626,2.723 -0.34,0.584 -0.2,1.35 -0.133,2.022 0.052,0.518 0.173,1.067 0.482,1.486 0.645,0.875 1.46,1.626 2.312,2.303 0.724,0.576 1.694,0.809 2.38,1.43 6.226,5.637 12.399,11.34 18.312,17.304 0.363,0.366 0.403,0.997 0.341,1.508 -0.047,0.387 -0.914,0.698 -0.641,0.977 0.31,0.318 0.854,-0.302 1.299,-0.303 0.186,-10e-4 0.34,0.167 0.473,0.299 0.305,0.305 0.749,0.573 0.824,0.997 0.055,0.309 -0.705,0.548 -0.508,0.792 1.076,1.34 2.658,2.187 3.875,3.401 0.6,0.598 0.877,1.502 1.553,2.014 0.185,0.14 0.394,-0.566 0.564,-0.408 1.338,1.244 2.624,2.61 3.517,4.203 0.191,0.34 -0.521,0.621 -0.598,1.002 -0.037,0.182 0.167,0.34 0.299,0.472 0.305,0.305 0.573,0.744 0.997,0.824 0.29,0.056 0.555,-0.725 0.737,-0.492 1.404,1.794 2.128,4.05 3.482,5.883 0.497,0.674 1.54,0.824 1.992,1.528 0.169,0.262 -0.455,0.479 -0.506,0.787 -0.03,0.183 0.154,0.354 0.298,0.471 0.509,0.414 1.17,0.635 1.634,1.1 1.386,1.389 2.494,3.039 3.881,4.426 0.297,0.297 0.837,0.264 1.119,0.574 3.161,3.481 6.299,6.997 9.151,10.736 2.019,2.646 3.462,5.696 5.43,8.38 1.705,2.326 3.799,4.344 5.57,6.62 0.568,0.73 0.853,1.657 1.43,2.38 0.747,0.936 1.979,1.494 2.517,2.565 1.177,2.346 1.189,5.197 2.515,7.463 1.086,1.857 3.136,2.959 4.538,4.592 0.685,0.797 0.96,1.905 1.691,2.661 1.131,1.169 2.874,1.714 3.823,3.036 0.27,0.376 -0.841,0.446 -1.303,0.477 -1.349,0.09 -2.739,0.196 -4.055,-0.118 -2.704,-0.646 -5.198,-2.001 -7.881,-2.733 -0.68,-0.186 -1.447,-0.223 -2.114,0.005 -1.284,0.438 -2.525,1.084 -3.578,1.939 -0.759,0.616 -1.435,1.437 -1.73,2.369 -0.312,0.988 -0.274,2.109 0,3.108 0.271,0.988 0.984,1.801 1.577,2.636 0.281,0.395 0.565,0.879 1.025,1.031 4.113,1.352 8.386,2.164 12.528,3.425 4.014,1.222 8.055,2.411 11.93,4.02 1.896,0.787 3.397,2.367 5.301,3.133 0.361,0.146 0.633,-0.721 1.002,-0.598 0.809,0.269 1.189,1.328 1.998,1.598 0.369,0.123 0.613,-0.622 1.001,-0.598 0.716,0.044 1.289,0.725 2.003,0.784 m 63.779,-20.311 c 0,0 0,0 0,0 -0.378,-0.383 -0.955,-0.642 -1.133,-1.149 -0.225,-0.645 -0.351,-1.472 0.014,-2.049 0.206,-0.326 0.784,0.401 1.132,0.236 0.6,-0.284 0.801,-1.744 1.385,-1.43 0.669,0.359 0.412,1.547 0.181,2.271"
       fill="#bfbfbf" />
  </g>
  <g
     transform="matrix(0.25,0,0,0.25,-78.264358,-159.64825)"
     id="g180">
    <path
       id="path178"
       d="m 644.465,912.979 c 0,0 0,0 0,0 2.232,-0.889 4.606,-1.481 6.694,-2.667 0.739,-0.42 0.843,-1.559 1.557,-2.02 0.263,-0.17 0.483,0.445 0.79,0.505 0.135,0.027 0.324,-0.158 0.293,-0.293 -0.089,-0.379 -0.527,-0.62 -0.597,-1.002 -0.036,-0.197 0.163,-0.385 0.323,-0.505 0.887,-0.667 2.009,-1.035 2.783,-1.831 1.03,-1.06 2.066,-2.237 2.534,-3.639 0.225,-0.672 -0.695,-1.322 -0.64,-2.03 0.026,-0.332 0.655,-0.264 0.841,-0.541 0.72,-1.064 1.519,-2.149 1.822,-3.398 0.324,-1.334 0.257,-2.769 0.003,-4.119 -0.32,-1.699 -1.403,-3.198 -1.701,-4.902 -0.072,-0.411 0.786,-0.669 0.656,-1.065 -0.552,-1.679 -1.637,-3.134 -2.534,-4.656 -0.403,-0.683 -0.802,-1.389 -1.363,-1.95 -0.807,-0.808 -1.712,-1.535 -2.698,-2.113 -1.153,-0.676 -2.343,-1.451 -3.669,-1.619 -3.014,-0.381 -6.128,-0.556 -9.113,0.004 -1.735,0.325 -3.15,1.61 -4.63,2.573 -1.447,0.943 -3.124,1.726 -4.129,3.131 -1.627,2.275 -2.968,4.868 -3.549,7.604 -0.632,2.971 -0.526,6.12 -0.004,9.113 0.354,2.029 1.554,3.829 2.574,5.619 0.787,1.381 1.697,2.722 2.821,3.846 1.671,1.672 3.47,3.263 5.498,4.477 0.43,0.258 1.007,-0.483 1.474,-0.3 0.798,0.312 1.19,1.299 1.972,1.65 m -21.974,-44.007 c 0,0 0,0 0,0 0.878,-0.639 1.86,-1.156 2.634,-1.918 0.698,-0.686 1.49,-1.423 1.729,-2.372 0.411,-1.635 0.137,-3.369 0.138,-5.054 10e-4,-1.021 0.112,-2.069 -0.132,-3.061 -0.51,-2.066 -1.532,-3.978 -2.107,-6.027 -1.006,-3.583 -1.857,-7.21 -2.631,-10.85 -0.142,-0.672 -0.187,-1.375 -0.113,-2.058 0.05,-0.46 0.071,-1.525 0.478,-1.305 1.536,0.832 2.721,2.238 3.794,3.617 1.016,1.307 1.409,3.022 2.402,4.347 0.509,0.679 1.562,0.836 2.017,1.552 0.168,0.264 -0.459,0.461 -0.55,0.76 -0.102,0.336 -0.161,0.741 0,1.052 0.833,1.619 1.721,3.247 2.918,4.618 1.367,1.566 2.928,3.009 4.696,4.102 1.427,0.882 3.051,1.723 4.728,1.724 1.676,0 3.203,-1.02 4.725,-1.721 0.676,-0.312 1.435,-0.659 1.819,-1.297 3.147,-5.232 5.14,-11.153 8.668,-16.137 1.697,-2.399 4.379,-3.936 6.76,-5.658 0.286,-0.206 0.794,-0.227 1.057,0.007 0.352,0.313 0.426,0.868 0.455,1.339 0.124,1.993 0.196,4.004 10e-4,5.992 -0.07,0.714 -0.74,1.288 -0.784,2.004 -0.024,0.388 0.607,0.612 0.598,1 -0.008,0.388 -0.525,0.602 -0.642,0.973 -0.106,0.335 -0.109,0.72 0,1.054 0.126,0.385 0.742,0.611 0.676,1.01 -0.285,1.71 -1.37,3.218 -1.666,4.926 -0.069,0.399 0.653,0.633 0.632,1.037 -0.035,0.716 -0.733,1.288 -0.784,2.003 -0.213,2.991 -0.138,5.999 0,8.993 0.024,0.521 0.215,1.039 0.483,1.486 0.25,0.419 0.635,0.753 1.03,1.041 0.929,0.678 1.791,1.61 2.918,1.839 1.995,0.407 4.2,0.711 6.108,0 9.577,-3.57 18.483,-8.753 27.918,-12.684 0.37,-0.154 0.657,0.771 1.029,0.621 1.381,-0.554 2.526,-1.585 3.689,-2.514 0.63,-0.503 1.44,-0.983 1.661,-1.759 0.372,-1.298 0.219,-2.719 10e-4,-4.052 -0.1,-0.61 -0.494,-1.165 -0.926,-1.608 -0.797,-0.818 -1.687,-1.581 -2.698,-2.113 -1.379,-0.726 -2.829,-1.557 -4.385,-1.616 -0.761,-0.028 -1.088,1.163 -1.817,1.383 -0.509,0.154 -1.029,-0.454 -1.553,-0.363 -0.612,0.107 -1.141,0.525 -1.622,0.917 -0.64,0.521 -0.91,1.579 -1.707,1.793 -0.602,0.161 -1.228,-0.428 -1.644,-0.893 -0.21,-0.236 -0.213,-0.714 0,-0.948 1.074,-1.179 2.537,-1.948 3.665,-3.076 0.661,-0.662 0.977,-1.627 1.669,-2.258 0.769,-0.701 1.871,-0.965 2.638,-1.669 3.067,-2.813 6.115,-5.674 8.817,-8.839 1.249,-1.464 2.064,-3.253 2.958,-4.956 0.622,-1.186 1.317,-2.381 1.582,-3.694 0.08,-0.395 -0.542,-0.64 -0.628,-1.034 -0.04,-0.183 0.167,-0.342 0.299,-0.474 0.305,-0.305 0.573,-0.748 0.997,-0.824 0.307,-0.055 0.55,0.709 0.787,0.506 1.385,-1.191 2.572,-2.64 3.514,-4.205 0.161,-0.269 -0.717,-0.559 -0.507,-0.791 0.936,-1.036 2.426,-1.439 3.414,-2.425 0.166,-0.166 -0.576,-0.408 -0.41,-0.574 0.988,-0.986 2.479,-1.389 3.414,-2.425 0.211,-0.234 -0.444,-0.488 -0.508,-0.796 -0.029,-0.139 0.137,-0.287 0.273,-0.329 0.54,-0.164 1.238,0.098 1.672,-0.263 1.432,-1.195 2.325,-2.934 3.688,-4.208 0.938,-0.876 2.166,-1.389 3.166,-2.194 0.332,-0.267 0.757,-0.574 0.799,-0.997 0.039,-0.388 -0.515,-0.624 -0.598,-1.004 -0.033,-0.155 0.191,-0.254 0.302,-0.367 2.092,-2.148 4.088,-4.397 6.307,-6.415 0.967,-0.879 2.29,-1.321 3.214,-2.244 0.782,-0.782 1.03,-1.996 1.81,-2.779 0.738,-0.739 1.964,-0.89 2.643,-1.684 0.482,-0.565 0.131,-1.584 0.623,-2.141 2.073,-2.344 4.69,-4.151 6.899,-6.367 0.46,-0.462 0.576,-1.214 1.075,-1.634 1.584,-1.333 3.522,-2.208 5.092,-3.558 0.71,-0.611 1.035,-1.57 1.669,-2.258 1.22,-1.324 2.399,-2.731 3.876,-3.76 0.257,-0.18 0.482,0.457 0.792,0.508 0.183,0.03 0.349,-0.158 0.472,-0.298 0.74,-0.844 1.303,-1.841 2.099,-2.634 0.897,-0.894 2.143,-1.419 2.95,-2.395 4.687,-5.669 8.713,-11.869 13.478,-17.473 0.989,-1.162 2.54,-1.707 3.688,-2.713 1.629,-1.428 2.978,-3.158 4.62,-4.57 0.743,-0.639 1.807,-0.855 2.498,-1.549 0.734,-0.738 1.015,-1.829 1.669,-2.638 0.752,-0.931 1.903,-1.53 2.523,-2.553 0.221,-0.366 -0.4,-0.882 -0.211,-1.265 0.33,-0.666 1.281,-0.881 1.604,-1.551 0.244,-0.507 0.099,-1.143 -0.042,-1.687 -0.099,-0.377 -0.64,-0.582 -0.65,-0.972 -0.01,-0.388 0.521,-0.62 0.598,-1.001 0.037,-0.183 -0.167,-0.342 -0.299,-0.474 -0.638,-0.638 -1.182,-1.44 -1.998,-1.823 -0.285,-0.134 -0.508,0.638 -0.796,0.51 -0.618,-0.276 -0.709,-1.49 -1.385,-1.484 -1.287,0.011 -2.419,0.904 -3.545,1.526 -0.275,0.152 -0.578,0.434 -0.574,0.748 0.006,0.388 0.521,0.618 0.597,0.999 0.037,0.183 -0.17,0.34 -0.299,0.474 -1.649,1.709 -3.166,3.574 -5.028,5.048 -2.31,1.829 -5.004,3.116 -7.419,4.804 -0.906,0.634 -1.733,1.38 -2.526,2.15 -3.322,3.226 -6.734,6.373 -9.812,9.833 -2.286,2.57 -3.945,5.657 -6.244,8.214 -0.703,0.782 -1.876,0.992 -2.661,1.691 -2.322,2.067 -4.232,4.579 -6.62,6.57 -1.634,1.362 -3.698,2.13 -5.38,3.432 -0.44,0.341 -0.489,1.024 -0.884,1.417 -1.563,1.557 -3.437,2.787 -4.949,4.394 -0.721,0.765 -0.993,1.876 -1.692,2.662 -1.972,2.218 -4.077,4.323 -6.283,6.308 -0.963,0.867 -2.225,1.356 -3.192,2.219 -0.415,0.37 -0.489,1.024 -0.884,1.417 -1.563,1.557 -3.499,2.731 -4.949,4.394 -1.786,2.047 -2.984,4.551 -4.694,6.662 -0.35,0.432 -1.024,0.49 -1.417,0.884 -0.662,0.663 -1.016,1.599 -1.701,2.237 -1.34,1.247 -3.035,2.084 -4.329,3.378 -0.694,0.693 -0.904,1.763 -1.551,2.501 -1.739,1.983 -3.877,3.597 -5.57,5.62 -1.829,2.185 -3.459,4.541 -4.962,6.962 -0.662,1.067 -0.733,2.462 -1.504,3.453 -1.525,1.964 -3.266,3.808 -5.274,5.275 -0.524,0.383 -1.337,-0.22 -1.949,0 -0.406,0.147 -0.777,0.57 -0.825,0.999 -0.044,0.387 0.521,0.62 0.598,1.002 0.037,0.183 -0.169,0.34 -0.299,0.474 -0.963,0.986 -1.832,2.1 -2.971,2.875 -0.443,0.302 -1.186,-0.121 -1.591,0.23 -0.783,0.682 -0.902,1.939 -1.686,2.62 -0.228,0.198 -0.605,-0.757 -0.758,-0.497 -0.3,0.508 0.272,1.243 0.007,1.77 -0.564,1.121 -1.418,2.108 -2.37,2.925 -0.327,0.281 -0.917,-0.034 -1.278,0.204 -0.683,0.45 -0.984,1.38 -1.708,1.763 -0.298,0.157 -0.861,-0.035 -0.944,-0.362 -0.095,-0.377 0.598,-0.614 0.598,-1.003 0,-0.389 -0.609,-0.612 -0.598,-1 0.01,-0.391 0.569,-0.592 0.651,-0.974 0.144,-0.669 0.321,-1.449 -10e-4,-2.052 -0.93,-1.744 -2.042,-3.497 -3.606,-4.706 -1.277,-0.988 -3.341,-0.563 -4.566,-1.615 -1.295,-1.111 -1.407,-3.161 -2.513,-4.46 -0.657,-0.771 -1.619,-1.355 -2.612,-1.555 -1.67,-0.337 -3.455,-0.401 -5.113,-0.004 -2.003,0.48 -3.796,1.611 -5.618,2.573 -0.505,0.266 -0.823,1.371 -1.321,1.091 -1.117,-0.63 -2.134,-1.835 -2.263,-3.11 -0.092,-0.914 1.596,-1.234 1.732,-2.142 0.158,-1.054 -0.833,-1.991 -0.956,-3.05 -0.155,-1.332 -0.088,-2.699 0.133,-4.022 0.064,-0.386 0.692,-0.555 0.695,-0.947 0.004,-0.725 -0.768,-1.347 -0.678,-2.066 0.253,-2.035 1.381,-3.892 1.67,-5.922 0.06,-0.42 -0.726,-0.659 -0.673,-1.08 0.677,-5.362 2.24,-10.593 2.824,-15.966 0.36,-3.31 0.216,-6.667 -10e-4,-9.99 -0.047,-0.715 -0.74,-1.287 -0.784,-2.003 -0.024,-0.388 0.598,-0.612 0.598,-1 0,-0.389 -0.728,-0.634 -0.598,-1.001 0.286,-0.808 1.213,-1.235 1.65,-1.973 0.177,-0.297 0.133,-0.684 0.133,-1.03 0,-0.675 0.049,-1.371 -0.132,-2.022 -0.105,-0.377 -0.688,-0.555 -0.695,-0.947 -0.012,-0.708 0.642,-1.318 0.642,-2.027 0,-0.388 -0.524,-0.602 -0.642,-0.971 -0.109,-0.344 -0.155,-0.752 -0.013,-1.084 0.44,-1.03 1.478,-1.795 1.712,-2.89 0.151,-0.703 -0.642,-1.336 -0.655,-2.055 -0.008,-0.388 0.609,-0.612 0.598,-1 -0.01,-0.391 -0.59,-0.588 -0.652,-0.974 -0.211,-1.326 -0.146,-2.683 -0.146,-4.026 0,-0.677 -0.015,-1.369 0.147,-2.026 0.171,-0.695 0.737,-1.269 0.837,-1.978 0.185,-1.316 0.171,-2.67 10e-4,-3.989 -0.424,-3.289 -0.531,-6.715 -1.78,-9.787 -0.772,-1.901 -2.306,-3.573 -4.073,-4.618 -1.05,-0.621 -2.535,-0.428 -3.659,0.047 -1.178,0.496 -1.95,1.672 -2.759,2.661 -0.648,0.792 -1.149,1.706 -1.577,2.636 -0.149,0.323 -0.125,0.704 -0.124,1.06 0.003,1.007 -0.058,2.031 0.134,3.02 0.136,0.703 0.712,1.273 0.836,1.978 0.117,0.665 0.049,1.371 -0.132,2.022 -0.105,0.377 -0.693,0.555 -0.695,0.947 -0.005,1.042 0.693,2.01 0.676,3.051 -0.005,0.287 -0.681,0.173 -0.732,0.456 -0.8,4.406 -1.3,8.863 -1.769,13.317 -1.079,10.233 -1.705,20.511 -2.875,30.734 -0.554,4.839 -1.786,9.586 -2.294,14.429 -0.044,0.421 0.739,0.66 0.67,1.077 -0.284,1.71 -1.381,3.216 -1.666,4.926 -0.066,0.399 0.672,0.605 0.676,1.01 0.008,0.708 -0.632,1.318 -0.642,2.027 -0.006,0.388 0.607,0.612 0.598,1 -0.008,0.388 -0.642,0.584 -0.642,0.973 0,0.709 0.632,1.318 0.642,2.027 0.006,0.388 -0.622,0.612 -0.598,1 0.044,0.716 0.742,1.288 0.784,2.003 0.173,3.003 0.287,6.045 -0.147,9.021 -0.057,0.386 -0.853,-0.052 -1.12,-0.335 -0.674,-0.714 -0.779,-1.9 -1.556,-2.499 -2.341,-1.803 -4.85,-3.485 -7.604,-4.555 -1.269,-0.494 -2.814,-0.476 -4.084,0.014 -1.242,0.478 -1.77,2.071 -2.947,2.693 -0.455,0.241 -1.081,-0.052 -1.508,-0.34 -0.948,-0.638 -1.441,-1.907 -2.493,-2.353 -0.936,-0.398 -2.124,-0.418 -3.052,0 -1.134,0.51 -2.166,1.455 -2.688,2.583 -0.97,2.093 -1.413,4.431 -1.623,6.728 -0.067,0.731 0.698,1.32 0.821,2.044 0.113,0.666 0.039,1.368 -0.132,2.022 -0.098,0.378 -0.666,0.584 -0.651,0.974 0.028,0.714 0.701,1.289 0.767,2 0.043,0.457 -0.106,1.591 -0.461,1.299 -1.902,-1.562 -3.303,-3.658 -4.796,-5.615 -0.968,-1.27 -1.323,-3.045 -2.569,-4.045 -0.461,-0.37 -1.133,0.954 -1.648,0.662 -0.586,-0.333 -0.183,-1.4 -0.594,-1.935 -0.567,-0.735 -1.598,-1 -2.207,-1.7 -0.665,-0.763 -1.359,-1.617 -1.549,-2.611 -0.136,-0.706 0.555,-1.343 0.655,-2.055 0.026,-0.186 -0.171,-0.339 -0.299,-0.475 -0.745,-0.795 -1.459,-1.631 -2.31,-2.31 -0.724,-0.577 -1.685,-0.819 -2.38,-1.43 -2.055,-1.807 -3.807,-3.937 -5.825,-5.786 -0.309,-0.282 -0.823,-0.276 -1.119,-0.573 -2.144,-2.156 -4.201,-4.403 -6.151,-6.736 -2.439,-2.918 -4.813,-5.898 -7.004,-9.006 -0.959,-1.361 -1.517,-2.971 -2.422,-4.368 -0.908,-1.4 -1.948,-2.713 -3.004,-4.006 -3.47,-4.251 -7.18,-8.305 -10.57,-12.62 -3.946,-5.022 -7.44,-10.392 -11.43,-15.38 -1.353,-1.692 -3.16,-2.975 -4.57,-4.62 -0.602,-0.703 -0.815,-1.688 -1.43,-2.38 -2.065,-2.324 -4.562,-4.247 -6.57,-6.62 -1.672,-1.976 -2.758,-4.404 -4.43,-6.38 -2.008,-2.373 -4.503,-4.298 -6.57,-6.62 -0.699,-0.785 -1.019,-1.854 -1.692,-2.662 -0.992,-1.192 -2.42,-2.009 -3.273,-3.304 -1.088,-1.652 -1.531,-3.653 -2.459,-5.4 -0.159,-0.301 -0.456,-0.537 -0.767,-0.674 -0.314,-0.14 -0.688,-0.191 -1.024,-0.119 -0.698,0.15 -1.286,0.738 -2,0.768 -0.388,0.017 -0.584,-0.642 -0.973,-0.642 -0.709,0 -1.318,0.632 -2.027,0.642 -0.389,0.006 -0.62,-0.521 -1.001,-0.598 -0.183,-0.037 -0.34,0.169 -0.474,0.299 -0.987,0.964 -2.191,1.777 -2.876,2.974 -0.34,0.594 -0.168,1.389 -10e-4,2.052 0.152,0.599 0.497,1.162 0.926,1.608 0.699,0.726 1.665,1.152 2.399,1.843 2.341,2.205 4.713,4.396 6.812,6.833 1.993,2.314 3.496,5.016 5.43,7.38 1.073,1.312 2.534,2.279 3.57,3.62 0.769,0.996 0.987,2.355 1.791,3.322 0.881,1.058 2.332,1.554 3.174,2.643 0.83,1.074 0.907,2.606 1.722,3.692 2.22,2.957 5.061,5.409 7.313,8.343 4.337,5.65 8.113,11.715 12.43,17.38 1.027,1.348 2.53,2.282 3.57,3.62 1.306,1.679 2.154,3.679 3.43,5.38 0.734,0.979 1.847,1.633 2.57,2.62 2.952,4.026 5.434,8.386 8.43,12.38 1.017,1.356 2.485,2.318 3.57,3.62 0.593,0.711 0.828,1.677 1.43,2.38 1.41,1.645 3.161,2.975 4.57,4.62 0.595,0.695 0.761,1.709 1.407,2.356 0.693,0.692 1.761,0.904 2.498,1.549 1.807,1.582 3.616,3.202 5.095,5.095 2.049,2.623 3.299,5.823 5.43,8.38 3.097,3.717 9.417,5.57 10.178,10.347 0.444,2.791 -5.577,1.137 -8.172,2.256 -0.963,0.415 -1.606,1.378 -2.224,2.225 -0.306,0.421 -0.441,0.966 -0.482,1.485 -0.08,1.015 -0.166,2.075 0.123,3.051 0.287,0.972 0.835,1.898 1.554,2.612 1.097,1.089 2.374,2.045 3.782,2.686 0.815,0.37 1.86,-0.124 2.674,0.25 0.743,0.342 0.929,1.51 1.707,1.765 0.562,0.184 1.053,-0.651 1.645,-0.666 0.388,-0.01 0.612,0.604 1,0.598 0.403,-0.005 0.658,-0.774 1.034,-0.628 4.024,1.566 7.846,3.614 11.69,5.579 0.49,0.251 0.734,0.949 1.275,1.049 0.395,0.073 0.641,-0.722 1.03,-0.622 1.088,0.28 1.854,1.365 2.942,1.646 0.388,0.1 0.628,-0.627 1.029,-0.622 0.39,0.004 0.605,0.525 0.977,0.644 m 23.699,-121.337 c 0,0 0,0 0,0 0.218,-0.013 0.603,-0.251 0.656,-0.039 0.112,0.444 0.125,1.306 -0.332,1.333"
       fill="#000000" />
  </g>
  <g
     transform="matrix(0.25,0,0,0.25,-78.264358,-159.64825)"
     id="g184">
    <path
       id="path182"
       d="m 359.863,859.667 0.392,-1.366 1.326,-2.215 2.692,-2.075 1.528,-0.048 1.44,1.556 0.672,1.738 1.039,5.001 -0.507,6.578 -1.449,7.681 -7.995,23.654 -1.198,5.751 0.196,2.179 0.654,1.632 2.451,2.502 2.918,1.468 1.669,0.208 1.568,-0.034 5.479,-1.184 3.785,-2.247 0.334,-1.164"
       stroke-linejoin="round"
       stroke-linecap="butt"
       stroke-width="6"
       stroke="#000000"
       fill="none" />
  </g>
  <g
     transform="matrix(0.25,0,0,0.25,-78.264358,-159.64825)"
     id="g188">
    <path
       id="path186"
       d="m 369.672,834.758 -0.617,1.916 0.598,-2.218 0.416,-0.094 -0.154,0.656 -0.846,1.442 1.322,-3.719 -0.017,-0.382 -0.414,0.206 -0.983,2.056 -0.484,2.069"
       stroke-linejoin="round"
       stroke-linecap="butt"
       stroke-width="6"
       stroke="#000000"
       fill="none" />
  </g>
  <g
     transform="matrix(0.25,0,0,0.25,-78.264358,-159.64825)"
     id="g192">
    <path
       id="path190"
       d="m 316.408,718.07 -0.351,2.192 0.507,-1.289 1.629,-2.396 2.714,-3.273 0.766,-0.459 0.794,0.494 0.166,0.666 0.497,4.704 -1.254,11.939 -3.328,18.029 0.123,4.57 0.44,1.245 0.535,1.159 1.632,1.642 1.691,0.826 1.437,0.176 3.393,-0.585 1.712,-0.649 1.543,-1.108 0.815,-0.157"
       stroke-linejoin="round"
       stroke-linecap="butt"
       stroke-width="6"
       stroke="#000000"
       fill="none" />
  </g>
  <g
     transform="matrix(0.25,0,0,0.25,-78.264358,-159.64825)"
     id="g196">
    <path
       id="path194"
       d="m 326.055,695.629 0.488,0.032 0.436,-0.868 0.027,-1.829 -1.21,3.872 -0.622,0.637 1.519,-2.409"
       stroke-linejoin="round"
       stroke-linecap="butt"
       stroke-width="6"
       stroke="#000000"
       fill="none" />
  </g>
  <g
     transform="matrix(0.25,0,0,0.25,-78.264358,-159.64825)"
     id="g200">
    <path
       id="path198"
       d="m 350.004,730.127 4.62,0.208 3.52,-0.716 6.527,-2.439"
       stroke-linejoin="round"
       stroke-linecap="butt"
       stroke-width="6"
       stroke="#000000"
       fill="none" />
  </g>
  <g
     transform="matrix(0.25,0,0,0.25,-78.264358,-159.64825)"
     id="g204">
    <path
       id="path202"
       d="m 387.987,708.131 0.041,-2.256 0.277,3.926 0.099,6.623 -0.754,14.692 -2.311,17.145 -0.291,3.666 0.435,1.531 -0.268,0.428"
       stroke-linejoin="round"
       stroke-linecap="butt"
       stroke-width="6"
       stroke="#000000"
       fill="none" />
  </g>
</svg>
