<?xml version="1.0" encoding="UTF-8" standalone="no"?>
<svg
   xmlns:dc="http://purl.org/dc/elements/1.1/"
   xmlns:cc="http://creativecommons.org/ns#"
   xmlns:rdf="http://www.w3.org/1999/02/22-rdf-syntax-ns#"
   xmlns:svg="http://www.w3.org/2000/svg"
   xmlns="http://www.w3.org/2000/svg"
   xmlns:sodipodi="http://sodipodi.sourceforge.net/DTD/sodipodi-0.dtd"
   xmlns:inkscape="http://www.inkscape.org/namespaces/inkscape"
   inkscape:version="1.0 (4035a4f, 2020-05-01)"
   inkscape:export-ydpi="96"
   inkscape:export-xdpi="96"
   inkscape:export-filename="/Users/shwestrick/proj/shwestrick.github.io/assets/racy/graph.png"
   sodipodi:docname="graph.svg"
   id="svg945"
   version="1.2"
   viewBox="0 0 703.59601 522.27502"
   height="522.27502"
   width="703.59601">
  <metadata
     id="metadata951">
    <rdf:RDF>
      <cc:Work
         rdf:about="">
        <dc:format>image/svg+xml</dc:format>
        <dc:type
           rdf:resource="http://purl.org/dc/dcmitype/StillImage" />
        <dc:title>bfs</dc:title>
      </cc:Work>
    </rdf:RDF>
  </metadata>
  <defs
     id="defs949" />
  <sodipodi:namedview
     inkscape:current-layer="svg945"
     inkscape:window-maximized="0"
     inkscape:window-y="102"
     inkscape:window-x="1547"
     inkscape:cy="354.97997"
     inkscape:cx="387.08858"
     inkscape:zoom="0.55454558"
     fit-margin-bottom="0"
     fit-margin-right="0"
     fit-margin-left="0"
     fit-margin-top="0"
     showgrid="false"
     id="namedview947"
     inkscape:window-height="845"
     inkscape:window-width="1517"
     inkscape:pageshadow="2"
     inkscape:pageopacity="0"
     guidetolerance="10"
     gridtolerance="10"
     objecttolerance="10"
     borderopacity="1"
     bordercolor="#666666"
     pagecolor="#ffffff" />
  <title
     id="title833">bfs</title>
  <path
     fill="none"
     stroke="#000000"
     stroke-width="4"
     stroke-linecap="round"
     stroke-linejoin="round"
     d="m 12.696999,273.83 0.67,-2.347 -0.267,0.856 -0.381,-0.326 -1.518,1.127 -2.5310005,3.188 -2.789,5.27 -2.294,6.7 -1.587,9.96 0.258,2.747 1.842,6.69 1.389,1.55 1.625,0.983 1.643,0.36 6.8860005,-1.241 2.887,-1.25 2.324,-1.707 1.951,-2.088 1.856,-2.538 2.965,-5.957 2.296,-6.611 0.471,-3.564 0.182,-6.509 -0.452,-2.818 -1.051,-2.224 -3.508,-3.37 -3.373,-2.255 -1.541,-0.649 -1.699,-0.12 -1.782,0.346 -2.768,1.372"
     id="path837" />
  <path
     fill="none"
     stroke="#000000"
     stroke-width="4"
     stroke-linecap="round"
     stroke-linejoin="round"
     d="m 39.485999,252.828 3.211,-5.589 4.044,-8.659 3.079,-3.965 9.567,-17.702 4.76,-7.162 3.684,-6.941 6.504,-8.993 7.595,-14.103 11.381,-16.905 8.834001,-11.46 1.369,-2.753 2.346,-2.852 3.982,-6.492 4.282,-6.076 4.306,-5.517 2.698,-4.051 2.225,-2.43 0.775,-1.769"
     id="path841" />
  <path
     fill="none"
     stroke="#000000"
     stroke-width="4"
     stroke-linecap="round"
     stroke-linejoin="round"
     d="m 146.802,87.549997 -0.59,2.782 0.737,4.239 0.425,11.717003 -1.207,15.426 0.187,1.82 0.894,-0.067 0.019,-0.252"
     id="path845" />
  <path
     fill="none"
     stroke="#000000"
     stroke-width="4"
     stroke-linecap="round"
     stroke-linejoin="round"
     d="m 50.826999,299.923 0.091,-0.288 0.214,0.111 3.433,2.86 2.627,1.526 14.016,3.042 3.336,1.137 9.018,4.463 17.183001,4.825 6.575,2.946 6.965,3.864 20.074,7.52 5.408,2.681 15.822,3.697 3.432,1.603 2.09,1.614 9.142,3.457 2.379,0.004 0.155,-0.276 -0.295,-0.371"
     id="path849" />
  <path
     fill="none"
     stroke="#000000"
     stroke-width="4"
     stroke-linecap="round"
     stroke-linejoin="round"
     d="m 185.813,342.549 -0.592,-1.365 0.164,-1.166 0.551,-1.738 2.037,-2.908 2.208,-1.326 0.986,-0.047 1.642,1.219 1.778,2.595 0.673,1.808 0.229,5.003 -0.331,2.901 -4.738,10.257 -0.567,0.82 -0.585,0.276 0.891,-0.895 0.996,-0.143 11.932,2.729 3.324,1.563"
     id="path853" />
  <path
     fill="none"
     stroke="#000000"
     stroke-width="4"
     stroke-linecap="round"
     stroke-linejoin="round"
     d="m 38.420999,323.625 -0.196,-0.431 -1.227,-0.1 1.066,0.074 2.074,2.227 5.583,8.589 6.364,5.405 6.8,7.664 2.887,4.453 4.027,4.185 9.15,8.388 3.394,3.865 3.982,6.072 3.756,4.311 0.848,1.377 2.697,2.705 1.137,2.59 2.405,3.283 10.845001,10.945 5.156,5.631 1.855,1.553 1.461,1.535 0.811,1.484 2.609,2.621 15.901,14.924 6.727,8.573 3.04,4.884 2.969,2.953 2.367,2.97 0.593,1.189 5.698,5.227 2.695,3.362 2.856,4.358 3.505,4.158 1.02,1.922 4.559,6.371 0.909,0.984 2.886,2.018 -0.209,0.185 0.329,0.167 -0.318,0.217 -0.892,-0.281"
     id="path857" />
  <path
     fill="none"
     stroke="#000000"
     stroke-width="4"
     stroke-linecap="round"
     stroke-linejoin="round"
     d="m 184.065,487.822 -0.709,2.892 -0.45,-0.231 0.337,-1.169 2.402,-4.098 3.516,-2.614 0.863,-0.345 1.618,0.303 1.432,1.118 1.497,1.737 0.939,2.251 0.055,3.179 -1.144,7.212 -1.458,2.02 -1.733,0.11 1.227,-2.31 2.162,-0.392 1.258,0.091 0.865,0.479 1.052,0.664 3.344,3.617 1.11,2.261 0.309,2.62 -0.043,1.497 -2.057,4.782 -2.363,3.394 -1.181,1.015 -2.503,1.125 -5.809,-0.189 -2.237,1.434"
     id="path861" />
  <path
     fill="none"
     stroke="#000000"
     stroke-width="4"
     stroke-linecap="round"
     stroke-linejoin="round"
     d="m 170.297,118.933 0.4,-0.017 0.17,0.504 1.542,1.322 6.911,4.106 4.813,4.097 2.68,1.857 8.887,5.248 4.367,3.939 2.78,1.677 4.482,3.453 3.239,1.299 4.832,3.23 0.845,0.93 5.137,3.674 7.488,6.453 1.303,0.874 11.263,5.286 4.784,3.529 4.819,5.674 1.52,1.129 17.16,7.816 1.78,1.153 0.988,1.243 5.995,5.387 1.682,1.122 4.048,1.749 6.728,3.757 5.915,4.207 9.161,8.578 2.738,1.725 1.094,0.119 -0.058,-0.32 -1.49,1.196"
     id="path865" />
  <path
     fill="none"
     stroke="#000000"
     stroke-width="4"
     stroke-linecap="round"
     stroke-linejoin="round"
     d="m 222.923,338.559 1.02,-1.536 -0.33,-0.058 0.042,0.264 0.715,-0.854 2.192,-3.482 6.049,-8.053 2.344,-4.759 5.952,-7.145 8.654,-9.059 4.307,-5.237 2.752,-4.865 2.841,-2.023 4.225,-5.626 2.512,-2.026 1.92,-2.588 3.03,-3.197 2.264,-1.637 6.51,-5.73 3.763,-4.428 6.385,-5.4 0.665,-1 2.781,-2.611 0.494,-1.074 2.638,-1.921 6.657,-6.719 1.036,-1.757 1.853,-1.358 0.918,-1.082 0.642,-1.002 -0.371,-0.212"
     id="path869" />
  <path
     fill="none"
     stroke="#000000"
     stroke-width="4"
     stroke-linecap="round"
     stroke-linejoin="round"
     d="m 328.149,194.796 0.286,1.474 0.811,-1.574 -0.282,7.034 -0.847,6.31 0.154,4.84 0.462,1.174 2.274,0.548 2.65,-0.125 4.347,-1.465 6.929,-3.78 1.82,-2.971 -0.327,-5.207 0.868,-5.168 -0.194,0.702 0.386,1.058 -0.628,3.985 -0.363,9.232 0.026,18.289 0.829,7.929 0.647,2.01 0.887,0.97 0.027,0.278 -0.27,-0.212"
     id="path873" />
  <path
     fill="none"
     stroke="#000000"
     stroke-width="4"
     stroke-linecap="round"
     stroke-linejoin="round"
     d="m 214.993,477.901 1.024,-1.119 1.7,-3.014 2.023,-2.264 5.413,-8.662 0.263,-1.471 0.738,-1.255 1.211,-1.303 1.36,-2.482 1.203,-1.262 0.679,-1.616 1.791,-2.698 5.148,-10.371 3.864,-9.141 5.197,-9.325 1.517,-1.723 1.084,-1.929 0.33,-1.824 5.097,-8.845 8.423,-17.301 1.609,-4.092 7.107,-11.139 2.196,-5.028 6.425,-11.379 4.205,-6.711 3.371,-4.466 1.901,-3.828 1.463,-4.641 1.073,-2.007 0.494,-2.226 1.171,-2.137 1.781,-2.08 2.353,-4.421 4.14,-5.872 8.022,-16.925 1.174,-3.639 2.939,-4.83 5.899,-8.6 3.921,-7.68 4.041,-9.315 1.052,-1.542 0.611,-1.529 0.178,-2.362 1.519,-4.503 2.451,-5.194"
     id="path877" />
  <path
     fill="none"
     stroke="#000000"
     stroke-width="4"
     stroke-linecap="round"
     stroke-linejoin="round"
     d="m 193.568,380.048 -0.753,-0.447 0.553,0.814 0.889,6.671 -0.198,2.987 0.382,1.643 0.096,3.094 -0.634,6.926 1.376,13.847 -1.085,12.432 -0.086,4.764 0.517,1.647 -0.324,0.91 0.274,1.598 -0.324,2.958 0.462,0.965 0.268,2.718 -0.123,1.322 -0.361,0.616 -0.136,2.42 0.529,1.555 0.404,-0.151 -0.139,-0.413"
     id="path881" />
  <path
     fill="none"
     stroke="#000000"
     stroke-width="4"
     stroke-linecap="round"
     stroke-linejoin="round"
     d="m 225.157,499.907 1.914,3.824 0.195,-1.111 0.429,-0.119 6.62,-0.893 4.648,-0.135 5.66,-0.618 10.272,-1.786 24.67,0.21 14.49,-3.053 4.534,-0.332 14.515,1.008 9.701,-0.014 16.779,-2.814 14.257,0.167 6.612,-0.277 9.736,-0.953 7.087,-1.083 2.052,0.007 0.829,-0.705 -0.611,0.159"
     id="path885" />
  <path
     fill="none"
     stroke="#000000"
     stroke-width="4"
     stroke-linecap="round"
     stroke-linejoin="round"
     d="m 355.015,255.125 -0.138,1.581 0.906,5.192 3.249,10.174 3.995,14.281 0.608,2.593 0.304,4.919 2.385,7.554 1.373,8.681 0.72,2.843 3.78,12.347 4.103,8.434 1.548,5.824 1.623,9.865 4.809,18.116 2.183,5.923 4.485,14.198 1.386,2.78 0.078,1.33 2.205,5.036 4.767,12.751 0.563,3.101 1.05,1.313 1.18,2.677 0.565,3.342 2.503,6.961 2.519,8.559 0.454,1.079 1.498,1.876 0.021,0.728 0.499,0.186 -0.33,0.092 0.586,0.086 0.134,0.363 -0.254,0.8 -4.054,2.89"
     id="path889" />
  <path
     fill="none"
     stroke="#000000"
     stroke-width="4"
     stroke-linecap="round"
     stroke-linejoin="round"
     d="m 181.478,104.781 -0.388,-0.276 3.384,0.11 3.687,-0.582 3.943,-1.456 3.794,-0.953 6.253,-0.258 3.663,-0.867 6.698,-2.532003 7.585,-3.377 4.073,-1.014 8.685,-0.452 13.324,-1.695 11.117,-2.921 6.115,-1.11 6.021,-1.522 10.371,-2.003 10.857,-1.209 5.953,-1.17 11.865,-2.984 25.486,-2.701 20.531,-4.266 5.207,-1.373 7.307,-1.128 5.477,-0.496 5.739,0.009 8.694,-1.087 23.311,-5.064 12.014,-1.324 13.752,-2.486 5.295,-1.956 2.159,-1.333 0.273,-0.448 -0.235,-0.351 -4.077,4.375"
     id="path893" />
  <path
     fill="none"
     stroke="#000000"
     stroke-width="4"
     stroke-linecap="round"
     stroke-linejoin="round"
     d="m 368.284,191.582 -0.111,-2.89 0.682,0.073 0.863,-0.651 4.774,-7.657 2.078,-2.792 2.879,-3.291 3.66,-3.483 1.479,-3.219 2.797,-3.577 1.078,-2.416 1.611,-2.536 2.932,-3.325 2.683,-4.09 3.265,-3.998 2.093,-4.001 2.984,-4.014 1.98,-4.269 4.568,-5.364 5.48,-7.912 3.148,-4.977 1.191,-2.446 1.191,-1.01 0.687,-1.076 0.156,-1.318 1.523,-2.35 0.159,-1.018 1.151,-2.461 2.093,-3.243 4.211,-4.787003 3.042,-4.843 0.592,-1.631 -0.281,-2.826 0.21,-1.232 0.663,-1.328 0.047,-1.434 0.765,-1.496 7.453,-9.399 2.609,-2.542"
     id="path897" />
  <path
     fill="none"
     stroke="#000000"
     stroke-width="4"
     stroke-linecap="round"
     stroke-linejoin="round"
     d="m 454.473,77.107997 1.435,3.332 -0.722,1.572 -0.244,2.438 -0.183,12.621 -0.512,4.621003 0.171,4.041 -0.955,5.466 0.22,4.042 -1.456,16.715 -0.241,11.288 -1.029,11.367 -0.283,7.75 -0.94,4.755 -0.883,11.833 -0.604,3.231 -0.678,11.426 0.146,5.76 -0.246,2.986 0.238,2.876 0.715,2.804 0.121,7.317 -2.203,20.732 -0.149,11.064 0.491,11.092 -0.801,13.929 -1.598,9.264 -0.54,7.773 -0.191,9.603 -0.784,6.105 -0.113,3.071 0.807,8.061 -0.749,7.841 -1.509,8.947 -0.026,10.63 0.392,3.621 -0.835,3.084 -1.202,7.275 0.152,1.751 -0.331,1.984 -0.822,2.126 0.209,2.059 -0.213,2.021 -0.788,2.093 0.205,8.672 -0.111,1.064 -1.056,2.017 -1.502,9.977 -0.535,6.271 0.35,6.637 -0.112,1.276 -1.107,2.788 0.445,1.109 -0.203,1.909 -1.053,1.633 0.693,0.997 -0.44,3.041"
     id="path901" />
  <path
     fill="none"
     stroke="#000000"
     stroke-width="4"
     stroke-linecap="round"
     stroke-linejoin="round"
     d="m 489.204,75.716997 1.797,1.766 1.058,0.468 2.317,2.327 6.799,4.154 3.354,3.287 2.63,3.648 2.628,2.692 2.192,1.509 5.159,2.335 1.144,1.047 1.592,1.998003 1.927,3.492 3.577,4.273 0.768,0.7 5.034,2.488 3.092,2.45 5.538,7.78 1.014,0.959 8.469,5.064 5.432,4.924 2.13,2.501 3.029,5.753 2.001,2.463 3.517,3.033 3.348,1.868 2.539,1.888 1.738,1.838 1.876,1.044 5.756,8.637 2.751,2.233 1.816,2.262 5.465,3.964 2.91,3.044 2.488,1.817 6.366,6.077 5.26,4.292 4.752,4.828 4.829,3.176 1.369,1.235 0.692,1.103 2.656,1.876 1.177,1.325 0.583,1.449 1.02,1.369 1.936,1.451 5.305,5.994 3.046,2.339 2.06,0.998 2.276,1.965 1.467,0.781 3.514,4.205 2.899,1.88 2.803,2.656 1.595,0.969 1.153,0.171 -0.279,-0.127 -1.072,0.576"
     id="path905" />
  <path
     fill="none"
     stroke="#000000"
     stroke-width="4"
     stroke-linecap="round"
     stroke-linejoin="round"
     d="m 447.67,454.676 3.254,-2.629 7.63,-7.514 4.36,-5.482 3.827,-3.985 2.022,-2.964 4.77,-4.813 3.472,-5.392 6.98,-8.043 8.217,-6.677 2.306,-3.356 3.192,-3.375 4.512,-6.354 1.564,-1.739 10.456,-8.744 3.971,-4.334 4.531,-4.268 4.053,-4.88 4.274,-3.447 5.212,-5.71 4.966,-4.146 2.777,-3.128 7.307,-5.889 12.159,-11.299 13.908,-11.856 2.228,-1.688 2.641,-1.399 6.05,-4.555 3.793,-3.68 0.736,-1.237 3.195,-2.316 3.42,-3.71 2.613,-1.86 1.363,-1.838 6.148,-5.785 3.23,-1.973 7.086,-5.919 3.099,-3.058 3.414,-4.136 2.486,-2.021 7.115,-6.987 5.317,-3.968 1.368,-1.464 0.827,-1.341 0.183,-1.39 0.871,-1.174 1.773,-1.165 0.852,-2.537"
     id="path909" />
  <path
     fill="none"
     stroke="#000000"
     stroke-width="4"
     stroke-linecap="round"
     stroke-linejoin="round"
     d="m 667.186,213.721 -0.3,-2.325 0.38,1.073 2.22,1.358 4.46,1.263 9.01,0.763 8.97,-0.025 7.19,1.073 -0.84,0.441 0.76,0.181 -0.73,0.217 -5.58,9.305 -10.92,21.45 -1.17,3.462 -0.24,2.469 1.08,1.393 0.76,0.393 0.55,-0.113 0.42,0.273 -0.25,0.01"
     id="path913" />
  <path
     fill="none"
     stroke="#000000"
     stroke-width="4"
     stroke-linecap="round"
     stroke-linejoin="round"
     d="m 507.541,44.040997 -0.3,0.296 0.57,-0.373 4.115,-0.946 6.015,-0.496 7.955,-2.238 6.879,-0.618 3.038,-0.809 4.061,-1.58 5.22,-1.022 12.906,0.32 9.304,-1.536 10.794,-0.446 5.868,-1.399 5.53,-0.639 5.376,0.356 2.367,-0.241 3.303,-0.829 7.178,-0.232 7.216,-1.751 3.402,-0.31 1.965,-0.043 3.951,1.002 5.407,-0.052 1.523,-0.154 7.353,-2.472 1.392,-0.142 3.799,-0.114 7.201,1.331 4.238,0.133 9.269,-1.911 1.05,-0.533 1.93,-0.207 2.2,0.149 1.75,0.713 1.02,0.077 -0.57,0.785"
     id="path917" />
  <path
     fill="none"
     stroke="#000000"
     stroke-width="4"
     stroke-linecap="round"
     stroke-linejoin="round"
     d="m 685.856,7.2179965 0.8,-3.314 3.13,-1.275 3.62,-0.629 4.03,0.815 2.79,1.861 1.04,1.497 0.33,1.582 -0.41,1.727 -3.99,10.1400005 -7.16,9.984 -1.12,1.909 -0.89,2.953 -1.82,2.304 -0.25,1.137 1.16,2.972 3.02,3.791 2.32,1.186 1.97,0.191 2.55,-1.294 0.74,-0.781 0.29,-0.935 -0.74,-4.792 -0.7,-2.186 -2.91,-6.698 -2.55,-4.512 -4.46,-5.281 -4.08,-2.608 -0.58,-0.725 0.04,-1 0.92,-1.592 2.78,-3.7490005 2.81,-2.598 2.06,-1.216"
     id="path921" />
  <path
     fill="none"
     stroke="#000000"
     stroke-width="4"
     stroke-linecap="round"
     stroke-linejoin="round"
     d="m 455.059,480.733 -1.014,0.8 0.211,-0.691 2.743,-0.374 3.698,-1.402 5.215,-0.64 10.182,-2.262 7.396,-0.212 13.554,-2.261 6.664,0.788 4.183,-0.599 6.951,-1.888 8.755,-0.776 7.521,-0.113 5.105,0.527 3.686,0.014 12.771,-2.449 5.926,-0.78 6.992,-0.097 6.789,-0.492 19.736,-4.194 11.729,-1.642 12.237,-0.813 13.458,-1.686 12.095,-0.187 6.292,-0.759 0.382,-0.09 -1.255,-0.38 -0.101,-1.112"
     id="path925" />
  <path
     fill="none"
     stroke="#000000"
     stroke-width="4"
     stroke-linecap="round"
     stroke-linejoin="round"
     d="m 681.796,431.295 1.84,-0.555 0.07,-0.615 -0.62,-1.245 -1.7,-1.07 -2.47,-0.15 -4.83,1.144 -2.93,1.321 -1.11,1.043 -0.29,0.894 -1.31,1.612 -0.07,2.394 1.03,3.39 0.62,1.044 1.86,1.719 1.13,0.686 2.01,0.529 2.47,-0.055 1.31,-0.486 2.5,-1.89 0.96,-1.286 0.76,-1.399 0.82,-3.159 0.92,-1.937 -1.24,1.08 -0.25,0.898 0.14,1.19 -1.68,13.713 0.4,7.635 0.72,3.888 -0.05,3.534 -0.63,2.538 -0.3,3.146 0.08,3.769 0.37,1.894"
     id="path929" />
  <path
     fill="none"
     stroke="#000000"
     stroke-width="4"
     stroke-linecap="round"
     stroke-linejoin="round"
     d="m 676.256,287.236 -0.12,10.04 -0.61,7.508 -0.76,3.176 0.63,9.466 -0.93,3.618 -0.07,1.85 0.79,5.506 -0.11,3.694 0.6,13.987 -0.95,6.766 -0.26,5.928 0.21,3.618 -0.25,3.084 0.71,7.004 -0.03,5.955 -0.4,2.868 0.45,1.285 0.07,2.378 0.81,2.68 -0.19,5.566 0.5,2.832 0.1,2.06 -0.21,-0.5"
     id="path933" />
  <path
     fill="none"
     stroke="#000000"
     stroke-width="4"
     stroke-linecap="round"
     stroke-linejoin="round"
     d="m 427.885,454.378 2.513,0.241 -1.145,0.224 -4.766,2.426 -4.949,1.283 -5.164,0.677 -3.473,1.137 0.54,-0.367 -0.51,-0.541 0.026,-1.058 -0.444,-0.306 -0.539,0.763 0.248,-0.103 -0.228,-0.286 -0.531,-0.075 0.018,0.252 0.708,-0.045 -0.67,0.061 0.627,0.046 0.222,0.56 2.026,12.489 0.815,3.249 0.558,0.69 0.679,0.318 0.629,-0.245 0.422,-0.43 0.511,-1.605 3.443,-3.126 1.255,-0.571 1.338,-0.066 1.465,0.28 2.703,1.775 1.811,2.416 1.041,2.524 0.014,1.432 -2.231,4.366 -2.694,3.267 -3.394,3.267 -4.896,2.378 -1.186,0.171 -0.799,-0.28 0.436,-2.095 1.732,-3.46"
     id="path937" />
  <path
     fill="none"
     stroke="#000000"
     stroke-width="4"
     stroke-linecap="round"
     stroke-linejoin="round"
     d="m 477.752,25.067997 0.039,-0.978 -0.336,-0.486 -1.456,-1.025 -0.557,-0.098 -2.487,1.064 -3.779,3.291 -1.129,1.942 -3.875,5.068 -1.941,2.962 -1.247,3.112 -0.644,3.275 -0.154,6.669 0.341,3.359 1.673,5.755 1.202,1.701 1.607,0.768 3.799,0.54 1.956,-0.028 1.867,-0.561 3.259,-1.969 1.365,-1.297 2.02,-3.021 0.696,-2.224 -0.432,-0.694 -1.03,-0.408 -1.219,-0.012 -5.942,1.795 -4.591,2.616 -3.85,1.725 -1.03,0.056 1.946,-1.96"
     id="path941" />
</svg>
