<?xml version="1.0" encoding="UTF-8" standalone="no"?>
<svg
   xmlns:dc="http://purl.org/dc/elements/1.1/"
   xmlns:cc="http://creativecommons.org/ns#"
   xmlns:rdf="http://www.w3.org/1999/02/22-rdf-syntax-ns#"
   xmlns:svg="http://www.w3.org/2000/svg"
   xmlns="http://www.w3.org/2000/svg"
   xmlns:sodipodi="http://sodipodi.sourceforge.net/DTD/sodipodi-0.dtd"
   xmlns:inkscape="http://www.inkscape.org/namespaces/inkscape"
   inkscape:export-ydpi="96"
   inkscape:export-xdpi="96"
   inkscape:export-filename="/Users/shwestrick/proj/shwestrick.github.io/assets/racy/tree-and-frontiers.png"
   inkscape:version="1.0 (4035a4f, 2020-05-01)"
   sodipodi:docname="tree-and-frontiers.svg"
   id="svg1033"
   version="1.2"
   viewBox="0 0 745.57562 563.18372"
   height="563.18372"
   width="745.57562">
  <metadata
     id="metadata1039">
    <rdf:RDF>
      <cc:Work
         rdf:about="">
        <dc:format>image/svg+xml</dc:format>
        <dc:type
           rdf:resource="http://purl.org/dc/dcmitype/StillImage" />
        <dc:title>bfs</dc:title>
      </cc:Work>
    </rdf:RDF>
  </metadata>
  <defs
     id="defs1037" />
  <sodipodi:namedview
     inkscape:current-layer="svg1033"
     inkscape:window-maximized="0"
     inkscape:window-y="51"
     inkscape:window-x="1540"
     inkscape:cy="326.64181"
     inkscape:cx="404.26405"
     inkscape:zoom="0.63528964"
     showgrid="false"
     id="namedview1035"
     inkscape:window-height="939"
     inkscape:window-width="1722"
     inkscape:pageshadow="2"
     inkscape:pageopacity="0"
     guidetolerance="10"
     gridtolerance="10"
     objecttolerance="10"
     borderopacity="1"
     bordercolor="#666666"
     pagecolor="#ffffff" />
  <title
     id="title833">bfs</title>
  <path
     style="opacity:1;stroke:#b9e0f7;stroke-opacity:1"
     fill="none"
     stroke="#fefd60"
     stroke-width="30"
     stroke-linecap="butt"
     stroke-linejoin="bevel"
     opacity="0.500008"
     d="m 31.720425,272.87861 0.566,-1.238 -0.492,0.131 0.046,0.274 -1.84,1.885 -6.284,8.91 -1.658,4.151 -3.92,7.271 -1.149,2.789 -2.066,8.132 0.75,7.394 0.432,2.351 1.531,4.194 0.274,3.82 0.558,1.489 1.154,1.453 1.151,2.461 1.544,1.167 0.827,0.267 1.962,-0.261 3.042,-1.661 1.764,-1.444 7.056,-7.631 3.237,-4.149 1.496,-3.28 1.595,-6.253 0.355,-7.134 -1.108,-6.491 -1.674,-4.132 -0.303,-2.123 -2.845,-6.71 -1.603,-2.165 -0.167,-1.127 -0.615,-1.123 -3.117,-3.012 -1.343,0.009 -1.817,1.909 -2.412,4.852 -2.536,8.137 -2.428,10.524 -0.668,4.343 -1.803,20.124 0.239,2.451 0.937,1.969 -0.146,1.76 0.655,1.536 2.526,2.288 3.2,1.525 3.764,0.217 1.641,-0.187 1.946,-2.024 0.313,-1.306 1.758,-3.066 1.36,-7.292 0.184,-2.93 -0.125,-12.34 -1.512,-13.455 -2.125,-7.167 -2.193,-2.822 -2.51,-1.47 -1.468,-0.187 -4.515,3.881"
     id="path1017" />
  <path
     style="opacity:1;stroke:#b9e0f7;stroke-opacity:1"
     fill="none"
     stroke="#fefd60"
     stroke-width="30"
     stroke-linecap="butt"
     stroke-linejoin="bevel"
     opacity="0.500008"
     d="m 181.49242,121.28961 -1.434,-5.913 -0.426,-3.489 -1.48,-5.579 -2.022,-2.346 -3.813,-3.663 -4.419,-2.164001 -4.705,-0.453 -2.426,0.547 -1.025,0.793 -1.393,3.146001 -1.407,2.291 -1.15,4.268 -1.588,1.942 0.053,3.326 -0.976,1.939 -0.106,0.896 1.047,9.048 -0.248,10.557 0.816,6.867 -0.09,3.276 1.089,4.502 0.357,5.888 0.682,1.697 0.24,1.644 -0.797,3.492 0.325,1.63 1.634,3.083 0.261,1.544 0.001,16.29 1.16,5.294 1.467,4.371 0.047,10.411 0.504,9.889 1.22,6.352 0.295,4.831 1.01,3.479 0.216,7.174 0.955,3.554 2.065,14.776 1.38,7.517 0.303,3.472 1.002,4.789 0.947,9.391 2.491,9.354 -0.074,3.171 0.603,3.915 -0.372,2.561 0.732,1.183 0.294,1.34 1.359,11.353 0.927,2.698 1.319,6.828 0.902,2.173 -0.272,1.123 0.313,2.864 -1.108,1.19 -0.051,1.312 1.369,1.208 0.812,1.194 0.634,2.863 0.032,1.844 0.907,1.064 0.378,1.092 -1.08,2.05 -0.036,0.899 0.902,1.91 0.38,5.358 1.55,9.303 0.634,6.793 0.71,1.738 -0.322,1.72 0.538,1.932 -0.534,1.056 0.036,1.344 1.159,3.265 0.037,1.549 -0.357,1.265 0.314,2.578 -0.48,1.214 0.027,1.182 0.459,2.27 0.812,0.977 0.297,1.125 -0.564,1.887 0.424,1.798 0.342,4.863 -0.116,9.191 0.853,4.325 -0.237,3.977 0.928,4.739 -0.966,1.387 0.082,1.45 0.948,1.314 0.58,2.984 -0.027,1.767 -0.832,1.731 -0.153,1.616 1.572,2.802 0.305,1.436 -0.446,1.265 0.698,2.39 0.03,3.623 0.821,3.497 -0.148,16.857 1.051,6.47 -0.192,2.31 0.568,1.32 0.125,1.51 -1.675,3.62 -0.129,2.16 0.59,1.97 -1.973,1.83 -0.254,1.89 2.086,1.55 0.811,4.61 0.5,1.26 -0.296,6.53 -0.586,1.3 -0.087,1.29 0.998,2.16 -0.047,6 0.658,2.77 1.548,3.59 1.072,4.21 1.003,1.14 -1.446,0.54 1.536,0.49 0.494,0.59 0.003,0.81 -0.975,0.84 0.227,1.05 1.777,0.8 2.994,0.54 1.065,1.15 -1.755,0.82 -0.151,1.81 0.53,1.27 0.6,-0.01 0.106,0.85 2.944,3.83 2.265,0.44 0.325,0.45 -1.826,0.23 3.803,-0.31 -1.885,0.02 -0.193,-0.75 1.048,-0.94 0.269,-1.82 0.485,-0.65 0.439,-6.57 0.645,-1.54 1.735,-2.37 1.4,-3.86 -0.754,-0.7 0.129,-0.78 1.173,-0.71 0.478,-0.68 0.083,-0.59 -1.137,-1.61 1.27,-0.91 0.132,-0.68 -0.794,-0.81 -0.445,-1.82 0.35,-3.4 1.64,-6.69 0.192,-6.84 0.479,-2.29 0.009,-1 -0.355,-0.74 -1.016,-0.6 -0.125,-0.73 1.848,-1.4 0.249,-0.8 -0.508,-2.04 1.498,-1.97 0.156,-0.97 -0.863,-1.72 0.072,-0.72 1.062,-1.56 0.275,-1.03 -0.33,-1.04 0.489,-8.54 -0.066,-4.47 0.574,-1.15 -0.177,-1.47 0.368,-1.91 -0.586,-2.26 0.252,-1.2 1.839,-1.98 0.319,-0.998 -0.596,-0.719 0.385,-1.336 -0.417,-0.577 0.404,-1.023 -0.467,-1.012 0.749,-5.49 -0.031,-2.32 0.408,-1.046 0.227,-4.145 -1.036,-5.816 0.063,-9.016 -0.314,-1.364 0.427,-2.718 0.919,-1.11 0.205,-1.031 -0.761,-1.011 0.804,-0.805 0.007,-1.059 -1.104,-1.047 0.78,-1.117 -0.087,-1.107 -1.044,-0.86 0.413,-0.99 -0.06,-1.038 -0.577,-1.094 -0.038,-5.148 -0.545,-6.342 0.403,-9.072 -0.65,-2.494 0.509,-2.178 -0.064,-1.407 -0.466,-2.67 0.092,-2.564 -0.727,-1.237 -0.16,-1.274 0.574,-1.035 2.243,-0.745 0.101,-1.027 -2.482,-0.497 -0.176,-0.906 -1.392,-1.546 -1.458,-4.191 -0.223,-1.188 0.264,-0.954 -0.552,-2.143 -4.747,-7.242 -2.109,-1.379 -0.399,-0.492 0.152,-0.35 -4.278,-0.29 -2.944,0.268 1.191,0.13 -0.582,0.658 -1.318,3.039 -0.775,5.976 0.384,2.005 0.178,4.217 -1.087,13.998 0.838,6.054 0.245,4.971 1.262,6.48 -0.276,4.274 0.274,3.359 -0.556,1.518 0.017,1.762 0.535,1.831 -0.492,1.806 -0.031,1.611 1.28,3.367 0.086,1.75 -0.876,1.871 -0.845,6.151 -0.867,2.059 -0.349,2.021 0.821,3.424 0.038,1.792 -0.476,3.493 0.215,14.466 -0.714,6.999 0.949,3.52 0.115,2.18 -0.645,2.1 0.341,4.68 -0.456,2.26 -0.183,3.97 0.935,6.14 0.776,1.52 0.152,1.5 -0.381,1.57 1.079,19.22 2.321,8.85 0.563,4.27 0.611,1.29 0.211,1.27 -0.289,3.17 0.818,0.82 1.173,2.9 1.786,1.2 0.271,0.54 -0.277,0.94 1.371,0.92 1.45,2.19 3.249,1.89 0.901,0.29 1.185,-0.48 1.426,-1.98 1.481,-3.41 0.633,0.02 0.404,-0.46 1.343,-5.34 0.324,-8.64 0.447,-1.71 -0.216,-0.76 0.756,-1.62 -0.267,-2.16 0.166,-1.3 1.106,-3.97 -0.457,-2.56 0.39,-3.1 0.054,-12.56 -0.763,-3.82 0.055,-1.87 0.471,-1.79 -0.232,-4.97 -1.179,-10.36 0.349,-15.057 0.792,-4.067 -0.419,-3.754 0.124,-2.872 -0.654,-1.194 -0.073,-1.377 0.779,-1.361 0.237,-1.323 0.037,-2.807 0.399,-1.584 -0.364,-3.514 0.661,-1.813 0.142,-1.729 -0.562,-1.775 -0.377,-8.355 -0.593,-2.958 -0.446,-5.387 0.692,-10.16 -0.236,-3.918 1.01,-2.558 0.042,-1.416 -0.584,-1.355 -0.996,-5.739 -0.014,-1.622 0.396,-1.392 -0.532,-1.471 0.148,-3.142 -0.463,-2.877 -0.734,-3.355 -1.286,-2.546 -0.223,-1.198 0.314,-1.217 -0.9,-12.367 -0.94,-4.446 -2.188,-5.388 -0.211,-3.247 -1.93,-7.929 -1.339,-3.086 -0.726,-3.651 -1.043,-1.618 -0.37,-1.78 0.829,-3.385 -0.13,-1.335 -0.868,-1.353 -0.261,-2.828 -1.508,-2.481 -0.245,-1.271 0.608,-2.728 -0.085,-1.586 -1.44,-8.792 -0.91,-8.595 -0.304,-7.099 0.868,-2.195 -0.034,-0.884 -0.756,-0.72 -0.75,-1.89 -0.816,-7.211 -2.845,-1.83 -0.622,-2.62 2.451,-2.307 0.529,-2.272 -0.203,-2.1 -1.58,-4.327 -1.107,-4.172 0.095,-5.002 -0.562,-3.352 0.255,-3.265 -0.522,-5.553 -2.988,-11.668 -1.606,-12.468 -0.565,-2.353 -0.942,-1.485 -0.495,-1.723 0.732,-3.637 -1.311,-11.497 -0.068,-3.162 -1.412,-6.874 -1.828,-6.759 -0.551,-3.689 0.133,-7.929 -1.859,-3.668 -0.628,-2.505 0.097,-1.618 -0.986,-1.494 -0.218,-1.427 0.835,-1.473 0.229,-1.829 -0.355,-2.451 -0.73,-2.082 0.343,-2.453 -1.141,-2.487 -2.028,-11.454 -0.867,-2.181 -1.051,-1.111 -1.162,-2.369 -0.033,-1.684 -2.391,-4.509 -0.439,-2.144 -1.493,-2.203 -0.531,-0.437 -4.931,-1.686001 -3.363,0.278 -2.13,2.273001 -1.678,3.375 -1.78,8.036 -1.066,14.009 0.252,7.081 0.854,7.747 0.55,2.677 1.78,5.421 -0.024,4.886 0.851,4.833 -0.188,2.641 1.77,8.239 1.035,9.529 1.9,11.879 1.636,15.973 1.641,7.083 3.439,11.856 0.291,2.204 -0.404,2.209 0.179,2.289 1.451,5.166 0.295,8.564 0.346,2.444 0.519,1.914 1.264,1.92 0.608,2.307 -0.466,4.564 0.355,2.127 2.131,4.202 0.436,2.086 -0.109,1.927 2.286,17.72 0.589,9.967 1.374,7.732 -0.046,3.602 0.356,1.717 2.603,4.752 0.595,3.723 0.996,3.059 -0.308,1.547 0.061,3.638 1.162,3.064 0.153,1.604 -0.464,3.313 0.123,1.483 0.887,2.468 1.533,9.817 1.781,6.62 0.313,3.478 0.538,1.643 -0.271,2.816 0.466,2.718 0.195,5.708 0.566,2.659 0.149,4.263 1.111,7.796 -0.471,1.083 -0.097,1.28 0.775,2.645 -0.197,6.002 0.729,12.396 -0.967,16.3 0.549,11.14 -1.251,12.794 -0.417,9.571 -0.848,6.52 -3.118,15.11 -4.541,14.81 -0.215,1.92 -1.25,2.82 -1.251,5.68 -3.077,7.47 -0.002,0.84 0.812,0.66 0.114,0.55 -1.019,0.79 0.062,0.39 0.553,0.32 0.102,0.95 0.499,0.6 0.293,2.66 -0.022,0.71 -0.574,0.74 0.013,1.27 -0.562,0.85 0.431,1.18 1.077,1.42 0.344,2.41 1.388,3.71 2.739,2.25 -0.338,1.37 0.427,1.72 1.81,1.56 0.943,0.29 0.292,0.47 -0.523,0.24 0.087,0.55 1.314,0.67 0.461,0.52 -0.369,0.29 0.485,0.51 1.046,0.71 3.9,1.54 1.325,0.19 3.54,-0.95 -0.005,0.23 3.608,0.5 3.279,-0.82 -0.05,-0.92 0.296,-0.44 0.863,-0.49 5.216,-4.83 1.126,-2.16 2.526,-7.24 0.172,-1.39 0.826,-1.14 -0.699,-1.19 0.089,-0.79 1.517,-2.22 0.819,-3.85 1.263,-2.59 0.046,-1.25 1.234,-2.27 -0.103,-0.92 0.822,-3.37 -0.209,-4.58 0.704,-2.64 0.681,-10.84 0.996,-3.8 0.268,-3.91 1.229,-3.84 -0.855,-11.4 -0.901,-4.29 0.534,-11.087 -1.051,-5.753 0.027,-4.227 -1.336,-9.652 -0.732,-10.887 -0.017,-5.417 0.815,-2.691 -0.001,-2.579 -0.872,-2.438 0.422,-4.391 -1.381,-3.568 -0.074,-1.812 0.717,-1.647 -0.679,-3.34 0.573,-2.096 1.114,-2.193 0.157,-2.509 -1.194,-2.777 0.02,-5.54 -0.552,-4.857 0.251,-4.51 -0.589,-3.674 0.682,-3.153 -0.05,-1.695 -1.073,-5.561 -0.076,-20.145 -0.826,-4.041 -0.511,-5.649 -2.506,-9.785 -1.277,-2.28 -0.423,-2.448 0.71,-2.26 -0.788,-2.314 -0.35,-2.495 0.241,-4.195 -0.635,-3.701 -0.974,-1.962 -0.49,-2.248 0.14,-2.22 -0.44,-3.982 -1.827,-6.191 -2.351,-14.756 -1.695,-4.467 -0.682,-5.898 -0.887,-2.298 -1.017,-5.086 -0.723,-6.609 -0.655,-2.131 -1.262,-1.97 -0.229,-1.92 1.127,-1.497 0.306,-1.504 -0.446,-2.89 0.292,-1.379 -0.204,-1.35 -1.759,-3.092 -0.32,-1.95 0.544,-4.497 -0.71,-4.487 -0.402,-7.097 -0.58,-4.194 -1.618,-5.689 -0.539,-3.552 -0.23,-1.906 0.429,-2.013 -0.053,-2.289 -0.601,-2.03 -0.162,-4.633 -0.729,-1.539 -0.161,-1.391 0.253,-1.3 -0.948,-4.452 0.031,-1.19 -1.502,-3.322 -0.02,-4.438 -0.65,-2.194 -0.071,-2.403 0.485,-8.561 -0.669,-2.69 0.059,-1.754 -1.25,-3.993 -0.482,-5.32 -1.224,-4.709 -0.07,-3.18 -1.319,-1.385 -0.497,-2.368 -1.154,-1.963 -1.361,-4.93 -1.039,-1.504 -1.486,-1.334 -0.118,-0.872 -1.244,-2.302 -1.034,-3.5 -2.142,-2.106 -2.137,-4.3 -2.294,-2.203001 -2.572,-1.884 -0.629,-0.926 -2.931,-1.321 -5.256,-4.767 -3.649,-0.409 -3.217,0.252 -4.696,1.384 -3.589,2.854 -0.096,0.819 -0.562,0.778 -2.039,1.993 -3.305,5.987001 -0.635,3.911 -1.868,1.966 -0.601,1.135 0.38,1.94 -0.86,4.424 0.221,5.577 -0.376,4.546 -0.58,2.35 0.509,7.458 -0.268,2.521 0.403,1.749 -0.357,11.609 -0.51,2.053 1.238,3.672 0.305,3.194 0.862,2.437 0.423,8.337 -0.138,3.963 0.697,4.699 0.303,7.197 0.672,3.635 -0.353,1.48 -0.235,7.515 0.341,1.369 0.057,2.614 0.938,3.506 0.317,3.099 1.201,4.235 -0.282,4.205 1.733,6.92 2.757,21.781 1.376,5.202 1.474,1.594 0.736,1.431 -0.317,1.507 2.336,10.817 1.306,9.077 0.19,2.556 -0.307,4.153 1.002,4.13 -0.202,1.698 0.47,1.563 1.172,1.564 1.389,3.458 0.823,5.215 1.362,5.469 2.028,14.496 1.092,2.785 0.225,1.475 -0.498,1.486 0.203,3.146 -0.476,4.312 0.359,1.303 0.072,2.373 0.917,0.826 0.761,1.984 -0.327,7.609 0.424,3.017 -0.157,2.719 0.661,4.434 0.992,3.921 0.098,8.227 0.446,4.794 0.535,3.74 1.438,2.153 -0.263,2.351 0.995,2.825 0.122,3.662 0.563,1.929 0.13,2.979 0.884,2.248 0.134,1.949 0.623,2.004 -0.588,2.576 0.204,1.647 1.531,3.294 0.317,4.923 1.593,11.294 0.304,5.871 0.763,1.662 -0.052,1.644 -0.787,1.509 -0.055,4.58 -0.435,2.067 0.7,0.649 0.747,1.454 -0.014,5.457 -0.472,1.309 -0.915,1.27 -0.309,1.373 0.366,1.3 -0.312,2.1 -2.328,8.46 -0.045,5.47 0.113,0.69 1.05,1.23 0.169,0.69 -0.672,0.64 0.27,3.39 0.656,2.87 -0.735,2.54 0.033,1.06 0.329,0.97 0.924,0.83 0.109,0.94 -0.866,0.68 0.103,1.53 -0.446,0.72 0.187,0.65 1.33,1.55 0.303,0.96 0.113,2.72 0.999,3.23 0.544,3.32 -0.136,3.48 1.017,3.21 -0.529,1.34 0.129,0.42 1.765,1.38 -0.065,1.42 1.409,2.36 -0.154,0.91 0.508,2.43 0.936,0.53 0.175,0.45 -0.481,0.18 1.813,1.96 1.118,2.51 1.171,1.56 0.815,2.08 0.727,0.85 0.188,1.25 1.265,1.5 0.072,0.69 -0.49,0.77 0.188,0.72 1.671,0.93 0.38,0.45 -0.383,0.35 0.083,0.32 1.638,0.68 0.484,0.52 -0.586,0.46 -0.182,0.72 4.147,1.94 3.056,0.25 -3.271,3.43"
     id="path1021" />
  <path
     style="opacity:1;stroke:#b9e0f7;stroke-opacity:1"
     fill="none"
     stroke="#fefd60"
     stroke-width="30"
     stroke-linecap="butt"
     stroke-linejoin="bevel"
     opacity="0.500008"
     d="m 490.81542,38.375609 -2.479,1.723 -1.11,1.764 -0.574,1.668 -4.147,5.479 -4.405,6.763 -0.285,0.878 -1.414,0.992 -2.732,3.39 -3.226,3.199 -0.511,1.191 -5.313,6.531 -4.352,6.103 -2.035,2.224 -1.936,3.488 -3.36,4.602 -3.24,3.709 -0.713,1.638 -5.107,5.556 -2.663,3.980001 -1.137,1.21 -3.212,6.03 -11.533,15.812 -3.814,3.355 -1.161,2.253 -1.04,1.018 -3.991,2.368 -1.423,1.514 -0.53,1.352 -1.544,1.081 -1.008,1.317 0.12,1.194 -1.602,2.439 -1.445,3.299 -1.054,0.903 -0.907,1.602 -1.55,1.286 -7.25,8.948 -4.137,4.233 -2.615,4.329 -1.309,1.357 -1.999,1.198 0.546,0.557 -0.379,0.708 -2.581,2.352 -4.8,5.967 -5.916,6.171 -2.327,1.618 -6.835,7.491 -2.627,2.096 -2.078,0.784 -0.66,1.325 -1.778,2.022 -3.317,2.812 -0.28,0.914 -2.772,1.972 -1.368,2.047 -1.032,0.565 0.049,0.463 -1.146,0.807 -1.464,2.653 -1.317,0.992 0.223,0.588 -0.806,0.922 0.002,0.912 -1.009,1.705 -1.261,3.982 0.235,1.894 -0.465,1.259 0.887,2.691 -0.498,1.241 0.013,0.763 0.411,0.633 -0.495,3.452 0.492,1.895 0.174,6.632 0.935,3.707 0.194,5.325 0.578,2.542 -0.054,1.31 1.278,2.163 0.251,1.981 0.686,0.757 1.022,2.451 1.612,0.703 0.634,1.01 -1.258,0.683 0.628,1.094 -0.108,1.093 1.145,1.551 0.354,1.786 1.277,1.797 1.992,7.6 2.431,3.863 1.732,3.94 0.571,1.861 -0.42,0.842 0.277,0.885 0.9,0.954 -0.405,1.117 0.374,1.052 2.685,1.789 0.521,1.083 -0.445,0.949 1.44,0.973 0.68,1.42 -0.584,1.5 0.626,2.658 1.549,3.379 0.504,3.772 0.684,0.792 2.767,8.355 2.941,6.395 1.838,11.238 1.365,2.119 -0.022,1.236 -1.159,0.989 0.318,1.037 1.819,0.76 1.401,1.003 0.651,1.168 -0.345,2.228 0.26,1.314 1.66,2.825 0.394,1.255 -0.512,2.211 0.135,1.286 1.169,2.59 1.381,6.916 2.991,6.434 0.856,3.839 1.3,2.861 0.286,1.313 -0.471,2.798 0.152,1.516 0.815,1.332 0.036,1.182 0.771,2.364 0.134,2.976 1.783,3.765 0.136,3.152 0.674,2.596 -0.193,1.316 0.412,1.499 1.87,3.009 0.925,5.449 2.413,6.715 2.359,7.917 0.63,3.709 0.993,2.569 0.427,4.945 0.715,1.368 -0.216,1.244 0.244,1.308 0.814,1.305 0.179,3.047 0.796,1.291 1.803,1.226 0.36,1.417 -1.072,1.27 0.11,3.39 0.666,3.1 -0.12,1.11 1.198,3.31 1.463,7.73 2.112,5.66 -0.015,2.91 0.554,2.39 -0.277,2.24 0.519,0.96 -0.2,2.1 0.631,0.91 2.405,0.79 0.84,1.26 -1.719,0.82 0.495,1.13 -0.162,0.43 0.943,0.99 -0.416,1.72 1.541,2.22 0.681,2.34 2.014,2.54 1.565,2.83 0.563,1.21 0.203,1.49 0.567,0.71 -0.228,0.86 0.402,0.27 -0.405,0.29 0.268,0.6 2.234,1.45 0.471,0.64 -0.193,0.42 1.31,1.75 1.339,1 -0.627,0.13 1.825,-0.11 2.717,0.76 4.17,-0.34 4.573,-1.58 9.27,-1.79 1.118,-1.14 3.262,-4.36 0.551,-1.64 1.363,-2.34 2.782,-14.57 1.708,-3.85 -1.25,-2.05 -0.097,-1.09 0.787,-1.07 0.153,-7.89 0.99,-1.4 0.327,-1.42 -1.242,-2.84 0.087,-1.47 0.744,-1.29 -0.681,-1.29 0.153,-1.31 1.183,-1.36 0.493,-1.61 0.184,-4.84 1.429,-14.421 0.932,-2.288 0.082,-2.473 0.762,-1.298 0.234,-1.489 -0.937,-3.356 0.076,-1.984 1.065,-1.924 0.303,-3.961 1.071,-4.109 -0.023,-3.096 0.799,-2.918 -0.404,-2.886 0.544,-5.305 -0.796,-3.569 1.84,-16.758 -0.355,-14.399 0.45,-2.396 -0.523,-7.267 0.626,-4.058 -0.431,-3.749 0.423,-1.877 -0.182,-1.798 0.41,-3.27 2.307,-1.7 0.412,-1.917 -1.948,-1.453 -0.494,-3.41 1.287,-8.538 -0.164,-2.251 0.4,-1.98 1.077,-1.972 0.906,-4.186 0.648,-11.648 1.218,-7.92 0.044,-3.984 0.258,-1.987 1.276,-4.47 0.24,-2.547 -0.097,-4.93 0.938,-5.188 -0.689,-2.318 0.405,-1.86 1.368,-1.375 1.932,-1.031 0.375,-0.931 -1.556,-0.687 0.148,-2.196 -0.784,-1.189 0.402,-3.344 -0.331,-5.007 0.343,-2.728 1.174,-2.675 1.994,-13.17 0.872,-15.041 0.336,-1.844 0.995,-2.176 0.427,-2.682 -0.133,-2.514 0.861,-6.045 -1.659,-1.889 -0.151,-2.07 1.971,-1.807 1.066,-1.776 0.209,-1.46 -1.125,-2.722 -0.076,-1.758 0.361,-2.041 0.796,-1.931 0.28,-1.993 -0.222,-2.23 0.882,-4.539 0.216,-5.148 -0.77,-3.891 0.104,-7.455 1.707,-15.478 1.077,-4.243 -1.09,-3.565 0.033,-5.225 0.717,-1.927 -1.508,-1.767 -0.147,-1.778 1.789,-1.607 0.271,-1.506 0.01,-2.563 -0.768,-4.365 0.06,-1.606 1.256,-5.117 0.52,-5.936 -0.95,-4.66 -0.169,-2.915 0.316,-5.123001 0.796,-1.222 0.205,-1.283 -0.567,-1.019 -0.174,-4.471 0.321,-1.175 -0.845,-0.943 -0.06,-0.843 2.225,-2.715 0.297,-1.609 -0.884,-1.299 0.961,-1.165 0.228,-1.029 -0.937,-0.767 0.495,-0.806 -0.902,0.188 -0.043,-0.404 0.257,-0.71 0.297,-7.279 0.457,-2.3 -0.925,-0.669 -0.121,-0.858 0.811,-2.373 0.102,-1.162 -0.627,-1.006 0.623,-5.12 0.631,-0.094 -0.031,-0.22 -0.829,0.051 0.228,-0.063 -0.133,-0.367 -1.03,-0.792 0.83,-7.436 -0.378,-1.205 -0.347,0.215 -0.226,-0.281 -1.125,-2.898 -0.049,-1.396 0.283,-0.404 -2.047,-0.485 0.643,-0.03 -0.154,-1.169 -0.807,-0.443 0.588,-0.283 -0.171,-0.375 -1.836,-0.443 -1.211,0.046 -2.377,-0.779 0.061,0.75 -3.212,5.2 -2.175,1.55 -0.688,1.11 0.277,0.945 -0.344,0.941 -1.112,1.807 -0.595,1.898 -0.478,0.363 -0.243,3.225 -1.405,1.94 -3.188,6.574 -3.827,6.442 -4.612,10.046 -0.204,1.479 -0.667,1.424 -2.931,2.722 -0.985,1.577 0.072,1.44 -1.034,2.639 -3.282,4.038 -2.51,4.97 -1.194,1.191 -0.482,1.134001 0.182,2.073 -1.695,3.71 -1.955,3.462 -8.618,10.747 -1.619,2.95 0.243,0.858 -0.231,0.518 -1.892,1.673 -3.209,5.648 -2.205,2.95 -0.679,1.593 -2.208,2.359 -2.41,4.35 -1.491,1.375 -1.084,1.764 -6.728,6.065 -3.968,4.136 -2.822,3.475 -2.185,1.816 -0.776,0.927 -0.274,0.923 0.201,0.739 -0.421,0.692 -2.837,1.83 -1.166,1.716 -4.809,3.997 -0.63,1.112 0.182,0.614 -0.416,0.402 -3.233,1.768 -0.23,1.057 -2.295,2.386 -5.591,6.915 -2.754,2.575 -3.809,5.35 -1.102,0.959 -0.486,0.853 0.203,0.554 -0.39,0.844 -1.461,1.232 -2.301,3.177 -1.391,0.866 -0.932,1.06 -0.465,2.158 -0.767,1.135 -5.429,5.762 -2.065,0.961 -2.353,1.664 -1.547,0.364 -1.727,1.1 -3.274,1.261 -4.006,2.342 -3.392,0.566 -1.909,-0.283 -5.149,0.586 0.936,-0.847 0.186,-1.768 1.593,-4.76 1.158,-1.573 1.445,-0.992 0.848,-1.264 0.011,-1.215 1.706,-2.262 0.043,-0.48 2.274,-1.568 1.021,-1.858 3.243,-2.381 1.458,-1.815 0.474,-1.846 1.567,-2.854 2.429,-2.294 3.509,-4.114 5.655,-7.58 2.878,-4.381 8.699,-10.093 4.447,-7.948 4.435,-6.557 2.34,-2.096 1.992,-2.471 3.078,-2.535 2.423,-3.713 4.813,-5.617 5.437,-7.378 5.083,-5.772 2.649,-3.581 0.091,-0.745 2.991,-1.985 1.305,-1.975 4.837,-5.366 4.646,-6.987 0.344,-1.289 0.768,-0.912001 1.36,-0.666 0.382,-0.839 1.79,-1.535 3.903,-4.307 5.659,-7.654 8.333,-7.368 1.564,-1.915 1.284,-0.58 1.055,-0.959 0.287,-1.611 0.544,-0.517 2.358,-1.27 1.146,-0.995 1.328,-2.361 4.7,-4.789 1.462,-2.339 4.22,-3.847 2.374,-3.088 5.42,-5.976 3.224,-3.194 1.586,-0.635 -1.035,-0.288 0.243,-0.638 1.226,-0.909 3.601,-4.773 3.606,-3.208 -0.912,0.512 0.534,-0.134 -4.779,4.237 -2.186,1.558 -1.575,1.642 -6.271,4.922 -0.896,1.471 -2.686,2.948 -0.867,1.571 -4.666,4.757 -1.225,1.795 -5.244,4.185 -0.849,2.202 -3.477,4.906 -5.252,8.844 -10.502,15.532 -5.617,10.228001 -4.314,6.11 -0.429,1.018 -16.863,21.094 -2.128,3.625 0.17,0.909 -0.509,0.783 -2.2,1.762 -5.551,7.386 -1.47,1.229 -4.209,4.772 -2.301,2.941 0.015,0.629 -4.471,6.237 -8.395,8.682 -7.5,10.184 -5.684,6.547 -1.918,1.831 -4.553,3.217 -3.333,3.832 -0.367,0.01 -5.619,5.205 -2.527,1.829 -3.566,3.602 -2.296,1.861 -1.406,2.37 -2.419,2.404 0.189,1.051 -1.719,3.818 -2.763,4.257 -0.696,2.204 -0.705,0.644 0.251,0.068 -0.33,0.577 -0.016,1.978 -0.549,1.454 0.01,0.553 0.488,0.433 -0.146,0.446 -1.433,1.059 0.917,0.528 0.264,0.426 -0.278,0.252 0.118,0.773 0.911,1.089 -0.85,1.809 0.317,0.072 0.319,1.63 -0.513,4.327 1.29,0.591 -0.333,0.058 0.733,0.938 -0.2,1.381 0.507,1.587 1.45,1.464 0.934,4.792 1.029,2.97 0.825,1.324 0.445,3.172 1.363,1.869 -0.043,0.544 -0.41,0.329 1.695,1.22 0.348,0.619 0.229,2.282 0.841,1.556 -0.36,1.237 0.636,0.817 -0.208,0.336 2.025,1.061 0.346,0.723 1.141,8.066 1.659,2.183 1.46,0.914 0.505,0.807 2.243,7.288 1.822,2.676 -0.085,0.614 1.016,1.4 0.602,1.859 1.198,2.147 0.258,2.549 4.55,15.268 0.346,2.878 1.34,4.556 0.009,1.217 -0.547,1.242 0.165,1.109 0.917,0.793 -0.715,0.77 0.441,1.077 1.576,1.04 2.202,4.887 0.46,1.699 -0.03,1.736 0.734,4.286 1.228,5.511 3.297,9.816 0.857,4.23 1.133,9.397 1.076,2.778 -0.258,1.39 1.161,2.55 0.194,2.419 1.145,2.849 -1.111,1.419 0.45,1.691 2.257,1.842 1.666,5.351 0.275,2.764 1.442,2.189 0.266,0.962 -0.34,2.271 0.383,1.393 1.418,2.664 4.037,11.351 1.56,2.503 1.25,4.569 0.976,0.959 0.455,1.472 -0.165,1.939 1.231,3.844 0.82,4.465 2.881,2.617 -0.235,0.59 1.303,1.564 -0.253,0.791 0.488,1.891 1.658,4.412 0.053,2.319 1.236,2.03 -0.347,0.95 0.434,0.78 1.095,0.6 1.271,2.45 3.642,11.16 2.228,3.8 -0.303,0.74 0.379,0.85 2.173,1.86 0.366,1.17 -0.763,2.76 0.119,1.28 1.319,2.2 0.089,2.22 0.656,0.66 0.256,1.14 1.169,0.83 -0.305,0.78 1.618,1.38 0.919,2.38 0.358,2.21 1.684,1.66 1.179,2.9 1.603,2.08 -0.028,1.48 0.806,0.43 0.87,1.16 1.025,0.54 0.429,0.76 -0.279,0.64 0.405,1.16 1.637,1.42 0.991,-0.09 1.884,0.93 0.882,0.83 1.264,0.23 3.076,-0.62 1.573,-0.69 0.797,-0.77 0.439,-1.67 2.172,-3.87 2.004,-5.27 0.948,-3.56 0.648,-6.7 -0.354,-1.93 0.645,-2.34 -0.308,-1.4 1.626,-9.9 0.654,-1.99 0.618,-0.83 -0.304,-5.83 0.599,-5.92 -0.261,-4.34 0.171,-1.9 0.767,-1.6 0.288,-1.454 0.797,-5.441 0.595,-10.874 1.083,-11.041 0.826,-4.975 0.998,-1.098 0.485,-1.063 -0.813,-0.941 -0.539,-6.367 0.194,-2.397 0.819,-2.566 0.574,-5.332 0.875,-2.422 1.103,-8.259 -0.225,-8.791 0.735,-9.098 0.826,-5.16 -0.311,-7.055 0.991,-22.417 0.937,-7.522 0.68,-2.691 1.335,-2.484 0.594,-2.465 -1.341,-4.566 -0.147,-2.348 0.307,-2.488 -0.825,-5.938 0.317,-3.61 1.418,-3.726 0.212,-3.617 -1.079,-3.195 -0.171,-5.045 1.985,-6.383 -0.15,-1.5 0.68,-3.487 0.499,-7.346 -0.008,-5.576 1.951,-25.746 0.183,-1.897 0.945,-3.477 0.119,-2.261 -0.378,-2.405 0.846,-4.85 -0.245,-2.946 -0.742,-3.134 0.193,-3.136 1.426,-2.777 0.35,-5.233 1.124,-4.108 -0.425,-3.631 0.916,-1.458 -0.112,-1.335 -1.022,-1.535 0.33,-3.798 0.255,-1.975 1.125,-2.444 0.699,-3.134 0.286,-5.477 0.861,-3.641 0.184,-2.938 -0.37,-6.317 1.014,-11.202 1.363,-5.027 -0.034,-2.419 1.369,-4.067 -0.563,-1.229 -0.043,-1.199 -0.323,-0.364 -2.818,-0.876 -0.534,-1.84 2.839,-1.314 1.495,-1.921 0.422,-2.272 -0.583,-2.299 -0.31,-7.411 0.864,-1.975 0.113,-1.688 -1.641,-2.336 -0.236,-1.134 0.821,-2.755 0.905,-8.748 1.245,-6.963001 -0.098,-0.853 -2.105,-3.216 -0.13,-1.036 0.659,-1.551 0.111,-1.915 -0.694,-1.664 0.214,-2.53 -0.203,-0.966 -1.114,-0.287 -0.385,0.44 0.97,0.432 0.159,0.731 -6.239,8.553 -0.816,2.624 -1.582,2.248 -2.531,2.216 -3.576,4.821001 -5.895,14.124 -2.963,5.945 -3.556,6.026 -3.375,4.456 -4.122,4.301 -2.364,3.829 -4.237,4.71 -1.217,1.897 -0.529,1.85 -1.632,3.436 -0.867,3.677 -4.739,7.731 -1.613,1.994 -1.442,1.089 -3.015,3.874 -4.67,4.564 -8.325,11.023 -3.963,2.971 -3.359,3.996 -3.863,5.627 -3.551,3.753 -1.499,2.857 -4.364,3.267 -0.593,1.211 -3.833,4.852 -3.981,7.829 -2.41,6.82 -5.198,11.379 -0.301,4.002 0.496,1.38 1.364,1.443 0.46,1.472 -0.644,1.131 1.184,5.7 -0.147,6.884 0.249,3.927 0.922,3.823 0.962,2.112 1.253,4.428 2.66,6.515 1.686,8.722 1.763,3.982 0.444,4.101 0.602,1.983 2.043,3.977 0.578,1.997 0.387,3.894 2.17,2.902 0.759,1.998 -0.084,4.223 0.548,1.962 1.404,1.986 1.689,5.628 0.344,6.122 1.924,9.788 7.076,16.899 1.849,7.473 1.204,2.243 0.754,2.554 -0.054,2.618 -0.467,2.354 0.484,2.03 1.386,2.02 -0.412,2.24 0.721,2.362 1.874,2.432 3.889,10.747 2.281,8.771 -0.266,2.267 0.433,2.068 1.158,2.057 1.76,7.678 2.108,5.439 1.457,5.872 1.54,8.279 0.662,7.1 0.681,2 0.201,1.79 -0.396,1.72 -0.14,3.6 0.284,1.95 0.778,2.16 0.177,2.37 -0.535,4.64 0.143,2.07 0.761,1.89 1.917,1.59 0.874,1.57 -0.476,1.54 1.009,1.39 0.96,2.71 1.94,3.39 0.226,3.77 0.416,1.54 1.128,1.42 1.114,2.48 0.426,0.58 0.228,-0.07 0.134,-1.39 2.067,-3.92 2.062,-7.2 3.315,-15.66 0.232,-5.94 0.574,-3.27 -0.115,-3.25 -1.845,-6.495 -0.48,-3.52 0.439,-3.583 -0.162,-6.6 0.333,-2.809 -0.407,-2.823 0.141,-2.917 0.726,-3.159 0.806,-6.988 0.217,-10.207 0.79,-3.453 0.927,-10.577 -0.244,-6.263 0.215,-2.875 -1.942,-12.434 -0.385,-6.193 0.129,-7.034 2.637,-19.508 -0.036,-4.693 -0.702,-2.151 -0.075,-2.212 0.697,-2.475 -0.028,-5.023 1.633,-8.104 -0.012,-3.224 2.452,-22.475 0.249,-4.739 -0.219,-3.238 0.477,-1.952 0.807,-8.474 1.963,-10.625 1.948,-13.154 0.553,-5.248 0.453,-12.299 1.418,-9.918 1.182,-3.821 0.486,-4.109 -0.078,-4.023 -0.732,-3.598 -0.148,-3.147 0.942,-2.671 1.88,-2.365 0.032,-2.124 -1.986,-1.894 -1.117,-2.569 -0.351,-2.839 1.955,-10.086 -0.308,-6.984 0.369,-3.322 0.983,-3.022 1.042,-8.077 0.111,-4.525 1.398,-11.947 -0.066,-9.561 -0.19,-0.644 -0.49,0.159 -0.39,0.667 0.314,1.558 -0.596,0.865 -1.395,1.074 -2.03,3.352 -4.687,6.325 -0.665,2.075 -2.495,4.468 -5.948,8.759 -2.986,5.069 -4.005,8.368 -4.093,6.081 -6.065,7.588 -4.494,6.927 -2.75,5.987 -4.171,4.959 -2.591,1.322 -1.689,1.761 -2.389,1.621 -0.806,1.077 -0.375,1.252 -1.254,1.569 -2.301,2.063 -5.098,7.247 -3.686,4.567 -2.999,6.094 0.402,1.639 3.595,7.835 2.419,6.61 0.665,5.307 1.531,5.765 0.425,2.985 0.059,2.728 0.873,5.128 -0.146,5.473 0.517,2.814 0.97,2.862 1.493,2.58 0.722,2.658 -0.405,2.743 1.575,2.611 0.516,2.751 -0.819,2.596 0.009,2.708 1.479,5.703 0.563,6.245 1.926,6.119 0.502,2.698 3.238,27.498 0.62,13.765 1.031,3.105 0.287,3.317 -0.47,3.293 1.1,9.612 -2.067,2.781 0.391,2.883 3.298,2.774 2.053,3.373 1.283,3.285 0.329,2.72 1.498,2.27 0.758,2.237 -0.235,2.061 1.589,3.247 -10e-4,1.912 0.314,0.648 0.866,0.194 -0.442,-0.75 0.537,-0.598 0.378,-1.2 1.021,-5.186 0.862,-11.912 1.485,-12.756 4.517,-18.693 0.177,-2.59 -0.311,-2.829 0.611,-3.49 0.229,-3.877 -0.471,-8.332 0.561,-9.003 1.453,-4.641 0.573,-4.405 -0.688,-3.674 1.032,-7.956 1.256,-4.886 -0.054,-2.418 0.73,-2.733 0.404,-3.255 -0.654,-6.814 0.154,-3.293 1.143,-3.034 1.26,-13.831 0.056,-5.814 0.523,-5.909 1.485,-10.102 2.04,-10.674 0.638,-7.191 1.462,-6.381 -0.143,-2.642 0.976,-5.229 -0.04,-7.247 0.702,-2.087 -0.604,-4.27 0.372,-3.629 -0.31,-1.436 -0.998,-1.217 -0.279,-2.438 -0.824,-0.686 -0.712,0.021 -3.245,3.399 -4.61,6.201 -9.114,14.842 -2.905,7.959 -3.715,8.274 -0.89,3.554 -2.842,3.355 -0.846,2.037 -0.148,2.137 -1.403,2.506 -1.015,2.841 -0.161,3.073 0.727,3.355 -0.404,3.295 -1.778,2.988 -0.056,6.598 0.928,4.431 0.563,8.289 0.909,6.176 0.347,15.397 0.349,3.961 1.63,10.259 4.473,14.178 -0.066,2.016 0.418,2.537 -0.462,0.287 -0.744,-0.101 0.481,-0.671 -0.915,-1.599 0.07,-3.436 -0.736,-2.84 -1.156,-2.603 0.192,-2.245 -0.404,-1.828 -2.94,-3.221 -0.654,-1.861 0.203,-2.02 -0.743,-2.182 -0.141,-2.52 0.459,-2.952 -0.377,-7.56 1.338,-13.95 1.381,-9.162 4.015,-18.694 0.944,-2.172 0.477,-2.3 -0.117,-2.372 1.719,-5.33 0.447,-6.522 1.046,-3.685 3.281,-7.132 0.995,-3.377 1.218,-6.384 1.853,-5.861 2.477,-4.52 1.361,-3.518 5.936,-8.925 4.288,-8.417 0.972,-2.496 2.2,-6.65 0.809,-4.793 2.617,-9.549 3.711,-9.044 3.791,-7.364 2.783,-13.68 1.537,-4.314 1.644,-3.493 2.178,-3.403 1.259,-4.72 1.479,-3.047 4.37,-4.198 1.297,-2.4 3.259,-8.645 2.401,-3.770001 2.586,-7.978 2.042,-4.656 0.383,-3.984 2.589,-9.748 -0.177,-2.172 -0.557,-1.883 0.053,-1.852 0.698,-3.578 1.049,-2.467 -0.116,-1.504 0.304,-0.226 -0.792,0.542 -1.112,-0.956 -0.231,-0.654 0.297,-0.686 -0.124,-2.711 0.431,-1.777 -0.337,-0.493 0.267,-0.389 -0.101,-0.322 -0.571,0.144 -0.781,-0.413 0.364,-0.257 -0.01,-2.335 0.566,-4.117 -0.156,-1.571 0.465,-1.881 0.544,-0.311 -0.619,-0.249 1.344,-0.558 -0.575,-0.865 0.393,-1.101 -1.122,-0.833 -0.065,-0.488 0.981,-0.148 -0.091,0.308 0.242,-0.944 0.714,-0.751 -0.44,0.021 1.251,-0.132 -0.426,0.209 1.127,0.022 -0.052,0.377 1.779,-0.44 0.753,1.227 1.709,1.292 -0.566,0.383 1.267,0.168 0.04,0.3 -0.299,0.025 0.256,0.229 -0.24,0.881 0.944,0.615 0.467,1.185 -0.299,4.013 0.077,0.561 0.478,0.435 0.648,2.846 -0.327,1.532 0.088,3.045 1.019,3.741 0.066,5.385 -0.591,2.358 0.174,0.984 -0.625,7.618 0.333,0.634 -0.398,1.432 0.129,4.257 -0.335,2.268 0.101,1.142 0.798,0.94 -0.009,1.075 -1.072,0.933 -0.628,2.05 0.261,1.53 -0.363,0.754 0.114,0.895 1.1,2.073 0.178,1.265 -1.985,10.150001 0.804,8.587 -1.113,7.658 -0.409,1.022 0.17,2.75 -0.474,3.744 0.652,10.082 -0.386,1.705 0.087,6.01 -0.548,6.482 -0.531,1.135 -0.093,2.425 -0.591,1.036 -0.103,1.13 0.509,2.709 -0.003,3.142 0.708,3.13 -0.757,2.743 -0.083,1.258 0.695,4.303 -1.468,12.684 0.901,11.459 -0.155,6.561 -0.497,3.708 -0.237,5.62 -0.601,1.187 0.447,3.742 -0.038,3.063 0.54,1.518 -0.062,1.314 -0.767,1.281 0.619,1.506 -0.064,1.602 -0.777,1.466 -0.557,2.609 0.456,3.674 -0.363,2.859 0.248,4.545 -0.658,3.443 -1.305,13.704 -0.275,6.912 -0.715,1.409 -0.165,1.506 0.35,1.548 -0.185,3.393 -0.31,1.578 -1.156,1.676 -0.437,1.904 0.88,2.897 -0.089,1.315 -0.588,1.318 -0.428,3.973 0.474,1.644 -0.139,1.609 -1.048,1.646 -0.795,3.795 -0.651,5.671 -0.173,6.877 -1.891,12.604 -0.535,5.905 -0.031,3.637 -0.385,1.901 0.278,8.719 -0.771,3.151 1.53,1.689 0.083,1.824 -1.987,1.494 -0.44,3.595 -0.847,1.967 -1.43,1.998 -0.358,1.715 1.043,1.432 0.481,1.402 -0.369,8.458 0.16,3.737 -0.719,5.156 -0.72,2.807 0.126,1.239 -0.5,2.502 0.355,1.357 -0.118,1.636 -1.661,2.723 -0.257,1.071 1.03,2.309 0.031,1.359 -0.494,1.169 1.233,1.08 -0.069,1.409 -1.91,1.246 0.293,1.502 -0.257,1.44 -2.106,2.597 -0.245,1.246 0.476,1.06 -0.592,1.161 0.387,4.574 -0.329,2.948 -0.917,2.418 -1.284,10.356 -0.03,3.101 -0.378,1.308 -2.3,3.541 0.393,1.04 -0.614,4.523 0.672,2.089 -0.038,0.94 -1.17,1.501 -0.1,0.764 0.648,1.32 -0.06,0.69 -1.332,4.64 0.056,3.4 -1.04,5.32 0.321,0.89 -0.893,0.96 0.026,1.31 -0.701,0.81 -0.026,1.07 0.978,2.14 0.073,0.99 -0.762,2.07 0.471,0.66 -0.901,0.5 -0.376,2.94 -0.951,1.93 0.25,0.88 -0.267,1.41 -1.087,2.01 -0.371,4.31 -1.064,2.83 -0.658,0.5 0.401,0.4 -1.001,1.08 -0.064,1.02 -1.026,1.18 -1.851,3.27 -1.331,0.62 -1.48,2.93 -0.963,1.02 -0.651,1.32 -2.829,1.78 -1.933,0.66 -0.914,0.75 -0.71,1.18 -0.69,0.4 0.021,0.56 -1.074,0.63 -1.264,-0.22 -1.255,0.84 -2.962,0.44 0.058,0.31 -1.846,0.89 -2.89,-0.06 -2.96,1.32 0.16,0.22 -1.292,-0.53 -1.347,-0.06 -2.616,0.85 -2.012,-1.85 -2.337,-0.38 -3.308,-5.64 -3.414,-1.8 -1.321,-1.77 -0.484,-2.38 0.117,-1.98 -0.58,-2.02 -2.445,-3.66 -1.106,-4.56 -0.776,-2.29 -1.043,-1.83 -0.361,-2 -1.791,-2.95 -0.345,-1.53 -1.233,-1.31 -0.333,-0.81 0.088,-1.72 -1.209,-3.47 -0.746,-6.33 -2.828,-3.61 -1.534,-3.49 -2.549,-8.391 0.686,-2.341 -1.926,-2.277 0.643,-0.748 -0.195,-1.518 -2.366,-2.516 -0.15,-2.455 -0.583,-1.552 -0.822,-1.446 -1.254,-1.329 -0.637,-1.519 0.364,-1.496 -0.068,-2.717 -2.252,-9.456 -0.821,-2.609 -1.015,-1.95 -1.365,-4.93 -1.017,-2.458 -0.014,-1.222 -0.601,-1.293 -1.447,-6.418 -0.04,-2.76 -1.251,-2.69 -0.498,-2.451 -1.58,-2.563 -0.34,-3.174 -1.173,-4.69 -0.473,-6.656 -2.588,-6.061 0.095,-0.726 -1.283,-1.898 -0.468,-4.134 -0.04,-5.532 -1.451,-3.269 -2.052,-3.418 0.057,-2.98 -0.712,-1.773 -0.598,-3.493 -1.393,-4.614 -1.171,-2.3 -0.172,-1.224 0.443,-1.205 -0.263,-1.079 -1.081,-0.977 -0.702,-1.924 -0.818,-0.815 -0.486,-2.925 -0.989,-1.288 -0.669,-1.717 -1.34,-1.463 0.413,-1.001 -0.829,-3.046 -1.364,-3.434 -3.252,-5.568 0.092,-3.643 -1.68,-2.469 -0.257,-1.145 0.412,-0.803 -1.224,-1.093 -0.033,-1.039 -3.031,-3.071 -1.341,-2.14 -1.887,-3.923 -0.429,-2.649 -1.375,-1.583 -2.646,-5.998 -0.333,-4.179 -2.027,-5.891 -0.196,-1.821 0.351,-2.051 -0.923,-2.187 -0.028,-2.822 -1.46,-3.143 0.014,-2.024 -0.536,-1.944 -0.178,-3.123 -0.629,-2.038 -10e-4,-2.095 -1.277,-3.123 0.255,-0.746 -0.285,-1.386 0.324,-0.849 -0.019,-1.862 0.726,-1.026 0.308,-1.133 -0.456,-0.83 0.615,-1.59 -0.156,-2.656 1.45,-2.515 0.128,-1.73 4.241,-4.733 2.068,-4.088 1.092,-1.511 4.214,-5.26 4.004,-4.045 0.255,-1.983 0.722,-1.333 7.214,-7.072 10.701,-6.794 9.085,-10.234 4.036,-4.063 6.815,-4.781 4.885,-4.718 2.97,-3.327 5.443,-7.068 5.08,-5.147 6.845,-9.752 10.713,-11.144 4.782,-7.355 5.073,-6.989 5.409,-5.95 4.083,-3.707 3.128,-4.405"
     id="path1025" />
  <path
     style="opacity:1;stroke:#b9e0f7;stroke-opacity:1"
     fill="none"
     stroke="#fefd60"
     stroke-width="30"
     stroke-linecap="butt"
     stroke-linejoin="bevel"
     opacity="0.500008"
     d="m 722.60542,53.875609 0.69,-2.19 2.12,-4.193 0.61,-2.85 -0.79,-2.115 -1.21,-6.111 -1.58,-5.234 0.06,-1.106 -2.68,-6.287 -0.14,-2.205 -1.14,-1.91 0.7,-0.779 -0.52,-0.718 -3.13,-0.372 -0.74,-0.4 0.05,-0.26 -1.26,-0.443 0.06,-0.525 -0.54,-0.136 -7.53,-0.791 -4.11,0.87 -0.34,0.452 -2.66,0.807 -1.61,1.432 -2.2,3.262 -0.47,1.234 0.14,1.134 0.76,0.979 0.01,0.921 -0.86,1.016 -0.29,5.431 -3.23,8.881 -1.34,5.589 -0.85,6.223 0.16,4.045 -0.62,1.582 -0.7,4.14 -0.72,1.007 -0.12,1.343 0.29,1.639 -0.28,4.134 0.9,1.37 -0.07,1.615 -1.39,1.559 -1.35,5.164 -1.62,10.92 -1.72,5.739 -0.72,4.662001 -0.47,10.8 0.14,8.658 0.35,3.766 -0.29,4.454 0.52,4.204 -0.27,5.662 -0.57,2.072 -0.18,4.493 1.03,2.287 0.06,2.548 -1.38,2.325 0.12,6.081 0.91,3.539 0.08,4.861 0.69,3.697 -1.47,17.02 0.27,3.522 0.61,2.865 -0.11,6.523 -0.8,7.591 -1.43,7.232 0.09,1.962 1.68,1.748 0.27,1.428 -1.49,1.071 -0.63,3.939 -0.12,4.4 -0.61,2.676 0.56,3.118 -0.07,14.433 -0.36,6.899 0.76,3.963 -0.14,2.591 0.51,6.458 -0.23,2.468 0.63,5.166 -1.19,2.527 -0.08,1.156 0.55,1.507 -0.1,6.75 1.02,11.424 -0.64,2.373 0.04,4.321 -0.29,1.987 -1.37,4.142 -0.54,5.254 0.48,9.125 -0.19,8.873 0.39,2.81 -0.27,4.601 0.45,5.861 -0.51,9.15 0.39,3.596 -1.03,3.544 -0.32,6.287 0.38,3.992 -0.27,9.01 0.15,6.841 -1.12,13.52 0.49,4.469 -0.12,6.77 0.33,6.884 -1.33,5.948 0.8,3.015 -0.1,1.311 -0.72,0.957 -0.17,0.821 0.22,3.3 0.63,1.955 v 5.085 l -1.49,12.009 0.01,3.4 0.27,3.48 0.74,3.52 -0.52,3.71 0.12,1.94 0.64,1.92 0.13,2.87 1.08,2.6 1.1,0.58 0.51,1.05 -0.51,1.08 0.98,2.94 3.22,3.57 1.19,1.82 1.59,1.07 4.61,1.19 1.76,-0.05 1.71,-0.94 -0.32,-0.99 0.31,-0.6 0.86,-0.61 1.43,-1.78 2.51,-1.69 0.12,-1.99 1.72,-3.16 0.37,-1.96 -0.27,-5.64 0.87,-3.3 0.35,-3.45 0.43,-10.18 1.19,-6.29 1.19,-3.44 0.44,-7.688 -0.32,-1.663 0.1,-1.608 0.63,-3.192 0.49,-8.717 1.22,-10.553 0.24,-6.828 -0.51,-2.111 0.17,-4.816 -0.64,-2.371 -0.14,-2.323 0.56,-2.303 0.31,-14.283 -0.57,-12.016 -0.52,-4.587 -0.06,-10.534 1.4,-8.437 1.2,-11.109 -0.31,-7.891 0.61,-3.788 0.92,-10.913 -0.03,-2.71 1.91,-9.76 -0.26,-14.594 2.06,-15.275 1.52,-3.99 0.3,-1.912 -0.78,-3.787 0.06,-4.235 -0.46,-2.241 -0.06,-2.335 0.45,-2.247 0.11,-4.185 1.65,-15.073 -0.29,-5.542 1.35,-4.054 -0.25,-8.548 1.58,-19.479 0.3,-2.701 0.74,-2.784 1.79,-5.144 -0.18,-4.132 0.97,-3.53 0.01,-2.676 0.67,-1.063 -0.01,-4.446 0.83,-10.028 1.53,-7.265 1.29,-4.229 0.75,-5.656 -0.99,-8.174 0.03,-2.355 0.48,-5.009 2.71,-12.954 -0.32,-5.263 -0.62,-1.474 -0.19,-1.743 0.55,-1.713 1.64,-9.873001 -0.14,-4.562 0.49,-3.68 -1.47,-1.414 -0.41,-0.857 1.15,-8.118 -0.04,-6.26 -0.59,-4.091 -1.21,-5.196 -0.43,-1.142 -1.09,-0.944 -0.42,-1.066 -0.03,-0.844 0.56,-1.562 -0.11,-1.133 -1.09,-4.235 -0.21,-2.799 -1.06,-2.665 0.45,-1.15 -0.41,-1.047 -1.3,-1.081 -0.21,-1.043 -0.61,-0.746 -5,-3.51 -2.05,-9.336 -0.62,-0.905 -1.22,-0.623 -2.73,1.98 -0.43,1.936 -2.26,3.999 0.14,1.778 -6.63,32.544 -1.3,18.317 0.19,6.727 -0.66,14.419001 -0.55,2.634 -0.3,4.936 -1.51,5.67 -0.32,2.374 0.11,2.075 -0.38,1.844 -0.11,2.326 0.44,2.613 1.4,2.283 0.09,2.733 -0.98,3.39 0.17,5.653 -0.79,5.216 0.03,3.106 0.58,3.05 0.28,4.993 -1.58,23.433 0.48,13.467 0.83,5.543 0.15,4.794 -0.3,5.044 0.38,2.355 -0.85,3.938 -0.03,4.815 -0.96,5.564 -0.1,4.894 -0.81,2.668 -0.22,2.408 -0.41,9.065 1.04,5.654 -0.1,2.063 -0.5,1.877 -0.06,4.049 -1.01,6.356 -0.8,21.267 -0.64,5.798 -0.86,4.393 1.07,3.27 0.26,1.805 -0.77,3.562 0.03,1.529 0.8,2.346 0.02,1.347 -0.47,1.217 0.42,1.546 0.02,1.909 -1.82,5.627 0.34,1.849 -0.41,1.733 -0.4,7.895 0.8,7.599 v 4.354 l -2.11,9.401 -0.38,3.859 0.48,8.649 -0.21,1.57 0.39,3.257 -0.24,1.71 0.5,3.12 -0.44,1.408 -0.24,4.333 -0.75,1.476 -0.06,1.744 0.49,1.685 -0.73,11.671 0.76,8.915 -0.84,3.52 -0.09,1.756 -1.22,3.307 -1.17,5.854 0.51,1.94 0.35,3.546 0.03,4.005 -0.48,4.161 -1.37,6.896 -0.49,6.326 0.55,3.39 0.04,5.041 -2.36,11.19 -0.22,5.53 1.38,13.16 -0.5,7.07 0.55,-0.6 1.54,1.36 1.82,4.33 0.41,0.39 3.66,0.82 4.41,-0.3 -0.33,-0.09 0.88,-0.35 -0.08,-0.52 1.54,-0.55 2.03,-1.4 1.13,-0.13 2.82,-2.53 1.15,-2.21 3.02,-4.1 0.84,-3.12 0.91,-1.54 -0.29,-0.67 0.19,-0.52 1.34,-0.62 -0.36,-1.15 0.1,-0.94 1.47,-4.91 -0.1,-1.55 0.37,-1.47 1.03,-1.47 1.01,-2.54 -0.05,-3.15 0.42,-3.45 2.78,-15.452 -0.22,-3.952 0.34,-2.846 -0.14,-2.441 0.65,-1.072 1.22,-5.066 0.02,-3.056 0.64,-1.617 0.2,-1.735 -0.5,-1.675 0.35,-2.443 -0.94,-2.031 -0.09,-1.038 0.44,-1.74 0.49,-9.882 1.13,-6.494 -0.09,-6.518 0.28,-2.309 -0.32,-2.822 1.77,-12.155 0.6,-9.002 -0.12,-5.184 -0.51,-2.94 -0.11,-3.53 1.97,-11.609 0.18,-5.619 -0.71,-9.311 0.18,-3.99 0.43,-4.543 1.02,-2.408 0.44,-2.361 -0.26,-4.543 1.11,-7.957 -0.35,-5.081 0.52,-4.925 -0.43,-1.955 0.54,-6.532 -0.32,-2.487 0.4,-2.22 1.85,-4.239 0.25,-1.747 -0.36,-15.763 0.52,-7.762 -0.16,-4.836 0.53,-1.942 0.04,-1.751 -1.32,-13.679 0.51,-4.627 -0.03,-4.241 0.78,-10.566 -0.49,-1.439 0.1,-3.302 -1.43,-4.649 -0.05,-4.84 0.38,-4.24 2.72,-14.848 -0.06,-2.092 -1.31,-2.418 -1.02,-3.804 -0.15,-1.805 0.41,-6.84 1.09,-5.113 0.11,-2.314 1,-3.629 -0.54,-2.26 -1.15,-1.035 -0.39,-0.92 0.16,-6.23 0.95,-4.811 0.89,-10.329 0.01,-3.426 -0.69,-1.412 v -0.863 l -0.87,-1.069 v -1.69 l 1.45,-3.446 0.46,-1.98 -0.18,-4.665 0.6,-4.663001 -0.28,-1.746 -0.72,-0.523 -0.21,-0.634 0.61,-1.003 0.02,-0.717 -1.28,-2.774 -0.27,-1.581 1.48,-8.955 0.07,-4.304 -1.13,-3.329 -0.96,-4.454 -0.06,-3.153 -0.97,-5.36 0.26,-4.067 -1.23,-3.086 0.67,-3.81 -0.37,-2.378 1,-4.171 -1.24,-0.978 -0.24,-0.647 0.2,-0.845 -0.32,-1.678 -0.1,-6.657 -0.55,-3.509 -0.13,-0.418 -1.33,-0.012 -0.54,-0.567 -0.61,-2.356 -0.01,-1.213 -1.85,-0.575 -0.63,-0.532 -2.3,-0.357 -0.57,-0.386 -0.24,-1.011 -1.39,-1.41 -5.29,-0.111 -2.14,-2.096 -1.81,-0.917 -1.94,0.286 -1.91,0.818 -2,0.015 -2.88,1.532 -1.88,1.561 -2.65,0.772 0.54,0.242 -2.95,3.127 -2.88,5.704 -2.31,3.233 -0.57,3.104 -1.6,3.294 -0.19,1.315 0.95,3.225 -0.48,2.465 -1.22,4.095 -2.79,5.415 -1.15,5.517 -0.16,1.082 1.33,4.644 0.16,3.814 -1.02,4.245 0.01,2.875 -1.08,2.643 0.34,2.014 -0.34,0.962 0.85,3.527 1.02,1.14 0.31,1.142 -0.79,1.341 -0.32,1.629 -0.35,2.893 0.41,1.205 -0.27,1.29 -1.48,2.575 -0.23,1.099001 0.7,2.91 0.02,1.841 -0.7,4.137 -1,10.352 0.58,10.336 0.88,3.592 v 2.126 l -1.06,6.639 0.23,3.843 -0.71,6.712 1.21,4.515 0.08,7.768 0.61,8.531 -0.6,9.501 0.4,20.316 -0.88,13.108 0.87,5.53 -0.45,3.253 1.05,4.11 v 1.594 l -1.59,5.502 0.47,3.817 -0.21,1.596 -0.95,2.549 1.46,5.499 0.5,4.384 -0.23,16.602 0.26,4.602 -0.77,3.224 -0.07,1.819 1.32,4.03 0.41,4.438 0.88,1.282 0.03,1.58 -2.2,2.956 -0.3,1.607 0.76,1.532 0.2,3.053 -0.25,1.316 0.87,3.293 0.6,6.548 -0.44,5.033 -0.88,4.525 0.58,3.415 -0.79,2.777 0.64,0.994 0.22,1.136 -0.56,5.93 0.43,1.588 -0.06,1.287 -1.45,1.616 -0.18,0.853 0.61,2.917 -0.25,2.202 0.33,0.775 0.22,3.16 -0.35,8.293 0.5,2.473 -0.07,4.365 -0.71,2.627 0.61,2.344 -0.04,1.181 -0.94,2.763 0.48,3.368 -0.54,1.999 0.41,3.476 -0.75,3.761 0.1,1.091 -0.98,8.18 0.39,2.627 0.45,0.916 -0.34,2.372 0.35,1.096 -0.12,1.125 -1.85,3.543 0.13,1.267 -0.81,2.041 0.2,0.774 -0.42,1.471 0.29,0.709 0.03,5.603 -0.51,3.704 -1.25,3.828 -0.09,3.318 -0.52,1.227 -0.04,1.795 0.97,4.211 -0.93,15.887 0.59,1.35 -0.49,-0.28 0.51,0.17 0.45,1.86 -0.51,4.3 -0.61,2.18 -0.09,2.34 0.62,1.32 1.52,0.94 -0.49,0.45 0.24,1.25 -0.79,2.13 0.63,1.76 -0.03,1.69 0.54,0.57 0.05,0.47 -0.44,0.29 0.91,0.77 -1.09,0.86 -0.01,0.61 1.46,1.51 0.29,1.05 -0.53,3.29 0.89,0.84 0.5,1.87 1.08,1.59 0.08,0.72 -0.44,0.91 0.24,0.17 -0.52,0.04 0.79,-0.08 1.07,2.64 1.51,2.01 0.64,0.2 -0.5,-0.01 2,1.19 1.38,1.91 1.75,0.31 -0.56,0.08 0.1,0.27 1.06,0.68 1.85,0.68 2,0.12 0.36,0.1 -0.72,0.07 1.24,0.24 4.49,0.29 3.4,-0.65 3.26,0.1 -0.95,-0.33 1.73,-0.85 0.22,0.08 -0.19,0.26 -0.25,-0.06 2.41,-1.78 -0.34,-0.2 0.24,0.16 -0.61,0.07 1.59,0.01 -1.46,0.13 1.39,-0.19 -0.61,0.1 0.58,-0.09 -1.36,-0.24 0.64,-0.17 -1.89,-0.41 -3.69,0.35 0.42,-0.04 v -0.25 l -2.75,-0.49 -2.25,0.24 -0.91,-0.28 -0.55,-0.56 -1.56,-0.33 -2.48,0.2 0.16,-0.23 -1.32,-0.76 0.02,-0.62 -1.39,-1 -2.33,-0.87 -2.41,-3.96 -1.69,-0.14 -1.87,-3.96 -1.12,-0.82 -1.26,-3.6 -0.87,-1.27 -1.24,-4.62 -1.61,-3.93 -0.72,-7.81 -0.94,-2.52 -0.58,-3.97 0.06,-8.306 -1.1,-4.323 0.23,-6.934 0.38,-1.552 -0.91,-2.03 0.2,-0.592 -0.49,-1.339 0.25,-0.829 -0.24,-1.159 1.27,-6.081 0.02,-3.602 1.1,-1.853 0.14,-0.903 -0.81,-0.743 -0.74,-1.464 0.3,-0.814 -0.09,-1.819 1.56,-8.285 1,-3.238 -0.93,-5.126 0.13,-1.53 0.72,-1.514 0.24,-1.795 -1.04,-3.679 0.03,-1.342 0.98,-2.386 -0.2,-1.899 1.05,-0.926 0.08,-0.737 -1.32,-2.169 -0.14,-1.58 0.87,-1.358 0.48,-3.461 -0.23,-8.322 0.2,-8.971 1.24,-4.377 -1.48,-1.409 -0.26,-0.863 0.73,-2.038 -0.4,-6.224 0.56,-0.952 -0.05,-0.725 -0.63,-0.598 -0.73,-1.452 -0.63,-5.221 0.1,-10.963 -0.94,-2.739 0.52,-2.802 -0.58,-2.895 0.07,-2.016 0.83,-3.806 0.03,-1.792 -0.54,-3.444 0.18,-0.548 0.63,0.02 -1.01,0.319 0.27,-2.739 -0.08,-4.964 1.57,-7.005 -0.15,-1.075 -0.51,-0.058 -0.1,-0.598 0.65,-8.19 -0.52,-2.943 0.62,-1.31 -0.01,-2.35 -0.4,-0.368 0.39,-0.976 -0.49,-1.255 0.42,-3.492 -0.09,-2.043 0.79,-3.554 -0.86,-4.012 0.52,-0.913 0.06,-1.133 -0.69,-3.513 -0.06,-8.288 -0.45,-5.72 0.11,-1.089 0.9,-1.073 -0.4,-0.287 -0.6,-2.78 0.06,-1.413 0.57,-1.302 1.32,-10.971 -0.21,-1.469 -0.71,-0.649 0.41,-0.113 0.1,-0.402 0.83,-13.058 -1.14,-8.529 0.71,-7.955 -0.59,-2.829 0.29,-0.601 -0.19,-0.553 -1.82,-1.284 -0.35,-1.11 1.05,-1.626 -0.12,-7.943 -0.72,-3.619 -0.86,-2.072 0.24,-4.666 -0.38,-1.616 -0.07,-5.134 -0.52,-1.148 0.09,-0.787 1.17,-0.838 -0.92,0.138 -0.25,-0.532 0.77,-1.256 -0.02,-0.883 -1.14,-2.604 0.06,-1.356 1.58,-6.153 -0.61,-5.465 0.26,-6.065 1.54,-4.618 -0.37,-1.215 0.21,-2.611 -0.9,-0.235 -0.14,-0.323 0.7,-0.303 -0.14,-0.837 0.68,-1.553 -0.39,-2.445 0.06,-1.696 0.43,-1.331 -0.32,-1.116 0.14,-1.021 0.64,-0.988 0.06,-1.749001 -0.25,-0.496 0.24,-1.593 2.86,-8.574 -0.08,-0.555 -1.6,-2.053 0.02,-0.594 1.49,-4.559 1.54,-2.759 -0.61,-2.463 0.51,-0.384 0.73,0.17 -0.8,0.362 -0.52,-1.612 0.23,-1.376 1.64,-2.709 1.39,-4.78 0.32,-3.989 -0.2,-1.472 0.31,-1.106 2.02,-2.576 0.41,-1.037 -0.81,-2.338 0.66,-0.264 -0.32,0.065 -0.32,-1.503 1.1,-0.895 0.35,-0.834 -0.06,-1.149 1.09,-1.591 -0.43,-0.097 -0.92,0.765 0.7,0.631 0.03,0.385 -0.92,0.678 -2.18,5.257 -0.22,3.218 -0.76,3.405 -0.14,3.992 0.29,2.363 -0.34,2.468 -1.58,4.977 -0.35,2.329 0.35,4.641 -0.14,4.879 -0.59,5.383 0.71,7.409 -0.58,4.602001 -0.27,10.152 0.27,4.376 -0.67,11.454 0.44,7.05 0.02,6.8 -1.33,9.833 0.43,6.833 -1.06,4.887 -0.71,7.281 -2,10.42 0.27,3.701 -0.51,4.119 0.53,3.967 0.48,9.75 -1.89,8.629 -0.33,4.184 0.36,9.326 0.67,2.038 0.98,1.35 0.17,1.307 -0.7,2.298 0.1,2.971 -0.36,1.436 -0.63,8.062 -0.83,3.073 0.31,3.814 0.76,3.39 0.04,2.671 0.4,0.983 0.37,5.819 -0.49,13.542 0.76,5.646 -0.16,2.762 0.42,2.343 -0.72,4.709 0.22,1.363 0.81,1.561 0.12,1.603 -1.29,3.234 -0.1,1.716 0.45,1.639 0.02,3.403 0.49,2.855 0.52,7.342 -0.28,6.982 -1.03,8.017 0.23,3.491 -0.33,3.379 0.96,2.349 -0.08,1.199 -1.46,5.276 0.32,1.487 -0.24,1.423 -0.83,1.157 -0.24,1.026 0.28,1.305 -0.2,0.956 1.31,2.861 v 4.311 l -0.84,5.689 0.23,0.884 -0.06,4.366 0.67,1.013 0.08,1.086 -1.42,2.026 -0.12,0.916 0.85,0.781 0.59,1.455 -0.32,2.317 0.38,1.815 -1.5,2.115 -0.35,1.164 0.24,0.948 -0.73,4.217 0.02,1.355 0.9,2.549 0.16,2.736 -0.59,4.826 -0.86,0.382 -0.23,0.553 0.86,0.205 0.29,0.611 -0.33,2.936 0.51,1.402 -0.07,0.858 -0.98,1.604 0.09,1.418 -0.58,0.709 -0.12,0.838 0.57,0.96 -1.24,9.066 0.44,0.321 0.24,1.097 -0.13,1.786 -0.48,1.494 0.37,1.551 -0.16,1.123 0.59,1.008 0.32,2.519 0.65,0.726 0.15,0.735 -1.02,2.204 0.48,1.999 -0.32,3.376 0.28,3.283 -0.49,1.969 0.39,1.445 -0.48,3.58 0.62,1.45 -0.06,0.77 -0.66,2.5 0.05,2.52 -0.88,0.43 -0.11,0.48 0.73,0.47 -0.35,3.37 0.24,2.09 0.69,0.64 0.12,2.61 0.61,1.03 -0.06,1.04 -0.68,0.69 -0.38,1.46 1.92,3.16 -0.01,1.16 0.39,1.03 -0.57,0.68 0.12,0.81 2.17,1.86 0.94,1.4 0.68,1.9 1.6,0.96 2.22,4.44 0.78,0.62 -0.06,0.53 0.8,0.2 0.04,1.05 2.45,2.1 2.76,0.06 -0.2,0.13 0.82,0.35 -0.4,0.23 0.07,0.33 1.56,0.76 2.38,-0.67 0.5,-0.46 0.83,0.27 -1.28,0.35 2.91,-0.69 1.94,-1.44 0.82,0.11 0.17,-0.46 2.3,-0.94 -0.39,-0.44 1.17,-1.02 -0.22,-0.52 -0.47,-0.19 0.23,-0.29 2.49,-0.64 0.52,-0.33 -0.06,-0.44 1.5,-0.89 -0.5,-0.92 0.17,-0.5 1.01,-0.81 -0.03,-2.61 0.61,-3.5 2.46,-5.66 1.18,-4.65 -0.5,-1.78 0.16,-2.97 -0.64,-1.61 0.07,-1.59 1.01,-1.38 0.49,-1.38 0.81,-7.9 -0.11,-8.807 0.38,-6.217 1.1,-9.532 -0.22,-10.044 1.76,-18.582 -0.18,-9.861 0.5,-6.328 1.83,-12.088 0.29,-14.586 -0.71,-7.033 -0.09,-4.866 1.14,-9.006"
     id="path1029" />
  <path
     fill="none"
     stroke="#000000"
     stroke-width="4"
     stroke-linecap="round"
     stroke-linejoin="round"
     d="m 26.220425,293.01261 0.669,-2.347 -0.266,0.856 -0.381,-0.326 -1.518,1.128 -2.531,3.187 -2.79,5.271 -2.293,6.699 -1.588,9.961 0.258,2.747 1.842,6.69 1.389,1.55 1.626,0.982 1.643,0.36 6.886,-1.241 2.886,-1.25 2.325,-1.707 1.95,-2.088 1.857,-2.538 2.965,-5.957 2.296,-6.61 0.471,-3.565 0.182,-6.509 -0.452,-2.817 -1.051,-2.224 -3.508,-3.37 -3.373,-2.255 -1.542,-0.649 -1.698,-0.121 -1.782,0.346 -2.768,1.372"
     id="path837" />
  <path
     fill="none"
     stroke="#000000"
     stroke-width="4"
     stroke-linecap="round"
     stroke-linejoin="round"
     d="m 53.008425,272.01061 3.212,-5.589 4.044,-8.658 3.079,-3.966 9.567,-17.702 4.759,-7.162 3.684,-6.94 6.504,-8.994 7.595,-14.103 11.381995,-16.905 8.833,-11.46 1.37,-2.753 2.346,-2.852 3.982,-6.492 4.282,-6.075 4.306,-5.518 2.698,-4.051 2.225,-2.43 0.774,-1.769"
     id="path841" />
  <path
     fill="none"
     stroke="#000000"
     stroke-width="4"
     stroke-linecap="round"
     stroke-linejoin="round"
     d="m 160.32542,106.73361 -0.59,2.782 0.737,4.239 0.425,11.716 -1.207,15.426 0.187,1.82 0.894,-0.067 0.019,-0.252"
     id="path845" />
  <path
     fill="none"
     stroke="#000000"
     stroke-width="4"
     stroke-linecap="round"
     stroke-linejoin="round"
     d="m 64.350425,319.10661 0.091,-0.289 0.214,0.111 3.432,2.861 2.628,1.525 14.016,3.042 3.336,1.138 9.018,4.462 17.181995,4.825 6.576,2.946 6.965,3.864 20.073,7.52 5.409,2.681 15.821,3.697 3.433,1.604 2.09,1.613 9.142,3.458 2.379,0.003 0.154,-0.276 -0.294,-0.371"
     id="path849" />
  <path
     fill="none"
     stroke="#000000"
     stroke-width="4"
     stroke-linecap="round"
     stroke-linejoin="round"
     d="m 199.33642,361.73161 -0.592,-1.364 0.164,-1.167 0.551,-1.738 2.037,-2.907 2.207,-1.327 0.987,-0.047 1.642,1.22 1.777,2.595 0.673,1.807 0.23,5.003 -0.331,2.902 -4.739,10.256 -0.566,0.821 -0.585,0.275 0.89,-0.895 0.996,-0.143 11.933,2.73 3.324,1.563"
     id="path853" />
  <path
     fill="none"
     stroke="#000000"
     stroke-width="4"
     stroke-linecap="round"
     stroke-linejoin="round"
     d="m 51.943425,342.80761 -0.196,-0.431 -1.226,-0.1 1.066,0.075 2.074,2.226 5.583,8.589 6.363,5.405 6.8,7.664 2.888,4.454 4.027,4.185 9.15,8.387 3.393,3.865 3.983,6.072 3.756,4.311 0.846995,1.377 2.698,2.705 1.136,2.59 2.405,3.284 10.846,10.944 5.156,5.631 1.854,1.553 1.462,1.535 0.811,1.484 2.608,2.622 15.902,14.924 6.727,8.572 3.04,4.885 2.969,2.95 2.366,2.97 0.594,1.19 5.698,5.23 2.695,3.36 2.856,4.36 3.504,4.16 1.021,1.92 4.559,6.37 0.909,0.98 2.886,2.02 -0.209,0.19 0.329,0.16 -0.318,0.22 -0.892,-0.28"
     id="path857" />
  <path
     fill="none"
     stroke="#000000"
     stroke-width="4"
     stroke-linecap="round"
     stroke-linejoin="round"
     d="m 197.58742,507.00561 -0.709,2.89 -0.449,-0.23 0.337,-1.17 2.402,-4.1 3.516,-2.61 0.862,-0.35 1.619,0.31 1.432,1.12 1.496,1.73 0.939,2.25 0.056,3.18 -1.144,7.21 -1.458,2.02 -1.734,0.11 1.228,-2.31 2.162,-0.39 1.258,0.09 0.865,0.48 1.052,0.67 3.344,3.61 1.109,2.26 0.31,2.62 -0.043,1.5 -2.058,4.78 -2.362,3.4 -1.181,1.01 -2.503,1.13 -5.809,-0.19 -2.237,1.43"
     id="path861" />
  <path
     fill="none"
     stroke="#000000"
     stroke-width="4"
     stroke-linecap="round"
     stroke-linejoin="round"
     d="m 183.82042,138.11561 0.399,-0.017 0.171,0.504 1.542,1.323 6.911,4.105 4.813,4.097 2.68,1.857 8.887,5.248 4.367,3.939 2.78,1.677 4.481,3.453 3.24,1.299 4.832,3.23 0.845,0.931 5.137,3.673 7.488,6.453 1.303,0.875 11.262,5.285 4.784,3.529 4.82,5.674 1.519,1.129 17.161,7.816 1.78,1.153 0.988,1.243 5.995,5.387 1.681,1.122 4.049,1.749 6.728,3.758 5.915,4.207 9.161,8.577 2.738,1.725 1.094,0.119 -0.059,-0.32 -1.489,1.196"
     id="path865" />
  <path
     fill="none"
     stroke="#000000"
     stroke-width="4"
     stroke-linecap="round"
     stroke-linejoin="round"
     d="m 236.44642,357.74161 1.019,-1.535 -0.329,-0.059 0.042,0.265 0.715,-0.855 2.192,-3.482 6.049,-8.052 2.344,-4.76 5.952,-7.144 8.653,-9.06 4.308,-5.236 2.752,-4.865 2.841,-2.024 4.224,-5.625 2.513,-2.027 1.919,-2.588 3.031,-3.196 2.264,-1.638 6.51,-5.73 3.763,-4.428 6.385,-5.4 0.665,-1 2.781,-2.61 0.494,-1.074 2.638,-1.922 6.656,-6.719 1.037,-1.757 1.853,-1.358 0.918,-1.081 0.642,-1.003 -0.371,-0.212"
     id="path869" />
  <path
     fill="none"
     stroke="#000000"
     stroke-width="4"
     stroke-linecap="round"
     stroke-linejoin="round"
     d="m 341.67242,213.97861 0.285,1.474 0.811,-1.573 -0.281,7.033 -0.847,6.311 0.153,4.84 0.463,1.174 2.274,0.547 2.649,-0.124 4.348,-1.466 6.928,-3.779 1.821,-2.972 -0.327,-5.207 0.868,-5.168 -0.194,0.702 0.386,1.058 -0.628,3.985 -0.363,9.233 0.025,18.288 0.83,7.929 0.647,2.01 0.887,0.97 0.027,0.279 -0.27,-0.213"
     id="path873" />
  <path
     fill="none"
     stroke="#000000"
     stroke-width="4"
     stroke-linecap="round"
     stroke-linejoin="round"
     d="m 228.51642,497.08561 1.024,-1.12 1.7,-3.01 2.023,-2.27 5.413,-8.66 0.263,-1.47 0.737,-1.26 1.212,-1.3 1.36,-2.48 1.202,-1.26 0.679,-1.62 1.792,-2.7 5.148,-10.37 3.864,-9.14 5.197,-9.324 1.517,-1.723 1.083,-1.93 0.331,-1.824 5.096,-8.845 8.423,-17.301 1.61,-4.092 7.107,-11.139 2.196,-5.028 6.424,-11.378 4.206,-6.711 3.371,-4.467 1.9,-3.827 1.464,-4.642 1.072,-2.007 0.495,-2.225 1.171,-2.138 1.781,-2.08 2.353,-4.42 4.14,-5.873 8.022,-16.924 1.174,-3.64 2.939,-4.83 5.899,-8.599 3.921,-7.68 4.041,-9.316 1.051,-1.542 0.612,-1.529 0.178,-2.362 1.518,-4.503 2.452,-5.193"
     id="path877" />
  <path
     fill="none"
     stroke="#000000"
     stroke-width="4"
     stroke-linecap="round"
     stroke-linejoin="round"
     d="m 238.68042,519.08561 1.913,3.83 0.195,-1.11 0.43,-0.12 6.619,-0.89 4.648,-0.14 5.661,-0.62 10.272,-1.78 24.67,0.21 14.49,-3.06 4.534,-0.33 14.515,1.01 9.701,-0.01 16.779,-2.82 14.257,0.17 6.612,-0.28 9.736,-0.95 7.087,-1.08 h 2.052 l 0.828,-0.7 -0.611,0.16"
     id="path881" />
  <path
     fill="none"
     stroke="#000000"
     stroke-width="4"
     stroke-linecap="round"
     stroke-linejoin="round"
     d="m 368.53742,274.30761 -0.137,1.581 0.906,5.192 3.249,10.174 3.994,14.281 0.609,2.593 0.304,4.92 2.384,7.553 1.374,8.681 0.72,2.843 3.78,12.347 4.103,8.434 1.548,5.824 1.622,9.866 4.81,18.116 2.183,5.922 4.485,14.198 1.386,2.78 0.077,1.33 2.206,5.036 4.766,12.751 0.564,3.101 1.049,1.313 1.181,2.677 0.565,3.342 2.503,6.961 2.518,8.559 0.455,1.083 1.498,1.87 0.021,0.73 0.499,0.19 -0.33,0.09 0.586,0.08 0.133,0.37 -0.253,0.8 -4.054,2.89"
     id="path885" />
  <path
     fill="none"
     stroke="#000000"
     stroke-width="4"
     stroke-linecap="round"
     stroke-linejoin="round"
     d="m 195.00142,123.96361 -0.389,-0.276 3.384,0.11 3.688,-0.582 3.942,-1.456 3.795,-0.952 6.253,-0.259 3.663,-0.867 6.698,-2.531 7.584,-3.378 4.073,-1.014 8.686,-0.452 13.324,-1.695 11.116,-2.92 6.116,-1.111 6.021,-1.522 10.371,-2.003 10.857,-1.209 5.953,-1.17 11.864,-2.984001 25.487,-2.7 20.531,-4.267 5.207,-1.372 7.307,-1.129 5.477,-0.496 5.739,0.009 8.694,-1.086 23.31,-5.065 12.014,-1.324 13.753,-2.486 5.294,-1.956 2.16,-1.333 0.273,-0.448 -0.235,-0.35 -4.078,4.374"
     id="path889" />
  <path
     fill="none"
     stroke="#000000"
     stroke-width="4"
     stroke-linecap="round"
     stroke-linejoin="round"
     d="m 381.80742,210.76461 -0.112,-2.889 0.683,0.072 0.863,-0.65 4.774,-7.658 2.078,-2.792 2.878,-3.291 3.66,-3.483 1.48,-3.219 2.796,-3.577 1.079,-2.416 1.611,-2.536 2.932,-3.325 2.683,-4.09 3.265,-3.998 2.093,-4.001 2.984,-4.014 1.979,-4.269 4.569,-5.364 5.48,-7.912 3.148,-4.977 1.191,-2.445 1.19,-1.01 0.688,-1.076 0.155,-1.319 1.524,-2.349 0.158,-1.019 1.152,-2.46 2.092,-3.244 4.211,-4.787 3.043,-4.842 0.592,-1.632 -0.281,-2.825 0.21,-1.233 0.662,-1.327 0.047,-1.435 0.766,-1.496 7.453,-9.398001 2.609,-2.543"
     id="path893" />
  <path
     fill="none"
     stroke="#000000"
     stroke-width="4"
     stroke-linecap="round"
     stroke-linejoin="round"
     d="m 467.99642,96.290609 1.434,3.332 -0.722,1.572001 -0.243,2.438 -0.184,12.621 -0.511,4.621 0.171,4.041 -0.955,5.467 0.22,4.041 -1.457,16.715 -0.24,11.288 -1.029,11.368 -0.283,7.749 -0.94,4.755 -0.884,11.834 -0.603,3.231 -0.678,11.425 0.145,5.761 -0.245,2.986 0.237,2.875 0.716,2.804 0.12,7.317 -2.202,20.732 -0.149,11.064 0.491,11.093 -0.801,13.928 -1.598,9.264 -0.54,7.773 -0.192,9.603 -0.783,6.105 -0.114,3.071 0.808,8.061 -0.749,7.841 -1.51,8.947 -0.026,10.63 0.393,3.622 -0.835,3.083 -1.202,7.276 0.151,1.75 -0.33,1.984 -0.823,2.126 0.21,2.059 -0.213,2.021 -0.788,2.093 0.205,8.672 -0.111,1.064 -1.056,2.017 -1.502,9.977 -0.535,6.271 0.35,6.637 -0.112,1.276 -1.108,2.789 0.445,1.108 -0.203,1.909 -1.052,1.633 0.692,0.997 -0.439,3.041"
     id="path897" />
  <path
     fill="none"
     stroke="#000000"
     stroke-width="4"
     stroke-linecap="round"
     stroke-linejoin="round"
     d="m 502.72742,94.900609 1.796,1.766 1.058,0.467 2.318,2.328 6.798,4.154001 3.355,3.286 2.63,3.648 2.627,2.692 2.193,1.51 5.159,2.335 1.144,1.046 1.591,1.999 1.927,3.492 3.578,4.272 0.767,0.7 5.035,2.489 3.092,2.449 5.538,7.78 1.014,0.96 8.469,5.064 5.432,4.923 2.13,2.501 3.029,5.753 2.001,2.463 3.517,3.033 3.348,1.868 2.539,1.889 1.737,1.838 1.876,1.044 5.756,8.636 2.751,2.233 1.817,2.263 5.464,3.963 2.91,3.044 2.492,1.817 6.36,6.077 5.26,4.292 4.75,4.828 4.83,3.177 1.37,1.234 0.69,1.103 2.66,1.877 1.18,1.324 0.58,1.449 1.02,1.369 1.94,1.451 5.3,5.995 3.05,2.338 2.06,0.998 2.27,1.965 1.47,0.781 3.52,4.205 2.89,1.88 2.81,2.656 1.59,0.97 1.15,0.17 -0.27,-0.127 -1.08,0.576"
     id="path901" />
  <path
     fill="none"
     stroke="#000000"
     stroke-width="4"
     stroke-linecap="round"
     stroke-linejoin="round"
     d="m 461.19342,473.85561 3.254,-2.63 7.629,-7.51 4.361,-5.48 3.827,-3.987 2.022,-2.964 4.77,-4.812 3.471,-5.393 6.98,-8.043 8.218,-6.676 2.306,-3.357 3.191,-3.375 4.513,-6.354 1.564,-1.739 10.456,-8.743 3.971,-4.335 4.531,-4.268 4.052,-4.88 4.274,-3.447 5.213,-5.71 4.965,-4.146 2.777,-3.128 7.308,-5.889 12.158,-11.299 13.909,-11.855 2.227,-1.689 2.642,-1.398 6.05,-4.555 3.793,-3.68 0.736,-1.238 3.194,-2.316 3.42,-3.71 2.61,-1.86 1.37,-1.838 6.14,-5.785 3.24,-1.973 7.08,-5.919 3.1,-3.058 3.41,-4.136 2.49,-2.021 7.11,-6.986 5.32,-3.969 1.37,-1.464 0.83,-1.34 0.18,-1.39 0.87,-1.175 1.77,-1.165 0.86,-2.537"
     id="path905" />
  <path
     fill="none"
     stroke="#000000"
     stroke-width="4"
     stroke-linecap="round"
     stroke-linejoin="round"
     d="m 680.70542,232.90461 -0.3,-2.325 0.39,1.072 2.22,1.359 4.46,1.262 9,0.763 8.98,-0.024 7.18,1.073 -0.84,0.44 0.76,0.181 -0.72,0.217 -5.59,9.305 -10.91,21.451 -1.18,3.461 -0.23,2.47 1.08,1.392 0.75,0.394 0.56,-0.114 0.42,0.273 -0.26,0.011"
     id="path909" />
  <path
     fill="none"
     stroke="#000000"
     stroke-width="4"
     stroke-linecap="round"
     stroke-linejoin="round"
     d="m 521.06442,63.224609 -0.3,0.296 0.57,-0.374 4.115,-0.946 6.015,-0.496 7.955,-2.238 6.879,-0.618 3.037,-0.809 4.062,-1.579 5.22,-1.023 12.906,0.32 9.304,-1.536 10.793,-0.446 5.869,-1.399 5.53,-0.639 5.376,0.356 2.37,-0.241 3.3,-0.829 7.18,-0.231 7.21,-1.752 3.41,-0.31 1.96,-0.043 3.95,1.002 5.41,-0.052 1.52,-0.154 7.36,-2.471 1.39,-0.143 3.8,-0.114 7.2,1.332 4.23,0.132 9.28,-1.911 1.04,-0.533 1.94,-0.207 2.19,0.149 1.76,0.713 1.02,0.077 -0.57,0.786"
     id="path913" />
  <path
     fill="none"
     stroke="#000000"
     stroke-width="4"
     stroke-linecap="round"
     stroke-linejoin="round"
     d="m 699.37542,26.401609 0.8,-3.315 3.14,-1.275 3.62,-0.629 4.02,0.815 2.8,1.861 1.04,1.497 0.32,1.582 -0.41,1.727 -3.98,10.14 -7.17,9.984 -1.11,1.909 -0.89,2.954 -1.83,2.303 -0.25,1.137 1.17,2.972 3.01,3.791 2.32,1.186 1.97,0.191 2.56,-1.294 0.74,-0.781 0.28,-0.934 -0.74,-4.792 -0.7,-2.187 -2.9,-6.697 -2.56,-4.513 -4.46,-5.281 -4.08,-2.608 -0.58,-0.725 0.04,-1 0.92,-1.592 2.78,-3.749 2.82,-2.597 2.05,-1.217"
     id="path917" />
  <path
     fill="none"
     stroke="#000000"
     stroke-width="4"
     stroke-linecap="round"
     stroke-linejoin="round"
     d="m 468.58242,499.91561 -1.014,0.8 0.211,-0.69 2.742,-0.37 3.699,-1.41 5.215,-0.64 10.181,-2.26 7.397,-0.21 13.554,-2.26 6.664,0.79 4.183,-0.6 6.95,-1.89 8.755,-0.78 7.521,-0.11 5.105,0.53 3.687,0.01 12.77,-2.45 5.927,-0.78 6.991,-0.09 6.79,-0.5 19.735,-4.19 11.73,-1.64 12.24,-0.82 13.45,-1.68 12.1,-0.19 6.29,-0.76 0.38,-0.09 -1.25,-0.38 -0.1,-1.11"
     id="path921" />
  <path
     fill="none"
     stroke="#000000"
     stroke-width="4"
     stroke-linecap="round"
     stroke-linejoin="round"
     d="m 695.32542,450.47861 1.83,-0.556 0.08,-0.615 -0.63,-1.245 -1.7,-1.07 -2.47,-0.15 -4.82,1.144 -2.94,1.322 -1.11,1.042 -0.28,0.894 -1.32,1.612 -0.06,2.389 1.02,3.4 0.62,1.04 1.87,1.72 1.12,0.68 2.02,0.53 2.47,-0.05 1.3,-0.49 2.51,-1.89 0.95,-1.28 0.76,-1.4 0.83,-3.162 0.91,-1.937 -1.23,1.081 -0.26,0.897 0.14,1.191 -1.68,13.71 0.4,7.64 0.72,3.89 -0.05,3.53 -0.62,2.54 -0.31,3.14 0.08,3.77 0.38,1.9"
     id="path925" />
  <path
     fill="none"
     stroke="#000000"
     stroke-width="4"
     stroke-linecap="round"
     stroke-linejoin="round"
     d="m 689.78542,306.41861 -0.12,10.04 -0.61,7.508 -0.77,3.177 0.64,9.465 -0.93,3.619 -0.08,1.85 0.8,5.505 -0.12,3.695 0.61,13.987 -0.96,6.765 -0.26,5.928 0.22,3.618 -0.26,3.084 0.72,7.004 -0.04,5.956 -0.39,2.867 0.44,1.285 0.08,2.378 0.8,2.681 -0.18,5.565 0.49,2.833 0.1,2.059 -0.21,-0.5"
     id="path929" />
  <path
     fill="none"
     stroke="#000000"
     stroke-width="4"
     stroke-linecap="round"
     stroke-linejoin="round"
     d="m 207.09042,399.23061 -0.752,-0.447 0.552,0.814 0.89,6.671 -0.198,2.987 0.382,1.643 0.095,3.095 -0.633,6.926 1.375,13.847 -1.084,12.431 -0.087,4.764 0.518,1.647 -0.324,0.911 0.274,1.596 -0.324,2.96 0.462,0.96 0.268,2.72 -0.124,1.32 -0.36,0.62 -0.136,2.42 0.529,1.56 0.404,-0.16 -0.14,-0.41"
     id="path933" />
  <path
     fill="none"
     stroke="#000000"
     stroke-width="6"
     stroke-linecap="round"
     stroke-linejoin="round"
     d="m 53.042425,274.69761 -1.796,-0.949 -0.605,0.283 1.172,-0.178 -0.427,-0.33 0.177,-0.463 3.447,-3.053 2.061,-2.496 1.204,-1.873 -0.081,-0.837 0.378,-0.724 0.69,-0.641 0.855,-1.738 1.083,-1.005 0.145,-1.454 0.549,-0.977 2.56,-3.087 3.63,-5.461 2.261,-5.009 2.455,-2.322 0.799,-2.409 0.811,-0.459 1.344,-1.628 0.401,-1.432 1.745,-2.168 0.797,-1.82 1.567,-1.779 0.15,-0.85 2.493,-2.194 2.35,-3.984 4.182,-5.947 0.724,-1.829 1.166,-1.709 2.191,-2.536 2.045,-1.752 0.114,-1.826 0.509,-0.923 1.122,-0.88 6.037995,-9.855 3.771,-4.392 3.673,-5.498 2.124,-4.238 3.283,-4.725 0.314,-1.198 1.848,-1.403 1.074,-2.155 1.974,-2.33 0.772,-2.252 2.404,-2.657 1.079,-2.475 2.361,-1.929 2.902,-6.114 2.969,-4.243 0.698,-0.53 0.287,-0.547 -0.132,-0.479 1.587,-3.515 3.308,-3.339 -1.082,0.401 -0.12,0.21 0.568,0.244 -5.609,5.655 -7.397,9.661 -1.48,2.277 -5.262,10.715 -4.33,7.247 -5.689,8.24 -4.843,5.266 -1.101,1.829 -0.811,3.196 -0.693,1.104 -1.953995,2.237 -7.025,10.415 -2.313,2.794 -6.586,9.468 -0.766,1.199 -1.226,4.123 -2.416,3.583 -0.981,2.201 -2.114,1.801 -0.573,1.064 -3.245,2.601 -0.646,1.043 -3.173,10.183 -2.39,3.602 -2.285,1.703 -1.069,1.442 -2.866,2.775 -1.847,2.905 -1.049,2.958 -0.717,0.851 -0.513,1.372 -1.334,1.445 0.109,0.289 -0.48,-0.023 0.602,-0.373 0.602,-1.111 1.96,-5.846 2.814,-5.593 2.592,-3.749 2.244,-2.025 0.747,-2.87 2.882,-3.636 0.636,-1.418 2.679,-3.536 1.202,-2.217 3.625,-4.078 0.878,-2.183 2.911,-3.473 1.17,-2.675 3.423,-5.409 4.724,-10.218 4.098,-7.469 3.687,-4.868 1.7,-1.639 1.091995,-0.496 0.614,-1.355 5.58,-7.714 2.977,-3.736 4.307,-4.387 3.125,-5.143 0.674,-1.919 1.905,-1.71 3.963,-6.136 2.409,-2.216 3.221,-5.635 3.044,-3.535 2.895,-5.385 0.95,-2.642 2.506,-2.724 -0.101,-0.724 0.666,-0.015 -0.361,0.69 -4.043,4.834 -4.264,4.368 -2.943,4.08 -4.913,5.828 -6.48,9.723 -2.573,4.84 -0.363,1.574 -2.192,4.418 -4.753,4.593 -1.617,2.048 -5.138995,8.513 -4.142,5.918 -4.313,4.48 -2.08,1.544 -0.144,1.016 -0.668,0.998 -2.952,3.39 -3.757,6.297 -1.861,4.819 -4.175,5.667 -3.765,4.481 -1.454,3.679 -1.948,2.25 -0.273,0.755 -2.958,2.563 -0.898,1.141 -0.339,0.912 -2.456,3.425 -0.905,1.936 -6.526,9.311 -1.441,1.604 -0.309,1.552 -1.71,2.163 0.084,0.727 -1.267,2.595 0.577,-0.041 -0.825,-0.53 0.637,0.092 0.618,0.814 0.515,2.704 0.295,0.086 -0.058,-0.763 0.489,-0.015 -0.457,-0.035 0.293,0.293 -0.78,0.32 0.535,2.145 1.594,-0.122 0.441,-0.296 -0.561,-0.276 1.613,-2.009 4.842,-7.525 1.807,-1.988 4.501,-3.479 2.037,-2.342 0.81,-1.166 0.339,-1.166 1.883,-2.125 0.315,-1.041 1.211,-1.081 0.84,-1.483 0.317,-1.474 2.147,-2.288 0.514,-1.237 1.891,-1.75 1.944,-2.64 2.536,-4.103 1.362,-4.15 2.317,-3.425 6.386,-10.965 3.652,-4.975 0.085,-0.549 1.553,-1.299 0.157,-1.201 2.001,-2.138 0.819995,-2.497 2.232,-2.478 1.382,-2.342 1.193,-1.089 1.322,-2.08 1.985,-2.043 0.516,-0.877 0.251,-1.91 0.72,-1.191 1.202,-1.14 0.934,-1.841 2.386,-2.64 0.195,-0.888 1.445,-2.422 1.259,-1.554 4.097,-6.735 0.787,-0.542 0.435,-0.672 -0.095,-0.63 2.846,-4.172 3.358,-3.855 2.247,-5.216 4.383,-5.176 0.871,-1.944 0.384,-2.486 -0.323,-1.089 0.572,-0.259 -0.231,-0.795 0.298,-0.106 -4.006,3.199 -13.107,17.663 -5.832,8.406 -1.861,3.519 -5.156,5.491 -2.671,3.573 -7.014995,11.787 -12.434,16.523 -4.232,6.484"
     id="path937" />
  <path
     fill="none"
     stroke="#000000"
     stroke-width="6"
     stroke-linecap="round"
     stroke-linejoin="round"
     d="m 63.491425,316.88461 -1.657,-0.214 2.292,0.41 2.39,1.412 5.681,1.761 6.91,3.433 3.493,1.211 2.375,1.19 5.206,1.345 1.747,1.194 2.888,1.209 2.888,2.112 6.756995,3.255 3.36,1.249 2.007,1.397 5.114,1.365 5.464,2.605 10.496,4.212 3.133,1.155 3.227,0.738 6.183,2.294 3.478,1.819 6.221,2.329 1.102,0.793 4.597,0.822 3.907,1.941 4.384,1.652 6.098,1.489 2.964,0.364 1.006,-0.138 -0.243,-0.389 0.203,-0.229 1.342,-0.622 3.197,-0.745 -0.592,-0.034 0.3,-0.185 -0.668,-0.162 -1.4,-1.645 -3.774,-2.515 -8.884,-3.418 -8.013,-3.846 -3.062,-1.823 -8.089,-2.728 -8.352,-3.337 -2.548,-1.338 -3.922,-1.269 -8.623,-3.938 -8.711,-2.64 -11.409,-4.77 -8.674995,-2.212 -10.287,-3.919 -1.867,-0.293 -11.286,-3.279 -4.057,-0.713 -1.537,-1.168 -2.808,-0.802 -0.78,-0.352 0.193,-0.245 -0.454,0.103 1.876,0.535 6.477,3.529 16.283,6.58 7.469,3.889 5.319,2.251 13.623995,5.23 5.252,1.251 9.654,3.292 11.426,5.214 12.762,3.717 15.174,7.161 1.928,0.014 0.598,-0.364 -1.418,-0.37 -3.987,-1.906 -8.853,-4.65 -7.154,-2.566 -6.197,-2.991 -11.584,-4.789 -12.612,-4.42 -9.75,-4.016 -2.785,-0.73 22.314,10.238 17.022,6.477 10.151,4.302 6.889,2.437 9.046,4.392 7.407,2.6 1.961,1.041 0.214,0.445 -7.805,-3.513 -2.876,-0.884 -0.142,-0.356 0.25,0.024 0.744,0.623 2.352,0.938 4.641,3.292 4.54,1.977 2.506,0.672 -2.712,-2.238 1.819,0.304 -0.35,-0.041 -0.517,-0.724 -0.166,-0.998 -2.012,-1.206 5.724,3.296 -0.342,-0.558 -0.798,-0.423 -0.499,-0.863 -1.008,-0.362 -2.323,-1.675 -0.106,0.3 2.306,0.911 0.736,0.757 0.69,0.181 -1.991,-1.709 -3.249,-1.959 0.286,-0.155 -0.484,0.033 0.393,0.285 -0.309,0.011 4.179,1.289 -0.393,-0.848 -2.043,-0.731 0.405,-0.38 -0.471,0.058 0.365,0.297 -2.228,-0.605 -12.122,-4.353 -9.568,-4.24 -5.064,-1.894 -2.321,-1.413 -5.633,-2.485 -11.879,-3.689 -8.288,-4.204 -12.885,-4.189 -4.135,-1.534 -2.819,-1.449 -3.953,-1.111 -7.718995,-3.032 -6.708,-1.857 -0.592,-0.595 -5.392,-1.969 -5.112,-1.194 -2.254,-0.197 -5.63,-1.499 -1.025,0.043 0.506,0.312 -2.113,0.362 -0.001,0.754 -0.55,-0.026 -0.277,0.136 0.302,0.129 -0.855,0.291 0.746,0.096 -0.225,0.353 0.789,0.912 2.685,1.052 5.602,3.037 2.014,0.654 4.036,0.541 5.399,2.899 7.369,3.365 6.325,1.9 10.511995,5.211 9.444,3.054 9.807,4.249 0.835,0.61 2.175,0.761 0.425,-0.244 -0.737,0.048"
     id="path941" />
  <path
     fill="none"
     stroke="#000000"
     stroke-width="6"
     stroke-linecap="round"
     stroke-linejoin="round"
     d="m 63.963425,346.20161 -1.335,0.926 0.568,-0.378 0.838,-2.529 -0.375,0.581 -0.267,-0.41 -1.977,-0.936 -3.943,-4.354 0.005,-0.415 -3.435,-0.855 -0.259,-0.344 -1.378,-0.357 -0.237,-0.416 -0.824,0.744 -0.28,2.455 6.285,9.535 3.576,3.595 0.916,1.551 3.246,2.107 3.2,3.873 1.245,1.08 0.875,1.311 1.741,4.471 0.935,1.222 9.526,10.152 4.425,6.568 3.066,3.809 2.15,1.84 0.37,1.907 2.101,1.507 5.378995,6.891 2.521,2.399 3.416,6.017 4.523,4.968 8.038,10.227 5.846,5.766 0.154,0.962 3.584,4.861 0.827,2.053 0.761,0.828 3.67,2.401 0.793,1.288 1.982,1.183 0.66,0.75 -0.191,1.714 0.637,0.949 3.991,4.304 4.926,4.473 3.401,4.8 4.346,3.6 -0.074,0.86 0.297,0.48 2.583,1.62 1.887,1.84 1.318,0.38 0.837,0.63 -0.552,0.66 0.798,0.78 0.362,1.03 1.803,1.32 1.197,1.63 5.587,4.92 0.337,0.84 0.953,0.98 -0.056,0.63 2.393,1.19 2.75,2.55 1.242,1.59 -0.079,0.27 1.004,0.76 -0.213,0.49 0.391,0.47 1.077,0.39 3.381,2.78 4.495,-0.07 -0.486,-0.11 0.402,-0.29 -0.218,-0.75 0.394,-0.58 -0.658,-0.89 0.182,-0.56 -0.522,-0.58 -2.792,-1.76 0.341,-0.51 -1.243,-0.93 0.263,-0.52 -0.199,-0.56 -1.526,-2.2 -1.818,-3.56 -2.615,-3.02 0.319,-0.3 -1.715,-1.07 0.164,-0.87 -0.697,-0.78 -1.379,-0.6 -2.763,-2.9 -2.289,-2.65 0.269,-0.58 -0.53,-0.61 -1.38,-0.71 -2.326,-3 -1.399,-0.9 -0.665,-0.95 0.321,-0.71 -0.191,-0.56 -7.639,-9.069 -2.081,-3.04 -3.344,-3.859 -1.881,-2.891 -3.613,-2.741 -2.468,-3.878 -5.338,-5.783 -0.589,-1.57 -0.953,-1.39 -3.8,-2.569 -1.213,-1.385 -1.176,-2.55 -12.245,-12.255 -3.391,-4.329 -3.276,-2.888 -1.553,-2.329 -6.7,-7.616 -4.281995,-3.736 -3.36,-2.304 -1.267,-1.549 -3.9,-3.312 -4.096,-5.587 -4.803,-4.087 -8.278,-10.628 -3.843,-3.612 0.025,-0.72 -1.46,-1.766 -1.433,-0.951 0.104,-0.221 -1.181,-1.178 -1.907,-3.463 -0.184,0.101 0.768,0.669 -0.249,0.131 0.211,0.408 0.987,0.759 12.112,15.153 5.651,8.188 8.059,9.894 1.721,2.586 1.842,1.959 4.252,3.353 1.71,2.036 0.777,2.061 1.260995,2.071 5.898,7.701 2.786,4.773 3.062,4.444 6.558,8.129 10.022,13.288 4.191,3.618 1.96,2.321 1.029,1.902 1.588,0.938 2.783,2.589 6.297,7.864 1.211,-0.452 -0.067,-0.492 -0.528,-0.357 -0.688,-1.887 -5.262,-8.752 -4.883,-6.411 -5.167,-8.482 -4.995,-7.036 -2.587,-4.263 -6.714,-8.133 -3.06,-4.256 -3.457,-3.443 -3.312,-5.338 -5.361,-5.637 -10.761995,-14.17 -4.753,-4.067 -6.925,-9.078 -2.945,-2.383 -2.823,-1.136 -2.248,-2.097 -5.576,-7.536 -5.672,-4.289 0.419,-0.46 -0.287,-0.725 -0.254,0.104 0.269,0.363 -0.344,0.097 0.218,0.289 0.945,0.402 2.922,2.694 2.85,4.095 12.638,14.777 3.4,5.087 5.436,6.92 4.964,5.163 3.668,4.587 3.059995,3.231 0.963,1.82 2.818,3.102 1.315,2.986 1.017,1.426 5.185,5.372 4.68,4.304 0.054,0.909 2.027,1.236 1.651,1.731 3.97,6.458 4.255,5.432 0.575,0.711 3.977,2.624 2.55,3.522 0.792,1.713 1.3,0.704 -1.106,-0.471 -1.55,-2.005 -0.444,-1.378 -1.827,-2.979 -3.016,-4.84 -2.796,-3.582 -1.67,-3.044 -9.593,-10.689 -6.057,-8.244 -3.457,-6.066 -3.311,-3.097 -1.094,-2.378 -0.974,-1.167 -3.771995,-3.281 -1.178,-2.39 -0.968,-1.144 -1.699,-1.247 -5.088,-4.927 -6.719,-8.922 -2.691,-2.624 -1.876,-1.225 -1.526,-1.998 -3.868,-2.247 -1.646,-2.483 -3.408,-3.815 -0.941,-0.834 -1.229,-0.583 -0.397,0.092 -2.203,-1.324 -4.302,-4.194 -0.634,-0.973 -0.521,-0.144 0.929,0.895 -0.33,0.564 1.016,1.994 5.282,7.464 0.717,1.625 2.191,2.913 8.58,9.078 4.831,5.583 3.119,2.681 5.362,5.772 4.711,6.297 5.711,6.704 3.478995,5.192 5.089,4.984 0.901,1.488 3.8,3.986 1.921,2.683 4.284,3.965 9.129,13.512 7.707,6.955 1.654,1.807 0.759,1.672 0.737,0.735 -0.066,-0.515 -0.523,-0.345"
     id="path945" />
  <path
     fill="none"
     stroke="#000000"
     stroke-width="6"
     stroke-linecap="round"
     stroke-linejoin="round"
     d="m 346.66342,279.33161 -0.304,-0.18 0.717,-0.677 0.42,-0.243 -0.239,0.394 -2.462,2.056 0.21,0.276 -1.116,1.537 -1.242,4.3 -4.921,7.282 -2.292,5.063 0.305,0.792 -0.495,1.041 -1.186,0.916 -1.795,2.569 -1.1,1.011 -0.528,0.999 0.292,0.981 -1.908,5.721 -2.73,2.904 -1.803,4.031 -1.915,6.361 -6.476,9.22 -1.78,1.417 0.06,0.982 -3.898,9.241 -1.217,1.088 -0.796,1.259 -0.015,1.108 -5.448,7.684 -3.979,9.917 -1.729,2.383 -0.495,1.707 -1.648,1.79 -0.6,1.991 -3.993,5.751 -0.094,1.383 -0.624,1.157 -1.502,1.201 -1.755,2.228 -0.801,2.763 -1.395,2.863 -5.126,8.076 -5.293,9.145 -1.623,2.11 -0.861,2.051 -2.076,2.198 -0.621,1.047 0.068,0.936 -0.369,1 -0.607,1.006 -5.69,7.325 -1.588,4.177 -1.909,2.785 -1.499,3.605 -4.234,5.469 0.112,1.025 -0.455,1.052 -3.322,3.482 0.168,0.799 -0.239,0.758 -1.921,3.361 -0.237,1.31 -0.892,0.61 -2.115,2.61 -0.978,2.74 -3.779,6.05 -1.448,2.85 -0.026,0.6 -1.031,1.4 0.228,0.83 -0.336,0.65 -2.054,1.48 -0.667,0.83 -1.41,3.39 -0.938,1.17 0.028,1.18 -1.615,0.92 0.161,0.49 -0.747,1.39 -0.203,1.39 -1.435,3.08 0.222,1.66 1.002,0.48 -1.716,-0.23 1.241,0.28 1.431,2.29 -0.656,0.58 -0.16,-0.8 4.913,-7.05 4.422,-9.32 2.272,-3.93 0.872,-2.34 0.948,-1.04 1.641,-3.62 2.86,-3.06 0.488,-2 0.575,-0.93 2.556,-2.37 0.88,-1.2 0.068,-1.1 2.349,-5.779 8.482,-13.588 1.382,-2.75 2.479,-3.726 1.365,-1.067 0.711,-1.207 -0.207,-1.914 0.602,-1.03 1.081,-0.944 4.761,-8.881 2.821,-4.689 1.236,-1.412 0.735,-1.43 0.335,-2.244 0.676,-1.115 1.457,-1.058 3.032,-3.219 3.324,-5.614 3.62,-5.198 3.413,-6.467 1.443,-1.321 -0.306,-0.498 4.888,-8.313 6.497,-8.012 0.352,-1.039 0.812,-1.042 0.389,-1.237 0.015,-1.859 1.893,-4.919 7.655,-12.555 2.698,-7.13 2.558,-2.931 1.116,-2.553 1.122,-0.701 0.919,-1.7 1.591,-1.114 1.437,-4.601 1.294,-2.07 0.634,-2.427 1.948,-2.534 0.942,-2.281 6.125,-11.284 0.518,-3.276 -0.504,-0.489 0.23,-0.591 0.966,-0.578 0.14,-0.83 1.641,-2.469 1.346,-3.557 0.03,-1.534 -0.332,-0.494 0.182,-0.627 1.338,-2.008 1.179,-3.321 -0.126,-0.572 -0.24,0.572 -1.234,-0.829 0.707,-0.074 0.074,0.507 -1.768,1.326 -7.933,11.651 -1.704,1.852 -0.684,1.889 -2.752,4.063 -2.93,8.061 -1.516,3.132 -5.639,7.737 -0.99,1.784 -1.544,3.73 -2.234,4.107 -2.812,7.294 -3.465,4.85 -1.363,2.918 -3.063,4.284 -2.765,5.77 -1.86,2.653 -0.661,1.574 -0.031,1.576 -1.863,4.77 -2.881,5.4 -3.859,6.061 -3.23,7.401 -1.711,2.285 -0.583,1.178 -0.582,3.522 -0.83,1.119 -2.658,5.609 -6.421,8.292 -2.378,4.864 -6.291,9.6 -2.619,5.031 -1.238,1.527 -0.9,2.255 -1.957,2.343 -1.106,2.015 -2.24,2.487 -1.629,2.831 -0.402,1.632 -1.777,2.585 -1.431,3.775 -1.853,3.248 -1.681,1.714 -8.204,13.238 -7.61,10.67 -0.888,0.8 -2.621,5.02 -1.589,1.07 0.733,0.73 -0.251,0.61 -2.436,1.58 -0.622,0.94 0.077,0.78 -0.929,0.81 -0.309,0.84 0.51,0.56 -0.433,1.79 0.388,0.29 -1.556,1.32 -0.018,0.35 1.128,1.15 -0.408,0.39 -0.193,1.52 0.512,-0.44 0.747,-0.09 0.712,0.39 1.38,-0.27 -0.988,0.38 0.986,-0.2 -0.283,-0.29 2.091,-0.72 1.201,-1.35 2.811,-5.08 2.047,-2.43 0.698,-1.96 0.891,-1.08 0.948,-2.24 7.467,-12.19 1.329,-3.04 1.482,-2.31 0.347,-1.36 1.858,-2.78 0.446,-1.42 2.708,-2.61 0.85,-3.045 0.706,-1.204 3.352,-3.357 0.873,-2.388 3.557,-4.023 0.916,-1.497 0.342,-1.384 2.235,-2.907 0.923,-3.176 1.068,-1.559 3.151,-3.019 2.436,-4.467 6.889,-10.661 7.053,-9.016 1.137,-1.931 1.029,-3.321 3.103,-4.031 0.689,-3.314 2.949,-6.129 5.929,-8.56 2.771,-3.369 0.565,-1.557 1.014,-1.445 0.885,-3.866 1.484,-3.635 3.276,-7.108 4.36,-5.821 0.478,-1.626 1.24,-1.951 0.817,-4.219 2.089,-2.934 1.184,-2.485 1.619,-1.788 0.158,-0.666 1.576,-1.195 -0.146,-0.566 1.05,-0.731 -0.289,-0.733 0.409,-0.864 5.859,-10.118 1.417,-3.064 2.728,-3.999 0.163,-1.012 3.298,-4.979 1.109,-3.103 -0.161,-0.692 1.561,-2.362 0.823,-3.01 1.037,-1.853 1.101,-4.803 1.262,-1.731 0.059,-1.425 1.075,-1.072 0.197,-2.757 0.623,-1.321 -0.018,-0.918 -0.216,0.356 -2.263,0.735 -3.588,3.937 -2.3,5.037 -4.656,6.284 -0.922,1.94 -1.93,2.6 -1.371,2.53 -2.759,2.971 -0.812,1.483 -0.08,1.237 -0.798,2.346 -7.841,12.551 -0.902,1.685 -2.285,6.166 -2.165,2.935 -0.295,1.486 -2.465,3.318 -1.883,3.522 -3.54,5.158 -1.137,3.309 -1.289,2.333 0.042,0.982 -0.878,0.84 -0.574,1.103 -0.004,1.14 -0.845,2.138 -1.17,2.104 -4.919,6.656 -1.416,2.559 -1.673,3.564 -0.217,2.233 -2.48,4.616 -1.972,2.379 -0.113,1.279 -1.166,2.318 -0.921,2.826 -3.429,4.803 -0.852,1.425 -0.348,1.505 -1.885,2.544 -0.744,2.141 -3.453,5.407 -5.498,11.869 -2.176,3.453 -4.813,5.901 -3.016,4.954 -3.05,6.473 -0.474,1.87 -0.211,-0.224 0.265,-0.386"
     id="path949" />
  <path
     fill="none"
     stroke="#000000"
     stroke-width="6"
     stroke-linecap="round"
     stroke-linejoin="round"
     d="m 192.38142,122.20061 -3.267,1.478 1.728,-0.81 -0.096,0.232 1.642,-0.118 4.241,-0.801 3.373,-1.42 1.898,-1.204 3.912,-1.383 5.491,-0.028 10.723,-1.694 17.07,-0.888 9.991,-2.003 13.745,-1.168 13.952,-3.623 9.117,-0.633 12.579,-2.548 3.474,-0.06 10.013,-1.691 7.785,-0.608 7.141,-2.063 9.08,-0.967 10.44,-2.803001 10.293,-1.612 2.086,-0.045 4.081,-1.364 5.85,-1.041 10.044,-0.213 12.609,-1.764 4.196,0.125 4.687,-0.516 3.215,0.181 1.359,-0.481 9.523,-1.075 2.843,-0.969 3.886,-0.595 8.459,-0.719 0.165,-0.181 -0.569,-0.127 2.891,-1.174 6.876,-1.726 0.668,0.27 -0.783,-0.172 0.406,-0.155 2.449,-0.348 3.927,-1.672 7.553,-2.22 -0.509,-0.098 0.389,0.047 -0.219,-0.186 2.34,-0.574 0.101,-0.268 -0.235,0.208 -0.362,-0.261 0.169,-0.459 1.622,-0.817 0.254,-0.411 -0.387,-0.341 -1.155,1.019 -2.097,-0.281 -5.281,0.538 -3.075,0.716 -3.764,1.421 -11.988,1.819 -9.401,2.099 -12.679,1.886 -7.336,2.04 -8.449,0.637 -7.821,1.339 -13.742,1.359 -10.039,1.908 -4.518,0.092 -8.558,0.958 -17.923,2.822 -11.2,0.588 -6.57,1.472 -9.663,0.966001 -8.676,1.931 -4.875,0.75 -15.183,1.23 -7.732,1.915 -1.877,0.169 -1.661,0.613 -12.795,2.083 -3.401,1.024 -3.658,0.63 -3.304,0.017 -5.121,1.201 -11.569,1.141 -4.584,1.183 -2.811,0.127 -6.409,1.286 -6.561,0.146 -2.712,0.582 -5.531,2.915 -5.085,1.587 0.079,1.499 -0.27,0.776 0.516,0.435 -0.4,-0.05 3.293,0.157 9.296,-1.804 5.652,-0.069 4.778,-0.727 8.498,-2.515 5.525,-1.033 10.375,-0.378 9.643,-1.058 12.339,-3.181 3.612,-0.325 6.006,0.005 7.039,0.507 4.796,-1.075 6.065,-1.92 7.261,-1.485 9.484,0.638 6.501,-0.418 8.299,-1.221 13.071,-0.105 5.902,-0.699 10.014,-1.761 8.158,-0.548 13.546,-2.498 16.214,-2.527001 9.397,-2.2 7.529,-1.178 7.948,-0.551 7.638,-2.747 10.89,-1.057 0.89,-0.529 2.627,-0.703 0.619,-0.482 5.583,-1.344 6.745,-0.061 6.159,-2.114 6.024,-1.556 0.708,-0.385 -0.238,-0.144 0.706,-0.163 -0.115,-0.19 0.783,-0.119 -2.274,0.561 0.292,-0.137 -1.468,-0.192 -4.394,0.688 -17.662,4.326 -7.254,1.075 -12.727,3.17 -16.638,1.711 -6.208,0.194 -11.758,2.118 -18.076,1.34 -13.957,2.554001 -2.121,0.633 -1.921,1.106 0.013,0.482 0.566,-0.424 1.983,0.609 3.959,-0.44 10.484,-3.012 13.697,-1.535001 7.925,-1.638 9.293,-1.378 9.655,-2.919 12.961,-2.057 9.595,-1.068 7.062,-1.836 6.039,-1.101 2.902,-1.213 7.238,-1.716 1.765,-0.918 4.571,-1.394 1.266,-0.674 0.557,0.014 -0.892,0.56"
     id="path953" />
  <path
     fill="none"
     stroke="#000000"
     stroke-width="6"
     stroke-linecap="round"
     stroke-linejoin="round"
     d="m 238.76142,520.29561 -1.692,0.36 0.481,0.22 -0.216,-0.33 0.235,-0.13 4.972,0.7 7.507,-0.8 8.863,0.6 9.991,-2.18 3.516,-0.24 4.262,0.74 5.365,-0.1 8.983,-1.32 9.551,-0.51 5.575,-1.07 11.102,-0.57 3.202,0.24 7.048,-1.7 6.564,-1.14 7.499,0.45 11.452,-0.56 7.488,0.02 0.318,0.14 -0.213,0.21 2.227,0.38 8.85,0.41 8.861,-0.67 8.16,-0.05 2.992,-0.68 -0.347,-0.35 0.419,-0.17 6.152,-0.94 1.034,-0.54 2.136,-0.23 0.666,-0.33 -0.582,-0.07 0.74,0.16 -0.528,-0.1 0.725,-0.14 0.641,-0.93 -0.92,0.57 -2.534,-0.44 -5.89,-0.01 -3.732,-0.56 -10.916,0.17 -10.253,-0.85 -4.595,-0.09 -5.897,0.91 -8.552,-0.77 -8.918,1.12 -8.477,-0.28 -11.207,1.58 -5.12,-0.05 -15.875,1.53 -9.844,-0.08 -8.316,1.4 -7.666,-0.11 -3.967,0.38 -5.552,1.53 -6.693,0.71 -6.864,1.51 -0.993,0.46 -4.937,0.94 -4.379,1.61 7.916,-0.65 2.184,-0.63 13.421,-0.07 3.529,-0.51 3.716,-1.09 3.928,-0.7 10.373,-0.51 12.147,-1.2 19.761,-0.61 7.66,0.47 11.489,-0.21 8.197,0.25 3.403,0.62 4.624,-0.13 11.342,0.71 8.39,-1.24 7.216,0.03 0.864,-0.3 6.243,-0.09 7.758,-1.47 4.042,-0.16 0.547,-0.14 -0.085,-0.28 6.303,-0.24 -0.412,-0.12 0.431,-0.43 1.122,-0.48 -1.375,-0.6 -0.685,-0.95 0.034,-0.6 -1.561,-1.42 0.371,-0.33 -0.222,-0.2 -1.329,-0.37 -0.323,-0.24 0.504,0.07 -0.758,-0.38 -1.704,-0.22 -9.295,0.42 -2.414,-0.79 -1.533,-0.09 0.432,-0.09 -2.6,0.7 -5.045,0.44 -7.227,-0.96 -3.64,1.04 -3.295,0.49 -11.708,0.91 -6.006,0.06 -6.672,1.08 -8.537,0.59 -2.409,0.42 -5.504,0.35 -5.552,-0.12 -5.203,0.62 -3.695,0.81 -15.394,-0.31 -20.058,1.49 -2.606,0.1 -0.833,-0.35 -5.075,-0.22 -4.849,0.59 -0.332,0.4 -0.986,0.15 -8.072,-0.23 -3.567,0.29 -5.098,1.76 -1.847,0.41 -3.421,0.06 -2.047,0.9 -0.855,0.98 0.49,0.24 -0.148,0.17 -1.531,0.39 0.341,0.18 -0.504,0.23 -0.718,1.21 0.757,0.95 1.06,0.52 -0.387,0.34 1.548,0.43 -0.254,0.28 0.873,0.41 -0.609,0.14 1.19,-0.01 0.39,0.57 0.888,0.17 11.474,-0.68 6.239,0.27 3.519,-0.62 6.976,-0.53 6.564,0.05 15.631,-2.09 4.956,-0.22 12.686,-2.75 10.202,0.11 9.432,-1.44 13.525,-1.06 21.953,2.01 6.933,-0.16 5.63,-0.76 10.836,-3.6 -1.977,3.6"
     id="path957" />
  <path
     fill="none"
     stroke="#000000"
     stroke-width="4"
     stroke-linecap="round"
     stroke-linejoin="round"
     d="m 443.19342,471.95561 2.514,0.24 -1.145,0.22 -4.767,2.43 -4.949,1.28 -5.164,0.68 -3.472,1.14 0.539,-0.37 -0.51,-0.54 0.026,-1.06 -0.443,-0.31 -0.54,0.77 0.248,-0.11 -0.228,-0.28 -0.531,-0.08 0.018,0.26 0.708,-0.05 -0.67,0.06 0.628,0.05 0.221,0.56 2.026,12.49 0.815,3.25 0.558,0.69 0.679,0.31 0.63,-0.24 0.421,-0.43 0.511,-1.61 3.443,-3.12 1.255,-0.57 1.339,-0.07 1.464,0.28 2.703,1.78 1.811,2.41 1.042,2.53 0.013,1.43 -2.231,4.36 -2.694,3.27 -3.394,3.27 -4.896,2.38 -1.185,0.17 -0.799,-0.28 0.436,-2.1 1.731,-3.46"
     id="path961" />
  <path
     fill="none"
     stroke="#000000"
     stroke-width="6"
     stroke-linecap="round"
     stroke-linejoin="round"
     d="m 518.47942,63.455609 -1.952,0.246 1.317,-0.113 -0.351,0.516 0.61,-0.289 8.827,-0.497 10.489,-2.55 8.234,-0.047 4.498,-0.486 1.689,-0.614 4.379,-0.544 7.053,0.137 4.043,-0.25 14.414,-2.168 15.028,-0.409 7.504,-0.753 13.514,0.217 6.55,-0.317 14.64,0.02 1.41,-0.647 2.77,-0.27 4.31,-0.961 3.96,-0.264 3.57,-0.666 5.61,-0.237 4.51,-0.895 3.04,-0.117 3.31,-0.873 -0.45,-0.19 1.03,0.153 3.6,-0.656 3.56,0.055 -0.4,-0.017 1.66,-0.772 2.2,-0.736 2.62,-0.473 -1.5,0.19 0.84,-0.616 -0.22,-0.354 -3.1,-1.017 -11.74,-2.401 -4.45,-0.293 -0.82,0.583 -6.24,1.474 -16.12,0.39 -10.47,1.883 -14.08,0.966 -2.2,0.591 -2.67,0.163 -0.85,0.429 -11.177,0.111 -2.929,0.646 -8.692,0.549 -4.236,-0.306 -7.834,0.173 -1.14,0.306 0.348,0.234 -0.178,0.107 -3.565,0.478 -7.598,-0.435 -2.187,0.147 -4.608,1.337 -7.21,1.331 -4.31,0.539 -3.154,-0.047 -3.74,0.649 -3.063,1.143 -6.732,1.021 -7.497,2.11 -3.572,0.442 -6.174,1.657 -0.42,0.396 1.014,0.172 0.773,1.329 2.537,0.829 3.598,0.22 10.911,-0.701 6.423,-1.091 8.24,-2.085 10.584,-1.869 17.888,-1.834 12.62,0.243 14.037,-1.079 11.603,0.319 17.22,-1.072 5.38,-0.494 1.82,-0.658 20.09,-0.984 3.34,-0.44 0.74,-0.648 6.02,-2.032 3.87,-0.641 2.42,0.057 -0.93,-0.057 0.56,-0.069 -0.65,-0.124 -0.69,-0.612 -4.26,-0.346 -6.85,0.552 -9.22,1.267 -6.7,0.997 -9.81,2.865 -3.25,0.582 -13.59,-0.344 -5.82,1.05 -10.369,3.052 -0.386,-0.129 0.422,-0.124 -0.483,-0.048 0.247,-0.23 3.46,0.014 7.079,-0.849 11.21,-0.43 7.47,-1.001 13.59,-2.975 6.43,-0.574 9.29,0.084 -4.38,-1.13 -1.61,-0.068 -20.09,0.863 -16.23,2.557 -20.226,1.037 -11.745,2.066 -16.257,-0.499 -4.314,0.438 -3.621,1.009 -2.318,0.189 -3.979,0.032 -6.145,-0.566 -5.671,0.51 -5.026,0.878 -17.159,1.993 -0.343,0.326 0.346,0.253 -1.86,1.478 0.105,0.341 -1.959,0.591 -0.394,0.381 1.047,-0.002 -1.33,1.054 0.455,-0.176 1.686,0.957 3.098,0.275 31.041,-4.562 7.353,-0.391 6.908,-0.764 19.75,-0.7 7.868,-0.843 9.976,-0.207 8.604,-0.965 5.95,-0.282 7.41,0.245 5.44,-0.643 10.23,-2.259 11.86,-1.207"
     id="path965" />
  <path
     fill="none"
     stroke="#000000"
     stroke-width="6"
     stroke-linecap="round"
     stroke-linejoin="round"
     d="m 500.30342,94.434609 0.164,0.705 -0.231,0.419 -0.982,-1.464 0.596,0.418 1.463,2.221 2.442,1.773 3.727,4.540001 1.367,2.902 1.129,0.952 1.45,2.031 1.149,0.718 0.81,0.974 2.07,0.802 1.102,0.844 3.89,4.789 6.324,5.75 0.674,1.167 1.213,0.911 -0.037,0.427 1.496,0.524 1.722,1.177 3.473,4.243 0.388,0.942 2.302,1.789 0.442,1.059 2.541,1.579 11.658,11.537 3.023,2.464 3.928,2.188 1.301,1.287 0.665,2.188 0.537,0.846 1.055,0.683 0.016,0.913 0.772,0.761 1.51,0.762 5.698,5.093 3.136,1.41 3.21,2.832 1.499,1.887 4.589,4.409 5.783,4.023 6.218,4.945 1.935,2.843 5.594,4.55 1.28,0.672 0.868,0.716 0.053,0.688 2.016,1.257 0.572,0.8 3.232,2.424 3.27,3.904 3.13,2.699 2.17,2.559 2.19,1.498 1.05,1.645 1.29,0.947 -0.23,0.494 1.87,0.888 2.95,2.633 0.38,0.547 -0.16,0.479 1.65,0.739 1.94,1.466 2.81,2.814 6.2,4.784 0.34,0.97 3.02,2.27 -0.1,0.795 1.84,1.002 2.92,2.446 0.15,0.427 0.49,0.094 -0.27,0.183 2.57,0.705 0.47,1.023 1.8,1.244 3.73,2.486 2.26,0.777 -0.01,0.415 0.98,0.385 -0.32,-0.13 1.13,-3.984 -0.16,-1.03 0.61,-1.061 -0.31,-1.105 -11.65,-10.26 -0.41,-0.675 -1.75,-1.154 0.24,-0.706 -0.81,-0.506 -1.02,-1.82 -1.67,-1.454 -0.46,-1.162 -2.83,-1.685 -3.33,-2.807 -1.36,-1.992 -2.3,-1.846 -2.97,-3.795 -6.69,-4.654 -2.13,-2.326 -4.28,-3.073 -0.26,-1.02 -2.44,-1.962 -0.09,-0.949 -4.13,-2.875 -2.55,-2.617 -3.371,-2.117 -8.212,-6.606 -10.079,-10.11 -4.046,-3.207 -1.432,-1.719 -3.875,-2.278 -0.089,-0.447 -2.993,-1.274 -1.869,-1.255 -0.63,-1.179 -3.426,-2.618 -3.051,-3.346 -4.774,-3.769 -0.786,-1.136 -1.917,-0.747 -5.395,-3.197 -8.035,-7.247 -1.007,-1.436 -5.342,-2.794 -2.341,-2.076 -3.295,-2.262 -2.575,-2.434 -1.822,-1.073 -0.959,-0.861 0.693,-0.743 -0.538,-0.094 -1.905,-1.439 -1.8,-1.693 -6.531,-7.062 -1.112,-2.121 -2.142,-1.338 -2.45,-0.657 -0.988,-0.578 -1.442,-2.155 -3.908,-3.118001 -0.478,-0.838 -1.855,-0.938 -0.257,-0.693 -0.701,-0.523 -3.221,-1.267 2.87,2.15 3.289,3.340001 5.012,4.188 3.507,2.06 2.879,2.22 1.607,2.247 5.856,6.336 2.936,3.717 6.416,6.203 6.51,5.579 5.05,5.872 2.397,1.945 2.445,2.704 4.707,3.952 11.179,12.349 5.089,4.712 7.587,4.737 2.142,1.768 0.874,1.697 2.945,2.643 1.343,2.391 4.314,2.789 9.632,7.029 6.288,6.519 2.065,1.429 0.767,0.318 -0.157,-0.301 -1.041,-0.752 -6.716,-7.481 -5.699,-5.318 -2.375,-2.784 -3.147,-2.734 -2.66,-3.05 -1.741,-3.027 -6.312,-7.849 -4.199,-3.874 -1.779,-1.93 -1.218,-1.893 -2.085,-1.621 -6.227,-3.704 -2.503,-2.067 -4.723,-5.498 -5.124,-4.396 -5.285,-5.298 -3.038,-2.133 -0.477,-0.446 0.121,-0.568 -0.271,0.082 0.041,0.24 0.568,0.045 -0.43,0.192 0.238,0.392 6.372,3.868 29.994,26.483 3.101,2.985 2.557,3.037 5.777,5.155 1.95,2.689 2.327,2.451 22.771,21.262 2.85,3.241 -8.3,-7.907 -5.58,-6.41 -11.2,-10.165 -11.583,-11.881 -8.431,-7.658 -0.652,-1.011 -1.618,-0.652 1.939,0.998 3.512,5.125 2.12,2.389 12.048,12.335 8.569,7.353 5.577,4.231 4.099,3.817 2.5,1.721 1.94,2.245 1.81,4 1.15,1.516 3.77,2.987 5.73,6.265 3.29,2.366 4.07,4.675 0.34,1.177 1.12,1.052 2,1.182 7.8,6.446 3.25,3.221 1.94,1.202 -1.46,-1.088 -0.06,-0.778 -0.78,-1.1 -1.98,-1.149 -3.53,-3.427 -1.03,-1.722 -3.19,-3.621 -2.41,-4.078 -5.53,-6.579 -1.99,-2.066 -2.67,-1.966 -3.48,-3.262 -2.59,-1.48 -0.35,-0.473 0.93,-0.02 2.43,1.883 21.28,21.971 6.12,4.221 2.03,2.049 2.55,1.718 0.25,0.677 0.3,0.208 0.34,-0.312 -2.72,-1.471 -6.73,-4.574 -1.19,-1.415 -4.27,-6.828 1.92,2.185 5.86,5.406 2.04,2.647 2.71,2.273 0.62,1.036 -0.28,0.647 -0.42,0.104 -1.31,-1.299 -3,-1.696 -5.11,-5.065 -2.32,-1.8 1.59,1.269 3.28,4.714 4.29,4.662 2.52,2.406 3.24,1.905 0.82,1.501 3.56,2.604 -0.18,0.453 1.08,0.346 -0.42,0.124 0.94,-0.03 -0.67,0.001 0.87,-1.216 -0.19,-0.993 0.75,-0.658 -0.4,-0.144 0.57,-0.186 -0.56,-0.156 0.97,-0.004 -0.32,0.29 -0.07,-0.209 0.81,-0.27 -1.77,-1.006 -0.37,-0.836 0.18,-1.243 -0.53,-0.745 -1.73,-1.293 -0.14,0.279 -0.6,-0.194 -2.28,-1.73 -4.45,-5.55 -3.22,-2.229 0.71,-0.501 -0.17,-0.644 -1.54,-0.955 -0.48,-0.95 -3.96,-3.597 -0.6,-1.182 -13.31,-13.877 -0.58,-1.045 -7.02,-5.583 -0.96,-0.955 -0.08,-0.75 -4.22,-3.467 -1.18,-2.215 -1.02,-1.104 -3.71,-2.463 -1.68,-1.816 -0.96,-0.505 -0.53,-1.047 -3.658,-2.933 -4.217,-4.411 -4.652,-4.118 -0.296,-0.652 0.38,-0.514 -0.312,-0.325 -1.384,-0.228 -4.319,-2.628 -2.015,-2.408 -6.419,-5.443 -1.412,-2.002 -1.285,-0.617 -1.516,-1.513 -1.143,-0.322 -2.259,-1.526 -2.946,-2.94 -7.026,-5.329 -0.242,-0.637 -3.026,-0.964 -2.672,-3.092 -1.784,-1.319 0.09,-0.741 -0.621,-0.561 -3.507,-1.397 -5.978,-4.835 -4.453,-2.961 -1.962,-1.821 -4.598,-2.521 -2.597,-2.094 -0.678,-1.101 -1.205,-0.541 -1.382,-1.343 -3.297,-1.357 0.925,-0.23 -0.076,-0.239 -3.096,-2.744 -1.442,-1.756 -4.574,-3.635 -2.236,-2.636 -1.199,-0.702 0.225,-0.268 -2.076,-1.474 -2.072,-2.026001 -0.365,-0.983 -1.312,-1.148 -0.393,-0.892 -1.514,-1.014 -1.831,-2.003 -1.253,-0.9 -0.276,-0.344 0.546,0.244 -0.727,-0.099 0.099,-0.246 -1.684,-1.559 -0.054,-0.603 -0.765,-0.107 0.661,-0.053 -0.982,0.42 0.234,0.224 0.808,0.123 1.138,0.724 11.869,11.167001 4.546,3.677 1.167,1.483 3.412,2.449 6.324,6.687 4.701,3.267 3.797,3.305 2.987,2.04 4.061,4.287 5.035,3.453 4.163,4.453 6.599,5.94 2.878,2.454 0.253,-0.088 -1.953,-0.341 0.768,-0.282 -1.714,-1.169 -2.622,-2.71 -11.667,-12.915 -2.539,-1.975 -3.101,-1.831 -0.683,-1.038 -3.193,-1.939 -2.277,-2.728 -5.689,-4.991 -3.397,-4.347 -3.197,-2.809 -2.417,-0.81 -0.046,-0.314 -3.324,-2.514 -5.59,-5.144001 -1.577,-0.394 0.139,-0.472 -2.07,-0.286 0.772,-0.122 -2.16,-1.279 0.374,-0.276 -0.262,-0.298 -1.664,0.082 0.549,0.202 -0.339,0.118 1.167,-0.031 -0.483,-0.046 7.29,7.067001 4.312,3.599 2.24,3.812 1.383,1.498 2.304,1.518 7.948,7.5 2.24,2.868 9.561,10.338 7.396,6.468 4.497,4.775 3.482,3.155 4.579,5.194 4.453,2.812 5.929,5.276 3.546,3.756 -1.593,-2.208 -1.596,-1.276"
     id="path969" />
  <path
     fill="none"
     stroke="#000000"
     stroke-width="6"
     stroke-linecap="round"
     stroke-linejoin="round"
     d="m 465.40742,500.44561 2.492,-0.08 -0.547,0.01 0.559,0.45 1.882,0.17 2.079,-0.9 3.41,-0.49 2.538,0.13 6.282,1.05 11.526,-1.56 2.866,0.14 4.235,-0.34 5.889,-0.89 7.619,0.37 4.182,-0.27 3.185,-0.47 0.798,-0.47 25.84,-3.54 5.611,-1.16 7.874,-0.7 10.083,-2.2 7.415,-0.44 10.833,-1.81 10.403,-0.81 2.407,-0.59 -0.078,-0.44 9.385,-0.33 12.47,-1.7 7.19,-0.4 2.2,-0.51 -0.16,-0.31 5.54,-0.2 3.23,-0.8 6.12,-0.55 5.67,-1.22 3.41,-0.26 0.53,-0.1 -0.81,-0.18 0.15,-0.18 2.4,-0.18 -0.47,-0.09 0.43,-0.37 -0.9,-0.5 -0.07,-0.65 0.88,-1 -1.5,-2.83 -0.35,0.27 -3.11,0.06 -1.12,0.39 -6.54,0.67 -5.21,-0.04 -6.05,1.73 -8,-0.1 -3.25,0.54 -10.34,0.66 -2.79,0.51 -20.575,1.12 -12.627,1.82 -11.299,0.6 -3.818,0.52 -3.25,1.23 -4.155,1.03 -17.024,0.99 -2.689,1.01 -0.287,0.62 -0.529,0.25 -2.84,0.57 -10.686,1.19 -10.229,1.95 -2.324,1.05 -10.298,1.2 -4.839,1.33 -3.697,0.61 -7.878,0.71 -4.792,1.51 -5.467,0.61 -4.206,0.05 -0.411,0.2 0.481,0.19 -0.198,0.23 -2.894,0.09 12.82,-1.91 9.366,-0.7 11.1,-0.35 14.915,-2.81 9.239,-0.95 25.04,-1.68 19.489,-2.39 10.463,-0.41 7.761,-1.75 7.31,-0.65 7.284,-1.23 -2.584,-0.19 -17.529,1.29 -12.469,1.46 -18.858,0.94 6.662,-0.48 19.127,-3.11 7.28,-0.98 7.439,-0.44 3.4,-0.61 -1.028,0.01 -6.671,0.87 -16.72,0.94 -10.069,0.92 -11.494,2.01 -16.006,0.97 -3.321,0.98 -15.162,0.31 -4.4,0.92 -9.931,0.5 -6.482,1.69 -5.377,0.42 -7.639,1.32 -4.896,0.26 -1.314,0.22 0.477,0.09 -5.98,0.05 6.66,-1 18.921,-0.76 11.906,-1.98 5.171,-0.52 4.181,0.22 -14.615,1.72 -10.421,0.48 -7.364,0.99 -3.329,-0.04 -4.97,-0.59 0.275,0.25 -1.785,0.69 -4.503,0.93 0.156,0.19 -0.935,0.29 0.222,0.67 -1.178,0.26 -1.127,1.08 -0.596,1.01 0.068,0.72 0.758,0.56 0.271,1.44 1.067,0.68 -0.618,0.19 0.237,0.1 2.749,0.64 1.641,0.05 20.68,-2.3 6.361,-1.38 3.284,-1.53 -2.044,2.68"
     id="path973" />
  <path
     fill="none"
     stroke="#000000"
     stroke-width="6"
     stroke-linecap="round"
     stroke-linejoin="round"
     d="m 47.101425,270.31461 0.512,-1.892 -0.024,1.121 0.322,0.107 -0.46,-0.068 0.347,0.098 -0.658,0.948 0.479,-0.568 -0.113,-0.903 0.418,-1.502 -0.13,-3.859 0.316,-1.108 -0.707,-1.62 -0.043,-0.923 0.818,-2.65 -0.191,-0.782 0.401,-1.584 -0.13,-0.779 0.486,-1.273 -0.34,-1.657 1.077,-2.894 -0.183,-0.473 0.369,0.055 -0.317,0.35 0.285,0.024 -0.222,0.278 0.202,-0.101 -0.357,-0.043 0.4,0.175 -0.472,0.56 1.037,0.895 -1.102,1.676 0.35,6.557 -1.292,5.546 -0.459,4.665 -0.585,2.332 0.395,1.509 -0.445,0.984 0.314,0.408 -0.399,0.122 0.246,-0.195 0.428,0.988 -0.584,1.6 0.593,0.777 -0.504,-0.003 0.292,-0.398 -0.314,-0.375 0.962,0.133 7.77,-1.063 2.668,-0.569 1.217,-0.911 1.919,-0.052 1.831,0.815 2.727,-0.09 3.436,-2.197 -5.738,0.383 -8.045,-0.967 -4.453,0.186 0.129,0.179 -1.276,0.268"
     id="path977" />
  <path
     fill="none"
     stroke="#000000"
     stroke-width="6"
     stroke-linecap="round"
     stroke-linejoin="round"
     d="m 65.364425,316.91061 -0.966,0.791 0.639,-0.57 3.726,3.195 2.205,3.053 3.068,5.488 1.537,1.969 2.077,1.647 0.212,0.334 -0.451,0.26 1.116,0.062 0.066,0.309 -0.457,-0.468 -0.166,-1.763 -1.065,-3.563 0.034,-1.082 -0.792,-0.514 -0.164,-0.549 -1.966,-2.168 -3.322,-5.51 -0.099,-0.597 -2.874,-1.574 -0.78,-0.767 0.367,-0.473 -0.336,-0.589 -1.203,-0.325 -0.489,0.209 -0.673,-0.588 1.085,0.07 -0.695,0.164 3.93,-0.87 7.221,-0.157 5.502,-0.608 4.433,-1.503 2.925,-1.362 0.981,0.098 -1.095,-0.288 -3.63,0.482 -2.71,1.317 -7.676,0.839 -1.497,0.464 -0.475,0.465 -1.687,0.286 -3.769,-0.612 0.062,0.228 1.222,0.062 -0.155,0.274 -4.053,3.915"
     id="path981" />
  <path
     fill="none"
     stroke="#000000"
     stroke-width="6"
     stroke-linecap="round"
     stroke-linejoin="round"
     d="m 53.387425,341.45061 -1.489,0.43 0.475,-1.651 -0.175,0.24 0.606,0.322 1.168,2.137 1.553,6.807 2.635,8.076 2.875,7.122 1.78,1.83 -0.68,-0.379 0.865,-1.236 -0.152,-3.246 -2.124,-6.936 0.165,-1.194 -0.511,-1.162 -1.314,-1.032 -0.352,-1.74 -0.697,-0.462 -1.03,-1.513 -0.399,-2.76 -3.649,-6.866 -0.16,-0.917 -0.462,-0.07 0.966,0.173 0.639,0.469 0.14,0.498 0.883,0.403 4.738,1.314 8.074,3.564 12.713,4.416 -0.582,0.084 0.471,-0.08 -0.508,-0.051 0.5,-0.204 -1.155,0.076 0.686,0.05 -1.54,0.371 0.521,-0.103 -2.938,-1.633 -5.181,-2.432 -2.49,-0.574 -2.434,-0.046 -0.055,-0.288 -2.182,-0.547 -4.682,-2.19 -1.081,-0.862 -0.055,-0.564 -0.359,0.172 -0.937,-0.409 0.758,-0.19 -0.36,0.25"
     id="path985" />
  <path
     fill="none"
     stroke="#000000"
     stroke-width="6"
     stroke-linecap="round"
     stroke-linejoin="round"
     d="m 189.02542,119.90061 2.584,-0.466 -1.318,0.491 0.022,-0.248 0.51,0.097 1.742,1.261 9.809,4.259 8.84,5.187 1.364,1.145 2.574,0.706 1.323,-0.002 1.189,-0.486 -0.253,0.119 -0.913,-0.707 -3.682,-1.647 -3.152,-1.995 -3.409,-1.345 -3.065,-1.991 -3.271,-1.076 -7.287,-1.479 -2.464,-0.873 -2.332,-0.114 1.114,-0.165 -0.67,-0.047 0.988,-0.671 0.692,-1.003 2.518,-1.731 5.787,-6.134 4.246,-3.466 3.932,-2.266 1.309,-0.422 0.223,-0.237 -0.749,-0.042 -0.015,-0.228 0.497,0.226 -1.546,0.6 -2.86,4.158 -4.607,4.783 -2.426,1.934 -2.696,1.383 -0.525,0.654 0.146,1.711 -0.754,1.173 0.663,0.063 -2.309,0.093 0.607,0.925 -0.701,0.011 0.556,-0.112 3.335,1.372 5.697,2.889 7.321,2.859 3.894,0.839 1.582,-0.031 2.418,-0.636 -0.074,-0.689 -0.713,-0.259"
     id="path989" />
  <path
     fill="none"
     stroke="#000000"
     stroke-width="6"
     stroke-linecap="round"
     stroke-linejoin="round"
     d="m 225.09242,495.58561 2.285,-0.1 -0.494,0.28 -0.593,-0.21 0.093,-0.51 2.133,-1.5 7.685,-2.22 7.363,-1.36 9.879,-0.76 0.344,-0.16 0.08,-0.53 -1.648,-0.95 -1.797,0.03 -21.359,5.56 -4.649,0.63 -3.034,0.84 -0.503,0.51 0.432,-0.12 -0.763,-0.32 -0.045,0.24 0.346,-0.05 -0.197,-0.21 0.604,-0.23 0.039,-1.18 -0.095,-0.78 -0.838,-1.56 -0.15,-0.81 0.537,-1.36 -0.525,-1.02 0.583,-1.05 -0.193,-0.48 0.407,-1.22 0.229,-4.74 -0.23,-0.84 -1.337,-1.3 -1.283,-1.99 0.879,-2.86 -0.262,-0.45 0.389,0.32 -0.392,0.13 0.086,1.8 1.488,4.85 1.366,1.11 0.534,1.42 -0.968,2.22 0.569,1.58 -0.356,0.73 1.927,3.1 1.107,2.98 0.081,1.67 -0.607,0.15 0.859,0.19 0.113,-0.3 -1.381,0.36 0.83,-0.09 5.416,-2.63 10.141,-3.51 8.578,-2.53 6.375,-1.27 -1.007,-0.09"
     id="path993" />
  <path
     fill="none"
     stroke="#000000"
     stroke-width="6"
     stroke-linecap="round"
     stroke-linejoin="round"
     d="m 234.54842,523.06561 -2.17,-0.99 1.398,0.21 1.707,1.35 6.021,2.72 3.81,2.19 8.546,4.13 4.941,1.17 1.175,0.59 -0.79,-0.18 0.24,-0.11 -0.604,-1.02 -1.697,-1.6 -4.308,-2.58 -6.501,-3.02 -4.3,-2.55 -4.842,-1.45 -1.38,-0.7 -6.09,-1.68 0.513,0.11 2.286,-0.8 3.542,-2.29 6.534,-2.93 9.525,-3.23 3.066,-2.19 0.542,-0.9 3.178,-0.36 -10.81,3.72 -1.74,1.29 -3.849,2.07 -3.244,1.12 -3.045,0.3"
     id="path997" />
  <path
     fill="none"
     stroke="#000000"
     stroke-width="6"
     stroke-linecap="round"
     stroke-linejoin="round"
     d="m 467.84842,501.54561 1.813,-0.82 -3.175,-1.79 3.758,0.91 9.284,4.54 11.515,7.31 2.193,0.61 -0.552,-0.35 -0.616,-1.31 -5.543,-4.11 -15.963,-7.96 -1.203,-0.93 -1.903,-0.17 -0.651,-0.63 -2.427,-0.83 -0.749,-0.56 1.422,0.11 -0.849,-0.12 0.256,-0.13 1.93,-0.62 7.043,-3.53 4.477,-1.64 4.621,-2.6 3.689,-1.61 1.205,-0.67 2.528,-2.22 0.65,-1.34 1.807,-1.39 -0.883,0.45 -0.083,0.44 -4.608,4.17 -3.519,2.34 -4.763,2.34 -4.417,3.98 -5.349,3.63 -1.993,0.71 -5.055,-0.26 1.202,1.1 -1.048,-0.2 0.379,0.03 0.686,0.92 2.484,1.38 8.407,2.86 11.334,4.66 2.769,1.33 -1.058,0.02 1.571,0.16 -1.078,-2.2 -0.945,-0.48"
     id="path1001" />
  <path
     fill="none"
     stroke="#000000"
     stroke-width="6"
     stroke-linecap="round"
     stroke-linejoin="round"
     d="m 500.60842,92.700609 -1.174,2.551 -0.353,-0.478 0.552,-1.229 0.675,0.707 -0.015,0.997 1.988,4.67 0.925,3.607001 1.68,4.263 1.543,6.072 1.844,3.62 1.215,4.104 0.902,2.234 0.32,0.127 0.809,-0.21 -1.274,-0.263 -0.112,-0.275 0.483,-0.117 -0.16,-0.479 0.43,-0.451 0.024,-1.741 -3.527,-11.939 -1.142,-6.23 -1.482,-3.790001 -2.267,-4.006 -0.638,-2.403 -0.937,-1.037 -0.141,-0.421 0.711,-0.575 -0.361,-0.448 -0.46,0.125 0.725,-0.083 8.424,2.502 7.327,2.619 5.046,2.729 2.535,0.634 0.658,0.496 3.178,0.496 1.386,0.727 -2.133,-0.573 1.111,-0.215 -0.612,0.003 -5.727,-2.207 -5.852,-4.349 -3.169,-0.646 -2.253,0.008 -1.525,-0.46 0.13,-0.483 -0.477,-0.445 -3.762,-2.013 -0.448,-0.91 -1.018,1.096 0.064,0.595 -0.246,-0.205 0.22,-0.328 -2.574,2.225"
     id="path1005" />
  <path
     fill="none"
     stroke="#000000"
     stroke-width="6"
     stroke-linecap="round"
     stroke-linejoin="round"
     d="m 513.87642,65.234609 -0.012,0.512 1.636,0.897 4.485,0.999 4.132,1.81 12.804,7.674 1.763,0.358 0.265,-0.637 -0.442,-0.416 -0.141,-1.418 -0.677,-0.438 -1.246,-0.427 -3.99,-2.471 -3.903,-1.533 -4.264,-2.628 -0.809,-1.041 -2.993,-1.61 -6.551,-1.669 -1.222,-0.433 0.369,0.089 -0.498,-0.415 0.521,-0.051 -0.443,0.046 0.563,-0.22 2.096,-2.342 4.351,-2.921 6.482,-5.686 3.635,-2.58 1.165,-1.324 3.682,-1.335 0.516,-0.524 -0.258,-0.347 0.435,0.032 -3.372,1.203 -3.154,1.7 -2.079,2.03 -0.833,1.322 -3.085,1.259 -1.186,0.798 0.053,0.665 -3.261,1.645 -3.546,0.989 -0.641,1.357 -1.045,0.342 0.387,0.174 -1.135,-0.073 0.417,0.436 -0.243,0.131 1.049,-0.084 -0.92,-0.384 0.686,-0.101 11.048,-6.276 2.749,-2.118 2.519,-2.671 2.945,-0.789 -1.179,0.304 0.264,-0.049 -0.141,0.225 -3.245,2.76"
     id="path1009" />
  <path
     fill="none"
     stroke="#000000"
     stroke-width="4"
     stroke-linecap="round"
     stroke-linejoin="round"
     d="m 492.16742,45.679609 0.04,-0.978 -0.336,-0.486 -1.457,-1.025 -0.557,-0.099 -2.487,1.065 -3.778,3.291 -1.13,1.941 -3.875,5.068 -1.94,2.963 -1.248,3.112 -0.643,3.275 -0.155,6.669 0.342,3.359 1.672,5.755 1.203,1.701 1.606,0.768 3.8,0.539 1.955,-0.028 1.868,-0.56 3.259,-1.969 1.364,-1.298 2.02,-3.02 0.696,-2.225 -0.431,-0.693 -1.031,-0.408 -1.218,-0.013 -5.942,1.796 -4.592,2.616 -3.849,1.725 -1.031,0.056 1.947,-1.961"
     id="path1013" />
</svg>
